<svg width="32" height="21" viewBox="0 0 32 21" fill="none" xmlns="http://www.w3.org/2000/svg">
<path d="M11.2364 10.2605C11.2364 4.51261 14.7256 1.69188 16.4703 1C11.4856 1 9.49175 5.89636 9.11789 8.34454C6.52587 9.11092 2.18236 12.4958 1.64092 13.6134C-0.153554 17.3176 6.95788 17.1793 10.7379 16.6471C12.4327 19.3294 15.2656 20 16.4703 20C11.9841 17.8286 11.1118 12.6022 11.2364 10.2605Z" fill="#FF0000" stroke="#FF0000"/>
<path d="M23.9472 8.98319C21.4549 13.4538 18.8795 13.8263 16.7195 14.7311C19.81 14.4756 25.0688 11.9636 27.3119 10.7395C32.5956 7.16303 31.5904 5.09804 30.4273 4.5126C27.935 3.10756 24.4042 3.5014 22.9503 3.87395C24.8445 5.78991 24.5703 7.70588 23.9472 8.98319Z" fill="#FF0000" stroke="#FF0000"/>
</svg>
