<svg width="300" height="455" viewBox="0 0 300 455" fill="none" xmlns="http://www.w3.org/2000/svg">
<path d="M75.2298 287.27H65.0898V305H61.4898V284H78.7998V305H75.2298V287.27ZM82.229 298.1C82.229 296.68 82.549 295.43 83.189 294.35C83.849 293.27 84.739 292.43 85.859 291.83C86.979 291.21 88.249 290.9 89.669 290.9C91.089 290.9 92.349 291.21 93.449 291.83C94.569 292.43 95.459 293.27 96.119 294.35C96.779 295.43 97.109 296.68 97.109 298.1C97.109 299.5 96.779 300.75 96.119 301.85C95.459 302.93 94.569 303.78 93.449 304.4C92.349 305 91.089 305.3 89.669 305.3C88.249 305.3 86.979 305 85.859 304.4C84.739 303.78 83.849 302.93 83.189 301.85C82.549 300.75 82.229 299.5 82.229 298.1ZM85.559 298.1C85.559 298.96 85.739 299.72 86.099 300.38C86.459 301.02 86.949 301.53 87.569 301.91C88.189 302.27 88.889 302.45 89.669 302.45C90.429 302.45 91.119 302.27 91.739 301.91C92.379 301.53 92.879 301.02 93.239 300.38C93.599 299.72 93.779 298.96 93.779 298.1C93.779 297.24 93.599 296.48 93.239 295.82C92.879 295.16 92.379 294.65 91.739 294.29C91.119 293.93 90.429 293.75 89.669 293.75C88.889 293.75 88.189 293.93 87.569 294.29C86.949 294.65 86.459 295.16 86.099 295.82C85.739 296.48 85.559 297.24 85.559 298.1ZM102.253 297.8H106.633C107.593 297.8 108.453 297.9 109.213 298.1C109.973 298.3 110.573 298.65 111.013 299.15C111.453 299.65 111.673 300.35 111.673 301.25C111.673 302.29 111.323 303.18 110.623 303.92C109.943 304.64 108.813 305 107.233 305H102.253V302.6H106.243C107.043 302.6 107.623 302.43 107.983 302.09C108.343 301.75 108.523 301.35 108.523 300.89C108.523 300.65 108.473 300.43 108.373 300.23C108.273 300.03 108.133 299.85 107.953 299.69C107.793 299.53 107.563 299.41 107.263 299.33C106.983 299.25 106.643 299.21 106.243 299.21H102.253V297.8ZM102.253 298.4V296.84H105.943C106.243 296.84 106.513 296.8 106.753 296.72C107.013 296.64 107.223 296.52 107.383 296.36C107.543 296.2 107.673 296.02 107.773 295.82C107.873 295.62 107.923 295.41 107.923 295.19C107.923 294.73 107.743 294.35 107.383 294.05C107.043 293.75 106.563 293.6 105.943 293.6H102.253V291.2H106.333C107.193 291.2 107.973 291.33 108.673 291.59C109.393 291.83 109.973 292.23 110.413 292.79C110.853 293.33 111.073 294.05 111.073 294.95C111.073 295.73 110.853 296.38 110.413 296.9C109.973 297.4 109.393 297.78 108.673 298.04C107.973 298.28 107.193 298.4 106.333 298.4H102.253ZM100.363 291.2H103.543V305H100.363V291.2ZM116.066 299.06V296.39H126.626V299.06H116.066ZM124.886 291.2H128.066V305H124.886V291.2ZM114.656 291.2H117.836V305H114.656V291.2ZM144.715 294.2L132.325 306.05L132.475 302L144.865 290.15L144.715 294.2ZM135.505 291.2V302.39L132.325 306.05V291.2H135.505ZM144.865 290.15V305H141.685V293.81L144.865 290.15ZM161.648 294.2L149.258 306.05L149.408 302L161.798 290.15L161.648 294.2ZM152.438 291.2V302.39L149.258 306.05V291.2H152.438ZM161.798 290.15V305H158.618V293.81L161.798 290.15ZM150.848 284.15H153.308C153.308 284.45 153.378 284.76 153.518 285.08C153.678 285.4 153.928 285.67 154.268 285.89C154.608 286.11 155.068 286.22 155.648 286.22C156.228 286.22 156.688 286.11 157.028 285.89C157.368 285.67 157.608 285.4 157.748 285.08C157.908 284.76 157.988 284.45 157.988 284.15H160.478C160.478 284.87 160.288 285.56 159.908 286.22C159.548 286.88 159.008 287.41 158.288 287.81C157.588 288.21 156.708 288.41 155.648 288.41C154.608 288.41 153.728 288.21 153.008 287.81C152.288 287.41 151.748 286.88 151.388 286.22C151.028 285.56 150.848 284.87 150.848 284.15ZM187.366 302.15H189.766V307.85H186.796V305H175.066V291.2H178.306V302.15H184.096V291.2H187.366V302.15ZM205.184 294.2L192.794 306.05L192.944 302L205.334 290.15L205.184 294.2ZM195.974 291.2V302.39L192.794 306.05V291.2H195.974ZM205.334 290.15V305H202.154V293.81L205.334 290.15ZM209.487 291.2H212.667V305H209.487V291.2ZM217.737 291.2H221.697L215.757 296.9L222.297 305H218.367L211.767 296.9L217.737 291.2ZM237.511 291.2V305H234.331V294.2H228.061V300.2C228.061 301.28 227.881 302.18 227.521 302.9C227.161 303.6 226.581 304.13 225.781 304.49C225.001 304.83 223.971 305 222.691 305V302.06C223.291 302.06 223.801 301.9 224.221 301.58C224.661 301.26 224.881 300.65 224.881 299.75V291.2H237.511ZM88.2307 354.6H84.9607V334.2H88.2307V354.6ZM99.6607 341.1C99.6607 342.62 99.3507 343.93 98.7307 345.03C98.1107 346.11 97.2907 346.94 96.2707 347.52C95.2507 348.08 94.1407 348.36 92.9407 348.36C91.7607 348.36 90.7307 348.07 89.8507 347.49C88.9907 346.89 88.3207 346.05 87.8407 344.97C87.3807 343.87 87.1507 342.58 87.1507 341.1C87.1507 339.6 87.3807 338.31 87.8407 337.23C88.3207 336.15 88.9907 335.32 89.8507 334.74C90.7307 334.14 91.7607 333.84 92.9407 333.84C94.1407 333.84 95.2507 334.13 96.2707 334.71C97.2907 335.27 98.1107 336.09 98.7307 337.17C99.3507 338.25 99.6607 339.56 99.6607 341.1ZM96.3007 341.1C96.3007 340.18 96.1107 339.4 95.7307 338.76C95.3507 338.1 94.8407 337.61 94.2007 337.29C93.5807 336.95 92.8907 336.78 92.1307 336.78C91.5107 336.78 90.9007 336.95 90.3007 337.29C89.7007 337.61 89.2007 338.09 88.8007 338.73C88.4207 339.37 88.2307 340.16 88.2307 341.1C88.2307 342.04 88.4207 342.83 88.8007 343.47C89.2007 344.11 89.7007 344.6 90.3007 344.94C90.9007 345.26 91.5107 345.42 92.1307 345.42C92.8907 345.42 93.5807 345.26 94.2007 344.94C94.8407 344.6 95.3507 344.11 95.7307 343.47C96.1107 342.81 96.3007 342.02 96.3007 341.1ZM101.697 341.1C101.697 339.68 102.017 338.43 102.657 337.35C103.317 336.27 104.207 335.43 105.327 334.83C106.447 334.21 107.717 333.9 109.137 333.9C110.557 333.9 111.817 334.21 112.917 334.83C114.037 335.43 114.927 336.27 115.587 337.35C116.247 338.43 116.577 339.68 116.577 341.1C116.577 342.5 116.247 343.75 115.587 344.85C114.927 345.93 114.037 346.78 112.917 347.4C111.817 348 110.557 348.3 109.137 348.3C107.717 348.3 106.447 348 105.327 347.4C104.207 346.78 103.317 345.93 102.657 344.85C102.017 343.75 101.697 342.5 101.697 341.1ZM105.027 341.1C105.027 341.96 105.207 342.72 105.567 343.38C105.927 344.02 106.417 344.53 107.037 344.91C107.657 345.27 108.357 345.45 109.137 345.45C109.897 345.45 110.587 345.27 111.207 344.91C111.847 344.53 112.347 344.02 112.707 343.38C113.067 342.72 113.247 341.96 113.247 341.1C113.247 340.24 113.067 339.48 112.707 338.82C112.347 338.16 111.847 337.65 111.207 337.29C110.587 336.93 109.897 336.75 109.137 336.75C108.357 336.75 107.657 336.93 107.037 337.29C106.417 337.65 105.927 338.16 105.567 338.82C105.207 339.48 105.027 340.24 105.027 341.1ZM125.141 341.1V339.66C125.941 339.66 126.511 339.51 126.851 339.21C127.211 338.89 127.391 338.5 127.391 338.04C127.391 337.58 127.211 337.21 126.851 336.93C126.511 336.65 126.041 336.51 125.441 336.51C124.941 336.51 124.521 336.61 124.181 336.81C123.841 336.99 123.581 337.23 123.401 337.53C123.241 337.81 123.161 338.11 123.161 338.43H120.041C120.041 337.57 120.271 336.8 120.731 336.12C121.191 335.44 121.821 334.9 122.621 334.5C123.441 334.1 124.371 333.9 125.411 333.9C126.391 333.9 127.271 334.07 128.051 334.41C128.831 334.75 129.441 335.21 129.881 335.79C130.321 336.37 130.541 337.01 130.541 337.71C130.541 338.71 130.081 339.54 129.161 340.2C128.241 340.84 126.901 341.14 125.141 341.1ZM125.351 348.3C123.591 348.3 122.191 347.86 121.151 346.98C120.131 346.08 119.541 344.92 119.381 343.5H122.561C122.701 344.14 122.981 344.68 123.401 345.12C123.841 345.54 124.491 345.75 125.351 345.75C125.911 345.75 126.391 345.67 126.791 345.51C127.191 345.35 127.491 345.13 127.691 344.85C127.911 344.55 128.021 344.2 128.021 343.8C128.021 343.38 127.911 343.02 127.691 342.72C127.471 342.42 127.141 342.19 126.701 342.03C126.281 341.87 125.761 341.79 125.141 341.79V340.2C127.001 340.16 128.461 340.46 129.521 341.1C130.601 341.72 131.141 342.67 131.141 343.95C131.141 344.85 130.881 345.63 130.361 346.29C129.861 346.93 129.171 347.43 128.291 347.79C127.411 348.13 126.431 348.3 125.351 348.3ZM137.713 354.6H134.443V334.2H137.713V354.6ZM149.143 341.1C149.143 342.62 148.833 343.93 148.213 345.03C147.593 346.11 146.773 346.94 145.753 347.52C144.733 348.08 143.623 348.36 142.423 348.36C141.243 348.36 140.213 348.07 139.333 347.49C138.473 346.89 137.803 346.05 137.323 344.97C136.863 343.87 136.633 342.58 136.633 341.1C136.633 339.6 136.863 338.31 137.323 337.23C137.803 336.15 138.473 335.32 139.333 334.74C140.213 334.14 141.243 333.84 142.423 333.84C143.623 333.84 144.733 334.13 145.753 334.71C146.773 335.27 147.593 336.09 148.213 337.17C148.833 338.25 149.143 339.56 149.143 341.1ZM145.783 341.1C145.783 340.18 145.593 339.4 145.213 338.76C144.833 338.1 144.323 337.61 143.683 337.29C143.063 336.95 142.373 336.78 141.613 336.78C140.993 336.78 140.383 336.95 139.783 337.29C139.183 337.61 138.683 338.09 138.283 338.73C137.903 339.37 137.713 340.16 137.713 341.1C137.713 342.04 137.903 342.83 138.283 343.47C138.683 344.11 139.183 344.6 139.783 344.94C140.383 345.26 140.993 345.42 141.613 345.42C142.373 345.42 143.063 345.26 143.683 344.94C144.323 344.6 144.833 344.11 145.213 343.47C145.593 342.81 145.783 342.02 145.783 341.1ZM151.179 341.1C151.179 339.68 151.499 338.43 152.139 337.35C152.799 336.27 153.689 335.43 154.809 334.83C155.929 334.21 157.199 333.9 158.619 333.9C160.039 333.9 161.299 334.21 162.399 334.83C163.519 335.43 164.409 336.27 165.069 337.35C165.729 338.43 166.059 339.68 166.059 341.1C166.059 342.5 165.729 343.75 165.069 344.85C164.409 345.93 163.519 346.78 162.399 347.4C161.299 348 160.039 348.3 158.619 348.3C157.199 348.3 155.929 348 154.809 347.4C153.689 346.78 152.799 345.93 152.139 344.85C151.499 343.75 151.179 342.5 151.179 341.1ZM154.509 341.1C154.509 341.96 154.689 342.72 155.049 343.38C155.409 344.02 155.899 344.53 156.519 344.91C157.139 345.27 157.839 345.45 158.619 345.45C159.379 345.45 160.069 345.27 160.689 344.91C161.329 344.53 161.829 344.02 162.189 343.38C162.549 342.72 162.729 341.96 162.729 341.1C162.729 340.24 162.549 339.48 162.189 338.82C161.829 338.16 161.329 337.65 160.689 337.29C160.069 336.93 159.379 336.75 158.619 336.75C157.839 336.75 157.139 336.93 156.519 337.29C155.899 337.65 155.409 338.16 155.049 338.82C154.689 339.48 154.509 340.24 154.509 341.1ZM175.703 336.75L175.853 333.9C177.253 333.9 178.503 334.21 179.603 334.83C180.703 335.45 181.563 336.3 182.183 337.38C182.823 338.46 183.143 339.7 183.143 341.1C183.143 342.48 182.823 343.72 182.183 344.82C181.543 345.9 180.663 346.75 179.543 347.37C178.443 347.99 177.163 348.3 175.703 348.3C174.263 348.3 172.963 347.97 171.803 347.31C170.663 346.63 169.763 345.62 169.103 344.28C168.443 342.94 168.113 341.28 168.113 339.3L171.563 341.1C171.563 341.96 171.743 342.72 172.103 343.38C172.483 344.02 172.983 344.53 173.603 344.91C174.223 345.27 174.923 345.45 175.703 345.45C176.483 345.45 177.183 345.27 177.803 344.91C178.423 344.53 178.913 344.02 179.273 343.38C179.633 342.72 179.813 341.96 179.813 341.1C179.813 340.24 179.633 339.48 179.273 338.82C178.913 338.16 178.423 337.65 177.803 337.29C177.183 336.93 176.483 336.75 175.703 336.75ZM170.093 341.1C170.093 339.98 170.233 338.98 170.513 338.1C170.793 337.2 171.183 336.44 171.683 335.82C172.203 335.2 172.813 334.73 173.513 334.41C174.213 334.07 174.993 333.9 175.853 333.9L175.703 336.75C175.223 336.75 174.733 336.85 174.233 337.05C173.753 337.23 173.313 337.51 172.913 337.89C172.513 338.25 172.183 338.7 171.923 339.24C171.683 339.78 171.563 340.4 171.563 341.1H170.093ZM168.113 339.3C168.113 337.42 168.283 335.76 168.623 334.32C168.983 332.88 169.603 331.66 170.483 330.66C171.383 329.64 172.623 328.84 174.203 328.26C175.563 327.76 176.593 327.21 177.293 326.61C177.993 325.99 178.413 325.32 178.553 324.6H181.703C181.603 325.48 181.283 326.3 180.743 327.06C180.203 327.82 179.493 328.49 178.613 329.07C177.753 329.63 176.773 330.1 175.673 330.48C174.433 330.92 173.463 331.53 172.763 332.31C172.083 333.07 171.613 333.93 171.353 334.89C171.093 335.83 170.963 336.8 170.963 337.8L171.263 340.95L168.113 339.3ZM186.152 334.2H189.332V348H186.152V334.2ZM194.402 334.2H198.362L192.422 339.9L198.962 348H195.032L188.432 339.9L194.402 334.2ZM213.636 337.2L201.246 349.05L201.396 345L213.786 333.15L213.636 337.2ZM204.426 334.2V345.39L201.246 349.05V334.2H204.426ZM213.786 333.15V348H210.606V336.81L213.786 333.15Z" fill="white"/>
<path d="M53.7236 7.324L53.0996 13H52.0796L53.0996 4.18L56.4596 10.264L59.8196 4.18L60.8396 13H59.8196L59.1956 7.324L56.4596 12.22L53.7236 7.324ZM66.8345 8.44L62.2745 13.42L62.3345 12.04L66.8945 7.06L66.8345 8.44ZM63.2345 7.48V12.1L62.2745 13.42V7.48H63.2345ZM66.8945 7.06V13H65.9345V8.38L66.8945 7.06ZM73.2512 15.64H72.2912V7.48H73.2512V15.64ZM77.8712 10.24C77.8712 10.832 77.7472 11.344 77.4992 11.776C77.2512 12.208 76.9192 12.54 76.5032 12.772C76.0952 13.004 75.6392 13.12 75.1352 13.12C74.6792 13.12 74.2752 13.004 73.9232 12.772C73.5792 12.54 73.3072 12.208 73.1072 11.776C72.9152 11.344 72.8192 10.832 72.8192 10.24C72.8192 9.64 72.9152 9.128 73.1072 8.704C73.3072 8.272 73.5792 7.94 73.9232 7.708C74.2752 7.476 74.6792 7.36 75.1352 7.36C75.6392 7.36 76.0952 7.476 76.5032 7.708C76.9192 7.94 77.2512 8.272 77.4992 8.704C77.7472 9.128 77.8712 9.64 77.8712 10.24ZM76.8992 10.24C76.8992 9.816 76.8112 9.456 76.6352 9.16C76.4672 8.864 76.2392 8.64 75.9512 8.488C75.6712 8.336 75.3592 8.26 75.0152 8.26C74.7352 8.26 74.4592 8.336 74.1872 8.488C73.9152 8.64 73.6912 8.864 73.5152 9.16C73.3392 9.456 73.2512 9.816 73.2512 10.24C73.2512 10.664 73.3392 11.024 73.5152 11.32C73.6912 11.616 73.9152 11.84 74.1872 11.992C74.4592 12.144 74.7352 12.22 75.0152 12.22C75.3592 12.22 75.6712 12.144 75.9512 11.992C76.2392 11.84 76.4672 11.616 76.6352 11.32C76.8112 11.024 76.8992 10.664 76.8992 10.24ZM78.7149 10.24C78.7149 9.68 78.8389 9.184 79.0869 8.752C79.3429 8.32 79.6869 7.98 80.1189 7.732C80.5509 7.484 81.0349 7.36 81.5709 7.36C82.1149 7.36 82.5989 7.484 83.0229 7.732C83.4549 7.98 83.7949 8.32 84.0429 8.752C84.2989 9.184 84.4269 9.68 84.4269 10.24C84.4269 10.792 84.2989 11.288 84.0429 11.728C83.7949 12.16 83.4549 12.5 83.0229 12.748C82.5989 12.996 82.1149 13.12 81.5709 13.12C81.0349 13.12 80.5509 12.996 80.1189 12.748C79.6869 12.5 79.3429 12.16 79.0869 11.728C78.8389 11.288 78.7149 10.792 78.7149 10.24ZM79.6869 10.24C79.6869 10.624 79.7669 10.964 79.9269 11.26C80.0949 11.556 80.3189 11.792 80.5989 11.968C80.8869 12.136 81.2109 12.22 81.5709 12.22C81.9309 12.22 82.2509 12.136 82.5309 11.968C82.8189 11.792 83.0429 11.556 83.2029 11.26C83.3709 10.964 83.4549 10.624 83.4549 10.24C83.4549 9.856 83.3709 9.516 83.2029 9.22C83.0429 8.916 82.8189 8.68 82.5309 8.512C82.2509 8.344 81.9309 8.26 81.5709 8.26C81.2109 8.26 80.8869 8.344 80.5989 8.512C80.3189 8.68 80.0949 8.916 79.9269 9.22C79.7669 9.516 79.6869 9.856 79.6869 10.24ZM87.7017 10.24V9.64C88.0697 9.64 88.3337 9.572 88.4937 9.436C88.6537 9.292 88.7337 9.12 88.7337 8.92C88.7337 8.704 88.6537 8.536 88.4937 8.416C88.3337 8.288 88.1097 8.224 87.8217 8.224C87.5817 8.224 87.3817 8.272 87.2217 8.368C87.0697 8.456 86.9577 8.568 86.8857 8.704C86.8137 8.832 86.7777 8.96 86.7777 9.088H85.8057C85.8057 8.776 85.8937 8.488 86.0697 8.224C86.2457 7.96 86.4857 7.752 86.7897 7.6C87.0937 7.44 87.4377 7.36 87.8217 7.36C88.1817 7.36 88.5057 7.428 88.7937 7.564C89.0817 7.7 89.3057 7.88 89.4657 8.104C89.6337 8.328 89.7177 8.576 89.7177 8.848C89.7177 9.248 89.5377 9.58 89.1777 9.844C88.8257 10.108 88.3337 10.24 87.7017 10.24ZM87.7977 13.12C87.1497 13.12 86.6297 12.944 86.2377 12.592C85.8537 12.24 85.6297 11.796 85.5657 11.26H86.5377C86.5937 11.524 86.7137 11.76 86.8977 11.968C87.0817 12.176 87.3817 12.28 87.7977 12.28C88.0537 12.28 88.2697 12.244 88.4457 12.172C88.6297 12.1 88.7697 11.996 88.8657 11.86C88.9617 11.724 89.0097 11.568 89.0097 11.392C89.0097 11.2 88.9577 11.036 88.8537 10.9C88.7577 10.764 88.6097 10.66 88.4097 10.588C88.2177 10.516 87.9817 10.48 87.7017 10.48V9.88C88.3897 9.88 88.9377 10 89.3457 10.24C89.7537 10.48 89.9577 10.86 89.9577 11.38C89.9577 11.74 89.8577 12.052 89.6577 12.316C89.4657 12.572 89.2057 12.772 88.8777 12.916C88.5497 13.052 88.1897 13.12 87.7977 13.12ZM92.2941 15.64H91.3341V7.48H92.2941V15.64ZM96.9141 10.24C96.9141 10.832 96.7901 11.344 96.5421 11.776C96.2941 12.208 95.9621 12.54 95.5461 12.772C95.1381 13.004 94.6821 13.12 94.1781 13.12C93.7221 13.12 93.3181 13.004 92.9661 12.772C92.6221 12.54 92.3501 12.208 92.1501 11.776C91.9581 11.344 91.8621 10.832 91.8621 10.24C91.8621 9.64 91.9581 9.128 92.1501 8.704C92.3501 8.272 92.6221 7.94 92.9661 7.708C93.3181 7.476 93.7221 7.36 94.1781 7.36C94.6821 7.36 95.1381 7.476 95.5461 7.708C95.9621 7.94 96.2941 8.272 96.5421 8.704C96.7901 9.128 96.9141 9.64 96.9141 10.24ZM95.9421 10.24C95.9421 9.816 95.8541 9.456 95.6781 9.16C95.5101 8.864 95.2821 8.64 94.9941 8.488C94.7141 8.336 94.4021 8.26 94.0581 8.26C93.7781 8.26 93.5021 8.336 93.2301 8.488C92.9581 8.64 92.7341 8.864 92.5581 9.16C92.3821 9.456 92.2941 9.816 92.2941 10.24C92.2941 10.664 92.3821 11.024 92.5581 11.32C92.7341 11.616 92.9581 11.84 93.2301 11.992C93.5021 12.144 93.7781 12.22 94.0581 12.22C94.4021 12.22 94.7141 12.144 94.9941 11.992C95.2821 11.84 95.5101 11.616 95.6781 11.32C95.8541 11.024 95.9421 10.664 95.9421 10.24ZM97.7579 10.24C97.7579 9.68 97.8819 9.184 98.1299 8.752C98.3859 8.32 98.7299 7.98 99.1619 7.732C99.5939 7.484 100.078 7.36 100.614 7.36C101.158 7.36 101.642 7.484 102.066 7.732C102.498 7.98 102.838 8.32 103.086 8.752C103.342 9.184 103.47 9.68 103.47 10.24C103.47 10.792 103.342 11.288 103.086 11.728C102.838 12.16 102.498 12.5 102.066 12.748C101.642 12.996 101.158 13.12 100.614 13.12C100.078 13.12 99.5939 12.996 99.1619 12.748C98.7299 12.5 98.3859 12.16 98.1299 11.728C97.8819 11.288 97.7579 10.792 97.7579 10.24ZM98.7299 10.24C98.7299 10.624 98.8099 10.964 98.9699 11.26C99.1379 11.556 99.3619 11.792 99.6419 11.968C99.9299 12.136 100.254 12.22 100.614 12.22C100.974 12.22 101.294 12.136 101.574 11.968C101.862 11.792 102.086 11.556 102.246 11.26C102.414 10.964 102.498 10.624 102.498 10.24C102.498 9.856 102.414 9.516 102.246 9.22C102.086 8.916 101.862 8.68 101.574 8.512C101.294 8.344 100.974 8.26 100.614 8.26C100.254 8.26 99.9299 8.344 99.6419 8.512C99.3619 8.68 99.1379 8.916 98.9699 9.22C98.8099 9.516 98.7299 9.856 98.7299 10.24ZM107.165 8.26V7.36C107.709 7.36 108.193 7.484 108.617 7.732C109.049 7.98 109.389 8.32 109.637 8.752C109.893 9.184 110.021 9.68 110.021 10.24C110.021 10.792 109.893 11.288 109.637 11.728C109.389 12.16 109.049 12.5 108.617 12.748C108.193 12.996 107.709 13.12 107.165 13.12C106.629 13.12 106.145 12.988 105.713 12.724C105.281 12.452 104.937 12.048 104.681 11.512C104.433 10.976 104.309 10.312 104.309 9.52L105.269 10.24C105.269 10.624 105.353 10.964 105.521 11.26C105.689 11.556 105.913 11.792 106.193 11.968C106.481 12.136 106.805 12.22 107.165 12.22C107.525 12.22 107.845 12.136 108.125 11.968C108.413 11.792 108.637 11.556 108.797 11.26C108.965 10.964 109.049 10.624 109.049 10.24C109.049 9.856 108.965 9.516 108.797 9.22C108.637 8.916 108.413 8.68 108.125 8.512C107.845 8.344 107.525 8.26 107.165 8.26ZM104.837 10.24C104.837 9.792 104.893 9.392 105.005 9.04C105.117 8.68 105.277 8.376 105.485 8.128C105.693 7.88 105.937 7.692 106.217 7.564C106.505 7.428 106.821 7.36 107.165 7.36V8.26C106.957 8.26 106.741 8.304 106.517 8.392C106.293 8.48 106.085 8.608 105.893 8.776C105.709 8.944 105.557 9.152 105.437 9.4C105.325 9.64 105.269 9.92 105.269 10.24H104.837ZM104.309 9.52C104.309 8.768 104.381 8.104 104.525 7.528C104.669 6.952 104.921 6.464 105.281 6.064C105.649 5.664 106.153 5.352 106.793 5.128C107.337 4.944 107.741 4.724 108.005 4.468C108.277 4.204 108.441 3.928 108.497 3.64H109.445C109.405 3.992 109.277 4.316 109.061 4.612C108.845 4.9 108.561 5.152 108.209 5.368C107.865 5.584 107.473 5.764 107.033 5.908C106.537 6.068 106.149 6.312 105.869 6.64C105.597 6.96 105.409 7.32 105.305 7.72C105.201 8.12 105.149 8.52 105.149 8.92V10.156L104.309 9.52ZM116.175 7.48V13H115.215V8.38H112.395V11.08C112.395 11.512 112.327 11.872 112.191 12.16C112.063 12.44 111.863 12.652 111.591 12.796C111.319 12.932 110.975 13 110.559 13V12.124C110.799 12.124 111.003 12.048 111.171 11.896C111.347 11.744 111.435 11.472 111.435 11.08V7.48H116.175ZM118.823 13H117.767L119.807 10.12H120.863L118.823 13ZM122.327 13H121.367V7.48H122.327V13ZM121.763 9.952V10.792H120.047C119.671 10.792 119.327 10.736 119.015 10.624C118.711 10.512 118.471 10.336 118.295 10.096C118.119 9.848 118.031 9.528 118.031 9.136C118.031 8.736 118.119 8.416 118.295 8.176C118.471 7.936 118.711 7.76 119.015 7.648C119.327 7.536 119.671 7.48 120.047 7.48H121.763V8.32H120.047C119.815 8.32 119.619 8.352 119.459 8.416C119.307 8.472 119.191 8.56 119.111 8.68C119.031 8.8 118.991 8.952 118.991 9.136C118.991 9.32 119.031 9.472 119.111 9.592C119.191 9.712 119.307 9.804 119.459 9.868C119.619 9.924 119.815 9.952 120.047 9.952H121.763ZM126.652 13.12C126.06 13.12 125.532 13.008 125.068 12.784C124.612 12.552 124.252 12.192 123.988 11.704C123.724 11.216 123.592 10.588 123.592 9.82C123.592 9.02 123.728 8.372 124 7.876C124.272 7.38 124.64 7.02 125.104 6.796C125.576 6.564 126.104 6.448 126.688 6.448C127.016 6.448 127.336 6.48 127.648 6.544C127.968 6.608 128.24 6.692 128.464 6.796L128.152 7.66C127.928 7.572 127.68 7.5 127.408 7.444C127.144 7.388 126.896 7.36 126.664 7.36C126.256 7.36 125.912 7.428 125.632 7.564C125.352 7.7 125.136 7.908 124.984 8.188C124.832 8.468 124.732 8.824 124.684 9.256H127.84V10.12H124.672C124.696 10.592 124.784 10.984 124.936 11.296C125.088 11.608 125.304 11.84 125.584 11.992C125.864 12.144 126.212 12.22 126.628 12.22C126.988 12.22 127.308 12.184 127.588 12.112C127.868 12.04 128.128 11.956 128.368 11.86V12.772C128.144 12.884 127.896 12.968 127.624 13.024C127.352 13.088 127.028 13.12 126.652 13.12ZM135.017 13L134.117 8.62L134.657 7.06L136.097 13H135.017ZM132.137 12.172L134.657 7.06L134.777 8.98L132.497 13.372L132.137 12.172ZM132.497 13.372L130.253 8.98L130.373 7.06L132.857 12.172L132.497 13.372ZM128.933 13L130.373 7.06L130.913 8.62L130.013 13H128.933ZM136.582 10.24C136.582 9.68 136.706 9.184 136.954 8.752C137.21 8.32 137.554 7.98 137.986 7.732C138.418 7.484 138.902 7.36 139.438 7.36C139.982 7.36 140.466 7.484 140.89 7.732C141.322 7.98 141.662 8.32 141.91 8.752C142.166 9.184 142.294 9.68 142.294 10.24C142.294 10.792 142.166 11.288 141.91 11.728C141.662 12.16 141.322 12.5 140.89 12.748C140.466 12.996 139.982 13.12 139.438 13.12C138.902 13.12 138.418 12.996 137.986 12.748C137.554 12.5 137.21 12.16 136.954 11.728C136.706 11.288 136.582 10.792 136.582 10.24ZM137.554 10.24C137.554 10.624 137.634 10.964 137.794 11.26C137.962 11.556 138.186 11.792 138.466 11.968C138.754 12.136 139.078 12.22 139.438 12.22C139.798 12.22 140.118 12.136 140.398 11.968C140.686 11.792 140.91 11.556 141.07 11.26C141.238 10.964 141.322 10.624 141.322 10.24C141.322 9.856 141.238 9.516 141.07 9.22C140.91 8.916 140.686 8.68 140.398 8.512C140.118 8.344 139.798 8.26 139.438 8.26C139.078 8.26 138.754 8.344 138.466 8.512C138.186 8.68 137.962 8.916 137.794 9.22C137.634 9.516 137.554 9.856 137.554 10.24ZM151.591 7.48L147.991 15.64H146.911L148.423 12.22L146.311 7.48H147.451L149.203 11.8L148.807 11.752L150.511 7.48H151.591ZM153.06 10.54V9.64H157.14V10.54H153.06ZM156.516 7.48H157.476V13H156.516V7.48ZM152.496 7.48H153.456V13H152.496V7.48ZM160.457 6.568V13H159.401V6.568H160.457ZM159.941 4.156C160.101 4.156 160.241 4.212 160.361 4.324C160.489 4.428 160.553 4.596 160.553 4.828C160.553 5.052 160.489 5.22 160.361 5.332C160.241 5.444 160.101 5.5 159.941 5.5C159.765 5.5 159.617 5.444 159.497 5.332C159.377 5.22 159.317 5.052 159.317 4.828C159.317 4.596 159.377 4.428 159.497 4.324C159.617 4.212 159.765 4.156 159.941 4.156ZM162.315 7.48H163.275V13H162.315V7.48ZM165.315 7.48H166.515L164.115 9.76L166.755 13H165.555L162.915 9.76L165.315 7.48ZM168.092 11.38C168.092 11.572 168.144 11.736 168.248 11.872C168.352 12 168.492 12.1 168.668 12.172C168.844 12.236 169.04 12.268 169.256 12.268C169.576 12.268 169.86 12.22 170.108 12.124C170.356 12.028 170.548 11.876 170.684 11.668C170.828 11.46 170.9 11.184 170.9 10.84L171.092 11.44C171.092 11.792 170.996 12.096 170.804 12.352C170.62 12.6 170.372 12.792 170.06 12.928C169.748 13.056 169.4 13.12 169.016 13.12C168.672 13.12 168.356 13.056 168.068 12.928C167.78 12.8 167.548 12.612 167.372 12.364C167.204 12.108 167.12 11.792 167.12 11.416C167.12 11.024 167.216 10.692 167.408 10.42C167.6 10.148 167.872 9.94 168.224 9.796C168.576 9.644 168.992 9.568 169.472 9.568C169.824 9.568 170.124 9.616 170.372 9.712C170.628 9.8 170.832 9.904 170.984 10.024C171.136 10.136 171.24 10.228 171.296 10.3V10.864C171.024 10.672 170.748 10.532 170.468 10.444C170.188 10.348 169.872 10.3 169.52 10.3C169.2 10.3 168.932 10.344 168.716 10.432C168.508 10.52 168.352 10.644 168.248 10.804C168.144 10.964 168.092 11.156 168.092 11.38ZM168.092 8.776L167.624 8.044C167.832 7.892 168.112 7.74 168.464 7.588C168.816 7.436 169.24 7.36 169.736 7.36C170.16 7.36 170.528 7.428 170.84 7.564C171.16 7.692 171.408 7.88 171.584 8.128C171.768 8.376 171.86 8.68 171.86 9.04V13H170.9V9.04C170.9 8.76 170.78 8.552 170.54 8.416C170.308 8.272 170.04 8.2 169.736 8.2C169.472 8.2 169.232 8.236 169.016 8.308C168.8 8.372 168.612 8.452 168.452 8.548C168.3 8.636 168.18 8.712 168.092 8.776ZM178.32 7.48V13H177.36V8.38H174.54V11.08C174.54 11.512 174.472 11.872 174.336 12.16C174.208 12.44 174.008 12.652 173.736 12.796C173.464 12.932 173.12 13 172.704 13V12.124C172.944 12.124 173.148 12.048 173.316 11.896C173.492 11.744 173.58 11.472 173.58 11.08V7.48H178.32ZM180.175 7.48H181.135V13H180.175V7.48ZM180.739 10.408V9.568H182.455C183.023 9.568 183.499 9.708 183.883 9.988C184.275 10.26 184.471 10.692 184.471 11.284C184.471 11.676 184.383 12 184.207 12.256C184.031 12.512 183.791 12.7 183.487 12.82C183.183 12.94 182.839 13 182.455 13H180.739V12.16H182.455C182.687 12.16 182.879 12.128 183.031 12.064C183.191 11.992 183.311 11.892 183.391 11.764C183.471 11.628 183.511 11.468 183.511 11.284C183.511 11.004 183.423 10.788 183.247 10.636C183.071 10.484 182.807 10.408 182.455 10.408H180.739ZM186.54 10.54V9.64H190.62V10.54H186.54ZM189.996 7.48H190.956V13H189.996V7.48ZM185.976 7.48H186.936V13H185.976V7.48ZM193.937 6.568V13H192.881V6.568H193.937ZM193.421 4.156C193.581 4.156 193.721 4.212 193.841 4.324C193.969 4.428 194.033 4.596 194.033 4.828C194.033 5.052 193.969 5.22 193.841 5.332C193.721 5.444 193.581 5.5 193.421 5.5C193.245 5.5 193.097 5.444 192.977 5.332C192.857 5.22 192.797 5.052 192.797 4.828C192.797 4.596 192.857 4.428 192.977 4.324C193.097 4.212 193.245 4.156 193.421 4.156ZM200.353 15.64H199.393V7.48H200.353V15.64ZM204.973 10.24C204.973 10.832 204.849 11.344 204.601 11.776C204.353 12.208 204.021 12.54 203.605 12.772C203.197 13.004 202.741 13.12 202.237 13.12C201.781 13.12 201.377 13.004 201.025 12.772C200.681 12.54 200.409 12.208 200.209 11.776C200.017 11.344 199.921 10.832 199.921 10.24C199.921 9.64 200.017 9.128 200.209 8.704C200.409 8.272 200.681 7.94 201.025 7.708C201.377 7.476 201.781 7.36 202.237 7.36C202.741 7.36 203.197 7.476 203.605 7.708C204.021 7.94 204.353 8.272 204.601 8.704C204.849 9.128 204.973 9.64 204.973 10.24ZM204.001 10.24C204.001 9.816 203.913 9.456 203.737 9.16C203.569 8.864 203.341 8.64 203.053 8.488C202.773 8.336 202.461 8.26 202.117 8.26C201.837 8.26 201.561 8.336 201.289 8.488C201.017 8.64 200.793 8.864 200.617 9.16C200.441 9.456 200.353 9.816 200.353 10.24C200.353 10.664 200.441 11.024 200.617 11.32C200.793 11.616 201.017 11.84 201.289 11.992C201.561 12.144 201.837 12.22 202.117 12.22C202.461 12.22 202.773 12.144 203.053 11.992C203.341 11.84 203.569 11.616 203.737 11.32C203.913 11.024 204.001 10.664 204.001 10.24ZM207.472 6.568V13H206.416V6.568H207.472ZM206.956 4.156C207.116 4.156 207.256 4.212 207.376 4.324C207.504 4.428 207.568 4.596 207.568 4.828C207.568 5.052 207.504 5.22 207.376 5.332C207.256 5.444 207.116 5.5 206.956 5.5C206.78 5.5 206.632 5.444 206.512 5.332C206.392 5.22 206.332 5.052 206.332 4.828C206.332 4.596 206.392 4.428 206.512 4.324C206.632 4.212 206.78 4.156 206.956 4.156ZM213.65 12.1H215.99V7.48H216.95V13H209.39V7.48H210.35V12.1H212.69V7.48H213.65V12.1ZM218.886 10.48V9.664H222.57C222.538 9.376 222.458 9.124 222.33 8.908C222.21 8.684 222.038 8.512 221.814 8.392C221.598 8.264 221.33 8.2 221.01 8.2C220.69 8.2 220.398 8.268 220.134 8.404C219.87 8.54 219.658 8.736 219.498 8.992C219.346 9.24 219.27 9.536 219.27 9.88L219.246 10.24C219.246 10.664 219.318 11.024 219.462 11.32C219.606 11.616 219.81 11.84 220.074 11.992C220.338 12.144 220.65 12.22 221.01 12.22C221.282 12.22 221.522 12.18 221.73 12.1C221.946 12.012 222.138 11.896 222.306 11.752C222.474 11.6 222.618 11.424 222.738 11.224L223.518 11.716C223.334 11.996 223.13 12.244 222.906 12.46C222.682 12.668 222.41 12.832 222.09 12.952C221.77 13.064 221.37 13.12 220.89 13.12C220.394 13.12 219.946 12.996 219.546 12.748C219.154 12.5 218.842 12.16 218.61 11.728C218.386 11.288 218.274 10.792 218.274 10.24C218.274 10.136 218.278 10.036 218.286 9.94C218.294 9.844 218.306 9.748 218.322 9.652C218.402 9.196 218.562 8.796 218.802 8.452C219.042 8.108 219.35 7.84 219.726 7.648C220.11 7.456 220.538 7.36 221.01 7.36C221.53 7.36 221.986 7.476 222.378 7.708C222.77 7.94 223.074 8.268 223.29 8.692C223.506 9.108 223.614 9.608 223.614 10.192C223.614 10.24 223.614 10.288 223.614 10.336C223.614 10.384 223.61 10.432 223.602 10.48H218.886ZM225.493 10.54V9.64H229.573V10.54H225.493ZM228.949 7.48H229.909V13H228.949V7.48ZM224.929 7.48H225.889V13H224.929V7.48ZM232.278 10.54V9.64H236.358V10.54H232.278ZM235.734 7.48H236.694V13H235.734V7.48ZM231.714 7.48H232.674V13H231.714V7.48ZM239.292 13H238.236L240.276 10.12H241.332L239.292 13ZM242.796 13H241.836V7.48H242.796V13ZM242.232 9.952V10.792H240.516C240.14 10.792 239.796 10.736 239.484 10.624C239.18 10.512 238.94 10.336 238.764 10.096C238.588 9.848 238.5 9.528 238.5 9.136C238.5 8.736 238.588 8.416 238.764 8.176C238.94 7.936 239.18 7.76 239.484 7.648C239.796 7.536 240.14 7.48 240.516 7.48H242.232V8.32H240.516C240.284 8.32 240.088 8.352 239.928 8.416C239.776 8.472 239.66 8.56 239.58 8.68C239.5 8.8 239.46 8.952 239.46 9.136C239.46 9.32 239.5 9.472 239.58 9.592C239.66 9.712 239.776 9.804 239.928 9.868C240.088 9.924 240.284 9.952 240.516 9.952H242.232ZM74.837 27.54V26.64H78.917V27.54H74.837ZM78.293 24.48H79.253V30H78.293V24.48ZM74.273 24.48H75.233V30H74.273V24.48ZM81.4902 28.38C81.4902 28.572 81.5422 28.736 81.6462 28.872C81.7502 29 81.8902 29.1 82.0662 29.172C82.2422 29.236 82.4382 29.268 82.6542 29.268C82.9742 29.268 83.2582 29.22 83.5062 29.124C83.7542 29.028 83.9462 28.876 84.0822 28.668C84.2262 28.46 84.2982 28.184 84.2982 27.84L84.4902 28.44C84.4902 28.792 84.3942 29.096 84.2022 29.352C84.0182 29.6 83.7702 29.792 83.4582 29.928C83.1462 30.056 82.7982 30.12 82.4142 30.12C82.0702 30.12 81.7542 30.056 81.4662 29.928C81.1782 29.8 80.9462 29.612 80.7702 29.364C80.6022 29.108 80.5182 28.792 80.5182 28.416C80.5182 28.024 80.6142 27.692 80.8062 27.42C80.9982 27.148 81.2702 26.94 81.6222 26.796C81.9742 26.644 82.3902 26.568 82.8702 26.568C83.2222 26.568 83.5222 26.616 83.7702 26.712C84.0262 26.8 84.2302 26.904 84.3822 27.024C84.5342 27.136 84.6382 27.228 84.6942 27.3V27.864C84.4222 27.672 84.1462 27.532 83.8662 27.444C83.5862 27.348 83.2702 27.3 82.9182 27.3C82.5982 27.3 82.3302 27.344 82.1142 27.432C81.9062 27.52 81.7502 27.644 81.6462 27.804C81.5422 27.964 81.4902 28.156 81.4902 28.38ZM81.4902 25.776L81.0222 25.044C81.2302 24.892 81.5102 24.74 81.8622 24.588C82.2142 24.436 82.6382 24.36 83.1342 24.36C83.5582 24.36 83.9262 24.428 84.2382 24.564C84.5582 24.692 84.8062 24.88 84.9822 25.128C85.1662 25.376 85.2582 25.68 85.2582 26.04V30H84.2982V26.04C84.2982 25.76 84.1782 25.552 83.9382 25.416C83.7062 25.272 83.4382 25.2 83.1342 25.2C82.8702 25.2 82.6302 25.236 82.4142 25.308C82.1982 25.372 82.0102 25.452 81.8502 25.548C81.6982 25.636 81.5782 25.712 81.4902 25.776ZM92.0401 25.86H93.1801L96.1801 30H94.9201L92.0401 25.86ZM90.5401 21.6H91.5601V30H90.5401V21.6ZM91.1041 22.5V21.6H92.8201C93.3641 21.6 93.8481 21.704 94.2721 21.912C94.7041 22.112 95.0441 22.4 95.2921 22.776C95.5481 23.152 95.6761 23.6 95.6761 24.12C95.6761 24.632 95.5481 25.08 95.2921 25.464C95.0441 25.84 94.7041 26.132 94.2721 26.34C93.8481 26.54 93.3641 26.64 92.8201 26.64H91.1041V25.74H92.8201C93.1801 25.74 93.4961 25.676 93.7681 25.548C94.0481 25.42 94.2641 25.236 94.4161 24.996C94.5761 24.756 94.6561 24.464 94.6561 24.12C94.6561 23.776 94.5761 23.484 94.4161 23.244C94.2641 23.004 94.0481 22.82 93.7681 22.692C93.4961 22.564 93.1801 22.5 92.8201 22.5H91.1041ZM99.3309 30.12C98.8189 30.12 98.3629 30 97.9629 29.76C97.5709 29.512 97.2629 29.172 97.0389 28.74C96.8229 28.308 96.7149 27.808 96.7149 27.24C96.7149 26.664 96.8269 26.16 97.0509 25.728C97.2829 25.296 97.6029 24.96 98.0109 24.72C98.4269 24.48 98.9069 24.36 99.4509 24.36C99.9949 24.36 100.459 24.476 100.843 24.708C101.235 24.932 101.535 25.256 101.743 25.68C101.951 26.104 102.055 26.608 102.055 27.192C102.055 27.248 102.051 27.308 102.043 27.372C102.043 27.428 102.043 27.464 102.043 27.48H97.3269V26.664H101.287L100.903 27.216C100.927 27.176 100.951 27.116 100.975 27.036C100.999 26.948 101.011 26.876 101.011 26.82C101.011 26.492 100.943 26.208 100.807 25.968C100.679 25.728 100.499 25.54 100.267 25.404C100.035 25.268 99.7629 25.2 99.4509 25.2C99.0829 25.2 98.7669 25.28 98.5029 25.44C98.2469 25.592 98.0469 25.816 97.9029 26.112C97.7669 26.4 97.6949 26.756 97.6869 27.18C97.6869 27.612 97.7549 27.98 97.8909 28.284C98.0269 28.588 98.2269 28.82 98.4909 28.98C98.7549 29.14 99.0749 29.22 99.4509 29.22C99.8269 29.22 100.159 29.14 100.447 28.98C100.735 28.812 100.979 28.56 101.179 28.224L101.959 28.716C101.671 29.18 101.307 29.532 100.867 29.772C100.435 30.004 99.9229 30.12 99.3309 30.12ZM103.803 28.296C103.803 28.504 103.851 28.684 103.947 28.836C104.051 28.988 104.191 29.104 104.367 29.184C104.551 29.256 104.759 29.292 104.991 29.292C105.287 29.292 105.551 29.232 105.783 29.112C106.023 28.992 106.211 28.824 106.347 28.608C106.491 28.384 106.563 28.128 106.563 27.84L106.755 28.56C106.755 28.912 106.647 29.204 106.431 29.436C106.223 29.668 105.963 29.84 105.651 29.952C105.347 30.064 105.043 30.12 104.739 30.12C104.403 30.12 104.087 30.052 103.791 29.916C103.503 29.772 103.271 29.568 103.095 29.304C102.919 29.04 102.831 28.72 102.831 28.344C102.831 27.808 103.019 27.38 103.395 27.06C103.779 26.732 104.311 26.568 104.991 26.568C105.391 26.568 105.723 26.616 105.987 26.712C106.259 26.8 106.475 26.904 106.635 27.024C106.795 27.136 106.903 27.228 106.959 27.3V27.864C106.679 27.672 106.391 27.536 106.095 27.456C105.799 27.368 105.483 27.324 105.147 27.324C104.835 27.324 104.579 27.364 104.379 27.444C104.187 27.524 104.043 27.636 103.947 27.78C103.851 27.924 103.803 28.096 103.803 28.296ZM103.659 25.752L103.191 25.044C103.399 24.892 103.683 24.74 104.043 24.588C104.411 24.436 104.851 24.36 105.363 24.36C105.795 24.36 106.171 24.428 106.491 24.564C106.819 24.692 107.071 24.88 107.247 25.128C107.431 25.376 107.523 25.68 107.523 26.04V30H106.563V26.172C106.563 25.98 106.531 25.824 106.467 25.704C106.403 25.576 106.311 25.476 106.191 25.404C106.079 25.332 105.947 25.28 105.795 25.248C105.643 25.216 105.483 25.2 105.315 25.2C105.043 25.2 104.795 25.232 104.571 25.296C104.355 25.36 104.171 25.436 104.019 25.524C103.867 25.612 103.747 25.688 103.659 25.752ZM109.58 27.24C109.58 27.624 109.66 27.964 109.82 28.26C109.988 28.556 110.212 28.792 110.492 28.968C110.78 29.136 111.104 29.22 111.464 29.22C111.76 29.22 112.036 29.176 112.292 29.088C112.556 28.992 112.784 28.868 112.976 28.716C113.168 28.556 113.304 28.388 113.384 28.212V29.412C113.192 29.636 112.916 29.812 112.556 29.94C112.204 30.06 111.84 30.12 111.464 30.12C110.928 30.12 110.444 29.996 110.012 29.748C109.58 29.5 109.236 29.16 108.98 28.728C108.732 28.288 108.608 27.792 108.608 27.24C108.608 26.68 108.732 26.184 108.98 25.752C109.236 25.32 109.58 24.98 110.012 24.732C110.444 24.484 110.928 24.36 111.464 24.36C111.84 24.36 112.204 24.424 112.556 24.552C112.916 24.672 113.192 24.844 113.384 25.068V26.268C113.304 26.084 113.168 25.916 112.976 25.764C112.784 25.612 112.556 25.492 112.292 25.404C112.036 25.308 111.76 25.26 111.464 25.26C111.104 25.26 110.78 25.344 110.492 25.512C110.212 25.68 109.988 25.916 109.82 26.22C109.66 26.516 109.58 26.856 109.58 27.24ZM114.039 24.48H116.799V25.38H114.039V24.48ZM114.939 22.56H115.899V30H114.939V22.56ZM120.519 24.48H123.759V25.38H120.519V24.48ZM121.659 24.72H122.619V30H121.659V24.72ZM125.154 28.38C125.154 28.572 125.206 28.736 125.31 28.872C125.414 29 125.554 29.1 125.73 29.172C125.906 29.236 126.102 29.268 126.318 29.268C126.638 29.268 126.922 29.22 127.17 29.124C127.418 29.028 127.61 28.876 127.746 28.668C127.89 28.46 127.962 28.184 127.962 27.84L128.154 28.44C128.154 28.792 128.058 29.096 127.866 29.352C127.682 29.6 127.434 29.792 127.122 29.928C126.81 30.056 126.462 30.12 126.078 30.12C125.734 30.12 125.418 30.056 125.13 29.928C124.842 29.8 124.61 29.612 124.434 29.364C124.266 29.108 124.182 28.792 124.182 28.416C124.182 28.024 124.278 27.692 124.47 27.42C124.662 27.148 124.934 26.94 125.286 26.796C125.638 26.644 126.054 26.568 126.534 26.568C126.886 26.568 127.186 26.616 127.434 26.712C127.69 26.8 127.894 26.904 128.046 27.024C128.198 27.136 128.302 27.228 128.358 27.3V27.864C128.086 27.672 127.81 27.532 127.53 27.444C127.25 27.348 126.934 27.3 126.582 27.3C126.262 27.3 125.994 27.344 125.778 27.432C125.57 27.52 125.414 27.644 125.31 27.804C125.206 27.964 125.154 28.156 125.154 28.38ZM125.154 25.776L124.686 25.044C124.894 24.892 125.174 24.74 125.526 24.588C125.878 24.436 126.302 24.36 126.798 24.36C127.222 24.36 127.59 24.428 127.902 24.564C128.222 24.692 128.47 24.88 128.646 25.128C128.83 25.376 128.922 25.68 128.922 26.04V30H127.962V26.04C127.962 25.76 127.842 25.552 127.602 25.416C127.37 25.272 127.102 25.2 126.798 25.2C126.534 25.2 126.294 25.236 126.078 25.308C125.862 25.372 125.674 25.452 125.514 25.548C125.362 25.636 125.242 25.712 125.154 25.776ZM134.204 21.6H135.224V30H134.204V21.6ZM136.724 30H134.768V28.98H136.724C137.196 28.98 137.628 28.908 138.02 28.764C138.412 28.612 138.748 28.4 139.028 28.128C139.308 27.848 139.524 27.512 139.676 27.12C139.828 26.728 139.904 26.288 139.904 25.8C139.904 25.312 139.828 24.872 139.676 24.48C139.524 24.088 139.308 23.756 139.028 23.484C138.748 23.204 138.412 22.992 138.02 22.848C137.628 22.696 137.196 22.62 136.724 22.62H134.768V21.6H136.724C137.54 21.6 138.264 21.776 138.896 22.128C139.528 22.48 140.024 22.972 140.384 23.604C140.744 24.228 140.924 24.96 140.924 25.8C140.924 26.64 140.744 27.376 140.384 28.008C140.024 28.632 139.528 29.12 138.896 29.472C138.264 29.824 137.54 30 136.724 30ZM142.144 22.2C142.144 22.016 142.208 21.864 142.336 21.744C142.464 21.616 142.616 21.552 142.792 21.552C142.976 21.552 143.128 21.616 143.248 21.744C143.376 21.864 143.44 22.016 143.44 22.2C143.44 22.376 143.376 22.528 143.248 22.656C143.128 22.784 142.976 22.848 142.792 22.848C142.616 22.848 142.464 22.784 142.336 22.656C142.208 22.528 142.144 22.376 142.144 22.2ZM141.196 31.368C141.26 31.464 141.34 31.54 141.436 31.596C141.54 31.652 141.656 31.68 141.784 31.68C141.92 31.68 142.028 31.644 142.108 31.572C142.196 31.5 142.26 31.384 142.3 31.224C142.34 31.064 142.36 30.856 142.36 30.6V24.48H143.32V30.72C143.32 31.12 143.256 31.464 143.128 31.752C143.008 32.04 142.828 32.26 142.588 32.412C142.348 32.564 142.06 32.64 141.724 32.64C141.564 32.64 141.42 32.62 141.292 32.58C141.164 32.548 141.048 32.496 140.944 32.424C140.84 32.352 140.748 32.264 140.668 32.16L141.196 31.368ZM145.732 28.296C145.732 28.504 145.78 28.684 145.876 28.836C145.98 28.988 146.12 29.104 146.296 29.184C146.48 29.256 146.688 29.292 146.92 29.292C147.216 29.292 147.48 29.232 147.712 29.112C147.952 28.992 148.14 28.824 148.276 28.608C148.42 28.384 148.492 28.128 148.492 27.84L148.684 28.56C148.684 28.912 148.576 29.204 148.36 29.436C148.152 29.668 147.892 29.84 147.58 29.952C147.276 30.064 146.972 30.12 146.668 30.12C146.332 30.12 146.016 30.052 145.72 29.916C145.432 29.772 145.2 29.568 145.024 29.304C144.848 29.04 144.76 28.72 144.76 28.344C144.76 27.808 144.948 27.38 145.324 27.06C145.708 26.732 146.24 26.568 146.92 26.568C147.32 26.568 147.652 26.616 147.916 26.712C148.188 26.8 148.404 26.904 148.564 27.024C148.724 27.136 148.832 27.228 148.888 27.3V27.864C148.608 27.672 148.32 27.536 148.024 27.456C147.728 27.368 147.412 27.324 147.076 27.324C146.764 27.324 146.508 27.364 146.308 27.444C146.116 27.524 145.972 27.636 145.876 27.78C145.78 27.924 145.732 28.096 145.732 28.296ZM145.588 25.752L145.12 25.044C145.328 24.892 145.612 24.74 145.972 24.588C146.34 24.436 146.78 24.36 147.292 24.36C147.724 24.36 148.1 24.428 148.42 24.564C148.748 24.692 149 24.88 149.176 25.128C149.36 25.376 149.452 25.68 149.452 26.04V30H148.492V26.172C148.492 25.98 148.46 25.824 148.396 25.704C148.332 25.576 148.24 25.476 148.12 25.404C148.008 25.332 147.876 25.28 147.724 25.248C147.572 25.216 147.412 25.2 147.244 25.2C146.972 25.2 146.724 25.232 146.5 25.296C146.284 25.36 146.1 25.436 145.948 25.524C145.796 25.612 145.676 25.688 145.588 25.752ZM154.618 26.64C154.618 26.184 154.518 25.84 154.318 25.608C154.118 25.376 153.826 25.26 153.442 25.26C153.162 25.26 152.914 25.32 152.698 25.44C152.49 25.552 152.326 25.712 152.206 25.92C152.094 26.128 152.038 26.368 152.038 26.64V30H151.078V24.48H152.038V25.344C152.222 25.008 152.45 24.76 152.722 24.6C153.002 24.44 153.322 24.36 153.682 24.36C154.266 24.36 154.726 24.556 155.062 24.948C155.406 25.332 155.578 25.856 155.578 26.52V30H154.618V26.64ZM157.01 30.36H157.982C157.982 30.624 158.054 30.868 158.198 31.092C158.342 31.324 158.546 31.508 158.81 31.644C159.074 31.788 159.386 31.86 159.746 31.86C160.026 31.86 160.302 31.792 160.574 31.656C160.846 31.52 161.07 31.304 161.246 31.008C161.43 30.72 161.522 30.344 161.522 29.88V24.48H162.482V29.88C162.482 30.512 162.35 31.04 162.086 31.464C161.822 31.896 161.482 32.22 161.066 32.436C160.65 32.652 160.21 32.76 159.746 32.76C159.21 32.76 158.734 32.66 158.318 32.46C157.91 32.26 157.59 31.976 157.358 31.608C157.126 31.248 157.01 30.832 157.01 30.36ZM156.902 27.24C156.902 26.64 157.026 26.128 157.274 25.704C157.522 25.272 157.854 24.94 158.27 24.708C158.686 24.476 159.142 24.36 159.638 24.36C160.102 24.36 160.506 24.476 160.85 24.708C161.194 24.94 161.462 25.272 161.654 25.704C161.854 26.128 161.954 26.64 161.954 27.24C161.954 27.832 161.854 28.344 161.654 28.776C161.462 29.208 161.194 29.54 160.85 29.772C160.506 30.004 160.102 30.12 159.638 30.12C159.142 30.12 158.686 30.004 158.27 29.772C157.854 29.54 157.522 29.208 157.274 28.776C157.026 28.344 156.902 27.832 156.902 27.24ZM157.874 27.24C157.874 27.664 157.958 28.024 158.126 28.32C158.302 28.616 158.534 28.84 158.822 28.992C159.11 29.144 159.422 29.22 159.758 29.22C160.038 29.22 160.314 29.144 160.586 28.992C160.858 28.84 161.082 28.616 161.258 28.32C161.434 28.024 161.522 27.664 161.522 27.24C161.522 26.92 161.47 26.64 161.366 26.4C161.262 26.152 161.122 25.944 160.946 25.776C160.778 25.608 160.59 25.48 160.382 25.392C160.174 25.304 159.966 25.26 159.758 25.26C159.422 25.26 159.11 25.336 158.822 25.488C158.534 25.64 158.302 25.864 158.126 26.16C157.958 26.456 157.874 26.816 157.874 27.24ZM163.746 27.24C163.746 26.68 163.87 26.184 164.118 25.752C164.374 25.32 164.718 24.98 165.15 24.732C165.582 24.484 166.066 24.36 166.602 24.36C167.146 24.36 167.63 24.484 168.054 24.732C168.486 24.98 168.826 25.32 169.074 25.752C169.33 26.184 169.458 26.68 169.458 27.24C169.458 27.792 169.33 28.288 169.074 28.728C168.826 29.16 168.486 29.5 168.054 29.748C167.63 29.996 167.146 30.12 166.602 30.12C166.066 30.12 165.582 29.996 165.15 29.748C164.718 29.5 164.374 29.16 164.118 28.728C163.87 28.288 163.746 27.792 163.746 27.24ZM164.718 27.24C164.718 27.624 164.798 27.964 164.958 28.26C165.126 28.556 165.35 28.792 165.63 28.968C165.918 29.136 166.242 29.22 166.602 29.22C166.962 29.22 167.282 29.136 167.562 28.968C167.85 28.792 168.074 28.556 168.234 28.26C168.402 27.964 168.486 27.624 168.486 27.24C168.486 26.856 168.402 26.516 168.234 26.22C168.074 25.916 167.85 25.68 167.562 25.512C167.282 25.344 166.962 25.26 166.602 25.26C166.242 25.26 165.918 25.344 165.63 25.512C165.35 25.68 165.126 25.916 164.958 26.22C164.798 26.516 164.718 26.856 164.718 27.24ZM176.331 27.24V26.64C176.699 26.64 176.963 26.572 177.123 26.436C177.283 26.292 177.363 26.12 177.363 25.92C177.363 25.704 177.283 25.536 177.123 25.416C176.963 25.288 176.739 25.224 176.451 25.224C176.211 25.224 176.011 25.272 175.851 25.368C175.699 25.456 175.587 25.568 175.515 25.704C175.443 25.832 175.407 25.96 175.407 26.088H174.435C174.435 25.776 174.523 25.488 174.699 25.224C174.875 24.96 175.115 24.752 175.419 24.6C175.723 24.44 176.067 24.36 176.451 24.36C176.811 24.36 177.135 24.428 177.423 24.564C177.711 24.7 177.935 24.88 178.095 25.104C178.263 25.328 178.347 25.576 178.347 25.848C178.347 26.248 178.167 26.58 177.807 26.844C177.455 27.108 176.963 27.24 176.331 27.24ZM176.427 30.12C175.779 30.12 175.259 29.944 174.867 29.592C174.483 29.24 174.259 28.796 174.195 28.26H175.167C175.223 28.524 175.343 28.76 175.527 28.968C175.711 29.176 176.011 29.28 176.427 29.28C176.683 29.28 176.899 29.244 177.075 29.172C177.259 29.1 177.399 28.996 177.495 28.86C177.591 28.724 177.639 28.568 177.639 28.392C177.639 28.2 177.587 28.036 177.483 27.9C177.387 27.764 177.239 27.66 177.039 27.588C176.847 27.516 176.611 27.48 176.331 27.48V26.88C177.019 26.88 177.567 27 177.975 27.24C178.383 27.48 178.587 27.86 178.587 28.38C178.587 28.74 178.487 29.052 178.287 29.316C178.095 29.572 177.835 29.772 177.507 29.916C177.179 30.052 176.819 30.12 176.427 30.12ZM188.121 24.48V30H187.161V25.38H184.581V30H183.621V24.48H188.121ZM189.445 27.24C189.445 26.68 189.569 26.184 189.817 25.752C190.073 25.32 190.417 24.98 190.849 24.732C191.281 24.484 191.765 24.36 192.301 24.36C192.845 24.36 193.329 24.484 193.753 24.732C194.185 24.98 194.525 25.32 194.773 25.752C195.029 26.184 195.157 26.68 195.157 27.24C195.157 27.792 195.029 28.288 194.773 28.728C194.525 29.16 194.185 29.5 193.753 29.748C193.329 29.996 192.845 30.12 192.301 30.12C191.765 30.12 191.281 29.996 190.849 29.748C190.417 29.5 190.073 29.16 189.817 28.728C189.569 28.288 189.445 27.792 189.445 27.24ZM190.417 27.24C190.417 27.624 190.497 27.964 190.657 28.26C190.825 28.556 191.049 28.792 191.329 28.968C191.617 29.136 191.941 29.22 192.301 29.22C192.661 29.22 192.981 29.136 193.261 28.968C193.549 28.792 193.773 28.556 193.933 28.26C194.101 27.964 194.185 27.624 194.185 27.24C194.185 26.856 194.101 26.516 193.933 26.22C193.773 25.916 193.549 25.68 193.261 25.512C192.981 25.344 192.661 25.26 192.301 25.26C191.941 25.26 191.617 25.344 191.329 25.512C191.049 25.68 190.825 25.916 190.657 26.22C190.497 26.516 190.417 26.856 190.417 27.24ZM197.04 27.12H198.636C199.02 27.12 199.364 27.16 199.668 27.24C199.972 27.32 200.212 27.46 200.388 27.66C200.564 27.86 200.652 28.14 200.652 28.5C200.652 28.916 200.512 29.272 200.232 29.568C199.96 29.856 199.508 30 198.876 30H197.04V29.16H198.636C198.996 29.16 199.26 29.084 199.428 28.932C199.604 28.78 199.692 28.596 199.692 28.38C199.692 28.268 199.668 28.168 199.62 28.08C199.58 27.992 199.516 27.912 199.428 27.84C199.348 27.768 199.24 27.716 199.104 27.684C198.976 27.644 198.82 27.624 198.636 27.624H197.04V27.12ZM197.04 27.36V26.796H198.516C198.66 26.796 198.788 26.78 198.9 26.748C199.02 26.708 199.12 26.652 199.2 26.58C199.28 26.508 199.34 26.428 199.38 26.34C199.428 26.244 199.452 26.144 199.452 26.04C199.452 25.824 199.368 25.652 199.2 25.524C199.032 25.388 198.804 25.32 198.516 25.32H197.04V24.48H198.516C198.86 24.48 199.172 24.532 199.452 24.636C199.74 24.732 199.972 24.892 200.148 25.116C200.324 25.332 200.412 25.62 200.412 25.98C200.412 26.292 200.324 26.552 200.148 26.76C199.972 26.96 199.74 27.112 199.452 27.216C199.172 27.312 198.86 27.36 198.516 27.36H197.04ZM196.476 24.48H197.436V30H196.476V24.48ZM202.478 27.54V26.64H206.558V27.54H202.478ZM205.934 24.48H206.894V30H205.934V24.48ZM201.914 24.48H202.874V30H201.914V24.48ZM213.319 25.44L208.759 30.42L208.819 29.04L213.379 24.06L213.319 25.44ZM209.719 24.48V29.1L208.759 30.42V24.48H209.719ZM213.379 24.06V30H212.419V25.38L213.379 24.06ZM220.482 30L219.582 25.62L220.122 24.06L221.562 30H220.482ZM217.602 29.172L220.122 24.06L220.242 25.98L217.962 30.372L217.602 29.172ZM217.962 30.372L215.718 25.98L215.838 24.06L218.322 29.172L217.962 30.372ZM214.398 30L215.838 24.06L216.378 25.62L215.478 30H214.398ZM59.8446 40.28H60.8046V48.2H59.8446V40.28ZM57.2286 44.24C57.2286 43.68 57.3566 43.184 57.6126 42.752C57.8686 42.32 58.2286 41.98 58.6926 41.732C59.1646 41.484 59.7086 41.36 60.3246 41.36C60.9486 41.36 61.4926 41.484 61.9566 41.732C62.4206 41.98 62.7806 42.32 63.0366 42.752C63.2926 43.184 63.4206 43.68 63.4206 44.24C63.4206 44.792 63.2926 45.288 63.0366 45.728C62.7806 46.16 62.4206 46.5 61.9566 46.748C61.4926 46.996 60.9486 47.12 60.3246 47.12C59.7086 47.12 59.1646 46.996 58.6926 46.748C58.2286 46.5 57.8686 46.16 57.6126 45.728C57.3566 45.288 57.2286 44.792 57.2286 44.24ZM58.2006 44.24C58.2006 44.624 58.2846 44.964 58.4526 45.26C58.6286 45.556 58.8726 45.792 59.1846 45.968C59.5046 46.136 59.8846 46.22 60.3246 46.22C60.7646 46.22 61.1406 46.136 61.4526 45.968C61.7726 45.792 62.0166 45.556 62.1846 45.26C62.3606 44.964 62.4486 44.624 62.4486 44.24C62.4486 43.856 62.3606 43.516 62.1846 43.22C62.0166 42.916 61.7726 42.68 61.4526 42.512C61.1406 42.344 60.7646 42.26 60.3246 42.26C59.8846 42.26 59.5046 42.344 59.1846 42.512C58.8726 42.68 58.6286 42.916 58.4526 43.22C58.2846 43.516 58.2006 43.856 58.2006 44.24ZM69.1198 41.48L65.5198 49.64H64.4398L65.9518 46.22L63.8398 41.48H64.9798L66.7318 45.8L66.3358 45.752L68.0398 41.48H69.1198ZM70.589 44.54V43.64H74.669V44.54H70.589ZM74.045 41.48H75.005V47H74.045V41.48ZM70.025 41.48H70.985V47H70.025V41.48ZM76.7502 41.48H77.7102V47H76.7502V41.48ZM79.7502 41.48H80.9502L78.5502 43.76L81.1902 47H79.9902L77.3502 43.76L79.7502 41.48ZM86.5953 46.1H87.5553V48.08H86.7153V47H82.0953V41.48H83.0553V46.1H85.6353V41.48H86.5953V46.1ZM90.0565 40.568V47H89.0005V40.568H90.0565ZM89.5405 38.156C89.7005 38.156 89.8405 38.212 89.9605 38.324C90.0885 38.428 90.1525 38.596 90.1525 38.828C90.1525 39.052 90.0885 39.22 89.9605 39.332C89.8405 39.444 89.7005 39.5 89.5405 39.5C89.3645 39.5 89.2165 39.444 89.0965 39.332C88.9765 39.22 88.9165 39.052 88.9165 38.828C88.9165 38.596 88.9765 38.428 89.0965 38.324C89.2165 38.212 89.3645 38.156 89.5405 38.156ZM91.4942 44.24C91.4942 43.68 91.6182 43.184 91.8662 42.752C92.1222 42.32 92.4662 41.98 92.8982 41.732C93.3302 41.484 93.8142 41.36 94.3502 41.36C94.8942 41.36 95.3782 41.484 95.8022 41.732C96.2342 41.98 96.5742 42.32 96.8222 42.752C97.0782 43.184 97.2062 43.68 97.2062 44.24C97.2062 44.792 97.0782 45.288 96.8222 45.728C96.5742 46.16 96.2342 46.5 95.8022 46.748C95.3782 46.996 94.8942 47.12 94.3502 47.12C93.8142 47.12 93.3302 46.996 92.8982 46.748C92.4662 46.5 92.1222 46.16 91.8662 45.728C91.6182 45.288 91.4942 44.792 91.4942 44.24ZM92.4662 44.24C92.4662 44.624 92.5462 44.964 92.7062 45.26C92.8742 45.556 93.0982 45.792 93.3782 45.968C93.6662 46.136 93.9902 46.22 94.3502 46.22C94.7102 46.22 95.0302 46.136 95.3102 45.968C95.5982 45.792 95.8222 45.556 95.9822 45.26C96.1502 44.964 96.2342 44.624 96.2342 44.24C96.2342 43.856 96.1502 43.516 95.9822 43.22C95.8222 42.916 95.5982 42.68 95.3102 42.512C95.0302 42.344 94.7102 42.26 94.3502 42.26C93.9902 42.26 93.6662 42.344 93.3782 42.512C93.0982 42.68 92.8742 42.916 92.7062 43.22C92.5462 43.516 92.4662 43.856 92.4662 44.24ZM99.089 44.54V43.64H103.169V44.54H99.089ZM102.545 41.48H103.505V47H102.545V41.48ZM98.525 41.48H99.485V47H98.525V41.48ZM105.742 45.38C105.742 45.572 105.794 45.736 105.898 45.872C106.002 46 106.142 46.1 106.318 46.172C106.494 46.236 106.69 46.268 106.906 46.268C107.226 46.268 107.51 46.22 107.758 46.124C108.006 46.028 108.198 45.876 108.334 45.668C108.478 45.46 108.55 45.184 108.55 44.84L108.742 45.44C108.742 45.792 108.646 46.096 108.454 46.352C108.27 46.6 108.022 46.792 107.71 46.928C107.398 47.056 107.05 47.12 106.666 47.12C106.322 47.12 106.006 47.056 105.718 46.928C105.43 46.8 105.198 46.612 105.022 46.364C104.854 46.108 104.77 45.792 104.77 45.416C104.77 45.024 104.866 44.692 105.058 44.42C105.25 44.148 105.522 43.94 105.874 43.796C106.226 43.644 106.642 43.568 107.122 43.568C107.474 43.568 107.774 43.616 108.022 43.712C108.278 43.8 108.482 43.904 108.634 44.024C108.786 44.136 108.89 44.228 108.946 44.3V44.864C108.674 44.672 108.398 44.532 108.118 44.444C107.838 44.348 107.522 44.3 107.17 44.3C106.85 44.3 106.582 44.344 106.366 44.432C106.158 44.52 106.002 44.644 105.898 44.804C105.794 44.964 105.742 45.156 105.742 45.38ZM105.742 42.776L105.274 42.044C105.482 41.892 105.762 41.74 106.114 41.588C106.466 41.436 106.89 41.36 107.386 41.36C107.81 41.36 108.178 41.428 108.49 41.564C108.81 41.692 109.058 41.88 109.234 42.128C109.418 42.376 109.51 42.68 109.51 43.04V47H108.55V43.04C108.55 42.76 108.43 42.552 108.19 42.416C107.958 42.272 107.69 42.2 107.386 42.2C107.122 42.2 106.882 42.236 106.666 42.308C106.45 42.372 106.262 42.452 106.102 42.548C105.95 42.636 105.83 42.712 105.742 42.776ZM115.97 41.48V47H115.01V42.38H112.19V45.08C112.19 45.512 112.122 45.872 111.986 46.16C111.858 46.44 111.658 46.652 111.386 46.796C111.114 46.932 110.77 47 110.354 47V46.124C110.594 46.124 110.798 46.048 110.966 45.896C111.142 45.744 111.23 45.472 111.23 45.08V41.48H115.97ZM117.346 44.24C117.346 43.68 117.47 43.184 117.718 42.752C117.974 42.32 118.318 41.98 118.75 41.732C119.182 41.484 119.666 41.36 120.202 41.36C120.746 41.36 121.23 41.484 121.654 41.732C122.086 41.98 122.426 42.32 122.674 42.752C122.93 43.184 123.058 43.68 123.058 44.24C123.058 44.792 122.93 45.288 122.674 45.728C122.426 46.16 122.086 46.5 121.654 46.748C121.23 46.996 120.746 47.12 120.202 47.12C119.666 47.12 119.182 46.996 118.75 46.748C118.318 46.5 117.974 46.16 117.718 45.728C117.47 45.288 117.346 44.792 117.346 44.24ZM118.318 44.24C118.318 44.624 118.398 44.964 118.558 45.26C118.726 45.556 118.95 45.792 119.23 45.968C119.518 46.136 119.842 46.22 120.202 46.22C120.562 46.22 120.882 46.136 121.162 45.968C121.45 45.792 121.674 45.556 121.834 45.26C122.002 44.964 122.086 44.624 122.086 44.24C122.086 43.856 122.002 43.516 121.834 43.22C121.674 42.916 121.45 42.68 121.162 42.512C120.882 42.344 120.562 42.26 120.202 42.26C119.842 42.26 119.518 42.344 119.23 42.512C118.95 42.68 118.726 42.916 118.558 43.22C118.398 43.516 118.318 43.856 118.318 44.24ZM129.621 47L128.721 42.62L129.261 41.06L130.701 47H129.621ZM126.741 46.172L129.261 41.06L129.381 42.98L127.101 47.372L126.741 46.172ZM127.101 47.372L124.857 42.98L124.977 41.06L127.461 46.172L127.101 47.372ZM123.537 47L124.977 41.06L125.517 42.62L124.617 47H123.537ZM132.542 45.68L133.502 46.04L132.182 49.04L131.486 48.788L132.542 45.68ZM143.215 46.1H145.555V41.48H146.515V46.1H147.475V48.08H146.635V47H138.955V41.48H139.915V46.1H142.255V41.48H143.215V46.1ZM148.318 44.24C148.318 43.68 148.442 43.184 148.69 42.752C148.946 42.32 149.29 41.98 149.722 41.732C150.154 41.484 150.638 41.36 151.174 41.36C151.718 41.36 152.202 41.484 152.626 41.732C153.058 41.98 153.398 42.32 153.646 42.752C153.902 43.184 154.03 43.68 154.03 44.24C154.03 44.792 153.902 45.288 153.646 45.728C153.398 46.16 153.058 46.5 152.626 46.748C152.202 46.996 151.718 47.12 151.174 47.12C150.638 47.12 150.154 46.996 149.722 46.748C149.29 46.5 148.946 46.16 148.69 45.728C148.442 45.288 148.318 44.792 148.318 44.24ZM149.29 44.24C149.29 44.624 149.37 44.964 149.53 45.26C149.698 45.556 149.922 45.792 150.202 45.968C150.49 46.136 150.814 46.22 151.174 46.22C151.534 46.22 151.854 46.136 152.134 45.968C152.422 45.792 152.646 45.556 152.806 45.26C152.974 44.964 153.058 44.624 153.058 44.24C153.058 43.856 152.974 43.516 152.806 43.22C152.646 42.916 152.422 42.68 152.134 42.512C151.854 42.344 151.534 42.26 151.174 42.26C150.814 42.26 150.49 42.344 150.202 42.512C149.922 42.68 149.698 42.916 149.53 43.22C149.37 43.516 149.29 43.856 149.29 44.24ZM157.725 42.26V41.36C158.269 41.36 158.753 41.484 159.177 41.732C159.609 41.98 159.949 42.32 160.197 42.752C160.453 43.184 160.581 43.68 160.581 44.24C160.581 44.792 160.453 45.288 160.197 45.728C159.949 46.16 159.609 46.5 159.177 46.748C158.753 46.996 158.269 47.12 157.725 47.12C157.189 47.12 156.705 46.988 156.273 46.724C155.841 46.452 155.497 46.048 155.241 45.512C154.993 44.976 154.869 44.312 154.869 43.52L155.829 44.24C155.829 44.624 155.913 44.964 156.081 45.26C156.249 45.556 156.473 45.792 156.753 45.968C157.041 46.136 157.365 46.22 157.725 46.22C158.085 46.22 158.405 46.136 158.685 45.968C158.973 45.792 159.197 45.556 159.357 45.26C159.525 44.964 159.609 44.624 159.609 44.24C159.609 43.856 159.525 43.516 159.357 43.22C159.197 42.916 158.973 42.68 158.685 42.512C158.405 42.344 158.085 42.26 157.725 42.26ZM155.397 44.24C155.397 43.792 155.453 43.392 155.565 43.04C155.677 42.68 155.837 42.376 156.045 42.128C156.253 41.88 156.497 41.692 156.777 41.564C157.065 41.428 157.381 41.36 157.725 41.36V42.26C157.517 42.26 157.301 42.304 157.077 42.392C156.853 42.48 156.645 42.608 156.453 42.776C156.269 42.944 156.117 43.152 155.997 43.4C155.885 43.64 155.829 43.92 155.829 44.24H155.397ZM154.869 43.52C154.869 42.768 154.941 42.104 155.085 41.528C155.229 40.952 155.481 40.464 155.841 40.064C156.209 39.664 156.713 39.352 157.353 39.128C157.897 38.944 158.301 38.724 158.565 38.468C158.837 38.204 159.001 37.928 159.057 37.64H160.005C159.965 37.992 159.837 38.316 159.621 38.612C159.405 38.9 159.121 39.152 158.769 39.368C158.425 39.584 158.033 39.764 157.593 39.908C157.097 40.068 156.709 40.312 156.429 40.64C156.157 40.96 155.969 41.32 155.865 41.72C155.761 42.12 155.709 42.52 155.709 42.92V44.156L154.869 43.52ZM167.454 44.24V43.64C167.822 43.64 168.086 43.572 168.246 43.436C168.406 43.292 168.486 43.12 168.486 42.92C168.486 42.704 168.406 42.536 168.246 42.416C168.086 42.288 167.862 42.224 167.574 42.224C167.334 42.224 167.134 42.272 166.974 42.368C166.822 42.456 166.71 42.568 166.638 42.704C166.566 42.832 166.53 42.96 166.53 43.088H165.558C165.558 42.776 165.646 42.488 165.822 42.224C165.998 41.96 166.238 41.752 166.542 41.6C166.846 41.44 167.19 41.36 167.574 41.36C167.934 41.36 168.258 41.428 168.546 41.564C168.834 41.7 169.058 41.88 169.218 42.104C169.386 42.328 169.47 42.576 169.47 42.848C169.47 43.248 169.29 43.58 168.93 43.844C168.578 44.108 168.086 44.24 167.454 44.24ZM167.55 47.12C166.902 47.12 166.382 46.944 165.99 46.592C165.606 46.24 165.382 45.796 165.318 45.26H166.29C166.346 45.524 166.466 45.76 166.65 45.968C166.834 46.176 167.134 46.28 167.55 46.28C167.806 46.28 168.022 46.244 168.198 46.172C168.382 46.1 168.522 45.996 168.618 45.86C168.714 45.724 168.762 45.568 168.762 45.392C168.762 45.2 168.71 45.036 168.606 44.9C168.51 44.764 168.362 44.66 168.162 44.588C167.97 44.516 167.734 44.48 167.454 44.48V43.88C168.142 43.88 168.69 44 169.098 44.24C169.506 44.48 169.71 44.86 169.71 45.38C169.71 45.74 169.61 46.052 169.41 46.316C169.218 46.572 168.958 46.772 168.63 46.916C168.302 47.052 167.942 47.12 167.55 47.12ZM171.578 45.38C171.578 45.572 171.63 45.736 171.734 45.872C171.838 46 171.978 46.1 172.154 46.172C172.33 46.236 172.526 46.268 172.742 46.268C173.062 46.268 173.346 46.22 173.594 46.124C173.842 46.028 174.034 45.876 174.17 45.668C174.314 45.46 174.386 45.184 174.386 44.84L174.578 45.44C174.578 45.792 174.482 46.096 174.29 46.352C174.106 46.6 173.858 46.792 173.546 46.928C173.234 47.056 172.886 47.12 172.502 47.12C172.158 47.12 171.842 47.056 171.554 46.928C171.266 46.8 171.034 46.612 170.858 46.364C170.69 46.108 170.606 45.792 170.606 45.416C170.606 45.024 170.702 44.692 170.894 44.42C171.086 44.148 171.358 43.94 171.71 43.796C172.062 43.644 172.478 43.568 172.958 43.568C173.31 43.568 173.61 43.616 173.858 43.712C174.114 43.8 174.318 43.904 174.47 44.024C174.622 44.136 174.726 44.228 174.782 44.3V44.864C174.51 44.672 174.234 44.532 173.954 44.444C173.674 44.348 173.358 44.3 173.006 44.3C172.686 44.3 172.418 44.344 172.202 44.432C171.994 44.52 171.838 44.644 171.734 44.804C171.63 44.964 171.578 45.156 171.578 45.38ZM171.578 42.776L171.11 42.044C171.318 41.892 171.598 41.74 171.95 41.588C172.302 41.436 172.726 41.36 173.222 41.36C173.646 41.36 174.014 41.428 174.326 41.564C174.646 41.692 174.894 41.88 175.07 42.128C175.254 42.376 175.346 42.68 175.346 43.04V47H174.386V43.04C174.386 42.76 174.266 42.552 174.026 42.416C173.794 42.272 173.526 42.2 173.222 42.2C172.958 42.2 172.718 42.236 172.502 42.308C172.286 42.372 172.098 42.452 171.938 42.548C171.786 42.636 171.666 42.712 171.578 42.776ZM179.97 43.136L178.35 46.64H177.27L179.97 41.06L182.67 46.64H181.59L179.97 43.136ZM182.43 47H177.57V48.08H176.55V46.1H183.39V48.08H182.43V47ZM184.354 44.24C184.354 43.68 184.478 43.184 184.726 42.752C184.982 42.32 185.326 41.98 185.758 41.732C186.19 41.484 186.674 41.36 187.21 41.36C187.754 41.36 188.238 41.484 188.662 41.732C189.094 41.98 189.434 42.32 189.682 42.752C189.938 43.184 190.066 43.68 190.066 44.24C190.066 44.792 189.938 45.288 189.682 45.728C189.434 46.16 189.094 46.5 188.662 46.748C188.238 46.996 187.754 47.12 187.21 47.12C186.674 47.12 186.19 46.996 185.758 46.748C185.326 46.5 184.982 46.16 184.726 45.728C184.478 45.288 184.354 44.792 184.354 44.24ZM185.326 44.24C185.326 44.624 185.406 44.964 185.566 45.26C185.734 45.556 185.958 45.792 186.238 45.968C186.526 46.136 186.85 46.22 187.21 46.22C187.57 46.22 187.89 46.136 188.17 45.968C188.458 45.792 188.682 45.556 188.842 45.26C189.01 44.964 189.094 44.624 189.094 44.24C189.094 43.856 189.01 43.516 188.842 43.22C188.682 42.916 188.458 42.68 188.17 42.512C187.89 42.344 187.57 42.26 187.21 42.26C186.85 42.26 186.526 42.344 186.238 42.512C185.958 42.68 185.734 42.916 185.566 43.22C185.406 43.516 185.326 43.856 185.326 44.24ZM191.948 44.12H193.544C193.928 44.12 194.272 44.16 194.576 44.24C194.88 44.32 195.12 44.46 195.296 44.66C195.472 44.86 195.56 45.14 195.56 45.5C195.56 45.916 195.42 46.272 195.14 46.568C194.868 46.856 194.416 47 193.784 47H191.948V46.16H193.544C193.904 46.16 194.168 46.084 194.336 45.932C194.512 45.78 194.6 45.596 194.6 45.38C194.6 45.268 194.576 45.168 194.528 45.08C194.488 44.992 194.424 44.912 194.336 44.84C194.256 44.768 194.148 44.716 194.012 44.684C193.884 44.644 193.728 44.624 193.544 44.624H191.948V44.12ZM191.948 44.36V43.796H193.424C193.568 43.796 193.696 43.78 193.808 43.748C193.928 43.708 194.028 43.652 194.108 43.58C194.188 43.508 194.248 43.428 194.288 43.34C194.336 43.244 194.36 43.144 194.36 43.04C194.36 42.824 194.276 42.652 194.108 42.524C193.94 42.388 193.712 42.32 193.424 42.32H191.948V41.48H193.424C193.768 41.48 194.08 41.532 194.36 41.636C194.648 41.732 194.88 41.892 195.056 42.116C195.232 42.332 195.32 42.62 195.32 42.98C195.32 43.292 195.232 43.552 195.056 43.76C194.88 43.96 194.648 44.112 194.36 44.216C194.08 44.312 193.768 44.36 193.424 44.36H191.948ZM191.384 41.48H192.344V47H191.384V41.48ZM196.342 44.24C196.342 43.68 196.466 43.184 196.714 42.752C196.97 42.32 197.314 41.98 197.746 41.732C198.178 41.484 198.662 41.36 199.198 41.36C199.742 41.36 200.226 41.484 200.65 41.732C201.082 41.98 201.422 42.32 201.67 42.752C201.926 43.184 202.054 43.68 202.054 44.24C202.054 44.792 201.926 45.288 201.67 45.728C201.422 46.16 201.082 46.5 200.65 46.748C200.226 46.996 199.742 47.12 199.198 47.12C198.662 47.12 198.178 46.996 197.746 46.748C197.314 46.5 196.97 46.16 196.714 45.728C196.466 45.288 196.342 44.792 196.342 44.24ZM197.314 44.24C197.314 44.624 197.394 44.964 197.554 45.26C197.722 45.556 197.946 45.792 198.226 45.968C198.514 46.136 198.838 46.22 199.198 46.22C199.558 46.22 199.878 46.136 200.158 45.968C200.446 45.792 200.67 45.556 200.83 45.26C200.998 44.964 201.082 44.624 201.082 44.24C201.082 43.856 200.998 43.516 200.83 43.22C200.67 42.916 200.446 42.68 200.158 42.512C199.878 42.344 199.558 42.26 199.198 42.26C198.838 42.26 198.514 42.344 198.226 42.512C197.946 42.68 197.722 42.916 197.554 43.22C197.394 43.516 197.314 43.856 197.314 44.24ZM208.209 41.48V47H207.249V42.38H204.429V45.08C204.429 45.512 204.361 45.872 204.225 46.16C204.097 46.44 203.897 46.652 203.625 46.796C203.353 46.932 203.009 47 202.593 47V46.124C202.833 46.124 203.037 46.048 203.205 45.896C203.381 45.744 203.469 45.472 203.469 45.08V41.48H208.209ZM210.064 41.48H211.024V47H210.064V41.48ZM210.628 44.408V43.568H212.344C212.912 43.568 213.388 43.708 213.772 43.988C214.164 44.26 214.36 44.692 214.36 45.284C214.36 45.676 214.272 46 214.096 46.256C213.92 46.512 213.68 46.7 213.376 46.82C213.072 46.94 212.728 47 212.344 47H210.628V46.16H212.344C212.576 46.16 212.768 46.128 212.92 46.064C213.08 45.992 213.2 45.892 213.28 45.764C213.36 45.628 213.4 45.468 213.4 45.284C213.4 45.004 213.312 44.788 213.136 44.636C212.96 44.484 212.696 44.408 212.344 44.408H210.628ZM216.429 44.54V43.64H220.509V44.54H216.429ZM219.885 41.48H220.845V47H219.885V41.48ZM215.865 41.48H216.825V47H215.865V41.48ZM227.27 42.44L222.71 47.42L222.77 46.04L227.33 41.06L227.27 42.44ZM223.67 41.48V46.1L222.71 47.42V41.48H223.67ZM227.33 41.06V47H226.37V42.38L227.33 41.06ZM228.349 41.48H231.589V42.38H228.349V41.48ZM229.489 41.72H230.449V47H229.489V41.72ZM237.172 42.44L232.612 47.42L232.672 46.04L237.232 41.06L237.172 42.44ZM233.572 41.48V46.1L232.612 47.42V41.48H233.572ZM237.232 41.06V47H236.272V42.38L237.232 41.06ZM112.343 61.12H113.939C114.323 61.12 114.667 61.16 114.971 61.24C115.275 61.32 115.515 61.46 115.691 61.66C115.867 61.86 115.955 62.14 115.955 62.5C115.955 62.916 115.815 63.272 115.535 63.568C115.263 63.856 114.811 64 114.179 64H112.343V63.16H113.939C114.299 63.16 114.563 63.084 114.731 62.932C114.907 62.78 114.995 62.596 114.995 62.38C114.995 62.268 114.971 62.168 114.923 62.08C114.883 61.992 114.819 61.912 114.731 61.84C114.651 61.768 114.543 61.716 114.407 61.684C114.279 61.644 114.123 61.624 113.939 61.624H112.343V61.12ZM112.343 61.36V60.796H113.819C113.963 60.796 114.091 60.78 114.203 60.748C114.323 60.708 114.423 60.652 114.503 60.58C114.583 60.508 114.643 60.428 114.683 60.34C114.731 60.244 114.755 60.144 114.755 60.04C114.755 59.824 114.671 59.652 114.503 59.524C114.335 59.388 114.107 59.32 113.819 59.32H112.343V58.48H113.819C114.163 58.48 114.475 58.532 114.755 58.636C115.043 58.732 115.275 58.892 115.451 59.116C115.627 59.332 115.715 59.62 115.715 59.98C115.715 60.292 115.627 60.552 115.451 60.76C115.275 60.96 115.043 61.112 114.755 61.216C114.475 61.312 114.163 61.36 113.819 61.36H112.343ZM111.779 58.48H112.739V64H111.779V58.48ZM117.648 62.38C117.648 62.572 117.7 62.736 117.804 62.872C117.908 63 118.048 63.1 118.224 63.172C118.4 63.236 118.596 63.268 118.812 63.268C119.132 63.268 119.416 63.22 119.664 63.124C119.912 63.028 120.104 62.876 120.24 62.668C120.384 62.46 120.456 62.184 120.456 61.84L120.648 62.44C120.648 62.792 120.552 63.096 120.36 63.352C120.176 63.6 119.928 63.792 119.616 63.928C119.304 64.056 118.956 64.12 118.572 64.12C118.228 64.12 117.912 64.056 117.624 63.928C117.336 63.8 117.104 63.612 116.928 63.364C116.76 63.108 116.676 62.792 116.676 62.416C116.676 62.024 116.772 61.692 116.964 61.42C117.156 61.148 117.428 60.94 117.78 60.796C118.132 60.644 118.548 60.568 119.028 60.568C119.38 60.568 119.68 60.616 119.928 60.712C120.184 60.8 120.388 60.904 120.54 61.024C120.692 61.136 120.796 61.228 120.852 61.3V61.864C120.58 61.672 120.304 61.532 120.024 61.444C119.744 61.348 119.428 61.3 119.076 61.3C118.756 61.3 118.488 61.344 118.272 61.432C118.064 61.52 117.908 61.644 117.804 61.804C117.7 61.964 117.648 62.156 117.648 62.38ZM117.648 59.776L117.18 59.044C117.388 58.892 117.668 58.74 118.02 58.588C118.372 58.436 118.796 58.36 119.292 58.36C119.716 58.36 120.084 58.428 120.396 58.564C120.716 58.692 120.964 58.88 121.14 59.128C121.324 59.376 121.416 59.68 121.416 60.04V64H120.456V60.04C120.456 59.76 120.336 59.552 120.096 59.416C119.864 59.272 119.596 59.2 119.292 59.2C119.028 59.2 118.788 59.236 118.572 59.308C118.356 59.372 118.168 59.452 118.008 59.548C117.856 59.636 117.736 59.712 117.648 59.776ZM127.301 63.1H129.641V58.48H130.601V64H123.041V58.48H124.001V63.1H126.341V58.48H127.301V63.1ZM133.58 57.568V64H132.524V57.568H133.58ZM133.064 55.156C133.224 55.156 133.364 55.212 133.484 55.324C133.612 55.428 133.676 55.596 133.676 55.828C133.676 56.052 133.612 56.22 133.484 56.332C133.364 56.444 133.224 56.5 133.064 56.5C132.888 56.5 132.74 56.444 132.62 56.332C132.5 56.22 132.44 56.052 132.44 55.828C132.44 55.596 132.5 55.428 132.62 55.324C132.74 55.212 132.888 55.156 133.064 55.156ZM143.595 58.48V64H142.635V59.38H140.055V64H139.095V58.48H143.595ZM144.92 61.24C144.92 60.68 145.044 60.184 145.292 59.752C145.548 59.32 145.892 58.98 146.324 58.732C146.756 58.484 147.24 58.36 147.776 58.36C148.32 58.36 148.804 58.484 149.228 58.732C149.66 58.98 150 59.32 150.248 59.752C150.504 60.184 150.632 60.68 150.632 61.24C150.632 61.792 150.504 62.288 150.248 62.728C150 63.16 149.66 63.5 149.228 63.748C148.804 63.996 148.32 64.12 147.776 64.12C147.24 64.12 146.756 63.996 146.324 63.748C145.892 63.5 145.548 63.16 145.292 62.728C145.044 62.288 144.92 61.792 144.92 61.24ZM145.892 61.24C145.892 61.624 145.972 61.964 146.132 62.26C146.3 62.556 146.524 62.792 146.804 62.968C147.092 63.136 147.416 63.22 147.776 63.22C148.136 63.22 148.456 63.136 148.736 62.968C149.024 62.792 149.248 62.556 149.408 62.26C149.576 61.964 149.66 61.624 149.66 61.24C149.66 60.856 149.576 60.516 149.408 60.22C149.248 59.916 149.024 59.68 148.736 59.512C148.456 59.344 148.136 59.26 147.776 59.26C147.416 59.26 147.092 59.344 146.804 59.512C146.524 59.68 146.3 59.916 146.132 60.22C145.972 60.516 145.892 60.856 145.892 61.24ZM151.111 58.48H154.351V59.38H151.111V58.48ZM152.251 58.72H153.211V64H152.251V58.72ZM156.214 66.64H155.254V58.48H156.214V66.64ZM160.834 61.24C160.834 61.832 160.71 62.344 160.462 62.776C160.214 63.208 159.882 63.54 159.466 63.772C159.058 64.004 158.602 64.12 158.098 64.12C157.642 64.12 157.238 64.004 156.886 63.772C156.542 63.54 156.27 63.208 156.07 62.776C155.878 62.344 155.782 61.832 155.782 61.24C155.782 60.64 155.878 60.128 156.07 59.704C156.27 59.272 156.542 58.94 156.886 58.708C157.238 58.476 157.642 58.36 158.098 58.36C158.602 58.36 159.058 58.476 159.466 58.708C159.882 58.94 160.214 59.272 160.462 59.704C160.71 60.128 160.834 60.64 160.834 61.24ZM159.862 61.24C159.862 60.816 159.774 60.456 159.598 60.16C159.43 59.864 159.202 59.64 158.914 59.488C158.634 59.336 158.322 59.26 157.978 59.26C157.698 59.26 157.422 59.336 157.15 59.488C156.878 59.64 156.654 59.864 156.478 60.16C156.302 60.456 156.214 60.816 156.214 61.24C156.214 61.664 156.302 62.024 156.478 62.32C156.654 62.616 156.878 62.84 157.15 62.992C157.422 63.144 157.698 63.22 157.978 63.22C158.322 63.22 158.634 63.144 158.914 62.992C159.202 62.84 159.43 62.616 159.598 62.32C159.774 62.024 159.862 61.664 159.862 61.24ZM162.29 61.48V60.664H165.974C165.942 60.376 165.862 60.124 165.734 59.908C165.614 59.684 165.442 59.512 165.218 59.392C165.002 59.264 164.734 59.2 164.414 59.2C164.094 59.2 163.802 59.268 163.538 59.404C163.274 59.54 163.062 59.736 162.902 59.992C162.75 60.24 162.674 60.536 162.674 60.88L162.65 61.24C162.65 61.664 162.722 62.024 162.866 62.32C163.01 62.616 163.214 62.84 163.478 62.992C163.742 63.144 164.054 63.22 164.414 63.22C164.686 63.22 164.926 63.18 165.134 63.1C165.35 63.012 165.542 62.896 165.71 62.752C165.878 62.6 166.022 62.424 166.142 62.224L166.922 62.716C166.738 62.996 166.534 63.244 166.31 63.46C166.086 63.668 165.814 63.832 165.494 63.952C165.174 64.064 164.774 64.12 164.294 64.12C163.798 64.12 163.35 63.996 162.95 63.748C162.558 63.5 162.246 63.16 162.014 62.728C161.79 62.288 161.678 61.792 161.678 61.24C161.678 61.136 161.682 61.036 161.69 60.94C161.698 60.844 161.71 60.748 161.726 60.652C161.806 60.196 161.966 59.796 162.206 59.452C162.446 59.108 162.754 58.84 163.13 58.648C163.514 58.456 163.942 58.36 164.414 58.36C164.934 58.36 165.39 58.476 165.782 58.708C166.174 58.94 166.478 59.268 166.694 59.692C166.91 60.108 167.018 60.608 167.018 61.192C167.018 61.24 167.018 61.288 167.018 61.336C167.018 61.384 167.014 61.432 167.006 61.48H162.29ZM170.71 59.26V58.36C171.254 58.36 171.738 58.484 172.162 58.732C172.594 58.98 172.934 59.32 173.182 59.752C173.438 60.184 173.566 60.68 173.566 61.24C173.566 61.792 173.438 62.288 173.182 62.728C172.934 63.16 172.594 63.5 172.162 63.748C171.738 63.996 171.254 64.12 170.71 64.12C170.174 64.12 169.69 63.988 169.258 63.724C168.826 63.452 168.482 63.048 168.226 62.512C167.978 61.976 167.854 61.312 167.854 60.52L168.814 61.24C168.814 61.624 168.898 61.964 169.066 62.26C169.234 62.556 169.458 62.792 169.738 62.968C170.026 63.136 170.35 63.22 170.71 63.22C171.07 63.22 171.39 63.136 171.67 62.968C171.958 62.792 172.182 62.556 172.342 62.26C172.51 61.964 172.594 61.624 172.594 61.24C172.594 60.856 172.51 60.516 172.342 60.22C172.182 59.916 171.958 59.68 171.67 59.512C171.39 59.344 171.07 59.26 170.71 59.26ZM168.382 61.24C168.382 60.792 168.438 60.392 168.55 60.04C168.662 59.68 168.822 59.376 169.03 59.128C169.238 58.88 169.482 58.692 169.762 58.564C170.05 58.428 170.366 58.36 170.71 58.36V59.26C170.502 59.26 170.286 59.304 170.062 59.392C169.838 59.48 169.63 59.608 169.438 59.776C169.254 59.944 169.102 60.152 168.982 60.4C168.87 60.64 168.814 60.92 168.814 61.24H168.382ZM167.854 60.52C167.854 59.768 167.926 59.104 168.07 58.528C168.214 57.952 168.466 57.464 168.826 57.064C169.194 56.664 169.698 56.352 170.338 56.128C170.882 55.944 171.286 55.724 171.55 55.468C171.822 55.204 171.986 54.928 172.042 54.64H172.99C172.95 54.992 172.822 55.316 172.606 55.612C172.39 55.9 172.106 56.152 171.754 56.368C171.41 56.584 171.018 56.764 170.578 56.908C170.082 57.068 169.694 57.312 169.414 57.64C169.142 57.96 168.954 58.32 168.85 58.72C168.746 59.12 168.694 59.52 168.694 59.92V61.156L167.854 60.52ZM179.504 59.44L174.944 64.42L175.004 63.04L179.564 58.06L179.504 59.44ZM175.904 58.48V63.1L174.944 64.42V58.48H175.904ZM179.564 58.06V64H178.604V59.38L179.564 58.06ZM181.663 63.52C181.663 63.336 181.727 63.18 181.855 63.052C181.991 62.924 182.147 62.86 182.323 62.86C182.507 62.86 182.663 62.924 182.791 63.052C182.919 63.18 182.983 63.336 182.983 63.52C182.983 63.696 182.919 63.852 182.791 63.988C182.663 64.116 182.507 64.18 182.323 64.18C182.147 64.18 181.991 64.116 181.855 63.988C181.727 63.852 181.663 63.696 181.663 63.52Z" fill="white"/>
<circle cx="150" cy="305" r="149.5" stroke="#FF3100"/>
<line x1="150.49" y1="451.002" x2="150.49" y2="55.9969" stroke="white" stroke-opacity="0.26" stroke-dasharray="9 9"/>
<line x1="111.992" y1="250.666" x2="186.017" y2="327.928" stroke="white" stroke-opacity="0.24"/>
<line x1="109.667" y1="326.294" x2="186.928" y2="252.269" stroke="white" stroke-opacity="0.13"/>
</svg>
