<svg width="300" height="476" viewBox="0 0 300 476" fill="none" xmlns="http://www.w3.org/2000/svg">
<path d="M76.5298 295.4C76.5298 297.176 76.9258 298.736 77.7178 300.08C78.5338 301.424 79.5898 302.468 80.8858 303.212C82.2058 303.932 83.6338 304.292 85.1698 304.292C86.3698 304.292 87.4498 304.136 88.4098 303.824C89.3698 303.512 90.2338 303.092 91.0018 302.564C91.7938 302.012 92.4778 301.4 93.0538 300.728V305.768C91.9978 306.632 90.8578 307.292 89.6338 307.748C88.4098 308.204 86.8738 308.432 85.0258 308.432C83.1778 308.432 81.4498 308.12 79.8418 307.496C78.2578 306.872 76.8778 305.972 75.7018 304.796C74.5258 303.62 73.6018 302.24 72.9298 300.656C72.2818 299.048 71.9578 297.296 71.9578 295.4C71.9578 293.504 72.2818 291.764 72.9298 290.18C73.6018 288.572 74.5258 287.18 75.7018 286.004C76.8778 284.828 78.2578 283.928 79.8418 283.304C81.4498 282.68 83.1778 282.368 85.0258 282.368C86.8738 282.368 88.4098 282.596 89.6338 283.052C90.8578 283.508 91.9978 284.168 93.0538 285.032V290.072C92.4778 289.4 91.7938 288.8 91.0018 288.272C90.2338 287.72 89.3698 287.288 88.4098 286.976C87.4498 286.664 86.3698 286.508 85.1698 286.508C83.6338 286.508 82.2058 286.88 80.8858 287.624C79.5898 288.344 78.5338 289.376 77.7178 290.72C76.9258 292.04 76.5298 293.6 76.5298 295.4ZM112.976 295.04L98.1085 309.26L98.2885 304.4L113.156 290.18L112.976 295.04ZM101.924 291.44V304.868L98.1085 309.26V291.44H101.924ZM113.156 290.18V308H109.34V294.572L113.156 290.18ZM133.945 291.44V308H130.129V295.04H122.605V302.24C122.605 303.536 122.389 304.616 121.957 305.48C121.525 306.32 120.829 306.956 119.869 307.388C118.933 307.796 117.697 308 116.161 308V304.472C116.881 304.472 117.493 304.28 117.997 303.896C118.525 303.512 118.789 302.78 118.789 301.7V291.44H133.945ZM139.38 291.44H143.304V308H139.38V291.44ZM142.116 300.368V297.452H147.264C148.968 297.452 150.396 297.872 151.548 298.712C152.724 299.528 153.312 300.824 153.312 302.6C153.312 303.776 153.048 304.772 152.52 305.588C151.992 306.38 151.272 306.98 150.36 307.388C149.448 307.796 148.416 308 147.264 308H142.116V304.796H146.868C147.444 304.796 147.924 304.712 148.308 304.544C148.716 304.376 149.016 304.124 149.208 303.788C149.424 303.452 149.532 303.056 149.532 302.6C149.532 301.88 149.304 301.328 148.848 300.944C148.416 300.56 147.756 300.368 146.868 300.368H142.116ZM159.281 300.872V297.668H171.953V300.872H159.281ZM169.865 291.44H173.681V308H169.865V291.44ZM157.589 291.44H161.405V308H157.589V291.44ZM194.704 291.44H198.628V308H194.704V291.44ZM178.648 291.44H182.536V308H178.648V291.44ZM181.348 300.368V297.452H186.496C188.2 297.452 189.628 297.872 190.78 298.712C191.956 299.528 192.544 300.824 192.544 302.6C192.544 303.776 192.28 304.772 191.752 305.588C191.224 306.38 190.504 306.98 189.592 307.388C188.68 307.796 187.648 308 186.496 308H181.348V304.796H186.136C186.712 304.796 187.192 304.712 187.576 304.544C187.96 304.376 188.26 304.124 188.476 303.788C188.692 303.452 188.8 303.056 188.8 302.6C188.8 301.88 188.572 301.328 188.116 300.944C187.66 300.56 187 300.368 186.136 300.368H181.348ZM218.586 295.04L203.718 309.26L203.898 304.4L218.766 290.18L218.586 295.04ZM207.534 291.44V304.868L203.718 309.26V291.44H207.534ZM218.766 290.18V308H214.95V294.572L218.766 290.18ZM205.626 282.98H208.578C208.578 283.34 208.662 283.712 208.83 284.096C209.022 284.48 209.322 284.804 209.73 285.068C210.138 285.332 210.69 285.464 211.386 285.464C212.082 285.464 212.634 285.332 213.042 285.068C213.45 284.804 213.738 284.48 213.906 284.096C214.098 283.712 214.194 283.34 214.194 282.98H217.182C217.182 283.844 216.954 284.672 216.498 285.464C216.066 286.256 215.418 286.892 214.554 287.372C213.714 287.852 212.658 288.092 211.386 288.092C210.138 288.092 209.082 287.852 208.218 287.372C207.354 286.892 206.706 286.256 206.274 285.464C205.842 284.672 205.626 283.844 205.626 282.98ZM96.9584 349.02L92.4584 358.92L88.4264 358.488L96.9584 342.18L105.49 358.488L101.458 358.92L96.9584 349.02ZM103.798 360H90.2984V363.24H86.3384V356.688H107.578V363.24H103.798V360ZM126.687 347.04L111.819 361.26L111.999 356.4L126.867 342.18L126.687 347.04ZM115.635 343.44V356.868L111.819 361.26V343.44H115.635ZM126.867 342.18V360H123.051V346.572L126.867 342.18ZM138.584 351.72V349.992C139.544 349.992 140.228 349.812 140.636 349.452C141.068 349.068 141.284 348.6 141.284 348.048C141.284 347.496 141.068 347.052 140.636 346.716C140.228 346.38 139.664 346.212 138.944 346.212C138.344 346.212 137.84 346.332 137.432 346.572C137.024 346.788 136.712 347.076 136.496 347.436C136.304 347.772 136.208 348.132 136.208 348.516H132.464C132.464 347.484 132.74 346.56 133.292 345.744C133.844 344.928 134.6 344.28 135.56 343.8C136.544 343.32 137.66 343.08 138.908 343.08C140.084 343.08 141.14 343.284 142.076 343.692C143.012 344.1 143.744 344.652 144.272 345.348C144.8 346.044 145.064 346.812 145.064 347.652C145.064 348.852 144.512 349.848 143.408 350.64C142.304 351.408 140.696 351.768 138.584 351.72ZM138.836 360.36C136.724 360.36 135.044 359.832 133.796 358.776C132.572 357.696 131.864 356.304 131.672 354.6H135.488C135.656 355.368 135.992 356.016 136.496 356.544C137.024 357.048 137.804 357.3 138.836 357.3C139.508 357.3 140.084 357.204 140.564 357.012C141.044 356.82 141.404 356.556 141.644 356.22C141.908 355.86 142.04 355.44 142.04 354.96C142.04 354.456 141.908 354.024 141.644 353.664C141.38 353.304 140.984 353.028 140.456 352.836C139.952 352.644 139.328 352.548 138.584 352.548V350.64C140.816 350.592 142.568 350.952 143.84 351.72C145.136 352.464 145.784 353.604 145.784 355.14C145.784 356.22 145.472 357.156 144.848 357.948C144.248 358.716 143.42 359.316 142.364 359.748C141.308 360.156 140.132 360.36 138.836 360.36ZM152.338 355.104C152.338 355.608 152.47 356.028 152.734 356.364C153.022 356.7 153.394 356.964 153.85 357.156C154.306 357.324 154.822 357.408 155.398 357.408C156.238 357.408 156.994 357.276 157.666 357.012C158.338 356.748 158.866 356.328 159.25 355.752C159.634 355.176 159.826 354.408 159.826 353.448L160.402 355.32C160.402 356.376 160.126 357.288 159.574 358.056C159.022 358.8 158.278 359.376 157.342 359.784C156.406 360.168 155.362 360.36 154.21 360.36C153.13 360.36 152.146 360.168 151.258 359.784C150.394 359.4 149.698 358.836 149.17 358.092C148.666 357.324 148.414 356.376 148.414 355.248C148.414 354.12 148.702 353.148 149.278 352.332C149.854 351.516 150.67 350.892 151.726 350.46C152.806 350.028 154.066 349.812 155.506 349.812C156.466 349.812 157.318 349.932 158.062 350.172C158.83 350.412 159.466 350.688 159.97 351C160.474 351.312 160.822 351.588 161.014 351.828V353.88C160.27 353.328 159.514 352.932 158.746 352.692C157.978 352.428 157.09 352.296 156.082 352.296C155.266 352.296 154.57 352.416 153.994 352.656C153.442 352.872 153.022 353.196 152.734 353.628C152.47 354.036 152.338 354.528 152.338 355.104ZM151.474 347.796L149.926 345.024C150.67 344.568 151.618 344.124 152.77 343.692C153.922 343.26 155.242 343.044 156.73 343.044C158.098 343.044 159.298 343.248 160.33 343.656C161.362 344.064 162.166 344.652 162.742 345.42C163.342 346.164 163.642 347.088 163.642 348.192V360H159.826V348.624C159.826 347.856 159.502 347.268 158.854 346.86C158.23 346.428 157.462 346.212 156.55 346.212C155.758 346.212 155.026 346.308 154.354 346.5C153.682 346.692 153.094 346.92 152.59 347.184C152.11 347.424 151.738 347.628 151.474 347.796ZM183.219 347.04L168.351 361.26L168.531 356.4L183.399 342.18L183.219 347.04ZM172.167 343.44V356.868L168.351 361.26V343.44H172.167ZM183.399 342.18V360H179.583V346.572L183.399 342.18ZM170.259 334.98H173.211C173.211 335.34 173.295 335.712 173.463 336.096C173.655 336.48 173.955 336.804 174.363 337.068C174.771 337.332 175.323 337.464 176.019 337.464C176.715 337.464 177.267 337.332 177.675 337.068C178.083 336.804 178.371 336.48 178.539 336.096C178.731 335.712 178.827 335.34 178.827 334.98H181.815C181.815 335.844 181.587 336.672 181.131 337.464C180.699 338.256 180.051 338.892 179.187 339.372C178.347 339.852 177.291 340.092 176.019 340.092C174.771 340.092 173.715 339.852 172.851 339.372C171.987 338.892 171.339 338.256 170.907 337.464C170.475 336.672 170.259 335.844 170.259 334.98ZM190.219 352.872V349.668H202.891V352.872H190.219ZM200.803 343.44H204.619V360H200.803V343.44ZM188.527 343.44H192.343V360H188.527V343.44Z" fill="white"/>
<path d="M31.74 5.716L29.028 12.736H28.32L31.74 4.18L35.16 12.736H34.452L31.74 5.716ZM35.412 13H28.068V14.32H27.48V12.376H36V14.32H35.412V13ZM41.7231 8.02L37.4991 13.42L37.5591 12.46L41.7831 7.06L41.7231 8.02ZM38.1231 7.48V12.532L37.4991 13.42V7.48H38.1231ZM41.7831 7.06V13H41.1591V7.948L41.7831 7.06ZM45.6663 10.18V9.784C46.1063 9.784 46.4383 9.7 46.6623 9.532C46.8863 9.356 46.9983 9.132 46.9983 8.86C46.9983 8.572 46.8823 8.344 46.6503 8.176C46.4263 8.008 46.1303 7.924 45.7623 7.924C45.4743 7.924 45.2263 7.98 45.0183 8.092C44.8103 8.204 44.6503 8.348 44.5383 8.524C44.4343 8.692 44.3823 8.864 44.3823 9.04H43.7463C43.7463 8.736 43.8343 8.456 44.0103 8.2C44.1943 7.944 44.4383 7.74 44.7423 7.588C45.0543 7.436 45.3983 7.36 45.7743 7.36C46.1263 7.36 46.4423 7.424 46.7223 7.552C47.0023 7.68 47.2223 7.852 47.3823 8.068C47.5503 8.284 47.6343 8.532 47.6343 8.812C47.6343 9.212 47.4623 9.54 47.1183 9.796C46.7823 10.052 46.2983 10.18 45.6663 10.18ZM45.7383 13.12C45.0903 13.12 44.5663 12.944 44.1663 12.592C43.7663 12.24 43.5343 11.796 43.4703 11.26H44.1063C44.1623 11.612 44.3223 11.92 44.5863 12.184C44.8503 12.44 45.2343 12.568 45.7383 12.568C46.0183 12.568 46.2703 12.524 46.4943 12.436C46.7263 12.348 46.9103 12.22 47.0463 12.052C47.1903 11.884 47.2623 11.676 47.2623 11.428C47.2623 11.18 47.1943 10.976 47.0583 10.816C46.9223 10.656 46.7343 10.536 46.4943 10.456C46.2543 10.376 45.9783 10.336 45.6663 10.336V9.94C46.3623 9.94 46.9023 10.064 47.2863 10.312C47.6783 10.552 47.8743 10.92 47.8743 11.416C47.8743 11.776 47.7743 12.084 47.5743 12.34C47.3823 12.596 47.1223 12.792 46.7943 12.928C46.4663 13.056 46.1143 13.12 45.7383 13.12ZM49.4542 11.38C49.4542 11.652 49.5182 11.876 49.6462 12.052C49.7742 12.22 49.9422 12.348 50.1502 12.436C50.3662 12.516 50.5942 12.556 50.8342 12.556C51.1702 12.556 51.4702 12.492 51.7342 12.364C52.0062 12.236 52.2182 12.052 52.3702 11.812C52.5222 11.572 52.5982 11.28 52.5982 10.936L52.7422 11.296C52.7422 11.648 52.6502 11.964 52.4662 12.244C52.2902 12.516 52.0462 12.732 51.7342 12.892C51.4302 13.044 51.0822 13.12 50.6902 13.12C50.3622 13.12 50.0542 13.06 49.7662 12.94C49.4862 12.812 49.2582 12.624 49.0822 12.376C48.9062 12.12 48.8182 11.796 48.8182 11.404C48.8182 11.012 48.9182 10.684 49.1182 10.42C49.3182 10.148 49.5902 9.944 49.9342 9.808C50.2782 9.664 50.6662 9.592 51.0982 9.592C51.4342 9.592 51.7182 9.632 51.9502 9.712C52.1902 9.792 52.3822 9.884 52.5262 9.988C52.6782 10.092 52.7862 10.18 52.8502 10.252V10.636C52.6262 10.468 52.3742 10.336 52.0942 10.24C51.8222 10.136 51.4982 10.084 51.1222 10.084C50.8022 10.084 50.5142 10.136 50.2582 10.24C50.0102 10.336 49.8142 10.48 49.6702 10.672C49.5262 10.864 49.4542 11.1 49.4542 11.38ZM49.6102 8.572L49.2982 8.092C49.5062 7.924 49.7742 7.76 50.1022 7.6C50.4382 7.44 50.8422 7.36 51.3142 7.36C51.7142 7.36 52.0542 7.432 52.3342 7.576C52.6222 7.712 52.8422 7.908 52.9942 8.164C53.1462 8.42 53.2222 8.728 53.2222 9.088V13H52.5982V9.088C52.5982 8.712 52.4782 8.424 52.2382 8.224C52.0062 8.016 51.6982 7.912 51.3142 7.912C51.0502 7.912 50.8102 7.948 50.5942 8.02C50.3782 8.084 50.1862 8.168 50.0182 8.272C49.8582 8.376 49.7222 8.476 49.6102 8.572ZM59.4184 8.02L55.1944 13.42L55.2544 12.46L59.4784 7.06L59.4184 8.02ZM55.8184 7.48V12.532L55.1944 13.42V7.48H55.8184ZM59.4784 7.06V13H58.8544V7.948L59.4784 7.06ZM55.4464 4.66H56.0104C56.0104 4.828 56.0544 5.004 56.1424 5.188C56.2304 5.364 56.3744 5.516 56.5744 5.644C56.7744 5.764 57.0304 5.824 57.3424 5.824C57.6544 5.824 57.9104 5.764 58.1104 5.644C58.3104 5.516 58.4544 5.364 58.5424 5.188C58.6304 5.004 58.6744 4.828 58.6744 4.66H59.2384C59.2384 4.932 59.1664 5.2 59.0224 5.464C58.8864 5.72 58.6784 5.932 58.3984 6.1C58.1184 6.26 57.7664 6.34 57.3424 6.34C56.9264 6.34 56.5744 6.26 56.2864 6.1C56.0064 5.932 55.7944 5.72 55.6504 5.464C55.5144 5.2 55.4464 4.932 55.4464 4.66ZM61.7056 10.372V9.784H65.7376V10.372H61.7056ZM65.3536 7.48H65.9776V13H65.3536V7.48ZM61.3336 7.48H61.9576V13H61.3336V7.48ZM71.5206 10.24C71.5206 10.688 71.6166 11.084 71.8086 11.428C72.0006 11.772 72.2606 12.044 72.5886 12.244C72.9246 12.436 73.3006 12.532 73.7166 12.532C74.0126 12.532 74.2886 12.488 74.5446 12.4C74.8006 12.312 75.0206 12.2 75.2046 12.064C75.3966 11.92 75.5326 11.776 75.6126 11.632V12.412C75.4446 12.612 75.1846 12.78 74.8326 12.916C74.4886 13.052 74.1166 13.12 73.7166 13.12C73.1806 13.12 72.7006 12.996 72.2766 12.748C71.8526 12.5 71.5126 12.16 71.2566 11.728C71.0086 11.288 70.8846 10.792 70.8846 10.24C70.8846 9.68 71.0086 9.184 71.2566 8.752C71.5126 8.32 71.8526 7.98 72.2766 7.732C72.7006 7.484 73.1806 7.36 73.7166 7.36C74.1166 7.36 74.4886 7.432 74.8326 7.576C75.1846 7.712 75.4446 7.876 75.6126 8.068V8.848C75.5326 8.696 75.3966 8.552 75.2046 8.416C75.0206 8.28 74.8006 8.168 74.5446 8.08C74.2886 7.992 74.0126 7.948 73.7166 7.948C73.3006 7.948 72.9246 8.048 72.5886 8.248C72.2606 8.44 72.0006 8.708 71.8086 9.052C71.6166 9.396 71.5206 9.792 71.5206 10.24ZM81.0767 10.372V9.784H85.1087V10.372H81.0767ZM84.7247 7.48H85.3487V13H84.7247V7.48ZM80.7047 7.48H81.3287V13H80.7047V7.48ZM91.41 7.48L87.81 15.64H87.114L88.53 12.436L86.298 7.48H87.042L89.046 12.184L88.758 12.16L90.714 7.48H91.41ZM96.9352 7.48V13H96.3112V8.068H93.1552V11.08C93.1552 11.512 93.0952 11.872 92.9752 12.16C92.8632 12.44 92.6952 12.652 92.4712 12.796C92.2472 12.932 91.9752 13 91.6552 13V12.424C91.8952 12.424 92.0992 12.316 92.2672 12.1C92.4432 11.884 92.5312 11.544 92.5312 11.08V7.48H96.9352ZM99.2304 13H98.5344L100.454 10.348H101.15L99.2304 13ZM102.758 13H102.134V7.48H102.758V13ZM102.386 10.24V10.792H100.814C100.438 10.792 100.094 10.736 99.7824 10.624C99.4784 10.512 99.2384 10.336 99.0624 10.096C98.8864 9.848 98.7984 9.528 98.7984 9.136C98.7984 8.736 98.8864 8.416 99.0624 8.176C99.2384 7.936 99.4784 7.76 99.7824 7.648C100.094 7.536 100.438 7.48 100.814 7.48H102.386V8.032H100.814C100.534 8.032 100.29 8.072 100.082 8.152C99.8744 8.224 99.7104 8.34 99.5904 8.5C99.4784 8.66 99.4224 8.872 99.4224 9.136C99.4224 9.392 99.4784 9.604 99.5904 9.772C99.7104 9.932 99.8744 10.052 100.082 10.132C100.29 10.204 100.534 10.24 100.814 10.24H102.386ZM107.797 10.288V9.7H114.997V10.288H107.797ZM122.714 7.948V7.36C123.258 7.36 123.742 7.484 124.166 7.732C124.598 7.98 124.938 8.32 125.186 8.752C125.442 9.184 125.57 9.68 125.57 10.24C125.57 10.792 125.442 11.288 125.186 11.728C124.938 12.16 124.598 12.5 124.166 12.748C123.742 12.996 123.258 13.12 122.714 13.12C122.178 13.12 121.694 12.988 121.262 12.724C120.83 12.452 120.486 12.048 120.229 11.512C119.981 10.976 119.858 10.312 119.858 9.52L120.53 10.24C120.53 10.688 120.626 11.084 120.818 11.428C121.018 11.772 121.282 12.044 121.61 12.244C121.938 12.436 122.306 12.532 122.714 12.532C123.122 12.532 123.494 12.436 123.83 12.244C124.166 12.044 124.434 11.772 124.634 11.428C124.834 11.084 124.934 10.688 124.934 10.24C124.934 9.792 124.834 9.396 124.634 9.052C124.442 8.7 124.178 8.428 123.842 8.236C123.514 8.044 123.138 7.948 122.714 7.948ZM120.218 10.24C120.218 9.792 120.282 9.392 120.41 9.04C120.546 8.68 120.73 8.376 120.962 8.128C121.194 7.88 121.458 7.692 121.754 7.564C122.058 7.428 122.378 7.36 122.714 7.36V7.948C122.474 7.948 122.222 8 121.958 8.104C121.702 8.208 121.466 8.356 121.25 8.548C121.034 8.74 120.858 8.98 120.722 9.268C120.594 9.548 120.53 9.872 120.53 10.24H120.218ZM119.858 9.52C119.858 8.768 119.93 8.104 120.074 7.528C120.218 6.952 120.474 6.464 120.842 6.064C121.21 5.664 121.714 5.352 122.354 5.128C122.898 4.944 123.302 4.724 123.566 4.468C123.83 4.204 123.99 3.928 124.046 3.64H124.658C124.626 3.936 124.518 4.212 124.334 4.468C124.15 4.716 123.902 4.94 123.59 5.14C123.286 5.332 122.926 5.5 122.51 5.644C121.974 5.828 121.55 6.092 121.238 6.436C120.934 6.78 120.718 7.188 120.59 7.66C120.47 8.124 120.41 8.64 120.41 9.208V10.192L119.858 9.52ZM126.852 10.396V9.856H130.956C130.956 9.48 130.876 9.148 130.716 8.86C130.556 8.564 130.336 8.332 130.056 8.164C129.784 7.996 129.468 7.912 129.108 7.912C128.748 7.912 128.416 7.996 128.112 8.164C127.808 8.332 127.564 8.576 127.38 8.896C127.196 9.208 127.104 9.58 127.104 10.012L127.092 10.228C127.092 10.692 127.176 11.1 127.344 11.452C127.512 11.796 127.744 12.064 128.04 12.256C128.344 12.44 128.692 12.532 129.084 12.532C129.436 12.532 129.732 12.48 129.972 12.376C130.22 12.264 130.428 12.124 130.596 11.956C130.772 11.78 130.92 11.592 131.04 11.392L131.544 11.716C131.384 11.964 131.2 12.196 130.992 12.412C130.784 12.62 130.524 12.792 130.212 12.928C129.9 13.056 129.5 13.12 129.012 13.12C128.532 13.12 128.096 12.996 127.704 12.748C127.32 12.5 127.016 12.156 126.792 11.716C126.568 11.276 126.456 10.78 126.456 10.228C126.456 10.1 126.46 9.98 126.468 9.868C126.484 9.748 126.504 9.628 126.528 9.508C126.624 9.084 126.788 8.712 127.02 8.392C127.252 8.064 127.548 7.812 127.908 7.636C128.268 7.452 128.668 7.36 129.108 7.36C129.588 7.36 130.02 7.476 130.404 7.708C130.788 7.932 131.088 8.248 131.304 8.656C131.528 9.064 131.64 9.544 131.64 10.096C131.64 10.144 131.636 10.196 131.628 10.252C131.628 10.3 131.624 10.348 131.616 10.396H126.852ZM135.092 10.18V9.784C135.532 9.784 135.864 9.7 136.088 9.532C136.312 9.356 136.424 9.132 136.424 8.86C136.424 8.572 136.308 8.344 136.076 8.176C135.852 8.008 135.556 7.924 135.188 7.924C134.9 7.924 134.652 7.98 134.444 8.092C134.236 8.204 134.076 8.348 133.964 8.524C133.86 8.692 133.808 8.864 133.808 9.04H133.172C133.172 8.736 133.26 8.456 133.436 8.2C133.62 7.944 133.864 7.74 134.168 7.588C134.48 7.436 134.824 7.36 135.2 7.36C135.552 7.36 135.868 7.424 136.148 7.552C136.428 7.68 136.648 7.852 136.808 8.068C136.976 8.284 137.06 8.532 137.06 8.812C137.06 9.212 136.888 9.54 136.544 9.796C136.208 10.052 135.724 10.18 135.092 10.18ZM135.164 13.12C134.516 13.12 133.992 12.944 133.592 12.592C133.192 12.24 132.96 11.796 132.896 11.26H133.532C133.588 11.612 133.748 11.92 134.012 12.184C134.276 12.44 134.66 12.568 135.164 12.568C135.444 12.568 135.696 12.524 135.92 12.436C136.152 12.348 136.336 12.22 136.472 12.052C136.616 11.884 136.688 11.676 136.688 11.428C136.688 11.18 136.62 10.976 136.484 10.816C136.348 10.656 136.16 10.536 135.92 10.456C135.68 10.376 135.404 10.336 135.092 10.336V9.94C135.788 9.94 136.328 10.064 136.712 10.312C137.104 10.552 137.3 10.92 137.3 11.416C137.3 11.776 137.2 12.084 137 12.34C136.808 12.596 136.548 12.792 136.22 12.928C135.892 13.056 135.54 13.12 135.164 13.12ZM31.824 29.412H34.5V24.48H35.124V30H27.9V24.48H28.524V29.412H31.2V24.48H31.824V29.412ZM37.0674 28.38C37.0674 28.652 37.1314 28.876 37.2594 29.052C37.3874 29.22 37.5554 29.348 37.7634 29.436C37.9794 29.516 38.2074 29.556 38.4474 29.556C38.7834 29.556 39.0834 29.492 39.3474 29.364C39.6194 29.236 39.8314 29.052 39.9834 28.812C40.1354 28.572 40.2114 28.28 40.2114 27.936L40.3554 28.296C40.3554 28.648 40.2634 28.964 40.0794 29.244C39.9034 29.516 39.6594 29.732 39.3474 29.892C39.0434 30.044 38.6954 30.12 38.3034 30.12C37.9754 30.12 37.6674 30.06 37.3794 29.94C37.0994 29.812 36.8714 29.624 36.6954 29.376C36.5194 29.12 36.4314 28.796 36.4314 28.404C36.4314 28.012 36.5314 27.684 36.7314 27.42C36.9314 27.148 37.2034 26.944 37.5474 26.808C37.8914 26.664 38.2794 26.592 38.7114 26.592C39.0474 26.592 39.3314 26.632 39.5634 26.712C39.8034 26.792 39.9954 26.884 40.1394 26.988C40.2914 27.092 40.3994 27.18 40.4634 27.252V27.636C40.2394 27.468 39.9874 27.336 39.7074 27.24C39.4354 27.136 39.1114 27.084 38.7354 27.084C38.4154 27.084 38.1274 27.136 37.8714 27.24C37.6234 27.336 37.4274 27.48 37.2834 27.672C37.1394 27.864 37.0674 28.1 37.0674 28.38ZM37.2234 25.572L36.9114 25.092C37.1194 24.924 37.3874 24.76 37.7154 24.6C38.0514 24.44 38.4554 24.36 38.9274 24.36C39.3274 24.36 39.6674 24.432 39.9474 24.576C40.2354 24.712 40.4554 24.908 40.6074 25.164C40.7594 25.42 40.8354 25.728 40.8354 26.088V30H40.2114V26.088C40.2114 25.712 40.0914 25.424 39.8514 25.224C39.6194 25.016 39.3114 24.912 38.9274 24.912C38.6634 24.912 38.4234 24.948 38.2074 25.02C37.9914 25.084 37.7994 25.168 37.6314 25.272C37.4714 25.376 37.3354 25.476 37.2234 25.572ZM45.1237 24.948V24.36C45.6677 24.36 46.1517 24.484 46.5757 24.732C47.0077 24.98 47.3477 25.32 47.5957 25.752C47.8517 26.184 47.9797 26.68 47.9797 27.24C47.9797 27.792 47.8517 28.288 47.5957 28.728C47.3477 29.16 47.0077 29.5 46.5757 29.748C46.1517 29.996 45.6677 30.12 45.1237 30.12C44.5877 30.12 44.1037 29.988 43.6717 29.724C43.2397 29.452 42.8957 29.048 42.6397 28.512C42.3917 27.976 42.2677 27.312 42.2677 26.52L42.9397 27.24C42.9397 27.688 43.0357 28.084 43.2277 28.428C43.4277 28.772 43.6917 29.044 44.0197 29.244C44.3477 29.436 44.7157 29.532 45.1237 29.532C45.5317 29.532 45.9037 29.436 46.2397 29.244C46.5757 29.044 46.8437 28.772 47.0437 28.428C47.2437 28.084 47.3437 27.688 47.3437 27.24C47.3437 26.792 47.2437 26.396 47.0437 26.052C46.8517 25.7 46.5877 25.428 46.2517 25.236C45.9237 25.044 45.5477 24.948 45.1237 24.948ZM42.6277 27.24C42.6277 26.792 42.6917 26.392 42.8197 26.04C42.9557 25.68 43.1397 25.376 43.3717 25.128C43.6037 24.88 43.8677 24.692 44.1637 24.564C44.4677 24.428 44.7877 24.36 45.1237 24.36V24.948C44.8837 24.948 44.6317 25 44.3677 25.104C44.1117 25.208 43.8757 25.356 43.6597 25.548C43.4437 25.74 43.2677 25.98 43.1317 26.268C43.0037 26.548 42.9397 26.872 42.9397 27.24H42.6277ZM42.2677 26.52C42.2677 25.768 42.3397 25.104 42.4837 24.528C42.6277 23.952 42.8837 23.464 43.2517 23.064C43.6197 22.664 44.1237 22.352 44.7637 22.128C45.3077 21.944 45.7117 21.724 45.9757 21.468C46.2397 21.204 46.3997 20.928 46.4557 20.64H47.0677C47.0357 20.936 46.9277 21.212 46.7437 21.468C46.5597 21.716 46.3117 21.94 45.9997 22.14C45.6957 22.332 45.3357 22.5 44.9197 22.644C44.3837 22.828 43.9597 23.092 43.6477 23.436C43.3437 23.78 43.1277 24.188 42.9997 24.66C42.8797 25.124 42.8197 25.64 42.8197 26.208V27.192L42.2677 26.52ZM53.7984 24.48V30H53.1744V25.068H50.0184V28.08C50.0184 28.512 49.9584 28.872 49.8384 29.16C49.7264 29.44 49.5584 29.652 49.3344 29.796C49.1104 29.932 48.8384 30 48.5184 30V29.424C48.7584 29.424 48.9624 29.316 49.1304 29.1C49.3064 28.884 49.3944 28.544 49.3944 28.08V24.48H53.7984ZM55.2297 27.24C55.2297 26.68 55.3537 26.184 55.6017 25.752C55.8497 25.32 56.1857 24.98 56.6097 24.732C57.0417 24.484 57.5257 24.36 58.0617 24.36C58.5977 24.36 59.0777 24.484 59.5017 24.732C59.9337 24.98 60.2737 25.32 60.5217 25.752C60.7697 26.184 60.8937 26.68 60.8937 27.24C60.8937 27.792 60.7697 28.288 60.5217 28.728C60.2737 29.16 59.9337 29.5 59.5017 29.748C59.0777 29.996 58.5977 30.12 58.0617 30.12C57.5257 30.12 57.0417 29.996 56.6097 29.748C56.1857 29.5 55.8497 29.16 55.6017 28.728C55.3537 28.288 55.2297 27.792 55.2297 27.24ZM55.8657 27.24C55.8657 27.688 55.9617 28.084 56.1537 28.428C56.3457 28.772 56.6057 29.044 56.9337 29.244C57.2697 29.436 57.6457 29.532 58.0617 29.532C58.4777 29.532 58.8497 29.436 59.1777 29.244C59.5137 29.044 59.7777 28.772 59.9697 28.428C60.1617 28.084 60.2577 27.688 60.2577 27.24C60.2577 26.8 60.1617 26.408 59.9697 26.064C59.7777 25.712 59.5137 25.44 59.1777 25.248C58.8497 25.048 58.4777 24.948 58.0617 24.948C57.6457 24.948 57.2697 25.048 56.9337 25.248C56.6057 25.44 56.3457 25.708 56.1537 26.052C55.9617 26.396 55.8657 26.792 55.8657 27.24ZM62.5845 27.372V26.784H66.6165V27.372H62.5845ZM66.2325 24.48H66.8565V30H66.2325V24.48ZM62.2125 24.48H62.8365V30H62.2125V24.48ZM68.2258 27.24C68.2258 26.68 68.3498 26.184 68.5978 25.752C68.8458 25.32 69.1818 24.98 69.6058 24.732C70.0378 24.484 70.5218 24.36 71.0578 24.36C71.5938 24.36 72.0738 24.484 72.4978 24.732C72.9298 24.98 73.2698 25.32 73.5178 25.752C73.7658 26.184 73.8898 26.68 73.8898 27.24C73.8898 27.792 73.7658 28.288 73.5178 28.728C73.2698 29.16 72.9298 29.5 72.4978 29.748C72.0738 29.996 71.5938 30.12 71.0578 30.12C70.5218 30.12 70.0378 29.996 69.6058 29.748C69.1818 29.5 68.8458 29.16 68.5978 28.728C68.3498 28.288 68.2258 27.792 68.2258 27.24ZM68.8618 27.24C68.8618 27.688 68.9578 28.084 69.1498 28.428C69.3418 28.772 69.6018 29.044 69.9298 29.244C70.2658 29.436 70.6418 29.532 71.0578 29.532C71.4738 29.532 71.8458 29.436 72.1738 29.244C72.5098 29.044 72.7738 28.772 72.9658 28.428C73.1578 28.084 73.2538 27.688 73.2538 27.24C73.2538 26.8 73.1578 26.408 72.9658 26.064C72.7738 25.712 72.5098 25.44 72.1738 25.248C71.8458 25.048 71.4738 24.948 71.0578 24.948C70.6418 24.948 70.2658 25.048 69.9298 25.248C69.6018 25.44 69.3418 25.708 69.1498 26.052C68.9578 26.396 68.8618 26.792 68.8618 27.24ZM75.5686 27.168H77.1646C77.5486 27.168 77.8926 27.204 78.1966 27.276C78.5006 27.348 78.7406 27.48 78.9166 27.672C79.0926 27.864 79.1806 28.14 79.1806 28.5C79.1806 28.916 79.0406 29.272 78.7606 29.568C78.4886 29.856 78.0366 30 77.4046 30H75.5686V29.448H77.2606C77.7166 29.448 78.0446 29.348 78.2446 29.148C78.4526 28.948 78.5566 28.708 78.5566 28.428C78.5566 28.244 78.5166 28.096 78.4366 27.984C78.3646 27.864 78.2646 27.768 78.1366 27.696C78.0086 27.624 77.8606 27.572 77.6926 27.54C77.5246 27.508 77.3486 27.492 77.1646 27.492H75.5686V27.168ZM75.5686 27.312V26.952H77.0446C77.1886 26.952 77.3366 26.936 77.4886 26.904C77.6406 26.872 77.7766 26.816 77.8966 26.736C78.0246 26.656 78.1246 26.56 78.1966 26.448C78.2766 26.328 78.3166 26.184 78.3166 26.016C78.3166 25.696 78.1966 25.452 77.9566 25.284C77.7246 25.116 77.4206 25.032 77.0446 25.032H75.5686V24.48H77.0446C77.3886 24.48 77.7006 24.532 77.9806 24.636C78.2686 24.732 78.5006 24.892 78.6766 25.116C78.8526 25.332 78.9406 25.62 78.9406 25.98C78.9406 26.292 78.8526 26.548 78.6766 26.748C78.5006 26.94 78.2686 27.084 77.9806 27.18C77.7006 27.268 77.3886 27.312 77.0446 27.312H75.5686ZM75.2086 24.48H75.8326V30H75.2086V24.48ZM80.7952 29.712C80.7952 29.584 80.8392 29.476 80.9272 29.388C81.0152 29.3 81.1192 29.256 81.2392 29.256C81.3672 29.256 81.4712 29.3 81.5512 29.388C81.6392 29.476 81.6832 29.584 81.6832 29.712C81.6832 29.832 81.6392 29.936 81.5512 30.024C81.4712 30.112 81.3672 30.156 81.2392 30.156C81.1192 30.156 81.0152 30.112 80.9272 30.024C80.8392 29.936 80.7952 29.832 80.7952 29.712ZM92.915 21.6L88.967 30H88.235L89.387 27.432L86.543 21.6H87.347L89.999 27.24L89.591 27.216L92.183 21.6H92.915ZM95.678 28.32V27.732H97.322V28.32H95.678ZM96.878 24.48H97.502V30H96.878V24.48ZM94.142 24.48V26.064C94.142 26.472 94.19 26.8 94.286 27.048C94.382 27.288 94.542 27.464 94.766 27.576C94.99 27.68 95.294 27.732 95.678 27.732V28.32C95.126 28.32 94.69 28.244 94.37 28.092C94.058 27.94 93.838 27.7 93.71 27.372C93.582 27.036 93.518 26.6 93.518 26.064V24.48H94.142ZM103.586 25.02L99.3623 30.42L99.4223 29.46L103.646 24.06L103.586 25.02ZM99.9863 24.48V29.532L99.3623 30.42V24.48H99.9863ZM103.646 24.06V30H103.022V24.948L103.646 24.06ZM104.662 24.48H107.902V25.068H104.662V24.48ZM105.97 24.648H106.594V30H105.97V24.648ZM113.725 24.48H114.349V30H113.725V24.48ZM108.865 24.48H109.489V30H108.865V24.48ZM109.213 27.12V26.568H110.809C111.377 26.568 111.853 26.708 112.237 26.988C112.629 27.26 112.825 27.692 112.825 28.284C112.825 28.676 112.737 29 112.561 29.256C112.385 29.512 112.145 29.7 111.841 29.82C111.537 29.94 111.193 30 110.809 30H109.213V29.448H110.809C111.089 29.448 111.333 29.408 111.541 29.328C111.749 29.24 111.909 29.112 112.021 28.944C112.141 28.768 112.201 28.548 112.201 28.284C112.201 27.9 112.073 27.612 111.817 27.42C111.569 27.22 111.233 27.12 110.809 27.12H109.213ZM116.514 27.168H118.11C118.494 27.168 118.838 27.204 119.142 27.276C119.446 27.348 119.686 27.48 119.862 27.672C120.038 27.864 120.126 28.14 120.126 28.5C120.126 28.916 119.986 29.272 119.706 29.568C119.434 29.856 118.982 30 118.35 30H116.514V29.448H118.206C118.662 29.448 118.99 29.348 119.19 29.148C119.398 28.948 119.502 28.708 119.502 28.428C119.502 28.244 119.462 28.096 119.382 27.984C119.31 27.864 119.21 27.768 119.082 27.696C118.954 27.624 118.806 27.572 118.638 27.54C118.47 27.508 118.294 27.492 118.11 27.492H116.514V27.168ZM116.514 27.312V26.952H117.99C118.134 26.952 118.282 26.936 118.434 26.904C118.586 26.872 118.722 26.816 118.842 26.736C118.97 26.656 119.07 26.56 119.142 26.448C119.222 26.328 119.262 26.184 119.262 26.016C119.262 25.696 119.142 25.452 118.902 25.284C118.67 25.116 118.366 25.032 117.99 25.032H116.514V24.48H117.99C118.334 24.48 118.646 24.532 118.926 24.636C119.214 24.732 119.446 24.892 119.622 25.116C119.798 25.332 119.886 25.62 119.886 25.98C119.886 26.292 119.798 26.548 119.622 26.748C119.446 26.94 119.214 27.084 118.926 27.18C118.646 27.268 118.334 27.312 117.99 27.312H116.514ZM116.154 24.48H116.778V30H116.154V24.48ZM121.524 28.38C121.524 28.652 121.588 28.876 121.716 29.052C121.844 29.22 122.012 29.348 122.22 29.436C122.436 29.516 122.664 29.556 122.904 29.556C123.24 29.556 123.54 29.492 123.804 29.364C124.076 29.236 124.288 29.052 124.44 28.812C124.592 28.572 124.668 28.28 124.668 27.936L124.812 28.296C124.812 28.648 124.72 28.964 124.536 29.244C124.36 29.516 124.116 29.732 123.804 29.892C123.5 30.044 123.152 30.12 122.76 30.12C122.432 30.12 122.124 30.06 121.836 29.94C121.556 29.812 121.328 29.624 121.152 29.376C120.976 29.12 120.888 28.796 120.888 28.404C120.888 28.012 120.988 27.684 121.188 27.42C121.388 27.148 121.66 26.944 122.004 26.808C122.348 26.664 122.736 26.592 123.168 26.592C123.504 26.592 123.788 26.632 124.02 26.712C124.26 26.792 124.452 26.884 124.596 26.988C124.748 27.092 124.856 27.18 124.92 27.252V27.636C124.696 27.468 124.444 27.336 124.164 27.24C123.892 27.136 123.568 27.084 123.192 27.084C122.872 27.084 122.584 27.136 122.328 27.24C122.08 27.336 121.884 27.48 121.74 27.672C121.596 27.864 121.524 28.1 121.524 28.38ZM121.68 25.572L121.368 25.092C121.576 24.924 121.844 24.76 122.172 24.6C122.508 24.44 122.912 24.36 123.384 24.36C123.784 24.36 124.124 24.432 124.404 24.576C124.692 24.712 124.912 24.908 125.064 25.164C125.216 25.42 125.292 25.728 125.292 26.088V30H124.668V26.088C124.668 25.712 124.548 25.424 124.308 25.224C124.076 25.016 123.768 24.912 123.384 24.912C123.12 24.912 122.88 24.948 122.664 25.02C122.448 25.084 122.256 25.168 122.088 25.272C121.928 25.376 121.792 25.476 121.68 25.572ZM127.169 27.396V26.856H131.273C131.273 26.48 131.193 26.148 131.033 25.86C130.873 25.564 130.653 25.332 130.373 25.164C130.101 24.996 129.785 24.912 129.425 24.912C129.065 24.912 128.733 24.996 128.429 25.164C128.125 25.332 127.881 25.576 127.697 25.896C127.513 26.208 127.421 26.58 127.421 27.012L127.409 27.228C127.409 27.692 127.493 28.1 127.661 28.452C127.829 28.796 128.061 29.064 128.357 29.256C128.661 29.44 129.009 29.532 129.401 29.532C129.753 29.532 130.049 29.48 130.289 29.376C130.537 29.264 130.745 29.124 130.913 28.956C131.089 28.78 131.237 28.592 131.357 28.392L131.861 28.716C131.701 28.964 131.517 29.196 131.309 29.412C131.101 29.62 130.841 29.792 130.529 29.928C130.217 30.056 129.817 30.12 129.329 30.12C128.849 30.12 128.413 29.996 128.021 29.748C127.637 29.5 127.333 29.156 127.109 28.716C126.885 28.276 126.773 27.78 126.773 27.228C126.773 27.1 126.777 26.98 126.785 26.868C126.801 26.748 126.821 26.628 126.845 26.508C126.941 26.084 127.105 25.712 127.337 25.392C127.569 25.064 127.865 24.812 128.225 24.636C128.585 24.452 128.985 24.36 129.425 24.36C129.905 24.36 130.337 24.476 130.721 24.708C131.105 24.932 131.405 25.248 131.621 25.656C131.845 26.064 131.957 26.544 131.957 27.096C131.957 27.144 131.953 27.196 131.945 27.252C131.945 27.3 131.941 27.348 131.933 27.396H127.169ZM138.996 30L137.928 25.188L138.264 24.06L139.704 30H138.996ZM135.888 29.46L138.264 24.06L138.324 25.404L136.104 30.372L135.888 29.46ZM136.104 30.372L133.92 25.404L133.98 24.06L136.32 29.46L136.104 30.372ZM132.54 30L133.98 24.06L134.316 25.188L133.26 30H132.54ZM144.411 27.24C144.411 27.688 144.507 28.084 144.699 28.428C144.891 28.772 145.151 29.044 145.479 29.244C145.815 29.436 146.191 29.532 146.607 29.532C146.903 29.532 147.179 29.488 147.435 29.4C147.691 29.312 147.911 29.2 148.095 29.064C148.287 28.92 148.423 28.776 148.503 28.632V29.412C148.335 29.612 148.075 29.78 147.723 29.916C147.379 30.052 147.007 30.12 146.607 30.12C146.071 30.12 145.591 29.996 145.167 29.748C144.743 29.5 144.403 29.16 144.147 28.728C143.899 28.288 143.775 27.792 143.775 27.24C143.775 26.68 143.899 26.184 144.147 25.752C144.403 25.32 144.743 24.98 145.167 24.732C145.591 24.484 146.071 24.36 146.607 24.36C147.007 24.36 147.379 24.432 147.723 24.576C148.075 24.712 148.335 24.876 148.503 25.068V25.848C148.423 25.696 148.287 25.552 148.095 25.416C147.911 25.28 147.691 25.168 147.435 25.08C147.179 24.992 146.903 24.948 146.607 24.948C146.191 24.948 145.815 25.048 145.479 25.248C145.151 25.44 144.891 25.708 144.699 26.052C144.507 26.396 144.411 26.792 144.411 27.24ZM149.158 24.48H152.398V25.068H149.158V24.48ZM150.466 24.648H151.09V30H150.466V24.648ZM157.645 25.02L153.421 30.42L153.481 29.46L157.705 24.06L157.645 25.02ZM154.045 24.48V29.532L153.421 30.42V24.48H154.045ZM157.705 24.06V30H157.081V24.948L157.705 24.06ZM164.06 24.48V30H163.436V25.068H160.28V28.08C160.28 28.512 160.22 28.872 160.1 29.16C159.988 29.44 159.82 29.652 159.596 29.796C159.372 29.932 159.1 30 158.78 30V29.424C159.02 29.424 159.224 29.316 159.392 29.1C159.568 28.884 159.656 28.544 159.656 28.08V24.48H164.06ZM165.923 24.48H166.547V30H165.923V24.48ZM166.271 27.12V26.568H167.867C168.435 26.568 168.911 26.708 169.295 26.988C169.687 27.26 169.883 27.692 169.883 28.284C169.883 28.676 169.795 29 169.619 29.256C169.443 29.512 169.203 29.7 168.899 29.82C168.595 29.94 168.251 30 167.867 30H166.271V29.448H167.867C168.147 29.448 168.391 29.408 168.599 29.328C168.807 29.24 168.967 29.112 169.079 28.944C169.199 28.768 169.259 28.548 169.259 28.284C169.259 27.9 169.131 27.612 168.875 27.42C168.627 27.22 168.291 27.12 167.867 27.12H166.271ZM30.276 41.948V41.36C30.82 41.36 31.304 41.484 31.728 41.732C32.16 41.98 32.5 42.32 32.748 42.752C33.004 43.184 33.132 43.68 33.132 44.24C33.132 44.792 33.004 45.288 32.748 45.728C32.5 46.16 32.16 46.5 31.728 46.748C31.304 46.996 30.82 47.12 30.276 47.12C29.74 47.12 29.256 46.988 28.824 46.724C28.392 46.452 28.048 46.048 27.792 45.512C27.544 44.976 27.42 44.312 27.42 43.52L28.092 44.24C28.092 44.688 28.188 45.084 28.38 45.428C28.58 45.772 28.844 46.044 29.172 46.244C29.5 46.436 29.868 46.532 30.276 46.532C30.684 46.532 31.056 46.436 31.392 46.244C31.728 46.044 31.996 45.772 32.196 45.428C32.396 45.084 32.496 44.688 32.496 44.24C32.496 43.792 32.396 43.396 32.196 43.052C32.004 42.7 31.74 42.428 31.404 42.236C31.076 42.044 30.7 41.948 30.276 41.948ZM27.78 44.24C27.78 43.792 27.844 43.392 27.972 43.04C28.108 42.68 28.292 42.376 28.524 42.128C28.756 41.88 29.02 41.692 29.316 41.564C29.62 41.428 29.94 41.36 30.276 41.36V41.948C30.036 41.948 29.784 42 29.52 42.104C29.264 42.208 29.028 42.356 28.812 42.548C28.596 42.74 28.42 42.98 28.284 43.268C28.156 43.548 28.092 43.872 28.092 44.24H27.78ZM27.42 43.52C27.42 42.768 27.492 42.104 27.636 41.528C27.78 40.952 28.036 40.464 28.404 40.064C28.772 39.664 29.276 39.352 29.916 39.128C30.46 38.944 30.864 38.724 31.128 38.468C31.392 38.204 31.552 37.928 31.608 37.64H32.22C32.188 37.936 32.08 38.212 31.896 38.468C31.712 38.716 31.464 38.94 31.152 39.14C30.848 39.332 30.488 39.5 30.072 39.644C29.536 39.828 29.112 40.092 28.8 40.436C28.496 40.78 28.28 41.188 28.152 41.66C28.032 42.124 27.972 42.64 27.972 43.208V44.192L27.42 43.52ZM35.0628 49.64H34.4388V41.48H35.0628V49.64ZM39.7788 44.24C39.7788 44.832 39.6588 45.344 39.4188 45.776C39.1868 46.208 38.8668 46.54 38.4588 46.772C38.0588 47.004 37.6108 47.12 37.1148 47.12C36.6508 47.12 36.2428 46.996 35.8908 46.748C35.5388 46.492 35.2628 46.148 35.0628 45.716C34.8708 45.276 34.7748 44.784 34.7748 44.24C34.7748 43.688 34.8708 43.196 35.0628 42.764C35.2628 42.332 35.5388 41.992 35.8908 41.744C36.2428 41.488 36.6508 41.36 37.1148 41.36C37.6108 41.36 38.0588 41.476 38.4588 41.708C38.8668 41.94 39.1868 42.272 39.4188 42.704C39.6588 43.128 39.7788 43.64 39.7788 44.24ZM39.1548 44.24C39.1548 43.76 39.0588 43.348 38.8668 43.004C38.6748 42.66 38.4188 42.4 38.0988 42.224C37.7788 42.04 37.4228 41.948 37.0308 41.948C36.6948 41.948 36.3748 42.048 36.0708 42.248C35.7668 42.448 35.5228 42.72 35.3388 43.064C35.1548 43.408 35.0628 43.8 35.0628 44.24C35.0628 44.68 35.1548 45.072 35.3388 45.416C35.5228 45.76 35.7668 46.032 36.0708 46.232C36.3748 46.432 36.6948 46.532 37.0308 46.532C37.4228 46.532 37.7788 46.444 38.0988 46.268C38.4188 46.084 38.6748 45.82 38.8668 45.476C39.0588 45.132 39.1548 44.72 39.1548 44.24ZM41.2585 44.396V43.856H45.3625C45.3625 43.48 45.2825 43.148 45.1225 42.86C44.9625 42.564 44.7425 42.332 44.4625 42.164C44.1905 41.996 43.8745 41.912 43.5145 41.912C43.1545 41.912 42.8225 41.996 42.5185 42.164C42.2145 42.332 41.9705 42.576 41.7865 42.896C41.6025 43.208 41.5105 43.58 41.5105 44.012L41.4985 44.228C41.4985 44.692 41.5825 45.1 41.7505 45.452C41.9185 45.796 42.1505 46.064 42.4465 46.256C42.7505 46.44 43.0985 46.532 43.4905 46.532C43.8425 46.532 44.1385 46.48 44.3785 46.376C44.6265 46.264 44.8345 46.124 45.0025 45.956C45.1785 45.78 45.3265 45.592 45.4465 45.392L45.9505 45.716C45.7905 45.964 45.6065 46.196 45.3985 46.412C45.1905 46.62 44.9305 46.792 44.6185 46.928C44.3065 47.056 43.9065 47.12 43.4185 47.12C42.9385 47.12 42.5025 46.996 42.1105 46.748C41.7265 46.5 41.4225 46.156 41.1985 45.716C40.9745 45.276 40.8625 44.78 40.8625 44.228C40.8625 44.1 40.8665 43.98 40.8745 43.868C40.8905 43.748 40.9105 43.628 40.9345 43.508C41.0305 43.084 41.1945 42.712 41.4265 42.392C41.6585 42.064 41.9545 41.812 42.3145 41.636C42.6745 41.452 43.0745 41.36 43.5145 41.36C43.9945 41.36 44.4265 41.476 44.8105 41.708C45.1945 41.932 45.4945 42.248 45.7105 42.656C45.9345 43.064 46.0465 43.544 46.0465 44.096C46.0465 44.144 46.0425 44.196 46.0345 44.252C46.0345 44.3 46.0305 44.348 46.0225 44.396H41.2585ZM47.8423 44.372V43.784H51.8743V44.372H47.8423ZM51.4903 41.48H52.1143V47H51.4903V41.48ZM47.4703 41.48H48.0943V47H47.4703V41.48ZM56.9156 42.428L54.9116 46.736H54.2156L56.9156 41.06L59.6156 46.736H58.9196L56.9156 42.428ZM59.7116 47H54.1556V48.08H53.4956V46.412H60.3356V48.08H59.7116V47ZM61.9229 45.38C61.9229 45.652 61.9869 45.876 62.1149 46.052C62.2429 46.22 62.4109 46.348 62.6189 46.436C62.8349 46.516 63.0629 46.556 63.3029 46.556C63.6389 46.556 63.9389 46.492 64.2029 46.364C64.4749 46.236 64.6869 46.052 64.8389 45.812C64.9909 45.572 65.0669 45.28 65.0669 44.936L65.2109 45.296C65.2109 45.648 65.1189 45.964 64.9349 46.244C64.7589 46.516 64.5149 46.732 64.2029 46.892C63.8989 47.044 63.5509 47.12 63.1589 47.12C62.8309 47.12 62.5229 47.06 62.2349 46.94C61.9549 46.812 61.7269 46.624 61.5509 46.376C61.3749 46.12 61.2869 45.796 61.2869 45.404C61.2869 45.012 61.3869 44.684 61.5869 44.42C61.7869 44.148 62.0589 43.944 62.4029 43.808C62.7469 43.664 63.1349 43.592 63.5669 43.592C63.9029 43.592 64.1869 43.632 64.4189 43.712C64.6589 43.792 64.8509 43.884 64.9949 43.988C65.1469 44.092 65.2549 44.18 65.3189 44.252V44.636C65.0949 44.468 64.8429 44.336 64.5629 44.24C64.2909 44.136 63.9669 44.084 63.5909 44.084C63.2709 44.084 62.9829 44.136 62.7269 44.24C62.4789 44.336 62.2829 44.48 62.1389 44.672C61.9949 44.864 61.9229 45.1 61.9229 45.38ZM62.0789 42.572L61.7669 42.092C61.9749 41.924 62.2429 41.76 62.5709 41.6C62.9069 41.44 63.3109 41.36 63.7829 41.36C64.1829 41.36 64.5229 41.432 64.8029 41.576C65.0909 41.712 65.3109 41.908 65.4629 42.164C65.6149 42.42 65.6909 42.728 65.6909 43.088V47H65.0669V43.088C65.0669 42.712 64.9469 42.424 64.7069 42.224C64.4749 42.016 64.1669 41.912 63.7829 41.912C63.5189 41.912 63.2789 41.948 63.0629 42.02C62.8469 42.084 62.6549 42.168 62.4869 42.272C62.3269 42.376 62.1909 42.476 62.0789 42.572ZM68.6111 45.752L69.2351 45.992L67.9151 48.992L67.4711 48.836L68.6111 45.752ZM74.7878 38.6H75.4478V44.288C75.4478 44.96 75.6238 45.496 75.9758 45.896C76.3278 46.296 76.8278 46.496 77.4758 46.496C78.1238 46.496 78.6238 46.296 78.9758 45.896C79.3278 45.496 79.5038 44.96 79.5038 44.288V38.6H80.1638V44.288C80.1638 44.704 80.1038 45.088 79.9838 45.44C79.8638 45.784 79.6878 46.08 79.4558 46.328C79.2238 46.576 78.9398 46.772 78.6038 46.916C78.2758 47.052 77.8998 47.12 77.4758 47.12C77.0518 47.12 76.6718 47.052 76.3358 46.916C76.0078 46.772 75.7278 46.576 75.4958 46.328C75.2638 46.08 75.0878 45.784 74.9678 45.44C74.8478 45.088 74.7878 44.704 74.7878 44.288V38.6ZM86.3732 38.6H87.1652L84.6812 42.596L87.3452 47H86.5532L84.3452 43.184L82.0772 47H81.2852L84.0092 42.596L81.5852 38.6H82.3772L84.3572 42.02L86.3732 38.6ZM96.2973 42.02L92.0733 47.42L92.1333 46.46L96.3573 41.06L96.2973 42.02ZM92.6973 41.48V46.532L92.0733 47.42V41.48H92.6973ZM96.3573 41.06V47H95.7333V41.948L96.3573 41.06ZM101.954 44.24C101.954 44.688 102.05 45.084 102.242 45.428C102.434 45.772 102.694 46.044 103.022 46.244C103.358 46.436 103.734 46.532 104.15 46.532C104.446 46.532 104.722 46.488 104.978 46.4C105.234 46.312 105.454 46.2 105.638 46.064C105.83 45.92 105.966 45.776 106.046 45.632V46.412C105.878 46.612 105.618 46.78 105.266 46.916C104.922 47.052 104.55 47.12 104.15 47.12C103.614 47.12 103.134 46.996 102.71 46.748C102.286 46.5 101.946 46.16 101.69 45.728C101.442 45.288 101.318 44.792 101.318 44.24C101.318 43.68 101.442 43.184 101.69 42.752C101.946 42.32 102.286 41.98 102.71 41.732C103.134 41.484 103.614 41.36 104.15 41.36C104.55 41.36 104.922 41.432 105.266 41.576C105.618 41.712 105.878 41.876 106.046 42.068V42.848C105.966 42.696 105.83 42.552 105.638 42.416C105.454 42.28 105.234 42.168 104.978 42.08C104.722 41.992 104.446 41.948 104.15 41.948C103.734 41.948 103.358 42.048 103.022 42.248C102.694 42.44 102.434 42.708 102.242 43.052C102.05 43.396 101.954 43.792 101.954 44.24ZM107.109 44.24C107.109 43.68 107.233 43.184 107.481 42.752C107.729 42.32 108.065 41.98 108.489 41.732C108.921 41.484 109.405 41.36 109.941 41.36C110.477 41.36 110.957 41.484 111.381 41.732C111.813 41.98 112.153 42.32 112.401 42.752C112.649 43.184 112.773 43.68 112.773 44.24C112.773 44.792 112.649 45.288 112.401 45.728C112.153 46.16 111.813 46.5 111.381 46.748C110.957 46.996 110.477 47.12 109.941 47.12C109.405 47.12 108.921 46.996 108.489 46.748C108.065 46.5 107.729 46.16 107.481 45.728C107.233 45.288 107.109 44.792 107.109 44.24ZM107.745 44.24C107.745 44.688 107.841 45.084 108.033 45.428C108.225 45.772 108.485 46.044 108.813 46.244C109.149 46.436 109.525 46.532 109.941 46.532C110.357 46.532 110.729 46.436 111.057 46.244C111.393 46.044 111.657 45.772 111.849 45.428C112.041 45.084 112.137 44.688 112.137 44.24C112.137 43.8 112.041 43.408 111.849 43.064C111.657 42.712 111.393 42.44 111.057 42.248C110.729 42.048 110.357 41.948 109.941 41.948C109.525 41.948 109.149 42.048 108.813 42.248C108.485 42.44 108.225 42.708 108.033 43.052C107.841 43.396 107.745 43.792 107.745 44.24ZM114.451 44.168H116.047C116.431 44.168 116.775 44.204 117.079 44.276C117.383 44.348 117.623 44.48 117.799 44.672C117.975 44.864 118.063 45.14 118.063 45.5C118.063 45.916 117.923 46.272 117.643 46.568C117.371 46.856 116.919 47 116.287 47H114.451V46.448H116.143C116.599 46.448 116.927 46.348 117.127 46.148C117.335 45.948 117.439 45.708 117.439 45.428C117.439 45.244 117.399 45.096 117.319 44.984C117.247 44.864 117.147 44.768 117.019 44.696C116.891 44.624 116.743 44.572 116.575 44.54C116.407 44.508 116.231 44.492 116.047 44.492H114.451V44.168ZM114.451 44.312V43.952H115.927C116.071 43.952 116.219 43.936 116.371 43.904C116.523 43.872 116.659 43.816 116.779 43.736C116.907 43.656 117.007 43.56 117.079 43.448C117.159 43.328 117.199 43.184 117.199 43.016C117.199 42.696 117.079 42.452 116.839 42.284C116.607 42.116 116.303 42.032 115.927 42.032H114.451V41.48H115.927C116.271 41.48 116.583 41.532 116.863 41.636C117.151 41.732 117.383 41.892 117.559 42.116C117.735 42.332 117.823 42.62 117.823 42.98C117.823 43.292 117.735 43.548 117.559 43.748C117.383 43.94 117.151 44.084 116.863 44.18C116.583 44.268 116.271 44.312 115.927 44.312H114.451ZM114.091 41.48H114.715V47H114.091V41.48ZM119.93 49.64H119.306V41.48H119.93V49.64ZM124.646 44.24C124.646 44.832 124.526 45.344 124.286 45.776C124.054 46.208 123.734 46.54 123.326 46.772C122.926 47.004 122.478 47.12 121.982 47.12C121.518 47.12 121.11 46.996 120.758 46.748C120.406 46.492 120.13 46.148 119.93 45.716C119.738 45.276 119.642 44.784 119.642 44.24C119.642 43.688 119.738 43.196 119.93 42.764C120.13 42.332 120.406 41.992 120.758 41.744C121.11 41.488 121.518 41.36 121.982 41.36C122.478 41.36 122.926 41.476 123.326 41.708C123.734 41.94 124.054 42.272 124.286 42.704C124.526 43.128 124.646 43.64 124.646 44.24ZM124.022 44.24C124.022 43.76 123.926 43.348 123.734 43.004C123.542 42.66 123.286 42.4 122.966 42.224C122.646 42.04 122.29 41.948 121.898 41.948C121.562 41.948 121.242 42.048 120.938 42.248C120.634 42.448 120.39 42.72 120.206 43.064C120.022 43.408 119.93 43.8 119.93 44.24C119.93 44.68 120.022 45.072 120.206 45.416C120.39 45.76 120.634 46.032 120.938 46.232C121.242 46.432 121.562 46.532 121.898 46.532C122.29 46.532 122.646 46.444 122.966 46.268C123.286 46.084 123.542 45.82 123.734 45.476C123.926 45.132 124.022 44.72 124.022 44.24ZM126.126 44.396V43.856H130.23C130.23 43.48 130.15 43.148 129.99 42.86C129.83 42.564 129.61 42.332 129.33 42.164C129.058 41.996 128.742 41.912 128.382 41.912C128.022 41.912 127.69 41.996 127.386 42.164C127.082 42.332 126.838 42.576 126.654 42.896C126.47 43.208 126.378 43.58 126.378 44.012L126.366 44.228C126.366 44.692 126.45 45.1 126.618 45.452C126.786 45.796 127.018 46.064 127.314 46.256C127.618 46.44 127.966 46.532 128.358 46.532C128.71 46.532 129.006 46.48 129.246 46.376C129.494 46.264 129.702 46.124 129.87 45.956C130.046 45.78 130.194 45.592 130.314 45.392L130.818 45.716C130.658 45.964 130.474 46.196 130.266 46.412C130.058 46.62 129.798 46.792 129.486 46.928C129.174 47.056 128.774 47.12 128.286 47.12C127.806 47.12 127.37 46.996 126.978 46.748C126.594 46.5 126.29 46.156 126.066 45.716C125.842 45.276 125.73 44.78 125.73 44.228C125.73 44.1 125.734 43.98 125.742 43.868C125.758 43.748 125.778 43.628 125.802 43.508C125.898 43.084 126.062 42.712 126.294 42.392C126.526 42.064 126.822 41.812 127.182 41.636C127.542 41.452 127.942 41.36 128.382 41.36C128.862 41.36 129.294 41.476 129.678 41.708C130.062 41.932 130.362 42.248 130.578 42.656C130.802 43.064 130.914 43.544 130.914 44.096C130.914 44.144 130.91 44.196 130.902 44.252C130.902 44.3 130.898 44.348 130.89 44.396H126.126ZM137.954 47L136.886 42.188L137.222 41.06L138.662 47H137.954ZM134.846 46.46L137.222 41.06L137.282 42.404L135.062 47.372L134.846 46.46ZM135.062 47.372L132.878 42.404L132.938 41.06L135.278 46.46L135.062 47.372ZM131.498 47L132.938 41.06L133.274 42.188L132.218 47H131.498ZM139.591 44.396V43.856H143.695C143.695 43.48 143.615 43.148 143.455 42.86C143.295 42.564 143.075 42.332 142.795 42.164C142.523 41.996 142.207 41.912 141.847 41.912C141.487 41.912 141.155 41.996 140.851 42.164C140.547 42.332 140.303 42.576 140.119 42.896C139.935 43.208 139.843 43.58 139.843 44.012L139.831 44.228C139.831 44.692 139.915 45.1 140.083 45.452C140.251 45.796 140.483 46.064 140.779 46.256C141.083 46.44 141.431 46.532 141.823 46.532C142.175 46.532 142.471 46.48 142.711 46.376C142.959 46.264 143.167 46.124 143.335 45.956C143.511 45.78 143.659 45.592 143.779 45.392L144.283 45.716C144.123 45.964 143.939 46.196 143.731 46.412C143.523 46.62 143.263 46.792 142.951 46.928C142.639 47.056 142.239 47.12 141.751 47.12C141.271 47.12 140.835 46.996 140.443 46.748C140.059 46.5 139.755 46.156 139.531 45.716C139.307 45.276 139.195 44.78 139.195 44.228C139.195 44.1 139.199 43.98 139.207 43.868C139.223 43.748 139.243 43.628 139.267 43.508C139.363 43.084 139.527 42.712 139.759 42.392C139.991 42.064 140.287 41.812 140.647 41.636C141.007 41.452 141.407 41.36 141.847 41.36C142.327 41.36 142.759 41.476 143.143 41.708C143.527 41.932 143.827 42.248 144.043 42.656C144.267 43.064 144.379 43.544 144.379 44.096C144.379 44.144 144.375 44.196 144.367 44.252C144.367 44.3 144.363 44.348 144.355 44.396H139.591ZM146.174 44.372V43.784H150.206V44.372H146.174ZM149.822 41.48H150.446V47H149.822V41.48ZM145.802 41.48H146.426V47H145.802V41.48ZM152.62 44.372V43.784H156.652V44.372H152.62ZM156.268 41.48H156.892V47H156.268V41.48ZM152.248 41.48H152.872V47H152.248V41.48ZM163.553 41.48H164.177V47H163.553V41.48ZM158.693 41.48H159.317V47H158.693V41.48ZM159.041 44.12V43.568H160.637C161.205 43.568 161.681 43.708 162.065 43.988C162.457 44.26 162.653 44.692 162.653 45.284C162.653 45.676 162.565 46 162.389 46.256C162.213 46.512 161.973 46.7 161.669 46.82C161.365 46.94 161.021 47 160.637 47H159.041V46.448H160.637C160.917 46.448 161.161 46.408 161.369 46.328C161.577 46.24 161.737 46.112 161.849 45.944C161.969 45.768 162.029 45.548 162.029 45.284C162.029 44.9 161.901 44.612 161.645 44.42C161.397 44.22 161.061 44.12 160.637 44.12H159.041ZM165.946 44.396V43.856H170.05C170.05 43.48 169.97 43.148 169.81 42.86C169.65 42.564 169.43 42.332 169.15 42.164C168.878 41.996 168.562 41.912 168.202 41.912C167.842 41.912 167.51 41.996 167.206 42.164C166.902 42.332 166.658 42.576 166.474 42.896C166.29 43.208 166.198 43.58 166.198 44.012L166.186 44.228C166.186 44.692 166.27 45.1 166.438 45.452C166.606 45.796 166.838 46.064 167.134 46.256C167.438 46.44 167.786 46.532 168.178 46.532C168.53 46.532 168.826 46.48 169.066 46.376C169.314 46.264 169.522 46.124 169.69 45.956C169.866 45.78 170.014 45.592 170.134 45.392L170.638 45.716C170.478 45.964 170.294 46.196 170.086 46.412C169.878 46.62 169.618 46.792 169.306 46.928C168.994 47.056 168.594 47.12 168.106 47.12C167.626 47.12 167.19 46.996 166.798 46.748C166.414 46.5 166.11 46.156 165.886 45.716C165.662 45.276 165.55 44.78 165.55 44.228C165.55 44.1 165.554 43.98 165.562 43.868C165.578 43.748 165.598 43.628 165.622 43.508C165.718 43.084 165.882 42.712 166.114 42.392C166.346 42.064 166.642 41.812 167.002 41.636C167.362 41.452 167.762 41.36 168.202 41.36C168.682 41.36 169.114 41.476 169.498 41.708C169.882 41.932 170.182 42.248 170.398 42.656C170.622 43.064 170.734 43.544 170.734 44.096C170.734 44.144 170.73 44.196 170.722 44.252C170.722 44.3 170.718 44.348 170.71 44.396H165.946ZM27.06 58.48H30.3V59.068H27.06V58.48ZM28.368 58.648H28.992V64H28.368V58.648ZM31.8753 66.64H31.2513V58.48H31.8753V66.64ZM36.5913 61.24C36.5913 61.832 36.4713 62.344 36.2313 62.776C35.9993 63.208 35.6793 63.54 35.2713 63.772C34.8713 64.004 34.4233 64.12 33.9273 64.12C33.4633 64.12 33.0553 63.996 32.7033 63.748C32.3513 63.492 32.0753 63.148 31.8753 62.716C31.6833 62.276 31.5873 61.784 31.5873 61.24C31.5873 60.688 31.6833 60.196 31.8753 59.764C32.0753 59.332 32.3513 58.992 32.7033 58.744C33.0553 58.488 33.4633 58.36 33.9273 58.36C34.4233 58.36 34.8713 58.476 35.2713 58.708C35.6793 58.94 35.9993 59.272 36.2313 59.704C36.4713 60.128 36.5913 60.64 36.5913 61.24ZM35.9673 61.24C35.9673 60.76 35.8713 60.348 35.6793 60.004C35.4873 59.66 35.2313 59.4 34.9113 59.224C34.5913 59.04 34.2353 58.948 33.8433 58.948C33.5073 58.948 33.1873 59.048 32.8833 59.248C32.5793 59.448 32.3353 59.72 32.1513 60.064C31.9673 60.408 31.8753 60.8 31.8753 61.24C31.8753 61.68 31.9673 62.072 32.1513 62.416C32.3353 62.76 32.5793 63.032 32.8833 63.232C33.1873 63.432 33.5073 63.532 33.8433 63.532C34.2353 63.532 34.5913 63.444 34.9113 63.268C35.2313 63.084 35.4873 62.82 35.6793 62.476C35.8713 62.132 35.9673 61.72 35.9673 61.24ZM38.071 61.396V60.856H42.175C42.175 60.48 42.095 60.148 41.935 59.86C41.775 59.564 41.555 59.332 41.275 59.164C41.003 58.996 40.687 58.912 40.327 58.912C39.967 58.912 39.635 58.996 39.331 59.164C39.027 59.332 38.783 59.576 38.599 59.896C38.415 60.208 38.323 60.58 38.323 61.012L38.311 61.228C38.311 61.692 38.395 62.1 38.563 62.452C38.731 62.796 38.963 63.064 39.259 63.256C39.563 63.44 39.911 63.532 40.303 63.532C40.655 63.532 40.951 63.48 41.191 63.376C41.439 63.264 41.647 63.124 41.815 62.956C41.991 62.78 42.139 62.592 42.259 62.392L42.763 62.716C42.603 62.964 42.419 63.196 42.211 63.412C42.003 63.62 41.743 63.792 41.431 63.928C41.119 64.056 40.719 64.12 40.231 64.12C39.751 64.12 39.315 63.996 38.923 63.748C38.539 63.5 38.235 63.156 38.011 62.716C37.787 62.276 37.675 61.78 37.675 61.228C37.675 61.1 37.679 60.98 37.687 60.868C37.703 60.748 37.723 60.628 37.747 60.508C37.843 60.084 38.007 59.712 38.239 59.392C38.471 59.064 38.767 58.812 39.127 58.636C39.487 58.452 39.887 58.36 40.327 58.36C40.807 58.36 41.239 58.476 41.623 58.708C42.007 58.932 42.307 59.248 42.523 59.656C42.747 60.064 42.859 60.544 42.859 61.096C42.859 61.144 42.855 61.196 42.847 61.252C42.847 61.3 42.843 61.348 42.835 61.396H38.071ZM44.6548 61.372V60.784H48.6868V61.372H44.6548ZM48.3028 58.48H48.9268V64H48.3028V58.48ZM44.2828 58.48H44.9068V64H44.2828V58.48ZM53.7281 59.428L51.7241 63.736H51.0281L53.7281 58.06L56.4281 63.736H55.7321L53.7281 59.428ZM56.5241 64H50.9681V65.08H50.3081V63.412H57.1481V65.08H56.5241V64ZM63.4514 58.48H64.0754V64H63.4514V58.48ZM58.5914 58.48H59.2154V64H58.5914V58.48ZM58.9394 61.12V60.568H60.5354C61.1034 60.568 61.5794 60.708 61.9634 60.988C62.3554 61.26 62.5514 61.692 62.5514 62.284C62.5514 62.676 62.4634 63 62.2874 63.256C62.1114 63.512 61.8714 63.7 61.5674 63.82C61.2634 63.94 60.9194 64 60.5354 64H58.9394V63.448H60.5354C60.8154 63.448 61.0594 63.408 61.2674 63.328C61.4754 63.24 61.6354 63.112 61.7474 62.944C61.8674 62.768 61.9274 62.548 61.9274 62.284C61.9274 61.9 61.7994 61.612 61.5434 61.42C61.2954 61.22 60.9594 61.12 60.5354 61.12H58.9394ZM66.2405 63.712C66.2405 63.584 66.2845 63.476 66.3725 63.388C66.4605 63.3 66.5645 63.256 66.6845 63.256C66.8125 63.256 66.9165 63.3 66.9965 63.388C67.0845 63.476 67.1285 63.584 67.1285 63.712C67.1285 63.832 67.0845 63.936 66.9965 64.024C66.9165 64.112 66.8125 64.156 66.6845 64.156C66.5645 64.156 66.4605 64.112 66.3725 64.024C66.2845 63.936 66.2405 63.832 66.2405 63.712Z" fill="white"/>
<circle cx="150" cy="325" r="149.5" stroke="#FF3100"/>
<g filter="url(#filter0_d_839_16)">
<line x1="33.4668" y1="34.821" x2="199.226" y2="467.049" stroke="white" stroke-opacity="0.26" stroke-dasharray="9 9" shape-rendering="crispEdges"/>
</g>
<line x1="102.471" y1="343.927" x2="171.559" y2="262.221" stroke="white" stroke-opacity="0.24"/>
<line x1="177.927" y1="338.322" x2="96.2208" y2="269.235" stroke="white" stroke-opacity="0.13"/>
<defs>
<filter id="filter0_d_839_16" x="29" y="34.6421" width="174.692" height="440.586" filterUnits="userSpaceOnUse" color-interpolation-filters="sRGB">
<feFlood flood-opacity="0" result="BackgroundImageFix"/>
<feColorMatrix in="SourceAlpha" type="matrix" values="0 0 0 0 0 0 0 0 0 0 0 0 0 0 0 0 0 0 127 0" result="hardAlpha"/>
<feOffset dy="4"/>
<feGaussianBlur stdDeviation="2"/>
<feComposite in2="hardAlpha" operator="out"/>
<feColorMatrix type="matrix" values="0 0 0 0 0 0 0 0 0 0 0 0 0 0 0 0 0 0 0.25 0"/>
<feBlend mode="normal" in2="BackgroundImageFix" result="effect1_dropShadow_839_16"/>
<feBlend mode="normal" in="SourceGraphic" in2="effect1_dropShadow_839_16" result="shape"/>
</filter>
</defs>
</svg>
