<svg width="316" height="480" viewBox="0 0 316 480" fill="none" xmlns="http://www.w3.org/2000/svg">
<path d="M40.1023 284.372L17.7103 306.26L17.8903 300.428L40.2823 278.54L40.1023 284.372ZM21.8863 279.8V301.508L17.7103 306.26V279.8H21.8863ZM40.2823 278.54V305H36.1063V283.4L40.2823 278.54ZM47.2385 297.872V294.668H59.9105V297.872H47.2385ZM57.8225 288.44H61.6385V305H57.8225V288.44ZM45.5465 288.44H49.3625V305H45.5465V288.44ZM76.1811 294.02L71.6811 303.92L67.6491 303.488L76.1811 287.18L84.7131 303.488L80.6811 303.92L76.1811 294.02ZM83.0211 305H69.5211V308.24H65.5611V301.688H86.8011V308.24H83.0211V305ZM105.91 292.04L91.0421 306.26L91.2221 301.4L106.09 287.18L105.91 292.04ZM94.8581 288.44V301.868L91.0421 306.26V288.44H94.8581ZM106.09 287.18V305H102.274V291.572L106.09 287.18ZM113.702 296.36H118.958C120.11 296.36 121.142 296.48 122.054 296.72C122.966 296.96 123.686 297.38 124.214 297.98C124.742 298.58 125.006 299.42 125.006 300.5C125.006 301.748 124.586 302.816 123.746 303.704C122.93 304.568 121.574 305 119.678 305H113.702V302.12H118.49C119.45 302.12 120.146 301.916 120.578 301.508C121.01 301.1 121.226 300.62 121.226 300.068C121.226 299.78 121.166 299.516 121.046 299.276C120.926 299.036 120.758 298.82 120.542 298.628C120.35 298.436 120.074 298.292 119.714 298.196C119.378 298.1 118.97 298.052 118.49 298.052H113.702V296.36ZM113.702 297.08V295.208H118.13C118.49 295.208 118.814 295.16 119.102 295.064C119.414 294.968 119.666 294.824 119.858 294.632C120.05 294.44 120.206 294.224 120.326 293.984C120.446 293.744 120.506 293.492 120.506 293.228C120.506 292.676 120.29 292.22 119.858 291.86C119.45 291.5 118.874 291.32 118.13 291.32H113.702V288.44H118.598C119.63 288.44 120.566 288.596 121.406 288.908C122.27 289.196 122.966 289.676 123.494 290.348C124.022 290.996 124.286 291.86 124.286 292.94C124.286 293.876 124.022 294.656 123.494 295.28C122.966 295.88 122.27 296.336 121.406 296.648C120.566 296.936 119.63 297.08 118.598 297.08H113.702ZM111.434 288.44H115.25V305H111.434V288.44ZM143.598 292.04L128.73 306.26L128.91 301.4L143.778 287.18L143.598 292.04ZM132.546 288.44V301.868L128.73 306.26V288.44H132.546ZM143.778 287.18V305H139.962V291.572L143.778 287.18ZM158.482 294.02L153.982 303.92L149.95 303.488L158.482 287.18L167.014 303.488L162.982 303.92L158.482 294.02ZM165.322 305H151.822V308.24H147.862V301.688H169.102V308.24H165.322V305ZM187.675 288.44L176.875 312.92H172.735L177.055 303.056L170.395 288.44H174.859L180.151 301.544L178.315 301.436L183.499 288.44H187.675ZM192.452 300.104C192.452 300.608 192.584 301.028 192.848 301.364C193.136 301.7 193.508 301.964 193.964 302.156C194.42 302.324 194.936 302.408 195.512 302.408C196.352 302.408 197.108 302.276 197.78 302.012C198.452 301.748 198.98 301.328 199.364 300.752C199.748 300.176 199.94 299.408 199.94 298.448L200.516 300.32C200.516 301.376 200.24 302.288 199.688 303.056C199.136 303.8 198.392 304.376 197.456 304.784C196.52 305.168 195.476 305.36 194.324 305.36C193.244 305.36 192.26 305.168 191.372 304.784C190.508 304.4 189.812 303.836 189.284 303.092C188.78 302.324 188.528 301.376 188.528 300.248C188.528 299.12 188.816 298.148 189.392 297.332C189.968 296.516 190.784 295.892 191.84 295.46C192.92 295.028 194.18 294.812 195.62 294.812C196.58 294.812 197.432 294.932 198.176 295.172C198.944 295.412 199.58 295.688 200.084 296C200.588 296.312 200.936 296.588 201.128 296.828V298.88C200.384 298.328 199.628 297.932 198.86 297.692C198.092 297.428 197.204 297.296 196.196 297.296C195.38 297.296 194.684 297.416 194.108 297.656C193.556 297.872 193.136 298.196 192.848 298.628C192.584 299.036 192.452 299.528 192.452 300.104ZM191.588 292.796L190.04 290.024C190.784 289.568 191.732 289.124 192.884 288.692C194.036 288.26 195.356 288.044 196.844 288.044C198.212 288.044 199.412 288.248 200.444 288.656C201.476 289.064 202.28 289.652 202.856 290.42C203.456 291.164 203.756 292.088 203.756 293.192V305H199.94V293.624C199.94 292.856 199.616 292.268 198.968 291.86C198.344 291.428 197.576 291.212 196.664 291.212C195.872 291.212 195.14 291.308 194.468 291.5C193.796 291.692 193.208 291.92 192.704 292.184C192.224 292.424 191.852 292.628 191.588 292.796ZM223.98 288.44V305H220.164V292.04H212.64V299.24C212.64 300.536 212.424 301.616 211.992 302.48C211.56 303.32 210.864 303.956 209.904 304.388C208.968 304.796 207.732 305 206.196 305V301.472C206.916 301.472 207.528 301.28 208.032 300.896C208.56 300.512 208.824 299.78 208.824 298.7V288.44H223.98ZM229.415 288.44H233.339V305H229.415V288.44ZM232.151 297.368V294.452H237.299C239.003 294.452 240.431 294.872 241.583 295.712C242.759 296.528 243.347 297.824 243.347 299.6C243.347 300.776 243.083 301.772 242.555 302.588C242.027 303.38 241.307 303.98 240.395 304.388C239.483 304.796 238.451 305 237.299 305H232.151V301.796H236.903C237.479 301.796 237.959 301.712 238.343 301.544C238.751 301.376 239.051 301.124 239.243 300.788C239.459 300.452 239.567 300.056 239.567 299.6C239.567 298.88 239.339 298.328 238.883 297.944C238.451 297.56 237.791 297.368 236.903 297.368H232.151ZM249.317 297.872V294.668H261.989V297.872H249.317ZM259.901 288.44H263.717V305H259.901V288.44ZM247.625 288.44H251.441V305H247.625V288.44ZM267.423 296.72C267.423 295.016 267.807 293.516 268.575 292.22C269.367 290.924 270.435 289.916 271.779 289.196C273.123 288.452 274.647 288.08 276.351 288.08C278.055 288.08 279.567 288.452 280.887 289.196C282.231 289.916 283.299 290.924 284.091 292.22C284.883 293.516 285.279 295.016 285.279 296.72C285.279 298.4 284.883 299.9 284.091 301.22C283.299 302.516 282.231 303.536 280.887 304.28C279.567 305 278.055 305.36 276.351 305.36C274.647 305.36 273.123 305 271.779 304.28C270.435 303.536 269.367 302.516 268.575 301.22C267.807 299.9 267.423 298.4 267.423 296.72ZM271.419 296.72C271.419 297.752 271.635 298.664 272.067 299.456C272.499 300.224 273.087 300.836 273.831 301.292C274.575 301.724 275.415 301.94 276.351 301.94C277.263 301.94 278.091 301.724 278.835 301.292C279.603 300.836 280.203 300.224 280.635 299.456C281.067 298.664 281.283 297.752 281.283 296.72C281.283 295.688 281.067 294.776 280.635 293.984C280.203 293.192 279.603 292.58 278.835 292.148C278.091 291.716 277.263 291.5 276.351 291.5C275.415 291.5 274.575 291.716 273.831 292.148C273.087 292.58 272.499 293.192 272.067 293.984C271.635 294.776 271.419 295.688 271.419 296.72ZM290.012 297.62V294.956H300.416C300.32 294.164 300.104 293.48 299.768 292.904C299.456 292.304 299.012 291.848 298.436 291.536C297.86 291.2 297.152 291.032 296.312 291.032C295.448 291.032 294.668 291.224 293.972 291.608C293.276 291.968 292.724 292.508 292.316 293.228C291.908 293.924 291.704 294.752 291.704 295.712L291.632 296.72C291.632 297.944 291.824 298.964 292.208 299.78C292.616 300.572 293.168 301.172 293.864 301.58C294.584 301.964 295.412 302.156 296.348 302.156C297.116 302.156 297.788 302.048 298.364 301.832C298.964 301.616 299.492 301.316 299.948 300.932C300.404 300.524 300.788 300.056 301.1 299.528L304.448 300.896C303.896 301.784 303.26 302.564 302.54 303.236C301.844 303.908 300.98 304.436 299.948 304.82C298.94 305.18 297.68 305.36 296.168 305.36C294.464 305.36 292.976 304.988 291.704 304.244C290.432 303.5 289.448 302.48 288.752 301.184C288.056 299.864 287.708 298.376 287.708 296.72C287.708 296.408 287.72 296.108 287.744 295.82C287.768 295.532 287.804 295.244 287.852 294.956C288.092 293.588 288.572 292.388 289.292 291.356C290.036 290.324 291.008 289.52 292.208 288.944C293.408 288.368 294.788 288.08 296.348 288.08C298.052 288.08 299.516 288.428 300.74 289.124C301.988 289.796 302.948 290.768 303.62 292.04C304.292 293.288 304.628 294.788 304.628 296.54C304.628 296.684 304.628 296.852 304.628 297.044C304.628 297.212 304.604 297.404 304.556 297.62H290.012ZM86.4163 364.92H82.4923V340.44H86.4163V364.92ZM100.132 348.72C100.132 350.544 99.7603 352.116 99.0163 353.436C98.2723 354.732 97.2883 355.728 96.0643 356.424C94.8403 357.096 93.5083 357.432 92.0683 357.432C90.6523 357.432 89.4163 357.084 88.3603 356.388C87.3283 355.668 86.5243 354.66 85.9483 353.364C85.3963 352.044 85.1203 350.496 85.1203 348.72C85.1203 346.92 85.3963 345.372 85.9483 344.076C86.5243 342.78 87.3283 341.784 88.3603 341.088C89.4163 340.368 90.6523 340.008 92.0683 340.008C93.5083 340.008 94.8403 340.356 96.0643 341.052C97.2883 341.724 98.2723 342.708 99.0163 344.004C99.7603 345.3 100.132 346.872 100.132 348.72ZM96.1003 348.72C96.1003 347.616 95.8723 346.68 95.4163 345.912C94.9603 345.12 94.3483 344.532 93.5803 344.148C92.8363 343.74 92.0083 343.536 91.0963 343.536C90.3523 343.536 89.6203 343.74 88.9003 344.148C88.1803 344.532 87.5803 345.108 87.1003 345.876C86.6443 346.644 86.4163 347.592 86.4163 348.72C86.4163 349.848 86.6443 350.796 87.1003 351.564C87.5803 352.332 88.1803 352.92 88.9003 353.328C89.6203 353.712 90.3523 353.904 91.0963 353.904C92.0083 353.904 92.8363 353.712 93.5803 353.328C94.3483 352.92 94.9603 352.332 95.4163 351.564C95.8723 350.772 96.1003 349.824 96.1003 348.72ZM104.88 349.62V346.956H115.284C115.188 346.164 114.972 345.48 114.636 344.904C114.324 344.304 113.88 343.848 113.304 343.536C112.728 343.2 112.02 343.032 111.18 343.032C110.316 343.032 109.536 343.224 108.84 343.608C108.144 343.968 107.592 344.508 107.184 345.228C106.776 345.924 106.572 346.752 106.572 347.712L106.5 348.72C106.5 349.944 106.692 350.964 107.076 351.78C107.484 352.572 108.036 353.172 108.732 353.58C109.452 353.964 110.28 354.156 111.216 354.156C111.984 354.156 112.656 354.048 113.232 353.832C113.832 353.616 114.36 353.316 114.816 352.932C115.272 352.524 115.656 352.056 115.968 351.528L119.316 352.896C118.764 353.784 118.128 354.564 117.408 355.236C116.712 355.908 115.848 356.436 114.816 356.82C113.808 357.18 112.548 357.36 111.036 357.36C109.332 357.36 107.844 356.988 106.572 356.244C105.3 355.5 104.316 354.48 103.62 353.184C102.924 351.864 102.576 350.376 102.576 348.72C102.576 348.408 102.588 348.108 102.612 347.82C102.636 347.532 102.672 347.244 102.72 346.956C102.96 345.588 103.44 344.388 104.16 343.356C104.904 342.324 105.876 341.52 107.076 340.944C108.276 340.368 109.656 340.08 111.216 340.08C112.92 340.08 114.384 340.428 115.608 341.124C116.856 341.796 117.816 342.768 118.488 344.04C119.16 345.288 119.496 346.788 119.496 348.54C119.496 348.684 119.496 348.852 119.496 349.044C119.496 349.212 119.472 349.404 119.424 349.62H104.88ZM137.102 353.58H143.366V340.44H147.182V357H123.242V340.44H127.058V353.58H133.286V340.44H137.102V353.58ZM153.184 349.62V346.956H163.588C163.492 346.164 163.276 345.48 162.94 344.904C162.628 344.304 162.184 343.848 161.608 343.536C161.032 343.2 160.324 343.032 159.484 343.032C158.62 343.032 157.84 343.224 157.144 343.608C156.448 343.968 155.896 344.508 155.488 345.228C155.08 345.924 154.876 346.752 154.876 347.712L154.804 348.72C154.804 349.944 154.996 350.964 155.38 351.78C155.788 352.572 156.34 353.172 157.036 353.58C157.756 353.964 158.584 354.156 159.52 354.156C160.288 354.156 160.96 354.048 161.536 353.832C162.136 353.616 162.664 353.316 163.12 352.932C163.576 352.524 163.96 352.056 164.272 351.528L167.62 352.896C167.068 353.784 166.432 354.564 165.712 355.236C165.016 355.908 164.152 356.436 163.12 356.82C162.112 357.18 160.852 357.36 159.34 357.36C157.636 357.36 156.148 356.988 154.876 356.244C153.604 355.5 152.62 354.48 151.924 353.184C151.228 351.864 150.88 350.376 150.88 348.72C150.88 348.408 150.892 348.108 150.916 347.82C150.94 347.532 150.976 347.244 151.024 346.956C151.264 345.588 151.744 344.388 152.464 343.356C153.208 342.324 154.18 341.52 155.38 340.944C156.58 340.368 157.96 340.08 159.52 340.08C161.224 340.08 162.688 340.428 163.912 341.124C165.16 341.796 166.12 342.768 166.792 344.04C167.464 345.288 167.8 346.788 167.8 348.54C167.8 348.684 167.8 348.852 167.8 349.044C167.8 349.212 167.776 349.404 167.728 349.62H153.184ZM173.239 349.872V346.668H185.911V349.872H173.239ZM183.823 340.44H187.639V357H183.823V340.44ZM171.547 340.44H175.363V357H171.547V340.44ZM207.617 344.04L192.749 358.26L192.929 353.4L207.797 339.18L207.617 344.04ZM196.565 340.44V353.868L192.749 358.26V340.44H196.565ZM207.797 339.18V357H203.981V343.572L207.797 339.18ZM213.969 349.62V346.956H224.373C224.277 346.164 224.061 345.48 223.725 344.904C223.413 344.304 222.969 343.848 222.393 343.536C221.817 343.2 221.109 343.032 220.269 343.032C219.405 343.032 218.625 343.224 217.929 343.608C217.233 343.968 216.681 344.508 216.273 345.228C215.865 345.924 215.661 346.752 215.661 347.712L215.589 348.72C215.589 349.944 215.781 350.964 216.165 351.78C216.573 352.572 217.125 353.172 217.821 353.58C218.541 353.964 219.369 354.156 220.305 354.156C221.073 354.156 221.745 354.048 222.321 353.832C222.921 353.616 223.449 353.316 223.905 352.932C224.361 352.524 224.745 352.056 225.057 351.528L228.405 352.896C227.853 353.784 227.217 354.564 226.497 355.236C225.801 355.908 224.937 356.436 223.905 356.82C222.897 357.18 221.637 357.36 220.125 357.36C218.421 357.36 216.933 356.988 215.661 356.244C214.389 355.5 213.405 354.48 212.709 353.184C212.013 351.864 211.665 350.376 211.665 348.72C211.665 348.408 211.677 348.108 211.701 347.82C211.725 347.532 211.761 347.244 211.809 346.956C212.049 345.588 212.529 344.388 213.249 343.356C213.993 342.324 214.965 341.52 216.165 340.944C217.365 340.368 218.745 340.08 220.305 340.08C222.009 340.08 223.473 340.428 224.697 341.124C225.945 341.796 226.905 342.768 227.577 344.04C228.249 345.288 228.585 346.788 228.585 348.54C228.585 348.684 228.585 348.852 228.585 349.044C228.585 349.212 228.561 349.404 228.513 349.62H213.969Z" fill="white"/>
<path d="M144.175 4.6H145.195V13H144.175V4.6ZM144.739 5.56V4.6H146.455C146.999 4.6 147.483 4.704 147.907 4.912C148.339 5.112 148.679 5.4 148.927 5.776C149.183 6.152 149.311 6.6 149.311 7.12C149.311 7.632 149.183 8.08 148.927 8.464C148.679 8.84 148.339 9.132 147.907 9.34C147.483 9.54 146.999 9.64 146.455 9.64H144.739V8.68H146.455C146.999 8.68 147.439 8.548 147.775 8.284C148.119 8.02 148.291 7.632 148.291 7.12C148.291 6.6 148.119 6.212 147.775 5.956C147.439 5.692 146.999 5.56 146.455 5.56H144.739ZM150.758 11.38C150.758 11.572 150.81 11.736 150.914 11.872C151.018 12 151.158 12.1 151.334 12.172C151.51 12.236 151.706 12.268 151.922 12.268C152.242 12.268 152.526 12.22 152.774 12.124C153.022 12.028 153.214 11.876 153.35 11.668C153.494 11.46 153.566 11.184 153.566 10.84L153.758 11.44C153.758 11.792 153.662 12.096 153.47 12.352C153.286 12.6 153.038 12.792 152.726 12.928C152.414 13.056 152.066 13.12 151.682 13.12C151.338 13.12 151.022 13.056 150.734 12.928C150.446 12.8 150.214 12.612 150.038 12.364C149.87 12.108 149.786 11.792 149.786 11.416C149.786 11.024 149.882 10.692 150.074 10.42C150.266 10.148 150.538 9.94 150.89 9.796C151.242 9.644 151.658 9.568 152.138 9.568C152.49 9.568 152.79 9.616 153.038 9.712C153.294 9.8 153.498 9.904 153.65 10.024C153.802 10.136 153.906 10.228 153.962 10.3V10.864C153.69 10.672 153.414 10.532 153.134 10.444C152.854 10.348 152.538 10.3 152.186 10.3C151.866 10.3 151.598 10.344 151.382 10.432C151.174 10.52 151.018 10.644 150.914 10.804C150.81 10.964 150.758 11.156 150.758 11.38ZM150.758 8.776L150.29 8.044C150.498 7.892 150.778 7.74 151.13 7.588C151.482 7.436 151.906 7.36 152.402 7.36C152.826 7.36 153.194 7.428 153.506 7.564C153.826 7.692 154.074 7.88 154.25 8.128C154.434 8.376 154.526 8.68 154.526 9.04V13H153.566V9.04C153.566 8.76 153.446 8.552 153.206 8.416C152.974 8.272 152.706 8.2 152.402 8.2C152.138 8.2 151.898 8.236 151.682 8.308C151.466 8.372 151.278 8.452 151.118 8.548C150.966 8.636 150.846 8.712 150.758 8.776ZM158.106 10.24V9.64C158.474 9.64 158.738 9.572 158.898 9.436C159.058 9.292 159.138 9.12 159.138 8.92C159.138 8.704 159.058 8.536 158.898 8.416C158.738 8.288 158.514 8.224 158.226 8.224C157.986 8.224 157.786 8.272 157.626 8.368C157.474 8.456 157.362 8.568 157.29 8.704C157.218 8.832 157.182 8.96 157.182 9.088H156.21C156.21 8.776 156.298 8.488 156.474 8.224C156.65 7.96 156.89 7.752 157.194 7.6C157.498 7.44 157.842 7.36 158.226 7.36C158.586 7.36 158.91 7.428 159.198 7.564C159.486 7.7 159.71 7.88 159.87 8.104C160.038 8.328 160.122 8.576 160.122 8.848C160.122 9.248 159.942 9.58 159.582 9.844C159.23 10.108 158.738 10.24 158.106 10.24ZM158.202 13.12C157.554 13.12 157.034 12.944 156.642 12.592C156.258 12.24 156.034 11.796 155.97 11.26H156.942C156.998 11.524 157.118 11.76 157.302 11.968C157.486 12.176 157.786 12.28 158.202 12.28C158.458 12.28 158.674 12.244 158.85 12.172C159.034 12.1 159.174 11.996 159.27 11.86C159.366 11.724 159.414 11.568 159.414 11.392C159.414 11.2 159.362 11.036 159.258 10.9C159.162 10.764 159.014 10.66 158.814 10.588C158.622 10.516 158.386 10.48 158.106 10.48V9.88C158.794 9.88 159.342 10 159.75 10.24C160.158 10.48 160.362 10.86 160.362 11.38C160.362 11.74 160.262 12.052 160.062 12.316C159.87 12.572 159.61 12.772 159.282 12.916C158.954 13.052 158.594 13.12 158.202 13.12ZM162.698 15.64H161.738V7.48H162.698V15.64ZM167.318 10.24C167.318 10.832 167.194 11.344 166.946 11.776C166.698 12.208 166.366 12.54 165.95 12.772C165.542 13.004 165.086 13.12 164.582 13.12C164.126 13.12 163.722 13.004 163.37 12.772C163.026 12.54 162.754 12.208 162.554 11.776C162.362 11.344 162.266 10.832 162.266 10.24C162.266 9.64 162.362 9.128 162.554 8.704C162.754 8.272 163.026 7.94 163.37 7.708C163.722 7.476 164.126 7.36 164.582 7.36C165.086 7.36 165.542 7.476 165.95 7.708C166.366 7.94 166.698 8.272 166.946 8.704C167.194 9.128 167.318 9.64 167.318 10.24ZM166.346 10.24C166.346 9.816 166.258 9.456 166.082 9.16C165.914 8.864 165.686 8.64 165.398 8.488C165.118 8.336 164.806 8.26 164.462 8.26C164.182 8.26 163.906 8.336 163.634 8.488C163.362 8.64 163.138 8.864 162.962 9.16C162.786 9.456 162.698 9.816 162.698 10.24C162.698 10.664 162.786 11.024 162.962 11.32C163.138 11.616 163.362 11.84 163.634 11.992C163.906 12.144 164.182 12.22 164.462 12.22C164.806 12.22 165.118 12.144 165.398 11.992C165.686 11.84 165.914 11.616 166.082 11.32C166.258 11.024 166.346 10.664 166.346 10.24ZM169.074 11.38C169.074 11.572 169.126 11.736 169.23 11.872C169.334 12 169.474 12.1 169.65 12.172C169.826 12.236 170.022 12.268 170.238 12.268C170.558 12.268 170.842 12.22 171.09 12.124C171.338 12.028 171.53 11.876 171.666 11.668C171.81 11.46 171.882 11.184 171.882 10.84L172.074 11.44C172.074 11.792 171.978 12.096 171.786 12.352C171.602 12.6 171.354 12.792 171.042 12.928C170.73 13.056 170.382 13.12 169.998 13.12C169.654 13.12 169.338 13.056 169.05 12.928C168.762 12.8 168.53 12.612 168.354 12.364C168.186 12.108 168.102 11.792 168.102 11.416C168.102 11.024 168.198 10.692 168.39 10.42C168.582 10.148 168.854 9.94 169.206 9.796C169.558 9.644 169.974 9.568 170.454 9.568C170.806 9.568 171.106 9.616 171.354 9.712C171.61 9.8 171.814 9.904 171.966 10.024C172.118 10.136 172.222 10.228 172.278 10.3V10.864C172.006 10.672 171.73 10.532 171.45 10.444C171.17 10.348 170.854 10.3 170.502 10.3C170.182 10.3 169.914 10.344 169.698 10.432C169.49 10.52 169.334 10.644 169.23 10.804C169.126 10.964 169.074 11.156 169.074 11.38ZM169.074 8.776L168.606 8.044C168.814 7.892 169.094 7.74 169.446 7.588C169.798 7.436 170.222 7.36 170.718 7.36C171.142 7.36 171.51 7.428 171.822 7.564C172.142 7.692 172.39 7.88 172.566 8.128C172.75 8.376 172.842 8.68 172.842 9.04V13H171.882V9.04C171.882 8.76 171.762 8.552 171.522 8.416C171.29 8.272 171.022 8.2 170.718 8.2C170.454 8.2 170.214 8.236 169.998 8.308C169.782 8.372 169.594 8.452 169.434 8.548C169.282 8.636 169.162 8.712 169.074 8.776ZM176.842 8.26V7.36C177.386 7.36 177.87 7.484 178.294 7.732C178.726 7.98 179.066 8.32 179.314 8.752C179.57 9.184 179.698 9.68 179.698 10.24C179.698 10.792 179.57 11.288 179.314 11.728C179.066 12.16 178.726 12.5 178.294 12.748C177.87 12.996 177.386 13.12 176.842 13.12C176.306 13.12 175.822 12.988 175.39 12.724C174.958 12.452 174.614 12.048 174.358 11.512C174.11 10.976 173.986 10.312 173.986 9.52L174.946 10.24C174.946 10.624 175.03 10.964 175.198 11.26C175.366 11.556 175.59 11.792 175.87 11.968C176.158 12.136 176.482 12.22 176.842 12.22C177.202 12.22 177.522 12.136 177.802 11.968C178.09 11.792 178.314 11.556 178.474 11.26C178.642 10.964 178.726 10.624 178.726 10.24C178.726 9.856 178.642 9.516 178.474 9.22C178.314 8.916 178.09 8.68 177.802 8.512C177.522 8.344 177.202 8.26 176.842 8.26ZM174.514 10.24C174.514 9.792 174.57 9.392 174.682 9.04C174.794 8.68 174.954 8.376 175.162 8.128C175.37 7.88 175.614 7.692 175.894 7.564C176.182 7.428 176.498 7.36 176.842 7.36V8.26C176.634 8.26 176.418 8.304 176.194 8.392C175.97 8.48 175.762 8.608 175.57 8.776C175.386 8.944 175.234 9.152 175.114 9.4C175.002 9.64 174.946 9.92 174.946 10.24H174.514ZM173.986 9.52C173.986 8.768 174.058 8.104 174.202 7.528C174.346 6.952 174.598 6.464 174.958 6.064C175.326 5.664 175.83 5.352 176.47 5.128C177.014 4.944 177.418 4.724 177.682 4.468C177.954 4.204 178.118 3.928 178.174 3.64H179.122C179.082 3.992 178.954 4.316 178.738 4.612C178.522 4.9 178.238 5.152 177.886 5.368C177.542 5.584 177.15 5.764 176.71 5.908C176.214 6.068 175.826 6.312 175.546 6.64C175.274 6.96 175.086 7.32 174.982 7.72C174.878 8.12 174.826 8.52 174.826 8.92V10.156L173.986 9.52ZM180.537 10.24C180.537 9.68 180.661 9.184 180.909 8.752C181.165 8.32 181.509 7.98 181.941 7.732C182.373 7.484 182.857 7.36 183.393 7.36C183.937 7.36 184.421 7.484 184.845 7.732C185.277 7.98 185.617 8.32 185.865 8.752C186.121 9.184 186.249 9.68 186.249 10.24C186.249 10.792 186.121 11.288 185.865 11.728C185.617 12.16 185.277 12.5 184.845 12.748C184.421 12.996 183.937 13.12 183.393 13.12C182.857 13.12 182.373 12.996 181.941 12.748C181.509 12.5 181.165 12.16 180.909 11.728C180.661 11.288 180.537 10.792 180.537 10.24ZM181.509 10.24C181.509 10.624 181.589 10.964 181.749 11.26C181.917 11.556 182.141 11.792 182.421 11.968C182.709 12.136 183.033 12.22 183.393 12.22C183.753 12.22 184.073 12.136 184.353 11.968C184.641 11.792 184.865 11.556 185.025 11.26C185.193 10.964 185.277 10.624 185.277 10.24C185.277 9.856 185.193 9.516 185.025 9.22C184.865 8.916 184.641 8.68 184.353 8.512C184.073 8.344 183.753 8.26 183.393 8.26C183.033 8.26 182.709 8.344 182.421 8.512C182.141 8.68 181.917 8.916 181.749 9.22C181.589 9.516 181.509 9.856 181.509 10.24ZM186.728 7.48H189.968V8.38H186.728V7.48ZM187.868 7.72H188.828V13H187.868V7.72ZM190.871 7.48H191.831V13H190.871V7.48ZM193.871 7.48H195.071L192.671 9.76L195.311 13H194.111L191.471 9.76L193.871 7.48ZM200.836 8.44L196.276 13.42L196.336 12.04L200.896 7.06L200.836 8.44ZM197.236 7.48V12.1L196.276 13.42V7.48H197.236ZM200.896 7.06V13H199.936V8.38L200.896 7.06ZM205.873 10.24C205.873 9.68 205.997 9.184 206.245 8.752C206.501 8.32 206.845 7.98 207.277 7.732C207.709 7.484 208.193 7.36 208.729 7.36C209.273 7.36 209.757 7.484 210.181 7.732C210.613 7.98 210.953 8.32 211.201 8.752C211.457 9.184 211.585 9.68 211.585 10.24C211.585 10.792 211.457 11.288 211.201 11.728C210.953 12.16 210.613 12.5 210.181 12.748C209.757 12.996 209.273 13.12 208.729 13.12C208.193 13.12 207.709 12.996 207.277 12.748C206.845 12.5 206.501 12.16 206.245 11.728C205.997 11.288 205.873 10.792 205.873 10.24ZM206.845 10.24C206.845 10.624 206.925 10.964 207.085 11.26C207.253 11.556 207.477 11.792 207.757 11.968C208.045 12.136 208.369 12.22 208.729 12.22C209.089 12.22 209.409 12.136 209.689 11.968C209.977 11.792 210.201 11.556 210.361 11.26C210.529 10.964 210.613 10.624 210.613 10.24C210.613 9.856 210.529 9.516 210.361 9.22C210.201 8.916 209.977 8.68 209.689 8.512C209.409 8.344 209.089 8.26 208.729 8.26C208.369 8.26 208.045 8.344 207.757 8.512C207.477 8.68 207.253 8.916 207.085 9.22C206.925 9.516 206.845 9.856 206.845 10.24ZM212.064 7.48H215.304V8.38H212.064V7.48ZM213.204 7.72H214.164V13H213.204V7.72ZM222.865 9.136L221.245 12.64H220.165L222.865 7.06L225.565 12.64H224.485L222.865 9.136ZM225.325 13H220.465V14.08H219.445V12.1H226.285V14.08H225.325V13ZM232.348 8.44L227.788 13.42L227.848 12.04L232.408 7.06L232.348 8.44ZM228.748 7.48V12.1L227.788 13.42V7.48H228.748ZM232.408 7.06V13H231.448V8.38L232.408 7.06ZM236.223 10.24V9.64C236.591 9.64 236.855 9.572 237.015 9.436C237.175 9.292 237.255 9.12 237.255 8.92C237.255 8.704 237.175 8.536 237.015 8.416C236.855 8.288 236.631 8.224 236.343 8.224C236.103 8.224 235.903 8.272 235.743 8.368C235.591 8.456 235.479 8.568 235.407 8.704C235.335 8.832 235.299 8.96 235.299 9.088H234.327C234.327 8.776 234.415 8.488 234.591 8.224C234.767 7.96 235.007 7.752 235.311 7.6C235.615 7.44 235.959 7.36 236.343 7.36C236.703 7.36 237.027 7.428 237.315 7.564C237.603 7.7 237.827 7.88 237.987 8.104C238.155 8.328 238.239 8.576 238.239 8.848C238.239 9.248 238.059 9.58 237.699 9.844C237.347 10.108 236.855 10.24 236.223 10.24ZM236.319 13.12C235.671 13.12 235.151 12.944 234.759 12.592C234.375 12.24 234.151 11.796 234.087 11.26H235.059C235.115 11.524 235.235 11.76 235.419 11.968C235.603 12.176 235.903 12.28 236.319 12.28C236.575 12.28 236.791 12.244 236.967 12.172C237.151 12.1 237.291 11.996 237.387 11.86C237.483 11.724 237.531 11.568 237.531 11.392C237.531 11.2 237.479 11.036 237.375 10.9C237.279 10.764 237.131 10.66 236.931 10.588C236.739 10.516 236.503 10.48 236.223 10.48V9.88C236.911 9.88 237.459 10 237.867 10.24C238.275 10.48 238.479 10.86 238.479 11.38C238.479 11.74 238.379 12.052 238.179 12.316C237.987 12.572 237.727 12.772 237.399 12.916C237.071 13.052 236.711 13.12 236.319 13.12ZM240.348 11.38C240.348 11.572 240.4 11.736 240.504 11.872C240.608 12 240.748 12.1 240.924 12.172C241.1 12.236 241.296 12.268 241.512 12.268C241.832 12.268 242.116 12.22 242.364 12.124C242.612 12.028 242.804 11.876 242.94 11.668C243.084 11.46 243.156 11.184 243.156 10.84L243.348 11.44C243.348 11.792 243.252 12.096 243.06 12.352C242.876 12.6 242.628 12.792 242.316 12.928C242.004 13.056 241.656 13.12 241.272 13.12C240.928 13.12 240.612 13.056 240.324 12.928C240.036 12.8 239.804 12.612 239.628 12.364C239.46 12.108 239.376 11.792 239.376 11.416C239.376 11.024 239.472 10.692 239.664 10.42C239.856 10.148 240.128 9.94 240.48 9.796C240.832 9.644 241.248 9.568 241.728 9.568C242.08 9.568 242.38 9.616 242.628 9.712C242.884 9.8 243.088 9.904 243.24 10.024C243.392 10.136 243.496 10.228 243.552 10.3V10.864C243.28 10.672 243.004 10.532 242.724 10.444C242.444 10.348 242.128 10.3 241.776 10.3C241.456 10.3 241.188 10.344 240.972 10.432C240.764 10.52 240.608 10.644 240.504 10.804C240.4 10.964 240.348 11.156 240.348 11.38ZM240.348 8.776L239.88 8.044C240.088 7.892 240.368 7.74 240.72 7.588C241.072 7.436 241.496 7.36 241.992 7.36C242.416 7.36 242.784 7.428 243.096 7.564C243.416 7.692 243.664 7.88 243.84 8.128C244.024 8.376 244.116 8.68 244.116 9.04V13H243.156V9.04C243.156 8.76 243.036 8.552 242.796 8.416C242.564 8.272 242.296 8.2 241.992 8.2C241.728 8.2 241.488 8.236 241.272 8.308C241.056 8.372 240.868 8.452 240.708 8.548C240.556 8.636 240.436 8.712 240.348 8.776ZM250.36 8.44L245.8 13.42L245.86 12.04L250.42 7.06L250.36 8.44ZM246.76 7.48V12.1L245.8 13.42V7.48H246.76ZM250.42 7.06V13H249.46V8.38L250.42 7.06ZM246.244 4.66H247.096C247.096 4.764 247.124 4.888 247.18 5.032C247.236 5.168 247.34 5.292 247.492 5.404C247.644 5.508 247.86 5.56 248.14 5.56C248.42 5.56 248.636 5.508 248.788 5.404C248.94 5.292 249.044 5.168 249.1 5.032C249.156 4.888 249.184 4.764 249.184 4.66H250.036C250.036 4.932 249.964 5.2 249.82 5.464C249.684 5.72 249.476 5.932 249.196 6.1C248.916 6.26 248.564 6.34 248.14 6.34C247.724 6.34 247.372 6.26 247.084 6.1C246.804 5.932 246.592 5.72 246.448 5.464C246.312 5.2 246.244 4.932 246.244 4.66ZM252.843 10.54V9.64H256.923V10.54H252.843ZM256.299 7.48H257.259V13H256.299V7.48ZM252.279 7.48H253.239V13H252.279V7.48ZM259.496 11.38C259.496 11.572 259.548 11.736 259.652 11.872C259.756 12 259.896 12.1 260.072 12.172C260.248 12.236 260.444 12.268 260.66 12.268C260.98 12.268 261.264 12.22 261.512 12.124C261.76 12.028 261.952 11.876 262.088 11.668C262.232 11.46 262.304 11.184 262.304 10.84L262.496 11.44C262.496 11.792 262.4 12.096 262.208 12.352C262.024 12.6 261.776 12.792 261.464 12.928C261.152 13.056 260.804 13.12 260.42 13.12C260.076 13.12 259.76 13.056 259.472 12.928C259.184 12.8 258.952 12.612 258.776 12.364C258.608 12.108 258.524 11.792 258.524 11.416C258.524 11.024 258.62 10.692 258.812 10.42C259.004 10.148 259.276 9.94 259.628 9.796C259.98 9.644 260.396 9.568 260.876 9.568C261.228 9.568 261.528 9.616 261.776 9.712C262.032 9.8 262.236 9.904 262.388 10.024C262.54 10.136 262.644 10.228 262.7 10.3V10.864C262.428 10.672 262.152 10.532 261.872 10.444C261.592 10.348 261.276 10.3 260.924 10.3C260.604 10.3 260.336 10.344 260.12 10.432C259.912 10.52 259.756 10.644 259.652 10.804C259.548 10.964 259.496 11.156 259.496 11.38ZM259.496 8.776L259.028 8.044C259.236 7.892 259.516 7.74 259.868 7.588C260.22 7.436 260.644 7.36 261.14 7.36C261.564 7.36 261.932 7.428 262.244 7.564C262.564 7.692 262.812 7.88 262.988 8.128C263.172 8.376 263.264 8.68 263.264 9.04V13H262.304V9.04C262.304 8.76 262.184 8.552 261.944 8.416C261.712 8.272 261.444 8.2 261.14 8.2C260.876 8.2 260.636 8.236 260.42 8.308C260.204 8.372 260.016 8.452 259.856 8.548C259.704 8.636 259.584 8.712 259.496 8.776ZM271.486 9.136L269.866 12.64H268.786L271.486 7.06L274.186 12.64H273.106L271.486 9.136ZM273.946 13H269.086V14.08H268.066V12.1H274.906V14.08H273.946V13ZM275.869 10.24C275.869 9.68 275.993 9.184 276.241 8.752C276.497 8.32 276.841 7.98 277.273 7.732C277.705 7.484 278.189 7.36 278.725 7.36C279.269 7.36 279.753 7.484 280.177 7.732C280.609 7.98 280.949 8.32 281.197 8.752C281.453 9.184 281.581 9.68 281.581 10.24C281.581 10.792 281.453 11.288 281.197 11.728C280.949 12.16 280.609 12.5 280.177 12.748C279.753 12.996 279.269 13.12 278.725 13.12C278.189 13.12 277.705 12.996 277.273 12.748C276.841 12.5 276.497 12.16 276.241 11.728C275.993 11.288 275.869 10.792 275.869 10.24ZM276.841 10.24C276.841 10.624 276.921 10.964 277.081 11.26C277.249 11.556 277.473 11.792 277.753 11.968C278.041 12.136 278.365 12.22 278.725 12.22C279.085 12.22 279.405 12.136 279.685 11.968C279.973 11.792 280.197 11.556 280.357 11.26C280.525 10.964 280.609 10.624 280.609 10.24C280.609 9.856 280.525 9.516 280.357 9.22C280.197 8.916 279.973 8.68 279.685 8.512C279.405 8.344 279.085 8.26 278.725 8.26C278.365 8.26 278.041 8.344 277.753 8.512C277.473 8.68 277.249 8.916 277.081 9.22C276.921 9.516 276.841 9.856 276.841 10.24ZM114.443 24.48V30H113.483V25.38H110.903V30H109.943V24.48H114.443ZM115.768 27.24C115.768 26.68 115.892 26.184 116.14 25.752C116.396 25.32 116.74 24.98 117.172 24.732C117.604 24.484 118.088 24.36 118.624 24.36C119.168 24.36 119.652 24.484 120.076 24.732C120.508 24.98 120.848 25.32 121.096 25.752C121.352 26.184 121.48 26.68 121.48 27.24C121.48 27.792 121.352 28.288 121.096 28.728C120.848 29.16 120.508 29.5 120.076 29.748C119.652 29.996 119.168 30.12 118.624 30.12C118.088 30.12 117.604 29.996 117.172 29.748C116.74 29.5 116.396 29.16 116.14 28.728C115.892 28.288 115.768 27.792 115.768 27.24ZM116.74 27.24C116.74 27.624 116.82 27.964 116.98 28.26C117.148 28.556 117.372 28.792 117.652 28.968C117.94 29.136 118.264 29.22 118.624 29.22C118.984 29.22 119.304 29.136 119.584 28.968C119.872 28.792 120.096 28.556 120.256 28.26C120.424 27.964 120.508 27.624 120.508 27.24C120.508 26.856 120.424 26.516 120.256 26.22C120.096 25.916 119.872 25.68 119.584 25.512C119.304 25.344 118.984 25.26 118.624 25.26C118.264 25.26 117.94 25.344 117.652 25.512C117.372 25.68 117.148 25.916 116.98 26.22C116.82 26.516 116.74 26.856 116.74 27.24ZM127.634 24.48V30H126.674V25.38H123.854V28.08C123.854 28.512 123.786 28.872 123.65 29.16C123.522 29.44 123.322 29.652 123.05 29.796C122.778 29.932 122.434 30 122.018 30V29.124C122.258 29.124 122.462 29.048 122.63 28.896C122.806 28.744 122.894 28.472 122.894 28.08V24.48H127.634ZM129.49 24.48H130.45V30H129.49V24.48ZM130.054 27.408V26.568H131.77C132.338 26.568 132.814 26.708 133.198 26.988C133.59 27.26 133.786 27.692 133.786 28.284C133.786 28.676 133.698 29 133.522 29.256C133.346 29.512 133.106 29.7 132.802 29.82C132.498 29.94 132.154 30 131.77 30H130.054V29.16H131.77C132.002 29.16 132.194 29.128 132.346 29.064C132.506 28.992 132.626 28.892 132.706 28.764C132.786 28.628 132.826 28.468 132.826 28.284C132.826 28.004 132.738 27.788 132.562 27.636C132.386 27.484 132.122 27.408 131.77 27.408H130.054ZM137.247 27.24V26.64C137.615 26.64 137.879 26.572 138.039 26.436C138.199 26.292 138.279 26.12 138.279 25.92C138.279 25.704 138.199 25.536 138.039 25.416C137.879 25.288 137.655 25.224 137.367 25.224C137.127 25.224 136.927 25.272 136.767 25.368C136.615 25.456 136.503 25.568 136.431 25.704C136.359 25.832 136.323 25.96 136.323 26.088H135.351C135.351 25.776 135.439 25.488 135.615 25.224C135.791 24.96 136.031 24.752 136.335 24.6C136.639 24.44 136.983 24.36 137.367 24.36C137.727 24.36 138.051 24.428 138.339 24.564C138.627 24.7 138.851 24.88 139.011 25.104C139.179 25.328 139.263 25.576 139.263 25.848C139.263 26.248 139.083 26.58 138.723 26.844C138.371 27.108 137.879 27.24 137.247 27.24ZM137.343 30.12C136.695 30.12 136.175 29.944 135.783 29.592C135.399 29.24 135.175 28.796 135.111 28.26H136.083C136.139 28.524 136.259 28.76 136.443 28.968C136.627 29.176 136.927 29.28 137.343 29.28C137.599 29.28 137.815 29.244 137.991 29.172C138.175 29.1 138.315 28.996 138.411 28.86C138.507 28.724 138.555 28.568 138.555 28.392C138.555 28.2 138.503 28.036 138.399 27.9C138.303 27.764 138.155 27.66 137.955 27.588C137.763 27.516 137.527 27.48 137.247 27.48V26.88C137.935 26.88 138.483 27 138.891 27.24C139.299 27.48 139.503 27.86 139.503 28.38C139.503 28.74 139.403 29.052 139.203 29.316C139.011 29.572 138.751 29.772 138.423 29.916C138.095 30.052 137.735 30.12 137.343 30.12ZM140.459 27.24C140.459 26.68 140.583 26.184 140.831 25.752C141.087 25.32 141.431 24.98 141.863 24.732C142.295 24.484 142.779 24.36 143.315 24.36C143.859 24.36 144.343 24.484 144.767 24.732C145.199 24.98 145.539 25.32 145.787 25.752C146.043 26.184 146.171 26.68 146.171 27.24C146.171 27.792 146.043 28.288 145.787 28.728C145.539 29.16 145.199 29.5 144.767 29.748C144.343 29.996 143.859 30.12 143.315 30.12C142.779 30.12 142.295 29.996 141.863 29.748C141.431 29.5 141.087 29.16 140.831 28.728C140.583 28.288 140.459 27.792 140.459 27.24ZM141.431 27.24C141.431 27.624 141.511 27.964 141.671 28.26C141.839 28.556 142.063 28.792 142.343 28.968C142.631 29.136 142.955 29.22 143.315 29.22C143.675 29.22 143.995 29.136 144.275 28.968C144.563 28.792 144.787 28.556 144.947 28.26C145.115 27.964 145.199 27.624 145.199 27.24C145.199 26.856 145.115 26.516 144.947 26.22C144.787 25.916 144.563 25.68 144.275 25.512C143.995 25.344 143.675 25.26 143.315 25.26C142.955 25.26 142.631 25.344 142.343 25.512C142.063 25.68 141.839 25.916 141.671 26.22C141.511 26.516 141.431 26.856 141.431 27.24ZM148.054 27.12H149.65C150.034 27.12 150.378 27.16 150.682 27.24C150.986 27.32 151.226 27.46 151.402 27.66C151.578 27.86 151.666 28.14 151.666 28.5C151.666 28.916 151.526 29.272 151.246 29.568C150.974 29.856 150.522 30 149.89 30H148.054V29.16H149.65C150.01 29.16 150.274 29.084 150.442 28.932C150.618 28.78 150.706 28.596 150.706 28.38C150.706 28.268 150.682 28.168 150.634 28.08C150.594 27.992 150.53 27.912 150.442 27.84C150.362 27.768 150.254 27.716 150.118 27.684C149.99 27.644 149.834 27.624 149.65 27.624H148.054V27.12ZM148.054 27.36V26.796H149.53C149.674 26.796 149.802 26.78 149.914 26.748C150.034 26.708 150.134 26.652 150.214 26.58C150.294 26.508 150.354 26.428 150.394 26.34C150.442 26.244 150.466 26.144 150.466 26.04C150.466 25.824 150.382 25.652 150.214 25.524C150.046 25.388 149.818 25.32 149.53 25.32H148.054V24.48H149.53C149.874 24.48 150.186 24.532 150.466 24.636C150.754 24.732 150.986 24.892 151.162 25.116C151.338 25.332 151.426 25.62 151.426 25.98C151.426 26.292 151.338 26.552 151.162 26.76C150.986 26.96 150.754 27.112 150.466 27.216C150.186 27.312 149.874 27.36 149.53 27.36H148.054ZM147.49 24.48H148.45V30H147.49V24.48ZM153.359 28.38C153.359 28.572 153.411 28.736 153.515 28.872C153.619 29 153.759 29.1 153.935 29.172C154.111 29.236 154.307 29.268 154.523 29.268C154.843 29.268 155.127 29.22 155.375 29.124C155.623 29.028 155.815 28.876 155.951 28.668C156.095 28.46 156.167 28.184 156.167 27.84L156.359 28.44C156.359 28.792 156.263 29.096 156.071 29.352C155.887 29.6 155.639 29.792 155.327 29.928C155.015 30.056 154.667 30.12 154.283 30.12C153.939 30.12 153.623 30.056 153.335 29.928C153.047 29.8 152.815 29.612 152.639 29.364C152.471 29.108 152.387 28.792 152.387 28.416C152.387 28.024 152.483 27.692 152.675 27.42C152.867 27.148 153.139 26.94 153.491 26.796C153.843 26.644 154.259 26.568 154.739 26.568C155.091 26.568 155.391 26.616 155.639 26.712C155.895 26.8 156.099 26.904 156.251 27.024C156.403 27.136 156.507 27.228 156.563 27.3V27.864C156.291 27.672 156.015 27.532 155.735 27.444C155.455 27.348 155.139 27.3 154.787 27.3C154.467 27.3 154.199 27.344 153.983 27.432C153.775 27.52 153.619 27.644 153.515 27.804C153.411 27.964 153.359 28.156 153.359 28.38ZM153.359 25.776L152.891 25.044C153.099 24.892 153.379 24.74 153.731 24.588C154.083 24.436 154.507 24.36 155.003 24.36C155.427 24.36 155.795 24.428 156.107 24.564C156.427 24.692 156.675 24.88 156.851 25.128C157.035 25.376 157.127 25.68 157.127 26.04V30H156.167V26.04C156.167 25.76 156.047 25.552 155.807 25.416C155.575 25.272 155.307 25.2 155.003 25.2C154.739 25.2 154.499 25.236 154.283 25.308C154.067 25.372 153.879 25.452 153.719 25.548C153.567 25.636 153.447 25.712 153.359 25.776ZM157.912 24.48H161.152V25.38H157.912V24.48ZM159.052 24.72H160.012V30H159.052V24.72ZM162.071 27.48V26.664H165.755C165.723 26.376 165.643 26.124 165.515 25.908C165.395 25.684 165.223 25.512 164.999 25.392C164.783 25.264 164.515 25.2 164.195 25.2C163.875 25.2 163.583 25.268 163.319 25.404C163.055 25.54 162.843 25.736 162.683 25.992C162.531 26.24 162.455 26.536 162.455 26.88L162.431 27.24C162.431 27.664 162.503 28.024 162.647 28.32C162.791 28.616 162.995 28.84 163.259 28.992C163.523 29.144 163.835 29.22 164.195 29.22C164.467 29.22 164.707 29.18 164.915 29.1C165.131 29.012 165.323 28.896 165.491 28.752C165.659 28.6 165.803 28.424 165.923 28.224L166.703 28.716C166.519 28.996 166.315 29.244 166.091 29.46C165.867 29.668 165.595 29.832 165.275 29.952C164.955 30.064 164.555 30.12 164.075 30.12C163.579 30.12 163.131 29.996 162.731 29.748C162.339 29.5 162.027 29.16 161.795 28.728C161.571 28.288 161.459 27.792 161.459 27.24C161.459 27.136 161.463 27.036 161.471 26.94C161.479 26.844 161.491 26.748 161.507 26.652C161.587 26.196 161.747 25.796 161.987 25.452C162.227 25.108 162.535 24.84 162.911 24.648C163.295 24.456 163.723 24.36 164.195 24.36C164.715 24.36 165.171 24.476 165.563 24.708C165.955 24.94 166.259 25.268 166.475 25.692C166.691 26.108 166.799 26.608 166.799 27.192C166.799 27.24 166.799 27.288 166.799 27.336C166.799 27.384 166.795 27.432 166.787 27.48H162.071ZM172.951 24.48V30H171.991V25.38H169.171V28.08C169.171 28.512 169.103 28.872 168.967 29.16C168.839 29.44 168.639 29.652 168.367 29.796C168.095 29.932 167.751 30 167.335 30V29.124C167.575 29.124 167.779 29.048 167.947 28.896C168.123 28.744 168.211 28.472 168.211 28.08V24.48H172.951ZM174.806 24.48H175.766V30H174.806V24.48ZM175.37 27.408V26.568H177.086C177.654 26.568 178.13 26.708 178.514 26.988C178.906 27.26 179.102 27.692 179.102 28.284C179.102 28.676 179.014 29 178.838 29.256C178.662 29.512 178.422 29.7 178.118 29.82C177.814 29.94 177.47 30 177.086 30H175.37V29.16H177.086C177.318 29.16 177.51 29.128 177.662 29.064C177.822 28.992 177.942 28.892 178.022 28.764C178.102 28.628 178.142 28.468 178.142 28.284C178.142 28.004 178.054 27.788 177.878 27.636C177.702 27.484 177.438 27.408 177.086 27.408H175.37ZM181.039 27.24C181.039 27.624 181.119 27.964 181.279 28.26C181.447 28.556 181.671 28.792 181.951 28.968C182.239 29.136 182.563 29.22 182.923 29.22C183.219 29.22 183.495 29.176 183.751 29.088C184.015 28.992 184.243 28.868 184.435 28.716C184.627 28.556 184.763 28.388 184.843 28.212V29.412C184.651 29.636 184.375 29.812 184.015 29.94C183.663 30.06 183.299 30.12 182.923 30.12C182.387 30.12 181.903 29.996 181.471 29.748C181.039 29.5 180.695 29.16 180.439 28.728C180.191 28.288 180.067 27.792 180.067 27.24C180.067 26.68 180.191 26.184 180.439 25.752C180.695 25.32 181.039 24.98 181.471 24.732C181.903 24.484 182.387 24.36 182.923 24.36C183.299 24.36 183.663 24.424 184.015 24.552C184.375 24.672 184.651 24.844 184.843 25.068V26.268C184.763 26.084 184.627 25.916 184.435 25.764C184.243 25.612 184.015 25.492 183.751 25.404C183.495 25.308 183.219 25.26 182.923 25.26C182.563 25.26 182.239 25.344 181.951 25.512C181.671 25.68 181.447 25.916 181.279 26.22C181.119 26.516 181.039 26.856 181.039 27.24ZM186.278 24.48H187.238V30H186.278V24.48ZM189.278 24.48H190.478L188.078 26.76L190.718 30H189.518L186.878 26.76L189.278 24.48ZM190.967 27.24C190.967 26.68 191.091 26.184 191.339 25.752C191.595 25.32 191.939 24.98 192.371 24.732C192.803 24.484 193.287 24.36 193.823 24.36C194.367 24.36 194.851 24.484 195.275 24.732C195.707 24.98 196.047 25.32 196.295 25.752C196.551 26.184 196.679 26.68 196.679 27.24C196.679 27.792 196.551 28.288 196.295 28.728C196.047 29.16 195.707 29.5 195.275 29.748C194.851 29.996 194.367 30.12 193.823 30.12C193.287 30.12 192.803 29.996 192.371 29.748C191.939 29.5 191.595 29.16 191.339 28.728C191.091 28.288 190.967 27.792 190.967 27.24ZM191.939 27.24C191.939 27.624 192.019 27.964 192.179 28.26C192.347 28.556 192.571 28.792 192.851 28.968C193.139 29.136 193.463 29.22 193.823 29.22C194.183 29.22 194.503 29.136 194.783 28.968C195.071 28.792 195.295 28.556 195.455 28.26C195.623 27.964 195.707 27.624 195.707 27.24C195.707 26.856 195.623 26.516 195.455 26.22C195.295 25.916 195.071 25.68 194.783 25.512C194.503 25.344 194.183 25.26 193.823 25.26C193.463 25.26 193.139 25.344 192.851 25.512C192.571 25.68 192.347 25.916 192.179 26.22C192.019 26.516 191.939 26.856 191.939 27.24ZM198.058 24.48H200.998V25.38H199.018V30H198.058V24.48ZM201.303 27.24C201.303 26.68 201.427 26.184 201.675 25.752C201.931 25.32 202.275 24.98 202.707 24.732C203.139 24.484 203.623 24.36 204.159 24.36C204.703 24.36 205.187 24.484 205.611 24.732C206.043 24.98 206.383 25.32 206.631 25.752C206.887 26.184 207.015 26.68 207.015 27.24C207.015 27.792 206.887 28.288 206.631 28.728C206.383 29.16 206.043 29.5 205.611 29.748C205.187 29.996 204.703 30.12 204.159 30.12C203.623 30.12 203.139 29.996 202.707 29.748C202.275 29.5 201.931 29.16 201.675 28.728C201.427 28.288 201.303 27.792 201.303 27.24ZM202.275 27.24C202.275 27.624 202.355 27.964 202.515 28.26C202.683 28.556 202.907 28.792 203.187 28.968C203.475 29.136 203.799 29.22 204.159 29.22C204.519 29.22 204.839 29.136 205.119 28.968C205.407 28.792 205.631 28.556 205.791 28.26C205.959 27.964 206.043 27.624 206.043 27.24C206.043 26.856 205.959 26.516 205.791 26.22C205.631 25.916 205.407 25.68 205.119 25.512C204.839 25.344 204.519 25.26 204.159 25.26C203.799 25.26 203.475 25.344 203.187 25.512C202.907 25.68 202.683 25.916 202.515 26.22C202.355 26.516 202.275 26.856 202.275 27.24ZM216.551 25.44L211.991 30.42L212.051 29.04L216.611 24.06L216.551 25.44ZM212.951 24.48V29.1L211.991 30.42V24.48H212.951ZM216.611 24.06V30H215.651V25.38L216.611 24.06ZM219.034 27.54V26.64H223.114V27.54H219.034ZM222.49 24.48H223.45V30H222.49V24.48ZM218.47 24.48H219.43V30H218.47V24.48ZM224.415 24.48H227.655V25.38H224.415V24.48ZM225.555 24.72H226.515V30H225.555V24.72ZM228.575 27.48V26.664H232.259C232.227 26.376 232.147 26.124 232.019 25.908C231.899 25.684 231.727 25.512 231.503 25.392C231.287 25.264 231.019 25.2 230.699 25.2C230.379 25.2 230.087 25.268 229.823 25.404C229.559 25.54 229.347 25.736 229.187 25.992C229.035 26.24 228.959 26.536 228.959 26.88L228.935 27.24C228.935 27.664 229.007 28.024 229.151 28.32C229.295 28.616 229.499 28.84 229.763 28.992C230.027 29.144 230.339 29.22 230.699 29.22C230.971 29.22 231.211 29.18 231.419 29.1C231.635 29.012 231.827 28.896 231.995 28.752C232.163 28.6 232.307 28.424 232.427 28.224L233.207 28.716C233.023 28.996 232.819 29.244 232.595 29.46C232.371 29.668 232.099 29.832 231.779 29.952C231.459 30.064 231.059 30.12 230.579 30.12C230.083 30.12 229.635 29.996 229.235 29.748C228.843 29.5 228.531 29.16 228.299 28.728C228.075 28.288 227.963 27.792 227.963 27.24C227.963 27.136 227.967 27.036 227.975 26.94C227.983 26.844 227.995 26.748 228.011 26.652C228.091 26.196 228.251 25.796 228.491 25.452C228.731 25.108 229.039 24.84 229.415 24.648C229.799 24.456 230.227 24.36 230.699 24.36C231.219 24.36 231.675 24.476 232.067 24.708C232.459 24.94 232.763 25.268 232.979 25.692C233.195 26.108 233.303 26.608 233.303 27.192C233.303 27.24 233.303 27.288 233.303 27.336C233.303 27.384 233.299 27.432 233.291 27.48H228.575ZM235.519 32.64H234.559V24.48H235.519V32.64ZM240.139 27.24C240.139 27.832 240.015 28.344 239.767 28.776C239.519 29.208 239.187 29.54 238.771 29.772C238.363 30.004 237.907 30.12 237.403 30.12C236.947 30.12 236.543 30.004 236.191 29.772C235.847 29.54 235.575 29.208 235.375 28.776C235.183 28.344 235.087 27.832 235.087 27.24C235.087 26.64 235.183 26.128 235.375 25.704C235.575 25.272 235.847 24.94 236.191 24.708C236.543 24.476 236.947 24.36 237.403 24.36C237.907 24.36 238.363 24.476 238.771 24.708C239.187 24.94 239.519 25.272 239.767 25.704C240.015 26.128 240.139 26.64 240.139 27.24ZM239.167 27.24C239.167 26.816 239.079 26.456 238.903 26.16C238.735 25.864 238.507 25.64 238.219 25.488C237.939 25.336 237.627 25.26 237.283 25.26C237.003 25.26 236.727 25.336 236.455 25.488C236.183 25.64 235.959 25.864 235.783 26.16C235.607 26.456 235.519 26.816 235.519 27.24C235.519 27.664 235.607 28.024 235.783 28.32C235.959 28.616 236.183 28.84 236.455 28.992C236.727 29.144 237.003 29.22 237.283 29.22C237.627 29.22 237.939 29.144 238.219 28.992C238.507 28.84 238.735 28.616 238.903 28.32C239.079 28.024 239.167 27.664 239.167 27.24ZM243.599 23.28H244.559V31.2H243.599V23.28ZM240.983 27.24C240.983 26.68 241.111 26.184 241.367 25.752C241.623 25.32 241.983 24.98 242.447 24.732C242.919 24.484 243.463 24.36 244.079 24.36C244.703 24.36 245.247 24.484 245.711 24.732C246.175 24.98 246.535 25.32 246.791 25.752C247.047 26.184 247.174 26.68 247.174 27.24C247.174 27.792 247.047 28.288 246.791 28.728C246.535 29.16 246.175 29.5 245.711 29.748C245.247 29.996 244.703 30.12 244.079 30.12C243.463 30.12 242.919 29.996 242.447 29.748C241.983 29.5 241.623 29.16 241.367 28.728C241.111 28.288 240.983 27.792 240.983 27.24ZM241.955 27.24C241.955 27.624 242.039 27.964 242.207 28.26C242.383 28.556 242.627 28.792 242.939 28.968C243.259 29.136 243.639 29.22 244.079 29.22C244.519 29.22 244.895 29.136 245.207 28.968C245.527 28.792 245.771 28.556 245.939 28.26C246.115 27.964 246.203 27.624 246.203 27.24C246.203 26.856 246.115 26.516 245.939 26.22C245.771 25.916 245.527 25.68 245.207 25.512C244.895 25.344 244.519 25.26 244.079 25.26C243.639 25.26 243.259 25.344 242.939 25.512C242.627 25.68 242.383 25.916 242.207 26.22C242.039 26.516 241.955 26.856 241.955 27.24ZM248.626 27.48V26.664H252.31C252.278 26.376 252.198 26.124 252.07 25.908C251.95 25.684 251.778 25.512 251.554 25.392C251.338 25.264 251.07 25.2 250.75 25.2C250.43 25.2 250.138 25.268 249.874 25.404C249.61 25.54 249.398 25.736 249.238 25.992C249.086 26.24 249.01 26.536 249.01 26.88L248.986 27.24C248.986 27.664 249.058 28.024 249.202 28.32C249.346 28.616 249.55 28.84 249.814 28.992C250.078 29.144 250.39 29.22 250.75 29.22C251.022 29.22 251.262 29.18 251.47 29.1C251.686 29.012 251.878 28.896 252.046 28.752C252.214 28.6 252.358 28.424 252.478 28.224L253.258 28.716C253.074 28.996 252.87 29.244 252.646 29.46C252.422 29.668 252.15 29.832 251.83 29.952C251.51 30.064 251.11 30.12 250.63 30.12C250.134 30.12 249.686 29.996 249.286 29.748C248.894 29.5 248.582 29.16 248.35 28.728C248.126 28.288 248.014 27.792 248.014 27.24C248.014 27.136 248.018 27.036 248.026 26.94C248.034 26.844 248.046 26.748 248.062 26.652C248.142 26.196 248.302 25.796 248.542 25.452C248.782 25.108 249.09 24.84 249.466 24.648C249.85 24.456 250.278 24.36 250.75 24.36C251.27 24.36 251.726 24.476 252.118 24.708C252.51 24.94 252.814 25.268 253.03 25.692C253.246 26.108 253.354 26.608 253.354 27.192C253.354 27.24 253.354 27.288 253.354 27.336C253.354 27.384 253.35 27.432 253.342 27.48H248.626ZM259.29 25.44L254.73 30.42L254.79 29.04L259.35 24.06L259.29 25.44ZM255.69 24.48V29.1L254.73 30.42V24.48H255.69ZM259.35 24.06V30H258.39V25.38L259.35 24.06ZM255.174 21.66H256.026C256.026 21.764 256.054 21.888 256.11 22.032C256.166 22.168 256.27 22.292 256.422 22.404C256.574 22.508 256.79 22.56 257.07 22.56C257.35 22.56 257.566 22.508 257.718 22.404C257.87 22.292 257.974 22.168 258.03 22.032C258.086 21.888 258.114 21.764 258.114 21.66H258.966C258.966 21.932 258.894 22.2 258.75 22.464C258.614 22.72 258.406 22.932 258.126 23.1C257.846 23.26 257.494 23.34 257.07 23.34C256.654 23.34 256.302 23.26 256.014 23.1C255.734 22.932 255.522 22.72 255.378 22.464C255.242 22.2 255.174 21.932 255.174 21.66ZM261.641 27.24C261.641 27.624 261.721 27.964 261.881 28.26C262.049 28.556 262.273 28.792 262.553 28.968C262.841 29.136 263.165 29.22 263.525 29.22C263.821 29.22 264.097 29.176 264.353 29.088C264.617 28.992 264.845 28.868 265.037 28.716C265.229 28.556 265.365 28.388 265.445 28.212V29.412C265.253 29.636 264.977 29.812 264.617 29.94C264.265 30.06 263.901 30.12 263.525 30.12C262.989 30.12 262.505 29.996 262.073 29.748C261.641 29.5 261.297 29.16 261.041 28.728C260.793 28.288 260.669 27.792 260.669 27.24C260.669 26.68 260.793 26.184 261.041 25.752C261.297 25.32 261.641 24.98 262.073 24.732C262.505 24.484 262.989 24.36 263.525 24.36C263.901 24.36 264.265 24.424 264.617 24.552C264.977 24.672 265.253 24.844 265.445 25.068V26.268C265.365 26.084 265.229 25.916 265.037 25.764C264.845 25.612 264.617 25.492 264.353 25.404C264.097 25.308 263.821 25.26 263.525 25.26C263.165 25.26 262.841 25.344 262.553 25.512C262.273 25.68 262.049 25.916 261.881 26.22C261.721 26.516 261.641 26.856 261.641 27.24ZM267.371 28.38C267.371 28.572 267.423 28.736 267.527 28.872C267.631 29 267.771 29.1 267.947 29.172C268.123 29.236 268.319 29.268 268.535 29.268C268.855 29.268 269.139 29.22 269.387 29.124C269.635 29.028 269.827 28.876 269.963 28.668C270.107 28.46 270.179 28.184 270.179 27.84L270.371 28.44C270.371 28.792 270.275 29.096 270.083 29.352C269.899 29.6 269.651 29.792 269.339 29.928C269.027 30.056 268.679 30.12 268.295 30.12C267.951 30.12 267.635 30.056 267.347 29.928C267.059 29.8 266.827 29.612 266.651 29.364C266.483 29.108 266.399 28.792 266.399 28.416C266.399 28.024 266.495 27.692 266.687 27.42C266.879 27.148 267.151 26.94 267.503 26.796C267.855 26.644 268.271 26.568 268.751 26.568C269.103 26.568 269.403 26.616 269.651 26.712C269.907 26.8 270.111 26.904 270.263 27.024C270.415 27.136 270.519 27.228 270.575 27.3V27.864C270.303 27.672 270.027 27.532 269.747 27.444C269.467 27.348 269.151 27.3 268.799 27.3C268.479 27.3 268.211 27.344 267.995 27.432C267.787 27.52 267.631 27.644 267.527 27.804C267.423 27.964 267.371 28.156 267.371 28.38ZM267.371 25.776L266.903 25.044C267.111 24.892 267.391 24.74 267.743 24.588C268.095 24.436 268.519 24.36 269.015 24.36C269.439 24.36 269.807 24.428 270.119 24.564C270.439 24.692 270.687 24.88 270.863 25.128C271.047 25.376 271.139 25.68 271.139 26.04V30H270.179V26.04C270.179 25.76 270.059 25.552 269.819 25.416C269.587 25.272 269.319 25.2 269.015 25.2C268.751 25.2 268.511 25.236 268.295 25.308C268.079 25.372 267.891 25.452 267.731 25.548C267.579 25.636 267.459 25.712 267.371 25.776ZM280.981 25.44L276.421 30.42L276.481 29.04L281.041 24.06L280.981 25.44ZM277.381 24.48V29.1L276.421 30.42V24.48H277.381ZM281.041 24.06V30H280.081V25.38L281.041 24.06ZM110.34 44.24C110.34 44.624 110.42 44.964 110.58 45.26C110.748 45.556 110.972 45.792 111.252 45.968C111.54 46.136 111.864 46.22 112.224 46.22C112.52 46.22 112.796 46.176 113.052 46.088C113.316 45.992 113.544 45.868 113.736 45.716C113.928 45.556 114.064 45.388 114.144 45.212V46.412C113.952 46.636 113.676 46.812 113.316 46.94C112.964 47.06 112.6 47.12 112.224 47.12C111.688 47.12 111.204 46.996 110.772 46.748C110.34 46.5 109.996 46.16 109.74 45.728C109.492 45.288 109.368 44.792 109.368 44.24C109.368 43.68 109.492 43.184 109.74 42.752C109.996 42.32 110.34 41.98 110.772 41.732C111.204 41.484 111.688 41.36 112.224 41.36C112.6 41.36 112.964 41.424 113.316 41.552C113.676 41.672 113.952 41.844 114.144 42.068V43.268C114.064 43.084 113.928 42.916 113.736 42.764C113.544 42.612 113.316 42.492 113.052 42.404C112.796 42.308 112.52 42.26 112.224 42.26C111.864 42.26 111.54 42.344 111.252 42.512C110.972 42.68 110.748 42.916 110.58 43.22C110.42 43.516 110.34 43.856 110.34 44.24ZM115.77 44.48V43.664H119.454C119.422 43.376 119.342 43.124 119.214 42.908C119.094 42.684 118.922 42.512 118.698 42.392C118.482 42.264 118.214 42.2 117.894 42.2C117.574 42.2 117.282 42.268 117.018 42.404C116.754 42.54 116.542 42.736 116.382 42.992C116.23 43.24 116.154 43.536 116.154 43.88L116.13 44.24C116.13 44.664 116.202 45.024 116.346 45.32C116.49 45.616 116.694 45.84 116.958 45.992C117.222 46.144 117.534 46.22 117.894 46.22C118.166 46.22 118.406 46.18 118.614 46.1C118.83 46.012 119.022 45.896 119.19 45.752C119.358 45.6 119.502 45.424 119.622 45.224L120.402 45.716C120.218 45.996 120.014 46.244 119.79 46.46C119.566 46.668 119.294 46.832 118.974 46.952C118.654 47.064 118.254 47.12 117.774 47.12C117.278 47.12 116.83 46.996 116.43 46.748C116.038 46.5 115.726 46.16 115.494 45.728C115.27 45.288 115.158 44.792 115.158 44.24C115.158 44.136 115.162 44.036 115.17 43.94C115.178 43.844 115.19 43.748 115.206 43.652C115.286 43.196 115.446 42.796 115.686 42.452C115.926 42.108 116.234 41.84 116.61 41.648C116.994 41.456 117.422 41.36 117.894 41.36C118.414 41.36 118.87 41.476 119.262 41.708C119.654 41.94 119.958 42.268 120.174 42.692C120.39 43.108 120.498 43.608 120.498 44.192C120.498 44.24 120.498 44.288 120.498 44.336C120.498 44.384 120.494 44.432 120.486 44.48H115.77ZM122.714 49.64H121.754V41.48H122.714V49.64ZM127.334 44.24C127.334 44.832 127.21 45.344 126.962 45.776C126.714 46.208 126.382 46.54 125.966 46.772C125.558 47.004 125.102 47.12 124.598 47.12C124.142 47.12 123.738 47.004 123.386 46.772C123.042 46.54 122.77 46.208 122.57 45.776C122.378 45.344 122.282 44.832 122.282 44.24C122.282 43.64 122.378 43.128 122.57 42.704C122.77 42.272 123.042 41.94 123.386 41.708C123.738 41.476 124.142 41.36 124.598 41.36C125.102 41.36 125.558 41.476 125.966 41.708C126.382 41.94 126.714 42.272 126.962 42.704C127.21 43.128 127.334 43.64 127.334 44.24ZM126.362 44.24C126.362 43.816 126.274 43.456 126.098 43.16C125.93 42.864 125.702 42.64 125.414 42.488C125.134 42.336 124.822 42.26 124.478 42.26C124.198 42.26 123.922 42.336 123.65 42.488C123.378 42.64 123.154 42.864 122.978 43.16C122.802 43.456 122.714 43.816 122.714 44.24C122.714 44.664 122.802 45.024 122.978 45.32C123.154 45.616 123.378 45.84 123.65 45.992C123.922 46.144 124.198 46.22 124.478 46.22C124.822 46.22 125.134 46.144 125.414 45.992C125.702 45.84 125.93 45.616 126.098 45.32C126.274 45.024 126.362 44.664 126.362 44.24ZM129.222 44.12H130.818C131.202 44.12 131.546 44.16 131.85 44.24C132.154 44.32 132.394 44.46 132.57 44.66C132.746 44.86 132.834 45.14 132.834 45.5C132.834 45.916 132.694 46.272 132.414 46.568C132.142 46.856 131.69 47 131.058 47H129.222V46.16H130.818C131.178 46.16 131.442 46.084 131.61 45.932C131.786 45.78 131.874 45.596 131.874 45.38C131.874 45.268 131.85 45.168 131.802 45.08C131.762 44.992 131.698 44.912 131.61 44.84C131.53 44.768 131.422 44.716 131.286 44.684C131.158 44.644 131.002 44.624 130.818 44.624H129.222V44.12ZM129.222 44.36V43.796H130.698C130.842 43.796 130.97 43.78 131.082 43.748C131.202 43.708 131.302 43.652 131.382 43.58C131.462 43.508 131.522 43.428 131.562 43.34C131.61 43.244 131.634 43.144 131.634 43.04C131.634 42.824 131.55 42.652 131.382 42.524C131.214 42.388 130.986 42.32 130.698 42.32H129.222V41.48H130.698C131.042 41.48 131.354 41.532 131.634 41.636C131.922 41.732 132.154 41.892 132.33 42.116C132.506 42.332 132.594 42.62 132.594 42.98C132.594 43.292 132.506 43.552 132.33 43.76C132.154 43.96 131.922 44.112 131.634 44.216C131.354 44.312 131.042 44.36 130.698 44.36H129.222ZM128.658 41.48H129.618V47H128.658V41.48ZM134.227 44.48V43.664H137.911C137.879 43.376 137.799 43.124 137.671 42.908C137.551 42.684 137.379 42.512 137.155 42.392C136.939 42.264 136.671 42.2 136.351 42.2C136.031 42.2 135.739 42.268 135.475 42.404C135.211 42.54 134.999 42.736 134.839 42.992C134.687 43.24 134.611 43.536 134.611 43.88L134.587 44.24C134.587 44.664 134.659 45.024 134.803 45.32C134.947 45.616 135.151 45.84 135.415 45.992C135.679 46.144 135.991 46.22 136.351 46.22C136.623 46.22 136.863 46.18 137.071 46.1C137.287 46.012 137.479 45.896 137.647 45.752C137.815 45.6 137.959 45.424 138.079 45.224L138.859 45.716C138.675 45.996 138.471 46.244 138.247 46.46C138.023 46.668 137.751 46.832 137.431 46.952C137.111 47.064 136.711 47.12 136.231 47.12C135.735 47.12 135.287 46.996 134.887 46.748C134.495 46.5 134.183 46.16 133.951 45.728C133.727 45.288 133.615 44.792 133.615 44.24C133.615 44.136 133.619 44.036 133.627 43.94C133.635 43.844 133.647 43.748 133.663 43.652C133.743 43.196 133.903 42.796 134.143 42.452C134.383 42.108 134.691 41.84 135.067 41.648C135.451 41.456 135.879 41.36 136.351 41.36C136.871 41.36 137.327 41.476 137.719 41.708C138.111 41.94 138.415 42.268 138.631 42.692C138.847 43.108 138.955 43.608 138.955 44.192C138.955 44.24 138.955 44.288 138.955 44.336C138.955 44.384 138.951 44.432 138.943 44.48H134.227ZM141.171 49.64H140.211V41.48H141.171V49.64ZM145.791 44.24C145.791 44.832 145.667 45.344 145.419 45.776C145.171 46.208 144.839 46.54 144.423 46.772C144.015 47.004 143.559 47.12 143.055 47.12C142.599 47.12 142.195 47.004 141.843 46.772C141.499 46.54 141.227 46.208 141.027 45.776C140.835 45.344 140.739 44.832 140.739 44.24C140.739 43.64 140.835 43.128 141.027 42.704C141.227 42.272 141.499 41.94 141.843 41.708C142.195 41.476 142.599 41.36 143.055 41.36C143.559 41.36 144.015 41.476 144.423 41.708C144.839 41.94 145.171 42.272 145.419 42.704C145.667 43.128 145.791 43.64 145.791 44.24ZM144.819 44.24C144.819 43.816 144.731 43.456 144.555 43.16C144.387 42.864 144.159 42.64 143.871 42.488C143.591 42.336 143.279 42.26 142.935 42.26C142.655 42.26 142.379 42.336 142.107 42.488C141.835 42.64 141.611 42.864 141.435 43.16C141.259 43.456 141.171 43.816 141.171 44.24C141.171 44.664 141.259 45.024 141.435 45.32C141.611 45.616 141.835 45.84 142.107 45.992C142.379 46.144 142.655 46.22 142.935 46.22C143.279 46.22 143.591 46.144 143.871 45.992C144.159 45.84 144.387 45.616 144.555 45.32C144.731 45.024 144.819 44.664 144.819 44.24ZM147.679 44.54V43.64H151.759V44.54H147.679ZM151.135 41.48H152.095V47H151.135V41.48ZM147.115 41.48H148.075V47H147.115V41.48ZM153.42 44.24C153.42 43.68 153.544 43.184 153.792 42.752C154.048 42.32 154.392 41.98 154.824 41.732C155.256 41.484 155.74 41.36 156.276 41.36C156.82 41.36 157.304 41.484 157.728 41.732C158.16 41.98 158.5 42.32 158.748 42.752C159.004 43.184 159.132 43.68 159.132 44.24C159.132 44.792 159.004 45.288 158.748 45.728C158.5 46.16 158.16 46.5 157.728 46.748C157.304 46.996 156.82 47.12 156.276 47.12C155.74 47.12 155.256 46.996 154.824 46.748C154.392 46.5 154.048 46.16 153.792 45.728C153.544 45.288 153.42 44.792 153.42 44.24ZM154.392 44.24C154.392 44.624 154.472 44.964 154.632 45.26C154.8 45.556 155.024 45.792 155.304 45.968C155.592 46.136 155.916 46.22 156.276 46.22C156.636 46.22 156.956 46.136 157.236 45.968C157.524 45.792 157.748 45.556 157.908 45.26C158.076 44.964 158.16 44.624 158.16 44.24C158.16 43.856 158.076 43.516 157.908 43.22C157.748 42.916 157.524 42.68 157.236 42.512C156.956 42.344 156.636 42.26 156.276 42.26C155.916 42.26 155.592 42.344 155.304 42.512C155.024 42.68 154.8 42.916 154.632 43.22C154.472 43.516 154.392 43.856 154.392 44.24ZM160.511 41.48H163.451V42.38H161.471V47H160.511V41.48ZM163.756 44.24C163.756 43.68 163.88 43.184 164.128 42.752C164.384 42.32 164.728 41.98 165.16 41.732C165.592 41.484 166.076 41.36 166.612 41.36C167.156 41.36 167.64 41.484 168.064 41.732C168.496 41.98 168.836 42.32 169.084 42.752C169.34 43.184 169.468 43.68 169.468 44.24C169.468 44.792 169.34 45.288 169.084 45.728C168.836 46.16 168.496 46.5 168.064 46.748C167.64 46.996 167.156 47.12 166.612 47.12C166.076 47.12 165.592 46.996 165.16 46.748C164.728 46.5 164.384 46.16 164.128 45.728C163.88 45.288 163.756 44.792 163.756 44.24ZM164.728 44.24C164.728 44.624 164.808 44.964 164.968 45.26C165.136 45.556 165.36 45.792 165.64 45.968C165.928 46.136 166.252 46.22 166.612 46.22C166.972 46.22 167.292 46.136 167.572 45.968C167.86 45.792 168.084 45.556 168.244 45.26C168.412 44.964 168.496 44.624 168.496 44.24C168.496 43.856 168.412 43.516 168.244 43.22C168.084 42.916 167.86 42.68 167.572 42.512C167.292 42.344 166.972 42.26 166.612 42.26C166.252 42.26 165.928 42.344 165.64 42.512C165.36 42.68 165.136 42.916 164.968 43.22C164.808 43.516 164.728 43.856 164.728 44.24ZM178.884 41.48V47H177.924V42.38H175.344V47H174.384V41.48H178.884ZM181.589 49.64H180.629V41.48H181.589V49.64ZM186.209 44.24C186.209 44.832 186.085 45.344 185.837 45.776C185.589 46.208 185.257 46.54 184.841 46.772C184.433 47.004 183.977 47.12 183.473 47.12C183.017 47.12 182.613 47.004 182.261 46.772C181.917 46.54 181.645 46.208 181.445 45.776C181.253 45.344 181.157 44.832 181.157 44.24C181.157 43.64 181.253 43.128 181.445 42.704C181.645 42.272 181.917 41.94 182.261 41.708C182.613 41.476 183.017 41.36 183.473 41.36C183.977 41.36 184.433 41.476 184.841 41.708C185.257 41.94 185.589 42.272 185.837 42.704C186.085 43.128 186.209 43.64 186.209 44.24ZM185.237 44.24C185.237 43.816 185.149 43.456 184.973 43.16C184.805 42.864 184.577 42.64 184.289 42.488C184.009 42.336 183.697 42.26 183.353 42.26C183.073 42.26 182.797 42.336 182.525 42.488C182.253 42.64 182.029 42.864 181.853 43.16C181.677 43.456 181.589 43.816 181.589 44.24C181.589 44.664 181.677 45.024 181.853 45.32C182.029 45.616 182.253 45.84 182.525 45.992C182.797 46.144 183.073 46.22 183.353 46.22C183.697 46.22 184.009 46.144 184.289 45.992C184.577 45.84 184.805 45.616 184.973 45.32C185.149 45.024 185.237 44.664 185.237 44.24ZM187.053 44.24C187.053 43.68 187.177 43.184 187.425 42.752C187.681 42.32 188.025 41.98 188.457 41.732C188.889 41.484 189.373 41.36 189.909 41.36C190.453 41.36 190.937 41.484 191.361 41.732C191.793 41.98 192.133 42.32 192.381 42.752C192.637 43.184 192.765 43.68 192.765 44.24C192.765 44.792 192.637 45.288 192.381 45.728C192.133 46.16 191.793 46.5 191.361 46.748C190.937 46.996 190.453 47.12 189.909 47.12C189.373 47.12 188.889 46.996 188.457 46.748C188.025 46.5 187.681 46.16 187.425 45.728C187.177 45.288 187.053 44.792 187.053 44.24ZM188.025 44.24C188.025 44.624 188.105 44.964 188.265 45.26C188.433 45.556 188.657 45.792 188.937 45.968C189.225 46.136 189.549 46.22 189.909 46.22C190.269 46.22 190.589 46.136 190.869 45.968C191.157 45.792 191.381 45.556 191.541 45.26C191.709 44.964 191.793 44.624 191.793 44.24C191.793 43.856 191.709 43.516 191.541 43.22C191.381 42.916 191.157 42.68 190.869 42.512C190.589 42.344 190.269 42.26 189.909 42.26C189.549 42.26 189.225 42.344 188.937 42.512C188.657 42.68 188.433 42.916 188.265 43.22C188.105 43.516 188.025 43.856 188.025 44.24ZM194.144 41.48H197.084V42.38H195.104V47H194.144V41.48ZM198.945 49.64H197.985V41.48H198.945V49.64ZM203.565 44.24C203.565 44.832 203.441 45.344 203.193 45.776C202.945 46.208 202.613 46.54 202.197 46.772C201.789 47.004 201.333 47.12 200.829 47.12C200.373 47.12 199.969 47.004 199.617 46.772C199.273 46.54 199.001 46.208 198.801 45.776C198.609 45.344 198.513 44.832 198.513 44.24C198.513 43.64 198.609 43.128 198.801 42.704C199.001 42.272 199.273 41.94 199.617 41.708C199.969 41.476 200.373 41.36 200.829 41.36C201.333 41.36 201.789 41.476 202.197 41.708C202.613 41.94 202.945 42.272 203.193 42.704C203.441 43.128 203.565 43.64 203.565 44.24ZM202.593 44.24C202.593 43.816 202.505 43.456 202.329 43.16C202.161 42.864 201.933 42.64 201.645 42.488C201.365 42.336 201.053 42.26 200.709 42.26C200.429 42.26 200.153 42.336 199.881 42.488C199.609 42.64 199.385 42.864 199.209 43.16C199.033 43.456 198.945 43.816 198.945 44.24C198.945 44.664 199.033 45.024 199.209 45.32C199.385 45.616 199.609 45.84 199.881 45.992C200.153 46.144 200.429 46.22 200.709 46.22C201.053 46.22 201.365 46.144 201.645 45.992C201.933 45.84 202.161 45.616 202.329 45.32C202.505 45.024 202.593 44.664 202.593 44.24ZM205.32 45.38C205.32 45.572 205.372 45.736 205.476 45.872C205.58 46 205.72 46.1 205.896 46.172C206.072 46.236 206.268 46.268 206.484 46.268C206.804 46.268 207.088 46.22 207.336 46.124C207.584 46.028 207.776 45.876 207.912 45.668C208.056 45.46 208.128 45.184 208.128 44.84L208.32 45.44C208.32 45.792 208.224 46.096 208.032 46.352C207.848 46.6 207.6 46.792 207.288 46.928C206.976 47.056 206.628 47.12 206.244 47.12C205.9 47.12 205.584 47.056 205.296 46.928C205.008 46.8 204.776 46.612 204.6 46.364C204.432 46.108 204.348 45.792 204.348 45.416C204.348 45.024 204.444 44.692 204.636 44.42C204.828 44.148 205.1 43.94 205.452 43.796C205.804 43.644 206.22 43.568 206.7 43.568C207.052 43.568 207.352 43.616 207.6 43.712C207.856 43.8 208.06 43.904 208.212 44.024C208.364 44.136 208.468 44.228 208.524 44.3V44.864C208.252 44.672 207.976 44.532 207.696 44.444C207.416 44.348 207.1 44.3 206.748 44.3C206.428 44.3 206.16 44.344 205.944 44.432C205.736 44.52 205.58 44.644 205.476 44.804C205.372 44.964 205.32 45.156 205.32 45.38ZM205.32 42.776L204.852 42.044C205.06 41.892 205.34 41.74 205.692 41.588C206.044 41.436 206.468 41.36 206.964 41.36C207.388 41.36 207.756 41.428 208.068 41.564C208.388 41.692 208.636 41.88 208.812 42.128C208.996 42.376 209.088 42.68 209.088 43.04V47H208.128V43.04C208.128 42.76 208.008 42.552 207.768 42.416C207.536 42.272 207.268 42.2 206.964 42.2C206.7 42.2 206.46 42.236 206.244 42.308C206.028 42.372 205.84 42.452 205.68 42.548C205.528 42.636 205.408 42.712 205.32 42.776ZM215.957 47L215.057 42.62L215.597 41.06L217.037 47H215.957ZM213.077 46.172L215.597 41.06L215.717 42.98L213.437 47.372L213.077 46.172ZM213.437 47.372L211.193 42.98L211.312 41.06L213.797 46.172L213.437 47.372ZM209.873 47L211.312 41.06L211.853 42.62L210.953 47H209.873ZM223.246 47L222.346 42.62L222.886 41.06L224.326 47H223.246ZM220.366 46.172L222.886 41.06L223.006 42.98L220.726 47.372L220.366 46.172ZM220.726 47.372L218.482 42.98L218.602 41.06L221.086 46.172L220.726 47.372ZM217.162 47L218.602 41.06L219.142 42.62L218.242 47H217.162ZM229.911 42.44L225.351 47.42L225.411 46.04L229.971 41.06L229.911 42.44ZM226.311 41.48V46.1L225.351 47.42V41.48H226.311ZM229.971 41.06V47H229.011V42.38L229.971 41.06ZM232.73 49.64H231.77V41.48H232.73V49.64ZM237.35 44.24C237.35 44.832 237.226 45.344 236.978 45.776C236.73 46.208 236.398 46.54 235.982 46.772C235.574 47.004 235.118 47.12 234.614 47.12C234.158 47.12 233.754 47.004 233.402 46.772C233.058 46.54 232.786 46.208 232.586 45.776C232.394 45.344 232.298 44.832 232.298 44.24C232.298 43.64 232.394 43.128 232.586 42.704C232.786 42.272 233.058 41.94 233.402 41.708C233.754 41.476 234.158 41.36 234.614 41.36C235.118 41.36 235.574 41.476 235.982 41.708C236.398 41.94 236.73 42.272 236.978 42.704C237.226 43.128 237.35 43.64 237.35 44.24ZM236.378 44.24C236.378 43.816 236.29 43.456 236.114 43.16C235.946 42.864 235.718 42.64 235.43 42.488C235.15 42.336 234.838 42.26 234.494 42.26C234.214 42.26 233.938 42.336 233.666 42.488C233.394 42.64 233.17 42.864 232.994 43.16C232.818 43.456 232.73 43.816 232.73 44.24C232.73 44.664 232.818 45.024 232.994 45.32C233.17 45.616 233.394 45.84 233.666 45.992C233.938 46.144 234.214 46.22 234.494 46.22C234.838 46.22 235.15 46.144 235.43 45.992C235.718 45.84 235.946 45.616 236.114 45.32C236.29 45.024 236.378 44.664 236.378 44.24ZM238.193 44.24C238.193 43.68 238.317 43.184 238.565 42.752C238.821 42.32 239.165 41.98 239.597 41.732C240.029 41.484 240.513 41.36 241.049 41.36C241.593 41.36 242.077 41.484 242.501 41.732C242.933 41.98 243.273 42.32 243.521 42.752C243.777 43.184 243.905 43.68 243.905 44.24C243.905 44.792 243.777 45.288 243.521 45.728C243.273 46.16 242.933 46.5 242.501 46.748C242.077 46.996 241.593 47.12 241.049 47.12C240.513 47.12 240.029 46.996 239.597 46.748C239.165 46.5 238.821 46.16 238.565 45.728C238.317 45.288 238.193 44.792 238.193 44.24ZM239.165 44.24C239.165 44.624 239.245 44.964 239.405 45.26C239.573 45.556 239.797 45.792 240.077 45.968C240.365 46.136 240.689 46.22 241.049 46.22C241.409 46.22 241.729 46.136 242.009 45.968C242.297 45.792 242.521 45.556 242.681 45.26C242.849 44.964 242.933 44.624 242.933 44.24C242.933 43.856 242.849 43.516 242.681 43.22C242.521 42.916 242.297 42.68 242.009 42.512C241.729 42.344 241.409 42.26 241.049 42.26C240.689 42.26 240.365 42.344 240.077 42.512C239.797 42.68 239.573 42.916 239.405 43.22C239.245 43.516 239.165 43.856 239.165 44.24ZM245.788 44.12H247.384C247.768 44.12 248.112 44.16 248.416 44.24C248.72 44.32 248.96 44.46 249.136 44.66C249.312 44.86 249.4 45.14 249.4 45.5C249.4 45.916 249.26 46.272 248.98 46.568C248.708 46.856 248.256 47 247.624 47H245.788V46.16H247.384C247.744 46.16 248.008 46.084 248.176 45.932C248.352 45.78 248.44 45.596 248.44 45.38C248.44 45.268 248.416 45.168 248.368 45.08C248.328 44.992 248.264 44.912 248.176 44.84C248.096 44.768 247.988 44.716 247.852 44.684C247.724 44.644 247.568 44.624 247.384 44.624H245.788V44.12ZM245.788 44.36V43.796H247.264C247.408 43.796 247.536 43.78 247.648 43.748C247.768 43.708 247.868 43.652 247.948 43.58C248.028 43.508 248.088 43.428 248.128 43.34C248.176 43.244 248.2 43.144 248.2 43.04C248.2 42.824 248.116 42.652 247.948 42.524C247.78 42.388 247.552 42.32 247.264 42.32H245.788V41.48H247.264C247.608 41.48 247.92 41.532 248.2 41.636C248.488 41.732 248.72 41.892 248.896 42.116C249.072 42.332 249.16 42.62 249.16 42.98C249.16 43.292 249.072 43.552 248.896 43.76C248.72 43.96 248.488 44.112 248.2 44.216C247.92 44.312 247.608 44.36 247.264 44.36H245.788ZM245.224 41.48H246.184V47H245.224V41.48ZM251.094 45.38C251.094 45.572 251.146 45.736 251.25 45.872C251.354 46 251.494 46.1 251.67 46.172C251.846 46.236 252.042 46.268 252.258 46.268C252.578 46.268 252.862 46.22 253.11 46.124C253.358 46.028 253.55 45.876 253.686 45.668C253.83 45.46 253.902 45.184 253.902 44.84L254.094 45.44C254.094 45.792 253.998 46.096 253.806 46.352C253.622 46.6 253.374 46.792 253.062 46.928C252.75 47.056 252.402 47.12 252.018 47.12C251.674 47.12 251.358 47.056 251.07 46.928C250.782 46.8 250.55 46.612 250.374 46.364C250.206 46.108 250.122 45.792 250.122 45.416C250.122 45.024 250.218 44.692 250.41 44.42C250.602 44.148 250.874 43.94 251.226 43.796C251.578 43.644 251.994 43.568 252.474 43.568C252.826 43.568 253.126 43.616 253.374 43.712C253.63 43.8 253.834 43.904 253.986 44.024C254.138 44.136 254.242 44.228 254.298 44.3V44.864C254.026 44.672 253.75 44.532 253.47 44.444C253.19 44.348 252.874 44.3 252.522 44.3C252.202 44.3 251.934 44.344 251.718 44.432C251.51 44.52 251.354 44.644 251.25 44.804C251.146 44.964 251.094 45.156 251.094 45.38ZM251.094 42.776L250.626 42.044C250.834 41.892 251.114 41.74 251.466 41.588C251.818 41.436 252.242 41.36 252.738 41.36C253.162 41.36 253.53 41.428 253.842 41.564C254.162 41.692 254.41 41.88 254.586 42.128C254.77 42.376 254.862 42.68 254.862 43.04V47H253.902V43.04C253.902 42.76 253.782 42.552 253.542 42.416C253.31 42.272 253.042 42.2 252.738 42.2C252.474 42.2 252.234 42.236 252.018 42.308C251.802 42.372 251.614 42.452 251.454 42.548C251.302 42.636 251.182 42.712 251.094 42.776ZM257.05 44.54V43.64H261.13V44.54H257.05ZM260.506 41.48H261.466V47H260.506V41.48ZM256.486 41.48H257.446V47H256.486V41.48ZM267.891 42.44L263.331 47.42L263.391 46.04L267.951 41.06L267.891 42.44ZM264.291 41.48V46.1L263.331 47.42V41.48H264.291ZM267.951 41.06V47H266.991V42.38L267.951 41.06ZM270.602 47H269.546L271.586 44.12H272.642L270.602 47ZM274.106 47H273.146V41.48H274.106V47ZM273.542 43.952V44.792H271.826C271.45 44.792 271.106 44.736 270.794 44.624C270.49 44.512 270.25 44.336 270.074 44.096C269.898 43.848 269.81 43.528 269.81 43.136C269.81 42.736 269.898 42.416 270.074 42.176C270.25 41.936 270.49 41.76 270.794 41.648C271.106 41.536 271.45 41.48 271.826 41.48H273.542V42.32H271.826C271.594 42.32 271.398 42.352 271.238 42.416C271.086 42.472 270.97 42.56 270.89 42.68C270.81 42.8 270.77 42.952 270.77 43.136C270.77 43.32 270.81 43.472 270.89 43.592C270.97 43.712 271.086 43.804 271.238 43.868C271.398 43.924 271.594 43.952 271.826 43.952H273.542ZM276.487 45.68L277.447 46.04L276.127 49.04L275.431 48.788L276.487 45.68ZM108.992 62.38C108.992 62.572 109.044 62.736 109.148 62.872C109.252 63 109.392 63.1 109.568 63.172C109.744 63.236 109.94 63.268 110.156 63.268C110.476 63.268 110.76 63.22 111.008 63.124C111.256 63.028 111.448 62.876 111.584 62.668C111.728 62.46 111.8 62.184 111.8 61.84L111.992 62.44C111.992 62.792 111.896 63.096 111.704 63.352C111.52 63.6 111.272 63.792 110.96 63.928C110.648 64.056 110.3 64.12 109.916 64.12C109.572 64.12 109.256 64.056 108.968 63.928C108.68 63.8 108.448 63.612 108.272 63.364C108.104 63.108 108.02 62.792 108.02 62.416C108.02 62.024 108.116 61.692 108.308 61.42C108.5 61.148 108.772 60.94 109.124 60.796C109.476 60.644 109.892 60.568 110.372 60.568C110.724 60.568 111.024 60.616 111.272 60.712C111.528 60.8 111.732 60.904 111.884 61.024C112.036 61.136 112.14 61.228 112.196 61.3V61.864C111.924 61.672 111.648 61.532 111.368 61.444C111.088 61.348 110.772 61.3 110.42 61.3C110.1 61.3 109.832 61.344 109.616 61.432C109.408 61.52 109.252 61.644 109.148 61.804C109.044 61.964 108.992 62.156 108.992 62.38ZM108.992 59.776L108.524 59.044C108.732 58.892 109.012 58.74 109.364 58.588C109.716 58.436 110.14 58.36 110.636 58.36C111.06 58.36 111.428 58.428 111.74 58.564C112.06 58.692 112.308 58.88 112.484 59.128C112.668 59.376 112.76 59.68 112.76 60.04V64H111.8V60.04C111.8 59.76 111.68 59.552 111.44 59.416C111.208 59.272 110.94 59.2 110.636 59.2C110.372 59.2 110.132 59.236 109.916 59.308C109.7 59.372 109.512 59.452 109.352 59.548C109.2 59.636 109.08 59.712 108.992 59.776ZM117.142 58.48H120.382V59.38H117.142V58.48ZM118.282 58.72H119.242V64H118.282V58.72ZM121.777 62.38C121.777 62.572 121.829 62.736 121.933 62.872C122.037 63 122.177 63.1 122.353 63.172C122.529 63.236 122.725 63.268 122.941 63.268C123.261 63.268 123.545 63.22 123.793 63.124C124.041 63.028 124.233 62.876 124.369 62.668C124.513 62.46 124.585 62.184 124.585 61.84L124.777 62.44C124.777 62.792 124.681 63.096 124.489 63.352C124.305 63.6 124.057 63.792 123.745 63.928C123.433 64.056 123.085 64.12 122.701 64.12C122.357 64.12 122.041 64.056 121.753 63.928C121.465 63.8 121.233 63.612 121.057 63.364C120.889 63.108 120.805 62.792 120.805 62.416C120.805 62.024 120.901 61.692 121.093 61.42C121.285 61.148 121.557 60.94 121.909 60.796C122.261 60.644 122.677 60.568 123.157 60.568C123.509 60.568 123.809 60.616 124.057 60.712C124.313 60.8 124.517 60.904 124.669 61.024C124.821 61.136 124.925 61.228 124.981 61.3V61.864C124.709 61.672 124.433 61.532 124.153 61.444C123.873 61.348 123.557 61.3 123.205 61.3C122.885 61.3 122.617 61.344 122.401 61.432C122.193 61.52 122.037 61.644 121.933 61.804C121.829 61.964 121.777 62.156 121.777 62.38ZM121.777 59.776L121.309 59.044C121.517 58.892 121.797 58.74 122.149 58.588C122.501 58.436 122.925 58.36 123.421 58.36C123.845 58.36 124.213 58.428 124.525 58.564C124.845 58.692 125.093 58.88 125.269 59.128C125.453 59.376 125.545 59.68 125.545 60.04V64H124.585V60.04C124.585 59.76 124.465 59.552 124.225 59.416C123.993 59.272 123.725 59.2 123.421 59.2C123.157 59.2 122.917 59.236 122.701 59.308C122.485 59.372 122.297 59.452 122.137 59.548C121.985 59.636 121.865 59.712 121.777 59.776ZM127.11 58.48H128.07V64H127.11V58.48ZM130.11 58.48H131.31L128.91 60.76L131.55 64H130.35L127.71 60.76L130.11 58.48ZM138.578 58.48H139.778L137.258 60.88L140.018 64H138.818L136.178 60.76L138.578 58.48ZM136.418 58.48V64H135.518V58.48H136.418ZM133.358 58.48L135.758 60.76L133.118 64H131.918L134.678 60.88L132.158 58.48H133.358ZM140.872 61.48V60.664H144.556C144.524 60.376 144.444 60.124 144.316 59.908C144.196 59.684 144.024 59.512 143.8 59.392C143.584 59.264 143.316 59.2 142.996 59.2C142.676 59.2 142.384 59.268 142.12 59.404C141.856 59.54 141.644 59.736 141.484 59.992C141.332 60.24 141.256 60.536 141.256 60.88L141.232 61.24C141.232 61.664 141.304 62.024 141.448 62.32C141.592 62.616 141.796 62.84 142.06 62.992C142.324 63.144 142.636 63.22 142.996 63.22C143.268 63.22 143.508 63.18 143.716 63.1C143.932 63.012 144.124 62.896 144.292 62.752C144.46 62.6 144.604 62.424 144.724 62.224L145.504 62.716C145.32 62.996 145.116 63.244 144.892 63.46C144.668 63.668 144.396 63.832 144.076 63.952C143.756 64.064 143.356 64.12 142.876 64.12C142.38 64.12 141.932 63.996 141.532 63.748C141.14 63.5 140.828 63.16 140.596 62.728C140.372 62.288 140.26 61.792 140.26 61.24C140.26 61.136 140.264 61.036 140.272 60.94C140.28 60.844 140.292 60.748 140.308 60.652C140.388 60.196 140.548 59.796 140.788 59.452C141.028 59.108 141.336 58.84 141.712 58.648C142.096 58.456 142.524 58.36 142.996 58.36C143.516 58.36 143.972 58.476 144.364 58.708C144.756 58.94 145.06 59.268 145.276 59.692C145.492 60.108 145.6 60.608 145.6 61.192C145.6 61.24 145.6 61.288 145.6 61.336C145.6 61.384 145.596 61.432 145.588 61.48H140.872ZM150.033 61.24C150.033 60.68 150.157 60.184 150.405 59.752C150.661 59.32 151.005 58.98 151.437 58.732C151.869 58.484 152.353 58.36 152.889 58.36C153.433 58.36 153.917 58.484 154.341 58.732C154.773 58.98 155.113 59.32 155.361 59.752C155.617 60.184 155.745 60.68 155.745 61.24C155.745 61.792 155.617 62.288 155.361 62.728C155.113 63.16 154.773 63.5 154.341 63.748C153.917 63.996 153.433 64.12 152.889 64.12C152.353 64.12 151.869 63.996 151.437 63.748C151.005 63.5 150.661 63.16 150.405 62.728C150.157 62.288 150.033 61.792 150.033 61.24ZM151.005 61.24C151.005 61.624 151.085 61.964 151.245 62.26C151.413 62.556 151.637 62.792 151.917 62.968C152.205 63.136 152.529 63.22 152.889 63.22C153.249 63.22 153.569 63.136 153.849 62.968C154.137 62.792 154.361 62.556 154.521 62.26C154.689 61.964 154.773 61.624 154.773 61.24C154.773 60.856 154.689 60.516 154.521 60.22C154.361 59.916 154.137 59.68 153.849 59.512C153.569 59.344 153.249 59.26 152.889 59.26C152.529 59.26 152.205 59.344 151.917 59.512C151.637 59.68 151.413 59.916 151.245 60.22C151.085 60.516 151.005 60.856 151.005 61.24ZM156.224 58.48H159.464V59.38H156.224V58.48ZM157.364 58.72H158.324V64H157.364V58.72ZM162.713 60.136L161.093 63.64H160.013L162.713 58.06L165.413 63.64H164.333L162.713 60.136ZM165.173 64H160.312V65.08H159.293V63.1H166.133V65.08H165.173V64ZM167.708 61.48V60.664H171.392C171.36 60.376 171.28 60.124 171.152 59.908C171.032 59.684 170.86 59.512 170.636 59.392C170.42 59.264 170.152 59.2 169.832 59.2C169.512 59.2 169.22 59.268 168.956 59.404C168.692 59.54 168.48 59.736 168.32 59.992C168.168 60.24 168.092 60.536 168.092 60.88L168.068 61.24C168.068 61.664 168.14 62.024 168.284 62.32C168.428 62.616 168.632 62.84 168.896 62.992C169.16 63.144 169.472 63.22 169.832 63.22C170.104 63.22 170.344 63.18 170.552 63.1C170.768 63.012 170.96 62.896 171.128 62.752C171.296 62.6 171.44 62.424 171.56 62.224L172.34 62.716C172.156 62.996 171.952 63.244 171.728 63.46C171.504 63.668 171.232 63.832 170.912 63.952C170.592 64.064 170.192 64.12 169.712 64.12C169.216 64.12 168.768 63.996 168.368 63.748C167.976 63.5 167.664 63.16 167.432 62.728C167.208 62.288 167.096 61.792 167.096 61.24C167.096 61.136 167.1 61.036 167.108 60.94C167.116 60.844 167.128 60.748 167.144 60.652C167.224 60.196 167.384 59.796 167.624 59.452C167.864 59.108 168.172 58.84 168.548 58.648C168.932 58.456 169.36 58.36 169.832 58.36C170.352 58.36 170.808 58.476 171.2 58.708C171.592 58.94 171.896 59.268 172.112 59.692C172.328 60.108 172.436 60.608 172.436 61.192C172.436 61.24 172.436 61.288 172.436 61.336C172.436 61.384 172.432 61.432 172.424 61.48H167.708ZM178.588 58.48V64H177.628V59.38H174.808V62.08C174.808 62.512 174.74 62.872 174.604 63.16C174.476 63.44 174.276 63.652 174.004 63.796C173.732 63.932 173.388 64 172.972 64V63.124C173.212 63.124 173.416 63.048 173.584 62.896C173.76 62.744 173.848 62.472 173.848 62.08V58.48H178.588ZM180.443 58.48H181.403V64H180.443V58.48ZM181.007 61.408V60.568H182.723C183.291 60.568 183.767 60.708 184.151 60.988C184.543 61.26 184.739 61.692 184.739 62.284C184.739 62.676 184.651 63 184.475 63.256C184.299 63.512 184.059 63.7 183.755 63.82C183.451 63.94 183.107 64 182.723 64H181.007V63.16H182.723C182.955 63.16 183.147 63.128 183.299 63.064C183.459 62.992 183.579 62.892 183.659 62.764C183.739 62.628 183.779 62.468 183.779 62.284C183.779 62.004 183.691 61.788 183.515 61.636C183.339 61.484 183.075 61.408 182.723 61.408H181.007ZM186.808 61.54V60.64H190.888V61.54H186.808ZM190.264 58.48H191.224V64H190.264V58.48ZM186.244 58.48H187.204V64H186.244V58.48ZM192.549 61.24C192.549 60.68 192.673 60.184 192.921 59.752C193.177 59.32 193.521 58.98 193.953 58.732C194.385 58.484 194.869 58.36 195.405 58.36C195.949 58.36 196.433 58.484 196.857 58.732C197.289 58.98 197.629 59.32 197.877 59.752C198.133 60.184 198.261 60.68 198.261 61.24C198.261 61.792 198.133 62.288 197.877 62.728C197.629 63.16 197.289 63.5 196.857 63.748C196.433 63.996 195.949 64.12 195.405 64.12C194.869 64.12 194.385 63.996 193.953 63.748C193.521 63.5 193.177 63.16 192.921 62.728C192.673 62.288 192.549 61.792 192.549 61.24ZM193.521 61.24C193.521 61.624 193.601 61.964 193.761 62.26C193.929 62.556 194.153 62.792 194.433 62.968C194.721 63.136 195.045 63.22 195.405 63.22C195.765 63.22 196.085 63.136 196.365 62.968C196.653 62.792 196.877 62.556 197.037 62.26C197.205 61.964 197.289 61.624 197.289 61.24C197.289 60.856 197.205 60.516 197.037 60.22C196.877 59.916 196.653 59.68 196.365 59.512C196.085 59.344 195.765 59.26 195.405 59.26C195.045 59.26 194.721 59.344 194.433 59.512C194.153 59.68 193.929 59.916 193.761 60.22C193.601 60.516 193.521 60.856 193.521 61.24ZM199.64 58.48H202.58V59.38H200.6V64H199.64V58.48ZM202.885 61.24C202.885 60.68 203.009 60.184 203.257 59.752C203.513 59.32 203.857 58.98 204.289 58.732C204.721 58.484 205.205 58.36 205.741 58.36C206.285 58.36 206.769 58.484 207.193 58.732C207.625 58.98 207.965 59.32 208.213 59.752C208.469 60.184 208.597 60.68 208.597 61.24C208.597 61.792 208.469 62.288 208.213 62.728C207.965 63.16 207.625 63.5 207.193 63.748C206.769 63.996 206.285 64.12 205.741 64.12C205.205 64.12 204.721 63.996 204.289 63.748C203.857 63.5 203.513 63.16 203.257 62.728C203.009 62.288 202.885 61.792 202.885 61.24ZM203.857 61.24C203.857 61.624 203.937 61.964 204.097 62.26C204.265 62.556 204.489 62.792 204.769 62.968C205.057 63.136 205.381 63.22 205.741 63.22C206.101 63.22 206.421 63.136 206.701 62.968C206.989 62.792 207.213 62.556 207.373 62.26C207.541 61.964 207.625 61.624 207.625 61.24C207.625 60.856 207.541 60.516 207.373 60.22C207.213 59.916 206.989 59.68 206.701 59.512C206.421 59.344 206.101 59.26 205.741 59.26C205.381 59.26 205.057 59.344 204.769 59.512C204.489 59.68 204.265 59.916 204.097 60.22C203.937 60.516 203.857 60.856 203.857 61.24ZM215.649 57.28H216.609V65.2H215.649V57.28ZM213.033 61.24C213.033 60.68 213.161 60.184 213.417 59.752C213.673 59.32 214.033 58.98 214.497 58.732C214.969 58.484 215.513 58.36 216.129 58.36C216.753 58.36 217.297 58.484 217.761 58.732C218.225 58.98 218.585 59.32 218.841 59.752C219.097 60.184 219.225 60.68 219.225 61.24C219.225 61.792 219.097 62.288 218.841 62.728C218.585 63.16 218.225 63.5 217.761 63.748C217.297 63.996 216.753 64.12 216.129 64.12C215.513 64.12 214.969 63.996 214.497 63.748C214.033 63.5 213.673 63.16 213.417 62.728C213.161 62.288 213.033 61.792 213.033 61.24ZM214.005 61.24C214.005 61.624 214.089 61.964 214.257 62.26C214.433 62.556 214.677 62.792 214.989 62.968C215.309 63.136 215.689 63.22 216.129 63.22C216.569 63.22 216.945 63.136 217.257 62.968C217.577 62.792 217.821 62.556 217.989 62.26C218.165 61.964 218.253 61.624 218.253 61.24C218.253 60.856 218.165 60.516 217.989 60.22C217.821 59.916 217.577 59.68 217.257 59.512C216.945 59.344 216.569 59.26 216.129 59.26C215.689 59.26 215.309 59.344 214.989 59.512C214.677 59.68 214.433 59.916 214.257 60.22C214.089 60.516 214.005 60.856 214.005 61.24ZM224.925 58.48L221.325 66.64H220.245L221.757 63.22L219.645 58.48H220.785L222.537 62.8L222.141 62.752L223.845 58.48H224.925ZM226.394 61.54V60.64H230.474V61.54H226.394ZM229.85 58.48H230.81V64H229.85V58.48ZM225.83 58.48H226.79V64H225.83V58.48ZM232.555 58.48H233.515V64H232.555V58.48ZM235.555 58.48H236.755L234.355 60.76L236.995 64H235.795L233.155 60.76L235.555 58.48ZM242.4 63.1H243.36V65.08H242.52V64H237.9V58.48H238.86V63.1H241.44V58.48H242.4V63.1ZM249.305 59.44L244.745 64.42L244.805 63.04L249.365 58.06L249.305 59.44ZM245.705 58.48V63.1L244.745 64.42V58.48H245.705ZM249.365 58.06V64H248.405V59.38L249.365 58.06ZM250.744 61.24C250.744 60.68 250.868 60.184 251.116 59.752C251.372 59.32 251.716 58.98 252.148 58.732C252.58 58.484 253.064 58.36 253.6 58.36C254.144 58.36 254.628 58.484 255.052 58.732C255.484 58.98 255.824 59.32 256.072 59.752C256.328 60.184 256.456 60.68 256.456 61.24C256.456 61.792 256.328 62.288 256.072 62.728C255.824 63.16 255.484 63.5 255.052 63.748C254.628 63.996 254.144 64.12 253.6 64.12C253.064 64.12 252.58 63.996 252.148 63.748C251.716 63.5 251.372 63.16 251.116 62.728C250.868 62.288 250.744 61.792 250.744 61.24ZM251.716 61.24C251.716 61.624 251.796 61.964 251.956 62.26C252.124 62.556 252.348 62.792 252.628 62.968C252.916 63.136 253.24 63.22 253.6 63.22C253.96 63.22 254.28 63.136 254.56 62.968C254.848 62.792 255.072 62.556 255.232 62.26C255.4 61.964 255.484 61.624 255.484 61.24C255.484 60.856 255.4 60.516 255.232 60.22C255.072 59.916 254.848 59.68 254.56 59.512C254.28 59.344 253.96 59.26 253.6 59.26C253.24 59.26 252.916 59.344 252.628 59.512C252.348 59.68 252.124 59.916 251.956 60.22C251.796 60.516 251.716 60.856 251.716 61.24ZM258.339 61.54V60.64H262.419V61.54H258.339ZM261.795 58.48H262.755V64H261.795V58.48ZM257.775 58.48H258.735V64H257.775V58.48ZM264.992 62.38C264.992 62.572 265.044 62.736 265.148 62.872C265.252 63 265.392 63.1 265.568 63.172C265.744 63.236 265.94 63.268 266.156 63.268C266.476 63.268 266.76 63.22 267.008 63.124C267.256 63.028 267.448 62.876 267.584 62.668C267.728 62.46 267.8 62.184 267.8 61.84L267.992 62.44C267.992 62.792 267.896 63.096 267.704 63.352C267.52 63.6 267.272 63.792 266.96 63.928C266.648 64.056 266.3 64.12 265.916 64.12C265.572 64.12 265.256 64.056 264.968 63.928C264.68 63.8 264.448 63.612 264.272 63.364C264.104 63.108 264.02 62.792 264.02 62.416C264.02 62.024 264.116 61.692 264.308 61.42C264.5 61.148 264.772 60.94 265.124 60.796C265.476 60.644 265.892 60.568 266.372 60.568C266.724 60.568 267.024 60.616 267.272 60.712C267.528 60.8 267.732 60.904 267.884 61.024C268.036 61.136 268.14 61.228 268.196 61.3V61.864C267.924 61.672 267.648 61.532 267.368 61.444C267.088 61.348 266.772 61.3 266.42 61.3C266.1 61.3 265.832 61.344 265.616 61.432C265.408 61.52 265.252 61.644 265.148 61.804C265.044 61.964 264.992 62.156 264.992 62.38ZM264.992 59.776L264.524 59.044C264.732 58.892 265.012 58.74 265.364 58.588C265.716 58.436 266.14 58.36 266.636 58.36C267.06 58.36 267.428 58.428 267.74 58.564C268.06 58.692 268.308 58.88 268.484 59.128C268.668 59.376 268.76 59.68 268.76 60.04V64H267.8V60.04C267.8 59.76 267.68 59.552 267.44 59.416C267.208 59.272 266.94 59.2 266.636 59.2C266.372 59.2 266.132 59.236 265.916 59.308C265.7 59.372 265.512 59.452 265.352 59.548C265.2 59.636 265.08 59.712 264.992 59.776ZM275.22 58.48V64H274.26V59.38H271.44V62.08C271.44 62.512 271.372 62.872 271.236 63.16C271.108 63.44 270.908 63.652 270.636 63.796C270.364 63.932 270.02 64 269.604 64V63.124C269.844 63.124 270.048 63.048 270.216 62.896C270.392 62.744 270.48 62.472 270.48 62.08V58.48H275.22ZM277.508 62.38C277.508 62.572 277.56 62.736 277.664 62.872C277.768 63 277.908 63.1 278.084 63.172C278.26 63.236 278.456 63.268 278.672 63.268C278.992 63.268 279.276 63.22 279.524 63.124C279.772 63.028 279.964 62.876 280.1 62.668C280.244 62.46 280.316 62.184 280.316 61.84L280.508 62.44C280.508 62.792 280.412 63.096 280.22 63.352C280.036 63.6 279.788 63.792 279.476 63.928C279.164 64.056 278.816 64.12 278.432 64.12C278.088 64.12 277.772 64.056 277.484 63.928C277.196 63.8 276.964 63.612 276.788 63.364C276.62 63.108 276.536 62.792 276.536 62.416C276.536 62.024 276.632 61.692 276.824 61.42C277.016 61.148 277.288 60.94 277.64 60.796C277.992 60.644 278.408 60.568 278.888 60.568C279.24 60.568 279.54 60.616 279.788 60.712C280.044 60.8 280.248 60.904 280.4 61.024C280.552 61.136 280.656 61.228 280.712 61.3V61.864C280.44 61.672 280.164 61.532 279.884 61.444C279.604 61.348 279.288 61.3 278.936 61.3C278.616 61.3 278.348 61.344 278.132 61.432C277.924 61.52 277.768 61.644 277.664 61.804C277.56 61.964 277.508 62.156 277.508 62.38ZM277.508 59.776L277.04 59.044C277.248 58.892 277.528 58.74 277.88 58.588C278.232 58.436 278.656 58.36 279.152 58.36C279.576 58.36 279.944 58.428 280.256 58.564C280.576 58.692 280.824 58.88 281 59.128C281.184 59.376 281.276 59.68 281.276 60.04V64H280.316V60.04C280.316 59.76 280.196 59.552 279.956 59.416C279.724 59.272 279.456 59.2 279.152 59.2C278.888 59.2 278.648 59.236 278.432 59.308C278.216 59.372 278.028 59.452 277.868 59.548C277.716 59.636 277.596 59.712 277.508 59.776Z" fill="white"/>
<circle cx="155" cy="310" r="149.5" stroke="#FF3100"/>
<line x1="251.632" y1="16.1406" x2="121.48" y2="460.39" stroke="white" stroke-opacity="0.26" stroke-dasharray="9 9"/>
<line x1="103" y1="369.36" x2="184.482" y2="438.712" stroke="white" stroke-opacity="0.24"/>
<line x1="108.36" y1="444.834" x2="177.712" y2="363.352" stroke="white" stroke-opacity="0.13"/>
</svg>
