<svg width="300" height="455" viewBox="0 0 300 455" fill="none" xmlns="http://www.w3.org/2000/svg">
<path d="M101.298 287.27V284H115.938V287.27H110.388V305H106.818V287.27H101.298ZM121.485 281.6V305H118.245V281.6H121.485ZM127.125 296.6C127.125 295.58 126.915 294.81 126.495 294.29C126.095 293.77 125.445 293.51 124.545 293.51C123.945 293.51 123.415 293.64 122.955 293.9C122.495 294.16 122.135 294.52 121.875 294.98C121.615 295.44 121.485 295.98 121.485 296.6H120.705C120.705 295.5 120.905 294.52 121.305 293.66C121.705 292.8 122.265 292.11 122.985 291.59C123.725 291.07 124.615 290.81 125.655 290.81C126.675 290.81 127.535 291.01 128.235 291.41C128.955 291.81 129.495 292.41 129.855 293.21C130.215 293.99 130.395 294.97 130.395 296.15V305H127.125V296.6ZM140.505 305.3C139.105 305.3 137.865 305 136.785 304.4C135.725 303.8 134.905 302.96 134.325 301.88C133.745 300.8 133.455 299.54 133.455 298.1C133.455 296.64 133.745 295.37 134.325 294.29C134.925 293.21 135.765 292.38 136.845 291.8C137.925 291.2 139.195 290.9 140.655 290.9C142.115 290.9 143.355 291.18 144.375 291.74C145.395 292.3 146.175 293.11 146.715 294.17C147.275 295.21 147.555 296.47 147.555 297.95C147.555 298.11 147.545 298.28 147.525 298.46C147.525 298.64 147.515 298.77 147.495 298.85H135.375V296.63H144.735L143.745 298.01C143.805 297.89 143.865 297.73 143.925 297.53C144.005 297.31 144.045 297.13 144.045 296.99C144.045 296.25 143.895 295.61 143.595 295.07C143.315 294.53 142.915 294.11 142.395 293.81C141.895 293.51 141.305 293.36 140.625 293.36C139.805 293.36 139.105 293.54 138.525 293.9C137.945 294.26 137.505 294.78 137.205 295.46C136.905 296.14 136.745 296.98 136.725 297.98C136.725 298.98 136.875 299.83 137.175 300.53C137.475 301.21 137.915 301.73 138.495 302.09C139.095 302.45 139.815 302.63 140.655 302.63C141.535 302.63 142.305 302.45 142.965 302.09C143.625 301.73 144.175 301.18 144.615 300.44L147.405 301.58C146.685 302.82 145.755 303.75 144.615 304.37C143.475 304.99 142.105 305.3 140.505 305.3ZM158.501 291.2H166.421V294.05H158.501V291.2ZM166.061 285.08C165.861 284.76 165.631 284.55 165.371 284.45C165.131 284.35 164.881 284.3 164.621 284.3C164.321 284.3 164.061 284.38 163.841 284.54C163.641 284.7 163.481 284.96 163.361 285.32C163.241 285.68 163.181 286.15 163.181 286.73V305H160.001V286.1C160.001 285.02 160.171 284.13 160.511 283.43C160.871 282.71 161.381 282.17 162.041 281.81C162.701 281.43 163.511 281.24 164.471 281.24C165.011 281.24 165.481 281.31 165.881 281.45C166.281 281.59 166.621 281.76 166.901 281.96C167.201 282.16 167.431 282.36 167.591 282.56L166.061 285.08ZM172.229 299.6C172.229 300.58 172.439 301.34 172.859 301.88C173.279 302.42 173.919 302.69 174.779 302.69C175.399 302.69 175.939 302.57 176.399 302.33C176.859 302.07 177.219 301.71 177.479 301.25C177.739 300.77 177.869 300.22 177.869 299.6V291.2H181.109V305H177.869V302.87C177.429 303.67 176.859 304.28 176.159 304.7C175.479 305.1 174.659 305.3 173.699 305.3C172.159 305.3 170.969 304.82 170.129 303.86C169.309 302.9 168.899 301.6 168.899 299.96V291.2H172.229V299.6ZM185.247 281.6H188.487V305H185.247V281.6ZM192.63 281.6H195.87V305H192.63V281.6ZM57.7681 341.1C57.7681 341.98 57.9581 342.75 58.3381 343.41C58.7181 344.05 59.2281 344.56 59.8681 344.94C60.5281 345.32 61.2581 345.51 62.0581 345.51C62.7181 345.51 63.3481 345.41 63.9481 345.21C64.5481 345.01 65.0781 344.73 65.5381 344.37C65.9981 344.01 66.3381 343.61 66.5581 343.17V346.74C66.0781 347.22 65.4281 347.6 64.6081 347.88C63.7881 348.16 62.8881 348.3 61.9081 348.3C60.4881 348.3 59.2081 348 58.0681 347.4C56.9481 346.78 56.0581 345.93 55.3981 344.85C54.7581 343.75 54.4381 342.5 54.4381 341.1C54.4381 339.68 54.7581 338.43 55.3981 337.35C56.0581 336.27 56.9481 335.43 58.0681 334.83C59.2081 334.21 60.4881 333.9 61.9081 333.9C62.8881 333.9 63.7881 334.04 64.6081 334.32C65.4281 334.6 66.0781 334.98 66.5581 335.46V339.03C66.3381 338.57 65.9881 338.17 65.5081 337.83C65.0481 337.47 64.5181 337.19 63.9181 336.99C63.3181 336.79 62.6981 336.69 62.0581 336.69C61.2581 336.69 60.5281 336.88 59.8681 337.26C59.2281 337.64 58.7181 338.16 58.3381 338.82C57.9581 339.48 57.7681 340.24 57.7681 341.1ZM82.3493 334.2L73.3493 354.6H69.8993L73.4993 346.38L67.9493 334.2H71.6693L76.0793 345.12L74.5493 345.03L78.8693 334.2H82.3493ZM86.0103 341.1C86.0103 341.98 86.2003 342.75 86.5803 343.41C86.9603 344.05 87.4703 344.56 88.1103 344.94C88.7703 345.32 89.5003 345.51 90.3003 345.51C90.9603 345.51 91.5903 345.41 92.1903 345.21C92.7903 345.01 93.3203 344.73 93.7803 344.37C94.2403 344.01 94.5803 343.61 94.8003 343.17V346.74C94.3203 347.22 93.6703 347.6 92.8503 347.88C92.0303 348.16 91.1303 348.3 90.1503 348.3C88.7303 348.3 87.4503 348 86.3103 347.4C85.1903 346.78 84.3003 345.93 83.6403 344.85C83.0003 343.75 82.6803 342.5 82.6803 341.1C82.6803 339.68 83.0003 338.43 83.6403 337.35C84.3003 336.27 85.1903 335.43 86.3103 334.83C87.4503 334.21 88.7303 333.9 90.1503 333.9C91.1303 333.9 92.0303 334.04 92.8503 334.32C93.6703 334.6 94.3203 334.98 94.8003 335.46V339.03C94.5803 338.57 94.2303 338.17 93.7503 337.83C93.2903 337.47 92.7603 337.19 92.1603 336.99C91.5603 336.79 90.9403 336.69 90.3003 336.69C89.5003 336.69 88.7703 336.88 88.1103 337.26C87.4703 337.64 86.9603 338.16 86.5803 338.82C86.2003 339.48 86.0103 340.24 86.0103 341.1ZM98.3815 324.6H101.622V348H98.3815V324.6ZM111.764 348.3C110.364 348.3 109.124 348 108.044 347.4C106.984 346.8 106.164 345.96 105.584 344.88C105.004 343.8 104.714 342.54 104.714 341.1C104.714 339.64 105.004 338.37 105.584 337.29C106.184 336.21 107.024 335.38 108.104 334.8C109.184 334.2 110.454 333.9 111.914 333.9C113.374 333.9 114.614 334.18 115.634 334.74C116.654 335.3 117.434 336.11 117.974 337.17C118.534 338.21 118.814 339.47 118.814 340.95C118.814 341.11 118.804 341.28 118.784 341.46C118.784 341.64 118.774 341.77 118.754 341.85H106.634V339.63H115.994L115.004 341.01C115.064 340.89 115.124 340.73 115.184 340.53C115.264 340.31 115.304 340.13 115.304 339.99C115.304 339.25 115.154 338.61 114.854 338.07C114.574 337.53 114.174 337.11 113.654 336.81C113.154 336.51 112.564 336.36 111.884 336.36C111.064 336.36 110.364 336.54 109.784 336.9C109.204 337.26 108.764 337.78 108.464 338.46C108.164 339.14 108.004 339.98 107.984 340.98C107.984 341.98 108.134 342.83 108.434 343.53C108.734 344.21 109.174 344.73 109.754 345.09C110.354 345.45 111.074 345.63 111.914 345.63C112.794 345.63 113.564 345.45 114.224 345.09C114.884 344.73 115.434 344.18 115.874 343.44L118.664 344.58C117.944 345.82 117.014 346.75 115.874 347.37C114.734 347.99 113.364 348.3 111.764 348.3ZM129.851 341.1C129.851 339.68 130.171 338.43 130.811 337.35C131.471 336.27 132.361 335.43 133.481 334.83C134.601 334.21 135.871 333.9 137.291 333.9C138.711 333.9 139.971 334.21 141.071 334.83C142.191 335.43 143.081 336.27 143.741 337.35C144.401 338.43 144.731 339.68 144.731 341.1C144.731 342.5 144.401 343.75 143.741 344.85C143.081 345.93 142.191 346.78 141.071 347.4C139.971 348 138.711 348.3 137.291 348.3C135.871 348.3 134.601 348 133.481 347.4C132.361 346.78 131.471 345.93 130.811 344.85C130.171 343.75 129.851 342.5 129.851 341.1ZM133.181 341.1C133.181 341.96 133.361 342.72 133.721 343.38C134.081 344.02 134.571 344.53 135.191 344.91C135.811 345.27 136.511 345.45 137.291 345.45C138.051 345.45 138.741 345.27 139.361 344.91C140.001 344.53 140.501 344.02 140.861 343.38C141.221 342.72 141.401 341.96 141.401 341.1C141.401 340.24 141.221 339.48 140.861 338.82C140.501 338.16 140.001 337.65 139.361 337.29C138.741 336.93 138.051 336.75 137.291 336.75C136.511 336.75 135.811 336.93 135.191 337.29C134.571 337.65 134.081 338.16 133.721 338.82C133.361 339.48 133.181 340.24 133.181 341.1ZM146.665 334.2H154.585V337.05H146.665V334.2ZM154.225 328.08C154.025 327.76 153.795 327.55 153.535 327.45C153.295 327.35 153.045 327.3 152.785 327.3C152.485 327.3 152.225 327.38 152.005 327.54C151.805 327.7 151.645 327.96 151.525 328.32C151.405 328.68 151.345 329.15 151.345 329.73V348H148.165V329.1C148.165 328.02 148.335 327.13 148.675 326.43C149.035 325.71 149.545 325.17 150.205 324.81C150.865 324.43 151.675 324.24 152.635 324.24C153.175 324.24 153.645 324.31 154.045 324.45C154.445 324.59 154.785 324.76 155.065 324.96C155.365 325.16 155.595 325.36 155.755 325.56L154.225 328.08ZM165.277 348.93H168.487C168.507 349.55 168.677 350.11 168.997 350.61C169.337 351.11 169.797 351.5 170.377 351.78C170.957 352.06 171.627 352.2 172.387 352.2C173.067 352.2 173.717 352.04 174.337 351.72C174.957 351.4 175.457 350.91 175.837 350.25C176.237 349.59 176.437 348.74 176.437 347.7V334.2H179.617V347.7C179.617 349.36 179.277 350.73 178.597 351.81C177.937 352.89 177.067 353.69 175.987 354.21C174.907 354.75 173.737 355.02 172.477 355.02C170.977 355.02 169.697 354.76 168.637 354.24C167.577 353.74 166.757 353.03 166.177 352.11C165.617 351.19 165.317 350.13 165.277 348.93ZM165.007 341.04C165.007 339.5 165.317 338.21 165.937 337.17C166.557 336.11 167.377 335.3 168.397 334.74C169.437 334.18 170.547 333.9 171.727 333.9C172.887 333.9 173.897 334.19 174.757 334.77C175.637 335.33 176.327 336.14 176.827 337.2C177.347 338.26 177.607 339.54 177.607 341.04C177.607 342.52 177.347 343.79 176.827 344.85C176.327 345.91 175.637 346.73 174.757 347.31C173.897 347.87 172.887 348.15 171.727 348.15C170.547 348.15 169.437 347.87 168.397 347.31C167.377 346.75 166.557 345.94 165.937 344.88C165.317 343.82 165.007 342.54 165.007 341.04ZM168.367 341.04C168.367 341.96 168.557 342.74 168.937 343.38C169.317 344.02 169.817 344.51 170.437 344.85C171.077 345.17 171.767 345.33 172.507 345.33C173.127 345.33 173.737 345.17 174.337 344.85C174.957 344.53 175.457 344.05 175.837 343.41C176.237 342.75 176.437 341.96 176.437 341.04C176.437 340.32 176.317 339.7 176.077 339.18C175.857 338.64 175.557 338.19 175.177 337.83C174.797 337.45 174.367 337.17 173.887 336.99C173.427 336.81 172.967 336.72 172.507 336.72C171.767 336.72 171.077 336.89 170.437 337.23C169.817 337.55 169.317 338.03 168.937 338.67C168.557 339.31 168.367 340.1 168.367 341.04ZM186.845 334.2V348H183.635V334.2H186.845ZM190.955 337.65C190.655 337.41 190.375 337.23 190.115 337.11C189.855 336.99 189.525 336.93 189.125 336.93C188.585 336.93 188.145 337.07 187.805 337.35C187.465 337.63 187.215 338.02 187.055 338.52C186.915 339 186.845 339.57 186.845 340.23L185.765 339.6C185.765 338.5 185.965 337.53 186.365 336.69C186.785 335.83 187.315 335.15 187.955 334.65C188.615 334.15 189.295 333.9 189.995 333.9C190.495 333.9 190.965 333.98 191.405 334.14C191.845 334.28 192.215 334.54 192.515 334.92L190.955 337.65ZM193.249 341.1C193.249 339.68 193.569 338.43 194.209 337.35C194.869 336.27 195.759 335.43 196.879 334.83C197.999 334.21 199.269 333.9 200.689 333.9C202.109 333.9 203.369 334.21 204.469 334.83C205.589 335.43 206.479 336.27 207.139 337.35C207.799 338.43 208.129 339.68 208.129 341.1C208.129 342.5 207.799 343.75 207.139 344.85C206.479 345.93 205.589 346.78 204.469 347.4C203.369 348 202.109 348.3 200.689 348.3C199.269 348.3 197.999 348 196.879 347.4C195.759 346.78 194.869 345.93 194.209 344.85C193.569 343.75 193.249 342.5 193.249 341.1ZM196.579 341.1C196.579 341.96 196.759 342.72 197.119 343.38C197.479 344.02 197.969 344.53 198.589 344.91C199.209 345.27 199.909 345.45 200.689 345.45C201.449 345.45 202.139 345.27 202.759 344.91C203.399 344.53 203.899 344.02 204.259 343.38C204.619 342.72 204.799 341.96 204.799 341.1C204.799 340.24 204.619 339.48 204.259 338.82C203.899 338.16 203.399 337.65 202.759 337.29C202.139 336.93 201.449 336.75 200.689 336.75C199.909 336.75 199.209 336.93 198.589 337.29C197.969 337.65 197.479 338.16 197.119 338.82C196.759 339.48 196.579 340.24 196.579 341.1ZM208.694 334.2H212.204L215.444 342.42L219.254 333.15L223.304 342.45L226.544 334.2H230.054L223.604 348.99L219.284 339.66L215.144 348.99L208.694 334.2ZM230.202 334.2H238.032V337.05H230.202V334.2ZM232.512 329.4H235.722V348H232.512V329.4ZM243.506 324.6V348H240.266V324.6H243.506ZM249.146 339.6C249.146 338.58 248.936 337.81 248.516 337.29C248.116 336.77 247.466 336.51 246.566 336.51C245.966 336.51 245.436 336.64 244.976 336.9C244.516 337.16 244.156 337.52 243.896 337.98C243.636 338.44 243.506 338.98 243.506 339.6H242.726C242.726 338.5 242.926 337.52 243.326 336.66C243.726 335.8 244.286 335.11 245.006 334.59C245.746 334.07 246.636 333.81 247.676 333.81C248.696 333.81 249.556 334.01 250.256 334.41C250.976 334.81 251.516 335.41 251.876 336.21C252.236 336.99 252.416 337.97 252.416 339.15V348H249.146V339.6Z" fill="white"/>
<path d="M74.0161 10.78L76.2001 4.6H77.3401L74.0401 13.42L71.5201 6.892L69.0001 13.42L65.7001 4.6H66.8401L69.0721 10.78L71.5201 4.18L74.0161 10.78ZM79.538 13.12C79.026 13.12 78.57 13 78.17 12.76C77.778 12.512 77.47 12.172 77.246 11.74C77.03 11.308 76.922 10.808 76.922 10.24C76.922 9.664 77.034 9.16 77.258 8.728C77.49 8.296 77.81 7.96 78.218 7.72C78.634 7.48 79.114 7.36 79.658 7.36C80.202 7.36 80.666 7.476 81.05 7.708C81.442 7.932 81.742 8.256 81.95 8.68C82.158 9.104 82.262 9.608 82.262 10.192C82.262 10.248 82.258 10.308 82.25 10.372C82.25 10.428 82.25 10.464 82.25 10.48H77.534V9.664H81.494L81.11 10.216C81.134 10.176 81.158 10.116 81.182 10.036C81.206 9.948 81.218 9.876 81.218 9.82C81.218 9.492 81.15 9.208 81.014 8.968C80.886 8.728 80.706 8.54 80.474 8.404C80.242 8.268 79.97 8.2 79.658 8.2C79.29 8.2 78.974 8.28 78.71 8.44C78.454 8.592 78.254 8.816 78.11 9.112C77.974 9.4 77.902 9.756 77.894 10.18C77.894 10.612 77.962 10.98 78.098 11.284C78.234 11.588 78.434 11.82 78.698 11.98C78.962 12.14 79.282 12.22 79.658 12.22C80.034 12.22 80.366 12.14 80.654 11.98C80.942 11.812 81.186 11.56 81.386 11.224L82.166 11.716C81.878 12.18 81.514 12.532 81.074 12.772C80.642 13.004 80.13 13.12 79.538 13.12ZM91.3154 3.64H92.2754V13H91.3154V3.64ZM86.6954 10.24C86.6954 9.64 86.8194 9.128 87.0674 8.704C87.3154 8.272 87.6474 7.94 88.0634 7.708C88.4794 7.476 88.9354 7.36 89.4314 7.36C89.8954 7.36 90.2994 7.476 90.6434 7.708C90.9874 7.94 91.2554 8.272 91.4474 8.704C91.6474 9.128 91.7474 9.64 91.7474 10.24C91.7474 10.832 91.6474 11.344 91.4474 11.776C91.2554 12.208 90.9874 12.54 90.6434 12.772C90.2994 13.004 89.8954 13.12 89.4314 13.12C88.9354 13.12 88.4794 13.004 88.0634 12.772C87.6474 12.54 87.3154 12.208 87.0674 11.776C86.8194 11.344 86.6954 10.832 86.6954 10.24ZM87.6674 10.24C87.6674 10.664 87.7514 11.024 87.9194 11.32C88.0954 11.616 88.3274 11.84 88.6154 11.992C88.9034 12.144 89.2154 12.22 89.5514 12.22C89.8314 12.22 90.1074 12.144 90.3794 11.992C90.6514 11.84 90.8754 11.616 91.0514 11.32C91.2274 11.024 91.3154 10.664 91.3154 10.24C91.3154 9.816 91.2274 9.456 91.0514 9.16C90.8754 8.864 90.6514 8.64 90.3794 8.488C90.1074 8.336 89.8314 8.26 89.5514 8.26C89.2154 8.26 88.9034 8.336 88.6154 8.488C88.3274 8.64 88.0954 8.864 87.9194 9.16C87.7514 9.456 87.6674 9.816 87.6674 10.24ZM96.1551 13.12C95.6431 13.12 95.1871 13 94.7871 12.76C94.3951 12.512 94.0871 12.172 93.8631 11.74C93.6471 11.308 93.5391 10.808 93.5391 10.24C93.5391 9.664 93.6511 9.16 93.8751 8.728C94.1071 8.296 94.4271 7.96 94.8351 7.72C95.2511 7.48 95.7311 7.36 96.2751 7.36C96.8191 7.36 97.2831 7.476 97.6671 7.708C98.0591 7.932 98.3591 8.256 98.5671 8.68C98.7751 9.104 98.8791 9.608 98.8791 10.192C98.8791 10.248 98.8751 10.308 98.8671 10.372C98.8671 10.428 98.8671 10.464 98.8671 10.48H94.1511V9.664H98.1111L97.7271 10.216C97.7511 10.176 97.7751 10.116 97.7991 10.036C97.8231 9.948 97.8351 9.876 97.8351 9.82C97.8351 9.492 97.7671 9.208 97.6311 8.968C97.5031 8.728 97.3231 8.54 97.0911 8.404C96.8591 8.268 96.5871 8.2 96.2751 8.2C95.9071 8.2 95.5911 8.28 95.3271 8.44C95.0711 8.592 94.8711 8.816 94.7271 9.112C94.5911 9.4 94.5191 9.756 94.5111 10.18C94.5111 10.612 94.5791 10.98 94.7151 11.284C94.8511 11.588 95.0511 11.82 95.3151 11.98C95.5791 12.14 95.8991 12.22 96.2751 12.22C96.6511 12.22 96.9831 12.14 97.2711 11.98C97.5591 11.812 97.8031 11.56 98.0031 11.224L98.7831 11.716C98.4951 12.18 98.1311 12.532 97.6911 12.772C97.2591 13.004 96.7471 13.12 96.1551 13.12ZM99.1191 7.48H100.199L101.759 11.38L103.319 7.48H104.399L101.759 13.42L99.1191 7.48ZM107.265 13.12C106.753 13.12 106.297 13 105.897 12.76C105.505 12.512 105.197 12.172 104.973 11.74C104.757 11.308 104.649 10.808 104.649 10.24C104.649 9.664 104.761 9.16 104.985 8.728C105.217 8.296 105.537 7.96 105.945 7.72C106.361 7.48 106.841 7.36 107.385 7.36C107.929 7.36 108.393 7.476 108.777 7.708C109.169 7.932 109.469 8.256 109.677 8.68C109.885 9.104 109.989 9.608 109.989 10.192C109.989 10.248 109.985 10.308 109.977 10.372C109.977 10.428 109.977 10.464 109.977 10.48H105.261V9.664H109.221L108.837 10.216C108.861 10.176 108.885 10.116 108.909 10.036C108.933 9.948 108.945 9.876 108.945 9.82C108.945 9.492 108.877 9.208 108.741 8.968C108.613 8.728 108.433 8.54 108.201 8.404C107.969 8.268 107.697 8.2 107.385 8.2C107.017 8.2 106.701 8.28 106.437 8.44C106.181 8.592 105.981 8.816 105.837 9.112C105.701 9.4 105.629 9.756 105.621 10.18C105.621 10.612 105.689 10.98 105.825 11.284C105.961 11.588 106.161 11.82 106.425 11.98C106.689 12.14 107.009 12.22 107.385 12.22C107.761 12.22 108.093 12.14 108.381 11.98C108.669 11.812 108.913 11.56 109.113 11.224L109.893 11.716C109.605 12.18 109.241 12.532 108.801 12.772C108.369 13.004 107.857 13.12 107.265 13.12ZM111.304 3.64H112.264V13H111.304V3.64ZM113.59 10.24C113.59 9.68 113.714 9.184 113.962 8.752C114.218 8.32 114.562 7.98 114.994 7.732C115.426 7.484 115.91 7.36 116.446 7.36C116.99 7.36 117.474 7.484 117.898 7.732C118.33 7.98 118.67 8.32 118.918 8.752C119.174 9.184 119.302 9.68 119.302 10.24C119.302 10.792 119.174 11.288 118.918 11.728C118.67 12.16 118.33 12.5 117.898 12.748C117.474 12.996 116.99 13.12 116.446 13.12C115.91 13.12 115.426 12.996 114.994 12.748C114.562 12.5 114.218 12.16 113.962 11.728C113.714 11.288 113.59 10.792 113.59 10.24ZM114.562 10.24C114.562 10.624 114.642 10.964 114.802 11.26C114.97 11.556 115.194 11.792 115.474 11.968C115.762 12.136 116.086 12.22 116.446 12.22C116.806 12.22 117.126 12.136 117.406 11.968C117.694 11.792 117.918 11.556 118.078 11.26C118.246 10.964 118.33 10.624 118.33 10.24C118.33 9.856 118.246 9.516 118.078 9.22C117.918 8.916 117.694 8.68 117.406 8.512C117.126 8.344 116.806 8.26 116.446 8.26C116.086 8.26 115.762 8.344 115.474 8.512C115.194 8.68 114.97 8.916 114.802 9.22C114.642 9.516 114.562 9.856 114.562 10.24ZM121.521 15.64H120.561V7.48H121.521V15.64ZM126.141 10.24C126.141 10.832 126.017 11.344 125.769 11.776C125.521 12.208 125.189 12.54 124.773 12.772C124.365 13.004 123.909 13.12 123.405 13.12C122.949 13.12 122.545 13.004 122.193 12.772C121.849 12.54 121.577 12.208 121.377 11.776C121.185 11.344 121.089 10.832 121.089 10.24C121.089 9.64 121.185 9.128 121.377 8.704C121.577 8.272 121.849 7.94 122.193 7.708C122.545 7.476 122.949 7.36 123.405 7.36C123.909 7.36 124.365 7.476 124.773 7.708C125.189 7.94 125.521 8.272 125.769 8.704C126.017 9.128 126.141 9.64 126.141 10.24ZM125.169 10.24C125.169 9.816 125.081 9.456 124.905 9.16C124.737 8.864 124.509 8.64 124.221 8.488C123.941 8.336 123.629 8.26 123.285 8.26C123.005 8.26 122.729 8.336 122.457 8.488C122.185 8.64 121.961 8.864 121.785 9.16C121.609 9.456 121.521 9.816 121.521 10.24C121.521 10.664 121.609 11.024 121.785 11.32C121.961 11.616 122.185 11.84 122.457 11.992C122.729 12.144 123.005 12.22 123.285 12.22C123.629 12.22 123.941 12.144 124.221 11.992C124.509 11.84 124.737 11.616 124.905 11.32C125.081 11.024 125.169 10.664 125.169 10.24ZM132.022 10.84C132.022 11.28 132.122 11.62 132.322 11.86C132.522 12.1 132.814 12.22 133.198 12.22C133.478 12.22 133.722 12.164 133.93 12.052C134.146 11.932 134.31 11.768 134.422 11.56C134.542 11.352 134.602 11.112 134.602 10.84V7.48H135.562V13H134.602V12.136C134.418 12.464 134.19 12.712 133.918 12.88C133.646 13.04 133.326 13.12 132.958 13.12C132.382 13.12 131.922 12.924 131.578 12.532C131.234 12.14 131.062 11.616 131.062 10.96V7.48H132.022V10.84ZM140.907 9.64C140.907 9.184 140.807 8.84 140.607 8.608C140.407 8.376 140.115 8.26 139.731 8.26C139.451 8.26 139.203 8.32 138.987 8.44C138.779 8.552 138.615 8.712 138.495 8.92C138.383 9.128 138.327 9.368 138.327 9.64V13H137.367V7.48H138.327V8.344C138.511 8.008 138.739 7.76 139.011 7.6C139.291 7.44 139.611 7.36 139.971 7.36C140.555 7.36 141.015 7.556 141.351 7.948C141.695 8.332 141.867 8.856 141.867 9.52V13H140.907V9.64ZM143.671 5.2C143.671 5.016 143.735 4.86 143.863 4.732C143.999 4.604 144.155 4.54 144.331 4.54C144.515 4.54 144.671 4.604 144.799 4.732C144.927 4.86 144.991 5.016 144.991 5.2C144.991 5.376 144.927 5.532 144.799 5.668C144.671 5.796 144.515 5.86 144.331 5.86C144.155 5.86 143.999 5.796 143.863 5.668C143.735 5.532 143.671 5.376 143.671 5.2ZM143.851 7.48H144.811V13H143.851V7.48ZM150.929 15.64V7.48H151.889V15.64H150.929ZM146.309 10.24C146.309 9.64 146.433 9.128 146.681 8.704C146.929 8.272 147.261 7.94 147.677 7.708C148.093 7.476 148.549 7.36 149.045 7.36C149.509 7.36 149.913 7.476 150.257 7.708C150.601 7.94 150.869 8.272 151.061 8.704C151.261 9.128 151.361 9.64 151.361 10.24C151.361 10.832 151.261 11.344 151.061 11.776C150.869 12.208 150.601 12.54 150.257 12.772C149.913 13.004 149.509 13.12 149.045 13.12C148.549 13.12 148.093 13.004 147.677 12.772C147.261 12.54 146.929 12.208 146.681 11.776C146.433 11.344 146.309 10.832 146.309 10.24ZM147.281 10.24C147.281 10.664 147.365 11.024 147.533 11.32C147.709 11.616 147.941 11.84 148.229 11.992C148.517 12.144 148.829 12.22 149.165 12.22C149.445 12.22 149.721 12.144 149.993 11.992C150.265 11.84 150.489 11.616 150.665 11.32C150.841 11.024 150.929 10.664 150.929 10.24C150.929 9.816 150.841 9.456 150.665 9.16C150.489 8.864 150.265 8.64 149.993 8.488C149.721 8.336 149.445 8.26 149.165 8.26C148.829 8.26 148.517 8.336 148.229 8.488C147.941 8.64 147.709 8.864 147.533 9.16C147.365 9.456 147.281 9.816 147.281 10.24ZM154.592 10.84C154.592 11.28 154.692 11.62 154.892 11.86C155.092 12.1 155.384 12.22 155.768 12.22C156.048 12.22 156.292 12.164 156.5 12.052C156.716 11.932 156.88 11.768 156.992 11.56C157.112 11.352 157.172 11.112 157.172 10.84V7.48H158.132V13H157.172V12.136C156.988 12.464 156.76 12.712 156.488 12.88C156.216 13.04 155.896 13.12 155.528 13.12C154.952 13.12 154.492 12.924 154.148 12.532C153.804 12.14 153.632 11.616 153.632 10.96V7.48H154.592V10.84ZM162.073 13.12C161.561 13.12 161.105 13 160.705 12.76C160.313 12.512 160.005 12.172 159.781 11.74C159.565 11.308 159.457 10.808 159.457 10.24C159.457 9.664 159.569 9.16 159.793 8.728C160.025 8.296 160.345 7.96 160.753 7.72C161.169 7.48 161.649 7.36 162.193 7.36C162.737 7.36 163.201 7.476 163.585 7.708C163.977 7.932 164.277 8.256 164.485 8.68C164.693 9.104 164.797 9.608 164.797 10.192C164.797 10.248 164.793 10.308 164.785 10.372C164.785 10.428 164.785 10.464 164.785 10.48H160.069V9.664H164.029L163.645 10.216C163.669 10.176 163.693 10.116 163.717 10.036C163.741 9.948 163.753 9.876 163.753 9.82C163.753 9.492 163.685 9.208 163.549 8.968C163.421 8.728 163.241 8.54 163.009 8.404C162.777 8.268 162.505 8.2 162.193 8.2C161.825 8.2 161.509 8.28 161.245 8.44C160.989 8.592 160.789 8.816 160.645 9.112C160.509 9.4 160.437 9.756 160.429 10.18C160.429 10.612 160.497 10.98 160.633 11.284C160.769 11.588 160.969 11.82 161.233 11.98C161.497 12.14 161.817 12.22 162.193 12.22C162.569 12.22 162.901 12.14 163.189 11.98C163.477 11.812 163.721 11.56 163.921 11.224L164.701 11.716C164.413 12.18 164.049 12.532 163.609 12.772C163.177 13.004 162.665 13.12 162.073 13.12ZM169.939 11.308C170.051 11.476 170.179 11.632 170.323 11.776C170.467 11.92 170.631 12.036 170.815 12.124C171.007 12.204 171.215 12.244 171.439 12.244C171.711 12.244 171.923 12.184 172.075 12.064C172.235 11.936 172.315 11.764 172.315 11.548C172.315 11.356 172.251 11.196 172.123 11.068C172.003 10.932 171.847 10.82 171.655 10.732C171.463 10.636 171.259 10.548 171.043 10.468C170.803 10.372 170.559 10.26 170.311 10.132C170.071 9.996 169.867 9.824 169.699 9.616C169.539 9.4 169.459 9.132 169.459 8.812C169.459 8.484 169.543 8.212 169.711 7.996C169.887 7.78 170.111 7.62 170.383 7.516C170.663 7.412 170.951 7.36 171.247 7.36C171.543 7.36 171.819 7.408 172.075 7.504C172.339 7.6 172.571 7.728 172.771 7.888C172.971 8.048 173.127 8.232 173.239 8.44L172.471 8.932C172.319 8.724 172.127 8.552 171.895 8.416C171.671 8.28 171.415 8.212 171.127 8.212C170.927 8.212 170.755 8.256 170.611 8.344C170.467 8.432 170.395 8.568 170.395 8.752C170.395 8.896 170.451 9.024 170.563 9.136C170.675 9.248 170.819 9.348 170.995 9.436C171.171 9.524 171.355 9.608 171.547 9.688C171.867 9.816 172.159 9.956 172.423 10.108C172.687 10.252 172.895 10.428 173.047 10.636C173.207 10.844 173.287 11.112 173.287 11.44C173.287 11.92 173.111 12.32 172.759 12.64C172.415 12.96 171.959 13.12 171.391 13.12C171.023 13.12 170.691 13.056 170.395 12.928C170.099 12.792 169.847 12.62 169.639 12.412C169.439 12.204 169.287 11.992 169.183 11.776L169.939 11.308ZM174.07 10.24C174.07 9.68 174.194 9.184 174.442 8.752C174.698 8.32 175.042 7.98 175.474 7.732C175.906 7.484 176.39 7.36 176.926 7.36C177.47 7.36 177.954 7.484 178.378 7.732C178.81 7.98 179.15 8.32 179.398 8.752C179.654 9.184 179.782 9.68 179.782 10.24C179.782 10.792 179.654 11.288 179.398 11.728C179.15 12.16 178.81 12.5 178.378 12.748C177.954 12.996 177.47 13.12 176.926 13.12C176.39 13.12 175.906 12.996 175.474 12.748C175.042 12.5 174.698 12.16 174.442 11.728C174.194 11.288 174.07 10.792 174.07 10.24ZM175.042 10.24C175.042 10.624 175.122 10.964 175.282 11.26C175.45 11.556 175.674 11.792 175.954 11.968C176.242 12.136 176.566 12.22 176.926 12.22C177.286 12.22 177.606 12.136 177.886 11.968C178.174 11.792 178.398 11.556 178.558 11.26C178.726 10.964 178.81 10.624 178.81 10.24C178.81 9.856 178.726 9.516 178.558 9.22C178.398 8.916 178.174 8.68 177.886 8.512C177.606 8.344 177.286 8.26 176.926 8.26C176.566 8.26 176.242 8.344 175.954 8.512C175.674 8.68 175.45 8.916 175.282 9.22C175.122 9.516 175.042 9.856 175.042 10.24ZM181.101 3.64H182.061V13H181.101V3.64ZM184.827 10.84C184.827 11.28 184.927 11.62 185.127 11.86C185.327 12.1 185.619 12.22 186.003 12.22C186.283 12.22 186.527 12.164 186.735 12.052C186.951 11.932 187.115 11.768 187.227 11.56C187.347 11.352 187.407 11.112 187.407 10.84V7.48H188.367V13H187.407V12.136C187.223 12.464 186.995 12.712 186.723 12.88C186.451 13.04 186.131 13.12 185.763 13.12C185.187 13.12 184.727 12.924 184.383 12.532C184.039 12.14 183.867 11.616 183.867 10.96V7.48H184.827V10.84ZM189.331 7.48H192.091V8.38H189.331V7.48ZM190.231 5.56H191.191V13H190.231V5.56ZM193.054 5.2C193.054 5.016 193.118 4.86 193.246 4.732C193.382 4.604 193.538 4.54 193.714 4.54C193.898 4.54 194.054 4.604 194.182 4.732C194.31 4.86 194.374 5.016 194.374 5.2C194.374 5.376 194.31 5.532 194.182 5.668C194.054 5.796 193.898 5.86 193.714 5.86C193.538 5.86 193.382 5.796 193.246 5.668C193.118 5.532 193.054 5.376 193.054 5.2ZM193.234 7.48H194.194V13H193.234V7.48ZM195.691 10.24C195.691 9.68 195.815 9.184 196.063 8.752C196.319 8.32 196.663 7.98 197.095 7.732C197.527 7.484 198.011 7.36 198.547 7.36C199.091 7.36 199.575 7.484 199.999 7.732C200.431 7.98 200.771 8.32 201.019 8.752C201.275 9.184 201.403 9.68 201.403 10.24C201.403 10.792 201.275 11.288 201.019 11.728C200.771 12.16 200.431 12.5 199.999 12.748C199.575 12.996 199.091 13.12 198.547 13.12C198.011 13.12 197.527 12.996 197.095 12.748C196.663 12.5 196.319 12.16 196.063 11.728C195.815 11.288 195.691 10.792 195.691 10.24ZM196.663 10.24C196.663 10.624 196.743 10.964 196.903 11.26C197.071 11.556 197.295 11.792 197.575 11.968C197.863 12.136 198.187 12.22 198.547 12.22C198.907 12.22 199.227 12.136 199.507 11.968C199.795 11.792 200.019 11.556 200.179 11.26C200.347 10.964 200.431 10.624 200.431 10.24C200.431 9.856 200.347 9.516 200.179 9.22C200.019 8.916 199.795 8.68 199.507 8.512C199.227 8.344 198.907 8.26 198.547 8.26C198.187 8.26 197.863 8.344 197.575 8.512C197.295 8.68 197.071 8.916 196.903 9.22C196.743 9.516 196.663 9.856 196.663 10.24ZM206.262 9.64C206.262 9.184 206.162 8.84 205.962 8.608C205.762 8.376 205.47 8.26 205.086 8.26C204.806 8.26 204.558 8.32 204.342 8.44C204.134 8.552 203.97 8.712 203.85 8.92C203.738 9.128 203.682 9.368 203.682 9.64V13H202.722V7.48H203.682V8.344C203.866 8.008 204.094 7.76 204.366 7.6C204.646 7.44 204.966 7.36 205.326 7.36C205.91 7.36 206.37 7.556 206.706 7.948C207.05 8.332 207.222 8.856 207.222 9.52V13H206.262V9.64ZM209.255 11.308C209.367 11.476 209.495 11.632 209.639 11.776C209.783 11.92 209.947 12.036 210.131 12.124C210.323 12.204 210.531 12.244 210.755 12.244C211.027 12.244 211.239 12.184 211.391 12.064C211.551 11.936 211.631 11.764 211.631 11.548C211.631 11.356 211.567 11.196 211.439 11.068C211.319 10.932 211.163 10.82 210.971 10.732C210.779 10.636 210.575 10.548 210.359 10.468C210.119 10.372 209.875 10.26 209.627 10.132C209.387 9.996 209.183 9.824 209.015 9.616C208.855 9.4 208.775 9.132 208.775 8.812C208.775 8.484 208.859 8.212 209.027 7.996C209.203 7.78 209.427 7.62 209.699 7.516C209.979 7.412 210.267 7.36 210.563 7.36C210.859 7.36 211.135 7.408 211.391 7.504C211.655 7.6 211.887 7.728 212.087 7.888C212.287 8.048 212.443 8.232 212.555 8.44L211.787 8.932C211.635 8.724 211.443 8.552 211.211 8.416C210.987 8.28 210.731 8.212 210.443 8.212C210.243 8.212 210.071 8.256 209.927 8.344C209.783 8.432 209.711 8.568 209.711 8.752C209.711 8.896 209.767 9.024 209.879 9.136C209.991 9.248 210.135 9.348 210.311 9.436C210.487 9.524 210.671 9.608 210.863 9.688C211.183 9.816 211.475 9.956 211.739 10.108C212.003 10.252 212.211 10.428 212.363 10.636C212.523 10.844 212.603 11.112 212.603 11.44C212.603 11.92 212.427 12.32 212.075 12.64C211.731 12.96 211.275 13.12 210.707 13.12C210.339 13.12 210.007 13.056 209.711 12.928C209.415 12.792 209.163 12.62 208.955 12.412C208.755 12.204 208.603 11.992 208.499 11.776L209.255 11.308ZM216.984 10.24C216.984 9.68 217.108 9.184 217.356 8.752C217.612 8.32 217.956 7.98 218.388 7.732C218.82 7.484 219.304 7.36 219.84 7.36C220.384 7.36 220.868 7.484 221.292 7.732C221.724 7.98 222.064 8.32 222.312 8.752C222.568 9.184 222.696 9.68 222.696 10.24C222.696 10.792 222.568 11.288 222.312 11.728C222.064 12.16 221.724 12.5 221.292 12.748C220.868 12.996 220.384 13.12 219.84 13.12C219.304 13.12 218.82 12.996 218.388 12.748C217.956 12.5 217.612 12.16 217.356 11.728C217.108 11.288 216.984 10.792 216.984 10.24ZM217.956 10.24C217.956 10.624 218.036 10.964 218.196 11.26C218.364 11.556 218.588 11.792 218.868 11.968C219.156 12.136 219.48 12.22 219.84 12.22C220.2 12.22 220.52 12.136 220.8 11.968C221.088 11.792 221.312 11.556 221.472 11.26C221.64 10.964 221.724 10.624 221.724 10.24C221.724 9.856 221.64 9.516 221.472 9.22C221.312 8.916 221.088 8.68 220.8 8.512C220.52 8.344 220.2 8.26 219.84 8.26C219.48 8.26 219.156 8.344 218.868 8.512C218.588 8.68 218.364 8.916 218.196 9.22C218.036 9.516 217.956 9.856 217.956 10.24ZM227.555 9.64C227.555 9.184 227.455 8.84 227.255 8.608C227.055 8.376 226.763 8.26 226.379 8.26C226.099 8.26 225.851 8.32 225.635 8.44C225.427 8.552 225.263 8.712 225.143 8.92C225.031 9.128 224.975 9.368 224.975 9.64V13H224.015V7.48H224.975V8.344C225.159 8.008 225.387 7.76 225.659 7.6C225.939 7.44 226.259 7.36 226.619 7.36C227.203 7.36 227.663 7.556 227.999 7.948C228.343 8.332 228.515 8.856 228.515 9.52V13H227.555V9.64ZM83.4795 25.86H84.6195L87.6195 30H86.3595L83.4795 25.86ZM81.9795 21.6H82.9995V30H81.9795V21.6ZM82.5435 22.5V21.6H84.2595C84.8035 21.6 85.2875 21.704 85.7115 21.912C86.1435 22.112 86.4835 22.4 86.7315 22.776C86.9875 23.152 87.1155 23.6 87.1155 24.12C87.1155 24.632 86.9875 25.08 86.7315 25.464C86.4835 25.84 86.1435 26.132 85.7115 26.34C85.2875 26.54 84.8035 26.64 84.2595 26.64H82.5435V25.74H84.2595C84.6195 25.74 84.9355 25.676 85.2075 25.548C85.4875 25.42 85.7035 25.236 85.8555 24.996C86.0155 24.756 86.0955 24.464 86.0955 24.12C86.0955 23.776 86.0155 23.484 85.8555 23.244C85.7035 23.004 85.4875 22.82 85.2075 22.692C84.9355 22.564 84.6195 22.5 84.2595 22.5H82.5435ZM90.7704 30.12C90.2584 30.12 89.8024 30 89.4024 29.76C89.0104 29.512 88.7024 29.172 88.4784 28.74C88.2624 28.308 88.1544 27.808 88.1544 27.24C88.1544 26.664 88.2664 26.16 88.4904 25.728C88.7224 25.296 89.0424 24.96 89.4504 24.72C89.8664 24.48 90.3464 24.36 90.8904 24.36C91.4344 24.36 91.8984 24.476 92.2824 24.708C92.6744 24.932 92.9744 25.256 93.1824 25.68C93.3904 26.104 93.4944 26.608 93.4944 27.192C93.4944 27.248 93.4904 27.308 93.4824 27.372C93.4824 27.428 93.4824 27.464 93.4824 27.48H88.7664V26.664H92.7264L92.3424 27.216C92.3664 27.176 92.3904 27.116 92.4144 27.036C92.4384 26.948 92.4504 26.876 92.4504 26.82C92.4504 26.492 92.3824 26.208 92.2464 25.968C92.1184 25.728 91.9384 25.54 91.7064 25.404C91.4744 25.268 91.2024 25.2 90.8904 25.2C90.5224 25.2 90.2064 25.28 89.9424 25.44C89.6864 25.592 89.4864 25.816 89.3424 26.112C89.2064 26.4 89.1344 26.756 89.1264 27.18C89.1264 27.612 89.1944 27.98 89.3304 28.284C89.4664 28.588 89.6664 28.82 89.9304 28.98C90.1944 29.14 90.5144 29.22 90.8904 29.22C91.2664 29.22 91.5984 29.14 91.8864 28.98C92.1744 28.812 92.4184 28.56 92.6184 28.224L93.3984 28.716C93.1104 29.18 92.7464 29.532 92.3064 29.772C91.8744 30.004 91.3624 30.12 90.7704 30.12ZM95.2422 28.296C95.2422 28.504 95.2902 28.684 95.3862 28.836C95.4902 28.988 95.6302 29.104 95.8062 29.184C95.9902 29.256 96.1982 29.292 96.4302 29.292C96.7262 29.292 96.9902 29.232 97.2222 29.112C97.4622 28.992 97.6502 28.824 97.7862 28.608C97.9302 28.384 98.0022 28.128 98.0022 27.84L98.1942 28.56C98.1942 28.912 98.0862 29.204 97.8702 29.436C97.6622 29.668 97.4022 29.84 97.0902 29.952C96.7862 30.064 96.4822 30.12 96.1782 30.12C95.8422 30.12 95.5262 30.052 95.2302 29.916C94.9422 29.772 94.7102 29.568 94.5342 29.304C94.3582 29.04 94.2702 28.72 94.2702 28.344C94.2702 27.808 94.4582 27.38 94.8342 27.06C95.2182 26.732 95.7502 26.568 96.4302 26.568C96.8302 26.568 97.1622 26.616 97.4262 26.712C97.6982 26.8 97.9142 26.904 98.0742 27.024C98.2342 27.136 98.3422 27.228 98.3982 27.3V27.864C98.1182 27.672 97.8302 27.536 97.5342 27.456C97.2382 27.368 96.9222 27.324 96.5862 27.324C96.2742 27.324 96.0182 27.364 95.8182 27.444C95.6262 27.524 95.4822 27.636 95.3862 27.78C95.2902 27.924 95.2422 28.096 95.2422 28.296ZM95.0982 25.752L94.6302 25.044C94.8382 24.892 95.1222 24.74 95.4822 24.588C95.8502 24.436 96.2902 24.36 96.8022 24.36C97.2342 24.36 97.6102 24.428 97.9302 24.564C98.2582 24.692 98.5102 24.88 98.6862 25.128C98.8702 25.376 98.9622 25.68 98.9622 26.04V30H98.0022V26.172C98.0022 25.98 97.9702 25.824 97.9062 25.704C97.8422 25.576 97.7502 25.476 97.6302 25.404C97.5182 25.332 97.3862 25.28 97.2342 25.248C97.0822 25.216 96.9222 25.2 96.7542 25.2C96.4822 25.2 96.2342 25.232 96.0102 25.296C95.7942 25.36 95.6102 25.436 95.4582 25.524C95.3062 25.612 95.1862 25.688 95.0982 25.752ZM101.02 27.24C101.02 27.624 101.1 27.964 101.26 28.26C101.428 28.556 101.652 28.792 101.932 28.968C102.22 29.136 102.544 29.22 102.904 29.22C103.2 29.22 103.476 29.176 103.732 29.088C103.996 28.992 104.224 28.868 104.416 28.716C104.608 28.556 104.744 28.388 104.824 28.212V29.412C104.632 29.636 104.356 29.812 103.996 29.94C103.644 30.06 103.28 30.12 102.904 30.12C102.368 30.12 101.884 29.996 101.451 29.748C101.02 29.5 100.676 29.16 100.42 28.728C100.172 28.288 100.048 27.792 100.048 27.24C100.048 26.68 100.172 26.184 100.42 25.752C100.676 25.32 101.02 24.98 101.451 24.732C101.884 24.484 102.368 24.36 102.904 24.36C103.28 24.36 103.644 24.424 103.996 24.552C104.356 24.672 104.632 24.844 104.824 25.068V26.268C104.744 26.084 104.608 25.916 104.416 25.764C104.224 25.612 103.996 25.492 103.732 25.404C103.476 25.308 103.2 25.26 102.904 25.26C102.544 25.26 102.22 25.344 101.932 25.512C101.652 25.68 101.428 25.916 101.26 26.22C101.1 26.516 101.02 26.856 101.02 27.24ZM105.478 24.48H108.238V25.38H105.478V24.48ZM106.378 22.56H107.338V30H106.378V22.56ZM113.23 28.296C113.23 28.504 113.278 28.684 113.374 28.836C113.478 28.988 113.618 29.104 113.794 29.184C113.978 29.256 114.186 29.292 114.418 29.292C114.714 29.292 114.978 29.232 115.21 29.112C115.45 28.992 115.638 28.824 115.774 28.608C115.918 28.384 115.99 28.128 115.99 27.84L116.182 28.56C116.182 28.912 116.074 29.204 115.858 29.436C115.65 29.668 115.39 29.84 115.078 29.952C114.774 30.064 114.47 30.12 114.166 30.12C113.83 30.12 113.514 30.052 113.218 29.916C112.93 29.772 112.698 29.568 112.522 29.304C112.346 29.04 112.258 28.72 112.258 28.344C112.258 27.808 112.446 27.38 112.822 27.06C113.206 26.732 113.738 26.568 114.418 26.568C114.818 26.568 115.15 26.616 115.414 26.712C115.686 26.8 115.902 26.904 116.062 27.024C116.222 27.136 116.33 27.228 116.386 27.3V27.864C116.106 27.672 115.818 27.536 115.522 27.456C115.226 27.368 114.91 27.324 114.574 27.324C114.262 27.324 114.006 27.364 113.806 27.444C113.614 27.524 113.47 27.636 113.374 27.78C113.278 27.924 113.23 28.096 113.23 28.296ZM113.086 25.752L112.618 25.044C112.826 24.892 113.11 24.74 113.47 24.588C113.838 24.436 114.278 24.36 114.79 24.36C115.222 24.36 115.598 24.428 115.918 24.564C116.246 24.692 116.498 24.88 116.674 25.128C116.858 25.376 116.95 25.68 116.95 26.04V30H115.99V26.172C115.99 25.98 115.958 25.824 115.894 25.704C115.83 25.576 115.738 25.476 115.618 25.404C115.506 25.332 115.374 25.28 115.222 25.248C115.07 25.216 114.91 25.2 114.742 25.2C114.47 25.2 114.222 25.232 113.998 25.296C113.782 25.36 113.598 25.436 113.446 25.524C113.294 25.612 113.174 25.688 113.086 25.752ZM122.116 26.64C122.116 26.184 122.016 25.84 121.816 25.608C121.616 25.376 121.324 25.26 120.94 25.26C120.66 25.26 120.412 25.32 120.196 25.44C119.988 25.552 119.824 25.712 119.704 25.92C119.592 26.128 119.536 26.368 119.536 26.64V30H118.576V24.48H119.536V25.344C119.72 25.008 119.948 24.76 120.22 24.6C120.5 24.44 120.82 24.36 121.18 24.36C121.764 24.36 122.224 24.556 122.56 24.948C122.904 25.332 123.076 25.856 123.076 26.52V30H122.116V26.64ZM129.02 20.64H129.98V30H129.02V20.64ZM124.4 27.24C124.4 26.64 124.524 26.128 124.772 25.704C125.02 25.272 125.352 24.94 125.768 24.708C126.184 24.476 126.64 24.36 127.136 24.36C127.6 24.36 128.004 24.476 128.348 24.708C128.692 24.94 128.96 25.272 129.152 25.704C129.352 26.128 129.452 26.64 129.452 27.24C129.452 27.832 129.352 28.344 129.152 28.776C128.96 29.208 128.692 29.54 128.348 29.772C128.004 30.004 127.6 30.12 127.136 30.12C126.64 30.12 126.184 30.004 125.768 29.772C125.352 29.54 125.02 29.208 124.772 28.776C124.524 28.344 124.4 27.832 124.4 27.24ZM125.372 27.24C125.372 27.664 125.456 28.024 125.624 28.32C125.8 28.616 126.032 28.84 126.32 28.992C126.608 29.144 126.92 29.22 127.256 29.22C127.536 29.22 127.812 29.144 128.084 28.992C128.356 28.84 128.58 28.616 128.756 28.32C128.932 28.024 129.02 27.664 129.02 27.24C129.02 26.816 128.932 26.456 128.756 26.16C128.58 25.864 128.356 25.64 128.084 25.488C127.812 25.336 127.536 25.26 127.256 25.26C126.92 25.26 126.608 25.336 126.32 25.488C126.032 25.64 125.8 25.864 125.624 26.16C125.456 26.456 125.372 26.816 125.372 27.24ZM135.382 21.6H136.402V30H135.382V21.6ZM137.902 30H135.946V28.98H137.902C138.374 28.98 138.806 28.908 139.198 28.764C139.59 28.612 139.926 28.4 140.206 28.128C140.486 27.848 140.702 27.512 140.854 27.12C141.006 26.728 141.082 26.288 141.082 25.8C141.082 25.312 141.006 24.872 140.854 24.48C140.702 24.088 140.486 23.756 140.206 23.484C139.926 23.204 139.59 22.992 139.198 22.848C138.806 22.696 138.374 22.62 137.902 22.62H135.946V21.6H137.902C138.718 21.6 139.442 21.776 140.074 22.128C140.706 22.48 141.202 22.972 141.562 23.604C141.922 24.228 142.102 24.96 142.102 25.8C142.102 26.64 141.922 27.376 141.562 28.008C141.202 28.632 140.706 29.12 140.074 29.472C139.442 29.824 138.718 30 137.902 30ZM143.322 22.2C143.322 22.016 143.386 21.864 143.514 21.744C143.642 21.616 143.794 21.552 143.97 21.552C144.154 21.552 144.306 21.616 144.426 21.744C144.554 21.864 144.618 22.016 144.618 22.2C144.618 22.376 144.554 22.528 144.426 22.656C144.306 22.784 144.154 22.848 143.97 22.848C143.794 22.848 143.642 22.784 143.514 22.656C143.386 22.528 143.322 22.376 143.322 22.2ZM142.374 31.368C142.438 31.464 142.518 31.54 142.614 31.596C142.718 31.652 142.834 31.68 142.962 31.68C143.098 31.68 143.206 31.644 143.286 31.572C143.374 31.5 143.438 31.384 143.478 31.224C143.518 31.064 143.538 30.856 143.538 30.6V24.48H144.498V30.72C144.498 31.12 144.434 31.464 144.306 31.752C144.186 32.04 144.006 32.26 143.766 32.412C143.526 32.564 143.238 32.64 142.902 32.64C142.742 32.64 142.598 32.62 142.47 32.58C142.342 32.548 142.226 32.496 142.122 32.424C142.018 32.352 141.926 32.264 141.846 32.16L142.374 31.368ZM146.91 28.296C146.91 28.504 146.958 28.684 147.054 28.836C147.158 28.988 147.298 29.104 147.474 29.184C147.658 29.256 147.866 29.292 148.098 29.292C148.394 29.292 148.658 29.232 148.89 29.112C149.13 28.992 149.318 28.824 149.454 28.608C149.598 28.384 149.67 28.128 149.67 27.84L149.862 28.56C149.862 28.912 149.754 29.204 149.538 29.436C149.33 29.668 149.07 29.84 148.758 29.952C148.454 30.064 148.15 30.12 147.846 30.12C147.51 30.12 147.194 30.052 146.898 29.916C146.61 29.772 146.378 29.568 146.202 29.304C146.026 29.04 145.938 28.72 145.938 28.344C145.938 27.808 146.126 27.38 146.502 27.06C146.886 26.732 147.418 26.568 148.098 26.568C148.498 26.568 148.83 26.616 149.094 26.712C149.366 26.8 149.582 26.904 149.742 27.024C149.902 27.136 150.01 27.228 150.066 27.3V27.864C149.786 27.672 149.498 27.536 149.202 27.456C148.906 27.368 148.59 27.324 148.254 27.324C147.942 27.324 147.686 27.364 147.486 27.444C147.294 27.524 147.15 27.636 147.054 27.78C146.958 27.924 146.91 28.096 146.91 28.296ZM146.766 25.752L146.298 25.044C146.506 24.892 146.79 24.74 147.15 24.588C147.518 24.436 147.958 24.36 148.47 24.36C148.902 24.36 149.278 24.428 149.598 24.564C149.926 24.692 150.178 24.88 150.354 25.128C150.538 25.376 150.63 25.68 150.63 26.04V30H149.67V26.172C149.67 25.98 149.638 25.824 149.574 25.704C149.51 25.576 149.418 25.476 149.298 25.404C149.186 25.332 149.054 25.28 148.902 25.248C148.75 25.216 148.59 25.2 148.422 25.2C148.15 25.2 147.902 25.232 147.678 25.296C147.462 25.36 147.278 25.436 147.126 25.524C146.974 25.612 146.854 25.688 146.766 25.752ZM155.795 26.64C155.795 26.184 155.695 25.84 155.495 25.608C155.295 25.376 155.003 25.26 154.619 25.26C154.339 25.26 154.091 25.32 153.875 25.44C153.667 25.552 153.503 25.712 153.383 25.92C153.271 26.128 153.215 26.368 153.215 26.64V30H152.255V24.48H153.215V25.344C153.399 25.008 153.627 24.76 153.899 24.6C154.179 24.44 154.499 24.36 154.859 24.36C155.443 24.36 155.903 24.556 156.239 24.948C156.583 25.332 156.755 25.856 156.755 26.52V30H155.795V26.64ZM158.188 30.36H159.16C159.16 30.624 159.232 30.868 159.376 31.092C159.52 31.324 159.724 31.508 159.988 31.644C160.252 31.788 160.564 31.86 160.924 31.86C161.204 31.86 161.48 31.792 161.752 31.656C162.024 31.52 162.248 31.304 162.424 31.008C162.608 30.72 162.7 30.344 162.7 29.88V24.48H163.66V29.88C163.66 30.512 163.528 31.04 163.264 31.464C163 31.896 162.66 32.22 162.244 32.436C161.828 32.652 161.388 32.76 160.924 32.76C160.388 32.76 159.912 32.66 159.496 32.46C159.088 32.26 158.768 31.976 158.536 31.608C158.304 31.248 158.188 30.832 158.188 30.36ZM158.08 27.24C158.08 26.64 158.204 26.128 158.452 25.704C158.7 25.272 159.032 24.94 159.448 24.708C159.864 24.476 160.32 24.36 160.816 24.36C161.28 24.36 161.684 24.476 162.028 24.708C162.372 24.94 162.64 25.272 162.832 25.704C163.032 26.128 163.132 26.64 163.132 27.24C163.132 27.832 163.032 28.344 162.832 28.776C162.64 29.208 162.372 29.54 162.028 29.772C161.684 30.004 161.28 30.12 160.816 30.12C160.32 30.12 159.864 30.004 159.448 29.772C159.032 29.54 158.7 29.208 158.452 28.776C158.204 28.344 158.08 27.832 158.08 27.24ZM159.052 27.24C159.052 27.664 159.136 28.024 159.304 28.32C159.48 28.616 159.712 28.84 160 28.992C160.288 29.144 160.6 29.22 160.936 29.22C161.216 29.22 161.492 29.144 161.764 28.992C162.036 28.84 162.26 28.616 162.436 28.32C162.612 28.024 162.7 27.664 162.7 27.24C162.7 26.92 162.648 26.64 162.544 26.4C162.44 26.152 162.3 25.944 162.124 25.776C161.956 25.608 161.768 25.48 161.56 25.392C161.352 25.304 161.144 25.26 160.936 25.26C160.6 25.26 160.288 25.336 160 25.488C159.712 25.64 159.48 25.864 159.304 26.16C159.136 26.456 159.052 26.816 159.052 27.24ZM164.924 27.24C164.924 26.68 165.048 26.184 165.296 25.752C165.552 25.32 165.896 24.98 166.328 24.732C166.76 24.484 167.244 24.36 167.78 24.36C168.324 24.36 168.808 24.484 169.232 24.732C169.664 24.98 170.004 25.32 170.252 25.752C170.508 26.184 170.636 26.68 170.636 27.24C170.636 27.792 170.508 28.288 170.252 28.728C170.004 29.16 169.664 29.5 169.232 29.748C168.808 29.996 168.324 30.12 167.78 30.12C167.244 30.12 166.76 29.996 166.328 29.748C165.896 29.5 165.552 29.16 165.296 28.728C165.048 28.288 164.924 27.792 164.924 27.24ZM165.896 27.24C165.896 27.624 165.976 27.964 166.136 28.26C166.304 28.556 166.528 28.792 166.808 28.968C167.096 29.136 167.42 29.22 167.78 29.22C168.14 29.22 168.46 29.136 168.74 28.968C169.028 28.792 169.252 28.556 169.412 28.26C169.58 27.964 169.664 27.624 169.664 27.24C169.664 26.856 169.58 26.516 169.412 26.22C169.252 25.916 169.028 25.68 168.74 25.512C168.46 25.344 168.14 25.26 167.78 25.26C167.42 25.26 167.096 25.344 166.808 25.512C166.528 25.68 166.304 25.916 166.136 26.22C165.976 26.516 165.896 26.856 165.896 27.24ZM174.712 24.48H175.792L177.172 28.068L178.672 24.06L180.28 28.092L181.672 24.48H182.752L180.352 30.42L178.684 26.4L177.112 30.42L174.712 24.48ZM183.709 22.2C183.709 22.016 183.773 21.86 183.901 21.732C184.037 21.604 184.193 21.54 184.369 21.54C184.553 21.54 184.709 21.604 184.837 21.732C184.965 21.86 185.029 22.016 185.029 22.2C185.029 22.376 184.965 22.532 184.837 22.668C184.709 22.796 184.553 22.86 184.369 22.86C184.193 22.86 184.037 22.796 183.901 22.668C183.773 22.532 183.709 22.376 183.709 22.2ZM183.889 24.48H184.849V30H183.889V24.48ZM185.986 24.48H188.746V25.38H185.986V24.48ZM186.886 22.56H187.846V30H186.886V22.56ZM190.669 20.64V30H189.709V20.64H190.669ZM193.249 26.64C193.249 26.184 193.149 25.84 192.949 25.608C192.757 25.376 192.465 25.26 192.073 25.26C191.793 25.26 191.545 25.32 191.329 25.44C191.121 25.56 190.957 25.724 190.837 25.932C190.725 26.14 190.669 26.376 190.669 26.64H190.357C190.357 26.2 190.441 25.812 190.609 25.476C190.777 25.132 191.005 24.86 191.293 24.66C191.589 24.46 191.929 24.36 192.313 24.36C192.697 24.36 193.029 24.44 193.309 24.6C193.597 24.76 193.817 25 193.969 25.32C194.129 25.64 194.209 26.04 194.209 26.52V30H193.249V26.64ZM199.191 24.48H201.951V25.38H199.191V24.48ZM201.855 21.792C201.775 21.656 201.679 21.572 201.567 21.54C201.463 21.5 201.363 21.48 201.267 21.48C201.147 21.48 201.043 21.516 200.955 21.588C200.875 21.652 200.811 21.764 200.763 21.924C200.715 22.084 200.691 22.296 200.691 22.56V30H199.731V22.44C199.731 22 199.795 21.64 199.923 21.36C200.051 21.08 200.231 20.872 200.463 20.736C200.703 20.592 200.991 20.52 201.327 20.52C201.503 20.52 201.659 20.544 201.795 20.592C201.931 20.64 202.047 20.7 202.143 20.772C202.247 20.844 202.327 20.92 202.383 21L201.855 21.792ZM204.005 27.84C204.005 28.28 204.105 28.62 204.305 28.86C204.505 29.1 204.797 29.22 205.181 29.22C205.461 29.22 205.705 29.164 205.913 29.052C206.129 28.932 206.293 28.768 206.405 28.56C206.525 28.352 206.585 28.112 206.585 27.84V24.48H207.545V30H206.585V29.136C206.401 29.464 206.173 29.712 205.901 29.88C205.629 30.04 205.309 30.12 204.941 30.12C204.365 30.12 203.905 29.924 203.561 29.532C203.217 29.14 203.045 28.616 203.045 27.96V24.48H204.005V27.84ZM209.349 20.64H210.309V30H209.349V20.64ZM212.115 20.64H213.075V30H212.115V20.64ZM65.5327 41.48H68.2927V42.38H65.5327V41.48ZM68.1967 38.792C68.1167 38.656 68.0207 38.572 67.9087 38.54C67.8047 38.5 67.7047 38.48 67.6087 38.48C67.4887 38.48 67.3847 38.516 67.2967 38.588C67.2167 38.652 67.1527 38.764 67.1047 38.924C67.0567 39.084 67.0327 39.296 67.0327 39.56V47H66.0727V39.44C66.0727 39 66.1367 38.64 66.2647 38.36C66.3927 38.08 66.5727 37.872 66.8047 37.736C67.0447 37.592 67.3327 37.52 67.6687 37.52C67.8447 37.52 68.0007 37.544 68.1367 37.592C68.2727 37.64 68.3887 37.7 68.4847 37.772C68.5887 37.844 68.6687 37.92 68.7247 38L68.1967 38.792ZM70.3463 44.84C70.3463 45.28 70.4463 45.62 70.6463 45.86C70.8463 46.1 71.1383 46.22 71.5223 46.22C71.8023 46.22 72.0463 46.164 72.2543 46.052C72.4703 45.932 72.6343 45.768 72.7463 45.56C72.8663 45.352 72.9263 45.112 72.9263 44.84V41.48H73.8863V47H72.9263V46.136C72.7423 46.464 72.5143 46.712 72.2423 46.88C71.9703 47.04 71.6503 47.12 71.2823 47.12C70.7063 47.12 70.2463 46.924 69.9023 46.532C69.5583 46.14 69.3863 45.616 69.3863 44.96V41.48H70.3463V44.84ZM79.231 43.64C79.231 43.184 79.131 42.84 78.931 42.608C78.731 42.376 78.439 42.26 78.055 42.26C77.775 42.26 77.527 42.32 77.311 42.44C77.103 42.552 76.939 42.712 76.819 42.92C76.707 43.128 76.651 43.368 76.651 43.64V47H75.691V41.48H76.651V42.344C76.835 42.008 77.063 41.76 77.335 41.6C77.615 41.44 77.935 41.36 78.295 41.36C78.879 41.36 79.339 41.556 79.675 41.948C80.019 42.332 80.191 42.856 80.191 43.52V47H79.231V43.64ZM82.4277 44.24C82.4277 44.624 82.5077 44.964 82.6677 45.26C82.8357 45.556 83.0597 45.792 83.3397 45.968C83.6277 46.136 83.9517 46.22 84.3117 46.22C84.6077 46.22 84.8837 46.176 85.1397 46.088C85.4037 45.992 85.6317 45.868 85.8237 45.716C86.0157 45.556 86.1517 45.388 86.2317 45.212V46.412C86.0397 46.636 85.7637 46.812 85.4037 46.94C85.0517 47.06 84.6877 47.12 84.3117 47.12C83.7757 47.12 83.2917 46.996 82.8597 46.748C82.4277 46.5 82.0837 46.16 81.8277 45.728C81.5797 45.288 81.4557 44.792 81.4557 44.24C81.4557 43.68 81.5797 43.184 81.8277 42.752C82.0837 42.32 82.4277 41.98 82.8597 41.732C83.2917 41.484 83.7757 41.36 84.3117 41.36C84.6877 41.36 85.0517 41.424 85.4037 41.552C85.7637 41.672 86.0397 41.844 86.2317 42.068V43.268C86.1517 43.084 86.0157 42.916 85.8237 42.764C85.6317 42.612 85.4037 42.492 85.1397 42.404C84.8837 42.308 84.6077 42.26 84.3117 42.26C83.9517 42.26 83.6277 42.344 83.3397 42.512C83.0597 42.68 82.8357 42.916 82.6677 43.22C82.5077 43.516 82.4277 43.856 82.4277 44.24ZM86.8862 41.48H89.6462V42.38H86.8862V41.48ZM87.7862 39.56H88.7462V47H87.7862V39.56ZM90.609 39.2C90.609 39.016 90.673 38.86 90.801 38.732C90.937 38.604 91.093 38.54 91.269 38.54C91.453 38.54 91.609 38.604 91.737 38.732C91.865 38.86 91.929 39.016 91.929 39.2C91.929 39.376 91.865 39.532 91.737 39.668C91.609 39.796 91.453 39.86 91.269 39.86C91.093 39.86 90.937 39.796 90.801 39.668C90.673 39.532 90.609 39.376 90.609 39.2ZM90.789 41.48H91.749V47H90.789V41.48ZM93.2462 44.24C93.2462 43.68 93.3702 43.184 93.6182 42.752C93.8742 42.32 94.2182 41.98 94.6502 41.732C95.0822 41.484 95.5662 41.36 96.1022 41.36C96.6462 41.36 97.1302 41.484 97.5542 41.732C97.9862 41.98 98.3262 42.32 98.5742 42.752C98.8302 43.184 98.9582 43.68 98.9582 44.24C98.9582 44.792 98.8302 45.288 98.5742 45.728C98.3262 46.16 97.9862 46.5 97.5542 46.748C97.1302 46.996 96.6462 47.12 96.1022 47.12C95.5662 47.12 95.0822 46.996 94.6502 46.748C94.2182 46.5 93.8742 46.16 93.6182 45.728C93.3702 45.288 93.2462 44.792 93.2462 44.24ZM94.2182 44.24C94.2182 44.624 94.2982 44.964 94.4582 45.26C94.6262 45.556 94.8502 45.792 95.1302 45.968C95.4182 46.136 95.7422 46.22 96.1022 46.22C96.4622 46.22 96.7822 46.136 97.0622 45.968C97.3502 45.792 97.5742 45.556 97.7342 45.26C97.9022 44.964 97.9862 44.624 97.9862 44.24C97.9862 43.856 97.9022 43.516 97.7342 43.22C97.5742 42.916 97.3502 42.68 97.0622 42.512C96.7822 42.344 96.4622 42.26 96.1022 42.26C95.7422 42.26 95.4182 42.344 95.1302 42.512C94.8502 42.68 94.6262 42.916 94.4582 43.22C94.2982 43.516 94.2182 43.856 94.2182 44.24ZM103.817 43.64C103.817 43.184 103.717 42.84 103.517 42.608C103.317 42.376 103.025 42.26 102.641 42.26C102.361 42.26 102.113 42.32 101.897 42.44C101.689 42.552 101.525 42.712 101.405 42.92C101.293 43.128 101.237 43.368 101.237 43.64V47H100.277V41.48H101.237V42.344C101.421 42.008 101.649 41.76 101.921 41.6C102.201 41.44 102.521 41.36 102.881 41.36C103.465 41.36 103.925 41.556 104.261 41.948C104.605 42.332 104.777 42.856 104.777 43.52V47H103.817V43.64ZM107.014 45.296C107.014 45.504 107.062 45.684 107.158 45.836C107.262 45.988 107.402 46.104 107.578 46.184C107.762 46.256 107.97 46.292 108.202 46.292C108.498 46.292 108.762 46.232 108.994 46.112C109.234 45.992 109.422 45.824 109.558 45.608C109.702 45.384 109.774 45.128 109.774 44.84L109.966 45.56C109.966 45.912 109.858 46.204 109.642 46.436C109.434 46.668 109.174 46.84 108.862 46.952C108.558 47.064 108.254 47.12 107.95 47.12C107.614 47.12 107.298 47.052 107.002 46.916C106.714 46.772 106.482 46.568 106.306 46.304C106.13 46.04 106.042 45.72 106.042 45.344C106.042 44.808 106.23 44.38 106.606 44.06C106.99 43.732 107.522 43.568 108.202 43.568C108.602 43.568 108.934 43.616 109.198 43.712C109.47 43.8 109.686 43.904 109.846 44.024C110.006 44.136 110.114 44.228 110.17 44.3V44.864C109.89 44.672 109.602 44.536 109.306 44.456C109.01 44.368 108.694 44.324 108.358 44.324C108.046 44.324 107.79 44.364 107.59 44.444C107.398 44.524 107.254 44.636 107.158 44.78C107.062 44.924 107.014 45.096 107.014 45.296ZM106.87 42.752L106.402 42.044C106.61 41.892 106.894 41.74 107.254 41.588C107.622 41.436 108.062 41.36 108.574 41.36C109.006 41.36 109.382 41.428 109.702 41.564C110.03 41.692 110.282 41.88 110.458 42.128C110.642 42.376 110.734 42.68 110.734 43.04V47H109.774V43.172C109.774 42.98 109.742 42.824 109.678 42.704C109.614 42.576 109.522 42.476 109.402 42.404C109.29 42.332 109.158 42.28 109.006 42.248C108.854 42.216 108.694 42.2 108.526 42.2C108.254 42.2 108.006 42.232 107.782 42.296C107.566 42.36 107.382 42.436 107.23 42.524C107.078 42.612 106.958 42.688 106.87 42.752ZM112.359 37.64H113.319V47H112.359V37.64ZM115.125 39.2C115.125 39.016 115.189 38.86 115.317 38.732C115.453 38.604 115.609 38.54 115.785 38.54C115.969 38.54 116.125 38.604 116.253 38.732C116.381 38.86 116.445 39.016 116.445 39.2C116.445 39.376 116.381 39.532 116.253 39.668C116.125 39.796 115.969 39.86 115.785 39.86C115.609 39.86 115.453 39.796 115.317 39.668C115.189 39.532 115.125 39.376 115.125 39.2ZM115.305 41.48H116.265V47H115.305V41.48ZM117.402 41.48H120.162V42.38H117.402V41.48ZM118.302 39.56H119.262V47H118.302V39.56ZM125.505 41.48L121.905 49.64H120.825L122.337 46.22L120.225 41.48H121.365L123.117 45.8L122.721 45.752L124.425 41.48H125.505ZM129.167 41.48H131.927V42.38H129.167V41.48ZM130.067 39.56H131.027V47H130.067V39.56ZM132.41 44.24C132.41 43.68 132.534 43.184 132.782 42.752C133.038 42.32 133.382 41.98 133.814 41.732C134.246 41.484 134.73 41.36 135.266 41.36C135.81 41.36 136.294 41.484 136.718 41.732C137.15 41.98 137.49 42.32 137.738 42.752C137.994 43.184 138.122 43.68 138.122 44.24C138.122 44.792 137.994 45.288 137.738 45.728C137.49 46.16 137.15 46.5 136.718 46.748C136.294 46.996 135.81 47.12 135.266 47.12C134.73 47.12 134.246 46.996 133.814 46.748C133.382 46.5 133.038 46.16 132.782 45.728C132.534 45.288 132.41 44.792 132.41 44.24ZM133.382 44.24C133.382 44.624 133.462 44.964 133.622 45.26C133.79 45.556 134.014 45.792 134.294 45.968C134.582 46.136 134.906 46.22 135.266 46.22C135.626 46.22 135.946 46.136 136.226 45.968C136.514 45.792 136.738 45.556 136.898 45.26C137.066 44.964 137.15 44.624 137.15 44.24C137.15 43.856 137.066 43.516 136.898 43.22C136.738 42.916 136.514 42.68 136.226 42.512C135.946 42.344 135.626 42.26 135.266 42.26C134.906 42.26 134.582 42.344 134.294 42.512C134.014 42.68 133.79 42.916 133.622 43.22C133.462 43.516 133.382 43.856 133.382 44.24ZM150.599 43.52V47H149.639V43.64C149.639 43.168 149.551 42.82 149.375 42.596C149.207 42.372 148.943 42.26 148.583 42.26C148.319 42.26 148.091 42.316 147.899 42.428C147.707 42.532 147.559 42.688 147.455 42.896C147.351 43.104 147.299 43.352 147.299 43.64V47H146.339V43.64C146.339 43.168 146.251 42.82 146.075 42.596C145.907 42.372 145.643 42.26 145.283 42.26C145.019 42.26 144.791 42.316 144.599 42.428C144.407 42.532 144.259 42.688 144.155 42.896C144.051 43.104 143.999 43.352 143.999 43.64V47H143.039V41.48H143.999V42.284C144.167 41.972 144.375 41.74 144.623 41.588C144.879 41.436 145.179 41.36 145.523 41.36C145.907 41.36 146.235 41.452 146.507 41.636C146.787 41.812 146.991 42.064 147.119 42.392C147.311 42.048 147.551 41.792 147.839 41.624C148.127 41.448 148.455 41.36 148.823 41.36C149.199 41.36 149.519 41.444 149.783 41.612C150.047 41.78 150.247 42.028 150.383 42.356C150.527 42.676 150.599 43.064 150.599 43.52ZM154.538 47.12C154.026 47.12 153.57 47 153.17 46.76C152.778 46.512 152.47 46.172 152.246 45.74C152.03 45.308 151.922 44.808 151.922 44.24C151.922 43.664 152.034 43.16 152.258 42.728C152.49 42.296 152.81 41.96 153.218 41.72C153.634 41.48 154.114 41.36 154.658 41.36C155.202 41.36 155.666 41.476 156.05 41.708C156.442 41.932 156.742 42.256 156.95 42.68C157.158 43.104 157.262 43.608 157.262 44.192C157.262 44.248 157.258 44.308 157.25 44.372C157.25 44.428 157.25 44.464 157.25 44.48H152.534V43.664H156.494L156.11 44.216C156.134 44.176 156.158 44.116 156.182 44.036C156.206 43.948 156.218 43.876 156.218 43.82C156.218 43.492 156.15 43.208 156.014 42.968C155.886 42.728 155.706 42.54 155.474 42.404C155.242 42.268 154.97 42.2 154.658 42.2C154.29 42.2 153.974 42.28 153.71 42.44C153.454 42.592 153.254 42.816 153.11 43.112C152.974 43.4 152.902 43.756 152.894 44.18C152.894 44.612 152.962 44.98 153.098 45.284C153.234 45.588 153.434 45.82 153.698 45.98C153.962 46.14 154.282 46.22 154.658 46.22C155.034 46.22 155.366 46.14 155.654 45.98C155.942 45.812 156.186 45.56 156.386 45.224L157.166 45.716C156.878 46.18 156.514 46.532 156.074 46.772C155.642 47.004 155.13 47.12 154.538 47.12ZM160.714 47.12C160.202 47.12 159.746 47 159.346 46.76C158.954 46.512 158.646 46.172 158.422 45.74C158.206 45.308 158.098 44.808 158.098 44.24C158.098 43.664 158.21 43.16 158.434 42.728C158.666 42.296 158.986 41.96 159.394 41.72C159.81 41.48 160.29 41.36 160.834 41.36C161.378 41.36 161.842 41.476 162.226 41.708C162.618 41.932 162.918 42.256 163.126 42.68C163.334 43.104 163.438 43.608 163.438 44.192C163.438 44.248 163.434 44.308 163.426 44.372C163.426 44.428 163.426 44.464 163.426 44.48H158.71V43.664H162.67L162.286 44.216C162.31 44.176 162.334 44.116 162.358 44.036C162.382 43.948 162.394 43.876 162.394 43.82C162.394 43.492 162.326 43.208 162.19 42.968C162.062 42.728 161.882 42.54 161.65 42.404C161.418 42.268 161.146 42.2 160.834 42.2C160.466 42.2 160.15 42.28 159.886 42.44C159.63 42.592 159.43 42.816 159.286 43.112C159.15 43.4 159.078 43.756 159.07 44.18C159.07 44.612 159.138 44.98 159.274 45.284C159.41 45.588 159.61 45.82 159.874 45.98C160.138 46.14 160.458 46.22 160.834 46.22C161.21 46.22 161.542 46.14 161.83 45.98C162.118 45.812 162.362 45.56 162.562 45.224L163.342 45.716C163.054 46.18 162.69 46.532 162.25 46.772C161.818 47.004 161.306 47.12 160.714 47.12ZM163.914 41.48H166.674V42.38H163.914V41.48ZM164.814 39.56H165.774V47H164.814V39.56ZM175.614 41.48L172.014 49.64H170.934L172.446 46.22L170.334 41.48H171.474L173.226 45.8L172.83 45.752L174.534 41.48H175.614ZM175.863 44.24C175.863 43.68 175.987 43.184 176.235 42.752C176.491 42.32 176.835 41.98 177.267 41.732C177.699 41.484 178.183 41.36 178.719 41.36C179.263 41.36 179.747 41.484 180.171 41.732C180.603 41.98 180.943 42.32 181.191 42.752C181.447 43.184 181.575 43.68 181.575 44.24C181.575 44.792 181.447 45.288 181.191 45.728C180.943 46.16 180.603 46.5 180.171 46.748C179.747 46.996 179.263 47.12 178.719 47.12C178.183 47.12 177.699 46.996 177.267 46.748C176.835 46.5 176.491 46.16 176.235 45.728C175.987 45.288 175.863 44.792 175.863 44.24ZM176.835 44.24C176.835 44.624 176.915 44.964 177.075 45.26C177.243 45.556 177.467 45.792 177.747 45.968C178.035 46.136 178.359 46.22 178.719 46.22C179.079 46.22 179.399 46.136 179.679 45.968C179.967 45.792 180.191 45.556 180.351 45.26C180.519 44.964 180.603 44.624 180.603 44.24C180.603 43.856 180.519 43.516 180.351 43.22C180.191 42.916 179.967 42.68 179.679 42.512C179.399 42.344 179.079 42.26 178.719 42.26C178.359 42.26 178.035 42.344 177.747 42.512C177.467 42.68 177.243 42.916 177.075 43.22C176.915 43.516 176.835 43.856 176.835 44.24ZM183.854 44.84C183.854 45.28 183.954 45.62 184.154 45.86C184.354 46.1 184.646 46.22 185.03 46.22C185.31 46.22 185.554 46.164 185.762 46.052C185.978 45.932 186.142 45.768 186.254 45.56C186.374 45.352 186.434 45.112 186.434 44.84V41.48H187.394V47H186.434V46.136C186.25 46.464 186.022 46.712 185.75 46.88C185.478 47.04 185.158 47.12 184.79 47.12C184.214 47.12 183.754 46.924 183.41 46.532C183.066 46.14 182.894 45.616 182.894 44.96V41.48H183.854V44.84ZM190.159 41.48V47H189.199V41.48H190.159ZM191.827 42.536C191.699 42.44 191.583 42.372 191.479 42.332C191.375 42.284 191.243 42.26 191.083 42.26C190.843 42.26 190.655 42.32 190.519 42.44C190.383 42.56 190.287 42.724 190.231 42.932C190.183 43.14 190.159 43.376 190.159 43.64H189.727C189.727 43.2 189.803 42.812 189.955 42.476C190.115 42.132 190.319 41.86 190.567 41.66C190.815 41.46 191.067 41.36 191.323 41.36C191.523 41.36 191.707 41.388 191.875 41.444C192.051 41.492 192.211 41.592 192.355 41.744L191.827 42.536ZM200.45 43.64C200.45 43.184 200.35 42.84 200.15 42.608C199.95 42.376 199.658 42.26 199.274 42.26C198.994 42.26 198.746 42.32 198.53 42.44C198.322 42.552 198.158 42.712 198.038 42.92C197.926 43.128 197.87 43.368 197.87 43.64V47H196.91V41.48H197.87V42.344C198.054 42.008 198.282 41.76 198.554 41.6C198.834 41.44 199.154 41.36 199.514 41.36C200.098 41.36 200.558 41.556 200.894 41.948C201.238 42.332 201.41 42.856 201.41 43.52V47H200.45V43.64ZM205.35 47.12C204.838 47.12 204.382 47 203.982 46.76C203.59 46.512 203.282 46.172 203.058 45.74C202.842 45.308 202.734 44.808 202.734 44.24C202.734 43.664 202.846 43.16 203.07 42.728C203.302 42.296 203.622 41.96 204.03 41.72C204.446 41.48 204.926 41.36 205.47 41.36C206.014 41.36 206.478 41.476 206.862 41.708C207.254 41.932 207.554 42.256 207.762 42.68C207.97 43.104 208.074 43.608 208.074 44.192C208.074 44.248 208.07 44.308 208.062 44.372C208.062 44.428 208.062 44.464 208.062 44.48H203.346V43.664H207.306L206.922 44.216C206.946 44.176 206.97 44.116 206.994 44.036C207.018 43.948 207.03 43.876 207.03 43.82C207.03 43.492 206.962 43.208 206.826 42.968C206.698 42.728 206.518 42.54 206.286 42.404C206.054 42.268 205.782 42.2 205.47 42.2C205.102 42.2 204.786 42.28 204.522 42.44C204.266 42.592 204.066 42.816 203.922 43.112C203.786 43.4 203.714 43.756 203.706 44.18C203.706 44.612 203.774 44.98 203.91 45.284C204.046 45.588 204.246 45.82 204.51 45.98C204.774 46.14 205.094 46.22 205.47 46.22C205.846 46.22 206.178 46.14 206.466 45.98C206.754 45.812 206.998 45.56 207.198 45.224L207.978 45.716C207.69 46.18 207.326 46.532 206.886 46.772C206.454 47.004 205.942 47.12 205.35 47.12ZM211.526 47.12C211.014 47.12 210.558 47 210.158 46.76C209.766 46.512 209.458 46.172 209.234 45.74C209.018 45.308 208.91 44.808 208.91 44.24C208.91 43.664 209.022 43.16 209.246 42.728C209.478 42.296 209.798 41.96 210.206 41.72C210.622 41.48 211.102 41.36 211.646 41.36C212.19 41.36 212.654 41.476 213.038 41.708C213.43 41.932 213.73 42.256 213.938 42.68C214.146 43.104 214.25 43.608 214.25 44.192C214.25 44.248 214.246 44.308 214.238 44.372C214.238 44.428 214.238 44.464 214.238 44.48H209.522V43.664H213.482L213.098 44.216C213.122 44.176 213.146 44.116 213.17 44.036C213.194 43.948 213.206 43.876 213.206 43.82C213.206 43.492 213.138 43.208 213.002 42.968C212.874 42.728 212.694 42.54 212.462 42.404C212.23 42.268 211.958 42.2 211.646 42.2C211.278 42.2 210.962 42.28 210.698 42.44C210.442 42.592 210.242 42.816 210.098 43.112C209.962 43.4 209.89 43.756 209.882 44.18C209.882 44.612 209.95 44.98 210.086 45.284C210.222 45.588 210.422 45.82 210.686 45.98C210.95 46.14 211.27 46.22 211.646 46.22C212.022 46.22 212.354 46.14 212.642 45.98C212.93 45.812 213.174 45.56 213.374 45.224L214.154 45.716C213.866 46.18 213.502 46.532 213.062 46.772C212.63 47.004 212.118 47.12 211.526 47.12ZM219.706 37.64H220.666V47H219.706V37.64ZM215.086 44.24C215.086 43.64 215.21 43.128 215.458 42.704C215.706 42.272 216.038 41.94 216.454 41.708C216.87 41.476 217.326 41.36 217.822 41.36C218.286 41.36 218.69 41.476 219.034 41.708C219.378 41.94 219.646 42.272 219.838 42.704C220.038 43.128 220.138 43.64 220.138 44.24C220.138 44.832 220.038 45.344 219.838 45.776C219.646 46.208 219.378 46.54 219.034 46.772C218.69 47.004 218.286 47.12 217.822 47.12C217.326 47.12 216.87 47.004 216.454 46.772C216.038 46.54 215.706 46.208 215.458 45.776C215.21 45.344 215.086 44.832 215.086 44.24ZM216.058 44.24C216.058 44.664 216.142 45.024 216.31 45.32C216.486 45.616 216.718 45.84 217.006 45.992C217.294 46.144 217.606 46.22 217.942 46.22C218.222 46.22 218.498 46.144 218.77 45.992C219.042 45.84 219.266 45.616 219.442 45.32C219.618 45.024 219.706 44.664 219.706 44.24C219.706 43.816 219.618 43.456 219.442 43.16C219.266 42.864 219.042 42.64 218.77 42.488C218.498 42.336 218.222 42.26 217.942 42.26C217.606 42.26 217.294 42.336 217.006 42.488C216.718 42.64 216.486 42.864 216.31 43.16C216.142 43.456 216.058 43.816 216.058 44.24ZM222.638 45.308C222.75 45.476 222.878 45.632 223.022 45.776C223.166 45.92 223.33 46.036 223.514 46.124C223.706 46.204 223.914 46.244 224.138 46.244C224.41 46.244 224.622 46.184 224.774 46.064C224.934 45.936 225.014 45.764 225.014 45.548C225.014 45.356 224.95 45.196 224.822 45.068C224.702 44.932 224.546 44.82 224.354 44.732C224.162 44.636 223.958 44.548 223.742 44.468C223.502 44.372 223.258 44.26 223.01 44.132C222.77 43.996 222.566 43.824 222.398 43.616C222.238 43.4 222.158 43.132 222.158 42.812C222.158 42.484 222.242 42.212 222.41 41.996C222.586 41.78 222.81 41.62 223.082 41.516C223.362 41.412 223.65 41.36 223.946 41.36C224.242 41.36 224.518 41.408 224.774 41.504C225.038 41.6 225.27 41.728 225.47 41.888C225.67 42.048 225.826 42.232 225.938 42.44L225.17 42.932C225.018 42.724 224.826 42.552 224.594 42.416C224.37 42.28 224.114 42.212 223.826 42.212C223.626 42.212 223.454 42.256 223.31 42.344C223.166 42.432 223.094 42.568 223.094 42.752C223.094 42.896 223.15 43.024 223.262 43.136C223.374 43.248 223.518 43.348 223.694 43.436C223.87 43.524 224.054 43.608 224.246 43.688C224.566 43.816 224.858 43.956 225.122 44.108C225.386 44.252 225.594 44.428 225.746 44.636C225.906 44.844 225.986 45.112 225.986 45.44C225.986 45.92 225.81 46.32 225.458 46.64C225.114 46.96 224.658 47.12 224.09 47.12C223.722 47.12 223.39 47.056 223.094 46.928C222.798 46.792 222.546 46.62 222.338 46.412C222.138 46.204 221.986 45.992 221.882 45.776L222.638 45.308ZM227.49 46.52C227.49 46.336 227.554 46.18 227.682 46.052C227.818 45.924 227.974 45.86 228.15 45.86C228.334 45.86 228.49 45.924 228.618 46.052C228.746 46.18 228.81 46.336 228.81 46.52C228.81 46.696 228.746 46.852 228.618 46.988C228.49 47.116 228.334 47.18 228.15 47.18C227.974 47.18 227.818 47.116 227.682 46.988C227.554 46.852 227.49 46.696 227.49 46.52Z" fill="white"/>
<circle cx="150" cy="305" r="149.5" stroke="#FF3100"/>
<line x1="150.49" y1="451.002" x2="150.49" y2="55.9969" stroke="white" stroke-opacity="0.26" stroke-dasharray="9 9"/>
<line x1="111.992" y1="250.667" x2="186.017" y2="327.928" stroke="white" stroke-opacity="0.24"/>
<line x1="109.667" y1="326.295" x2="186.928" y2="252.27" stroke="white" stroke-opacity="0.13"/>
</svg>
