<svg width="987" height="452" viewBox="0 0 987 452" fill="none" xmlns="http://www.w3.org/2000/svg">
<path d="M59.9741 222.36L62.6141 207.56L94.5341 201.64L84.6941 259H68.1341L74.9341 219.16L59.9741 222.36ZM115.918 231C115.758 232.227 115.651 233.507 115.598 234.84C115.544 236.173 115.571 237.453 115.678 238.68C115.784 239.907 116.024 241.027 116.398 242.04C116.771 243 117.278 243.8 117.918 244.44C118.611 245.027 119.518 245.32 120.638 245.32C122.078 245.373 123.384 245 124.558 244.2C125.731 243.4 126.771 242.307 127.678 240.92C128.584 239.533 129.331 237.987 129.918 236.28C130.558 234.52 130.984 232.76 131.198 231C131.304 229.773 131.384 228.493 131.438 227.16C131.491 225.827 131.464 224.547 131.358 223.32C131.251 222.093 131.011 221 130.638 220.04C130.318 219.027 129.811 218.227 129.118 217.64C128.424 217 127.544 216.653 126.478 216.6C125.038 216.6 123.704 217 122.478 217.8C121.304 218.6 120.264 219.693 119.358 221.08C118.451 222.467 117.704 224.04 117.118 225.8C116.531 227.507 116.131 229.24 115.918 231ZM99.3578 231C99.9445 226.787 101.011 222.92 102.558 219.4C104.158 215.827 106.211 212.733 108.718 210.12C111.224 207.507 114.104 205.48 117.358 204.04C120.611 202.547 124.184 201.8 128.078 201.8C131.278 201.8 134.078 202.307 136.478 203.32C138.878 204.28 140.878 205.667 142.478 207.48C144.131 209.24 145.411 211.347 146.318 213.8C147.224 216.253 147.784 218.947 147.998 221.88C148.264 224.76 148.184 227.8 147.758 231C147.171 235.213 146.104 239.107 144.558 242.68C143.011 246.2 141.011 249.293 138.558 251.96C136.104 254.573 133.224 256.6 129.918 258.04C126.664 259.48 123.038 260.2 119.038 260.2C115.891 260.2 113.118 259.72 110.718 258.76C108.371 257.747 106.371 256.333 104.718 254.52C103.118 252.707 101.838 250.6 100.878 248.2C99.9711 245.747 99.3845 243.08 99.1178 240.2C98.8511 237.267 98.9311 234.2 99.3578 231ZM170.215 231C170.055 232.227 169.948 233.507 169.895 234.84C169.841 236.173 169.868 237.453 169.975 238.68C170.081 239.907 170.321 241.027 170.695 242.04C171.068 243 171.575 243.8 172.215 244.44C172.908 245.027 173.815 245.32 174.935 245.32C176.375 245.373 177.681 245 178.855 244.2C180.028 243.4 181.068 242.307 181.975 240.92C182.881 239.533 183.628 237.987 184.215 236.28C184.855 234.52 185.281 232.76 185.495 231C185.601 229.773 185.681 228.493 185.735 227.16C185.788 225.827 185.761 224.547 185.655 223.32C185.548 222.093 185.308 221 184.935 220.04C184.615 219.027 184.108 218.227 183.415 217.64C182.721 217 181.841 216.653 180.775 216.6C179.335 216.6 178.001 217 176.775 217.8C175.601 218.6 174.561 219.693 173.655 221.08C172.748 222.467 172.001 224.04 171.415 225.8C170.828 227.507 170.428 229.24 170.215 231ZM153.655 231C154.241 226.787 155.308 222.92 156.855 219.4C158.455 215.827 160.508 212.733 163.015 210.12C165.521 207.507 168.401 205.48 171.655 204.04C174.908 202.547 178.481 201.8 182.375 201.8C185.575 201.8 188.375 202.307 190.775 203.32C193.175 204.28 195.175 205.667 196.775 207.48C198.428 209.24 199.708 211.347 200.615 213.8C201.521 216.253 202.081 218.947 202.295 221.88C202.561 224.76 202.481 227.8 202.055 231C201.468 235.213 200.401 239.107 198.855 242.68C197.308 246.2 195.308 249.293 192.855 251.96C190.401 254.573 187.521 256.6 184.215 258.04C180.961 259.48 177.335 260.2 173.335 260.2C170.188 260.2 167.415 259.72 165.015 258.76C162.668 257.747 160.668 256.333 159.015 254.52C157.415 252.707 156.135 250.6 155.175 248.2C154.268 245.747 153.681 243.08 153.415 240.2C153.148 237.267 153.228 234.2 153.655 231ZM231.472 193.56H243.712L240.352 209.56H229.712L231.472 193.56ZM223.072 253.4H233.632L232.032 267.96H219.952L223.072 253.4ZM242.432 221C241.845 219.773 241.178 218.653 240.432 217.64C239.738 216.627 238.938 215.827 238.032 215.24C237.178 214.6 236.192 214.28 235.072 214.28C234.165 214.28 233.338 214.467 232.592 214.84C231.845 215.213 231.232 215.667 230.752 216.2C230.272 216.733 229.952 217.32 229.792 217.96C229.578 219.027 229.792 219.933 230.432 220.68C231.072 221.373 231.952 221.96 233.072 222.44C234.245 222.92 235.498 223.373 236.832 223.8C238.218 224.227 239.498 224.653 240.672 225.08C243.338 226.147 245.605 227.533 247.472 229.24C249.338 230.947 250.672 232.973 251.472 235.32C252.325 237.613 252.592 240.173 252.272 243C251.738 246.84 250.218 250.013 247.712 252.52C245.258 254.973 242.165 256.813 238.432 258.04C234.752 259.213 230.805 259.8 226.592 259.8C223.232 259.747 220.085 259.133 217.152 257.96C214.218 256.787 211.632 255.187 209.392 253.16C207.205 251.08 205.552 248.76 204.432 246.2L216.992 237.72C217.952 239.427 218.938 240.947 219.952 242.28C221.018 243.56 222.218 244.573 223.552 245.32C224.885 246.013 226.432 246.333 228.192 246.28C229.685 246.28 230.965 246.013 232.032 245.48C233.152 244.947 233.818 244.067 234.032 242.84C234.245 241.773 233.898 240.893 232.992 240.2C232.085 239.453 230.912 238.813 229.472 238.28C228.032 237.693 226.565 237.107 225.072 236.52C222.938 235.56 220.805 234.28 218.672 232.68C216.538 231.027 214.805 229 213.472 226.6C212.192 224.2 211.738 221.373 212.112 218.12C212.592 214.973 213.952 212.227 216.192 209.88C218.432 207.48 221.232 205.613 224.592 204.28C228.005 202.893 231.658 202.2 235.552 202.2C239.178 202.2 242.272 202.707 244.832 203.72C247.392 204.68 249.552 206.04 251.312 207.8C253.125 209.56 254.672 211.613 255.952 213.96L242.432 221Z" fill="#FF3100"/>
<path d="M141.731 155.8H146.381C147.221 155.8 148.011 155.91 148.751 156.13C149.491 156.33 150.061 156.68 150.461 157.18C150.881 157.68 151.041 158.38 150.941 159.28C150.801 160.38 150.301 161.28 149.441 161.98C148.601 162.66 147.501 163 146.141 163H140.501L141.041 160.15H144.761C145.281 160.15 145.731 160.02 146.111 159.76C146.491 159.48 146.721 159.14 146.801 158.74C146.841 158.56 146.831 158.39 146.771 158.23C146.731 158.07 146.651 157.93 146.531 157.81C146.431 157.69 146.291 157.6 146.111 157.54C145.931 157.48 145.721 157.44 145.481 157.42L141.521 157.39L141.731 155.8ZM141.701 156.37L141.941 154.63H145.451C145.731 154.63 145.991 154.58 146.231 154.48C146.471 154.36 146.671 154.2 146.831 154C147.011 153.78 147.121 153.54 147.161 153.28C147.201 153.06 147.181 152.86 147.101 152.68C147.021 152.5 146.891 152.35 146.711 152.23C146.551 152.11 146.351 152.05 146.111 152.05L142.361 152.02L142.871 149.2H147.221C148.001 149.22 148.731 149.36 149.411 149.62C150.111 149.88 150.651 150.29 151.031 150.85C151.431 151.39 151.571 152.1 151.451 152.98C151.331 153.76 151.021 154.4 150.521 154.9C150.021 155.4 149.401 155.77 148.661 156.01C147.941 156.25 147.181 156.37 146.381 156.37H141.701ZM140.321 149.2H144.701L142.331 163H137.981L140.321 149.2ZM152.465 163L155.945 146.62H160.355L156.875 163H152.465ZM158.855 144.58C158.235 144.58 157.705 144.45 157.265 144.19C156.845 143.91 156.635 143.44 156.635 142.78C156.635 142.22 156.735 141.75 156.935 141.37C157.155 140.99 157.465 140.7 157.865 140.5C158.265 140.3 158.745 140.2 159.305 140.2C159.885 140.2 160.395 140.33 160.835 140.59C161.275 140.85 161.495 141.31 161.495 141.97C161.495 142.75 161.275 143.38 160.835 143.86C160.415 144.34 159.755 144.58 158.855 144.58ZM171.721 154.75L167.281 162.07L162.961 161.08L172.681 148.06L177.931 161.23L173.611 162.13L171.721 154.75ZM175.081 163H165.571L165.061 165.7H160.621L161.731 159.43H179.941L178.831 165.7H174.571L175.081 163Z" fill="#FF3100"/>
<path d="M473.731 144.8H478.381C479.221 144.8 480.011 144.91 480.751 145.13C481.491 145.33 482.061 145.68 482.461 146.18C482.881 146.68 483.041 147.38 482.941 148.28C482.801 149.38 482.301 150.28 481.441 150.98C480.601 151.66 479.501 152 478.141 152H472.501L473.041 149.15H476.761C477.281 149.15 477.731 149.02 478.111 148.76C478.491 148.48 478.721 148.14 478.801 147.74C478.841 147.56 478.831 147.39 478.771 147.23C478.731 147.07 478.651 146.93 478.531 146.81C478.431 146.69 478.291 146.6 478.111 146.54C477.931 146.48 477.721 146.44 477.481 146.42L473.521 146.39L473.731 144.8ZM473.701 145.37L473.941 143.63H477.451C477.731 143.63 477.991 143.58 478.231 143.48C478.471 143.36 478.671 143.2 478.831 143C479.011 142.78 479.121 142.54 479.161 142.28C479.201 142.06 479.181 141.86 479.101 141.68C479.021 141.5 478.891 141.35 478.711 141.23C478.551 141.11 478.351 141.05 478.111 141.05L474.361 141.02L474.871 138.2H479.221C480.001 138.22 480.731 138.36 481.411 138.62C482.111 138.88 482.651 139.29 483.031 139.85C483.431 140.39 483.571 141.1 483.451 141.98C483.331 142.76 483.021 143.4 482.521 143.9C482.021 144.4 481.401 144.77 480.661 145.01C479.941 145.25 479.181 145.37 478.381 145.37H473.701ZM472.321 138.2H476.701L474.331 152H469.981L472.321 138.2ZM484.465 152L487.945 135.62H492.355L488.875 152H484.465ZM490.855 133.58C490.235 133.58 489.705 133.45 489.265 133.19C488.845 132.91 488.635 132.44 488.635 131.78C488.635 131.22 488.735 130.75 488.935 130.37C489.155 129.99 489.465 129.7 489.865 129.5C490.265 129.3 490.745 129.2 491.305 129.2C491.885 129.2 492.395 129.33 492.835 129.59C493.275 129.85 493.495 130.31 493.495 130.97C493.495 131.75 493.275 132.38 492.835 132.86C492.415 133.34 491.755 133.58 490.855 133.58ZM503.721 143.75L499.281 151.07L494.961 150.08L504.681 137.06L509.931 150.23L505.611 151.13L503.721 143.75ZM507.081 152H497.571L497.061 154.7H492.621L493.731 148.43H511.941L510.831 154.7H506.571L507.081 152Z" fill="#FF3100"/>
<path d="M795.731 144.8H800.381C801.221 144.8 802.011 144.91 802.751 145.13C803.491 145.33 804.061 145.68 804.461 146.18C804.881 146.68 805.041 147.38 804.941 148.28C804.801 149.38 804.301 150.28 803.441 150.98C802.601 151.66 801.501 152 800.141 152H794.501L795.041 149.15H798.761C799.281 149.15 799.731 149.02 800.111 148.76C800.491 148.48 800.721 148.14 800.801 147.74C800.841 147.56 800.831 147.39 800.771 147.23C800.731 147.07 800.651 146.93 800.531 146.81C800.431 146.69 800.291 146.6 800.111 146.54C799.931 146.48 799.721 146.44 799.481 146.42L795.521 146.39L795.731 144.8ZM795.701 145.37L795.941 143.63H799.451C799.731 143.63 799.991 143.58 800.231 143.48C800.471 143.36 800.671 143.2 800.831 143C801.011 142.78 801.121 142.54 801.161 142.28C801.201 142.06 801.181 141.86 801.101 141.68C801.021 141.5 800.891 141.35 800.711 141.23C800.551 141.11 800.351 141.05 800.111 141.05L796.361 141.02L796.871 138.2H801.221C802.001 138.22 802.731 138.36 803.411 138.62C804.111 138.88 804.651 139.29 805.031 139.85C805.431 140.39 805.571 141.1 805.451 141.98C805.331 142.76 805.021 143.4 804.521 143.9C804.021 144.4 803.401 144.77 802.661 145.01C801.941 145.25 801.181 145.37 800.381 145.37H795.701ZM794.321 138.2H798.701L796.331 152H791.981L794.321 138.2ZM806.465 152L809.945 135.62H814.355L810.875 152H806.465ZM812.855 133.58C812.235 133.58 811.705 133.45 811.265 133.19C810.845 132.91 810.635 132.44 810.635 131.78C810.635 131.22 810.735 130.75 810.935 130.37C811.155 129.99 811.465 129.7 811.865 129.5C812.265 129.3 812.745 129.2 813.305 129.2C813.885 129.2 814.395 129.33 814.835 129.59C815.275 129.85 815.495 130.31 815.495 130.97C815.495 131.75 815.275 132.38 814.835 132.86C814.415 133.34 813.755 133.58 812.855 133.58ZM825.721 143.75L821.281 151.07L816.961 150.08L826.681 137.06L831.931 150.23L827.611 151.13L825.721 143.75ZM829.081 152H819.571L819.061 154.7H814.621L815.731 148.43H833.941L832.831 154.7H828.571L829.081 152Z" fill="#FF3100"/>
<path d="M410.847 232.12L411.807 225.08C413.353 225.027 414.9 224.76 416.447 224.28C418.047 223.747 419.407 223.053 420.527 222.2C421.647 221.293 422.287 220.173 422.447 218.84C422.5 218.147 422.367 217.56 422.047 217.08C421.727 216.547 421.247 216.147 420.607 215.88C420.02 215.613 419.273 215.453 418.367 215.4C417.193 215.4 416.127 215.667 415.167 216.2C414.26 216.68 413.487 217.347 412.847 218.2C412.26 219 411.833 219.907 411.567 220.92L395.727 220.84C396.367 217.16 397.753 213.907 399.887 211.08C402.073 208.2 404.847 205.933 408.207 204.28C411.62 202.627 415.46 201.8 419.727 201.8C423.673 201.8 427.22 202.44 430.367 203.72C433.513 204.947 435.94 206.76 437.647 209.16C439.353 211.56 439.967 214.413 439.487 217.72C439.06 220.707 437.94 223.133 436.127 225C434.313 226.867 432.047 228.333 429.327 229.4C426.607 230.413 423.647 231.133 420.447 231.56C417.247 231.933 414.047 232.12 410.847 232.12ZM410.847 260.6C406.207 260.547 402.287 259.56 399.087 257.64C395.94 255.667 393.593 253.08 392.047 249.88C390.553 246.68 389.967 243.187 390.287 239.4H407.087C406.98 240.947 407.14 242.28 407.567 243.4C407.993 244.52 408.633 245.373 409.487 245.96C410.393 246.547 411.513 246.867 412.847 246.92C414.02 246.973 415.14 246.84 416.207 246.52C417.273 246.147 418.18 245.56 418.927 244.76C419.673 243.96 420.153 242.947 420.367 241.72C420.58 240.6 420.473 239.667 420.047 238.92C419.673 238.12 419.007 237.48 418.047 237C417.14 236.467 416.02 236.093 414.687 235.88C413.407 235.613 411.993 235.453 410.447 235.4L411.567 227.08C414.927 227.133 418.207 227.427 421.407 227.96C424.66 228.493 427.513 229.373 429.967 230.6C432.473 231.827 434.367 233.48 435.647 235.56C436.98 237.64 437.433 240.253 437.007 243.4C436.527 247.08 435.06 250.2 432.607 252.76C430.153 255.32 427.033 257.267 423.247 258.6C419.513 259.933 415.38 260.6 410.847 260.6ZM459.605 231C459.445 232.227 459.339 233.507 459.285 234.84C459.232 236.173 459.259 237.453 459.365 238.68C459.472 239.907 459.712 241.027 460.085 242.04C460.459 243 460.965 243.8 461.605 244.44C462.299 245.027 463.205 245.32 464.325 245.32C465.765 245.373 467.072 245 468.245 244.2C469.419 243.4 470.459 242.307 471.365 240.92C472.272 239.533 473.019 237.987 473.605 236.28C474.245 234.52 474.672 232.76 474.885 231C474.992 229.773 475.072 228.493 475.125 227.16C475.179 225.827 475.152 224.547 475.045 223.32C474.939 222.093 474.699 221 474.325 220.04C474.005 219.027 473.499 218.227 472.805 217.64C472.112 217 471.232 216.653 470.165 216.6C468.725 216.6 467.392 217 466.165 217.8C464.992 218.6 463.952 219.693 463.045 221.08C462.139 222.467 461.392 224.04 460.805 225.8C460.219 227.507 459.819 229.24 459.605 231ZM443.045 231C443.632 226.787 444.699 222.92 446.245 219.4C447.845 215.827 449.899 212.733 452.405 210.12C454.912 207.507 457.792 205.48 461.045 204.04C464.299 202.547 467.872 201.8 471.765 201.8C474.965 201.8 477.765 202.307 480.165 203.32C482.565 204.28 484.565 205.667 486.165 207.48C487.819 209.24 489.099 211.347 490.005 213.8C490.912 216.253 491.472 218.947 491.685 221.88C491.952 224.76 491.872 227.8 491.445 231C490.859 235.213 489.792 239.107 488.245 242.68C486.699 246.2 484.699 249.293 482.245 251.96C479.792 254.573 476.912 256.6 473.605 258.04C470.352 259.48 466.725 260.2 462.725 260.2C459.579 260.2 456.805 259.72 454.405 258.76C452.059 257.747 450.059 256.333 448.405 254.52C446.805 252.707 445.525 250.6 444.565 248.2C443.659 245.747 443.072 243.08 442.805 240.2C442.539 237.267 442.619 234.2 443.045 231ZM513.902 231C513.742 232.227 513.636 233.507 513.582 234.84C513.529 236.173 513.556 237.453 513.662 238.68C513.769 239.907 514.009 241.027 514.382 242.04C514.756 243 515.262 243.8 515.902 244.44C516.596 245.027 517.502 245.32 518.622 245.32C520.062 245.373 521.369 245 522.542 244.2C523.716 243.4 524.756 242.307 525.662 240.92C526.569 239.533 527.316 237.987 527.902 236.28C528.542 234.52 528.969 232.76 529.182 231C529.289 229.773 529.369 228.493 529.422 227.16C529.476 225.827 529.449 224.547 529.342 223.32C529.236 222.093 528.996 221 528.622 220.04C528.302 219.027 527.796 218.227 527.102 217.64C526.409 217 525.529 216.653 524.462 216.6C523.022 216.6 521.689 217 520.462 217.8C519.289 218.6 518.249 219.693 517.342 221.08C516.436 222.467 515.689 224.04 515.102 225.8C514.516 227.507 514.116 229.24 513.902 231ZM497.342 231C497.929 226.787 498.996 222.92 500.542 219.4C502.142 215.827 504.196 212.733 506.702 210.12C509.209 207.507 512.089 205.48 515.342 204.04C518.596 202.547 522.169 201.8 526.062 201.8C529.262 201.8 532.062 202.307 534.462 203.32C536.862 204.28 538.862 205.667 540.462 207.48C542.116 209.24 543.396 211.347 544.302 213.8C545.209 216.253 545.769 218.947 545.982 221.88C546.249 224.76 546.169 227.8 545.742 231C545.156 235.213 544.089 239.107 542.542 242.68C540.996 246.2 538.996 249.293 536.542 251.96C534.089 254.573 531.209 256.6 527.902 258.04C524.649 259.48 521.022 260.2 517.022 260.2C513.876 260.2 511.102 259.72 508.702 258.76C506.356 257.747 504.356 256.333 502.702 254.52C501.102 252.707 499.822 250.6 498.862 248.2C497.956 245.747 497.369 243.08 497.102 240.2C496.836 237.267 496.916 234.2 497.342 231ZM575.159 193.56H587.399L584.039 209.56H573.399L575.159 193.56ZM566.759 253.4H577.319L575.719 267.96H563.639L566.759 253.4ZM586.119 221C585.532 219.773 584.866 218.653 584.119 217.64C583.426 216.627 582.626 215.827 581.719 215.24C580.866 214.6 579.879 214.28 578.759 214.28C577.852 214.28 577.026 214.467 576.279 214.84C575.532 215.213 574.919 215.667 574.439 216.2C573.959 216.733 573.639 217.32 573.479 217.96C573.266 219.027 573.479 219.933 574.119 220.68C574.759 221.373 575.639 221.96 576.759 222.44C577.932 222.92 579.186 223.373 580.519 223.8C581.906 224.227 583.186 224.653 584.359 225.08C587.026 226.147 589.292 227.533 591.159 229.24C593.026 230.947 594.359 232.973 595.159 235.32C596.012 237.613 596.279 240.173 595.959 243C595.426 246.84 593.906 250.013 591.399 252.52C588.946 254.973 585.852 256.813 582.119 258.04C578.439 259.213 574.492 259.8 570.279 259.8C566.919 259.747 563.772 259.133 560.839 257.96C557.906 256.787 555.319 255.187 553.079 253.16C550.892 251.08 549.239 248.76 548.119 246.2L560.679 237.72C561.639 239.427 562.626 240.947 563.639 242.28C564.706 243.56 565.906 244.573 567.239 245.32C568.572 246.013 570.119 246.333 571.879 246.28C573.372 246.28 574.652 246.013 575.719 245.48C576.839 244.947 577.506 244.067 577.719 242.84C577.932 241.773 577.586 240.893 576.679 240.2C575.772 239.453 574.599 238.813 573.159 238.28C571.719 237.693 570.252 237.107 568.759 236.52C566.626 235.56 564.492 234.28 562.359 232.68C560.226 231.027 558.492 229 557.159 226.6C555.879 224.2 555.426 221.373 555.799 218.12C556.279 214.973 557.639 212.227 559.879 209.88C562.119 207.48 564.919 205.613 568.279 204.28C571.692 202.893 575.346 202.2 579.239 202.2C582.866 202.2 585.959 202.707 588.519 203.72C591.079 204.68 593.239 206.04 594.999 207.8C596.812 209.56 598.359 211.613 599.639 213.96L586.119 221Z" fill="#FF3100"/>
<path d="M729.621 247.72L770.021 201H784.581L774.981 257H756.821L759.141 242.92L761.621 242.04L764.741 224.04L753.781 235.72H774.101L775.941 233H787.621L785.061 247.8L729.621 247.72ZM811.551 229C811.391 230.227 811.284 231.507 811.231 232.84C811.177 234.173 811.204 235.453 811.311 236.68C811.417 237.907 811.657 239.027 812.031 240.04C812.404 241 812.911 241.8 813.551 242.44C814.244 243.027 815.151 243.32 816.271 243.32C817.711 243.373 819.017 243 820.191 242.2C821.364 241.4 822.404 240.307 823.311 238.92C824.217 237.533 824.964 235.987 825.551 234.28C826.191 232.52 826.617 230.76 826.831 229C826.937 227.773 827.017 226.493 827.071 225.16C827.124 223.827 827.097 222.547 826.991 221.32C826.884 220.093 826.644 219 826.271 218.04C825.951 217.027 825.444 216.227 824.751 215.64C824.057 215 823.177 214.653 822.111 214.6C820.671 214.6 819.337 215 818.111 215.8C816.937 216.6 815.897 217.693 814.991 219.08C814.084 220.467 813.337 222.04 812.751 223.8C812.164 225.507 811.764 227.24 811.551 229ZM794.991 229C795.577 224.787 796.644 220.92 798.191 217.4C799.791 213.827 801.844 210.733 804.351 208.12C806.857 205.507 809.737 203.48 812.991 202.04C816.244 200.547 819.817 199.8 823.711 199.8C826.911 199.8 829.711 200.307 832.111 201.32C834.511 202.28 836.511 203.667 838.111 205.48C839.764 207.24 841.044 209.347 841.951 211.8C842.857 214.253 843.417 216.947 843.631 219.88C843.897 222.76 843.817 225.8 843.391 229C842.804 233.213 841.737 237.107 840.191 240.68C838.644 244.2 836.644 247.293 834.191 249.96C831.737 252.573 828.857 254.6 825.551 256.04C822.297 257.48 818.671 258.2 814.671 258.2C811.524 258.2 808.751 257.72 806.351 256.76C804.004 255.747 802.004 254.333 800.351 252.52C798.751 250.707 797.471 248.6 796.511 246.2C795.604 243.747 795.017 241.08 794.751 238.2C794.484 235.267 794.564 232.2 794.991 229ZM865.848 229C865.688 230.227 865.581 231.507 865.528 232.84C865.474 234.173 865.501 235.453 865.608 236.68C865.714 237.907 865.954 239.027 866.328 240.04C866.701 241 867.208 241.8 867.848 242.44C868.541 243.027 869.448 243.32 870.568 243.32C872.008 243.373 873.314 243 874.488 242.2C875.661 241.4 876.701 240.307 877.608 238.92C878.514 237.533 879.261 235.987 879.848 234.28C880.488 232.52 880.914 230.76 881.128 229C881.234 227.773 881.314 226.493 881.368 225.16C881.421 223.827 881.394 222.547 881.288 221.32C881.181 220.093 880.941 219 880.568 218.04C880.248 217.027 879.741 216.227 879.048 215.64C878.354 215 877.474 214.653 876.408 214.6C874.968 214.6 873.634 215 872.408 215.8C871.234 216.6 870.194 217.693 869.288 219.08C868.381 220.467 867.634 222.04 867.048 223.8C866.461 225.507 866.061 227.24 865.848 229ZM849.288 229C849.874 224.787 850.941 220.92 852.488 217.4C854.088 213.827 856.141 210.733 858.648 208.12C861.154 205.507 864.034 203.48 867.288 202.04C870.541 200.547 874.114 199.8 878.008 199.8C881.208 199.8 884.008 200.307 886.408 201.32C888.808 202.28 890.808 203.667 892.408 205.48C894.061 207.24 895.341 209.347 896.248 211.8C897.154 214.253 897.714 216.947 897.928 219.88C898.194 222.76 898.114 225.8 897.688 229C897.101 233.213 896.034 237.107 894.488 240.68C892.941 244.2 890.941 247.293 888.488 249.96C886.034 252.573 883.154 254.6 879.848 256.04C876.594 257.48 872.968 258.2 868.968 258.2C865.821 258.2 863.048 257.72 860.648 256.76C858.301 255.747 856.301 254.333 854.648 252.52C853.048 250.707 851.768 248.6 850.808 246.2C849.901 243.747 849.314 241.08 849.048 238.2C848.781 235.267 848.861 232.2 849.288 229ZM927.104 191.56H939.344L935.984 207.56H925.344L927.104 191.56ZM918.704 251.4H929.264L927.664 265.96H915.584L918.704 251.4ZM938.064 219C937.478 217.773 936.811 216.653 936.064 215.64C935.371 214.627 934.571 213.827 933.664 213.24C932.811 212.6 931.824 212.28 930.704 212.28C929.798 212.28 928.971 212.467 928.224 212.84C927.478 213.213 926.864 213.667 926.384 214.2C925.904 214.733 925.584 215.32 925.424 215.96C925.211 217.027 925.424 217.933 926.064 218.68C926.704 219.373 927.584 219.96 928.704 220.44C929.878 220.92 931.131 221.373 932.464 221.8C933.851 222.227 935.131 222.653 936.304 223.08C938.971 224.147 941.238 225.533 943.104 227.24C944.971 228.947 946.304 230.973 947.104 233.32C947.958 235.613 948.224 238.173 947.904 241C947.371 244.84 945.851 248.013 943.344 250.52C940.891 252.973 937.798 254.813 934.064 256.04C930.384 257.213 926.438 257.8 922.224 257.8C918.864 257.747 915.718 257.133 912.784 255.96C909.851 254.787 907.264 253.187 905.024 251.16C902.838 249.08 901.184 246.76 900.064 244.2L912.624 235.72C913.584 237.427 914.571 238.947 915.584 240.28C916.651 241.56 917.851 242.573 919.184 243.32C920.518 244.013 922.064 244.333 923.824 244.28C925.318 244.28 926.598 244.013 927.664 243.48C928.784 242.947 929.451 242.067 929.664 240.84C929.878 239.773 929.531 238.893 928.624 238.2C927.718 237.453 926.544 236.813 925.104 236.28C923.664 235.693 922.198 235.107 920.704 234.52C918.571 233.56 916.438 232.28 914.304 230.68C912.171 229.027 910.438 227 909.104 224.6C907.824 222.2 907.371 219.373 907.744 216.12C908.224 212.973 909.584 210.227 911.824 207.88C914.064 205.48 916.864 203.613 920.224 202.28C923.638 200.893 927.291 200.2 931.184 200.2C934.811 200.2 937.904 200.707 940.464 201.72C943.024 202.68 945.184 204.04 946.944 205.8C948.758 207.56 950.304 209.613 951.584 211.96L938.064 219Z" fill="#FF3100"/>
<path d="M48.0493 302.5C48.0493 304.24 48.4193 305.8 49.1593 307.18C49.9193 308.56 50.9493 309.65 52.2493 310.45C53.5693 311.23 55.0693 311.62 56.7493 311.62C58.4293 311.62 59.9193 311.23 61.2193 310.45C62.5393 309.65 63.5693 308.56 64.3093 307.18C65.0493 305.8 65.4193 304.24 65.4193 302.5C65.4193 300.74 65.0493 299.18 64.3093 297.82C63.5693 296.44 62.5393 295.36 61.2193 294.58C59.9193 293.78 58.4293 293.38 56.7493 293.38C55.0693 293.38 53.5693 293.78 52.2493 294.58C50.9493 295.36 49.9193 296.44 49.1593 297.82C48.4193 299.18 48.0493 300.74 48.0493 302.5ZM46.3093 302.5C46.3093 300.96 46.5693 299.54 47.0893 298.24C47.6093 296.92 48.3393 295.78 49.2793 294.82C50.2193 293.84 51.3193 293.08 52.5793 292.54C53.8593 292 55.2493 291.73 56.7493 291.73C58.2493 291.73 59.6293 292 60.8893 292.54C62.1693 293.08 63.2793 293.84 64.2193 294.82C65.1593 295.78 65.8893 296.92 66.4093 298.24C66.9293 299.54 67.1893 300.96 67.1893 302.5C67.1893 304.04 66.9293 305.47 66.4093 306.79C65.8893 308.09 65.1593 309.23 64.2193 310.21C63.2793 311.17 62.1693 311.92 60.8893 312.46C59.6293 313 58.2493 313.27 56.7493 313.27C55.2493 313.27 53.8593 313 52.5793 312.46C51.3193 311.92 50.2193 311.17 49.2793 310.21C48.3393 309.23 47.6093 308.09 47.0893 306.79C46.5693 305.47 46.3093 304.04 46.3093 302.5ZM77.5322 301.57L72.5222 312.34H70.7822L77.5322 298.15L84.2822 312.34H82.5422L77.5322 301.57ZM84.5222 313H70.6322V315.7H68.9822V311.53H86.0822V315.7H84.5222V313ZM90.6204 306.43V304.96H100.7V306.43H90.6204ZM99.7404 299.2H101.3V313H99.7404V299.2ZM89.6904 299.2H91.2504V313H89.6904V299.2ZM104.724 306.1C104.724 304.7 105.034 303.46 105.654 302.38C106.274 301.3 107.114 300.45 108.174 299.83C109.254 299.21 110.464 298.9 111.804 298.9C113.144 298.9 114.344 299.21 115.404 299.83C116.484 300.45 117.334 301.3 117.954 302.38C118.574 303.46 118.884 304.7 118.884 306.1C118.884 307.48 118.574 308.72 117.954 309.82C117.334 310.9 116.484 311.75 115.404 312.37C114.344 312.99 113.144 313.3 111.804 313.3C110.464 313.3 109.254 312.99 108.174 312.37C107.114 311.75 106.274 310.9 105.654 309.82C105.034 308.72 104.724 307.48 104.724 306.1ZM106.314 306.1C106.314 307.22 106.554 308.21 107.034 309.07C107.514 309.93 108.164 310.61 108.984 311.11C109.824 311.59 110.764 311.83 111.804 311.83C112.844 311.83 113.774 311.59 114.594 311.11C115.434 310.61 116.094 309.93 116.574 309.07C117.054 308.21 117.294 307.22 117.294 306.1C117.294 305 117.054 304.02 116.574 303.16C116.094 302.28 115.434 301.6 114.594 301.12C113.774 300.62 112.844 300.37 111.804 300.37C110.764 300.37 109.824 300.62 108.984 301.12C108.164 301.6 107.514 302.27 107.034 303.13C106.554 303.99 106.314 304.98 106.314 306.1ZM122.541 306.1C122.541 307.22 122.781 308.21 123.261 309.07C123.741 309.93 124.391 310.61 125.211 311.11C126.051 311.59 126.991 311.83 128.031 311.83C128.771 311.83 129.461 311.72 130.101 311.5C130.741 311.28 131.291 311 131.751 310.66C132.231 310.3 132.571 309.94 132.771 309.58V311.53C132.351 312.03 131.701 312.45 130.821 312.79C129.961 313.13 129.031 313.3 128.031 313.3C126.691 313.3 125.491 312.99 124.431 312.37C123.371 311.75 122.521 310.9 121.881 309.82C121.261 308.72 120.951 307.48 120.951 306.1C120.951 304.7 121.261 303.46 121.881 302.38C122.521 301.3 123.371 300.45 124.431 299.83C125.491 299.21 126.691 298.9 128.031 298.9C129.031 298.9 129.961 299.08 130.821 299.44C131.701 299.78 132.351 300.19 132.771 300.67V302.62C132.571 302.24 132.231 301.88 131.751 301.54C131.291 301.2 130.741 300.92 130.101 300.7C129.461 300.48 128.771 300.37 128.031 300.37C126.991 300.37 126.051 300.62 125.211 301.12C124.391 301.6 123.741 302.27 123.261 303.13C122.781 303.99 122.541 304.98 122.541 306.1ZM134.407 299.2H142.507V300.67H134.407V299.2ZM137.677 299.62H139.237V313H137.677V299.62ZM143.396 306.1C143.396 304.7 143.706 303.46 144.326 302.38C144.946 301.3 145.786 300.45 146.846 299.83C147.926 299.21 149.136 298.9 150.476 298.9C151.816 298.9 153.016 299.21 154.076 299.83C155.156 300.45 156.006 301.3 156.626 302.38C157.246 303.46 157.556 304.7 157.556 306.1C157.556 307.48 157.246 308.72 156.626 309.82C156.006 310.9 155.156 311.75 154.076 312.37C153.016 312.99 151.816 313.3 150.476 313.3C149.136 313.3 147.926 312.99 146.846 312.37C145.786 311.75 144.946 310.9 144.326 309.82C143.706 308.72 143.396 307.48 143.396 306.1ZM144.986 306.1C144.986 307.22 145.226 308.21 145.706 309.07C146.186 309.93 146.836 310.61 147.656 311.11C148.496 311.59 149.436 311.83 150.476 311.83C151.516 311.83 152.446 311.59 153.266 311.11C154.106 310.61 154.766 309.93 155.246 309.07C155.726 308.21 155.966 307.22 155.966 306.1C155.966 305 155.726 304.02 155.246 303.16C154.766 302.28 154.106 301.6 153.266 301.12C152.446 300.62 151.516 300.37 150.476 300.37C149.436 300.37 148.496 300.62 147.656 301.12C146.836 301.6 146.186 302.27 145.706 303.13C145.226 303.99 144.986 304.98 144.986 306.1ZM162.383 319.6H160.823V299.2H162.383V319.6ZM174.173 306.1C174.173 307.58 173.873 308.86 173.273 309.94C172.693 311.02 171.893 311.85 170.873 312.43C169.873 313.01 168.753 313.3 167.513 313.3C166.353 313.3 165.333 312.99 164.453 312.37C163.573 311.73 162.883 310.87 162.383 309.79C161.903 308.69 161.663 307.46 161.663 306.1C161.663 304.72 161.903 303.49 162.383 302.41C162.883 301.33 163.573 300.48 164.453 299.86C165.333 299.22 166.353 298.9 167.513 298.9C168.753 298.9 169.873 299.19 170.873 299.77C171.893 300.35 172.693 301.18 173.273 302.26C173.873 303.32 174.173 304.6 174.173 306.1ZM172.613 306.1C172.613 304.9 172.373 303.87 171.893 303.01C171.413 302.15 170.773 301.5 169.973 301.06C169.173 300.6 168.283 300.37 167.303 300.37C166.463 300.37 165.663 300.62 164.903 301.12C164.143 301.62 163.533 302.3 163.073 303.16C162.613 304.02 162.383 305 162.383 306.1C162.383 307.2 162.613 308.18 163.073 309.04C163.533 309.9 164.143 310.58 164.903 311.08C165.663 311.58 166.463 311.83 167.303 311.83C168.283 311.83 169.173 311.61 169.973 311.17C170.773 310.71 171.413 310.05 171.893 309.19C172.373 308.33 172.613 307.3 172.613 306.1ZM180.032 297.04V313H178.352V297.04H180.032ZM179.192 291.13C179.572 291.13 179.862 291.25 180.062 291.49C180.262 291.71 180.362 292.02 180.362 292.42C180.362 292.84 180.262 293.17 180.062 293.41C179.862 293.63 179.572 293.74 179.192 293.74C178.832 293.74 178.552 293.63 178.352 293.41C178.152 293.17 178.052 292.84 178.052 292.42C178.052 292.02 178.152 291.71 178.352 291.49C178.552 291.25 178.832 291.13 179.192 291.13ZM185.865 306.43V304.96H195.945V306.43H185.865ZM194.985 299.2H196.545V313H194.985V299.2ZM184.935 299.2H186.495V313H184.935V299.2ZM201.018 299.2H202.578V313H201.018V299.2ZM208.488 299.2H210.498L203.988 304.9L211.068 313H209.088L202.008 304.9L208.488 299.2ZM212.741 306.1C212.741 304.7 213.051 303.46 213.671 302.38C214.291 301.3 215.131 300.45 216.191 299.83C217.271 299.21 218.481 298.9 219.821 298.9C221.161 298.9 222.361 299.21 223.421 299.83C224.501 300.45 225.351 301.3 225.971 302.38C226.591 303.46 226.901 304.7 226.901 306.1C226.901 307.48 226.591 308.72 225.971 309.82C225.351 310.9 224.501 311.75 223.421 312.37C222.361 312.99 221.161 313.3 219.821 313.3C218.481 313.3 217.271 312.99 216.191 312.37C215.131 311.75 214.291 310.9 213.671 309.82C213.051 308.72 212.741 307.48 212.741 306.1ZM214.331 306.1C214.331 307.22 214.571 308.21 215.051 309.07C215.531 309.93 216.181 310.61 217.001 311.11C217.841 311.59 218.781 311.83 219.821 311.83C220.861 311.83 221.791 311.59 222.611 311.11C223.451 310.61 224.111 309.93 224.591 309.07C225.071 308.21 225.311 307.22 225.311 306.1C225.311 305 225.071 304.02 224.591 303.16C224.111 302.28 223.451 301.6 222.611 301.12C221.791 300.62 220.861 300.37 219.821 300.37C218.781 300.37 217.841 300.62 217.001 301.12C216.181 301.6 215.531 302.27 215.051 303.13C214.571 303.99 214.331 304.98 214.331 306.1ZM231.098 305.92H235.088C236.048 305.92 236.908 306.01 237.668 306.19C238.428 306.37 239.028 306.7 239.468 307.18C239.908 307.66 240.128 308.35 240.128 309.25C240.128 310.29 239.778 311.18 239.078 311.92C238.398 312.64 237.268 313 235.688 313H231.098V311.62H235.328C236.468 311.62 237.288 311.37 237.788 310.87C238.308 310.37 238.568 309.77 238.568 309.07C238.568 308.61 238.468 308.24 238.268 307.96C238.088 307.66 237.838 307.42 237.518 307.24C237.198 307.06 236.828 306.93 236.408 306.85C235.988 306.77 235.548 306.73 235.088 306.73H231.098V305.92ZM231.098 306.28V305.38H234.788C235.148 305.38 235.518 305.34 235.898 305.26C236.278 305.18 236.618 305.04 236.918 304.84C237.238 304.64 237.488 304.4 237.668 304.12C237.868 303.82 237.968 303.46 237.968 303.04C237.968 302.24 237.668 301.63 237.068 301.21C236.488 300.79 235.728 300.58 234.788 300.58H231.098V299.2H234.788C235.648 299.2 236.428 299.33 237.128 299.59C237.848 299.83 238.428 300.23 238.868 300.79C239.308 301.33 239.528 302.05 239.528 302.95C239.528 303.73 239.308 304.37 238.868 304.87C238.428 305.35 237.848 305.71 237.128 305.95C236.428 306.17 235.648 306.28 234.788 306.28H231.098ZM230.198 299.2H231.758V313H230.198V299.2ZM253.975 300.55L243.415 314.05L243.565 311.65L254.125 298.15L253.975 300.55ZM244.975 299.2V311.83L243.415 314.05V299.2H244.975ZM254.125 298.15V313H252.565V300.37L254.125 298.15ZM269.473 300.55L258.913 314.05L259.063 311.65L269.623 298.15L269.473 300.55ZM260.473 299.2V311.83L258.913 314.05V299.2H260.473ZM269.623 298.15V313H268.063V300.37L269.623 298.15ZM259.543 292.15H260.953C260.953 292.57 261.063 293.01 261.283 293.47C261.503 293.91 261.863 294.29 262.363 294.61C262.863 294.91 263.503 295.06 264.283 295.06C265.063 295.06 265.703 294.91 266.203 294.61C266.703 294.29 267.063 293.91 267.283 293.47C267.503 293.01 267.613 292.57 267.613 292.15H269.023C269.023 292.83 268.843 293.5 268.483 294.16C268.143 294.8 267.623 295.33 266.923 295.75C266.223 296.15 265.343 296.35 264.283 296.35C263.243 296.35 262.363 296.15 261.643 295.75C260.943 295.33 260.413 294.8 260.053 294.16C259.713 293.5 259.543 292.83 259.543 292.15Z" fill="#D9D9D9"/>
<path d="M382.298 306.96V305.4H386.588C387.948 305.4 389.158 305.66 390.218 306.18C391.298 306.68 392.148 307.4 392.768 308.34C393.408 309.28 393.728 310.4 393.728 311.7C393.728 312.98 393.408 314.1 392.768 315.06C392.148 316 391.298 316.73 390.218 317.25C389.158 317.75 387.948 318 386.588 318H382.298V316.44H386.588C387.648 316.44 388.588 316.26 389.408 315.9C390.248 315.52 390.898 314.98 391.358 314.28C391.838 313.56 392.078 312.7 392.078 311.7C392.078 310.7 391.838 309.85 391.358 309.15C390.898 308.43 390.248 307.89 389.408 307.53C388.588 307.15 387.648 306.96 386.588 306.96H382.298ZM381.368 297H392.138V298.56H383.018V318H381.368V297ZM397.545 313.95C397.545 314.63 397.705 315.19 398.025 315.63C398.345 316.05 398.765 316.37 399.285 316.59C399.825 316.79 400.395 316.89 400.995 316.89C401.835 316.89 402.585 316.73 403.245 316.41C403.925 316.09 404.455 315.63 404.835 315.03C405.215 314.43 405.405 313.7 405.405 312.84L405.765 313.74C405.765 314.62 405.535 315.41 405.075 316.11C404.635 316.79 404.025 317.33 403.245 317.73C402.485 318.11 401.615 318.3 400.635 318.3C399.815 318.3 399.045 318.15 398.325 317.85C397.625 317.53 397.055 317.06 396.615 316.44C396.175 315.8 395.955 314.99 395.955 314.01C395.955 313.03 396.205 312.21 396.705 311.55C397.205 310.87 397.885 310.36 398.745 310.02C399.605 309.66 400.575 309.48 401.655 309.48C402.495 309.48 403.205 309.58 403.785 309.78C404.385 309.98 404.865 310.21 405.225 310.47C405.605 310.73 405.875 310.95 406.035 311.13V312.09C405.475 311.67 404.845 311.34 404.145 311.1C403.465 310.84 402.655 310.71 401.715 310.71C400.915 310.71 400.195 310.84 399.555 311.1C398.935 311.34 398.445 311.7 398.085 312.18C397.725 312.66 397.545 313.25 397.545 313.95ZM397.935 306.93L397.155 305.73C397.675 305.31 398.345 304.9 399.165 304.5C400.005 304.1 401.015 303.9 402.195 303.9C403.195 303.9 404.045 304.08 404.745 304.44C405.465 304.78 406.015 305.27 406.395 305.91C406.775 306.55 406.965 307.32 406.965 308.22V318H405.405V308.22C405.405 307.28 405.105 306.56 404.505 306.06C403.925 305.54 403.155 305.28 402.195 305.28C401.535 305.28 400.935 305.37 400.395 305.55C399.855 305.71 399.375 305.92 398.955 306.18C398.555 306.44 398.215 306.69 397.935 306.93ZM411.895 304.2H418.885V305.67H413.455V318H411.895V304.2ZM421.656 313.95C421.656 314.63 421.816 315.19 422.136 315.63C422.456 316.05 422.876 316.37 423.396 316.59C423.936 316.79 424.506 316.89 425.106 316.89C425.946 316.89 426.696 316.73 427.356 316.41C428.036 316.09 428.566 315.63 428.946 315.03C429.326 314.43 429.516 313.7 429.516 312.84L429.876 313.74C429.876 314.62 429.646 315.41 429.186 316.11C428.746 316.79 428.136 317.33 427.356 317.73C426.596 318.11 425.726 318.3 424.746 318.3C423.926 318.3 423.156 318.15 422.436 317.85C421.736 317.53 421.166 317.06 420.726 316.44C420.286 315.8 420.066 314.99 420.066 314.01C420.066 313.03 420.316 312.21 420.816 311.55C421.316 310.87 421.996 310.36 422.856 310.02C423.716 309.66 424.686 309.48 425.766 309.48C426.606 309.48 427.316 309.58 427.896 309.78C428.496 309.98 428.976 310.21 429.336 310.47C429.716 310.73 429.986 310.95 430.146 311.13V312.09C429.586 311.67 428.956 311.34 428.256 311.1C427.576 310.84 426.766 310.71 425.826 310.71C425.026 310.71 424.306 310.84 423.666 311.1C423.046 311.34 422.556 311.7 422.196 312.18C421.836 312.66 421.656 313.25 421.656 313.95ZM422.046 306.93L421.266 305.73C421.786 305.31 422.456 304.9 423.276 304.5C424.116 304.1 425.126 303.9 426.306 303.9C427.306 303.9 428.156 304.08 428.856 304.44C429.576 304.78 430.126 305.27 430.506 305.91C430.886 306.55 431.076 307.32 431.076 308.22V318H429.516V308.22C429.516 307.28 429.216 306.56 428.616 306.06C428.036 305.54 427.266 305.28 426.306 305.28C425.646 305.28 425.046 305.37 424.506 305.55C423.966 305.71 423.486 305.92 423.066 306.18C422.666 306.44 422.326 306.69 422.046 306.93ZM433.756 304.2H441.856V305.67H433.756V304.2ZM437.026 304.62H438.586V318H437.026V304.62ZM442.745 311.1C442.745 309.7 443.055 308.46 443.675 307.38C444.295 306.3 445.135 305.45 446.195 304.83C447.275 304.21 448.485 303.9 449.825 303.9C451.165 303.9 452.365 304.21 453.425 304.83C454.505 305.45 455.355 306.3 455.975 307.38C456.595 308.46 456.905 309.7 456.905 311.1C456.905 312.48 456.595 313.72 455.975 314.82C455.355 315.9 454.505 316.75 453.425 317.37C452.365 317.99 451.165 318.3 449.825 318.3C448.485 318.3 447.275 317.99 446.195 317.37C445.135 316.75 444.295 315.9 443.675 314.82C443.055 313.72 442.745 312.48 442.745 311.1ZM444.335 311.1C444.335 312.22 444.575 313.21 445.055 314.07C445.535 314.93 446.185 315.61 447.005 316.11C447.845 316.59 448.785 316.83 449.825 316.83C450.865 316.83 451.795 316.59 452.615 316.11C453.455 315.61 454.115 314.93 454.595 314.07C455.075 313.21 455.315 312.22 455.315 311.1C455.315 310 455.075 309.02 454.595 308.16C454.115 307.28 453.455 306.6 452.615 306.12C451.795 305.62 450.865 305.37 449.825 305.37C448.785 305.37 447.845 305.62 447.005 306.12C446.185 306.6 445.535 307.27 445.055 308.13C444.575 308.99 444.335 309.98 444.335 311.1ZM460.562 311.1C460.562 312.22 460.802 313.21 461.282 314.07C461.762 314.93 462.412 315.61 463.232 316.11C464.072 316.59 465.012 316.83 466.052 316.83C466.792 316.83 467.482 316.72 468.122 316.5C468.762 316.28 469.312 316 469.772 315.66C470.252 315.3 470.592 314.94 470.792 314.58V316.53C470.372 317.03 469.722 317.45 468.842 317.79C467.982 318.13 467.052 318.3 466.052 318.3C464.712 318.3 463.512 317.99 462.452 317.37C461.392 316.75 460.542 315.9 459.902 314.82C459.282 313.72 458.972 312.48 458.972 311.1C458.972 309.7 459.282 308.46 459.902 307.38C460.542 306.3 461.392 305.45 462.452 304.83C463.512 304.21 464.712 303.9 466.052 303.9C467.052 303.9 467.982 304.08 468.842 304.44C469.722 304.78 470.372 305.19 470.792 305.67V307.62C470.592 307.24 470.252 306.88 469.772 306.54C469.312 306.2 468.762 305.92 468.122 305.7C467.482 305.48 466.792 305.37 466.052 305.37C465.012 305.37 464.072 305.62 463.232 306.12C462.412 306.6 461.762 307.27 461.282 308.13C460.802 308.99 460.562 309.98 460.562 311.1ZM472.428 304.2H480.528V305.67H472.428V304.2ZM475.698 304.62H477.258V318H475.698V304.62ZM481.417 311.1C481.417 309.7 481.727 308.46 482.347 307.38C482.967 306.3 483.807 305.45 484.867 304.83C485.947 304.21 487.157 303.9 488.497 303.9C489.837 303.9 491.037 304.21 492.097 304.83C493.177 305.45 494.027 306.3 494.647 307.38C495.267 308.46 495.577 309.7 495.577 311.1C495.577 312.48 495.267 313.72 494.647 314.82C494.027 315.9 493.177 316.75 492.097 317.37C491.037 317.99 489.837 318.3 488.497 318.3C487.157 318.3 485.947 317.99 484.867 317.37C483.807 316.75 482.967 315.9 482.347 314.82C481.727 313.72 481.417 312.48 481.417 311.1ZM483.007 311.1C483.007 312.22 483.247 313.21 483.727 314.07C484.207 314.93 484.857 315.61 485.677 316.11C486.517 316.59 487.457 316.83 488.497 316.83C489.537 316.83 490.467 316.59 491.287 316.11C492.127 315.61 492.787 314.93 493.267 314.07C493.747 313.21 493.987 312.22 493.987 311.1C493.987 310 493.747 309.02 493.267 308.16C492.787 307.28 492.127 306.6 491.287 306.12C490.467 305.62 489.537 305.37 488.497 305.37C487.457 305.37 486.517 305.62 485.677 306.12C484.857 306.6 484.207 307.27 483.727 308.13C483.247 308.99 483.007 309.98 483.007 311.1ZM500.404 324.6H498.844V304.2H500.404V324.6ZM512.194 311.1C512.194 312.58 511.894 313.86 511.294 314.94C510.714 316.02 509.914 316.85 508.894 317.43C507.894 318.01 506.774 318.3 505.534 318.3C504.374 318.3 503.354 317.99 502.474 317.37C501.594 316.73 500.904 315.87 500.404 314.79C499.924 313.69 499.684 312.46 499.684 311.1C499.684 309.72 499.924 308.49 500.404 307.41C500.904 306.33 501.594 305.48 502.474 304.86C503.354 304.22 504.374 303.9 505.534 303.9C506.774 303.9 507.894 304.19 508.894 304.77C509.914 305.35 510.714 306.18 511.294 307.26C511.894 308.32 512.194 309.6 512.194 311.1ZM510.634 311.1C510.634 309.9 510.394 308.87 509.914 308.01C509.434 307.15 508.794 306.5 507.994 306.06C507.194 305.6 506.304 305.37 505.324 305.37C504.484 305.37 503.684 305.62 502.924 306.12C502.164 306.62 501.554 307.3 501.094 308.16C500.634 309.02 500.404 310 500.404 311.1C500.404 312.2 500.634 313.18 501.094 314.04C501.554 314.9 502.164 315.58 502.924 316.08C503.684 316.58 504.484 316.83 505.324 316.83C506.304 316.83 507.194 316.61 507.994 316.17C508.794 315.71 509.434 315.05 509.914 314.19C510.394 313.33 510.634 312.3 510.634 311.1ZM518.053 302.04V318H516.373V302.04H518.053ZM517.213 296.13C517.593 296.13 517.883 296.25 518.083 296.49C518.283 296.71 518.383 297.02 518.383 297.42C518.383 297.84 518.283 298.17 518.083 298.41C517.883 298.63 517.593 298.74 517.213 298.74C516.853 298.74 516.573 298.63 516.373 298.41C516.173 298.17 516.073 297.84 516.073 297.42C516.073 297.02 516.173 296.71 516.373 296.49C516.573 296.25 516.853 296.13 517.213 296.13ZM523.886 311.43V309.96H533.966V311.43H523.886ZM533.006 304.2H534.566V318H533.006V304.2ZM522.956 304.2H524.516V318H522.956V304.2ZM539.039 304.2H540.599V318H539.039V304.2ZM546.509 304.2H548.519L542.009 309.9L549.089 318H547.109L540.029 309.9L546.509 304.2ZM550.763 311.1C550.763 309.7 551.073 308.46 551.693 307.38C552.313 306.3 553.153 305.45 554.213 304.83C555.293 304.21 556.503 303.9 557.843 303.9C559.183 303.9 560.383 304.21 561.443 304.83C562.523 305.45 563.373 306.3 563.993 307.38C564.613 308.46 564.923 309.7 564.923 311.1C564.923 312.48 564.613 313.72 563.993 314.82C563.373 315.9 562.523 316.75 561.443 317.37C560.383 317.99 559.183 318.3 557.843 318.3C556.503 318.3 555.293 317.99 554.213 317.37C553.153 316.75 552.313 315.9 551.693 314.82C551.073 313.72 550.763 312.48 550.763 311.1ZM552.353 311.1C552.353 312.22 552.593 313.21 553.073 314.07C553.553 314.93 554.203 315.61 555.023 316.11C555.863 316.59 556.803 316.83 557.843 316.83C558.883 316.83 559.813 316.59 560.633 316.11C561.473 315.61 562.133 314.93 562.613 314.07C563.093 313.21 563.333 312.22 563.333 311.1C563.333 310 563.093 309.02 562.613 308.16C562.133 307.28 561.473 306.6 560.633 306.12C559.813 305.62 558.883 305.37 557.843 305.37C556.803 305.37 555.863 305.62 555.023 306.12C554.203 306.6 553.553 307.27 553.073 308.13C552.593 308.99 552.353 309.98 552.353 311.1ZM569.12 310.92H573.11C574.07 310.92 574.93 311.01 575.69 311.19C576.45 311.37 577.05 311.7 577.49 312.18C577.93 312.66 578.15 313.35 578.15 314.25C578.15 315.29 577.8 316.18 577.1 316.92C576.42 317.64 575.29 318 573.71 318H569.12V316.62H573.35C574.49 316.62 575.31 316.37 575.81 315.87C576.33 315.37 576.59 314.77 576.59 314.07C576.59 313.61 576.49 313.24 576.29 312.96C576.11 312.66 575.86 312.42 575.54 312.24C575.22 312.06 574.85 311.93 574.43 311.85C574.01 311.77 573.57 311.73 573.11 311.73H569.12V310.92ZM569.12 311.28V310.38H572.81C573.17 310.38 573.54 310.34 573.92 310.26C574.3 310.18 574.64 310.04 574.94 309.84C575.26 309.64 575.51 309.4 575.69 309.12C575.89 308.82 575.99 308.46 575.99 308.04C575.99 307.24 575.69 306.63 575.09 306.21C574.51 305.79 573.75 305.58 572.81 305.58H569.12V304.2H572.81C573.67 304.2 574.45 304.33 575.15 304.59C575.87 304.83 576.45 305.23 576.89 305.79C577.33 306.33 577.55 307.05 577.55 307.95C577.55 308.73 577.33 309.37 576.89 309.87C576.45 310.35 575.87 310.71 575.15 310.95C574.45 311.17 573.67 311.28 572.81 311.28H569.12ZM568.22 304.2H569.78V318H568.22V304.2ZM591.996 305.55L581.436 319.05L581.586 316.65L592.146 303.15L591.996 305.55ZM582.996 304.2V316.83L581.436 319.05V304.2H582.996ZM592.146 303.15V318H590.586V305.37L592.146 303.15ZM607.494 305.55L596.934 319.05L597.084 316.65L607.644 303.15L607.494 305.55ZM598.494 304.2V316.83L596.934 319.05V304.2H598.494ZM607.644 303.15V318H606.084V305.37L607.644 303.15ZM597.564 297.15H598.974C598.974 297.57 599.084 298.01 599.304 298.47C599.524 298.91 599.884 299.29 600.384 299.61C600.884 299.91 601.524 300.06 602.304 300.06C603.084 300.06 603.724 299.91 604.224 299.61C604.724 299.29 605.084 298.91 605.304 298.47C605.524 298.01 605.634 297.57 605.634 297.15H607.044C607.044 297.83 606.864 298.5 606.504 299.16C606.164 299.8 605.644 300.33 604.944 300.75C604.244 301.15 603.364 301.35 602.304 301.35C601.264 301.35 600.384 301.15 599.664 300.75C598.964 300.33 598.434 299.8 598.074 299.16C597.734 298.5 597.564 297.83 597.564 297.15Z" fill="#D9D9D9"/>
<path d="M723.257 320H716.987V318.92L719.267 318.59V300.02L716.987 299.66V298.58H723.257V299.66L720.977 300.02V318.59L723.257 318.92V320ZM727.953 313.43V311.96H738.033V313.43H727.953ZM737.073 306.2H738.633V320H737.073V306.2ZM727.023 306.2H728.583V320H727.023V306.2ZM741.037 306.2H749.137V307.67H741.037V306.2ZM744.307 306.62H745.867V320H744.307V306.62ZM751.015 313.49V312.14H761.275C761.275 311.2 761.075 310.37 760.675 309.65C760.275 308.91 759.725 308.33 759.025 307.91C758.345 307.49 757.555 307.28 756.655 307.28C755.755 307.28 754.925 307.49 754.165 307.91C753.405 308.33 752.795 308.94 752.335 309.74C751.875 310.52 751.645 311.45 751.645 312.53L751.615 313.07C751.615 314.23 751.825 315.25 752.245 316.13C752.665 316.99 753.245 317.66 753.985 318.14C754.745 318.6 755.615 318.83 756.595 318.83C757.475 318.83 758.215 318.7 758.815 318.44C759.435 318.16 759.955 317.81 760.375 317.39C760.815 316.95 761.185 316.48 761.485 315.98L762.745 316.79C762.345 317.41 761.885 317.99 761.365 318.53C760.845 319.05 760.195 319.48 759.415 319.82C758.635 320.14 757.635 320.3 756.415 320.3C755.215 320.3 754.125 319.99 753.145 319.37C752.185 318.75 751.425 317.89 750.865 316.79C750.305 315.69 750.025 314.45 750.025 313.07C750.025 312.75 750.035 312.45 750.055 312.17C750.095 311.87 750.145 311.57 750.205 311.27C750.445 310.21 750.855 309.28 751.435 308.48C752.015 307.66 752.755 307.03 753.655 306.59C754.555 306.13 755.555 305.9 756.655 305.9C757.855 305.9 758.935 306.19 759.895 306.77C760.855 307.33 761.605 308.12 762.145 309.14C762.705 310.16 762.985 311.36 762.985 312.74C762.985 312.86 762.975 312.99 762.955 313.13C762.955 313.25 762.945 313.37 762.925 313.49H751.015ZM768.075 326.6H766.515V306.2H768.075V326.6ZM779.865 313.1C779.865 314.58 779.565 315.86 778.965 316.94C778.385 318.02 777.585 318.85 776.565 319.43C775.565 320.01 774.445 320.3 773.205 320.3C772.045 320.3 771.025 319.99 770.145 319.37C769.265 318.73 768.575 317.87 768.075 316.79C767.595 315.69 767.355 314.46 767.355 313.1C767.355 311.72 767.595 310.49 768.075 309.41C768.575 308.33 769.265 307.48 770.145 306.86C771.025 306.22 772.045 305.9 773.205 305.9C774.445 305.9 775.565 306.19 776.565 306.77C777.585 307.35 778.385 308.18 778.965 309.26C779.565 310.32 779.865 311.6 779.865 313.1ZM778.305 313.1C778.305 311.9 778.065 310.87 777.585 310.01C777.105 309.15 776.465 308.5 775.665 308.06C774.865 307.6 773.975 307.37 772.995 307.37C772.155 307.37 771.355 307.62 770.595 308.12C769.835 308.62 769.225 309.3 768.765 310.16C768.305 311.02 768.075 312 768.075 313.1C768.075 314.2 768.305 315.18 768.765 316.04C769.225 316.9 769.835 317.58 770.595 318.08C771.355 318.58 772.155 318.83 772.995 318.83C773.975 318.83 774.865 318.61 775.665 318.17C776.465 317.71 777.105 317.05 777.585 316.19C778.065 315.33 778.305 314.3 778.305 313.1ZM784.584 313.43V311.96H794.664V313.43H784.584ZM793.704 306.2H795.264V320H793.704V306.2ZM783.654 306.2H785.214V320H783.654V306.2ZM799.678 313.49V312.14H809.938C809.938 311.2 809.738 310.37 809.338 309.65C808.938 308.91 808.388 308.33 807.688 307.91C807.008 307.49 806.218 307.28 805.318 307.28C804.418 307.28 803.588 307.49 802.828 307.91C802.068 308.33 801.458 308.94 800.998 309.74C800.538 310.52 800.308 311.45 800.308 312.53L800.278 313.07C800.278 314.23 800.488 315.25 800.908 316.13C801.328 316.99 801.908 317.66 802.648 318.14C803.408 318.6 804.278 318.83 805.258 318.83C806.138 318.83 806.878 318.7 807.478 318.44C808.098 318.16 808.618 317.81 809.038 317.39C809.478 316.95 809.848 316.48 810.148 315.98L811.408 316.79C811.008 317.41 810.548 317.99 810.028 318.53C809.508 319.05 808.858 319.48 808.078 319.82C807.298 320.14 806.298 320.3 805.078 320.3C803.878 320.3 802.788 319.99 801.808 319.37C800.848 318.75 800.088 317.89 799.528 316.79C798.968 315.69 798.688 314.45 798.688 313.07C798.688 312.75 798.698 312.45 798.718 312.17C798.758 311.87 798.808 311.57 798.868 311.27C799.108 310.21 799.518 309.28 800.098 308.48C800.678 307.66 801.418 307.03 802.318 306.59C803.218 306.13 804.218 305.9 805.318 305.9C806.518 305.9 807.598 306.19 808.558 306.77C809.518 307.33 810.268 308.12 810.808 309.14C811.368 310.16 811.648 311.36 811.648 312.74C811.648 312.86 811.638 312.99 811.618 313.13C811.618 313.25 811.608 313.37 811.588 313.49H799.678ZM813.107 306.2H821.207V307.67H813.107V306.2ZM816.377 306.62H817.937V320H816.377V306.62ZM846.649 320L843.979 307.97L844.819 305.15L848.419 320H846.649ZM838.879 318.65L844.819 305.15L844.969 308.51L839.419 320.93L838.879 318.65ZM839.419 320.93L833.959 308.51L834.109 305.15L839.959 318.65L839.419 320.93ZM830.509 320L834.109 305.15L834.949 307.97L832.309 320H830.509ZM851.192 315.95C851.192 316.63 851.352 317.19 851.672 317.63C851.992 318.05 852.412 318.37 852.932 318.59C853.472 318.79 854.042 318.89 854.642 318.89C855.482 318.89 856.232 318.73 856.892 318.41C857.572 318.09 858.102 317.63 858.482 317.03C858.862 316.43 859.052 315.7 859.052 314.84L859.412 315.74C859.412 316.62 859.182 317.41 858.722 318.11C858.282 318.79 857.672 319.33 856.892 319.73C856.132 320.11 855.262 320.3 854.282 320.3C853.462 320.3 852.692 320.15 851.972 319.85C851.272 319.53 850.702 319.06 850.262 318.44C849.822 317.8 849.602 316.99 849.602 316.01C849.602 315.03 849.852 314.21 850.352 313.55C850.852 312.87 851.532 312.36 852.392 312.02C853.252 311.66 854.222 311.48 855.302 311.48C856.142 311.48 856.852 311.58 857.432 311.78C858.032 311.98 858.512 312.21 858.872 312.47C859.252 312.73 859.522 312.95 859.682 313.13V314.09C859.122 313.67 858.492 313.34 857.792 313.1C857.112 312.84 856.302 312.71 855.362 312.71C854.562 312.71 853.842 312.84 853.202 313.1C852.582 313.34 852.092 313.7 851.732 314.18C851.372 314.66 851.192 315.25 851.192 315.95ZM851.582 308.93L850.802 307.73C851.322 307.31 851.992 306.9 852.812 306.5C853.652 306.1 854.662 305.9 855.842 305.9C856.842 305.9 857.692 306.08 858.392 306.44C859.112 306.78 859.662 307.27 860.042 307.91C860.422 308.55 860.612 309.32 860.612 310.22V320H859.052V310.22C859.052 309.28 858.752 308.56 858.152 308.06C857.572 307.54 856.802 307.28 855.842 307.28C855.182 307.28 854.582 307.37 854.042 307.55C853.502 307.71 853.022 307.92 852.602 308.18C852.202 308.44 851.862 308.69 851.582 308.93ZM865.543 306.2H872.533V307.67H867.103V320H865.543V306.2ZM875.303 315.95C875.303 316.63 875.463 317.19 875.783 317.63C876.103 318.05 876.523 318.37 877.043 318.59C877.583 318.79 878.153 318.89 878.753 318.89C879.593 318.89 880.343 318.73 881.003 318.41C881.683 318.09 882.213 317.63 882.593 317.03C882.973 316.43 883.163 315.7 883.163 314.84L883.523 315.74C883.523 316.62 883.293 317.41 882.833 318.11C882.393 318.79 881.783 319.33 881.003 319.73C880.243 320.11 879.373 320.3 878.393 320.3C877.573 320.3 876.803 320.15 876.083 319.85C875.383 319.53 874.813 319.06 874.373 318.44C873.933 317.8 873.713 316.99 873.713 316.01C873.713 315.03 873.963 314.21 874.463 313.55C874.963 312.87 875.643 312.36 876.503 312.02C877.363 311.66 878.333 311.48 879.413 311.48C880.253 311.48 880.963 311.58 881.543 311.78C882.143 311.98 882.623 312.21 882.983 312.47C883.363 312.73 883.633 312.95 883.793 313.13V314.09C883.233 313.67 882.603 313.34 881.903 313.1C881.223 312.84 880.413 312.71 879.473 312.71C878.673 312.71 877.953 312.84 877.313 313.1C876.693 313.34 876.203 313.7 875.843 314.18C875.483 314.66 875.303 315.25 875.303 315.95ZM875.693 308.93L874.913 307.73C875.433 307.31 876.103 306.9 876.923 306.5C877.763 306.1 878.773 305.9 879.953 305.9C880.953 305.9 881.803 306.08 882.503 306.44C883.223 306.78 883.773 307.27 884.153 307.91C884.533 308.55 884.723 309.32 884.723 310.22V320H883.163V310.22C883.163 309.28 882.863 308.56 882.263 308.06C881.683 307.54 880.913 307.28 879.953 307.28C879.293 307.28 878.693 307.37 878.153 307.55C877.613 307.71 877.133 307.92 876.713 308.18C876.313 308.44 875.973 308.69 875.693 308.93ZM894.574 312.95V311.96C895.674 311.96 896.504 311.75 897.064 311.33C897.624 310.89 897.904 310.33 897.904 309.65C897.904 308.93 897.614 308.36 897.034 307.94C896.474 307.52 895.734 307.31 894.814 307.31C894.094 307.31 893.474 307.45 892.954 307.73C892.434 308.01 892.034 308.37 891.754 308.81C891.494 309.23 891.364 309.66 891.364 310.1H889.774C889.774 309.34 889.994 308.64 890.434 308C890.894 307.36 891.504 306.85 892.264 306.47C893.044 306.09 893.904 305.9 894.844 305.9C895.724 305.9 896.514 306.06 897.214 306.38C897.914 306.7 898.464 307.13 898.864 307.67C899.284 308.21 899.494 308.83 899.494 309.53C899.494 310.53 899.064 311.35 898.204 311.99C897.364 312.63 896.154 312.95 894.574 312.95ZM894.754 320.3C893.134 320.3 891.824 319.86 890.824 318.98C889.824 318.1 889.244 316.99 889.084 315.65H890.674C890.814 316.53 891.214 317.3 891.874 317.96C892.534 318.6 893.494 318.92 894.754 318.92C895.454 318.92 896.084 318.81 896.644 318.59C897.224 318.37 897.684 318.05 898.024 317.63C898.384 317.21 898.564 316.69 898.564 316.07C898.564 315.45 898.394 314.94 898.054 314.54C897.714 314.14 897.244 313.84 896.644 313.64C896.044 313.44 895.354 313.34 894.574 313.34V312.35C896.314 312.35 897.664 312.66 898.624 313.28C899.604 313.88 900.094 314.8 900.094 316.04C900.094 316.94 899.844 317.71 899.344 318.35C898.864 318.99 898.214 319.48 897.394 319.82C896.574 320.14 895.694 320.3 894.754 320.3ZM914.394 307.55L903.834 321.05L903.984 318.65L914.544 305.15L914.394 307.55ZM905.394 306.2V318.83L903.834 321.05V306.2H905.394ZM914.544 305.15V320H912.984V307.37L914.544 305.15ZM920.112 313.43V311.96H930.192V313.43H920.112ZM929.232 306.2H930.792V320H929.232V306.2ZM919.182 306.2H920.742V320H919.182V306.2ZM946.005 307.55L935.445 321.05L935.595 318.65L946.155 305.15L946.005 307.55ZM937.005 306.2V318.83L935.445 321.05V306.2H937.005ZM946.155 305.15V320H944.595V307.37L946.155 305.15Z" fill="#D9D9D9"/>
<circle cx="159.5" cy="240.5" r="159" stroke="#CE664D" stroke-dasharray="10 10"/>
<circle cx="493" cy="226" r="225.5" stroke="#CE664D" stroke-dasharray="10 10"/>
<circle cx="827.5" cy="243.5" r="159" stroke="#CE664D" stroke-dasharray="10 10"/>
</svg>
