<svg width="383" height="867" viewBox="0 0 383 867" fill="none" xmlns="http://www.w3.org/2000/svg">
<path d="M113.468 786.5C113.468 788.24 113.838 789.8 114.578 791.18C115.338 792.56 116.368 793.65 117.668 794.45C118.988 795.23 120.488 795.62 122.168 795.62C123.848 795.62 125.338 795.23 126.638 794.45C127.958 793.65 128.988 792.56 129.728 791.18C130.468 789.8 130.838 788.24 130.838 786.5C130.838 784.74 130.468 783.18 129.728 781.82C128.988 780.44 127.958 779.36 126.638 778.58C125.338 777.78 123.848 777.38 122.168 777.38C120.488 777.38 118.988 777.78 117.668 778.58C116.368 779.36 115.338 780.44 114.578 781.82C113.838 783.18 113.468 784.74 113.468 786.5ZM111.728 786.5C111.728 784.96 111.988 783.54 112.508 782.24C113.028 780.92 113.758 779.78 114.698 778.82C115.638 777.84 116.738 777.08 117.998 776.54C119.278 776 120.668 775.73 122.168 775.73C123.668 775.73 125.048 776 126.308 776.54C127.588 777.08 128.698 777.84 129.638 778.82C130.578 779.78 131.308 780.92 131.828 782.24C132.348 783.54 132.608 784.96 132.608 786.5C132.608 788.04 132.348 789.47 131.828 790.79C131.308 792.09 130.578 793.23 129.638 794.21C128.698 795.17 127.588 795.92 126.308 796.46C125.048 797 123.668 797.27 122.168 797.27C120.668 797.27 119.278 797 117.998 796.46C116.738 795.92 115.638 795.17 114.698 794.21C113.758 793.23 113.028 792.09 112.508 790.79C111.988 789.47 111.728 788.04 111.728 786.5ZM145.154 788.12C145.154 786.94 144.894 786.02 144.374 785.36C143.854 784.7 143.034 784.37 141.914 784.37C141.134 784.37 140.434 784.56 139.814 784.94C139.214 785.3 138.734 785.8 138.374 786.44C138.034 787.08 137.864 787.8 137.864 788.6V797H136.304V783.2H137.864V786.08C138.244 785.08 138.814 784.3 139.574 783.74C140.354 783.18 141.254 782.9 142.274 782.9C143.714 782.9 144.814 783.36 145.574 784.28C146.334 785.18 146.714 786.4 146.714 787.94V797H145.154V788.12ZM151.45 773.6H153.01V797H151.45V773.6ZM157.749 776.96C157.749 776.64 157.859 776.38 158.079 776.18C158.299 775.96 158.559 775.85 158.859 775.85C159.179 775.85 159.439 775.96 159.639 776.18C159.859 776.38 159.969 776.64 159.969 776.96C159.969 777.26 159.859 777.52 159.639 777.74C159.439 777.96 159.179 778.07 158.859 778.07C158.559 778.07 158.299 777.96 158.079 777.74C157.859 777.52 157.749 777.26 157.749 776.96ZM158.079 783.2H159.639V797H158.079V783.2ZM173.572 788.12C173.572 786.94 173.312 786.02 172.792 785.36C172.272 784.7 171.452 784.37 170.332 784.37C169.552 784.37 168.852 784.56 168.232 784.94C167.632 785.3 167.152 785.8 166.792 786.44C166.452 787.08 166.282 787.8 166.282 788.6V797H164.722V783.2H166.282V786.08C166.662 785.08 167.232 784.3 167.992 783.74C168.772 783.18 169.672 782.9 170.692 782.9C172.132 782.9 173.232 783.36 173.992 784.28C174.752 785.18 175.132 786.4 175.132 787.94V797H173.572V788.12ZM185.058 797.3C183.818 797.3 182.718 796.99 181.758 796.37C180.798 795.75 180.038 794.9 179.478 793.82C178.938 792.72 178.668 791.47 178.668 790.07C178.668 788.67 178.948 787.43 179.508 786.35C180.068 785.27 180.848 784.43 181.848 783.83C182.848 783.21 183.998 782.9 185.298 782.9C186.558 782.9 187.658 783.19 188.598 783.77C189.558 784.35 190.298 785.16 190.818 786.2C191.358 787.22 191.628 788.4 191.628 789.74C191.628 789.86 191.618 789.99 191.598 790.13C191.598 790.27 191.588 790.39 191.568 790.49H179.658V789.14H190.398L189.738 790.07C189.778 789.97 189.818 789.84 189.858 789.68C189.918 789.5 189.948 789.33 189.948 789.17C189.948 788.23 189.738 787.39 189.318 786.65C188.918 785.91 188.368 785.33 187.668 784.91C186.968 784.49 186.178 784.28 185.298 784.28C184.278 784.28 183.388 784.52 182.628 785C181.888 785.46 181.308 786.12 180.888 786.98C180.468 787.82 180.258 788.82 180.258 789.98C180.258 791.16 180.458 792.19 180.858 793.07C181.278 793.95 181.858 794.63 182.598 795.11C183.358 795.59 184.238 795.83 185.238 795.83C186.298 795.83 187.218 795.6 187.998 795.14C188.798 794.68 189.508 793.96 190.128 792.98L191.388 793.79C190.608 794.99 189.698 795.88 188.658 796.46C187.638 797.02 186.438 797.3 185.058 797.3ZM204.125 793.07C204.325 793.57 204.595 794.03 204.935 794.45C205.275 794.87 205.705 795.21 206.225 795.47C206.765 795.73 207.395 795.86 208.115 795.86C208.955 795.86 209.625 795.65 210.125 795.23C210.645 794.79 210.905 794.19 210.905 793.43C210.905 792.87 210.745 792.41 210.425 792.05C210.105 791.67 209.685 791.36 209.165 791.12C208.645 790.86 208.085 790.63 207.485 790.43C206.845 790.19 206.225 789.92 205.625 789.62C205.025 789.32 204.525 788.92 204.125 788.42C203.745 787.9 203.555 787.23 203.555 786.41C203.555 785.63 203.745 784.98 204.125 784.46C204.525 783.94 205.035 783.56 205.655 783.32C206.295 783.06 206.975 782.93 207.695 782.93C208.475 782.93 209.175 783.06 209.795 783.32C210.415 783.58 210.945 783.92 211.385 784.34C211.825 784.76 212.165 785.23 212.405 785.75L211.115 786.53C210.795 785.93 210.345 785.41 209.765 784.97C209.185 784.53 208.435 784.31 207.515 784.31C206.835 784.31 206.255 784.48 205.775 784.82C205.315 785.16 205.085 785.66 205.085 786.32C205.085 786.86 205.235 787.31 205.535 787.67C205.835 788.01 206.235 788.29 206.735 788.51C207.235 788.73 207.765 788.94 208.325 789.14C209.065 789.42 209.745 789.73 210.365 790.07C211.005 790.41 211.515 790.83 211.895 791.33C212.295 791.83 212.495 792.47 212.495 793.25C212.495 794.45 212.075 795.43 211.235 796.19C210.415 796.93 209.345 797.3 208.025 797.3C207.065 797.3 206.225 797.13 205.505 796.79C204.805 796.45 204.235 796.01 203.795 795.47C203.375 794.93 203.065 794.37 202.865 793.79L204.125 793.07ZM214.155 783.2H220.215V784.67H214.155V783.2ZM216.405 778.4H217.965V797H216.405V778.4ZM221.647 790.1C221.647 788.7 221.957 787.46 222.577 786.38C223.197 785.3 224.037 784.45 225.097 783.83C226.177 783.21 227.387 782.9 228.727 782.9C230.067 782.9 231.267 783.21 232.327 783.83C233.407 784.45 234.257 785.3 234.877 786.38C235.497 787.46 235.807 788.7 235.807 790.1C235.807 791.48 235.497 792.72 234.877 793.82C234.257 794.9 233.407 795.75 232.327 796.37C231.267 796.99 230.067 797.3 228.727 797.3C227.387 797.3 226.177 796.99 225.097 796.37C224.037 795.75 223.197 794.9 222.577 793.82C221.957 792.72 221.647 791.48 221.647 790.1ZM223.237 790.1C223.237 791.22 223.477 792.21 223.957 793.07C224.437 793.93 225.087 794.61 225.907 795.11C226.747 795.59 227.687 795.83 228.727 795.83C229.767 795.83 230.697 795.59 231.517 795.11C232.357 794.61 233.017 793.93 233.497 793.07C233.977 792.21 234.217 791.22 234.217 790.1C234.217 789 233.977 788.02 233.497 787.16C233.017 786.28 232.357 785.6 231.517 785.12C230.697 784.62 229.767 784.37 228.727 784.37C227.687 784.37 226.747 784.62 225.907 785.12C225.087 785.6 224.437 786.27 223.957 787.13C223.477 787.99 223.237 788.98 223.237 790.1ZM240.901 783.2V797H239.341V783.2H240.901ZM245.491 785.03C245.191 784.81 244.901 784.65 244.621 784.55C244.361 784.43 244.051 784.37 243.691 784.37C243.011 784.37 242.461 784.56 242.041 784.94C241.641 785.32 241.351 785.83 241.171 786.47C240.991 787.11 240.901 787.82 240.901 788.6H240.181C240.181 787.5 240.351 786.53 240.691 785.69C241.031 784.83 241.491 784.15 242.071 783.65C242.671 783.15 243.331 782.9 244.051 782.9C244.491 782.9 244.901 782.97 245.281 783.11C245.681 783.23 246.041 783.44 246.361 783.74L245.491 785.03ZM253.759 797.3C252.519 797.3 251.419 796.99 250.459 796.37C249.499 795.75 248.739 794.9 248.179 793.82C247.639 792.72 247.369 791.47 247.369 790.07C247.369 788.67 247.649 787.43 248.209 786.35C248.769 785.27 249.549 784.43 250.549 783.83C251.549 783.21 252.699 782.9 253.999 782.9C255.259 782.9 256.359 783.19 257.299 783.77C258.259 784.35 258.999 785.16 259.519 786.2C260.059 787.22 260.329 788.4 260.329 789.74C260.329 789.86 260.319 789.99 260.299 790.13C260.299 790.27 260.289 790.39 260.269 790.49H248.359V789.14H259.099L258.439 790.07C258.479 789.97 258.519 789.84 258.559 789.68C258.619 789.5 258.649 789.33 258.649 789.17C258.649 788.23 258.439 787.39 258.019 786.65C257.619 785.91 257.069 785.33 256.369 784.91C255.669 784.49 254.879 784.28 253.999 784.28C252.979 784.28 252.089 784.52 251.329 785C250.589 785.46 250.009 786.12 249.589 786.98C249.169 787.82 248.959 788.82 248.959 789.98C248.959 791.16 249.159 792.19 249.559 793.07C249.979 793.95 250.559 794.63 251.299 795.11C252.059 795.59 252.939 795.83 253.939 795.83C254.999 795.83 255.919 795.6 256.699 795.14C257.499 794.68 258.209 793.96 258.829 792.98L260.089 793.79C259.309 794.99 258.399 795.88 257.359 796.46C256.339 797.02 255.139 797.3 253.759 797.3ZM263.832 793.07C264.032 793.57 264.302 794.03 264.642 794.45C264.982 794.87 265.412 795.21 265.932 795.47C266.472 795.73 267.102 795.86 267.822 795.86C268.662 795.86 269.332 795.65 269.832 795.23C270.352 794.79 270.612 794.19 270.612 793.43C270.612 792.87 270.452 792.41 270.132 792.05C269.812 791.67 269.392 791.36 268.872 791.12C268.352 790.86 267.792 790.63 267.192 790.43C266.552 790.19 265.932 789.92 265.332 789.62C264.732 789.32 264.232 788.92 263.832 788.42C263.452 787.9 263.262 787.23 263.262 786.41C263.262 785.63 263.452 784.98 263.832 784.46C264.232 783.94 264.742 783.56 265.362 783.32C266.002 783.06 266.682 782.93 267.402 782.93C268.182 782.93 268.882 783.06 269.502 783.32C270.122 783.58 270.652 783.92 271.092 784.34C271.532 784.76 271.872 785.23 272.112 785.75L270.822 786.53C270.502 785.93 270.052 785.41 269.472 784.97C268.892 784.53 268.142 784.31 267.222 784.31C266.542 784.31 265.962 784.48 265.482 784.82C265.022 785.16 264.792 785.66 264.792 786.32C264.792 786.86 264.942 787.31 265.242 787.67C265.542 788.01 265.942 788.29 266.442 788.51C266.942 788.73 267.472 788.94 268.032 789.14C268.772 789.42 269.452 789.73 270.072 790.07C270.712 790.41 271.222 790.83 271.602 791.33C272.002 791.83 272.202 792.47 272.202 793.25C272.202 794.45 271.782 795.43 270.942 796.19C270.122 796.93 269.052 797.3 267.732 797.3C266.772 797.3 265.932 797.13 265.212 796.79C264.512 796.45 263.942 796.01 263.502 795.47C263.082 794.93 262.772 794.37 262.572 793.79L263.832 793.07Z" fill="#D9D9D9"/>
<path d="M132.142 506.38L130.342 523H128.692L131.122 501.19L139.522 517.33L147.922 501.19L150.352 523H148.702L146.902 506.38L139.522 520.57L132.142 506.38ZM155.733 517.96C155.733 519.16 155.993 520.11 156.513 520.81C157.033 521.49 157.853 521.83 158.973 521.83C159.753 521.83 160.443 521.64 161.043 521.26C161.663 520.88 162.143 520.37 162.483 519.73C162.843 519.09 163.023 518.38 163.023 517.6V509.2H164.583V523H163.023V520.12C162.643 521.12 162.073 521.9 161.313 522.46C160.553 523.02 159.653 523.3 158.613 523.3C157.173 523.3 156.073 522.84 155.313 521.92C154.553 520.98 154.173 519.72 154.173 518.14V509.2H155.733V517.96ZM169.319 499.6H170.879V523H169.319V499.6ZM173.518 509.2H179.578V510.67H173.518V509.2ZM175.768 504.4H177.328V523H175.768V504.4ZM182.21 502.96C182.21 502.64 182.32 502.38 182.54 502.18C182.76 501.96 183.02 501.85 183.32 501.85C183.64 501.85 183.9 501.96 184.1 502.18C184.32 502.38 184.43 502.64 184.43 502.96C184.43 503.26 184.32 503.52 184.1 503.74C183.9 503.96 183.64 504.07 183.32 504.07C183.02 504.07 182.76 503.96 182.54 503.74C182.32 503.52 182.21 503.26 182.21 502.96ZM182.54 509.2H184.1V523H182.54V509.2ZM186.963 516.22V514.75H192.963V516.22H186.963ZM196.891 529.6H195.331V509.2H196.891V529.6ZM208.681 516.1C208.681 517.58 208.381 518.86 207.781 519.94C207.201 521.02 206.401 521.85 205.381 522.43C204.381 523.01 203.261 523.3 202.021 523.3C200.861 523.3 199.841 522.99 198.961 522.37C198.081 521.73 197.391 520.87 196.891 519.79C196.411 518.69 196.171 517.46 196.171 516.1C196.171 514.72 196.411 513.49 196.891 512.41C197.391 511.33 198.081 510.48 198.961 509.86C199.841 509.22 200.861 508.9 202.021 508.9C203.261 508.9 204.381 509.19 205.381 509.77C206.401 510.35 207.201 511.18 207.781 512.26C208.381 513.32 208.681 514.6 208.681 516.1ZM207.121 516.1C207.121 514.9 206.881 513.87 206.401 513.01C205.921 512.15 205.281 511.5 204.481 511.06C203.681 510.6 202.791 510.37 201.811 510.37C200.971 510.37 200.171 510.62 199.411 511.12C198.651 511.62 198.041 512.3 197.581 513.16C197.121 514.02 196.891 515 196.891 516.1C196.891 517.2 197.121 518.18 197.581 519.04C198.041 519.9 198.651 520.58 199.411 521.08C200.171 521.58 200.971 521.83 201.811 521.83C202.791 521.83 203.681 521.61 204.481 521.17C205.281 520.71 205.921 520.05 206.401 519.19C206.881 518.33 207.121 517.3 207.121 516.1ZM212.45 518.86C212.45 519.54 212.6 520.11 212.9 520.57C213.22 521.03 213.64 521.38 214.16 521.62C214.7 521.84 215.29 521.95 215.93 521.95C216.71 521.95 217.42 521.77 218.06 521.41C218.72 521.05 219.25 520.52 219.65 519.82C220.05 519.12 220.25 518.26 220.25 517.24L220.61 518.56C220.61 519.64 220.35 520.53 219.83 521.23C219.31 521.93 218.66 522.45 217.88 522.79C217.1 523.13 216.31 523.3 215.51 523.3C214.73 523.3 213.98 523.14 213.26 522.82C212.54 522.48 211.96 521.99 211.52 521.35C211.08 520.71 210.86 519.9 210.86 518.92C210.86 517.58 211.32 516.52 212.24 515.74C213.18 514.96 214.45 514.57 216.05 514.57C216.95 514.57 217.72 514.68 218.36 514.9C219.02 515.1 219.56 515.33 219.98 515.59C220.4 515.85 220.7 516.07 220.88 516.25V517.24C220.2 516.76 219.47 516.41 218.69 516.19C217.93 515.95 217.13 515.83 216.29 515.83C215.51 515.83 214.83 515.94 214.25 516.16C213.69 516.38 213.25 516.71 212.93 517.15C212.61 517.59 212.45 518.16 212.45 518.86ZM212.51 511.72L211.73 510.55C212.25 510.19 212.92 509.83 213.74 509.47C214.58 509.09 215.61 508.9 216.83 508.9C217.87 508.9 218.76 509.07 219.5 509.41C220.24 509.75 220.81 510.24 221.21 510.88C221.61 511.52 221.81 512.3 221.81 513.22V523H220.25V513.43C220.25 513.03 220.19 512.65 220.07 512.29C219.95 511.91 219.75 511.57 219.47 511.27C219.21 510.97 218.85 510.73 218.39 510.55C217.93 510.37 217.37 510.28 216.71 510.28C216.03 510.28 215.42 510.36 214.88 510.52C214.34 510.68 213.87 510.87 213.47 511.09C213.09 511.31 212.77 511.52 212.51 511.72ZM225.227 523.9H226.817C226.817 524.76 227.017 525.53 227.417 526.21C227.817 526.89 228.377 527.43 229.097 527.83C229.837 528.23 230.687 528.43 231.647 528.43C232.507 528.43 233.317 528.23 234.077 527.83C234.837 527.43 235.457 526.8 235.937 525.94C236.437 525.1 236.687 524.02 236.687 522.7V509.2H238.247V522.7C238.247 524.28 237.937 525.6 237.317 526.66C236.697 527.74 235.887 528.55 234.887 529.09C233.887 529.63 232.807 529.9 231.647 529.9C230.387 529.9 229.267 529.65 228.287 529.15C227.327 528.65 226.577 527.94 226.037 527.02C225.497 526.12 225.227 525.08 225.227 523.9ZM224.897 516.1C224.897 514.6 225.197 513.32 225.797 512.26C226.397 511.18 227.197 510.35 228.197 509.77C229.217 509.19 230.337 508.9 231.557 508.9C232.757 508.9 233.787 509.22 234.647 509.86C235.507 510.48 236.177 511.33 236.657 512.41C237.157 513.49 237.407 514.72 237.407 516.1C237.407 517.46 237.157 518.69 236.657 519.79C236.177 520.87 235.507 521.73 234.647 522.37C233.787 522.99 232.757 523.3 231.557 523.3C230.337 523.3 229.217 523.01 228.197 522.43C227.197 521.85 226.397 521.02 225.797 519.94C225.197 518.86 224.897 517.58 224.897 516.1ZM226.487 516.1C226.487 517.3 226.717 518.33 227.177 519.19C227.657 520.05 228.297 520.71 229.097 521.17C229.917 521.61 230.807 521.83 231.767 521.83C232.627 521.83 233.427 521.58 234.167 521.08C234.927 520.58 235.537 519.9 235.997 519.04C236.457 518.16 236.687 517.16 236.687 516.04C236.687 515.24 236.557 514.5 236.297 513.82C236.037 513.14 235.667 512.54 235.187 512.02C234.727 511.5 234.197 511.1 233.597 510.82C233.017 510.52 232.407 510.37 231.767 510.37C230.807 510.37 229.917 510.6 229.097 511.06C228.297 511.5 227.657 512.15 227.177 513.01C226.717 513.87 226.487 514.9 226.487 516.1ZM248.015 523.3C246.775 523.3 245.675 522.99 244.715 522.37C243.755 521.75 242.995 520.9 242.435 519.82C241.895 518.72 241.625 517.47 241.625 516.07C241.625 514.67 241.905 513.43 242.465 512.35C243.025 511.27 243.805 510.43 244.805 509.83C245.805 509.21 246.955 508.9 248.255 508.9C249.515 508.9 250.615 509.19 251.555 509.77C252.515 510.35 253.255 511.16 253.775 512.2C254.315 513.22 254.585 514.4 254.585 515.74C254.585 515.86 254.575 515.99 254.555 516.13C254.555 516.27 254.545 516.39 254.525 516.49H242.615V515.14H253.355L252.695 516.07C252.735 515.97 252.775 515.84 252.815 515.68C252.875 515.5 252.905 515.33 252.905 515.17C252.905 514.23 252.695 513.39 252.275 512.65C251.875 511.91 251.325 511.33 250.625 510.91C249.925 510.49 249.135 510.28 248.255 510.28C247.235 510.28 246.345 510.52 245.585 511C244.845 511.46 244.265 512.12 243.845 512.98C243.425 513.82 243.215 514.82 243.215 515.98C243.215 517.16 243.415 518.19 243.815 519.07C244.235 519.95 244.815 520.63 245.555 521.11C246.315 521.59 247.195 521.83 248.195 521.83C249.255 521.83 250.175 521.6 250.955 521.14C251.755 520.68 252.465 519.96 253.085 518.98L254.345 519.79C253.565 520.99 252.655 521.88 251.615 522.46C250.595 523.02 249.395 523.3 248.015 523.3Z" fill="#D9D9D9"/>
<path d="M106.847 435.12L107.807 428.08C109.353 428.027 110.9 427.76 112.447 427.28C114.047 426.747 115.407 426.053 116.527 425.2C117.647 424.293 118.287 423.173 118.447 421.84C118.5 421.147 118.367 420.56 118.047 420.08C117.727 419.547 117.247 419.147 116.607 418.88C116.02 418.613 115.273 418.453 114.367 418.4C113.193 418.4 112.127 418.667 111.167 419.2C110.26 419.68 109.487 420.347 108.847 421.2C108.26 422 107.833 422.907 107.567 423.92L91.7266 423.84C92.3666 420.16 93.7532 416.907 95.8866 414.08C98.0732 411.2 100.847 408.933 104.207 407.28C107.62 405.627 111.46 404.8 115.727 404.8C119.673 404.8 123.22 405.44 126.367 406.72C129.513 407.947 131.94 409.76 133.647 412.16C135.353 414.56 135.967 417.413 135.487 420.72C135.06 423.707 133.94 426.133 132.127 428C130.313 429.867 128.047 431.333 125.327 432.4C122.607 433.413 119.647 434.133 116.447 434.56C113.247 434.933 110.047 435.12 106.847 435.12ZM106.847 463.6C102.207 463.547 98.2866 462.56 95.0866 460.64C91.9399 458.667 89.5932 456.08 88.0466 452.88C86.5532 449.68 85.9666 446.187 86.2866 442.4H103.087C102.98 443.947 103.14 445.28 103.567 446.4C103.993 447.52 104.633 448.373 105.487 448.96C106.393 449.547 107.513 449.867 108.847 449.92C110.02 449.973 111.14 449.84 112.207 449.52C113.273 449.147 114.18 448.56 114.927 447.76C115.673 446.96 116.153 445.947 116.367 444.72C116.58 443.6 116.473 442.667 116.047 441.92C115.673 441.12 115.007 440.48 114.047 440C113.14 439.467 112.02 439.093 110.687 438.88C109.407 438.613 107.993 438.453 106.447 438.4L107.567 430.08C110.927 430.133 114.207 430.427 117.407 430.96C120.66 431.493 123.513 432.373 125.967 433.6C128.473 434.827 130.367 436.48 131.647 438.56C132.98 440.64 133.433 443.253 133.007 446.4C132.527 450.08 131.06 453.2 128.607 455.76C126.153 458.32 123.033 460.267 119.247 461.6C115.513 462.933 111.38 463.6 106.847 463.6ZM155.605 434C155.445 435.227 155.339 436.507 155.285 437.84C155.232 439.173 155.259 440.453 155.365 441.68C155.472 442.907 155.712 444.027 156.085 445.04C156.459 446 156.965 446.8 157.605 447.44C158.299 448.027 159.205 448.32 160.325 448.32C161.765 448.373 163.072 448 164.245 447.2C165.419 446.4 166.459 445.307 167.365 443.92C168.272 442.533 169.019 440.987 169.605 439.28C170.245 437.52 170.672 435.76 170.885 434C170.992 432.773 171.072 431.493 171.125 430.16C171.179 428.827 171.152 427.547 171.045 426.32C170.939 425.093 170.699 424 170.325 423.04C170.005 422.027 169.499 421.227 168.805 420.64C168.112 420 167.232 419.653 166.165 419.6C164.725 419.6 163.392 420 162.165 420.8C160.992 421.6 159.952 422.693 159.045 424.08C158.139 425.467 157.392 427.04 156.805 428.8C156.219 430.507 155.819 432.24 155.605 434ZM139.045 434C139.632 429.787 140.699 425.92 142.245 422.4C143.845 418.827 145.899 415.733 148.405 413.12C150.912 410.507 153.792 408.48 157.045 407.04C160.299 405.547 163.872 404.8 167.765 404.8C170.965 404.8 173.765 405.307 176.165 406.32C178.565 407.28 180.565 408.667 182.165 410.48C183.819 412.24 185.099 414.347 186.005 416.8C186.912 419.253 187.472 421.947 187.685 424.88C187.952 427.76 187.872 430.8 187.445 434C186.859 438.213 185.792 442.107 184.245 445.68C182.699 449.2 180.699 452.293 178.245 454.96C175.792 457.573 172.912 459.6 169.605 461.04C166.352 462.48 162.725 463.2 158.725 463.2C155.579 463.2 152.805 462.72 150.405 461.76C148.059 460.747 146.059 459.333 144.405 457.52C142.805 455.707 141.525 453.6 140.565 451.2C139.659 448.747 139.072 446.08 138.805 443.2C138.539 440.267 138.619 437.2 139.045 434ZM209.902 434C209.742 435.227 209.636 436.507 209.582 437.84C209.529 439.173 209.556 440.453 209.662 441.68C209.769 442.907 210.009 444.027 210.382 445.04C210.756 446 211.262 446.8 211.902 447.44C212.596 448.027 213.502 448.32 214.622 448.32C216.062 448.373 217.369 448 218.542 447.2C219.716 446.4 220.756 445.307 221.662 443.92C222.569 442.533 223.316 440.987 223.902 439.28C224.542 437.52 224.969 435.76 225.182 434C225.289 432.773 225.369 431.493 225.422 430.16C225.476 428.827 225.449 427.547 225.342 426.32C225.236 425.093 224.996 424 224.622 423.04C224.302 422.027 223.796 421.227 223.102 420.64C222.409 420 221.529 419.653 220.462 419.6C219.022 419.6 217.689 420 216.462 420.8C215.289 421.6 214.249 422.693 213.342 424.08C212.436 425.467 211.689 427.04 211.102 428.8C210.516 430.507 210.116 432.24 209.902 434ZM193.342 434C193.929 429.787 194.996 425.92 196.542 422.4C198.142 418.827 200.196 415.733 202.702 413.12C205.209 410.507 208.089 408.48 211.342 407.04C214.596 405.547 218.169 404.8 222.062 404.8C225.262 404.8 228.062 405.307 230.462 406.32C232.862 407.28 234.862 408.667 236.462 410.48C238.116 412.24 239.396 414.347 240.302 416.8C241.209 419.253 241.769 421.947 241.982 424.88C242.249 427.76 242.169 430.8 241.742 434C241.156 438.213 240.089 442.107 238.542 445.68C236.996 449.2 234.996 452.293 232.542 454.96C230.089 457.573 227.209 459.6 223.902 461.04C220.649 462.48 217.022 463.2 213.022 463.2C209.876 463.2 207.102 462.72 204.702 461.76C202.356 460.747 200.356 459.333 198.702 457.52C197.102 455.707 195.822 453.6 194.862 451.2C193.956 448.747 193.369 446.08 193.102 443.2C192.836 440.267 192.916 437.2 193.342 434ZM271.159 396.56H283.399L280.039 412.56H269.399L271.159 396.56ZM262.759 456.4H273.319L271.719 470.96H259.639L262.759 456.4ZM282.119 424C281.532 422.773 280.866 421.653 280.119 420.64C279.426 419.627 278.626 418.827 277.719 418.24C276.866 417.6 275.879 417.28 274.759 417.28C273.852 417.28 273.026 417.467 272.279 417.84C271.532 418.213 270.919 418.667 270.439 419.2C269.959 419.733 269.639 420.32 269.479 420.96C269.266 422.027 269.479 422.933 270.119 423.68C270.759 424.373 271.639 424.96 272.759 425.44C273.932 425.92 275.186 426.373 276.519 426.8C277.906 427.227 279.186 427.653 280.359 428.08C283.026 429.147 285.292 430.533 287.159 432.24C289.026 433.947 290.359 435.973 291.159 438.32C292.012 440.613 292.279 443.173 291.959 446C291.426 449.84 289.906 453.013 287.399 455.52C284.946 457.973 281.852 459.813 278.119 461.04C274.439 462.213 270.492 462.8 266.279 462.8C262.919 462.747 259.772 462.133 256.839 460.96C253.906 459.787 251.319 458.187 249.079 456.16C246.892 454.08 245.239 451.76 244.119 449.2L256.679 440.72C257.639 442.427 258.626 443.947 259.639 445.28C260.706 446.56 261.906 447.573 263.239 448.32C264.572 449.013 266.119 449.333 267.879 449.28C269.372 449.28 270.652 449.013 271.719 448.48C272.839 447.947 273.506 447.067 273.719 445.84C273.932 444.773 273.586 443.893 272.679 443.2C271.772 442.453 270.599 441.813 269.159 441.28C267.719 440.693 266.252 440.107 264.759 439.52C262.626 438.56 260.492 437.28 258.359 435.68C256.226 434.027 254.492 432 253.159 429.6C251.879 427.2 251.426 424.373 251.799 421.12C252.279 417.973 253.639 415.227 255.879 412.88C258.119 410.48 260.919 408.613 264.279 407.28C267.692 405.893 271.346 405.2 275.239 405.2C278.866 405.2 281.959 405.707 284.519 406.72C287.079 407.68 289.239 409.04 290.999 410.8C292.812 412.56 294.359 414.613 295.639 416.96L282.119 424Z" fill="#FF3100"/>
<path d="M78.6212 726.72L119.021 680H133.581L123.981 736H105.821L108.141 721.92L110.621 721.04L113.741 703.04L102.781 714.72H123.101L124.941 712H136.621L134.061 726.8L78.6212 726.72ZM160.551 708C160.391 709.227 160.284 710.507 160.231 711.84C160.177 713.173 160.204 714.453 160.311 715.68C160.417 716.907 160.657 718.027 161.031 719.04C161.404 720 161.911 720.8 162.551 721.44C163.244 722.027 164.151 722.32 165.271 722.32C166.711 722.373 168.017 722 169.191 721.2C170.364 720.4 171.404 719.307 172.311 717.92C173.217 716.533 173.964 714.987 174.551 713.28C175.191 711.52 175.617 709.76 175.831 708C175.937 706.773 176.017 705.493 176.071 704.16C176.124 702.827 176.097 701.547 175.991 700.32C175.884 699.093 175.644 698 175.271 697.04C174.951 696.027 174.444 695.227 173.751 694.64C173.057 694 172.177 693.653 171.111 693.6C169.671 693.6 168.337 694 167.111 694.8C165.937 695.6 164.897 696.693 163.991 698.08C163.084 699.467 162.337 701.04 161.751 702.8C161.164 704.507 160.764 706.24 160.551 708ZM143.991 708C144.577 703.787 145.644 699.92 147.191 696.4C148.791 692.827 150.844 689.733 153.351 687.12C155.857 684.507 158.737 682.48 161.991 681.04C165.244 679.547 168.817 678.8 172.711 678.8C175.911 678.8 178.711 679.307 181.111 680.32C183.511 681.28 185.511 682.667 187.111 684.48C188.764 686.24 190.044 688.347 190.951 690.8C191.857 693.253 192.417 695.947 192.631 698.88C192.897 701.76 192.817 704.8 192.391 708C191.804 712.213 190.737 716.107 189.191 719.68C187.644 723.2 185.644 726.293 183.191 728.96C180.737 731.573 177.857 733.6 174.551 735.04C171.297 736.48 167.671 737.2 163.671 737.2C160.524 737.2 157.751 736.72 155.351 735.76C153.004 734.747 151.004 733.333 149.351 731.52C147.751 729.707 146.471 727.6 145.511 725.2C144.604 722.747 144.017 720.08 143.751 717.2C143.484 714.267 143.564 711.2 143.991 708ZM214.848 708C214.688 709.227 214.581 710.507 214.528 711.84C214.474 713.173 214.501 714.453 214.608 715.68C214.714 716.907 214.954 718.027 215.328 719.04C215.701 720 216.208 720.8 216.848 721.44C217.541 722.027 218.448 722.32 219.568 722.32C221.008 722.373 222.314 722 223.488 721.2C224.661 720.4 225.701 719.307 226.608 717.92C227.514 716.533 228.261 714.987 228.848 713.28C229.488 711.52 229.914 709.76 230.128 708C230.234 706.773 230.314 705.493 230.368 704.16C230.421 702.827 230.394 701.547 230.288 700.32C230.181 699.093 229.941 698 229.568 697.04C229.248 696.027 228.741 695.227 228.048 694.64C227.354 694 226.474 693.653 225.408 693.6C223.968 693.6 222.634 694 221.408 694.8C220.234 695.6 219.194 696.693 218.288 698.08C217.381 699.467 216.634 701.04 216.048 702.8C215.461 704.507 215.061 706.24 214.848 708ZM198.288 708C198.874 703.787 199.941 699.92 201.488 696.4C203.088 692.827 205.141 689.733 207.648 687.12C210.154 684.507 213.034 682.48 216.288 681.04C219.541 679.547 223.114 678.8 227.008 678.8C230.208 678.8 233.008 679.307 235.408 680.32C237.808 681.28 239.808 682.667 241.408 684.48C243.061 686.24 244.341 688.347 245.248 690.8C246.154 693.253 246.714 695.947 246.928 698.88C247.194 701.76 247.114 704.8 246.688 708C246.101 712.213 245.034 716.107 243.488 719.68C241.941 723.2 239.941 726.293 237.488 728.96C235.034 731.573 232.154 733.6 228.848 735.04C225.594 736.48 221.968 737.2 217.968 737.2C214.821 737.2 212.048 736.72 209.648 735.76C207.301 734.747 205.301 733.333 203.648 731.52C202.048 729.707 200.768 727.6 199.808 725.2C198.901 722.747 198.314 720.08 198.048 717.2C197.781 714.267 197.861 711.2 198.288 708ZM276.104 670.56H288.344L284.984 686.56H274.344L276.104 670.56ZM267.704 730.4H278.264L276.664 744.96H264.584L267.704 730.4ZM287.064 698C286.478 696.773 285.811 695.653 285.064 694.64C284.371 693.627 283.571 692.827 282.664 692.24C281.811 691.6 280.824 691.28 279.704 691.28C278.798 691.28 277.971 691.467 277.224 691.84C276.478 692.213 275.864 692.667 275.384 693.2C274.904 693.733 274.584 694.32 274.424 694.96C274.211 696.027 274.424 696.933 275.064 697.68C275.704 698.373 276.584 698.96 277.704 699.44C278.878 699.92 280.131 700.373 281.464 700.8C282.851 701.227 284.131 701.653 285.304 702.08C287.971 703.147 290.238 704.533 292.104 706.24C293.971 707.947 295.304 709.973 296.104 712.32C296.958 714.613 297.224 717.173 296.904 720C296.371 723.84 294.851 727.013 292.344 729.52C289.891 731.973 286.798 733.813 283.064 735.04C279.384 736.213 275.438 736.8 271.224 736.8C267.864 736.747 264.718 736.133 261.784 734.96C258.851 733.787 256.264 732.187 254.024 730.16C251.838 728.08 250.184 725.76 249.064 723.2L261.624 714.72C262.584 716.427 263.571 717.947 264.584 719.28C265.651 720.56 266.851 721.573 268.184 722.32C269.518 723.013 271.064 723.333 272.824 723.28C274.318 723.28 275.598 723.013 276.664 722.48C277.784 721.947 278.451 721.067 278.664 719.84C278.878 718.773 278.531 717.893 277.624 717.2C276.718 716.453 275.544 715.813 274.104 715.28C272.664 714.693 271.198 714.107 269.704 713.52C267.571 712.56 265.438 711.28 263.304 709.68C261.171 708.027 259.438 706 258.104 703.6C256.824 701.2 256.371 698.373 256.744 695.12C257.224 691.973 258.584 689.227 260.824 686.88C263.064 684.48 265.864 682.613 269.224 681.28C272.638 679.893 276.291 679.2 280.184 679.2C283.811 679.2 286.904 679.707 289.464 680.72C292.024 681.68 294.184 683.04 295.944 684.8C297.758 686.56 299.304 688.613 300.584 690.96L287.064 698Z" fill="#FF3100"/>
<path d="M84.9741 141.36L87.6141 126.56L119.534 120.64L109.694 178H93.1341L99.9341 138.16L84.9741 141.36ZM140.918 150C140.758 151.227 140.651 152.507 140.598 153.84C140.544 155.173 140.571 156.453 140.678 157.68C140.784 158.907 141.024 160.027 141.398 161.04C141.771 162 142.278 162.8 142.918 163.44C143.611 164.027 144.518 164.32 145.638 164.32C147.078 164.373 148.384 164 149.558 163.2C150.731 162.4 151.771 161.307 152.678 159.92C153.584 158.533 154.331 156.987 154.918 155.28C155.558 153.52 155.984 151.76 156.198 150C156.304 148.773 156.384 147.493 156.438 146.16C156.491 144.827 156.464 143.547 156.358 142.32C156.251 141.093 156.011 140 155.638 139.04C155.318 138.027 154.811 137.227 154.118 136.64C153.424 136 152.544 135.653 151.478 135.6C150.038 135.6 148.704 136 147.478 136.8C146.304 137.6 145.264 138.693 144.358 140.08C143.451 141.467 142.704 143.04 142.118 144.8C141.531 146.507 141.131 148.24 140.918 150ZM124.358 150C124.944 145.787 126.011 141.92 127.558 138.4C129.158 134.827 131.211 131.733 133.718 129.12C136.224 126.507 139.104 124.48 142.358 123.04C145.611 121.547 149.184 120.8 153.078 120.8C156.278 120.8 159.078 121.307 161.478 122.32C163.878 123.28 165.878 124.667 167.478 126.48C169.131 128.24 170.411 130.347 171.318 132.8C172.224 135.253 172.784 137.947 172.998 140.88C173.264 143.76 173.184 146.8 172.758 150C172.171 154.213 171.104 158.107 169.558 161.68C168.011 165.2 166.011 168.293 163.558 170.96C161.104 173.573 158.224 175.6 154.918 177.04C151.664 178.48 148.038 179.2 144.038 179.2C140.891 179.2 138.118 178.72 135.718 177.76C133.371 176.747 131.371 175.333 129.718 173.52C128.118 171.707 126.838 169.6 125.878 167.2C124.971 164.747 124.384 162.08 124.118 159.2C123.851 156.267 123.931 153.2 124.358 150ZM195.215 150C195.055 151.227 194.948 152.507 194.895 153.84C194.841 155.173 194.868 156.453 194.975 157.68C195.081 158.907 195.321 160.027 195.695 161.04C196.068 162 196.575 162.8 197.215 163.44C197.908 164.027 198.815 164.32 199.935 164.32C201.375 164.373 202.681 164 203.855 163.2C205.028 162.4 206.068 161.307 206.975 159.92C207.881 158.533 208.628 156.987 209.215 155.28C209.855 153.52 210.281 151.76 210.495 150C210.601 148.773 210.681 147.493 210.735 146.16C210.788 144.827 210.761 143.547 210.655 142.32C210.548 141.093 210.308 140 209.935 139.04C209.615 138.027 209.108 137.227 208.415 136.64C207.721 136 206.841 135.653 205.775 135.6C204.335 135.6 203.001 136 201.775 136.8C200.601 137.6 199.561 138.693 198.655 140.08C197.748 141.467 197.001 143.04 196.415 144.8C195.828 146.507 195.428 148.24 195.215 150ZM178.655 150C179.241 145.787 180.308 141.92 181.855 138.4C183.455 134.827 185.508 131.733 188.015 129.12C190.521 126.507 193.401 124.48 196.655 123.04C199.908 121.547 203.481 120.8 207.375 120.8C210.575 120.8 213.375 121.307 215.775 122.32C218.175 123.28 220.175 124.667 221.775 126.48C223.428 128.24 224.708 130.347 225.615 132.8C226.521 135.253 227.081 137.947 227.295 140.88C227.561 143.76 227.481 146.8 227.055 150C226.468 154.213 225.401 158.107 223.855 161.68C222.308 165.2 220.308 168.293 217.855 170.96C215.401 173.573 212.521 175.6 209.215 177.04C205.961 178.48 202.335 179.2 198.335 179.2C195.188 179.2 192.415 178.72 190.015 177.76C187.668 176.747 185.668 175.333 184.015 173.52C182.415 171.707 181.135 169.6 180.175 167.2C179.268 164.747 178.681 162.08 178.415 159.2C178.148 156.267 178.228 153.2 178.655 150ZM256.472 112.56H268.712L265.352 128.56H254.712L256.472 112.56ZM248.072 172.4H258.632L257.032 186.96H244.952L248.072 172.4ZM267.432 140C266.845 138.773 266.178 137.653 265.432 136.64C264.738 135.627 263.938 134.827 263.032 134.24C262.178 133.6 261.192 133.28 260.072 133.28C259.165 133.28 258.338 133.467 257.592 133.84C256.845 134.213 256.232 134.667 255.752 135.2C255.272 135.733 254.952 136.32 254.792 136.96C254.578 138.027 254.792 138.933 255.432 139.68C256.072 140.373 256.952 140.96 258.072 141.44C259.245 141.92 260.498 142.373 261.832 142.8C263.218 143.227 264.498 143.653 265.672 144.08C268.338 145.147 270.605 146.533 272.472 148.24C274.338 149.947 275.672 151.973 276.472 154.32C277.325 156.613 277.592 159.173 277.272 162C276.738 165.84 275.218 169.013 272.712 171.52C270.258 173.973 267.165 175.813 263.432 177.04C259.752 178.213 255.805 178.8 251.592 178.8C248.232 178.747 245.085 178.133 242.152 176.96C239.218 175.787 236.632 174.187 234.392 172.16C232.205 170.08 230.552 167.76 229.432 165.2L241.992 156.72C242.952 158.427 243.938 159.947 244.952 161.28C246.018 162.56 247.218 163.573 248.552 164.32C249.885 165.013 251.432 165.333 253.192 165.28C254.685 165.28 255.965 165.013 257.032 164.48C258.152 163.947 258.818 163.067 259.032 161.84C259.245 160.773 258.898 159.893 257.992 159.2C257.085 158.453 255.912 157.813 254.472 157.28C253.032 156.693 251.565 156.107 250.072 155.52C247.938 154.56 245.805 153.28 243.672 151.68C241.538 150.027 239.805 148 238.472 145.6C237.192 143.2 236.738 140.373 237.112 137.12C237.592 133.973 238.952 131.227 241.192 128.88C243.432 126.48 246.232 124.613 249.592 123.28C253.005 121.893 256.658 121.2 260.552 121.2C264.178 121.2 267.272 121.707 269.832 122.72C272.392 123.68 274.552 125.04 276.312 126.8C278.125 128.56 279.672 130.613 280.952 132.96L267.432 140Z" fill="#FF3100"/>
<path d="M154.678 76.2H163.918L163.258 79.95H154.018L154.678 76.2ZM164.368 70.92C164.208 70.72 164.028 70.55 163.828 70.41C163.648 70.25 163.428 70.17 163.168 70.17C162.848 70.17 162.558 70.27 162.298 70.47C162.038 70.65 161.828 70.9 161.668 71.22C161.508 71.52 161.408 71.86 161.368 72.24L158.308 90H153.988L157.198 71.07C157.358 70.11 157.688 69.26 158.188 68.52C158.688 67.76 159.348 67.17 160.168 66.75C160.988 66.31 161.938 66.1 163.018 66.12C163.898 66.12 164.618 66.28 165.178 66.6C165.738 66.92 166.218 67.27 166.618 67.65L164.368 70.92ZM170.307 76.2L167.937 90H163.527L165.897 76.2H170.307ZM173.547 80.85C173.327 80.65 173.087 80.48 172.827 80.34C172.587 80.18 172.297 80.1 171.957 80.1C171.457 80.08 171.007 80.22 170.607 80.52C170.207 80.82 169.877 81.21 169.617 81.69C169.357 82.15 169.187 82.64 169.107 83.16L168.417 81.57C168.597 80.63 168.947 79.73 169.467 78.87C169.987 77.99 170.607 77.27 171.327 76.71C172.067 76.15 172.847 75.87 173.667 75.87C174.147 75.87 174.587 75.98 174.987 76.2C175.387 76.42 175.727 76.71 176.007 77.07L173.547 80.85ZM175.757 83.07C175.957 81.67 176.467 80.43 177.287 79.35C178.107 78.27 179.137 77.42 180.377 76.8C181.617 76.18 182.967 75.87 184.427 75.87C185.847 75.87 187.097 76.19 188.177 76.83C189.257 77.47 190.067 78.33 190.607 79.41C191.147 80.49 191.327 81.72 191.147 83.1C190.947 84.5 190.437 85.75 189.617 86.85C188.817 87.93 187.787 88.78 186.527 89.4C185.287 90 183.937 90.3 182.477 90.3C181.057 90.3 179.807 89.99 178.727 89.37C177.647 88.73 176.837 87.87 176.297 86.79C175.757 85.71 175.577 84.47 175.757 83.07ZM180.347 83.1C180.247 83.7 180.277 84.26 180.437 84.78C180.617 85.3 180.907 85.72 181.307 86.04C181.707 86.36 182.207 86.52 182.807 86.52C183.427 86.54 183.997 86.4 184.517 86.1C185.057 85.8 185.507 85.38 185.867 84.84C186.247 84.3 186.487 83.71 186.587 83.07C186.667 82.47 186.617 81.92 186.437 81.42C186.257 80.9 185.967 80.48 185.567 80.16C185.187 79.82 184.697 79.64 184.097 79.62C183.477 79.62 182.897 79.78 182.357 80.1C181.837 80.4 181.397 80.82 181.037 81.36C180.677 81.88 180.447 82.46 180.347 83.1ZM214.375 81.12L212.875 90H208.345L209.875 81.6C209.915 81.18 209.915 80.78 209.875 80.4C209.855 80.02 209.755 79.71 209.575 79.47C209.395 79.21 209.095 79.08 208.675 79.08C208.255 79.08 207.865 79.19 207.505 79.41C207.165 79.61 206.875 79.9 206.635 80.28C206.415 80.64 206.265 81.07 206.185 81.57L204.745 90H200.275L201.775 81.57C201.815 81.17 201.815 80.78 201.775 80.4C201.755 80.02 201.655 79.71 201.475 79.47C201.295 79.21 201.005 79.08 200.605 79.08C200.165 79.08 199.775 79.18 199.435 79.38C199.115 79.58 198.835 79.86 198.595 80.22C198.375 80.56 198.225 80.98 198.145 81.48L196.675 90H192.355L194.725 76.2H199.045L198.745 78.09C199.045 77.65 199.395 77.27 199.795 76.95C200.195 76.61 200.645 76.35 201.145 76.17C201.645 75.97 202.195 75.87 202.795 75.87C203.495 75.87 204.075 75.97 204.535 76.17C205.015 76.37 205.395 76.65 205.675 77.01C205.955 77.35 206.145 77.76 206.245 78.24C206.825 77.54 207.505 76.97 208.285 76.53C209.065 76.09 209.935 75.87 210.895 75.87C211.955 75.87 212.755 76.11 213.295 76.59C213.835 77.05 214.175 77.68 214.315 78.48C214.475 79.28 214.495 80.16 214.375 81.12Z" fill="#FF3100"/>
<path d="M162.678 368.2H171.918L171.258 371.95H162.018L162.678 368.2ZM172.368 362.92C172.208 362.72 172.028 362.55 171.828 362.41C171.648 362.25 171.428 362.17 171.168 362.17C170.848 362.17 170.558 362.27 170.298 362.47C170.038 362.65 169.828 362.9 169.668 363.22C169.508 363.52 169.408 363.86 169.368 364.24L166.308 382H161.988L165.198 363.07C165.358 362.11 165.688 361.26 166.188 360.52C166.688 359.76 167.348 359.17 168.168 358.75C168.988 358.31 169.938 358.1 171.018 358.12C171.898 358.12 172.618 358.28 173.178 358.6C173.738 358.92 174.218 359.27 174.618 359.65L172.368 362.92ZM178.307 368.2L175.937 382H171.527L173.897 368.2H178.307ZM181.547 372.85C181.327 372.65 181.087 372.48 180.827 372.34C180.587 372.18 180.297 372.1 179.957 372.1C179.457 372.08 179.007 372.22 178.607 372.52C178.207 372.82 177.877 373.21 177.617 373.69C177.357 374.15 177.187 374.64 177.107 375.16L176.417 373.57C176.597 372.63 176.947 371.73 177.467 370.87C177.987 369.99 178.607 369.27 179.327 368.71C180.067 368.15 180.847 367.87 181.667 367.87C182.147 367.87 182.587 367.98 182.987 368.2C183.387 368.42 183.727 368.71 184.007 369.07L181.547 372.85ZM183.757 375.07C183.957 373.67 184.467 372.43 185.287 371.35C186.107 370.27 187.137 369.42 188.377 368.8C189.617 368.18 190.967 367.87 192.427 367.87C193.847 367.87 195.097 368.19 196.177 368.83C197.257 369.47 198.067 370.33 198.607 371.41C199.147 372.49 199.327 373.72 199.147 375.1C198.947 376.5 198.437 377.75 197.617 378.85C196.817 379.93 195.787 380.78 194.527 381.4C193.287 382 191.937 382.3 190.477 382.3C189.057 382.3 187.807 381.99 186.727 381.37C185.647 380.73 184.837 379.87 184.297 378.79C183.757 377.71 183.577 376.47 183.757 375.07ZM188.347 375.1C188.247 375.7 188.277 376.26 188.437 376.78C188.617 377.3 188.907 377.72 189.307 378.04C189.707 378.36 190.207 378.52 190.807 378.52C191.427 378.54 191.997 378.4 192.517 378.1C193.057 377.8 193.507 377.38 193.867 376.84C194.247 376.3 194.487 375.71 194.587 375.07C194.667 374.47 194.617 373.92 194.437 373.42C194.257 372.9 193.967 372.48 193.567 372.16C193.187 371.82 192.697 371.64 192.097 371.62C191.477 371.62 190.897 371.78 190.357 372.1C189.837 372.4 189.397 372.82 189.037 373.36C188.677 373.88 188.447 374.46 188.347 375.1ZM222.375 373.12L220.875 382H216.345L217.875 373.6C217.915 373.18 217.915 372.78 217.875 372.4C217.855 372.02 217.755 371.71 217.575 371.47C217.395 371.21 217.095 371.08 216.675 371.08C216.255 371.08 215.865 371.19 215.505 371.41C215.165 371.61 214.875 371.9 214.635 372.28C214.415 372.64 214.265 373.07 214.185 373.57L212.745 382H208.275L209.775 373.57C209.815 373.17 209.815 372.78 209.775 372.4C209.755 372.02 209.655 371.71 209.475 371.47C209.295 371.21 209.005 371.08 208.605 371.08C208.165 371.08 207.775 371.18 207.435 371.38C207.115 371.58 206.835 371.86 206.595 372.22C206.375 372.56 206.225 372.98 206.145 373.48L204.675 382H200.355L202.725 368.2H207.045L206.745 370.09C207.045 369.65 207.395 369.27 207.795 368.95C208.195 368.61 208.645 368.35 209.145 368.17C209.645 367.97 210.195 367.87 210.795 367.87C211.495 367.87 212.075 367.97 212.535 368.17C213.015 368.37 213.395 368.65 213.675 369.01C213.955 369.35 214.145 369.76 214.245 370.24C214.825 369.54 215.505 368.97 216.285 368.53C217.065 368.09 217.935 367.87 218.895 367.87C219.955 367.87 220.755 368.11 221.295 368.59C221.835 369.05 222.175 369.68 222.315 370.48C222.475 371.28 222.495 372.16 222.375 373.12Z" fill="#FF3100"/>
<path d="M164.678 642.2H173.918L173.258 645.95H164.018L164.678 642.2ZM174.368 636.92C174.208 636.72 174.028 636.55 173.828 636.41C173.648 636.25 173.428 636.17 173.168 636.17C172.848 636.17 172.558 636.27 172.298 636.47C172.038 636.65 171.828 636.9 171.668 637.22C171.508 637.52 171.408 637.86 171.368 638.24L168.308 656H163.988L167.198 637.07C167.358 636.11 167.688 635.26 168.188 634.52C168.688 633.76 169.348 633.17 170.168 632.75C170.988 632.31 171.938 632.1 173.018 632.12C173.898 632.12 174.618 632.28 175.178 632.6C175.738 632.92 176.218 633.27 176.618 633.65L174.368 636.92ZM180.307 642.2L177.937 656H173.527L175.897 642.2H180.307ZM183.547 646.85C183.327 646.65 183.087 646.48 182.827 646.34C182.587 646.18 182.297 646.1 181.957 646.1C181.457 646.08 181.007 646.22 180.607 646.52C180.207 646.82 179.877 647.21 179.617 647.69C179.357 648.15 179.187 648.64 179.107 649.16L178.417 647.57C178.597 646.63 178.947 645.73 179.467 644.87C179.987 643.99 180.607 643.27 181.327 642.71C182.067 642.15 182.847 641.87 183.667 641.87C184.147 641.87 184.587 641.98 184.987 642.2C185.387 642.42 185.727 642.71 186.007 643.07L183.547 646.85ZM185.757 649.07C185.957 647.67 186.467 646.43 187.287 645.35C188.107 644.27 189.137 643.42 190.377 642.8C191.617 642.18 192.967 641.87 194.427 641.87C195.847 641.87 197.097 642.19 198.177 642.83C199.257 643.47 200.067 644.33 200.607 645.41C201.147 646.49 201.327 647.72 201.147 649.1C200.947 650.5 200.437 651.75 199.617 652.85C198.817 653.93 197.787 654.78 196.527 655.4C195.287 656 193.937 656.3 192.477 656.3C191.057 656.3 189.807 655.99 188.727 655.37C187.647 654.73 186.837 653.87 186.297 652.79C185.757 651.71 185.577 650.47 185.757 649.07ZM190.347 649.1C190.247 649.7 190.277 650.26 190.437 650.78C190.617 651.3 190.907 651.72 191.307 652.04C191.707 652.36 192.207 652.52 192.807 652.52C193.427 652.54 193.997 652.4 194.517 652.1C195.057 651.8 195.507 651.38 195.867 650.84C196.247 650.3 196.487 649.71 196.587 649.07C196.667 648.47 196.617 647.92 196.437 647.42C196.257 646.9 195.967 646.48 195.567 646.16C195.187 645.82 194.697 645.64 194.097 645.62C193.477 645.62 192.897 645.78 192.357 646.1C191.837 646.4 191.397 646.82 191.037 647.36C190.677 647.88 190.447 648.46 190.347 649.1ZM224.375 647.12L222.875 656H218.345L219.875 647.6C219.915 647.18 219.915 646.78 219.875 646.4C219.855 646.02 219.755 645.71 219.575 645.47C219.395 645.21 219.095 645.08 218.675 645.08C218.255 645.08 217.865 645.19 217.505 645.41C217.165 645.61 216.875 645.9 216.635 646.28C216.415 646.64 216.265 647.07 216.185 647.57L214.745 656H210.275L211.775 647.57C211.815 647.17 211.815 646.78 211.775 646.4C211.755 646.02 211.655 645.71 211.475 645.47C211.295 645.21 211.005 645.08 210.605 645.08C210.165 645.08 209.775 645.18 209.435 645.38C209.115 645.58 208.835 645.86 208.595 646.22C208.375 646.56 208.225 646.98 208.145 647.48L206.675 656H202.355L204.725 642.2H209.045L208.745 644.09C209.045 643.65 209.395 643.27 209.795 642.95C210.195 642.61 210.645 642.35 211.145 642.17C211.645 641.97 212.195 641.87 212.795 641.87C213.495 641.87 214.075 641.97 214.535 642.17C215.015 642.37 215.395 642.65 215.675 643.01C215.955 643.35 216.145 643.76 216.245 644.24C216.825 643.54 217.505 642.97 218.285 642.53C219.065 642.09 219.935 641.87 220.895 641.87C221.955 641.87 222.755 642.11 223.295 642.59C223.835 643.05 224.175 643.68 224.315 644.48C224.475 645.28 224.495 646.16 224.375 647.12Z" fill="#FF3100"/>
<path d="M137.08 211H138.73V230.44H147.4V232H137.08V211ZM150.441 227.86C150.441 228.54 150.591 229.11 150.891 229.57C151.211 230.03 151.631 230.38 152.151 230.62C152.691 230.84 153.281 230.95 153.921 230.95C154.701 230.95 155.411 230.77 156.051 230.41C156.711 230.05 157.241 229.52 157.641 228.82C158.041 228.12 158.241 227.26 158.241 226.24L158.601 227.56C158.601 228.64 158.341 229.53 157.821 230.23C157.301 230.93 156.651 231.45 155.871 231.79C155.091 232.13 154.301 232.3 153.501 232.3C152.721 232.3 151.971 232.14 151.251 231.82C150.531 231.48 149.951 230.99 149.511 230.35C149.071 229.71 148.851 228.9 148.851 227.92C148.851 226.58 149.311 225.52 150.231 224.74C151.171 223.96 152.441 223.57 154.041 223.57C154.941 223.57 155.711 223.68 156.351 223.9C157.011 224.1 157.551 224.33 157.971 224.59C158.391 224.85 158.691 225.07 158.871 225.25V226.24C158.191 225.76 157.461 225.41 156.681 225.19C155.921 224.95 155.121 224.83 154.281 224.83C153.501 224.83 152.821 224.94 152.241 225.16C151.681 225.38 151.241 225.71 150.921 226.15C150.601 226.59 150.441 227.16 150.441 227.86ZM150.501 220.72L149.721 219.55C150.241 219.19 150.911 218.83 151.731 218.47C152.571 218.09 153.601 217.9 154.821 217.9C155.861 217.9 156.751 218.07 157.491 218.41C158.231 218.75 158.801 219.24 159.201 219.88C159.601 220.52 159.801 221.3 159.801 222.22V232H158.241V222.43C158.241 222.03 158.181 221.65 158.061 221.29C157.941 220.91 157.741 220.57 157.461 220.27C157.201 219.97 156.841 219.73 156.381 219.55C155.921 219.37 155.361 219.28 154.701 219.28C154.021 219.28 153.411 219.36 152.871 219.52C152.331 219.68 151.861 219.87 151.461 220.09C151.081 220.31 150.761 220.52 150.501 220.72ZM172.938 223.12C172.938 221.94 172.678 221.02 172.158 220.36C171.638 219.7 170.818 219.37 169.698 219.37C168.918 219.37 168.218 219.56 167.598 219.94C166.998 220.3 166.518 220.8 166.158 221.44C165.818 222.08 165.648 222.8 165.648 223.6V232H164.088V218.2H165.648V221.08C166.028 220.08 166.598 219.3 167.358 218.74C168.138 218.18 169.038 217.9 170.058 217.9C171.498 217.9 172.598 218.36 173.358 219.28C174.118 220.18 174.498 221.4 174.498 222.94V232H172.938V223.12ZM189.824 208.6H191.384V232H189.824V208.6ZM178.034 225.1C178.034 223.6 178.334 222.32 178.934 221.26C179.534 220.18 180.334 219.35 181.334 218.77C182.354 218.19 183.474 217.9 184.694 217.9C185.894 217.9 186.924 218.22 187.784 218.86C188.644 219.48 189.314 220.33 189.794 221.41C190.294 222.49 190.544 223.72 190.544 225.1C190.544 226.46 190.294 227.69 189.794 228.79C189.314 229.87 188.644 230.73 187.784 231.37C186.924 231.99 185.894 232.3 184.694 232.3C183.474 232.3 182.354 232.01 181.334 231.43C180.334 230.85 179.534 230.02 178.934 228.94C178.334 227.86 178.034 226.58 178.034 225.1ZM179.624 225.1C179.624 226.3 179.854 227.33 180.314 228.19C180.794 229.05 181.434 229.71 182.234 230.17C183.054 230.61 183.944 230.83 184.904 230.83C185.764 230.83 186.564 230.58 187.304 230.08C188.064 229.58 188.674 228.9 189.134 228.04C189.594 227.18 189.824 226.2 189.824 225.1C189.824 224 189.594 223.02 189.134 222.16C188.674 221.3 188.064 220.62 187.304 220.12C186.564 219.62 185.764 219.37 184.904 219.37C183.944 219.37 183.054 219.6 182.234 220.06C181.434 220.5 180.794 221.15 180.314 222.01C179.854 222.87 179.624 223.9 179.624 225.1ZM195.963 211.96C195.963 211.64 196.073 211.38 196.293 211.18C196.513 210.96 196.773 210.85 197.073 210.85C197.393 210.85 197.653 210.96 197.853 211.18C198.073 211.38 198.183 211.64 198.183 211.96C198.183 212.26 198.073 212.52 197.853 212.74C197.653 212.96 197.393 213.07 197.073 213.07C196.773 213.07 196.513 212.96 196.293 212.74C196.073 212.52 195.963 212.26 195.963 211.96ZM196.293 218.2H197.853V232H196.293V218.2ZM211.785 223.12C211.785 221.94 211.525 221.02 211.005 220.36C210.485 219.7 209.665 219.37 208.545 219.37C207.765 219.37 207.065 219.56 206.445 219.94C205.845 220.3 205.365 220.8 205.005 221.44C204.665 222.08 204.495 222.8 204.495 223.6V232H202.935V218.2H204.495V221.08C204.875 220.08 205.445 219.3 206.205 218.74C206.985 218.18 207.885 217.9 208.905 217.9C210.345 217.9 211.445 218.36 212.205 219.28C212.965 220.18 213.345 221.4 213.345 222.94V232H211.785V223.12ZM217.212 232.9H218.802C218.802 233.76 219.002 234.53 219.402 235.21C219.802 235.89 220.362 236.43 221.082 236.83C221.822 237.23 222.672 237.43 223.632 237.43C224.492 237.43 225.302 237.23 226.062 236.83C226.822 236.43 227.442 235.8 227.922 234.94C228.422 234.1 228.672 233.02 228.672 231.7V218.2H230.232V231.7C230.232 233.28 229.922 234.6 229.302 235.66C228.682 236.74 227.872 237.55 226.872 238.09C225.872 238.63 224.792 238.9 223.632 238.9C222.372 238.9 221.252 238.65 220.272 238.15C219.312 237.65 218.562 236.94 218.022 236.02C217.482 235.12 217.212 234.08 217.212 232.9ZM216.882 225.1C216.882 223.6 217.182 222.32 217.782 221.26C218.382 220.18 219.182 219.35 220.182 218.77C221.202 218.19 222.322 217.9 223.542 217.9C224.742 217.9 225.772 218.22 226.632 218.86C227.492 219.48 228.162 220.33 228.642 221.41C229.142 222.49 229.392 223.72 229.392 225.1C229.392 226.46 229.142 227.69 228.642 228.79C228.162 229.87 227.492 230.73 226.632 231.37C225.772 231.99 224.742 232.3 223.542 232.3C222.322 232.3 221.202 232.01 220.182 231.43C219.182 230.85 218.382 230.02 217.782 228.94C217.182 227.86 216.882 226.58 216.882 225.1ZM218.472 225.1C218.472 226.3 218.702 227.33 219.162 228.19C219.642 229.05 220.282 229.71 221.082 230.17C221.902 230.61 222.792 230.83 223.752 230.83C224.612 230.83 225.412 230.58 226.152 230.08C226.912 229.58 227.522 228.9 227.982 228.04C228.442 227.16 228.672 226.16 228.672 225.04C228.672 224.24 228.542 223.5 228.282 222.82C228.022 222.14 227.652 221.54 227.172 221.02C226.712 220.5 226.182 220.1 225.582 219.82C225.002 219.52 224.392 219.37 223.752 219.37C222.792 219.37 221.902 219.6 221.082 220.06C220.282 220.5 219.642 221.15 219.162 222.01C218.702 222.87 218.472 223.9 218.472 225.1Z" fill="#D9D9D9"/>
<circle cx="184.5" cy="159.5" r="159" stroke="#CE664D" stroke-dasharray="10 10"/>
<circle cx="186.5" cy="433.5" r="159" stroke="#CE664D" stroke-dasharray="10 10"/>
<circle cx="188.5" cy="707.5" r="159" stroke="#CE664D" stroke-dasharray="10 10"/>
</svg>
