<svg width="987" height="452" viewBox="0 0 987 452" fill="none" xmlns="http://www.w3.org/2000/svg">
<path d="M59.9741 222.36L62.6141 207.56L94.5341 201.64L84.6941 259H68.1341L74.9341 219.16L59.9741 222.36ZM115.918 231C115.758 232.227 115.651 233.507 115.598 234.84C115.544 236.173 115.571 237.453 115.678 238.68C115.784 239.907 116.024 241.027 116.398 242.04C116.771 243 117.278 243.8 117.918 244.44C118.611 245.027 119.518 245.32 120.638 245.32C122.078 245.373 123.384 245 124.558 244.2C125.731 243.4 126.771 242.307 127.678 240.92C128.584 239.533 129.331 237.987 129.918 236.28C130.558 234.52 130.984 232.76 131.198 231C131.304 229.773 131.384 228.493 131.438 227.16C131.491 225.827 131.464 224.547 131.358 223.32C131.251 222.093 131.011 221 130.638 220.04C130.318 219.027 129.811 218.227 129.118 217.64C128.424 217 127.544 216.653 126.478 216.6C125.038 216.6 123.704 217 122.478 217.8C121.304 218.6 120.264 219.693 119.358 221.08C118.451 222.467 117.704 224.04 117.118 225.8C116.531 227.507 116.131 229.24 115.918 231ZM99.3578 231C99.9445 226.787 101.011 222.92 102.558 219.4C104.158 215.827 106.211 212.733 108.718 210.12C111.224 207.507 114.104 205.48 117.358 204.04C120.611 202.547 124.184 201.8 128.078 201.8C131.278 201.8 134.078 202.307 136.478 203.32C138.878 204.28 140.878 205.667 142.478 207.48C144.131 209.24 145.411 211.347 146.318 213.8C147.224 216.253 147.784 218.947 147.998 221.88C148.264 224.76 148.184 227.8 147.758 231C147.171 235.213 146.104 239.107 144.558 242.68C143.011 246.2 141.011 249.293 138.558 251.96C136.104 254.573 133.224 256.6 129.918 258.04C126.664 259.48 123.038 260.2 119.038 260.2C115.891 260.2 113.118 259.72 110.718 258.76C108.371 257.747 106.371 256.333 104.718 254.52C103.118 252.707 101.838 250.6 100.878 248.2C99.9711 245.747 99.3845 243.08 99.1178 240.2C98.8511 237.267 98.9311 234.2 99.3578 231ZM170.215 231C170.055 232.227 169.948 233.507 169.895 234.84C169.841 236.173 169.868 237.453 169.975 238.68C170.081 239.907 170.321 241.027 170.695 242.04C171.068 243 171.575 243.8 172.215 244.44C172.908 245.027 173.815 245.32 174.935 245.32C176.375 245.373 177.681 245 178.855 244.2C180.028 243.4 181.068 242.307 181.975 240.92C182.881 239.533 183.628 237.987 184.215 236.28C184.855 234.52 185.281 232.76 185.495 231C185.601 229.773 185.681 228.493 185.735 227.16C185.788 225.827 185.761 224.547 185.655 223.32C185.548 222.093 185.308 221 184.935 220.04C184.615 219.027 184.108 218.227 183.415 217.64C182.721 217 181.841 216.653 180.775 216.6C179.335 216.6 178.001 217 176.775 217.8C175.601 218.6 174.561 219.693 173.655 221.08C172.748 222.467 172.001 224.04 171.415 225.8C170.828 227.507 170.428 229.24 170.215 231ZM153.655 231C154.241 226.787 155.308 222.92 156.855 219.4C158.455 215.827 160.508 212.733 163.015 210.12C165.521 207.507 168.401 205.48 171.655 204.04C174.908 202.547 178.481 201.8 182.375 201.8C185.575 201.8 188.375 202.307 190.775 203.32C193.175 204.28 195.175 205.667 196.775 207.48C198.428 209.24 199.708 211.347 200.615 213.8C201.521 216.253 202.081 218.947 202.295 221.88C202.561 224.76 202.481 227.8 202.055 231C201.468 235.213 200.401 239.107 198.855 242.68C197.308 246.2 195.308 249.293 192.855 251.96C190.401 254.573 187.521 256.6 184.215 258.04C180.961 259.48 177.335 260.2 173.335 260.2C170.188 260.2 167.415 259.72 165.015 258.76C162.668 257.747 160.668 256.333 159.015 254.52C157.415 252.707 156.135 250.6 155.175 248.2C154.268 245.747 153.681 243.08 153.415 240.2C153.148 237.267 153.228 234.2 153.655 231ZM231.472 193.56H243.712L240.352 209.56H229.712L231.472 193.56ZM223.072 253.4H233.632L232.032 267.96H219.952L223.072 253.4ZM242.432 221C241.845 219.773 241.178 218.653 240.432 217.64C239.738 216.627 238.938 215.827 238.032 215.24C237.178 214.6 236.192 214.28 235.072 214.28C234.165 214.28 233.338 214.467 232.592 214.84C231.845 215.213 231.232 215.667 230.752 216.2C230.272 216.733 229.952 217.32 229.792 217.96C229.578 219.027 229.792 219.933 230.432 220.68C231.072 221.373 231.952 221.96 233.072 222.44C234.245 222.92 235.498 223.373 236.832 223.8C238.218 224.227 239.498 224.653 240.672 225.08C243.338 226.147 245.605 227.533 247.472 229.24C249.338 230.947 250.672 232.973 251.472 235.32C252.325 237.613 252.592 240.173 252.272 243C251.738 246.84 250.218 250.013 247.712 252.52C245.258 254.973 242.165 256.813 238.432 258.04C234.752 259.213 230.805 259.8 226.592 259.8C223.232 259.747 220.085 259.133 217.152 257.96C214.218 256.787 211.632 255.187 209.392 253.16C207.205 251.08 205.552 248.76 204.432 246.2L216.992 237.72C217.952 239.427 218.938 240.947 219.952 242.28C221.018 243.56 222.218 244.573 223.552 245.32C224.885 246.013 226.432 246.333 228.192 246.28C229.685 246.28 230.965 246.013 232.032 245.48C233.152 244.947 233.818 244.067 234.032 242.84C234.245 241.773 233.898 240.893 232.992 240.2C232.085 239.453 230.912 238.813 229.472 238.28C228.032 237.693 226.565 237.107 225.072 236.52C222.938 235.56 220.805 234.28 218.672 232.68C216.538 231.027 214.805 229 213.472 226.6C212.192 224.2 211.738 221.373 212.112 218.12C212.592 214.973 213.952 212.227 216.192 209.88C218.432 207.48 221.232 205.613 224.592 204.28C228.005 202.893 231.658 202.2 235.552 202.2C239.178 202.2 242.272 202.707 244.832 203.72C247.392 204.68 249.552 206.04 251.312 207.8C253.125 209.56 254.672 211.613 255.952 213.96L242.432 221Z" fill="#FF3100"/>
<path d="M129.678 149.2H138.918L138.258 152.95H129.018L129.678 149.2ZM139.368 143.92C139.208 143.72 139.028 143.55 138.828 143.41C138.648 143.25 138.428 143.17 138.168 143.17C137.848 143.17 137.558 143.27 137.298 143.47C137.038 143.65 136.828 143.9 136.668 144.22C136.508 144.52 136.408 144.86 136.368 145.24L133.308 163H128.988L132.198 144.07C132.358 143.11 132.688 142.26 133.188 141.52C133.688 140.76 134.348 140.17 135.168 139.75C135.988 139.31 136.938 139.1 138.018 139.12C138.898 139.12 139.618 139.28 140.178 139.6C140.738 139.92 141.218 140.27 141.618 140.65L139.368 143.92ZM145.307 149.2L142.937 163H138.527L140.897 149.2H145.307ZM148.547 153.85C148.327 153.65 148.087 153.48 147.827 153.34C147.587 153.18 147.297 153.1 146.957 153.1C146.457 153.08 146.007 153.22 145.607 153.52C145.207 153.82 144.877 154.21 144.617 154.69C144.357 155.15 144.187 155.64 144.107 156.16L143.417 154.57C143.597 153.63 143.947 152.73 144.467 151.87C144.987 150.99 145.607 150.27 146.327 149.71C147.067 149.15 147.847 148.87 148.667 148.87C149.147 148.87 149.587 148.98 149.987 149.2C150.387 149.42 150.727 149.71 151.007 150.07L148.547 153.85ZM150.757 156.07C150.957 154.67 151.467 153.43 152.287 152.35C153.107 151.27 154.137 150.42 155.377 149.8C156.617 149.18 157.967 148.87 159.427 148.87C160.847 148.87 162.097 149.19 163.177 149.83C164.257 150.47 165.067 151.33 165.607 152.41C166.147 153.49 166.327 154.72 166.147 156.1C165.947 157.5 165.437 158.75 164.617 159.85C163.817 160.93 162.787 161.78 161.527 162.4C160.287 163 158.937 163.3 157.477 163.3C156.057 163.3 154.807 162.99 153.727 162.37C152.647 161.73 151.837 160.87 151.297 159.79C150.757 158.71 150.577 157.47 150.757 156.07ZM155.347 156.1C155.247 156.7 155.277 157.26 155.437 157.78C155.617 158.3 155.907 158.72 156.307 159.04C156.707 159.36 157.207 159.52 157.807 159.52C158.427 159.54 158.997 159.4 159.517 159.1C160.057 158.8 160.507 158.38 160.867 157.84C161.247 157.3 161.487 156.71 161.587 156.07C161.667 155.47 161.617 154.92 161.437 154.42C161.257 153.9 160.967 153.48 160.567 153.16C160.187 152.82 159.697 152.64 159.097 152.62C158.477 152.62 157.897 152.78 157.357 153.1C156.837 153.4 156.397 153.82 156.037 154.36C155.677 154.88 155.447 155.46 155.347 156.1ZM189.375 154.12L187.875 163H183.345L184.875 154.6C184.915 154.18 184.915 153.78 184.875 153.4C184.855 153.02 184.755 152.71 184.575 152.47C184.395 152.21 184.095 152.08 183.675 152.08C183.255 152.08 182.865 152.19 182.505 152.41C182.165 152.61 181.875 152.9 181.635 153.28C181.415 153.64 181.265 154.07 181.185 154.57L179.745 163H175.275L176.775 154.57C176.815 154.17 176.815 153.78 176.775 153.4C176.755 153.02 176.655 152.71 176.475 152.47C176.295 152.21 176.005 152.08 175.605 152.08C175.165 152.08 174.775 152.18 174.435 152.38C174.115 152.58 173.835 152.86 173.595 153.22C173.375 153.56 173.225 153.98 173.145 154.48L171.675 163H167.355L169.725 149.2H174.045L173.745 151.09C174.045 150.65 174.395 150.27 174.795 149.95C175.195 149.61 175.645 149.35 176.145 149.17C176.645 148.97 177.195 148.87 177.795 148.87C178.495 148.87 179.075 148.97 179.535 149.17C180.015 149.37 180.395 149.65 180.675 150.01C180.955 150.35 181.145 150.76 181.245 151.24C181.825 150.54 182.505 149.97 183.285 149.53C184.065 149.09 184.935 148.87 185.895 148.87C186.955 148.87 187.755 149.11 188.295 149.59C188.835 150.05 189.175 150.68 189.315 151.48C189.475 152.28 189.495 153.16 189.375 154.12Z" fill="#FF3100"/>
<path d="M461.678 138.2H470.918L470.258 141.95H461.018L461.678 138.2ZM471.368 132.92C471.208 132.72 471.028 132.55 470.828 132.41C470.648 132.25 470.428 132.17 470.168 132.17C469.848 132.17 469.558 132.27 469.298 132.47C469.038 132.65 468.828 132.9 468.668 133.22C468.508 133.52 468.408 133.86 468.368 134.24L465.308 152H460.988L464.198 133.07C464.358 132.11 464.688 131.26 465.188 130.52C465.688 129.76 466.348 129.17 467.168 128.75C467.988 128.31 468.938 128.1 470.018 128.12C470.898 128.12 471.618 128.28 472.178 128.6C472.738 128.92 473.218 129.27 473.618 129.65L471.368 132.92ZM477.307 138.2L474.937 152H470.527L472.897 138.2H477.307ZM480.547 142.85C480.327 142.65 480.087 142.48 479.827 142.34C479.587 142.18 479.297 142.1 478.957 142.1C478.457 142.08 478.007 142.22 477.607 142.52C477.207 142.82 476.877 143.21 476.617 143.69C476.357 144.15 476.187 144.64 476.107 145.16L475.417 143.57C475.597 142.63 475.947 141.73 476.467 140.87C476.987 139.99 477.607 139.27 478.327 138.71C479.067 138.15 479.847 137.87 480.667 137.87C481.147 137.87 481.587 137.98 481.987 138.2C482.387 138.42 482.727 138.71 483.007 139.07L480.547 142.85ZM482.757 145.07C482.957 143.67 483.467 142.43 484.287 141.35C485.107 140.27 486.137 139.42 487.377 138.8C488.617 138.18 489.967 137.87 491.427 137.87C492.847 137.87 494.097 138.19 495.177 138.83C496.257 139.47 497.067 140.33 497.607 141.41C498.147 142.49 498.327 143.72 498.147 145.1C497.947 146.5 497.437 147.75 496.617 148.85C495.817 149.93 494.787 150.78 493.527 151.4C492.287 152 490.937 152.3 489.477 152.3C488.057 152.3 486.807 151.99 485.727 151.37C484.647 150.73 483.837 149.87 483.297 148.79C482.757 147.71 482.577 146.47 482.757 145.07ZM487.347 145.1C487.247 145.7 487.277 146.26 487.437 146.78C487.617 147.3 487.907 147.72 488.307 148.04C488.707 148.36 489.207 148.52 489.807 148.52C490.427 148.54 490.997 148.4 491.517 148.1C492.057 147.8 492.507 147.38 492.867 146.84C493.247 146.3 493.487 145.71 493.587 145.07C493.667 144.47 493.617 143.92 493.437 143.42C493.257 142.9 492.967 142.48 492.567 142.16C492.187 141.82 491.697 141.64 491.097 141.62C490.477 141.62 489.897 141.78 489.357 142.1C488.837 142.4 488.397 142.82 488.037 143.36C487.677 143.88 487.447 144.46 487.347 145.1ZM521.375 143.12L519.875 152H515.345L516.875 143.6C516.915 143.18 516.915 142.78 516.875 142.4C516.855 142.02 516.755 141.71 516.575 141.47C516.395 141.21 516.095 141.08 515.675 141.08C515.255 141.08 514.865 141.19 514.505 141.41C514.165 141.61 513.875 141.9 513.635 142.28C513.415 142.64 513.265 143.07 513.185 143.57L511.745 152H507.275L508.775 143.57C508.815 143.17 508.815 142.78 508.775 142.4C508.755 142.02 508.655 141.71 508.475 141.47C508.295 141.21 508.005 141.08 507.605 141.08C507.165 141.08 506.775 141.18 506.435 141.38C506.115 141.58 505.835 141.86 505.595 142.22C505.375 142.56 505.225 142.98 505.145 143.48L503.675 152H499.355L501.725 138.2H506.045L505.745 140.09C506.045 139.65 506.395 139.27 506.795 138.95C507.195 138.61 507.645 138.35 508.145 138.17C508.645 137.97 509.195 137.87 509.795 137.87C510.495 137.87 511.075 137.97 511.535 138.17C512.015 138.37 512.395 138.65 512.675 139.01C512.955 139.35 513.145 139.76 513.245 140.24C513.825 139.54 514.505 138.97 515.285 138.53C516.065 138.09 516.935 137.87 517.895 137.87C518.955 137.87 519.755 138.11 520.295 138.59C520.835 139.05 521.175 139.68 521.315 140.48C521.475 141.28 521.495 142.16 521.375 143.12Z" fill="#FF3100"/>
<path d="M783.678 138.2H792.918L792.258 141.95H783.018L783.678 138.2ZM793.368 132.92C793.208 132.72 793.028 132.55 792.828 132.41C792.648 132.25 792.428 132.17 792.168 132.17C791.848 132.17 791.558 132.27 791.298 132.47C791.038 132.65 790.828 132.9 790.668 133.22C790.508 133.52 790.408 133.86 790.368 134.24L787.308 152H782.988L786.198 133.07C786.358 132.11 786.688 131.26 787.188 130.52C787.688 129.76 788.348 129.17 789.168 128.75C789.988 128.31 790.938 128.1 792.018 128.12C792.898 128.12 793.618 128.28 794.178 128.6C794.738 128.92 795.218 129.27 795.618 129.65L793.368 132.92ZM799.307 138.2L796.937 152H792.527L794.897 138.2H799.307ZM802.547 142.85C802.327 142.65 802.087 142.48 801.827 142.34C801.587 142.18 801.297 142.1 800.957 142.1C800.457 142.08 800.007 142.22 799.607 142.52C799.207 142.82 798.877 143.21 798.617 143.69C798.357 144.15 798.187 144.64 798.107 145.16L797.417 143.57C797.597 142.63 797.947 141.73 798.467 140.87C798.987 139.99 799.607 139.27 800.327 138.71C801.067 138.15 801.847 137.87 802.667 137.87C803.147 137.87 803.587 137.98 803.987 138.2C804.387 138.42 804.727 138.71 805.007 139.07L802.547 142.85ZM804.757 145.07C804.957 143.67 805.467 142.43 806.287 141.35C807.107 140.27 808.137 139.42 809.377 138.8C810.617 138.18 811.967 137.87 813.427 137.87C814.847 137.87 816.097 138.19 817.177 138.83C818.257 139.47 819.067 140.33 819.607 141.41C820.147 142.49 820.327 143.72 820.147 145.1C819.947 146.5 819.437 147.75 818.617 148.85C817.817 149.93 816.787 150.78 815.527 151.4C814.287 152 812.937 152.3 811.477 152.3C810.057 152.3 808.807 151.99 807.727 151.37C806.647 150.73 805.837 149.87 805.297 148.79C804.757 147.71 804.577 146.47 804.757 145.07ZM809.347 145.1C809.247 145.7 809.277 146.26 809.437 146.78C809.617 147.3 809.907 147.72 810.307 148.04C810.707 148.36 811.207 148.52 811.807 148.52C812.427 148.54 812.997 148.4 813.517 148.1C814.057 147.8 814.507 147.38 814.867 146.84C815.247 146.3 815.487 145.71 815.587 145.07C815.667 144.47 815.617 143.92 815.437 143.42C815.257 142.9 814.967 142.48 814.567 142.16C814.187 141.82 813.697 141.64 813.097 141.62C812.477 141.62 811.897 141.78 811.357 142.1C810.837 142.4 810.397 142.82 810.037 143.36C809.677 143.88 809.447 144.46 809.347 145.1ZM843.375 143.12L841.875 152H837.345L838.875 143.6C838.915 143.18 838.915 142.78 838.875 142.4C838.855 142.02 838.755 141.71 838.575 141.47C838.395 141.21 838.095 141.08 837.675 141.08C837.255 141.08 836.865 141.19 836.505 141.41C836.165 141.61 835.875 141.9 835.635 142.28C835.415 142.64 835.265 143.07 835.185 143.57L833.745 152H829.275L830.775 143.57C830.815 143.17 830.815 142.78 830.775 142.4C830.755 142.02 830.655 141.71 830.475 141.47C830.295 141.21 830.005 141.08 829.605 141.08C829.165 141.08 828.775 141.18 828.435 141.38C828.115 141.58 827.835 141.86 827.595 142.22C827.375 142.56 827.225 142.98 827.145 143.48L825.675 152H821.355L823.725 138.2H828.045L827.745 140.09C828.045 139.65 828.395 139.27 828.795 138.95C829.195 138.61 829.645 138.35 830.145 138.17C830.645 137.97 831.195 137.87 831.795 137.87C832.495 137.87 833.075 137.97 833.535 138.17C834.015 138.37 834.395 138.65 834.675 139.01C834.955 139.35 835.145 139.76 835.245 140.24C835.825 139.54 836.505 138.97 837.285 138.53C838.065 138.09 838.935 137.87 839.895 137.87C840.955 137.87 841.755 138.11 842.295 138.59C842.835 139.05 843.175 139.68 843.315 140.48C843.475 141.28 843.495 142.16 843.375 143.12Z" fill="#FF3100"/>
<path d="M410.847 232.12L411.807 225.08C413.353 225.027 414.9 224.76 416.447 224.28C418.047 223.747 419.407 223.053 420.527 222.2C421.647 221.293 422.287 220.173 422.447 218.84C422.5 218.147 422.367 217.56 422.047 217.08C421.727 216.547 421.247 216.147 420.607 215.88C420.02 215.613 419.273 215.453 418.367 215.4C417.193 215.4 416.127 215.667 415.167 216.2C414.26 216.68 413.487 217.347 412.847 218.2C412.26 219 411.833 219.907 411.567 220.92L395.727 220.84C396.367 217.16 397.753 213.907 399.887 211.08C402.073 208.2 404.847 205.933 408.207 204.28C411.62 202.627 415.46 201.8 419.727 201.8C423.673 201.8 427.22 202.44 430.367 203.72C433.513 204.947 435.94 206.76 437.647 209.16C439.353 211.56 439.967 214.413 439.487 217.72C439.06 220.707 437.94 223.133 436.127 225C434.313 226.867 432.047 228.333 429.327 229.4C426.607 230.413 423.647 231.133 420.447 231.56C417.247 231.933 414.047 232.12 410.847 232.12ZM410.847 260.6C406.207 260.547 402.287 259.56 399.087 257.64C395.94 255.667 393.593 253.08 392.047 249.88C390.553 246.68 389.967 243.187 390.287 239.4H407.087C406.98 240.947 407.14 242.28 407.567 243.4C407.993 244.52 408.633 245.373 409.487 245.96C410.393 246.547 411.513 246.867 412.847 246.92C414.02 246.973 415.14 246.84 416.207 246.52C417.273 246.147 418.18 245.56 418.927 244.76C419.673 243.96 420.153 242.947 420.367 241.72C420.58 240.6 420.473 239.667 420.047 238.92C419.673 238.12 419.007 237.48 418.047 237C417.14 236.467 416.02 236.093 414.687 235.88C413.407 235.613 411.993 235.453 410.447 235.4L411.567 227.08C414.927 227.133 418.207 227.427 421.407 227.96C424.66 228.493 427.513 229.373 429.967 230.6C432.473 231.827 434.367 233.48 435.647 235.56C436.98 237.64 437.433 240.253 437.007 243.4C436.527 247.08 435.06 250.2 432.607 252.76C430.153 255.32 427.033 257.267 423.247 258.6C419.513 259.933 415.38 260.6 410.847 260.6ZM459.605 231C459.445 232.227 459.339 233.507 459.285 234.84C459.232 236.173 459.259 237.453 459.365 238.68C459.472 239.907 459.712 241.027 460.085 242.04C460.459 243 460.965 243.8 461.605 244.44C462.299 245.027 463.205 245.32 464.325 245.32C465.765 245.373 467.072 245 468.245 244.2C469.419 243.4 470.459 242.307 471.365 240.92C472.272 239.533 473.019 237.987 473.605 236.28C474.245 234.52 474.672 232.76 474.885 231C474.992 229.773 475.072 228.493 475.125 227.16C475.179 225.827 475.152 224.547 475.045 223.32C474.939 222.093 474.699 221 474.325 220.04C474.005 219.027 473.499 218.227 472.805 217.64C472.112 217 471.232 216.653 470.165 216.6C468.725 216.6 467.392 217 466.165 217.8C464.992 218.6 463.952 219.693 463.045 221.08C462.139 222.467 461.392 224.04 460.805 225.8C460.219 227.507 459.819 229.24 459.605 231ZM443.045 231C443.632 226.787 444.699 222.92 446.245 219.4C447.845 215.827 449.899 212.733 452.405 210.12C454.912 207.507 457.792 205.48 461.045 204.04C464.299 202.547 467.872 201.8 471.765 201.8C474.965 201.8 477.765 202.307 480.165 203.32C482.565 204.28 484.565 205.667 486.165 207.48C487.819 209.24 489.099 211.347 490.005 213.8C490.912 216.253 491.472 218.947 491.685 221.88C491.952 224.76 491.872 227.8 491.445 231C490.859 235.213 489.792 239.107 488.245 242.68C486.699 246.2 484.699 249.293 482.245 251.96C479.792 254.573 476.912 256.6 473.605 258.04C470.352 259.48 466.725 260.2 462.725 260.2C459.579 260.2 456.805 259.72 454.405 258.76C452.059 257.747 450.059 256.333 448.405 254.52C446.805 252.707 445.525 250.6 444.565 248.2C443.659 245.747 443.072 243.08 442.805 240.2C442.539 237.267 442.619 234.2 443.045 231ZM513.902 231C513.742 232.227 513.636 233.507 513.582 234.84C513.529 236.173 513.556 237.453 513.662 238.68C513.769 239.907 514.009 241.027 514.382 242.04C514.756 243 515.262 243.8 515.902 244.44C516.596 245.027 517.502 245.32 518.622 245.32C520.062 245.373 521.369 245 522.542 244.2C523.716 243.4 524.756 242.307 525.662 240.92C526.569 239.533 527.316 237.987 527.902 236.28C528.542 234.52 528.969 232.76 529.182 231C529.289 229.773 529.369 228.493 529.422 227.16C529.476 225.827 529.449 224.547 529.342 223.32C529.236 222.093 528.996 221 528.622 220.04C528.302 219.027 527.796 218.227 527.102 217.64C526.409 217 525.529 216.653 524.462 216.6C523.022 216.6 521.689 217 520.462 217.8C519.289 218.6 518.249 219.693 517.342 221.08C516.436 222.467 515.689 224.04 515.102 225.8C514.516 227.507 514.116 229.24 513.902 231ZM497.342 231C497.929 226.787 498.996 222.92 500.542 219.4C502.142 215.827 504.196 212.733 506.702 210.12C509.209 207.507 512.089 205.48 515.342 204.04C518.596 202.547 522.169 201.8 526.062 201.8C529.262 201.8 532.062 202.307 534.462 203.32C536.862 204.28 538.862 205.667 540.462 207.48C542.116 209.24 543.396 211.347 544.302 213.8C545.209 216.253 545.769 218.947 545.982 221.88C546.249 224.76 546.169 227.8 545.742 231C545.156 235.213 544.089 239.107 542.542 242.68C540.996 246.2 538.996 249.293 536.542 251.96C534.089 254.573 531.209 256.6 527.902 258.04C524.649 259.48 521.022 260.2 517.022 260.2C513.876 260.2 511.102 259.72 508.702 258.76C506.356 257.747 504.356 256.333 502.702 254.52C501.102 252.707 499.822 250.6 498.862 248.2C497.956 245.747 497.369 243.08 497.102 240.2C496.836 237.267 496.916 234.2 497.342 231ZM575.159 193.56H587.399L584.039 209.56H573.399L575.159 193.56ZM566.759 253.4H577.319L575.719 267.96H563.639L566.759 253.4ZM586.119 221C585.532 219.773 584.866 218.653 584.119 217.64C583.426 216.627 582.626 215.827 581.719 215.24C580.866 214.6 579.879 214.28 578.759 214.28C577.852 214.28 577.026 214.467 576.279 214.84C575.532 215.213 574.919 215.667 574.439 216.2C573.959 216.733 573.639 217.32 573.479 217.96C573.266 219.027 573.479 219.933 574.119 220.68C574.759 221.373 575.639 221.96 576.759 222.44C577.932 222.92 579.186 223.373 580.519 223.8C581.906 224.227 583.186 224.653 584.359 225.08C587.026 226.147 589.292 227.533 591.159 229.24C593.026 230.947 594.359 232.973 595.159 235.32C596.012 237.613 596.279 240.173 595.959 243C595.426 246.84 593.906 250.013 591.399 252.52C588.946 254.973 585.852 256.813 582.119 258.04C578.439 259.213 574.492 259.8 570.279 259.8C566.919 259.747 563.772 259.133 560.839 257.96C557.906 256.787 555.319 255.187 553.079 253.16C550.892 251.08 549.239 248.76 548.119 246.2L560.679 237.72C561.639 239.427 562.626 240.947 563.639 242.28C564.706 243.56 565.906 244.573 567.239 245.32C568.572 246.013 570.119 246.333 571.879 246.28C573.372 246.28 574.652 246.013 575.719 245.48C576.839 244.947 577.506 244.067 577.719 242.84C577.932 241.773 577.586 240.893 576.679 240.2C575.772 239.453 574.599 238.813 573.159 238.28C571.719 237.693 570.252 237.107 568.759 236.52C566.626 235.56 564.492 234.28 562.359 232.68C560.226 231.027 558.492 229 557.159 226.6C555.879 224.2 555.426 221.373 555.799 218.12C556.279 214.973 557.639 212.227 559.879 209.88C562.119 207.48 564.919 205.613 568.279 204.28C571.692 202.893 575.346 202.2 579.239 202.2C582.866 202.2 585.959 202.707 588.519 203.72C591.079 204.68 593.239 206.04 594.999 207.8C596.812 209.56 598.359 211.613 599.639 213.96L586.119 221Z" fill="#FF3100"/>
<path d="M729.621 247.72L770.021 201H784.581L774.981 257H756.821L759.141 242.92L761.621 242.04L764.741 224.04L753.781 235.72H774.101L775.941 233H787.621L785.061 247.8L729.621 247.72ZM811.551 229C811.391 230.227 811.284 231.507 811.231 232.84C811.177 234.173 811.204 235.453 811.311 236.68C811.417 237.907 811.657 239.027 812.031 240.04C812.404 241 812.911 241.8 813.551 242.44C814.244 243.027 815.151 243.32 816.271 243.32C817.711 243.373 819.017 243 820.191 242.2C821.364 241.4 822.404 240.307 823.311 238.92C824.217 237.533 824.964 235.987 825.551 234.28C826.191 232.52 826.617 230.76 826.831 229C826.937 227.773 827.017 226.493 827.071 225.16C827.124 223.827 827.097 222.547 826.991 221.32C826.884 220.093 826.644 219 826.271 218.04C825.951 217.027 825.444 216.227 824.751 215.64C824.057 215 823.177 214.653 822.111 214.6C820.671 214.6 819.337 215 818.111 215.8C816.937 216.6 815.897 217.693 814.991 219.08C814.084 220.467 813.337 222.04 812.751 223.8C812.164 225.507 811.764 227.24 811.551 229ZM794.991 229C795.577 224.787 796.644 220.92 798.191 217.4C799.791 213.827 801.844 210.733 804.351 208.12C806.857 205.507 809.737 203.48 812.991 202.04C816.244 200.547 819.817 199.8 823.711 199.8C826.911 199.8 829.711 200.307 832.111 201.32C834.511 202.28 836.511 203.667 838.111 205.48C839.764 207.24 841.044 209.347 841.951 211.8C842.857 214.253 843.417 216.947 843.631 219.88C843.897 222.76 843.817 225.8 843.391 229C842.804 233.213 841.737 237.107 840.191 240.68C838.644 244.2 836.644 247.293 834.191 249.96C831.737 252.573 828.857 254.6 825.551 256.04C822.297 257.48 818.671 258.2 814.671 258.2C811.524 258.2 808.751 257.72 806.351 256.76C804.004 255.747 802.004 254.333 800.351 252.52C798.751 250.707 797.471 248.6 796.511 246.2C795.604 243.747 795.017 241.08 794.751 238.2C794.484 235.267 794.564 232.2 794.991 229ZM865.848 229C865.688 230.227 865.581 231.507 865.528 232.84C865.474 234.173 865.501 235.453 865.608 236.68C865.714 237.907 865.954 239.027 866.328 240.04C866.701 241 867.208 241.8 867.848 242.44C868.541 243.027 869.448 243.32 870.568 243.32C872.008 243.373 873.314 243 874.488 242.2C875.661 241.4 876.701 240.307 877.608 238.92C878.514 237.533 879.261 235.987 879.848 234.28C880.488 232.52 880.914 230.76 881.128 229C881.234 227.773 881.314 226.493 881.368 225.16C881.421 223.827 881.394 222.547 881.288 221.32C881.181 220.093 880.941 219 880.568 218.04C880.248 217.027 879.741 216.227 879.048 215.64C878.354 215 877.474 214.653 876.408 214.6C874.968 214.6 873.634 215 872.408 215.8C871.234 216.6 870.194 217.693 869.288 219.08C868.381 220.467 867.634 222.04 867.048 223.8C866.461 225.507 866.061 227.24 865.848 229ZM849.288 229C849.874 224.787 850.941 220.92 852.488 217.4C854.088 213.827 856.141 210.733 858.648 208.12C861.154 205.507 864.034 203.48 867.288 202.04C870.541 200.547 874.114 199.8 878.008 199.8C881.208 199.8 884.008 200.307 886.408 201.32C888.808 202.28 890.808 203.667 892.408 205.48C894.061 207.24 895.341 209.347 896.248 211.8C897.154 214.253 897.714 216.947 897.928 219.88C898.194 222.76 898.114 225.8 897.688 229C897.101 233.213 896.034 237.107 894.488 240.68C892.941 244.2 890.941 247.293 888.488 249.96C886.034 252.573 883.154 254.6 879.848 256.04C876.594 257.48 872.968 258.2 868.968 258.2C865.821 258.2 863.048 257.72 860.648 256.76C858.301 255.747 856.301 254.333 854.648 252.52C853.048 250.707 851.768 248.6 850.808 246.2C849.901 243.747 849.314 241.08 849.048 238.2C848.781 235.267 848.861 232.2 849.288 229ZM927.104 191.56H939.344L935.984 207.56H925.344L927.104 191.56ZM918.704 251.4H929.264L927.664 265.96H915.584L918.704 251.4ZM938.064 219C937.478 217.773 936.811 216.653 936.064 215.64C935.371 214.627 934.571 213.827 933.664 213.24C932.811 212.6 931.824 212.28 930.704 212.28C929.798 212.28 928.971 212.467 928.224 212.84C927.478 213.213 926.864 213.667 926.384 214.2C925.904 214.733 925.584 215.32 925.424 215.96C925.211 217.027 925.424 217.933 926.064 218.68C926.704 219.373 927.584 219.96 928.704 220.44C929.878 220.92 931.131 221.373 932.464 221.8C933.851 222.227 935.131 222.653 936.304 223.08C938.971 224.147 941.238 225.533 943.104 227.24C944.971 228.947 946.304 230.973 947.104 233.32C947.958 235.613 948.224 238.173 947.904 241C947.371 244.84 945.851 248.013 943.344 250.52C940.891 252.973 937.798 254.813 934.064 256.04C930.384 257.213 926.438 257.8 922.224 257.8C918.864 257.747 915.718 257.133 912.784 255.96C909.851 254.787 907.264 253.187 905.024 251.16C902.838 249.08 901.184 246.76 900.064 244.2L912.624 235.72C913.584 237.427 914.571 238.947 915.584 240.28C916.651 241.56 917.851 242.573 919.184 243.32C920.518 244.013 922.064 244.333 923.824 244.28C925.318 244.28 926.598 244.013 927.664 243.48C928.784 242.947 929.451 242.067 929.664 240.84C929.878 239.773 929.531 238.893 928.624 238.2C927.718 237.453 926.544 236.813 925.104 236.28C923.664 235.693 922.198 235.107 920.704 234.52C918.571 233.56 916.438 232.28 914.304 230.68C912.171 229.027 910.438 227 909.104 224.6C907.824 222.2 907.371 219.373 907.744 216.12C908.224 212.973 909.584 210.227 911.824 207.88C914.064 205.48 916.864 203.613 920.224 202.28C923.638 200.893 927.291 200.2 931.184 200.2C934.811 200.2 937.904 200.707 940.464 201.72C943.024 202.68 945.184 204.04 946.944 205.8C948.758 207.56 950.304 209.613 951.584 211.96L938.064 219Z" fill="#FF3100"/>
<path d="M88.6163 306.94C88.9563 307.82 89.3663 308.62 89.8463 309.34C90.3463 310.06 90.9563 310.64 91.6763 311.08C92.3963 311.5 93.2563 311.71 94.2563 311.71C95.6163 311.71 96.6763 311.34 97.4363 310.6C98.2163 309.84 98.6063 308.88 98.6063 307.72C98.6063 306.7 98.3763 305.88 97.9163 305.26C97.4563 304.64 96.8563 304.14 96.1163 303.76C95.3963 303.36 94.6363 303.01 93.8363 302.71C93.2363 302.49 92.6063 302.23 91.9463 301.93C91.3063 301.61 90.7063 301.23 90.1463 300.79C89.5863 300.33 89.1263 299.78 88.7663 299.14C88.4263 298.5 88.2563 297.73 88.2563 296.83C88.2563 295.83 88.4963 294.95 88.9763 294.19C89.4563 293.41 90.1263 292.81 90.9863 292.39C91.8463 291.95 92.8163 291.73 93.8963 291.73C95.0163 291.73 95.9763 291.94 96.7763 292.36C97.5963 292.78 98.2763 293.31 98.8163 293.95C99.3563 294.59 99.7663 295.25 100.046 295.93L98.6063 296.74C98.3863 296.2 98.0663 295.67 97.6463 295.15C97.2463 294.63 96.7363 294.2 96.1163 293.86C95.4963 293.5 94.7263 293.32 93.8063 293.32C92.5863 293.32 91.6463 293.64 90.9863 294.28C90.3263 294.9 89.9963 295.68 89.9963 296.62C89.9963 297.4 90.1863 298.07 90.5663 298.63C90.9463 299.19 91.5163 299.7 92.2763 300.16C93.0363 300.6 93.9763 301.02 95.0963 301.42C95.6763 301.64 96.2763 301.91 96.8963 302.23C97.5163 302.55 98.0763 302.95 98.5763 303.43C99.0963 303.91 99.5163 304.49 99.8363 305.17C100.156 305.83 100.316 306.62 100.316 307.54C100.316 308.4 100.156 309.18 99.8363 309.88C99.5363 310.58 99.1063 311.19 98.5463 311.71C98.0063 312.21 97.3663 312.6 96.6263 312.88C95.8863 313.14 95.0863 313.27 94.2263 313.27C93.0063 313.27 91.9363 313.02 91.0163 312.52C90.0963 312.02 89.3263 311.35 88.7063 310.51C88.0863 309.67 87.6063 308.76 87.2663 307.78L88.6163 306.94ZM104.049 292.96C104.049 292.64 104.159 292.38 104.379 292.18C104.599 291.96 104.859 291.85 105.159 291.85C105.479 291.85 105.739 291.96 105.939 292.18C106.159 292.38 106.269 292.64 106.269 292.96C106.269 293.26 106.159 293.52 105.939 293.74C105.739 293.96 105.479 294.07 105.159 294.07C104.859 294.07 104.599 293.96 104.379 293.74C104.159 293.52 104.049 293.26 104.049 292.96ZM104.379 299.2H105.939V313H104.379V299.2ZM119.871 304.12C119.871 302.94 119.611 302.02 119.091 301.36C118.571 300.7 117.751 300.37 116.631 300.37C115.851 300.37 115.151 300.56 114.531 300.94C113.931 301.3 113.451 301.8 113.091 302.44C112.751 303.08 112.581 303.8 112.581 304.6V313H111.021V299.2H112.581V302.08C112.961 301.08 113.531 300.3 114.291 299.74C115.071 299.18 115.971 298.9 116.991 298.9C118.431 298.9 119.531 299.36 120.291 300.28C121.051 301.18 121.431 302.4 121.431 303.94V313H119.871V304.12ZM125.298 313.9H126.888C126.888 314.76 127.088 315.53 127.488 316.21C127.888 316.89 128.448 317.43 129.168 317.83C129.908 318.23 130.758 318.43 131.718 318.43C132.578 318.43 133.388 318.23 134.148 317.83C134.908 317.43 135.528 316.8 136.008 315.94C136.508 315.1 136.758 314.02 136.758 312.7V299.2H138.318V312.7C138.318 314.28 138.008 315.6 137.388 316.66C136.768 317.74 135.958 318.55 134.958 319.09C133.958 319.63 132.878 319.9 131.718 319.9C130.458 319.9 129.338 319.65 128.358 319.15C127.398 318.65 126.648 317.94 126.108 317.02C125.568 316.12 125.298 315.08 125.298 313.9ZM124.968 306.1C124.968 304.6 125.268 303.32 125.868 302.26C126.468 301.18 127.268 300.35 128.268 299.77C129.288 299.19 130.408 298.9 131.628 298.9C132.828 298.9 133.858 299.22 134.718 299.86C135.578 300.48 136.248 301.33 136.728 302.41C137.228 303.49 137.478 304.72 137.478 306.1C137.478 307.46 137.228 308.69 136.728 309.79C136.248 310.87 135.578 311.73 134.718 312.37C133.858 312.99 132.828 313.3 131.628 313.3C130.408 313.3 129.288 313.01 128.268 312.43C127.268 311.85 126.468 311.02 125.868 309.94C125.268 308.86 124.968 307.58 124.968 306.1ZM126.558 306.1C126.558 307.3 126.788 308.33 127.248 309.19C127.728 310.05 128.368 310.71 129.168 311.17C129.988 311.61 130.878 311.83 131.838 311.83C132.698 311.83 133.498 311.58 134.238 311.08C134.998 310.58 135.608 309.9 136.068 309.04C136.528 308.16 136.758 307.16 136.758 306.04C136.758 305.24 136.628 304.5 136.368 303.82C136.108 303.14 135.738 302.54 135.258 302.02C134.798 301.5 134.268 301.1 133.668 300.82C133.088 300.52 132.478 300.37 131.838 300.37C130.878 300.37 129.988 300.6 129.168 301.06C128.368 301.5 127.728 302.15 127.248 303.01C126.788 303.87 126.558 304.9 126.558 306.1ZM142.896 289.6H144.456V313H142.896V289.6ZM154.385 313.3C153.145 313.3 152.045 312.99 151.085 312.37C150.125 311.75 149.365 310.9 148.805 309.82C148.265 308.72 147.995 307.47 147.995 306.07C147.995 304.67 148.275 303.43 148.835 302.35C149.395 301.27 150.175 300.43 151.175 299.83C152.175 299.21 153.325 298.9 154.625 298.9C155.885 298.9 156.985 299.19 157.925 299.77C158.885 300.35 159.625 301.16 160.145 302.2C160.685 303.22 160.955 304.4 160.955 305.74C160.955 305.86 160.945 305.99 160.925 306.13C160.925 306.27 160.915 306.39 160.895 306.49H148.985V305.14H159.725L159.065 306.07C159.105 305.97 159.145 305.84 159.185 305.68C159.245 305.5 159.275 305.33 159.275 305.17C159.275 304.23 159.065 303.39 158.645 302.65C158.245 301.91 157.695 301.33 156.995 300.91C156.295 300.49 155.505 300.28 154.625 300.28C153.605 300.28 152.715 300.52 151.955 301C151.215 301.46 150.635 302.12 150.215 302.98C149.795 303.82 149.585 304.82 149.585 305.98C149.585 307.16 149.785 308.19 150.185 309.07C150.605 309.95 151.185 310.63 151.925 311.11C152.685 311.59 153.565 311.83 154.565 311.83C155.625 311.83 156.545 311.6 157.325 311.14C158.125 310.68 158.835 309.96 159.455 308.98L160.715 309.79C159.935 310.99 159.025 311.88 157.985 312.46C156.965 313.02 155.765 313.3 154.385 313.3ZM162.268 306.22V304.75H168.268V306.22H162.268ZM172.197 319.6H170.637V299.2H172.197V319.6ZM183.987 306.1C183.987 307.58 183.687 308.86 183.087 309.94C182.507 311.02 181.707 311.85 180.687 312.43C179.687 313.01 178.567 313.3 177.327 313.3C176.167 313.3 175.147 312.99 174.267 312.37C173.387 311.73 172.697 310.87 172.197 309.79C171.717 308.69 171.477 307.46 171.477 306.1C171.477 304.72 171.717 303.49 172.197 302.41C172.697 301.33 173.387 300.48 174.267 299.86C175.147 299.22 176.167 298.9 177.327 298.9C178.567 298.9 179.687 299.19 180.687 299.77C181.707 300.35 182.507 301.18 183.087 302.26C183.687 303.32 183.987 304.6 183.987 306.1ZM182.427 306.1C182.427 304.9 182.187 303.87 181.707 303.01C181.227 302.15 180.587 301.5 179.787 301.06C178.987 300.6 178.097 300.37 177.117 300.37C176.277 300.37 175.477 300.62 174.717 301.12C173.957 301.62 173.347 302.3 172.887 303.16C172.427 304.02 172.197 305 172.197 306.1C172.197 307.2 172.427 308.18 172.887 309.04C173.347 309.9 173.957 310.58 174.717 311.08C175.477 311.58 176.277 311.83 177.117 311.83C178.097 311.83 178.987 311.61 179.787 311.17C180.587 310.71 181.227 310.05 181.707 309.19C182.187 308.33 182.427 307.3 182.427 306.1ZM187.756 308.86C187.756 309.54 187.906 310.11 188.206 310.57C188.526 311.03 188.946 311.38 189.466 311.62C190.006 311.84 190.596 311.95 191.236 311.95C192.016 311.95 192.726 311.77 193.366 311.41C194.026 311.05 194.556 310.52 194.956 309.82C195.356 309.12 195.556 308.26 195.556 307.24L195.916 308.56C195.916 309.64 195.656 310.53 195.136 311.23C194.616 311.93 193.966 312.45 193.186 312.79C192.406 313.13 191.616 313.3 190.816 313.3C190.036 313.3 189.286 313.14 188.566 312.82C187.846 312.48 187.266 311.99 186.826 311.35C186.386 310.71 186.166 309.9 186.166 308.92C186.166 307.58 186.626 306.52 187.546 305.74C188.486 304.96 189.756 304.57 191.356 304.57C192.256 304.57 193.026 304.68 193.666 304.9C194.326 305.1 194.866 305.33 195.286 305.59C195.706 305.85 196.006 306.07 196.186 306.25V307.24C195.506 306.76 194.776 306.41 193.996 306.19C193.236 305.95 192.436 305.83 191.596 305.83C190.816 305.83 190.136 305.94 189.556 306.16C188.996 306.38 188.556 306.71 188.236 307.15C187.916 307.59 187.756 308.16 187.756 308.86ZM187.816 301.72L187.036 300.55C187.556 300.19 188.226 299.83 189.046 299.47C189.886 299.09 190.916 298.9 192.136 298.9C193.176 298.9 194.066 299.07 194.806 299.41C195.546 299.75 196.116 300.24 196.516 300.88C196.916 301.52 197.116 302.3 197.116 303.22V313H195.556V303.43C195.556 303.03 195.496 302.65 195.376 302.29C195.256 301.91 195.056 301.57 194.776 301.27C194.516 300.97 194.156 300.73 193.696 300.55C193.236 300.37 192.676 300.28 192.016 300.28C191.336 300.28 190.726 300.36 190.186 300.52C189.646 300.68 189.176 300.87 188.776 301.09C188.396 301.31 188.076 301.52 187.816 301.72ZM200.532 313.9H202.122C202.122 314.76 202.322 315.53 202.722 316.21C203.122 316.89 203.682 317.43 204.402 317.83C205.142 318.23 205.992 318.43 206.952 318.43C207.812 318.43 208.622 318.23 209.382 317.83C210.142 317.43 210.762 316.8 211.242 315.94C211.742 315.1 211.992 314.02 211.992 312.7V299.2H213.552V312.7C213.552 314.28 213.242 315.6 212.622 316.66C212.002 317.74 211.192 318.55 210.192 319.09C209.192 319.63 208.112 319.9 206.952 319.9C205.692 319.9 204.572 319.65 203.592 319.15C202.632 318.65 201.882 317.94 201.342 317.02C200.802 316.12 200.532 315.08 200.532 313.9ZM200.202 306.1C200.202 304.6 200.502 303.32 201.102 302.26C201.702 301.18 202.502 300.35 203.502 299.77C204.522 299.19 205.642 298.9 206.862 298.9C208.062 298.9 209.092 299.22 209.952 299.86C210.812 300.48 211.482 301.33 211.962 302.41C212.462 303.49 212.712 304.72 212.712 306.1C212.712 307.46 212.462 308.69 211.962 309.79C211.482 310.87 210.812 311.73 209.952 312.37C209.092 312.99 208.062 313.3 206.862 313.3C205.642 313.3 204.522 313.01 203.502 312.43C202.502 311.85 201.702 311.02 201.102 309.94C200.502 308.86 200.202 307.58 200.202 306.1ZM201.792 306.1C201.792 307.3 202.022 308.33 202.482 309.19C202.962 310.05 203.602 310.71 204.402 311.17C205.222 311.61 206.112 311.83 207.072 311.83C207.932 311.83 208.732 311.58 209.472 311.08C210.232 310.58 210.842 309.9 211.302 309.04C211.762 308.16 211.992 307.16 211.992 306.04C211.992 305.24 211.862 304.5 211.602 303.82C211.342 303.14 210.972 302.54 210.492 302.02C210.032 301.5 209.502 301.1 208.902 300.82C208.322 300.52 207.712 300.37 207.072 300.37C206.112 300.37 205.222 300.6 204.402 301.06C203.602 301.5 202.962 302.15 202.482 303.01C202.022 303.87 201.792 304.9 201.792 306.1ZM223.321 313.3C222.081 313.3 220.981 312.99 220.021 312.37C219.061 311.75 218.301 310.9 217.741 309.82C217.201 308.72 216.931 307.47 216.931 306.07C216.931 304.67 217.211 303.43 217.771 302.35C218.331 301.27 219.111 300.43 220.111 299.83C221.111 299.21 222.261 298.9 223.561 298.9C224.821 298.9 225.921 299.19 226.861 299.77C227.821 300.35 228.561 301.16 229.081 302.2C229.621 303.22 229.891 304.4 229.891 305.74C229.891 305.86 229.881 305.99 229.861 306.13C229.861 306.27 229.851 306.39 229.831 306.49H217.921V305.14H228.661L228.001 306.07C228.041 305.97 228.081 305.84 228.121 305.68C228.181 305.5 228.211 305.33 228.211 305.17C228.211 304.23 228.001 303.39 227.581 302.65C227.181 301.91 226.631 301.33 225.931 300.91C225.231 300.49 224.441 300.28 223.561 300.28C222.541 300.28 221.651 300.52 220.891 301C220.151 301.46 219.571 302.12 219.151 302.98C218.731 303.82 218.521 304.82 218.521 305.98C218.521 307.16 218.721 308.19 219.121 309.07C219.541 309.95 220.121 310.63 220.861 311.11C221.621 311.59 222.501 311.83 223.501 311.83C224.561 311.83 225.481 311.6 226.261 311.14C227.061 310.68 227.771 309.96 228.391 308.98L229.651 309.79C228.871 310.99 227.961 311.88 226.921 312.46C225.901 313.02 224.701 313.3 223.321 313.3Z" fill="#D9D9D9"/>
<path d="M435.142 301.38L433.342 318H431.692L434.122 296.19L442.522 312.33L450.922 296.19L453.352 318H451.702L449.902 301.38L442.522 315.57L435.142 301.38ZM458.733 312.96C458.733 314.16 458.993 315.11 459.513 315.81C460.033 316.49 460.853 316.83 461.973 316.83C462.753 316.83 463.443 316.64 464.043 316.26C464.663 315.88 465.143 315.37 465.483 314.73C465.843 314.09 466.023 313.38 466.023 312.6V304.2H467.583V318H466.023V315.12C465.643 316.12 465.073 316.9 464.313 317.46C463.553 318.02 462.653 318.3 461.613 318.3C460.173 318.3 459.073 317.84 458.313 316.92C457.553 315.98 457.173 314.72 457.173 313.14V304.2H458.733V312.96ZM472.319 294.6H473.879V318H472.319V294.6ZM476.518 304.2H482.578V305.67H476.518V304.2ZM478.768 299.4H480.328V318H478.768V299.4ZM485.21 297.96C485.21 297.64 485.32 297.38 485.54 297.18C485.76 296.96 486.02 296.85 486.32 296.85C486.64 296.85 486.9 296.96 487.1 297.18C487.32 297.38 487.43 297.64 487.43 297.96C487.43 298.26 487.32 298.52 487.1 298.74C486.9 298.96 486.64 299.07 486.32 299.07C486.02 299.07 485.76 298.96 485.54 298.74C485.32 298.52 485.21 298.26 485.21 297.96ZM485.54 304.2H487.1V318H485.54V304.2ZM489.963 311.22V309.75H495.963V311.22H489.963ZM499.891 324.6H498.331V304.2H499.891V324.6ZM511.681 311.1C511.681 312.58 511.381 313.86 510.781 314.94C510.201 316.02 509.401 316.85 508.381 317.43C507.381 318.01 506.261 318.3 505.021 318.3C503.861 318.3 502.841 317.99 501.961 317.37C501.081 316.73 500.391 315.87 499.891 314.79C499.411 313.69 499.171 312.46 499.171 311.1C499.171 309.72 499.411 308.49 499.891 307.41C500.391 306.33 501.081 305.48 501.961 304.86C502.841 304.22 503.861 303.9 505.021 303.9C506.261 303.9 507.381 304.19 508.381 304.77C509.401 305.35 510.201 306.18 510.781 307.26C511.381 308.32 511.681 309.6 511.681 311.1ZM510.121 311.1C510.121 309.9 509.881 308.87 509.401 308.01C508.921 307.15 508.281 306.5 507.481 306.06C506.681 305.6 505.791 305.37 504.811 305.37C503.971 305.37 503.171 305.62 502.411 306.12C501.651 306.62 501.041 307.3 500.581 308.16C500.121 309.02 499.891 310 499.891 311.1C499.891 312.2 500.121 313.18 500.581 314.04C501.041 314.9 501.651 315.58 502.411 316.08C503.171 316.58 503.971 316.83 504.811 316.83C505.791 316.83 506.681 316.61 507.481 316.17C508.281 315.71 508.921 315.05 509.401 314.19C509.881 313.33 510.121 312.3 510.121 311.1ZM515.45 313.86C515.45 314.54 515.6 315.11 515.9 315.57C516.22 316.03 516.64 316.38 517.16 316.62C517.7 316.84 518.29 316.95 518.93 316.95C519.71 316.95 520.42 316.77 521.06 316.41C521.72 316.05 522.25 315.52 522.65 314.82C523.05 314.12 523.25 313.26 523.25 312.24L523.61 313.56C523.61 314.64 523.35 315.53 522.83 316.23C522.31 316.93 521.66 317.45 520.88 317.79C520.1 318.13 519.31 318.3 518.51 318.3C517.73 318.3 516.98 318.14 516.26 317.82C515.54 317.48 514.96 316.99 514.52 316.35C514.08 315.71 513.86 314.9 513.86 313.92C513.86 312.58 514.32 311.52 515.24 310.74C516.18 309.96 517.45 309.57 519.05 309.57C519.95 309.57 520.72 309.68 521.36 309.9C522.02 310.1 522.56 310.33 522.98 310.59C523.4 310.85 523.7 311.07 523.88 311.25V312.24C523.2 311.76 522.47 311.41 521.69 311.19C520.93 310.95 520.13 310.83 519.29 310.83C518.51 310.83 517.83 310.94 517.25 311.16C516.69 311.38 516.25 311.71 515.93 312.15C515.61 312.59 515.45 313.16 515.45 313.86ZM515.51 306.72L514.73 305.55C515.25 305.19 515.92 304.83 516.74 304.47C517.58 304.09 518.61 303.9 519.83 303.9C520.87 303.9 521.76 304.07 522.5 304.41C523.24 304.75 523.81 305.24 524.21 305.88C524.61 306.52 524.81 307.3 524.81 308.22V318H523.25V308.43C523.25 308.03 523.19 307.65 523.07 307.29C522.95 306.91 522.75 306.57 522.47 306.27C522.21 305.97 521.85 305.73 521.39 305.55C520.93 305.37 520.37 305.28 519.71 305.28C519.03 305.28 518.42 305.36 517.88 305.52C517.34 305.68 516.87 305.87 516.47 306.09C516.09 306.31 515.77 306.52 515.51 306.72ZM528.227 318.9H529.817C529.817 319.76 530.017 320.53 530.417 321.21C530.817 321.89 531.377 322.43 532.097 322.83C532.837 323.23 533.687 323.43 534.647 323.43C535.507 323.43 536.317 323.23 537.077 322.83C537.837 322.43 538.457 321.8 538.937 320.94C539.437 320.1 539.687 319.02 539.687 317.7V304.2H541.247V317.7C541.247 319.28 540.937 320.6 540.317 321.66C539.697 322.74 538.887 323.55 537.887 324.09C536.887 324.63 535.807 324.9 534.647 324.9C533.387 324.9 532.267 324.65 531.287 324.15C530.327 323.65 529.577 322.94 529.037 322.02C528.497 321.12 528.227 320.08 528.227 318.9ZM527.897 311.1C527.897 309.6 528.197 308.32 528.797 307.26C529.397 306.18 530.197 305.35 531.197 304.77C532.217 304.19 533.337 303.9 534.557 303.9C535.757 303.9 536.787 304.22 537.647 304.86C538.507 305.48 539.177 306.33 539.657 307.41C540.157 308.49 540.407 309.72 540.407 311.1C540.407 312.46 540.157 313.69 539.657 314.79C539.177 315.87 538.507 316.73 537.647 317.37C536.787 317.99 535.757 318.3 534.557 318.3C533.337 318.3 532.217 318.01 531.197 317.43C530.197 316.85 529.397 316.02 528.797 314.94C528.197 313.86 527.897 312.58 527.897 311.1ZM529.487 311.1C529.487 312.3 529.717 313.33 530.177 314.19C530.657 315.05 531.297 315.71 532.097 316.17C532.917 316.61 533.807 316.83 534.767 316.83C535.627 316.83 536.427 316.58 537.167 316.08C537.927 315.58 538.537 314.9 538.997 314.04C539.457 313.16 539.687 312.16 539.687 311.04C539.687 310.24 539.557 309.5 539.297 308.82C539.037 308.14 538.667 307.54 538.187 307.02C537.727 306.5 537.197 306.1 536.597 305.82C536.017 305.52 535.407 305.37 534.767 305.37C533.807 305.37 532.917 305.6 532.097 306.06C531.297 306.5 530.657 307.15 530.177 308.01C529.717 308.87 529.487 309.9 529.487 311.1ZM551.015 318.3C549.775 318.3 548.675 317.99 547.715 317.37C546.755 316.75 545.995 315.9 545.435 314.82C544.895 313.72 544.625 312.47 544.625 311.07C544.625 309.67 544.905 308.43 545.465 307.35C546.025 306.27 546.805 305.43 547.805 304.83C548.805 304.21 549.955 303.9 551.255 303.9C552.515 303.9 553.615 304.19 554.555 304.77C555.515 305.35 556.255 306.16 556.775 307.2C557.315 308.22 557.585 309.4 557.585 310.74C557.585 310.86 557.575 310.99 557.555 311.13C557.555 311.27 557.545 311.39 557.525 311.49H545.615V310.14H556.355L555.695 311.07C555.735 310.97 555.775 310.84 555.815 310.68C555.875 310.5 555.905 310.33 555.905 310.17C555.905 309.23 555.695 308.39 555.275 307.65C554.875 306.91 554.325 306.33 553.625 305.91C552.925 305.49 552.135 305.28 551.255 305.28C550.235 305.28 549.345 305.52 548.585 306C547.845 306.46 547.265 307.12 546.845 307.98C546.425 308.82 546.215 309.82 546.215 310.98C546.215 312.16 546.415 313.19 546.815 314.07C547.235 314.95 547.815 315.63 548.555 316.11C549.315 316.59 550.195 316.83 551.195 316.83C552.255 316.83 553.175 316.6 553.955 316.14C554.755 315.68 555.465 314.96 556.085 313.98L557.345 314.79C556.565 315.99 555.655 316.88 554.615 317.46C553.595 318.02 552.395 318.3 551.015 318.3Z" fill="#D9D9D9"/>
<path d="M759.277 320V318.44H769.687V320H759.277ZM759.277 300.56V299H769.687V300.56H759.277ZM759.277 309.26V307.7H769.087V309.26H759.277ZM758.407 299H760.057V320H758.407V299ZM772.062 313.22V311.75H778.062V313.22H772.062ZM780.821 313.1C780.821 314.22 781.061 315.21 781.541 316.07C782.021 316.93 782.671 317.61 783.491 318.11C784.331 318.59 785.271 318.83 786.311 318.83C787.051 318.83 787.741 318.72 788.381 318.5C789.021 318.28 789.571 318 790.031 317.66C790.511 317.3 790.851 316.94 791.051 316.58V318.53C790.631 319.03 789.981 319.45 789.101 319.79C788.241 320.13 787.311 320.3 786.311 320.3C784.971 320.3 783.771 319.99 782.711 319.37C781.651 318.75 780.801 317.9 780.161 316.82C779.541 315.72 779.231 314.48 779.231 313.1C779.231 311.7 779.541 310.46 780.161 309.38C780.801 308.3 781.651 307.45 782.711 306.83C783.771 306.21 784.971 305.9 786.311 305.9C787.311 305.9 788.241 306.08 789.101 306.44C789.981 306.78 790.631 307.19 791.051 307.67V309.62C790.851 309.24 790.511 308.88 790.031 308.54C789.571 308.2 789.021 307.92 788.381 307.7C787.741 307.48 787.051 307.37 786.311 307.37C785.271 307.37 784.331 307.62 783.491 308.12C782.671 308.6 782.021 309.27 781.541 310.13C781.061 310.99 780.821 311.98 780.821 313.1ZM793.854 313.1C793.854 311.7 794.164 310.46 794.784 309.38C795.404 308.3 796.244 307.45 797.304 306.83C798.384 306.21 799.594 305.9 800.934 305.9C802.274 305.9 803.474 306.21 804.534 306.83C805.614 307.45 806.464 308.3 807.084 309.38C807.704 310.46 808.014 311.7 808.014 313.1C808.014 314.48 807.704 315.72 807.084 316.82C806.464 317.9 805.614 318.75 804.534 319.37C803.474 319.99 802.274 320.3 800.934 320.3C799.594 320.3 798.384 319.99 797.304 319.37C796.244 318.75 795.404 317.9 794.784 316.82C794.164 315.72 793.854 314.48 793.854 313.1ZM795.444 313.1C795.444 314.22 795.684 315.21 796.164 316.07C796.644 316.93 797.294 317.61 798.114 318.11C798.954 318.59 799.894 318.83 800.934 318.83C801.974 318.83 802.904 318.59 803.724 318.11C804.564 317.61 805.224 316.93 805.704 316.07C806.184 315.21 806.424 314.22 806.424 313.1C806.424 312 806.184 311.02 805.704 310.16C805.224 309.28 804.564 308.6 803.724 308.12C802.904 307.62 801.974 307.37 800.934 307.37C799.894 307.37 798.954 307.62 798.114 308.12C797.294 308.6 796.644 309.27 796.164 310.13C795.684 310.99 795.444 311.98 795.444 313.1ZM829.128 310.94V320H827.568V311.12C827.568 309.92 827.338 309 826.878 308.36C826.418 307.7 825.708 307.37 824.748 307.37C824.068 307.37 823.448 307.55 822.888 307.91C822.348 308.27 821.918 308.77 821.598 309.41C821.278 310.05 821.118 310.78 821.118 311.6V320H819.558V311.12C819.558 309.92 819.328 309 818.868 308.36C818.408 307.7 817.698 307.37 816.738 307.37C816.058 307.37 815.438 307.55 814.878 307.91C814.338 308.27 813.908 308.77 813.588 309.41C813.268 310.05 813.108 310.78 813.108 311.6V320H811.548V306.2H813.108V308.99C813.468 308.01 813.998 307.25 814.698 306.71C815.398 306.17 816.198 305.9 817.098 305.9C818.098 305.9 818.918 306.19 819.558 306.77C820.198 307.33 820.628 308.1 820.848 309.08C821.248 308.08 821.828 307.3 822.588 306.74C823.348 306.18 824.188 305.9 825.108 305.9C825.968 305.9 826.698 306.1 827.298 306.5C827.898 306.9 828.348 307.48 828.648 308.24C828.968 309 829.128 309.9 829.128 310.94ZM851.452 310.94V320H849.892V311.12C849.892 309.92 849.662 309 849.202 308.36C848.742 307.7 848.032 307.37 847.072 307.37C846.392 307.37 845.772 307.55 845.212 307.91C844.672 308.27 844.242 308.77 843.922 309.41C843.602 310.05 843.442 310.78 843.442 311.6V320H841.882V311.12C841.882 309.92 841.652 309 841.192 308.36C840.732 307.7 840.022 307.37 839.062 307.37C838.382 307.37 837.762 307.55 837.202 307.91C836.662 308.27 836.232 308.77 835.912 309.41C835.592 310.05 835.432 310.78 835.432 311.6V320H833.872V306.2H835.432V308.99C835.792 308.01 836.322 307.25 837.022 306.71C837.722 306.17 838.522 305.9 839.422 305.9C840.422 305.9 841.242 306.19 841.882 306.77C842.522 307.33 842.952 308.1 843.172 309.08C843.572 308.08 844.152 307.3 844.912 306.74C845.672 306.18 846.512 305.9 847.432 305.9C848.292 305.9 849.022 306.1 849.622 306.5C850.222 306.9 850.672 307.48 850.972 308.24C851.292 309 851.452 309.9 851.452 310.94ZM861.386 320.3C860.146 320.3 859.046 319.99 858.086 319.37C857.126 318.75 856.366 317.9 855.806 316.82C855.266 315.72 854.996 314.47 854.996 313.07C854.996 311.67 855.276 310.43 855.836 309.35C856.396 308.27 857.176 307.43 858.176 306.83C859.176 306.21 860.326 305.9 861.626 305.9C862.886 305.9 863.986 306.19 864.926 306.77C865.886 307.35 866.626 308.16 867.146 309.2C867.686 310.22 867.956 311.4 867.956 312.74C867.956 312.86 867.946 312.99 867.926 313.13C867.926 313.27 867.916 313.39 867.896 313.49H855.986V312.14H866.726L866.066 313.07C866.106 312.97 866.146 312.84 866.186 312.68C866.246 312.5 866.276 312.33 866.276 312.17C866.276 311.23 866.066 310.39 865.646 309.65C865.246 308.91 864.696 308.33 863.996 307.91C863.296 307.49 862.506 307.28 861.626 307.28C860.606 307.28 859.716 307.52 858.956 308C858.216 308.46 857.636 309.12 857.216 309.98C856.796 310.82 856.586 311.82 856.586 312.98C856.586 314.16 856.786 315.19 857.186 316.07C857.606 316.95 858.186 317.63 858.926 318.11C859.686 318.59 860.566 318.83 861.566 318.83C862.626 318.83 863.546 318.6 864.326 318.14C865.126 317.68 865.836 316.96 866.456 315.98L867.716 316.79C866.936 317.99 866.026 318.88 864.986 319.46C863.966 320.02 862.766 320.3 861.386 320.3ZM873.049 306.2V320H871.489V306.2H873.049ZM877.639 308.03C877.339 307.81 877.049 307.65 876.769 307.55C876.509 307.43 876.199 307.37 875.839 307.37C875.159 307.37 874.609 307.56 874.189 307.94C873.789 308.32 873.499 308.83 873.319 309.47C873.139 310.11 873.049 310.82 873.049 311.6H872.329C872.329 310.5 872.499 309.53 872.839 308.69C873.179 307.83 873.639 307.15 874.219 306.65C874.819 306.15 875.479 305.9 876.199 305.9C876.639 305.9 877.049 305.97 877.429 306.11C877.829 306.23 878.189 306.44 878.509 306.74L877.639 308.03ZM880.958 313.1C880.958 314.22 881.198 315.21 881.678 316.07C882.158 316.93 882.808 317.61 883.628 318.11C884.468 318.59 885.408 318.83 886.448 318.83C887.188 318.83 887.878 318.72 888.518 318.5C889.158 318.28 889.708 318 890.168 317.66C890.648 317.3 890.988 316.94 891.188 316.58V318.53C890.768 319.03 890.118 319.45 889.238 319.79C888.378 320.13 887.448 320.3 886.448 320.3C885.108 320.3 883.908 319.99 882.848 319.37C881.788 318.75 880.938 317.9 880.298 316.82C879.678 315.72 879.368 314.48 879.368 313.1C879.368 311.7 879.678 310.46 880.298 309.38C880.938 308.3 881.788 307.45 882.848 306.83C883.908 306.21 885.108 305.9 886.448 305.9C887.448 305.9 888.378 306.08 889.238 306.44C890.118 306.78 890.768 307.19 891.188 307.67V309.62C890.988 309.24 890.648 308.88 890.168 308.54C889.708 308.2 889.158 307.92 888.518 307.7C887.878 307.48 887.188 307.37 886.448 307.37C885.408 307.37 884.468 307.62 883.628 308.12C882.808 308.6 882.158 309.27 881.678 310.13C881.198 310.99 880.958 311.98 880.958 313.1ZM900.38 320.3C899.14 320.3 898.04 319.99 897.08 319.37C896.12 318.75 895.36 317.9 894.8 316.82C894.26 315.72 893.99 314.47 893.99 313.07C893.99 311.67 894.27 310.43 894.83 309.35C895.39 308.27 896.17 307.43 897.17 306.83C898.17 306.21 899.32 305.9 900.62 305.9C901.88 305.9 902.98 306.19 903.92 306.77C904.88 307.35 905.62 308.16 906.14 309.2C906.68 310.22 906.95 311.4 906.95 312.74C906.95 312.86 906.94 312.99 906.92 313.13C906.92 313.27 906.91 313.39 906.89 313.49H894.98V312.14H905.72L905.06 313.07C905.1 312.97 905.14 312.84 905.18 312.68C905.24 312.5 905.27 312.33 905.27 312.17C905.27 311.23 905.06 310.39 904.64 309.65C904.24 308.91 903.69 308.33 902.99 307.91C902.29 307.49 901.5 307.28 900.62 307.28C899.6 307.28 898.71 307.52 897.95 308C897.21 308.46 896.63 309.12 896.21 309.98C895.79 310.82 895.58 311.82 895.58 312.98C895.58 314.16 895.78 315.19 896.18 316.07C896.6 316.95 897.18 317.63 897.92 318.11C898.68 318.59 899.56 318.83 900.56 318.83C901.62 318.83 902.54 318.6 903.32 318.14C904.12 317.68 904.83 316.96 905.45 315.98L906.71 316.79C905.93 317.99 905.02 318.88 903.98 319.46C902.96 320.02 901.76 320.3 900.38 320.3Z" fill="#D9D9D9"/>
<circle cx="159.5" cy="240.5" r="159" stroke="#CE664D" stroke-dasharray="10 10"/>
<circle cx="493" cy="226" r="225.5" stroke="#CE664D" stroke-dasharray="10 10"/>
<circle cx="827.5" cy="243.5" r="159" stroke="#CE664D" stroke-dasharray="10 10"/>
</svg>
