<svg width="383" height="867" viewBox="0 0 383 867" fill="none" xmlns="http://www.w3.org/2000/svg">
<path d="M83.257 797H76.987V795.92L79.267 795.59V777.02L76.987 776.66V775.58H83.257V776.66L80.977 777.02V795.59L83.257 795.92V797ZM87.9534 790.43V788.96H98.0334V790.43H87.9534ZM97.0734 783.2H98.6334V797H97.0734V783.2ZM87.0234 783.2H88.5834V797H87.0234V783.2ZM101.037 783.2H109.137V784.67H101.037V783.2ZM104.307 783.62H105.867V797H104.307V783.62ZM111.015 790.49V789.14H121.275C121.275 788.2 121.075 787.37 120.675 786.65C120.275 785.91 119.725 785.33 119.025 784.91C118.345 784.49 117.555 784.28 116.655 784.28C115.755 784.28 114.925 784.49 114.165 784.91C113.405 785.33 112.795 785.94 112.335 786.74C111.875 787.52 111.645 788.45 111.645 789.53L111.615 790.07C111.615 791.23 111.825 792.25 112.245 793.13C112.665 793.99 113.245 794.66 113.985 795.14C114.745 795.6 115.615 795.83 116.595 795.83C117.475 795.83 118.215 795.7 118.815 795.44C119.435 795.16 119.955 794.81 120.375 794.39C120.815 793.95 121.185 793.48 121.485 792.98L122.745 793.79C122.345 794.41 121.885 794.99 121.365 795.53C120.845 796.05 120.195 796.48 119.415 796.82C118.635 797.14 117.635 797.3 116.415 797.3C115.215 797.3 114.125 796.99 113.145 796.37C112.185 795.75 111.425 794.89 110.865 793.79C110.305 792.69 110.025 791.45 110.025 790.07C110.025 789.75 110.035 789.45 110.055 789.17C110.095 788.87 110.145 788.57 110.205 788.27C110.445 787.21 110.855 786.28 111.435 785.48C112.015 784.66 112.755 784.03 113.655 783.59C114.555 783.13 115.555 782.9 116.655 782.9C117.855 782.9 118.935 783.19 119.895 783.77C120.855 784.33 121.605 785.12 122.145 786.14C122.705 787.16 122.985 788.36 122.985 789.74C122.985 789.86 122.975 789.99 122.955 790.13C122.955 790.25 122.945 790.37 122.925 790.49H111.015ZM128.075 803.6H126.515V783.2H128.075V803.6ZM139.865 790.1C139.865 791.58 139.565 792.86 138.965 793.94C138.385 795.02 137.585 795.85 136.565 796.43C135.565 797.01 134.445 797.3 133.205 797.3C132.045 797.3 131.025 796.99 130.145 796.37C129.265 795.73 128.575 794.87 128.075 793.79C127.595 792.69 127.355 791.46 127.355 790.1C127.355 788.72 127.595 787.49 128.075 786.41C128.575 785.33 129.265 784.48 130.145 783.86C131.025 783.22 132.045 782.9 133.205 782.9C134.445 782.9 135.565 783.19 136.565 783.77C137.585 784.35 138.385 785.18 138.965 786.26C139.565 787.32 139.865 788.6 139.865 790.1ZM138.305 790.1C138.305 788.9 138.065 787.87 137.585 787.01C137.105 786.15 136.465 785.5 135.665 785.06C134.865 784.6 133.975 784.37 132.995 784.37C132.155 784.37 131.355 784.62 130.595 785.12C129.835 785.62 129.225 786.3 128.765 787.16C128.305 788.02 128.075 789 128.075 790.1C128.075 791.2 128.305 792.18 128.765 793.04C129.225 793.9 129.835 794.58 130.595 795.08C131.355 795.58 132.155 795.83 132.995 795.83C133.975 795.83 134.865 795.61 135.665 795.17C136.465 794.71 137.105 794.05 137.585 793.19C138.065 792.33 138.305 791.3 138.305 790.1ZM144.584 790.43V788.96H154.664V790.43H144.584ZM153.704 783.2H155.264V797H153.704V783.2ZM143.654 783.2H145.214V797H143.654V783.2ZM159.678 790.49V789.14H169.938C169.938 788.2 169.738 787.37 169.338 786.65C168.938 785.91 168.388 785.33 167.688 784.91C167.008 784.49 166.218 784.28 165.318 784.28C164.418 784.28 163.588 784.49 162.828 784.91C162.068 785.33 161.458 785.94 160.998 786.74C160.538 787.52 160.308 788.45 160.308 789.53L160.278 790.07C160.278 791.23 160.488 792.25 160.908 793.13C161.328 793.99 161.908 794.66 162.648 795.14C163.408 795.6 164.278 795.83 165.258 795.83C166.138 795.83 166.878 795.7 167.478 795.44C168.098 795.16 168.618 794.81 169.038 794.39C169.478 793.95 169.848 793.48 170.148 792.98L171.408 793.79C171.008 794.41 170.548 794.99 170.028 795.53C169.508 796.05 168.858 796.48 168.078 796.82C167.298 797.14 166.298 797.3 165.078 797.3C163.878 797.3 162.788 796.99 161.808 796.37C160.848 795.75 160.088 794.89 159.528 793.79C158.968 792.69 158.688 791.45 158.688 790.07C158.688 789.75 158.698 789.45 158.718 789.17C158.758 788.87 158.808 788.57 158.868 788.27C159.108 787.21 159.518 786.28 160.098 785.48C160.678 784.66 161.418 784.03 162.318 783.59C163.218 783.13 164.218 782.9 165.318 782.9C166.518 782.9 167.598 783.19 168.558 783.77C169.518 784.33 170.268 785.12 170.808 786.14C171.368 787.16 171.648 788.36 171.648 789.74C171.648 789.86 171.638 789.99 171.618 790.13C171.618 790.25 171.608 790.37 171.588 790.49H159.678ZM173.107 783.2H181.207V784.67H173.107V783.2ZM176.377 783.62H177.937V797H176.377V783.62ZM206.649 797L203.979 784.97L204.819 782.15L208.419 797H206.649ZM198.879 795.65L204.819 782.15L204.969 785.51L199.419 797.93L198.879 795.65ZM199.419 797.93L193.959 785.51L194.109 782.15L199.959 795.65L199.419 797.93ZM190.509 797L194.109 782.15L194.949 784.97L192.309 797H190.509ZM211.192 792.95C211.192 793.63 211.352 794.19 211.672 794.63C211.992 795.05 212.412 795.37 212.932 795.59C213.472 795.79 214.042 795.89 214.642 795.89C215.482 795.89 216.232 795.73 216.892 795.41C217.572 795.09 218.102 794.63 218.482 794.03C218.862 793.43 219.052 792.7 219.052 791.84L219.412 792.74C219.412 793.62 219.182 794.41 218.722 795.11C218.282 795.79 217.672 796.33 216.892 796.73C216.132 797.11 215.262 797.3 214.282 797.3C213.462 797.3 212.692 797.15 211.972 796.85C211.272 796.53 210.702 796.06 210.262 795.44C209.822 794.8 209.602 793.99 209.602 793.01C209.602 792.03 209.852 791.21 210.352 790.55C210.852 789.87 211.532 789.36 212.392 789.02C213.252 788.66 214.222 788.48 215.302 788.48C216.142 788.48 216.852 788.58 217.432 788.78C218.032 788.98 218.512 789.21 218.872 789.47C219.252 789.73 219.522 789.95 219.682 790.13V791.09C219.122 790.67 218.492 790.34 217.792 790.1C217.112 789.84 216.302 789.71 215.362 789.71C214.562 789.71 213.842 789.84 213.202 790.1C212.582 790.34 212.092 790.7 211.732 791.18C211.372 791.66 211.192 792.25 211.192 792.95ZM211.582 785.93L210.802 784.73C211.322 784.31 211.992 783.9 212.812 783.5C213.652 783.1 214.662 782.9 215.842 782.9C216.842 782.9 217.692 783.08 218.392 783.44C219.112 783.78 219.662 784.27 220.042 784.91C220.422 785.55 220.612 786.32 220.612 787.22V797H219.052V787.22C219.052 786.28 218.752 785.56 218.152 785.06C217.572 784.54 216.802 784.28 215.842 784.28C215.182 784.28 214.582 784.37 214.042 784.55C213.502 784.71 213.022 784.92 212.602 785.18C212.202 785.44 211.862 785.69 211.582 785.93ZM225.543 783.2H232.533V784.67H227.103V797H225.543V783.2ZM235.303 792.95C235.303 793.63 235.463 794.19 235.783 794.63C236.103 795.05 236.523 795.37 237.043 795.59C237.583 795.79 238.153 795.89 238.753 795.89C239.593 795.89 240.343 795.73 241.003 795.41C241.683 795.09 242.213 794.63 242.593 794.03C242.973 793.43 243.163 792.7 243.163 791.84L243.523 792.74C243.523 793.62 243.293 794.41 242.833 795.11C242.393 795.79 241.783 796.33 241.003 796.73C240.243 797.11 239.373 797.3 238.393 797.3C237.573 797.3 236.803 797.15 236.083 796.85C235.383 796.53 234.813 796.06 234.373 795.44C233.933 794.8 233.713 793.99 233.713 793.01C233.713 792.03 233.963 791.21 234.463 790.55C234.963 789.87 235.643 789.36 236.503 789.02C237.363 788.66 238.333 788.48 239.413 788.48C240.253 788.48 240.963 788.58 241.543 788.78C242.143 788.98 242.623 789.21 242.983 789.47C243.363 789.73 243.633 789.95 243.793 790.13V791.09C243.233 790.67 242.603 790.34 241.903 790.1C241.223 789.84 240.413 789.71 239.473 789.71C238.673 789.71 237.953 789.84 237.313 790.1C236.693 790.34 236.203 790.7 235.843 791.18C235.483 791.66 235.303 792.25 235.303 792.95ZM235.693 785.93L234.913 784.73C235.433 784.31 236.103 783.9 236.923 783.5C237.763 783.1 238.773 782.9 239.953 782.9C240.953 782.9 241.803 783.08 242.503 783.44C243.223 783.78 243.773 784.27 244.153 784.91C244.533 785.55 244.723 786.32 244.723 787.22V797H243.163V787.22C243.163 786.28 242.863 785.56 242.263 785.06C241.683 784.54 240.913 784.28 239.953 784.28C239.293 784.28 238.693 784.37 238.153 784.55C237.613 784.71 237.133 784.92 236.713 785.18C236.313 785.44 235.973 785.69 235.693 785.93ZM254.574 789.95V788.96C255.674 788.96 256.504 788.75 257.064 788.33C257.624 787.89 257.904 787.33 257.904 786.65C257.904 785.93 257.614 785.36 257.034 784.94C256.474 784.52 255.734 784.31 254.814 784.31C254.094 784.31 253.474 784.45 252.954 784.73C252.434 785.01 252.034 785.37 251.754 785.81C251.494 786.23 251.364 786.66 251.364 787.1H249.774C249.774 786.34 249.994 785.64 250.434 785C250.894 784.36 251.504 783.85 252.264 783.47C253.044 783.09 253.904 782.9 254.844 782.9C255.724 782.9 256.514 783.06 257.214 783.38C257.914 783.7 258.464 784.13 258.864 784.67C259.284 785.21 259.494 785.83 259.494 786.53C259.494 787.53 259.064 788.35 258.204 788.99C257.364 789.63 256.154 789.95 254.574 789.95ZM254.754 797.3C253.134 797.3 251.824 796.86 250.824 795.98C249.824 795.1 249.244 793.99 249.084 792.65H250.674C250.814 793.53 251.214 794.3 251.874 794.96C252.534 795.6 253.494 795.92 254.754 795.92C255.454 795.92 256.084 795.81 256.644 795.59C257.224 795.37 257.684 795.05 258.024 794.63C258.384 794.21 258.564 793.69 258.564 793.07C258.564 792.45 258.394 791.94 258.054 791.54C257.714 791.14 257.244 790.84 256.644 790.64C256.044 790.44 255.354 790.34 254.574 790.34V789.35C256.314 789.35 257.664 789.66 258.624 790.28C259.604 790.88 260.094 791.8 260.094 793.04C260.094 793.94 259.844 794.71 259.344 795.35C258.864 795.99 258.214 796.48 257.394 796.82C256.574 797.14 255.694 797.3 254.754 797.3ZM274.394 784.55L263.834 798.05L263.984 795.65L274.544 782.15L274.394 784.55ZM265.394 783.2V795.83L263.834 798.05V783.2H265.394ZM274.544 782.15V797H272.984V784.37L274.544 782.15ZM280.112 790.43V788.96H290.192V790.43H280.112ZM289.232 783.2H290.792V797H289.232V783.2ZM279.182 783.2H280.742V797H279.182V783.2ZM306.005 784.55L295.445 798.05L295.595 795.65L306.155 782.15L306.005 784.55ZM297.005 783.2V795.83L295.445 798.05V783.2H297.005ZM306.155 782.15V797H304.595V784.37L306.155 782.15Z" fill="#D9D9D9"/>
<path d="M79.2978 511.96V510.4H83.5878C84.9478 510.4 86.1578 510.66 87.2178 511.18C88.2978 511.68 89.1478 512.4 89.7678 513.34C90.4078 514.28 90.7278 515.4 90.7278 516.7C90.7278 517.98 90.4078 519.1 89.7678 520.06C89.1478 521 88.2978 521.73 87.2178 522.25C86.1578 522.75 84.9478 523 83.5878 523H79.2978V521.44H83.5878C84.6478 521.44 85.5878 521.26 86.4078 520.9C87.2478 520.52 87.8978 519.98 88.3578 519.28C88.8378 518.56 89.0778 517.7 89.0778 516.7C89.0778 515.7 88.8378 514.85 88.3578 514.15C87.8978 513.43 87.2478 512.89 86.4078 512.53C85.5878 512.15 84.6478 511.96 83.5878 511.96H79.2978ZM78.3678 502H89.1378V503.56H80.0178V523H78.3678V502ZM94.5446 518.95C94.5446 519.63 94.7046 520.19 95.0246 520.63C95.3446 521.05 95.7646 521.37 96.2846 521.59C96.8246 521.79 97.3946 521.89 97.9946 521.89C98.8346 521.89 99.5846 521.73 100.245 521.41C100.925 521.09 101.455 520.63 101.835 520.03C102.215 519.43 102.405 518.7 102.405 517.84L102.765 518.74C102.765 519.62 102.535 520.41 102.075 521.11C101.635 521.79 101.025 522.33 100.245 522.73C99.4846 523.11 98.6146 523.3 97.6346 523.3C96.8146 523.3 96.0446 523.15 95.3246 522.85C94.6246 522.53 94.0546 522.06 93.6146 521.44C93.1746 520.8 92.9546 519.99 92.9546 519.01C92.9546 518.03 93.2046 517.21 93.7046 516.55C94.2046 515.87 94.8846 515.36 95.7446 515.02C96.6046 514.66 97.5746 514.48 98.6546 514.48C99.4946 514.48 100.205 514.58 100.785 514.78C101.385 514.98 101.865 515.21 102.225 515.47C102.605 515.73 102.875 515.95 103.035 516.13V517.09C102.475 516.67 101.845 516.34 101.145 516.1C100.465 515.84 99.6546 515.71 98.7146 515.71C97.9146 515.71 97.1946 515.84 96.5546 516.1C95.9346 516.34 95.4446 516.7 95.0846 517.18C94.7246 517.66 94.5446 518.25 94.5446 518.95ZM94.9346 511.93L94.1546 510.73C94.6746 510.31 95.3446 509.9 96.1646 509.5C97.0046 509.1 98.0146 508.9 99.1946 508.9C100.195 508.9 101.045 509.08 101.745 509.44C102.465 509.78 103.015 510.27 103.395 510.91C103.775 511.55 103.965 512.32 103.965 513.22V523H102.405V513.22C102.405 512.28 102.105 511.56 101.505 511.06C100.925 510.54 100.155 510.28 99.1946 510.28C98.5346 510.28 97.9346 510.37 97.3946 510.55C96.8546 510.71 96.3746 510.92 95.9546 511.18C95.5546 511.44 95.2146 511.69 94.9346 511.93ZM108.895 509.2H115.885V510.67H110.455V523H108.895V509.2ZM118.656 518.95C118.656 519.63 118.816 520.19 119.136 520.63C119.456 521.05 119.876 521.37 120.396 521.59C120.936 521.79 121.506 521.89 122.106 521.89C122.946 521.89 123.696 521.73 124.356 521.41C125.036 521.09 125.566 520.63 125.946 520.03C126.326 519.43 126.516 518.7 126.516 517.84L126.876 518.74C126.876 519.62 126.646 520.41 126.186 521.11C125.746 521.79 125.136 522.33 124.356 522.73C123.596 523.11 122.726 523.3 121.746 523.3C120.926 523.3 120.156 523.15 119.436 522.85C118.736 522.53 118.166 522.06 117.726 521.44C117.286 520.8 117.066 519.99 117.066 519.01C117.066 518.03 117.316 517.21 117.816 516.55C118.316 515.87 118.996 515.36 119.856 515.02C120.716 514.66 121.686 514.48 122.766 514.48C123.606 514.48 124.316 514.58 124.896 514.78C125.496 514.98 125.976 515.21 126.336 515.47C126.716 515.73 126.986 515.95 127.146 516.13V517.09C126.586 516.67 125.956 516.34 125.256 516.1C124.576 515.84 123.766 515.71 122.826 515.71C122.026 515.71 121.306 515.84 120.666 516.1C120.046 516.34 119.556 516.7 119.196 517.18C118.836 517.66 118.656 518.25 118.656 518.95ZM119.046 511.93L118.266 510.73C118.786 510.31 119.456 509.9 120.276 509.5C121.116 509.1 122.126 508.9 123.306 508.9C124.306 508.9 125.156 509.08 125.856 509.44C126.576 509.78 127.126 510.27 127.506 510.91C127.886 511.55 128.076 512.32 128.076 513.22V523H126.516V513.22C126.516 512.28 126.216 511.56 125.616 511.06C125.036 510.54 124.266 510.28 123.306 510.28C122.646 510.28 122.046 510.37 121.506 510.55C120.966 510.71 120.486 510.92 120.066 511.18C119.666 511.44 119.326 511.69 119.046 511.93ZM130.756 509.2H138.856V510.67H130.756V509.2ZM134.026 509.62H135.586V523H134.026V509.62ZM139.745 516.1C139.745 514.7 140.055 513.46 140.675 512.38C141.295 511.3 142.135 510.45 143.195 509.83C144.275 509.21 145.485 508.9 146.825 508.9C148.165 508.9 149.365 509.21 150.425 509.83C151.505 510.45 152.355 511.3 152.975 512.38C153.595 513.46 153.905 514.7 153.905 516.1C153.905 517.48 153.595 518.72 152.975 519.82C152.355 520.9 151.505 521.75 150.425 522.37C149.365 522.99 148.165 523.3 146.825 523.3C145.485 523.3 144.275 522.99 143.195 522.37C142.135 521.75 141.295 520.9 140.675 519.82C140.055 518.72 139.745 517.48 139.745 516.1ZM141.335 516.1C141.335 517.22 141.575 518.21 142.055 519.07C142.535 519.93 143.185 520.61 144.005 521.11C144.845 521.59 145.785 521.83 146.825 521.83C147.865 521.83 148.795 521.59 149.615 521.11C150.455 520.61 151.115 519.93 151.595 519.07C152.075 518.21 152.315 517.22 152.315 516.1C152.315 515 152.075 514.02 151.595 513.16C151.115 512.28 150.455 511.6 149.615 511.12C148.795 510.62 147.865 510.37 146.825 510.37C145.785 510.37 144.845 510.62 144.005 511.12C143.185 511.6 142.535 512.27 142.055 513.13C141.575 513.99 141.335 514.98 141.335 516.1ZM157.562 516.1C157.562 517.22 157.802 518.21 158.282 519.07C158.762 519.93 159.412 520.61 160.232 521.11C161.072 521.59 162.012 521.83 163.052 521.83C163.792 521.83 164.482 521.72 165.122 521.5C165.762 521.28 166.312 521 166.772 520.66C167.252 520.3 167.592 519.94 167.792 519.58V521.53C167.372 522.03 166.722 522.45 165.842 522.79C164.982 523.13 164.052 523.3 163.052 523.3C161.712 523.3 160.512 522.99 159.452 522.37C158.392 521.75 157.542 520.9 156.902 519.82C156.282 518.72 155.972 517.48 155.972 516.1C155.972 514.7 156.282 513.46 156.902 512.38C157.542 511.3 158.392 510.45 159.452 509.83C160.512 509.21 161.712 508.9 163.052 508.9C164.052 508.9 164.982 509.08 165.842 509.44C166.722 509.78 167.372 510.19 167.792 510.67V512.62C167.592 512.24 167.252 511.88 166.772 511.54C166.312 511.2 165.762 510.92 165.122 510.7C164.482 510.48 163.792 510.37 163.052 510.37C162.012 510.37 161.072 510.62 160.232 511.12C159.412 511.6 158.762 512.27 158.282 513.13C157.802 513.99 157.562 514.98 157.562 516.1ZM169.428 509.2H177.528V510.67H169.428V509.2ZM172.698 509.62H174.258V523H172.698V509.62ZM178.417 516.1C178.417 514.7 178.727 513.46 179.347 512.38C179.967 511.3 180.807 510.45 181.867 509.83C182.947 509.21 184.157 508.9 185.497 508.9C186.837 508.9 188.037 509.21 189.097 509.83C190.177 510.45 191.027 511.3 191.647 512.38C192.267 513.46 192.577 514.7 192.577 516.1C192.577 517.48 192.267 518.72 191.647 519.82C191.027 520.9 190.177 521.75 189.097 522.37C188.037 522.99 186.837 523.3 185.497 523.3C184.157 523.3 182.947 522.99 181.867 522.37C180.807 521.75 179.967 520.9 179.347 519.82C178.727 518.72 178.417 517.48 178.417 516.1ZM180.007 516.1C180.007 517.22 180.247 518.21 180.727 519.07C181.207 519.93 181.857 520.61 182.677 521.11C183.517 521.59 184.457 521.83 185.497 521.83C186.537 521.83 187.467 521.59 188.287 521.11C189.127 520.61 189.787 519.93 190.267 519.07C190.747 518.21 190.987 517.22 190.987 516.1C190.987 515 190.747 514.02 190.267 513.16C189.787 512.28 189.127 511.6 188.287 511.12C187.467 510.62 186.537 510.37 185.497 510.37C184.457 510.37 183.517 510.62 182.677 511.12C181.857 511.6 181.207 512.27 180.727 513.13C180.247 513.99 180.007 514.98 180.007 516.1ZM197.404 529.6H195.844V509.2H197.404V529.6ZM209.194 516.1C209.194 517.58 208.894 518.86 208.294 519.94C207.714 521.02 206.914 521.85 205.894 522.43C204.894 523.01 203.774 523.3 202.534 523.3C201.374 523.3 200.354 522.99 199.474 522.37C198.594 521.73 197.904 520.87 197.404 519.79C196.924 518.69 196.684 517.46 196.684 516.1C196.684 514.72 196.924 513.49 197.404 512.41C197.904 511.33 198.594 510.48 199.474 509.86C200.354 509.22 201.374 508.9 202.534 508.9C203.774 508.9 204.894 509.19 205.894 509.77C206.914 510.35 207.714 511.18 208.294 512.26C208.894 513.32 209.194 514.6 209.194 516.1ZM207.634 516.1C207.634 514.9 207.394 513.87 206.914 513.01C206.434 512.15 205.794 511.5 204.994 511.06C204.194 510.6 203.304 510.37 202.324 510.37C201.484 510.37 200.684 510.62 199.924 511.12C199.164 511.62 198.554 512.3 198.094 513.16C197.634 514.02 197.404 515 197.404 516.1C197.404 517.2 197.634 518.18 198.094 519.04C198.554 519.9 199.164 520.58 199.924 521.08C200.684 521.58 201.484 521.83 202.324 521.83C203.304 521.83 204.194 521.61 204.994 521.17C205.794 520.71 206.434 520.05 206.914 519.19C207.394 518.33 207.634 517.3 207.634 516.1ZM215.053 507.04V523H213.373V507.04H215.053ZM214.213 501.13C214.593 501.13 214.883 501.25 215.083 501.49C215.283 501.71 215.383 502.02 215.383 502.42C215.383 502.84 215.283 503.17 215.083 503.41C214.883 503.63 214.593 503.74 214.213 503.74C213.853 503.74 213.573 503.63 213.373 503.41C213.173 503.17 213.073 502.84 213.073 502.42C213.073 502.02 213.173 501.71 213.373 501.49C213.573 501.25 213.853 501.13 214.213 501.13ZM220.886 516.43V514.96H230.966V516.43H220.886ZM230.006 509.2H231.566V523H230.006V509.2ZM219.956 509.2H221.516V523H219.956V509.2ZM236.039 509.2H237.599V523H236.039V509.2ZM243.509 509.2H245.519L239.009 514.9L246.089 523H244.109L237.029 514.9L243.509 509.2ZM247.763 516.1C247.763 514.7 248.073 513.46 248.693 512.38C249.313 511.3 250.153 510.45 251.213 509.83C252.293 509.21 253.503 508.9 254.843 508.9C256.183 508.9 257.383 509.21 258.443 509.83C259.523 510.45 260.373 511.3 260.993 512.38C261.613 513.46 261.923 514.7 261.923 516.1C261.923 517.48 261.613 518.72 260.993 519.82C260.373 520.9 259.523 521.75 258.443 522.37C257.383 522.99 256.183 523.3 254.843 523.3C253.503 523.3 252.293 522.99 251.213 522.37C250.153 521.75 249.313 520.9 248.693 519.82C248.073 518.72 247.763 517.48 247.763 516.1ZM249.353 516.1C249.353 517.22 249.593 518.21 250.073 519.07C250.553 519.93 251.203 520.61 252.023 521.11C252.863 521.59 253.803 521.83 254.843 521.83C255.883 521.83 256.813 521.59 257.633 521.11C258.473 520.61 259.133 519.93 259.613 519.07C260.093 518.21 260.333 517.22 260.333 516.1C260.333 515 260.093 514.02 259.613 513.16C259.133 512.28 258.473 511.6 257.633 511.12C256.813 510.62 255.883 510.37 254.843 510.37C253.803 510.37 252.863 510.62 252.023 511.12C251.203 511.6 250.553 512.27 250.073 513.13C249.593 513.99 249.353 514.98 249.353 516.1ZM266.12 515.92H270.11C271.07 515.92 271.93 516.01 272.69 516.19C273.45 516.37 274.05 516.7 274.49 517.18C274.93 517.66 275.15 518.35 275.15 519.25C275.15 520.29 274.8 521.18 274.1 521.92C273.42 522.64 272.29 523 270.71 523H266.12V521.62H270.35C271.49 521.62 272.31 521.37 272.81 520.87C273.33 520.37 273.59 519.77 273.59 519.07C273.59 518.61 273.49 518.24 273.29 517.96C273.11 517.66 272.86 517.42 272.54 517.24C272.22 517.06 271.85 516.93 271.43 516.85C271.01 516.77 270.57 516.73 270.11 516.73H266.12V515.92ZM266.12 516.28V515.38H269.81C270.17 515.38 270.54 515.34 270.92 515.26C271.3 515.18 271.64 515.04 271.94 514.84C272.26 514.64 272.51 514.4 272.69 514.12C272.89 513.82 272.99 513.46 272.99 513.04C272.99 512.24 272.69 511.63 272.09 511.21C271.51 510.79 270.75 510.58 269.81 510.58H266.12V509.2H269.81C270.67 509.2 271.45 509.33 272.15 509.59C272.87 509.83 273.45 510.23 273.89 510.79C274.33 511.33 274.55 512.05 274.55 512.95C274.55 513.73 274.33 514.37 273.89 514.87C273.45 515.35 272.87 515.71 272.15 515.95C271.45 516.17 270.67 516.28 269.81 516.28H266.12ZM265.22 509.2H266.78V523H265.22V509.2ZM288.996 510.55L278.436 524.05L278.586 521.65L289.146 508.15L288.996 510.55ZM279.996 509.2V521.83L278.436 524.05V509.2H279.996ZM289.146 508.15V523H287.586V510.37L289.146 508.15ZM304.494 510.55L293.934 524.05L294.084 521.65L304.644 508.15L304.494 510.55ZM295.494 509.2V521.83L293.934 524.05V509.2H295.494ZM304.644 508.15V523H303.084V510.37L304.644 508.15ZM294.564 502.15H295.974C295.974 502.57 296.084 503.01 296.304 503.47C296.524 503.91 296.884 504.29 297.384 504.61C297.884 504.91 298.524 505.06 299.304 505.06C300.084 505.06 300.724 504.91 301.224 504.61C301.724 504.29 302.084 503.91 302.304 503.47C302.524 503.01 302.634 502.57 302.634 502.15H304.044C304.044 502.83 303.864 503.5 303.504 504.16C303.164 504.8 302.644 505.33 301.944 505.75C301.244 506.15 300.364 506.35 299.304 506.35C298.264 506.35 297.384 506.15 296.664 505.75C295.964 505.33 295.434 504.8 295.074 504.16C294.734 503.5 294.564 502.83 294.564 502.15Z" fill="#D9D9D9"/>
<path d="M106.847 435.12L107.807 428.08C109.353 428.027 110.9 427.76 112.447 427.28C114.047 426.747 115.407 426.053 116.527 425.2C117.647 424.293 118.287 423.173 118.447 421.84C118.5 421.147 118.367 420.56 118.047 420.08C117.727 419.547 117.247 419.147 116.607 418.88C116.02 418.613 115.273 418.453 114.367 418.4C113.193 418.4 112.127 418.667 111.167 419.2C110.26 419.68 109.487 420.347 108.847 421.2C108.26 422 107.833 422.907 107.567 423.92L91.7266 423.84C92.3666 420.16 93.7532 416.907 95.8866 414.08C98.0732 411.2 100.847 408.933 104.207 407.28C107.62 405.627 111.46 404.8 115.727 404.8C119.673 404.8 123.22 405.44 126.367 406.72C129.513 407.947 131.94 409.76 133.647 412.16C135.353 414.56 135.967 417.413 135.487 420.72C135.06 423.707 133.94 426.133 132.127 428C130.313 429.867 128.047 431.333 125.327 432.4C122.607 433.413 119.647 434.133 116.447 434.56C113.247 434.933 110.047 435.12 106.847 435.12ZM106.847 463.6C102.207 463.547 98.2866 462.56 95.0866 460.64C91.9399 458.667 89.5932 456.08 88.0466 452.88C86.5532 449.68 85.9666 446.187 86.2866 442.4H103.087C102.98 443.947 103.14 445.28 103.567 446.4C103.993 447.52 104.633 448.373 105.487 448.96C106.393 449.547 107.513 449.867 108.847 449.92C110.02 449.973 111.14 449.84 112.207 449.52C113.273 449.147 114.18 448.56 114.927 447.76C115.673 446.96 116.153 445.947 116.367 444.72C116.58 443.6 116.473 442.667 116.047 441.92C115.673 441.12 115.007 440.48 114.047 440C113.14 439.467 112.02 439.093 110.687 438.88C109.407 438.613 107.993 438.453 106.447 438.4L107.567 430.08C110.927 430.133 114.207 430.427 117.407 430.96C120.66 431.493 123.513 432.373 125.967 433.6C128.473 434.827 130.367 436.48 131.647 438.56C132.98 440.64 133.433 443.253 133.007 446.4C132.527 450.08 131.06 453.2 128.607 455.76C126.153 458.32 123.033 460.267 119.247 461.6C115.513 462.933 111.38 463.6 106.847 463.6ZM155.605 434C155.445 435.227 155.339 436.507 155.285 437.84C155.232 439.173 155.259 440.453 155.365 441.68C155.472 442.907 155.712 444.027 156.085 445.04C156.459 446 156.965 446.8 157.605 447.44C158.299 448.027 159.205 448.32 160.325 448.32C161.765 448.373 163.072 448 164.245 447.2C165.419 446.4 166.459 445.307 167.365 443.92C168.272 442.533 169.019 440.987 169.605 439.28C170.245 437.52 170.672 435.76 170.885 434C170.992 432.773 171.072 431.493 171.125 430.16C171.179 428.827 171.152 427.547 171.045 426.32C170.939 425.093 170.699 424 170.325 423.04C170.005 422.027 169.499 421.227 168.805 420.64C168.112 420 167.232 419.653 166.165 419.6C164.725 419.6 163.392 420 162.165 420.8C160.992 421.6 159.952 422.693 159.045 424.08C158.139 425.467 157.392 427.04 156.805 428.8C156.219 430.507 155.819 432.24 155.605 434ZM139.045 434C139.632 429.787 140.699 425.92 142.245 422.4C143.845 418.827 145.899 415.733 148.405 413.12C150.912 410.507 153.792 408.48 157.045 407.04C160.299 405.547 163.872 404.8 167.765 404.8C170.965 404.8 173.765 405.307 176.165 406.32C178.565 407.28 180.565 408.667 182.165 410.48C183.819 412.24 185.099 414.347 186.005 416.8C186.912 419.253 187.472 421.947 187.685 424.88C187.952 427.76 187.872 430.8 187.445 434C186.859 438.213 185.792 442.107 184.245 445.68C182.699 449.2 180.699 452.293 178.245 454.96C175.792 457.573 172.912 459.6 169.605 461.04C166.352 462.48 162.725 463.2 158.725 463.2C155.579 463.2 152.805 462.72 150.405 461.76C148.059 460.747 146.059 459.333 144.405 457.52C142.805 455.707 141.525 453.6 140.565 451.2C139.659 448.747 139.072 446.08 138.805 443.2C138.539 440.267 138.619 437.2 139.045 434ZM209.902 434C209.742 435.227 209.636 436.507 209.582 437.84C209.529 439.173 209.556 440.453 209.662 441.68C209.769 442.907 210.009 444.027 210.382 445.04C210.756 446 211.262 446.8 211.902 447.44C212.596 448.027 213.502 448.32 214.622 448.32C216.062 448.373 217.369 448 218.542 447.2C219.716 446.4 220.756 445.307 221.662 443.92C222.569 442.533 223.316 440.987 223.902 439.28C224.542 437.52 224.969 435.76 225.182 434C225.289 432.773 225.369 431.493 225.422 430.16C225.476 428.827 225.449 427.547 225.342 426.32C225.236 425.093 224.996 424 224.622 423.04C224.302 422.027 223.796 421.227 223.102 420.64C222.409 420 221.529 419.653 220.462 419.6C219.022 419.6 217.689 420 216.462 420.8C215.289 421.6 214.249 422.693 213.342 424.08C212.436 425.467 211.689 427.04 211.102 428.8C210.516 430.507 210.116 432.24 209.902 434ZM193.342 434C193.929 429.787 194.996 425.92 196.542 422.4C198.142 418.827 200.196 415.733 202.702 413.12C205.209 410.507 208.089 408.48 211.342 407.04C214.596 405.547 218.169 404.8 222.062 404.8C225.262 404.8 228.062 405.307 230.462 406.32C232.862 407.28 234.862 408.667 236.462 410.48C238.116 412.24 239.396 414.347 240.302 416.8C241.209 419.253 241.769 421.947 241.982 424.88C242.249 427.76 242.169 430.8 241.742 434C241.156 438.213 240.089 442.107 238.542 445.68C236.996 449.2 234.996 452.293 232.542 454.96C230.089 457.573 227.209 459.6 223.902 461.04C220.649 462.48 217.022 463.2 213.022 463.2C209.876 463.2 207.102 462.72 204.702 461.76C202.356 460.747 200.356 459.333 198.702 457.52C197.102 455.707 195.822 453.6 194.862 451.2C193.956 448.747 193.369 446.08 193.102 443.2C192.836 440.267 192.916 437.2 193.342 434ZM271.159 396.56H283.399L280.039 412.56H269.399L271.159 396.56ZM262.759 456.4H273.319L271.719 470.96H259.639L262.759 456.4ZM282.119 424C281.532 422.773 280.866 421.653 280.119 420.64C279.426 419.627 278.626 418.827 277.719 418.24C276.866 417.6 275.879 417.28 274.759 417.28C273.852 417.28 273.026 417.467 272.279 417.84C271.532 418.213 270.919 418.667 270.439 419.2C269.959 419.733 269.639 420.32 269.479 420.96C269.266 422.027 269.479 422.933 270.119 423.68C270.759 424.373 271.639 424.96 272.759 425.44C273.932 425.92 275.186 426.373 276.519 426.8C277.906 427.227 279.186 427.653 280.359 428.08C283.026 429.147 285.292 430.533 287.159 432.24C289.026 433.947 290.359 435.973 291.159 438.32C292.012 440.613 292.279 443.173 291.959 446C291.426 449.84 289.906 453.013 287.399 455.52C284.946 457.973 281.852 459.813 278.119 461.04C274.439 462.213 270.492 462.8 266.279 462.8C262.919 462.747 259.772 462.133 256.839 460.96C253.906 459.787 251.319 458.187 249.079 456.16C246.892 454.08 245.239 451.76 244.119 449.2L256.679 440.72C257.639 442.427 258.626 443.947 259.639 445.28C260.706 446.56 261.906 447.573 263.239 448.32C264.572 449.013 266.119 449.333 267.879 449.28C269.372 449.28 270.652 449.013 271.719 448.48C272.839 447.947 273.506 447.067 273.719 445.84C273.932 444.773 273.586 443.893 272.679 443.2C271.772 442.453 270.599 441.813 269.159 441.28C267.719 440.693 266.252 440.107 264.759 439.52C262.626 438.56 260.492 437.28 258.359 435.68C256.226 434.027 254.492 432 253.159 429.6C251.879 427.2 251.426 424.373 251.799 421.12C252.279 417.973 253.639 415.227 255.879 412.88C258.119 410.48 260.919 408.613 264.279 407.28C267.692 405.893 271.346 405.2 275.239 405.2C278.866 405.2 281.959 405.707 284.519 406.72C287.079 407.68 289.239 409.04 290.999 410.8C292.812 412.56 294.359 414.613 295.639 416.96L282.119 424Z" fill="#FF3100"/>
<path d="M78.6212 726.72L119.021 680H133.581L123.981 736H105.821L108.141 721.92L110.621 721.04L113.741 703.04L102.781 714.72H123.101L124.941 712H136.621L134.061 726.8L78.6212 726.72ZM160.551 708C160.391 709.227 160.284 710.507 160.231 711.84C160.177 713.173 160.204 714.453 160.311 715.68C160.417 716.907 160.657 718.027 161.031 719.04C161.404 720 161.911 720.8 162.551 721.44C163.244 722.027 164.151 722.32 165.271 722.32C166.711 722.373 168.017 722 169.191 721.2C170.364 720.4 171.404 719.307 172.311 717.92C173.217 716.533 173.964 714.987 174.551 713.28C175.191 711.52 175.617 709.76 175.831 708C175.937 706.773 176.017 705.493 176.071 704.16C176.124 702.827 176.097 701.547 175.991 700.32C175.884 699.093 175.644 698 175.271 697.04C174.951 696.027 174.444 695.227 173.751 694.64C173.057 694 172.177 693.653 171.111 693.6C169.671 693.6 168.337 694 167.111 694.8C165.937 695.6 164.897 696.693 163.991 698.08C163.084 699.467 162.337 701.04 161.751 702.8C161.164 704.507 160.764 706.24 160.551 708ZM143.991 708C144.577 703.787 145.644 699.92 147.191 696.4C148.791 692.827 150.844 689.733 153.351 687.12C155.857 684.507 158.737 682.48 161.991 681.04C165.244 679.547 168.817 678.8 172.711 678.8C175.911 678.8 178.711 679.307 181.111 680.32C183.511 681.28 185.511 682.667 187.111 684.48C188.764 686.24 190.044 688.347 190.951 690.8C191.857 693.253 192.417 695.947 192.631 698.88C192.897 701.76 192.817 704.8 192.391 708C191.804 712.213 190.737 716.107 189.191 719.68C187.644 723.2 185.644 726.293 183.191 728.96C180.737 731.573 177.857 733.6 174.551 735.04C171.297 736.48 167.671 737.2 163.671 737.2C160.524 737.2 157.751 736.72 155.351 735.76C153.004 734.747 151.004 733.333 149.351 731.52C147.751 729.707 146.471 727.6 145.511 725.2C144.604 722.747 144.017 720.08 143.751 717.2C143.484 714.267 143.564 711.2 143.991 708ZM214.848 708C214.688 709.227 214.581 710.507 214.528 711.84C214.474 713.173 214.501 714.453 214.608 715.68C214.714 716.907 214.954 718.027 215.328 719.04C215.701 720 216.208 720.8 216.848 721.44C217.541 722.027 218.448 722.32 219.568 722.32C221.008 722.373 222.314 722 223.488 721.2C224.661 720.4 225.701 719.307 226.608 717.92C227.514 716.533 228.261 714.987 228.848 713.28C229.488 711.52 229.914 709.76 230.128 708C230.234 706.773 230.314 705.493 230.368 704.16C230.421 702.827 230.394 701.547 230.288 700.32C230.181 699.093 229.941 698 229.568 697.04C229.248 696.027 228.741 695.227 228.048 694.64C227.354 694 226.474 693.653 225.408 693.6C223.968 693.6 222.634 694 221.408 694.8C220.234 695.6 219.194 696.693 218.288 698.08C217.381 699.467 216.634 701.04 216.048 702.8C215.461 704.507 215.061 706.24 214.848 708ZM198.288 708C198.874 703.787 199.941 699.92 201.488 696.4C203.088 692.827 205.141 689.733 207.648 687.12C210.154 684.507 213.034 682.48 216.288 681.04C219.541 679.547 223.114 678.8 227.008 678.8C230.208 678.8 233.008 679.307 235.408 680.32C237.808 681.28 239.808 682.667 241.408 684.48C243.061 686.24 244.341 688.347 245.248 690.8C246.154 693.253 246.714 695.947 246.928 698.88C247.194 701.76 247.114 704.8 246.688 708C246.101 712.213 245.034 716.107 243.488 719.68C241.941 723.2 239.941 726.293 237.488 728.96C235.034 731.573 232.154 733.6 228.848 735.04C225.594 736.48 221.968 737.2 217.968 737.2C214.821 737.2 212.048 736.72 209.648 735.76C207.301 734.747 205.301 733.333 203.648 731.52C202.048 729.707 200.768 727.6 199.808 725.2C198.901 722.747 198.314 720.08 198.048 717.2C197.781 714.267 197.861 711.2 198.288 708ZM276.104 670.56H288.344L284.984 686.56H274.344L276.104 670.56ZM267.704 730.4H278.264L276.664 744.96H264.584L267.704 730.4ZM287.064 698C286.478 696.773 285.811 695.653 285.064 694.64C284.371 693.627 283.571 692.827 282.664 692.24C281.811 691.6 280.824 691.28 279.704 691.28C278.798 691.28 277.971 691.467 277.224 691.84C276.478 692.213 275.864 692.667 275.384 693.2C274.904 693.733 274.584 694.32 274.424 694.96C274.211 696.027 274.424 696.933 275.064 697.68C275.704 698.373 276.584 698.96 277.704 699.44C278.878 699.92 280.131 700.373 281.464 700.8C282.851 701.227 284.131 701.653 285.304 702.08C287.971 703.147 290.238 704.533 292.104 706.24C293.971 707.947 295.304 709.973 296.104 712.32C296.958 714.613 297.224 717.173 296.904 720C296.371 723.84 294.851 727.013 292.344 729.52C289.891 731.973 286.798 733.813 283.064 735.04C279.384 736.213 275.438 736.8 271.224 736.8C267.864 736.747 264.718 736.133 261.784 734.96C258.851 733.787 256.264 732.187 254.024 730.16C251.838 728.08 250.184 725.76 249.064 723.2L261.624 714.72C262.584 716.427 263.571 717.947 264.584 719.28C265.651 720.56 266.851 721.573 268.184 722.32C269.518 723.013 271.064 723.333 272.824 723.28C274.318 723.28 275.598 723.013 276.664 722.48C277.784 721.947 278.451 721.067 278.664 719.84C278.878 718.773 278.531 717.893 277.624 717.2C276.718 716.453 275.544 715.813 274.104 715.28C272.664 714.693 271.198 714.107 269.704 713.52C267.571 712.56 265.438 711.28 263.304 709.68C261.171 708.027 259.438 706 258.104 703.6C256.824 701.2 256.371 698.373 256.744 695.12C257.224 691.973 258.584 689.227 260.824 686.88C263.064 684.48 265.864 682.613 269.224 681.28C272.638 679.893 276.291 679.2 280.184 679.2C283.811 679.2 286.904 679.707 289.464 680.72C292.024 681.68 294.184 683.04 295.944 684.8C297.758 686.56 299.304 688.613 300.584 690.96L287.064 698Z" fill="#FF3100"/>
<path d="M84.9741 141.36L87.6141 126.56L119.534 120.64L109.694 178H93.1341L99.9341 138.16L84.9741 141.36ZM140.918 150C140.758 151.227 140.651 152.507 140.598 153.84C140.544 155.173 140.571 156.453 140.678 157.68C140.784 158.907 141.024 160.027 141.398 161.04C141.771 162 142.278 162.8 142.918 163.44C143.611 164.027 144.518 164.32 145.638 164.32C147.078 164.373 148.384 164 149.558 163.2C150.731 162.4 151.771 161.307 152.678 159.92C153.584 158.533 154.331 156.987 154.918 155.28C155.558 153.52 155.984 151.76 156.198 150C156.304 148.773 156.384 147.493 156.438 146.16C156.491 144.827 156.464 143.547 156.358 142.32C156.251 141.093 156.011 140 155.638 139.04C155.318 138.027 154.811 137.227 154.118 136.64C153.424 136 152.544 135.653 151.478 135.6C150.038 135.6 148.704 136 147.478 136.8C146.304 137.6 145.264 138.693 144.358 140.08C143.451 141.467 142.704 143.04 142.118 144.8C141.531 146.507 141.131 148.24 140.918 150ZM124.358 150C124.944 145.787 126.011 141.92 127.558 138.4C129.158 134.827 131.211 131.733 133.718 129.12C136.224 126.507 139.104 124.48 142.358 123.04C145.611 121.547 149.184 120.8 153.078 120.8C156.278 120.8 159.078 121.307 161.478 122.32C163.878 123.28 165.878 124.667 167.478 126.48C169.131 128.24 170.411 130.347 171.318 132.8C172.224 135.253 172.784 137.947 172.998 140.88C173.264 143.76 173.184 146.8 172.758 150C172.171 154.213 171.104 158.107 169.558 161.68C168.011 165.2 166.011 168.293 163.558 170.96C161.104 173.573 158.224 175.6 154.918 177.04C151.664 178.48 148.038 179.2 144.038 179.2C140.891 179.2 138.118 178.72 135.718 177.76C133.371 176.747 131.371 175.333 129.718 173.52C128.118 171.707 126.838 169.6 125.878 167.2C124.971 164.747 124.384 162.08 124.118 159.2C123.851 156.267 123.931 153.2 124.358 150ZM195.215 150C195.055 151.227 194.948 152.507 194.895 153.84C194.841 155.173 194.868 156.453 194.975 157.68C195.081 158.907 195.321 160.027 195.695 161.04C196.068 162 196.575 162.8 197.215 163.44C197.908 164.027 198.815 164.32 199.935 164.32C201.375 164.373 202.681 164 203.855 163.2C205.028 162.4 206.068 161.307 206.975 159.92C207.881 158.533 208.628 156.987 209.215 155.28C209.855 153.52 210.281 151.76 210.495 150C210.601 148.773 210.681 147.493 210.735 146.16C210.788 144.827 210.761 143.547 210.655 142.32C210.548 141.093 210.308 140 209.935 139.04C209.615 138.027 209.108 137.227 208.415 136.64C207.721 136 206.841 135.653 205.775 135.6C204.335 135.6 203.001 136 201.775 136.8C200.601 137.6 199.561 138.693 198.655 140.08C197.748 141.467 197.001 143.04 196.415 144.8C195.828 146.507 195.428 148.24 195.215 150ZM178.655 150C179.241 145.787 180.308 141.92 181.855 138.4C183.455 134.827 185.508 131.733 188.015 129.12C190.521 126.507 193.401 124.48 196.655 123.04C199.908 121.547 203.481 120.8 207.375 120.8C210.575 120.8 213.375 121.307 215.775 122.32C218.175 123.28 220.175 124.667 221.775 126.48C223.428 128.24 224.708 130.347 225.615 132.8C226.521 135.253 227.081 137.947 227.295 140.88C227.561 143.76 227.481 146.8 227.055 150C226.468 154.213 225.401 158.107 223.855 161.68C222.308 165.2 220.308 168.293 217.855 170.96C215.401 173.573 212.521 175.6 209.215 177.04C205.961 178.48 202.335 179.2 198.335 179.2C195.188 179.2 192.415 178.72 190.015 177.76C187.668 176.747 185.668 175.333 184.015 173.52C182.415 171.707 181.135 169.6 180.175 167.2C179.268 164.747 178.681 162.08 178.415 159.2C178.148 156.267 178.228 153.2 178.655 150ZM256.472 112.56H268.712L265.352 128.56H254.712L256.472 112.56ZM248.072 172.4H258.632L257.032 186.96H244.952L248.072 172.4ZM267.432 140C266.845 138.773 266.178 137.653 265.432 136.64C264.738 135.627 263.938 134.827 263.032 134.24C262.178 133.6 261.192 133.28 260.072 133.28C259.165 133.28 258.338 133.467 257.592 133.84C256.845 134.213 256.232 134.667 255.752 135.2C255.272 135.733 254.952 136.32 254.792 136.96C254.578 138.027 254.792 138.933 255.432 139.68C256.072 140.373 256.952 140.96 258.072 141.44C259.245 141.92 260.498 142.373 261.832 142.8C263.218 143.227 264.498 143.653 265.672 144.08C268.338 145.147 270.605 146.533 272.472 148.24C274.338 149.947 275.672 151.973 276.472 154.32C277.325 156.613 277.592 159.173 277.272 162C276.738 165.84 275.218 169.013 272.712 171.52C270.258 173.973 267.165 175.813 263.432 177.04C259.752 178.213 255.805 178.8 251.592 178.8C248.232 178.747 245.085 178.133 242.152 176.96C239.218 175.787 236.632 174.187 234.392 172.16C232.205 170.08 230.552 167.76 229.432 165.2L241.992 156.72C242.952 158.427 243.938 159.947 244.952 161.28C246.018 162.56 247.218 163.573 248.552 164.32C249.885 165.013 251.432 165.333 253.192 165.28C254.685 165.28 255.965 165.013 257.032 164.48C258.152 163.947 258.818 163.067 259.032 161.84C259.245 160.773 258.898 159.893 257.992 159.2C257.085 158.453 255.912 157.813 254.472 157.28C253.032 156.693 251.565 156.107 250.072 155.52C247.938 154.56 245.805 153.28 243.672 151.68C241.538 150.027 239.805 148 238.472 145.6C237.192 143.2 236.738 140.373 237.112 137.12C237.592 133.973 238.952 131.227 241.192 128.88C243.432 126.48 246.232 124.613 249.592 123.28C253.005 121.893 256.658 121.2 260.552 121.2C264.178 121.2 267.272 121.707 269.832 122.72C272.392 123.68 274.552 125.04 276.312 126.8C278.125 128.56 279.672 130.613 280.952 132.96L267.432 140Z" fill="#FF3100"/>
<path d="M166.731 82.8H171.381C172.221 82.8 173.011 82.91 173.751 83.13C174.491 83.33 175.061 83.68 175.461 84.18C175.881 84.68 176.041 85.38 175.941 86.28C175.801 87.38 175.301 88.28 174.441 88.98C173.601 89.66 172.501 90 171.141 90H165.501L166.041 87.15H169.761C170.281 87.15 170.731 87.02 171.111 86.76C171.491 86.48 171.721 86.14 171.801 85.74C171.841 85.56 171.831 85.39 171.771 85.23C171.731 85.07 171.651 84.93 171.531 84.81C171.431 84.69 171.291 84.6 171.111 84.54C170.931 84.48 170.721 84.44 170.481 84.42L166.521 84.39L166.731 82.8ZM166.701 83.37L166.941 81.63H170.451C170.731 81.63 170.991 81.58 171.231 81.48C171.471 81.36 171.671 81.2 171.831 81C172.011 80.78 172.121 80.54 172.161 80.28C172.201 80.06 172.181 79.86 172.101 79.68C172.021 79.5 171.891 79.35 171.711 79.23C171.551 79.11 171.351 79.05 171.111 79.05L167.361 79.02L167.871 76.2H172.221C173.001 76.22 173.731 76.36 174.411 76.62C175.111 76.88 175.651 77.29 176.031 77.85C176.431 78.39 176.571 79.1 176.451 79.98C176.331 80.76 176.021 81.4 175.521 81.9C175.021 82.4 174.401 82.77 173.661 83.01C172.941 83.25 172.181 83.37 171.381 83.37H166.701ZM165.321 76.2H169.701L167.331 90H162.981L165.321 76.2ZM177.465 90L180.945 73.62H185.355L181.875 90H177.465ZM183.855 71.58C183.235 71.58 182.705 71.45 182.265 71.19C181.845 70.91 181.635 70.44 181.635 69.78C181.635 69.22 181.735 68.75 181.935 68.37C182.155 67.99 182.465 67.7 182.865 67.5C183.265 67.3 183.745 67.2 184.305 67.2C184.885 67.2 185.395 67.33 185.835 67.59C186.275 67.85 186.495 68.31 186.495 68.97C186.495 69.75 186.275 70.38 185.835 70.86C185.415 71.34 184.755 71.58 183.855 71.58ZM196.721 81.75L192.281 89.07L187.961 88.08L197.681 75.06L202.931 88.23L198.611 89.13L196.721 81.75ZM200.081 90H190.571L190.061 92.7H185.621L186.731 86.43H204.941L203.831 92.7H199.571L200.081 90Z" fill="#FF3100"/>
<path d="M174.731 374.8H179.381C180.221 374.8 181.011 374.91 181.751 375.13C182.491 375.33 183.061 375.68 183.461 376.18C183.881 376.68 184.041 377.38 183.941 378.28C183.801 379.38 183.301 380.28 182.441 380.98C181.601 381.66 180.501 382 179.141 382H173.501L174.041 379.15H177.761C178.281 379.15 178.731 379.02 179.111 378.76C179.491 378.48 179.721 378.14 179.801 377.74C179.841 377.56 179.831 377.39 179.771 377.23C179.731 377.07 179.651 376.93 179.531 376.81C179.431 376.69 179.291 376.6 179.111 376.54C178.931 376.48 178.721 376.44 178.481 376.42L174.521 376.39L174.731 374.8ZM174.701 375.37L174.941 373.63H178.451C178.731 373.63 178.991 373.58 179.231 373.48C179.471 373.36 179.671 373.2 179.831 373C180.011 372.78 180.121 372.54 180.161 372.28C180.201 372.06 180.181 371.86 180.101 371.68C180.021 371.5 179.891 371.35 179.711 371.23C179.551 371.11 179.351 371.05 179.111 371.05L175.361 371.02L175.871 368.2H180.221C181.001 368.22 181.731 368.36 182.411 368.62C183.111 368.88 183.651 369.29 184.031 369.85C184.431 370.39 184.571 371.1 184.451 371.98C184.331 372.76 184.021 373.4 183.521 373.9C183.021 374.4 182.401 374.77 181.661 375.01C180.941 375.25 180.181 375.37 179.381 375.37H174.701ZM173.321 368.2H177.701L175.331 382H170.981L173.321 368.2ZM185.465 382L188.945 365.62H193.355L189.875 382H185.465ZM191.855 363.58C191.235 363.58 190.705 363.45 190.265 363.19C189.845 362.91 189.635 362.44 189.635 361.78C189.635 361.22 189.735 360.75 189.935 360.37C190.155 359.99 190.465 359.7 190.865 359.5C191.265 359.3 191.745 359.2 192.305 359.2C192.885 359.2 193.395 359.33 193.835 359.59C194.275 359.85 194.495 360.31 194.495 360.97C194.495 361.75 194.275 362.38 193.835 362.86C193.415 363.34 192.755 363.58 191.855 363.58ZM204.721 373.75L200.281 381.07L195.961 380.08L205.681 367.06L210.931 380.23L206.611 381.13L204.721 373.75ZM208.081 382H198.571L198.061 384.7H193.621L194.731 378.43H212.941L211.831 384.7H207.571L208.081 382Z" fill="#FF3100"/>
<path d="M176.731 648.8H181.381C182.221 648.8 183.011 648.91 183.751 649.13C184.491 649.33 185.061 649.68 185.461 650.18C185.881 650.68 186.041 651.38 185.941 652.28C185.801 653.38 185.301 654.28 184.441 654.98C183.601 655.66 182.501 656 181.141 656H175.501L176.041 653.15H179.761C180.281 653.15 180.731 653.02 181.111 652.76C181.491 652.48 181.721 652.14 181.801 651.74C181.841 651.56 181.831 651.39 181.771 651.23C181.731 651.07 181.651 650.93 181.531 650.81C181.431 650.69 181.291 650.6 181.111 650.54C180.931 650.48 180.721 650.44 180.481 650.42L176.521 650.39L176.731 648.8ZM176.701 649.37L176.941 647.63H180.451C180.731 647.63 180.991 647.58 181.231 647.48C181.471 647.36 181.671 647.2 181.831 647C182.011 646.78 182.121 646.54 182.161 646.28C182.201 646.06 182.181 645.86 182.101 645.68C182.021 645.5 181.891 645.35 181.711 645.23C181.551 645.11 181.351 645.05 181.111 645.05L177.361 645.02L177.871 642.2H182.221C183.001 642.22 183.731 642.36 184.411 642.62C185.111 642.88 185.651 643.29 186.031 643.85C186.431 644.39 186.571 645.1 186.451 645.98C186.331 646.76 186.021 647.4 185.521 647.9C185.021 648.4 184.401 648.77 183.661 649.01C182.941 649.25 182.181 649.37 181.381 649.37H176.701ZM175.321 642.2H179.701L177.331 656H172.981L175.321 642.2ZM187.465 656L190.945 639.62H195.355L191.875 656H187.465ZM193.855 637.58C193.235 637.58 192.705 637.45 192.265 637.19C191.845 636.91 191.635 636.44 191.635 635.78C191.635 635.22 191.735 634.75 191.935 634.37C192.155 633.99 192.465 633.7 192.865 633.5C193.265 633.3 193.745 633.2 194.305 633.2C194.885 633.2 195.395 633.33 195.835 633.59C196.275 633.85 196.495 634.31 196.495 634.97C196.495 635.75 196.275 636.38 195.835 636.86C195.415 637.34 194.755 637.58 193.855 637.58ZM206.721 647.75L202.281 655.07L197.961 654.08L207.681 641.06L212.931 654.23L208.611 655.13L206.721 647.75ZM210.081 656H200.571L200.061 658.7H195.621L196.731 652.43H214.941L213.831 658.7H209.571L210.081 656Z" fill="#FF3100"/>
<path d="M73.0493 221.5C73.0493 223.24 73.4193 224.8 74.1593 226.18C74.9193 227.56 75.9493 228.65 77.2493 229.45C78.5693 230.23 80.0693 230.62 81.7493 230.62C83.4293 230.62 84.9193 230.23 86.2193 229.45C87.5393 228.65 88.5693 227.56 89.3093 226.18C90.0493 224.8 90.4193 223.24 90.4193 221.5C90.4193 219.74 90.0493 218.18 89.3093 216.82C88.5693 215.44 87.5393 214.36 86.2193 213.58C84.9193 212.78 83.4293 212.38 81.7493 212.38C80.0693 212.38 78.5693 212.78 77.2493 213.58C75.9493 214.36 74.9193 215.44 74.1593 216.82C73.4193 218.18 73.0493 219.74 73.0493 221.5ZM71.3093 221.5C71.3093 219.96 71.5693 218.54 72.0893 217.24C72.6093 215.92 73.3393 214.78 74.2793 213.82C75.2193 212.84 76.3193 212.08 77.5793 211.54C78.8593 211 80.2493 210.73 81.7493 210.73C83.2493 210.73 84.6293 211 85.8893 211.54C87.1693 212.08 88.2793 212.84 89.2193 213.82C90.1593 214.78 90.8893 215.92 91.4093 217.24C91.9293 218.54 92.1893 219.96 92.1893 221.5C92.1893 223.04 91.9293 224.47 91.4093 225.79C90.8893 227.09 90.1593 228.23 89.2193 229.21C88.2793 230.17 87.1693 230.92 85.8893 231.46C84.6293 232 83.2493 232.27 81.7493 232.27C80.2493 232.27 78.8593 232 77.5793 231.46C76.3193 230.92 75.2193 230.17 74.2793 229.21C73.3393 228.23 72.6093 227.09 72.0893 225.79C71.5693 224.47 71.3093 223.04 71.3093 221.5ZM102.532 220.57L97.5222 231.34H95.7822L102.532 217.15L109.282 231.34H107.542L102.532 220.57ZM109.522 232H95.6322V234.7H93.9822V230.53H111.082V234.7H109.522V232ZM115.62 225.43V223.96H125.7V225.43H115.62ZM124.74 218.2H126.3V232H124.74V218.2ZM114.69 218.2H116.25V232H114.69V218.2ZM129.724 225.1C129.724 223.7 130.034 222.46 130.654 221.38C131.274 220.3 132.114 219.45 133.174 218.83C134.254 218.21 135.464 217.9 136.804 217.9C138.144 217.9 139.344 218.21 140.404 218.83C141.484 219.45 142.334 220.3 142.954 221.38C143.574 222.46 143.884 223.7 143.884 225.1C143.884 226.48 143.574 227.72 142.954 228.82C142.334 229.9 141.484 230.75 140.404 231.37C139.344 231.99 138.144 232.3 136.804 232.3C135.464 232.3 134.254 231.99 133.174 231.37C132.114 230.75 131.274 229.9 130.654 228.82C130.034 227.72 129.724 226.48 129.724 225.1ZM131.314 225.1C131.314 226.22 131.554 227.21 132.034 228.07C132.514 228.93 133.164 229.61 133.984 230.11C134.824 230.59 135.764 230.83 136.804 230.83C137.844 230.83 138.774 230.59 139.594 230.11C140.434 229.61 141.094 228.93 141.574 228.07C142.054 227.21 142.294 226.22 142.294 225.1C142.294 224 142.054 223.02 141.574 222.16C141.094 221.28 140.434 220.6 139.594 220.12C138.774 219.62 137.844 219.37 136.804 219.37C135.764 219.37 134.824 219.62 133.984 220.12C133.164 220.6 132.514 221.27 132.034 222.13C131.554 222.99 131.314 223.98 131.314 225.1ZM147.541 225.1C147.541 226.22 147.781 227.21 148.261 228.07C148.741 228.93 149.391 229.61 150.211 230.11C151.051 230.59 151.991 230.83 153.031 230.83C153.771 230.83 154.461 230.72 155.101 230.5C155.741 230.28 156.291 230 156.751 229.66C157.231 229.3 157.571 228.94 157.771 228.58V230.53C157.351 231.03 156.701 231.45 155.821 231.79C154.961 232.13 154.031 232.3 153.031 232.3C151.691 232.3 150.491 231.99 149.431 231.37C148.371 230.75 147.521 229.9 146.881 228.82C146.261 227.72 145.951 226.48 145.951 225.1C145.951 223.7 146.261 222.46 146.881 221.38C147.521 220.3 148.371 219.45 149.431 218.83C150.491 218.21 151.691 217.9 153.031 217.9C154.031 217.9 154.961 218.08 155.821 218.44C156.701 218.78 157.351 219.19 157.771 219.67V221.62C157.571 221.24 157.231 220.88 156.751 220.54C156.291 220.2 155.741 219.92 155.101 219.7C154.461 219.48 153.771 219.37 153.031 219.37C151.991 219.37 151.051 219.62 150.211 220.12C149.391 220.6 148.741 221.27 148.261 222.13C147.781 222.99 147.541 223.98 147.541 225.1ZM159.407 218.2H167.507V219.67H159.407V218.2ZM162.677 218.62H164.237V232H162.677V218.62ZM168.396 225.1C168.396 223.7 168.706 222.46 169.326 221.38C169.946 220.3 170.786 219.45 171.846 218.83C172.926 218.21 174.136 217.9 175.476 217.9C176.816 217.9 178.016 218.21 179.076 218.83C180.156 219.45 181.006 220.3 181.626 221.38C182.246 222.46 182.556 223.7 182.556 225.1C182.556 226.48 182.246 227.72 181.626 228.82C181.006 229.9 180.156 230.75 179.076 231.37C178.016 231.99 176.816 232.3 175.476 232.3C174.136 232.3 172.926 231.99 171.846 231.37C170.786 230.75 169.946 229.9 169.326 228.82C168.706 227.72 168.396 226.48 168.396 225.1ZM169.986 225.1C169.986 226.22 170.226 227.21 170.706 228.07C171.186 228.93 171.836 229.61 172.656 230.11C173.496 230.59 174.436 230.83 175.476 230.83C176.516 230.83 177.446 230.59 178.266 230.11C179.106 229.61 179.766 228.93 180.246 228.07C180.726 227.21 180.966 226.22 180.966 225.1C180.966 224 180.726 223.02 180.246 222.16C179.766 221.28 179.106 220.6 178.266 220.12C177.446 219.62 176.516 219.37 175.476 219.37C174.436 219.37 173.496 219.62 172.656 220.12C171.836 220.6 171.186 221.27 170.706 222.13C170.226 222.99 169.986 223.98 169.986 225.1ZM187.383 238.6H185.823V218.2H187.383V238.6ZM199.173 225.1C199.173 226.58 198.873 227.86 198.273 228.94C197.693 230.02 196.893 230.85 195.873 231.43C194.873 232.01 193.753 232.3 192.513 232.3C191.353 232.3 190.333 231.99 189.453 231.37C188.573 230.73 187.883 229.87 187.383 228.79C186.903 227.69 186.663 226.46 186.663 225.1C186.663 223.72 186.903 222.49 187.383 221.41C187.883 220.33 188.573 219.48 189.453 218.86C190.333 218.22 191.353 217.9 192.513 217.9C193.753 217.9 194.873 218.19 195.873 218.77C196.893 219.35 197.693 220.18 198.273 221.26C198.873 222.32 199.173 223.6 199.173 225.1ZM197.613 225.1C197.613 223.9 197.373 222.87 196.893 222.01C196.413 221.15 195.773 220.5 194.973 220.06C194.173 219.6 193.283 219.37 192.303 219.37C191.463 219.37 190.663 219.62 189.903 220.12C189.143 220.62 188.533 221.3 188.073 222.16C187.613 223.02 187.383 224 187.383 225.1C187.383 226.2 187.613 227.18 188.073 228.04C188.533 228.9 189.143 229.58 189.903 230.08C190.663 230.58 191.463 230.83 192.303 230.83C193.283 230.83 194.173 230.61 194.973 230.17C195.773 229.71 196.413 229.05 196.893 228.19C197.373 227.33 197.613 226.3 197.613 225.1ZM205.032 216.04V232H203.352V216.04H205.032ZM204.192 210.13C204.572 210.13 204.862 210.25 205.062 210.49C205.262 210.71 205.362 211.02 205.362 211.42C205.362 211.84 205.262 212.17 205.062 212.41C204.862 212.63 204.572 212.74 204.192 212.74C203.832 212.74 203.552 212.63 203.352 212.41C203.152 212.17 203.052 211.84 203.052 211.42C203.052 211.02 203.152 210.71 203.352 210.49C203.552 210.25 203.832 210.13 204.192 210.13ZM210.865 225.43V223.96H220.945V225.43H210.865ZM219.985 218.2H221.545V232H219.985V218.2ZM209.935 218.2H211.495V232H209.935V218.2ZM226.018 218.2H227.578V232H226.018V218.2ZM233.488 218.2H235.498L228.988 223.9L236.068 232H234.088L227.008 223.9L233.488 218.2ZM237.741 225.1C237.741 223.7 238.051 222.46 238.671 221.38C239.291 220.3 240.131 219.45 241.191 218.83C242.271 218.21 243.481 217.9 244.821 217.9C246.161 217.9 247.361 218.21 248.421 218.83C249.501 219.45 250.351 220.3 250.971 221.38C251.591 222.46 251.901 223.7 251.901 225.1C251.901 226.48 251.591 227.72 250.971 228.82C250.351 229.9 249.501 230.75 248.421 231.37C247.361 231.99 246.161 232.3 244.821 232.3C243.481 232.3 242.271 231.99 241.191 231.37C240.131 230.75 239.291 229.9 238.671 228.82C238.051 227.72 237.741 226.48 237.741 225.1ZM239.331 225.1C239.331 226.22 239.571 227.21 240.051 228.07C240.531 228.93 241.181 229.61 242.001 230.11C242.841 230.59 243.781 230.83 244.821 230.83C245.861 230.83 246.791 230.59 247.611 230.11C248.451 229.61 249.111 228.93 249.591 228.07C250.071 227.21 250.311 226.22 250.311 225.1C250.311 224 250.071 223.02 249.591 222.16C249.111 221.28 248.451 220.6 247.611 220.12C246.791 219.62 245.861 219.37 244.821 219.37C243.781 219.37 242.841 219.62 242.001 220.12C241.181 220.6 240.531 221.27 240.051 222.13C239.571 222.99 239.331 223.98 239.331 225.1ZM256.098 224.92H260.088C261.048 224.92 261.908 225.01 262.668 225.19C263.428 225.37 264.028 225.7 264.468 226.18C264.908 226.66 265.128 227.35 265.128 228.25C265.128 229.29 264.778 230.18 264.078 230.92C263.398 231.64 262.268 232 260.688 232H256.098V230.62H260.328C261.468 230.62 262.288 230.37 262.788 229.87C263.308 229.37 263.568 228.77 263.568 228.07C263.568 227.61 263.468 227.24 263.268 226.96C263.088 226.66 262.838 226.42 262.518 226.24C262.198 226.06 261.828 225.93 261.408 225.85C260.988 225.77 260.548 225.73 260.088 225.73H256.098V224.92ZM256.098 225.28V224.38H259.788C260.148 224.38 260.518 224.34 260.898 224.26C261.278 224.18 261.618 224.04 261.918 223.84C262.238 223.64 262.488 223.4 262.668 223.12C262.868 222.82 262.968 222.46 262.968 222.04C262.968 221.24 262.668 220.63 262.068 220.21C261.488 219.79 260.728 219.58 259.788 219.58H256.098V218.2H259.788C260.648 218.2 261.428 218.33 262.128 218.59C262.848 218.83 263.428 219.23 263.868 219.79C264.308 220.33 264.528 221.05 264.528 221.95C264.528 222.73 264.308 223.37 263.868 223.87C263.428 224.35 262.848 224.71 262.128 224.95C261.428 225.17 260.648 225.28 259.788 225.28H256.098ZM255.198 218.2H256.758V232H255.198V218.2ZM278.975 219.55L268.415 233.05L268.565 230.65L279.125 217.15L278.975 219.55ZM269.975 218.2V230.83L268.415 233.05V218.2H269.975ZM279.125 217.15V232H277.565V219.37L279.125 217.15ZM294.473 219.55L283.913 233.05L284.063 230.65L294.623 217.15L294.473 219.55ZM285.473 218.2V230.83L283.913 233.05V218.2H285.473ZM294.623 217.15V232H293.063V219.37L294.623 217.15ZM284.543 211.15H285.953C285.953 211.57 286.063 212.01 286.283 212.47C286.503 212.91 286.863 213.29 287.363 213.61C287.863 213.91 288.503 214.06 289.283 214.06C290.063 214.06 290.703 213.91 291.203 213.61C291.703 213.29 292.063 212.91 292.283 212.47C292.503 212.01 292.613 211.57 292.613 211.15H294.023C294.023 211.83 293.843 212.5 293.483 213.16C293.143 213.8 292.623 214.33 291.923 214.75C291.223 215.15 290.343 215.35 289.283 215.35C288.243 215.35 287.363 215.15 286.643 214.75C285.943 214.33 285.413 213.8 285.053 213.16C284.713 212.5 284.543 211.83 284.543 211.15Z" fill="#D9D9D9"/>
<circle cx="184.5" cy="159.5" r="159" stroke="#CE664D" stroke-dasharray="10 10"/>
<circle cx="186.5" cy="433.5" r="159" stroke="#CE664D" stroke-dasharray="10 10"/>
<circle cx="188.5" cy="707.5" r="159" stroke="#CE664D" stroke-dasharray="10 10"/>
</svg>
