<svg width="507" height="456" viewBox="0 0 507 456" fill="none" xmlns="http://www.w3.org/2000/svg">
<path d="M299.174 255.892C293.341 227.559 267.174 181.492 209.174 223.892C196.508 234.559 181.274 269.892 221.674 325.892C241.174 349.226 297.174 383.592 365.174 334.392C393.841 309.892 431.774 237.292 354.174 142.892C324.841 115.392 245.274 73.6922 161.674 126.892C135.008 142.559 84.3742 195.992 95.1742 284.392C102.841 337.059 149.874 443.892 276.674 449.892C329.508 453.892 444.774 438.092 483.174 342.892C508.508 288.392 526.274 153.892 394.674 51.8922C230.174 -75.6078 -8.32559 85.3922 6.67441 255.892" stroke="#FF0000" stroke-width="11" stroke-linecap="round"/>
</svg>
