<svg width="316" height="480" viewBox="0 0 316 480" fill="none" xmlns="http://www.w3.org/2000/svg">
<path d="M49.3576 305H39.3856V302.768L42.4456 301.868V282.464L39.3856 281.528V279.296H49.3576V281.528L46.3336 282.464V301.868L49.3576 302.768V305ZM54.9201 297.872V294.668H67.5921V297.872H54.9201ZM65.5041 288.44H69.3201V305H65.5041V288.44ZM53.2281 288.44H57.0441V305H53.2281V288.44ZM83.8627 294.02L79.3627 303.92L75.3307 303.488L83.8627 287.18L92.3947 303.488L88.3627 303.92L83.8627 294.02ZM90.7027 305H77.2027V308.24H73.2427V301.688H94.4827V308.24H90.7027V305ZM113.592 292.04L98.7237 306.26L98.9037 301.4L113.772 287.18L113.592 292.04ZM102.54 288.44V301.868L98.7237 306.26V288.44H102.54ZM113.772 287.18V305H109.956V291.572L113.772 287.18ZM121.384 296.36H126.64C127.792 296.36 128.824 296.48 129.736 296.72C130.648 296.96 131.368 297.38 131.896 297.98C132.424 298.58 132.688 299.42 132.688 300.5C132.688 301.748 132.268 302.816 131.428 303.704C130.612 304.568 129.256 305 127.36 305H121.384V302.12H126.172C127.132 302.12 127.828 301.916 128.26 301.508C128.692 301.1 128.908 300.62 128.908 300.068C128.908 299.78 128.848 299.516 128.728 299.276C128.608 299.036 128.44 298.82 128.224 298.628C128.032 298.436 127.756 298.292 127.396 298.196C127.06 298.1 126.652 298.052 126.172 298.052H121.384V296.36ZM121.384 297.08V295.208H125.812C126.172 295.208 126.496 295.16 126.784 295.064C127.096 294.968 127.348 294.824 127.54 294.632C127.732 294.44 127.888 294.224 128.008 293.984C128.128 293.744 128.188 293.492 128.188 293.228C128.188 292.676 127.972 292.22 127.54 291.86C127.132 291.5 126.556 291.32 125.812 291.32H121.384V288.44H126.28C127.312 288.44 128.248 288.596 129.088 288.908C129.952 289.196 130.648 289.676 131.176 290.348C131.704 290.996 131.968 291.86 131.968 292.94C131.968 293.876 131.704 294.656 131.176 295.28C130.648 295.88 129.952 296.336 129.088 296.648C128.248 296.936 127.312 297.08 126.28 297.08H121.384ZM119.116 288.44H122.932V305H119.116V288.44ZM140.587 285.596V305H136.771V285.596H140.587ZM138.715 278.216C139.291 278.216 139.795 278.384 140.227 278.72C140.659 279.056 140.875 279.62 140.875 280.412C140.875 281.18 140.659 281.744 140.227 282.104C139.795 282.44 139.291 282.608 138.715 282.608C138.091 282.608 137.563 282.44 137.131 282.104C136.723 281.744 136.519 281.18 136.519 280.412C136.519 279.62 136.723 279.056 137.131 278.72C137.563 278.384 138.091 278.216 138.715 278.216ZM155.652 294.02L151.152 303.92L147.12 303.488L155.652 287.18L164.184 303.488L160.152 303.92L155.652 294.02ZM162.492 305H148.992V308.24H145.032V301.688H166.272V308.24H162.492V305ZM184.845 288.44L174.045 312.92H169.905L174.225 303.056L167.565 288.44H172.029L177.321 301.544L175.485 301.436L180.669 288.44H184.845ZM189.621 300.104C189.621 300.608 189.753 301.028 190.017 301.364C190.305 301.7 190.677 301.964 191.133 302.156C191.589 302.324 192.105 302.408 192.681 302.408C193.521 302.408 194.277 302.276 194.949 302.012C195.621 301.748 196.149 301.328 196.533 300.752C196.917 300.176 197.109 299.408 197.109 298.448L197.685 300.32C197.685 301.376 197.409 302.288 196.857 303.056C196.305 303.8 195.561 304.376 194.625 304.784C193.689 305.168 192.645 305.36 191.493 305.36C190.413 305.36 189.429 305.168 188.541 304.784C187.677 304.4 186.981 303.836 186.453 303.092C185.949 302.324 185.697 301.376 185.697 300.248C185.697 299.12 185.985 298.148 186.561 297.332C187.137 296.516 187.953 295.892 189.009 295.46C190.089 295.028 191.349 294.812 192.789 294.812C193.749 294.812 194.601 294.932 195.345 295.172C196.113 295.412 196.749 295.688 197.253 296C197.757 296.312 198.105 296.588 198.297 296.828V298.88C197.553 298.328 196.797 297.932 196.029 297.692C195.261 297.428 194.373 297.296 193.365 297.296C192.549 297.296 191.853 297.416 191.277 297.656C190.725 297.872 190.305 298.196 190.017 298.628C189.753 299.036 189.621 299.528 189.621 300.104ZM188.757 292.796L187.209 290.024C187.953 289.568 188.901 289.124 190.053 288.692C191.205 288.26 192.525 288.044 194.013 288.044C195.381 288.044 196.581 288.248 197.613 288.656C198.645 289.064 199.449 289.652 200.025 290.42C200.625 291.164 200.925 292.088 200.925 293.192V305H197.109V293.624C197.109 292.856 196.785 292.268 196.137 291.86C195.513 291.428 194.745 291.212 193.833 291.212C193.041 291.212 192.309 291.308 191.637 291.5C190.965 291.692 190.377 291.92 189.873 292.184C189.393 292.424 189.021 292.628 188.757 292.796ZM221.15 288.44V305H217.334V292.04H209.81V299.24C209.81 300.536 209.594 301.616 209.162 302.48C208.73 303.32 208.034 303.956 207.074 304.388C206.138 304.796 204.902 305 203.366 305V301.472C204.086 301.472 204.698 301.28 205.202 300.896C205.73 300.512 205.994 299.78 205.994 298.7V288.44H221.15ZM226.585 288.44H230.509V305H226.585V288.44ZM229.321 297.368V294.452H234.469C236.173 294.452 237.601 294.872 238.753 295.712C239.929 296.528 240.517 297.824 240.517 299.6C240.517 300.776 240.253 301.772 239.725 302.588C239.197 303.38 238.477 303.98 237.565 304.388C236.653 304.796 235.621 305 234.469 305H229.321V301.796H234.073C234.649 301.796 235.129 301.712 235.513 301.544C235.921 301.376 236.221 301.124 236.413 300.788C236.629 300.452 236.737 300.056 236.737 299.6C236.737 298.88 236.509 298.328 236.053 297.944C235.621 297.56 234.961 297.368 234.073 297.368H229.321ZM246.487 297.872V294.668H259.159V297.872H246.487ZM257.071 288.44H260.887V305H257.071V288.44ZM244.795 288.44H248.611V305H244.795V288.44ZM266.897 297.62V294.956H277.301C277.205 294.164 276.989 293.48 276.653 292.904C276.341 292.304 275.897 291.848 275.321 291.536C274.745 291.2 274.037 291.032 273.197 291.032C272.333 291.032 271.553 291.224 270.857 291.608C270.161 291.968 269.609 292.508 269.201 293.228C268.793 293.924 268.589 294.752 268.589 295.712L268.517 296.72C268.517 297.944 268.709 298.964 269.093 299.78C269.501 300.572 270.053 301.172 270.749 301.58C271.469 301.964 272.297 302.156 273.233 302.156C274.001 302.156 274.673 302.048 275.249 301.832C275.849 301.616 276.377 301.316 276.833 300.932C277.289 300.524 277.673 300.056 277.985 299.528L281.333 300.896C280.781 301.784 280.145 302.564 279.425 303.236C278.729 303.908 277.865 304.436 276.833 304.82C275.825 305.18 274.565 305.36 273.053 305.36C271.349 305.36 269.861 304.988 268.589 304.244C267.317 303.5 266.333 302.48 265.637 301.184C264.941 299.864 264.593 298.376 264.593 296.72C264.593 296.408 264.605 296.108 264.629 295.82C264.653 295.532 264.689 295.244 264.737 294.956C264.977 293.588 265.457 292.388 266.177 291.356C266.921 290.324 267.893 289.52 269.093 288.944C270.293 288.368 271.673 288.08 273.233 288.08C274.937 288.08 276.401 288.428 277.625 289.124C278.873 289.796 279.833 290.768 280.505 292.04C281.177 293.288 281.513 294.788 281.513 296.54C281.513 296.684 281.513 296.852 281.513 297.044C281.513 297.212 281.489 297.404 281.441 297.62H266.897ZM91.4085 364.92H87.4845V340.44H91.4085V364.92ZM105.125 348.72C105.125 350.544 104.753 352.116 104.009 353.436C103.265 354.732 102.281 355.728 101.057 356.424C99.8325 357.096 98.5005 357.432 97.0605 357.432C95.6445 357.432 94.4085 357.084 93.3525 356.388C92.3205 355.668 91.5165 354.66 90.9405 353.364C90.3885 352.044 90.1125 350.496 90.1125 348.72C90.1125 346.92 90.3885 345.372 90.9405 344.076C91.5165 342.78 92.3205 341.784 93.3525 341.088C94.4085 340.368 95.6445 340.008 97.0605 340.008C98.5005 340.008 99.8325 340.356 101.057 341.052C102.281 341.724 103.265 342.708 104.009 344.004C104.753 345.3 105.125 346.872 105.125 348.72ZM101.093 348.72C101.093 347.616 100.865 346.68 100.409 345.912C99.9525 345.12 99.3405 344.532 98.5725 344.148C97.8285 343.74 97.0005 343.536 96.0885 343.536C95.3445 343.536 94.6125 343.74 93.8925 344.148C93.1725 344.532 92.5725 345.108 92.0925 345.876C91.6365 346.644 91.4085 347.592 91.4085 348.72C91.4085 349.848 91.6365 350.796 92.0925 351.564C92.5725 352.332 93.1725 352.92 93.8925 353.328C94.6125 353.712 95.3445 353.904 96.0885 353.904C97.0005 353.904 97.8285 353.712 98.5725 353.328C99.3405 352.92 99.9525 352.332 100.409 351.564C100.865 350.772 101.093 349.824 101.093 348.72ZM113.148 337.596V357H109.332V337.596H113.148ZM111.276 330.216C111.852 330.216 112.356 330.384 112.788 330.72C113.22 331.056 113.436 331.62 113.436 332.412C113.436 333.18 113.22 333.744 112.788 334.104C112.356 334.44 111.852 334.608 111.276 334.608C110.652 334.608 110.124 334.44 109.692 334.104C109.284 333.744 109.08 333.18 109.08 332.412C109.08 331.62 109.284 331.056 109.692 330.72C110.124 330.384 110.652 330.216 111.276 330.216ZM132.496 353.58H138.76V340.44H142.576V357H118.636V340.44H122.452V353.58H128.68V340.44H132.496V353.58ZM148.579 349.62V346.956H158.983C158.887 346.164 158.671 345.48 158.335 344.904C158.023 344.304 157.579 343.848 157.003 343.536C156.427 343.2 155.719 343.032 154.879 343.032C154.015 343.032 153.235 343.224 152.539 343.608C151.843 343.968 151.291 344.508 150.883 345.228C150.475 345.924 150.271 346.752 150.271 347.712L150.199 348.72C150.199 349.944 150.391 350.964 150.775 351.78C151.183 352.572 151.735 353.172 152.431 353.58C153.151 353.964 153.979 354.156 154.915 354.156C155.683 354.156 156.355 354.048 156.931 353.832C157.531 353.616 158.059 353.316 158.515 352.932C158.971 352.524 159.355 352.056 159.667 351.528L163.015 352.896C162.463 353.784 161.827 354.564 161.107 355.236C160.411 355.908 159.547 356.436 158.515 356.82C157.507 357.18 156.247 357.36 154.735 357.36C153.031 357.36 151.543 356.988 150.271 356.244C148.999 355.5 148.015 354.48 147.319 353.184C146.623 351.864 146.275 350.376 146.275 348.72C146.275 348.408 146.287 348.108 146.311 347.82C146.335 347.532 146.371 347.244 146.419 346.956C146.659 345.588 147.139 344.388 147.859 343.356C148.603 342.324 149.575 341.52 150.775 340.944C151.975 340.368 153.355 340.08 154.915 340.08C156.619 340.08 158.083 340.428 159.307 341.124C160.555 341.796 161.515 342.768 162.187 344.04C162.859 345.288 163.195 346.788 163.195 348.54C163.195 348.684 163.195 348.852 163.195 349.044C163.195 349.212 163.171 349.404 163.123 349.62H148.579ZM168.633 349.872V346.668H181.305V349.872H168.633ZM179.217 340.44H183.033V357H179.217V340.44ZM166.941 340.44H170.757V357H166.941V340.44ZM189.692 349.872V346.668H202.364V349.872H189.692ZM200.276 340.44H204.092V357H200.276V340.44ZM188 340.44H191.816V357H188V340.44ZM212.442 357H208.302L213.99 348.792H217.95L212.442 357ZM223.206 357H219.282V340.44H223.206V357ZM220.722 347.676V350.628H215.574C214.446 350.628 213.402 350.46 212.442 350.124C211.482 349.764 210.714 349.212 210.138 348.468C209.562 347.7 209.274 346.704 209.274 345.48C209.274 344.256 209.562 343.284 210.138 342.564C210.714 341.82 211.482 341.28 212.442 340.944C213.402 340.608 214.446 340.44 215.574 340.44H220.722V343.68H215.898C215.298 343.68 214.794 343.752 214.386 343.896C213.978 344.04 213.666 344.256 213.45 344.544C213.234 344.832 213.126 345.204 213.126 345.66C213.126 346.14 213.234 346.524 213.45 346.812C213.666 347.1 213.978 347.316 214.386 347.46C214.794 347.604 215.298 347.676 215.898 347.676H220.722Z" fill="white"/>
<path d="M146.694 4.6H147.714V13H146.694V4.6ZM147.258 5.56V4.6H148.974C149.518 4.6 150.002 4.704 150.426 4.912C150.858 5.112 151.198 5.4 151.446 5.776C151.702 6.152 151.83 6.6 151.83 7.12C151.83 7.632 151.702 8.08 151.446 8.464C151.198 8.84 150.858 9.132 150.426 9.34C150.002 9.54 149.518 9.64 148.974 9.64H147.258V8.68H148.974C149.518 8.68 149.958 8.548 150.294 8.284C150.638 8.02 150.81 7.632 150.81 7.12C150.81 6.6 150.638 6.212 150.294 5.956C149.958 5.692 149.518 5.56 148.974 5.56H147.258ZM152.365 10.24C152.365 9.68 152.489 9.184 152.737 8.752C152.993 8.32 153.337 7.98 153.769 7.732C154.201 7.484 154.685 7.36 155.221 7.36C155.765 7.36 156.249 7.484 156.673 7.732C157.105 7.98 157.445 8.32 157.693 8.752C157.949 9.184 158.077 9.68 158.077 10.24C158.077 10.792 157.949 11.288 157.693 11.728C157.445 12.16 157.105 12.5 156.673 12.748C156.249 12.996 155.765 13.12 155.221 13.12C154.685 13.12 154.201 12.996 153.769 12.748C153.337 12.5 152.993 12.16 152.737 11.728C152.489 11.288 152.365 10.792 152.365 10.24ZM153.337 10.24C153.337 10.624 153.417 10.964 153.577 11.26C153.745 11.556 153.969 11.792 154.249 11.968C154.537 12.136 154.861 12.22 155.221 12.22C155.581 12.22 155.901 12.136 156.181 11.968C156.469 11.792 156.693 11.556 156.853 11.26C157.021 10.964 157.105 10.624 157.105 10.24C157.105 9.856 157.021 9.516 156.853 9.22C156.693 8.916 156.469 8.68 156.181 8.512C155.901 8.344 155.581 8.26 155.221 8.26C154.861 8.26 154.537 8.344 154.249 8.512C153.969 8.68 153.745 8.916 153.577 9.22C153.417 9.516 153.337 9.856 153.337 10.24ZM161.352 10.24V9.64C161.72 9.64 161.984 9.572 162.144 9.436C162.304 9.292 162.384 9.12 162.384 8.92C162.384 8.704 162.304 8.536 162.144 8.416C161.984 8.288 161.76 8.224 161.472 8.224C161.232 8.224 161.032 8.272 160.872 8.368C160.72 8.456 160.608 8.568 160.536 8.704C160.464 8.832 160.428 8.96 160.428 9.088H159.456C159.456 8.776 159.544 8.488 159.72 8.224C159.896 7.96 160.136 7.752 160.44 7.6C160.744 7.44 161.088 7.36 161.472 7.36C161.832 7.36 162.156 7.428 162.444 7.564C162.732 7.7 162.956 7.88 163.116 8.104C163.284 8.328 163.368 8.576 163.368 8.848C163.368 9.248 163.188 9.58 162.828 9.844C162.476 10.108 161.984 10.24 161.352 10.24ZM161.448 13.12C160.8 13.12 160.28 12.944 159.888 12.592C159.504 12.24 159.28 11.796 159.216 11.26H160.188C160.244 11.524 160.364 11.76 160.548 11.968C160.732 12.176 161.032 12.28 161.448 12.28C161.704 12.28 161.92 12.244 162.096 12.172C162.28 12.1 162.42 11.996 162.516 11.86C162.612 11.724 162.66 11.568 162.66 11.392C162.66 11.2 162.608 11.036 162.504 10.9C162.408 10.764 162.26 10.66 162.06 10.588C161.868 10.516 161.632 10.48 161.352 10.48V9.88C162.04 9.88 162.588 10 162.996 10.24C163.404 10.48 163.608 10.86 163.608 11.38C163.608 11.74 163.508 12.052 163.308 12.316C163.116 12.572 162.856 12.772 162.528 12.916C162.2 13.052 161.84 13.12 161.448 13.12ZM165.945 15.64H164.985V7.48H165.945V15.64ZM170.565 10.24C170.565 10.832 170.441 11.344 170.193 11.776C169.945 12.208 169.613 12.54 169.197 12.772C168.789 13.004 168.333 13.12 167.829 13.12C167.373 13.12 166.969 13.004 166.617 12.772C166.273 12.54 166.001 12.208 165.801 11.776C165.609 11.344 165.513 10.832 165.513 10.24C165.513 9.64 165.609 9.128 165.801 8.704C166.001 8.272 166.273 7.94 166.617 7.708C166.969 7.476 167.373 7.36 167.829 7.36C168.333 7.36 168.789 7.476 169.197 7.708C169.613 7.94 169.945 8.272 170.193 8.704C170.441 9.128 170.565 9.64 170.565 10.24ZM169.593 10.24C169.593 9.816 169.505 9.456 169.329 9.16C169.161 8.864 168.933 8.64 168.645 8.488C168.365 8.336 168.053 8.26 167.709 8.26C167.429 8.26 167.153 8.336 166.881 8.488C166.609 8.64 166.385 8.864 166.209 9.16C166.033 9.456 165.945 9.816 165.945 10.24C165.945 10.664 166.033 11.024 166.209 11.32C166.385 11.616 166.609 11.84 166.881 11.992C167.153 12.144 167.429 12.22 167.709 12.22C168.053 12.22 168.365 12.144 168.645 11.992C168.933 11.84 169.161 11.616 169.329 11.32C169.505 11.024 169.593 10.664 169.593 10.24ZM171.408 10.24C171.408 9.68 171.532 9.184 171.78 8.752C172.036 8.32 172.38 7.98 172.812 7.732C173.244 7.484 173.728 7.36 174.264 7.36C174.808 7.36 175.292 7.484 175.716 7.732C176.148 7.98 176.488 8.32 176.736 8.752C176.992 9.184 177.12 9.68 177.12 10.24C177.12 10.792 176.992 11.288 176.736 11.728C176.488 12.16 176.148 12.5 175.716 12.748C175.292 12.996 174.808 13.12 174.264 13.12C173.728 13.12 173.244 12.996 172.812 12.748C172.38 12.5 172.036 12.16 171.78 11.728C171.532 11.288 171.408 10.792 171.408 10.24ZM172.38 10.24C172.38 10.624 172.46 10.964 172.62 11.26C172.788 11.556 173.012 11.792 173.292 11.968C173.58 12.136 173.904 12.22 174.264 12.22C174.624 12.22 174.944 12.136 175.224 11.968C175.512 11.792 175.736 11.556 175.896 11.26C176.064 10.964 176.148 10.624 176.148 10.24C176.148 9.856 176.064 9.516 175.896 9.22C175.736 8.916 175.512 8.68 175.224 8.512C174.944 8.344 174.624 8.26 174.264 8.26C173.904 8.26 173.58 8.344 173.292 8.512C173.012 8.68 172.788 8.916 172.62 9.22C172.46 9.516 172.38 9.856 172.38 10.24ZM180.815 8.26V7.36C181.359 7.36 181.843 7.484 182.267 7.732C182.699 7.98 183.039 8.32 183.287 8.752C183.543 9.184 183.671 9.68 183.671 10.24C183.671 10.792 183.543 11.288 183.287 11.728C183.039 12.16 182.699 12.5 182.267 12.748C181.843 12.996 181.359 13.12 180.815 13.12C180.279 13.12 179.795 12.988 179.363 12.724C178.931 12.452 178.587 12.048 178.331 11.512C178.083 10.976 177.959 10.312 177.959 9.52L178.919 10.24C178.919 10.624 179.003 10.964 179.171 11.26C179.339 11.556 179.563 11.792 179.843 11.968C180.131 12.136 180.455 12.22 180.815 12.22C181.175 12.22 181.495 12.136 181.775 11.968C182.063 11.792 182.287 11.556 182.447 11.26C182.615 10.964 182.699 10.624 182.699 10.24C182.699 9.856 182.615 9.516 182.447 9.22C182.287 8.916 182.063 8.68 181.775 8.512C181.495 8.344 181.175 8.26 180.815 8.26ZM178.487 10.24C178.487 9.792 178.543 9.392 178.655 9.04C178.767 8.68 178.927 8.376 179.135 8.128C179.343 7.88 179.587 7.692 179.867 7.564C180.155 7.428 180.471 7.36 180.815 7.36V8.26C180.607 8.26 180.391 8.304 180.167 8.392C179.943 8.48 179.735 8.608 179.543 8.776C179.359 8.944 179.207 9.152 179.087 9.4C178.975 9.64 178.919 9.92 178.919 10.24H178.487ZM177.959 9.52C177.959 8.768 178.031 8.104 178.175 7.528C178.319 6.952 178.571 6.464 178.931 6.064C179.299 5.664 179.803 5.352 180.443 5.128C180.987 4.944 181.391 4.724 181.655 4.468C181.927 4.204 182.091 3.928 182.147 3.64H183.095C183.055 3.992 182.927 4.316 182.711 4.612C182.495 4.9 182.211 5.152 181.859 5.368C181.515 5.584 181.123 5.764 180.683 5.908C180.187 6.068 179.799 6.312 179.519 6.64C179.247 6.96 179.059 7.32 178.955 7.72C178.851 8.12 178.799 8.52 178.799 8.92V10.156L177.959 9.52ZM184.93 7.48H185.89V13H184.93V7.48ZM187.93 7.48H189.13L186.73 9.76L189.37 13H188.17L185.53 9.76L187.93 7.48ZM194.895 8.44L190.335 13.42L190.395 12.04L194.955 7.06L194.895 8.44ZM191.295 7.48V12.1L190.335 13.42V7.48H191.295ZM194.955 7.06V13H193.995V8.38L194.955 7.06ZM200.976 10.12H202.572C202.956 10.12 203.3 10.16 203.604 10.24C203.908 10.32 204.148 10.46 204.324 10.66C204.5 10.86 204.588 11.14 204.588 11.5C204.588 11.916 204.448 12.272 204.168 12.568C203.896 12.856 203.444 13 202.812 13H200.976V12.16H202.572C202.932 12.16 203.196 12.084 203.364 11.932C203.54 11.78 203.628 11.596 203.628 11.38C203.628 11.268 203.604 11.168 203.556 11.08C203.516 10.992 203.452 10.912 203.364 10.84C203.284 10.768 203.176 10.716 203.04 10.684C202.912 10.644 202.756 10.624 202.572 10.624H200.976V10.12ZM200.976 10.36V9.796H202.452C202.596 9.796 202.724 9.78 202.836 9.748C202.956 9.708 203.056 9.652 203.136 9.58C203.216 9.508 203.276 9.428 203.316 9.34C203.364 9.244 203.388 9.144 203.388 9.04C203.388 8.824 203.304 8.652 203.136 8.524C202.968 8.388 202.74 8.32 202.452 8.32H200.976V7.48H202.452C202.796 7.48 203.108 7.532 203.388 7.636C203.676 7.732 203.908 7.892 204.084 8.116C204.26 8.332 204.348 8.62 204.348 8.98C204.348 9.292 204.26 9.552 204.084 9.76C203.908 9.96 203.676 10.112 203.388 10.216C203.108 10.312 202.796 10.36 202.452 10.36H200.976ZM200.412 7.48H201.372V13H200.412V7.48ZM207.025 6.568V13H205.969V6.568H207.025ZM206.509 4.156C206.669 4.156 206.809 4.212 206.929 4.324C207.057 4.428 207.121 4.596 207.121 4.828C207.121 5.052 207.057 5.22 206.929 5.332C206.809 5.444 206.669 5.5 206.509 5.5C206.333 5.5 206.185 5.444 206.065 5.332C205.945 5.22 205.885 5.052 205.885 4.828C205.885 4.596 205.945 4.428 206.065 4.324C206.185 4.212 206.333 4.156 206.509 4.156ZM211.943 9.136L210.323 12.64H209.243L211.943 7.06L214.643 12.64H213.563L211.943 9.136ZM214.403 13H209.543V14.08H208.523V12.1H215.363V14.08H214.403V13ZM223.404 9.136L221.784 12.64H220.704L223.404 7.06L226.104 12.64H225.024L223.404 9.136ZM225.864 13H221.004V14.08H219.984V12.1H226.824V14.08H225.864V13ZM232.887 8.44L228.327 13.42L228.387 12.04L232.947 7.06L232.887 8.44ZM229.287 7.48V12.1L228.327 13.42V7.48H229.287ZM232.947 7.06V13H231.987V8.38L232.947 7.06ZM236.762 10.24V9.64C237.13 9.64 237.394 9.572 237.554 9.436C237.714 9.292 237.794 9.12 237.794 8.92C237.794 8.704 237.714 8.536 237.554 8.416C237.394 8.288 237.17 8.224 236.882 8.224C236.642 8.224 236.442 8.272 236.282 8.368C236.13 8.456 236.018 8.568 235.946 8.704C235.874 8.832 235.838 8.96 235.838 9.088H234.866C234.866 8.776 234.954 8.488 235.13 8.224C235.306 7.96 235.546 7.752 235.85 7.6C236.154 7.44 236.498 7.36 236.882 7.36C237.242 7.36 237.566 7.428 237.854 7.564C238.142 7.7 238.366 7.88 238.526 8.104C238.694 8.328 238.778 8.576 238.778 8.848C238.778 9.248 238.598 9.58 238.238 9.844C237.886 10.108 237.394 10.24 236.762 10.24ZM236.858 13.12C236.21 13.12 235.69 12.944 235.298 12.592C234.914 12.24 234.69 11.796 234.626 11.26H235.598C235.654 11.524 235.774 11.76 235.958 11.968C236.142 12.176 236.442 12.28 236.858 12.28C237.114 12.28 237.33 12.244 237.506 12.172C237.69 12.1 237.83 11.996 237.926 11.86C238.022 11.724 238.07 11.568 238.07 11.392C238.07 11.2 238.018 11.036 237.914 10.9C237.818 10.764 237.67 10.66 237.47 10.588C237.278 10.516 237.042 10.48 236.762 10.48V9.88C237.45 9.88 237.998 10 238.406 10.24C238.814 10.48 239.018 10.86 239.018 11.38C239.018 11.74 238.918 12.052 238.718 12.316C238.526 12.572 238.266 12.772 237.938 12.916C237.61 13.052 237.25 13.12 236.858 13.12ZM240.887 11.38C240.887 11.572 240.939 11.736 241.043 11.872C241.147 12 241.287 12.1 241.463 12.172C241.639 12.236 241.835 12.268 242.051 12.268C242.371 12.268 242.655 12.22 242.903 12.124C243.151 12.028 243.343 11.876 243.479 11.668C243.623 11.46 243.695 11.184 243.695 10.84L243.887 11.44C243.887 11.792 243.791 12.096 243.599 12.352C243.415 12.6 243.167 12.792 242.855 12.928C242.543 13.056 242.195 13.12 241.811 13.12C241.467 13.12 241.151 13.056 240.863 12.928C240.575 12.8 240.343 12.612 240.167 12.364C239.999 12.108 239.915 11.792 239.915 11.416C239.915 11.024 240.011 10.692 240.203 10.42C240.395 10.148 240.667 9.94 241.019 9.796C241.371 9.644 241.787 9.568 242.267 9.568C242.619 9.568 242.919 9.616 243.167 9.712C243.423 9.8 243.627 9.904 243.779 10.024C243.931 10.136 244.035 10.228 244.091 10.3V10.864C243.819 10.672 243.543 10.532 243.263 10.444C242.983 10.348 242.667 10.3 242.315 10.3C241.995 10.3 241.727 10.344 241.511 10.432C241.303 10.52 241.147 10.644 241.043 10.804C240.939 10.964 240.887 11.156 240.887 11.38ZM240.887 8.776L240.419 8.044C240.627 7.892 240.907 7.74 241.259 7.588C241.611 7.436 242.035 7.36 242.531 7.36C242.955 7.36 243.323 7.428 243.635 7.564C243.955 7.692 244.203 7.88 244.379 8.128C244.563 8.376 244.655 8.68 244.655 9.04V13H243.695V9.04C243.695 8.76 243.575 8.552 243.335 8.416C243.103 8.272 242.835 8.2 242.531 8.2C242.267 8.2 242.027 8.236 241.811 8.308C241.595 8.372 241.407 8.452 241.247 8.548C241.095 8.636 240.975 8.712 240.887 8.776ZM250.899 8.44L246.339 13.42L246.399 12.04L250.959 7.06L250.899 8.44ZM247.299 7.48V12.1L246.339 13.42V7.48H247.299ZM250.959 7.06V13H249.999V8.38L250.959 7.06ZM246.783 4.66H247.635C247.635 4.764 247.663 4.888 247.719 5.032C247.775 5.168 247.879 5.292 248.031 5.404C248.183 5.508 248.399 5.56 248.679 5.56C248.959 5.56 249.175 5.508 249.327 5.404C249.479 5.292 249.583 5.168 249.639 5.032C249.695 4.888 249.723 4.764 249.723 4.66H250.575C250.575 4.932 250.503 5.2 250.359 5.464C250.223 5.72 250.015 5.932 249.735 6.1C249.455 6.26 249.103 6.34 248.679 6.34C248.263 6.34 247.911 6.26 247.623 6.1C247.343 5.932 247.131 5.72 246.987 5.464C246.851 5.2 246.783 4.932 246.783 4.66ZM253.382 10.54V9.64H257.462V10.54H253.382ZM256.838 7.48H257.798V13H256.838V7.48ZM252.818 7.48H253.778V13H252.818V7.48ZM263.983 7.48L260.383 15.64H259.303L260.815 12.22L258.703 7.48H259.843L261.595 11.8L261.199 11.752L262.903 7.48H263.983ZM271.486 9.136L269.866 12.64H268.786L271.486 7.06L274.186 12.64H273.106L271.486 9.136ZM273.946 13H269.086V14.08H268.066V12.1H274.906V14.08H273.946V13ZM275.869 10.24C275.869 9.68 275.993 9.184 276.241 8.752C276.497 8.32 276.841 7.98 277.273 7.732C277.705 7.484 278.189 7.36 278.725 7.36C279.269 7.36 279.753 7.484 280.177 7.732C280.609 7.98 280.949 8.32 281.197 8.752C281.453 9.184 281.581 9.68 281.581 10.24C281.581 10.792 281.453 11.288 281.197 11.728C280.949 12.16 280.609 12.5 280.177 12.748C279.753 12.996 279.269 13.12 278.725 13.12C278.189 13.12 277.705 12.996 277.273 12.748C276.841 12.5 276.497 12.16 276.241 11.728C275.993 11.288 275.869 10.792 275.869 10.24ZM276.841 10.24C276.841 10.624 276.921 10.964 277.081 11.26C277.249 11.556 277.473 11.792 277.753 11.968C278.041 12.136 278.365 12.22 278.725 12.22C279.085 12.22 279.405 12.136 279.685 11.968C279.973 11.792 280.197 11.556 280.357 11.26C280.525 10.964 280.609 10.624 280.609 10.24C280.609 9.856 280.525 9.516 280.357 9.22C280.197 8.916 279.973 8.68 279.685 8.512C279.405 8.344 279.085 8.26 278.725 8.26C278.365 8.26 278.041 8.344 277.753 8.512C277.473 8.68 277.249 8.916 277.081 9.22C276.921 9.516 276.841 9.856 276.841 10.24ZM148.15 23.568V30H147.094V23.568H148.15ZM147.634 21.156C147.794 21.156 147.934 21.212 148.054 21.324C148.182 21.428 148.246 21.596 148.246 21.828C148.246 22.052 148.182 22.22 148.054 22.332C147.934 22.444 147.794 22.5 147.634 22.5C147.458 22.5 147.31 22.444 147.19 22.332C147.07 22.22 147.01 22.052 147.01 21.828C147.01 21.596 147.07 21.428 147.19 21.324C147.31 21.212 147.458 21.156 147.634 21.156ZM150.632 27.54V26.64H154.712V27.54H150.632ZM154.088 24.48H155.048V30H154.088V24.48ZM150.068 24.48H151.028V30H150.068V24.48ZM156.013 24.48H159.253V25.38H156.013V24.48ZM157.153 24.72H158.113V30H157.153V24.72ZM160.173 27.48V26.664H163.857C163.825 26.376 163.745 26.124 163.617 25.908C163.497 25.684 163.325 25.512 163.101 25.392C162.885 25.264 162.617 25.2 162.297 25.2C161.977 25.2 161.685 25.268 161.421 25.404C161.157 25.54 160.945 25.736 160.785 25.992C160.633 26.24 160.557 26.536 160.557 26.88L160.533 27.24C160.533 27.664 160.605 28.024 160.749 28.32C160.893 28.616 161.097 28.84 161.361 28.992C161.625 29.144 161.937 29.22 162.297 29.22C162.569 29.22 162.809 29.18 163.017 29.1C163.233 29.012 163.425 28.896 163.593 28.752C163.761 28.6 163.905 28.424 164.025 28.224L164.805 28.716C164.621 28.996 164.417 29.244 164.193 29.46C163.969 29.668 163.697 29.832 163.377 29.952C163.057 30.064 162.657 30.12 162.177 30.12C161.681 30.12 161.233 29.996 160.833 29.748C160.441 29.5 160.129 29.16 159.897 28.728C159.673 28.288 159.561 27.792 159.561 27.24C159.561 27.136 159.565 27.036 159.573 26.94C159.581 26.844 159.593 26.748 159.609 26.652C159.689 26.196 159.849 25.796 160.089 25.452C160.329 25.108 160.637 24.84 161.013 24.648C161.397 24.456 161.825 24.36 162.297 24.36C162.817 24.36 163.273 24.476 163.665 24.708C164.057 24.94 164.361 25.268 164.577 25.692C164.793 26.108 164.901 26.608 164.901 27.192C164.901 27.24 164.901 27.288 164.901 27.336C164.901 27.384 164.897 27.432 164.889 27.48H160.173ZM167.116 32.64H166.156V24.48H167.116V32.64ZM171.736 27.24C171.736 27.832 171.612 28.344 171.364 28.776C171.116 29.208 170.784 29.54 170.368 29.772C169.96 30.004 169.504 30.12 169 30.12C168.544 30.12 168.14 30.004 167.788 29.772C167.444 29.54 167.172 29.208 166.972 28.776C166.78 28.344 166.684 27.832 166.684 27.24C166.684 26.64 166.78 26.128 166.972 25.704C167.172 25.272 167.444 24.94 167.788 24.708C168.14 24.476 168.544 24.36 169 24.36C169.504 24.36 169.96 24.476 170.368 24.708C170.784 24.94 171.116 25.272 171.364 25.704C171.612 26.128 171.736 26.64 171.736 27.24ZM170.764 27.24C170.764 26.816 170.676 26.456 170.5 26.16C170.332 25.864 170.104 25.64 169.816 25.488C169.536 25.336 169.224 25.26 168.88 25.26C168.6 25.26 168.324 25.336 168.052 25.488C167.78 25.64 167.556 25.864 167.38 26.16C167.204 26.456 167.116 26.816 167.116 27.24C167.116 27.664 167.204 28.024 167.38 28.32C167.556 28.616 167.78 28.84 168.052 28.992C168.324 29.144 168.6 29.22 168.88 29.22C169.224 29.22 169.536 29.144 169.816 28.992C170.104 28.84 170.332 28.616 170.5 28.32C170.676 28.024 170.764 27.664 170.764 27.24ZM175.196 23.28H176.156V31.2H175.196V23.28ZM172.58 27.24C172.58 26.68 172.708 26.184 172.964 25.752C173.22 25.32 173.58 24.98 174.044 24.732C174.516 24.484 175.06 24.36 175.676 24.36C176.3 24.36 176.844 24.484 177.308 24.732C177.772 24.98 178.132 25.32 178.388 25.752C178.644 26.184 178.772 26.68 178.772 27.24C178.772 27.792 178.644 28.288 178.388 28.728C178.132 29.16 177.772 29.5 177.308 29.748C176.844 29.996 176.3 30.12 175.676 30.12C175.06 30.12 174.516 29.996 174.044 29.748C173.58 29.5 173.22 29.16 172.964 28.728C172.708 28.288 172.58 27.792 172.58 27.24ZM173.552 27.24C173.552 27.624 173.636 27.964 173.804 28.26C173.98 28.556 174.224 28.792 174.536 28.968C174.856 29.136 175.236 29.22 175.676 29.22C176.116 29.22 176.492 29.136 176.804 28.968C177.124 28.792 177.368 28.556 177.536 28.26C177.712 27.964 177.8 27.624 177.8 27.24C177.8 26.856 177.712 26.516 177.536 26.22C177.368 25.916 177.124 25.68 176.804 25.512C176.492 25.344 176.116 25.26 175.676 25.26C175.236 25.26 174.856 25.344 174.536 25.512C174.224 25.68 173.98 25.916 173.804 26.22C173.636 26.516 173.552 26.856 173.552 27.24ZM180.223 27.48V26.664H183.907C183.875 26.376 183.795 26.124 183.667 25.908C183.547 25.684 183.375 25.512 183.151 25.392C182.935 25.264 182.667 25.2 182.347 25.2C182.027 25.2 181.735 25.268 181.471 25.404C181.207 25.54 180.995 25.736 180.835 25.992C180.683 26.24 180.607 26.536 180.607 26.88L180.583 27.24C180.583 27.664 180.655 28.024 180.799 28.32C180.943 28.616 181.147 28.84 181.411 28.992C181.675 29.144 181.987 29.22 182.347 29.22C182.619 29.22 182.859 29.18 183.067 29.1C183.283 29.012 183.475 28.896 183.643 28.752C183.811 28.6 183.955 28.424 184.075 28.224L184.855 28.716C184.671 28.996 184.467 29.244 184.243 29.46C184.019 29.668 183.747 29.832 183.427 29.952C183.107 30.064 182.707 30.12 182.227 30.12C181.731 30.12 181.283 29.996 180.883 29.748C180.491 29.5 180.179 29.16 179.947 28.728C179.723 28.288 179.611 27.792 179.611 27.24C179.611 27.136 179.615 27.036 179.623 26.94C179.631 26.844 179.643 26.748 179.659 26.652C179.739 26.196 179.899 25.796 180.139 25.452C180.379 25.108 180.687 24.84 181.063 24.648C181.447 24.456 181.875 24.36 182.347 24.36C182.867 24.36 183.323 24.476 183.715 24.708C184.107 24.94 184.411 25.268 184.627 25.692C184.843 26.108 184.951 26.608 184.951 27.192C184.951 27.24 184.951 27.288 184.951 27.336C184.951 27.384 184.947 27.432 184.939 27.48H180.223ZM190.887 25.44L186.327 30.42L186.387 29.04L190.947 24.06L190.887 25.44ZM187.287 24.48V29.1L186.327 30.42V24.48H187.287ZM190.947 24.06V30H189.987V25.38L190.947 24.06ZM186.771 21.66H187.623C187.623 21.764 187.651 21.888 187.707 22.032C187.763 22.168 187.867 22.292 188.019 22.404C188.171 22.508 188.387 22.56 188.667 22.56C188.947 22.56 189.163 22.508 189.315 22.404C189.467 22.292 189.571 22.168 189.627 22.032C189.683 21.888 189.711 21.764 189.711 21.66H190.563C190.563 21.932 190.491 22.2 190.347 22.464C190.211 22.72 190.003 22.932 189.723 23.1C189.443 23.26 189.091 23.34 188.667 23.34C188.251 23.34 187.899 23.26 187.611 23.1C187.331 22.932 187.119 22.72 186.975 22.464C186.839 22.2 186.771 21.932 186.771 21.66ZM193.238 27.24C193.238 27.624 193.318 27.964 193.478 28.26C193.646 28.556 193.87 28.792 194.15 28.968C194.438 29.136 194.762 29.22 195.122 29.22C195.418 29.22 195.694 29.176 195.95 29.088C196.214 28.992 196.442 28.868 196.634 28.716C196.826 28.556 196.962 28.388 197.042 28.212V29.412C196.85 29.636 196.574 29.812 196.214 29.94C195.862 30.06 195.498 30.12 195.122 30.12C194.586 30.12 194.102 29.996 193.67 29.748C193.238 29.5 192.894 29.16 192.638 28.728C192.39 28.288 192.266 27.792 192.266 27.24C192.266 26.68 192.39 26.184 192.638 25.752C192.894 25.32 193.238 24.98 193.67 24.732C194.102 24.484 194.586 24.36 195.122 24.36C195.498 24.36 195.862 24.424 196.214 24.552C196.574 24.672 196.85 24.844 197.042 25.068V26.268C196.962 26.084 196.826 25.916 196.634 25.764C196.442 25.612 196.214 25.492 195.95 25.404C195.694 25.308 195.418 25.26 195.122 25.26C194.762 25.26 194.438 25.344 194.15 25.512C193.87 25.68 193.646 25.916 193.478 26.22C193.318 26.516 193.238 26.856 193.238 27.24ZM202.917 24.48L199.317 32.64H198.237L199.749 29.22L197.637 24.48H198.777L200.529 28.8L200.133 28.752L201.837 24.48H202.917ZM207.36 24.48H208.32V30H207.36V24.48ZM210.36 24.48H211.56L209.16 26.76L211.8 30H210.6L207.96 26.76L210.36 24.48ZM212.049 27.24C212.049 26.68 212.173 26.184 212.421 25.752C212.677 25.32 213.021 24.98 213.453 24.732C213.885 24.484 214.369 24.36 214.905 24.36C215.449 24.36 215.933 24.484 216.357 24.732C216.789 24.98 217.129 25.32 217.377 25.752C217.633 26.184 217.761 26.68 217.761 27.24C217.761 27.792 217.633 28.288 217.377 28.728C217.129 29.16 216.789 29.5 216.357 29.748C215.933 29.996 215.449 30.12 214.905 30.12C214.369 30.12 213.885 29.996 213.453 29.748C213.021 29.5 212.677 29.16 212.421 28.728C212.173 28.288 212.049 27.792 212.049 27.24ZM213.021 27.24C213.021 27.624 213.101 27.964 213.261 28.26C213.429 28.556 213.653 28.792 213.933 28.968C214.221 29.136 214.545 29.22 214.905 29.22C215.265 29.22 215.585 29.136 215.865 28.968C216.153 28.792 216.377 28.556 216.537 28.26C216.705 27.964 216.789 27.624 216.789 27.24C216.789 26.856 216.705 26.516 216.537 26.22C216.377 25.916 216.153 25.68 215.865 25.512C215.585 25.344 215.265 25.26 214.905 25.26C214.545 25.26 214.221 25.344 213.933 25.512C213.653 25.68 213.429 25.916 213.261 26.22C213.101 26.516 213.021 26.856 213.021 27.24ZM219.98 32.64H219.02V24.48H219.98V32.64ZM224.6 27.24C224.6 27.832 224.476 28.344 224.228 28.776C223.98 29.208 223.648 29.54 223.232 29.772C222.824 30.004 222.368 30.12 221.864 30.12C221.408 30.12 221.004 30.004 220.652 29.772C220.308 29.54 220.036 29.208 219.836 28.776C219.644 28.344 219.548 27.832 219.548 27.24C219.548 26.64 219.644 26.128 219.836 25.704C220.036 25.272 220.308 24.94 220.652 24.708C221.004 24.476 221.408 24.36 221.864 24.36C222.368 24.36 222.824 24.476 223.232 24.708C223.648 24.94 223.98 25.272 224.228 25.704C224.476 26.128 224.6 26.64 224.6 27.24ZM223.628 27.24C223.628 26.816 223.54 26.456 223.364 26.16C223.196 25.864 222.968 25.64 222.68 25.488C222.4 25.336 222.088 25.26 221.744 25.26C221.464 25.26 221.188 25.336 220.916 25.488C220.644 25.64 220.42 25.864 220.244 26.16C220.068 26.456 219.98 26.816 219.98 27.24C219.98 27.664 220.068 28.024 220.244 28.32C220.42 28.616 220.644 28.84 220.916 28.992C221.188 29.144 221.464 29.22 221.744 29.22C222.088 29.22 222.4 29.144 222.68 28.992C222.968 28.84 223.196 28.616 223.364 28.32C223.54 28.024 223.628 27.664 223.628 27.24ZM230.543 25.44L225.983 30.42L226.043 29.04L230.603 24.06L230.543 25.44ZM226.943 24.48V29.1L225.983 30.42V24.48H226.943ZM230.603 24.06V30H229.643V25.38L230.603 24.06ZM232.895 27.24C232.895 27.624 232.975 27.964 233.135 28.26C233.303 28.556 233.527 28.792 233.807 28.968C234.095 29.136 234.419 29.22 234.779 29.22C235.075 29.22 235.351 29.176 235.607 29.088C235.871 28.992 236.099 28.868 236.291 28.716C236.483 28.556 236.619 28.388 236.699 28.212V29.412C236.507 29.636 236.231 29.812 235.871 29.94C235.519 30.06 235.155 30.12 234.779 30.12C234.243 30.12 233.759 29.996 233.326 29.748C232.895 29.5 232.551 29.16 232.295 28.728C232.047 28.288 231.923 27.792 231.923 27.24C231.923 26.68 232.047 26.184 232.295 25.752C232.551 25.32 232.895 24.98 233.326 24.732C233.759 24.484 234.243 24.36 234.779 24.36C235.155 24.36 235.519 24.424 235.871 24.552C236.231 24.672 236.507 24.844 236.699 25.068V26.268C236.619 26.084 236.483 25.916 236.291 25.764C236.099 25.612 235.871 25.492 235.607 25.404C235.351 25.308 235.075 25.26 234.779 25.26C234.419 25.26 234.095 25.344 233.807 25.512C233.527 25.68 233.303 25.916 233.135 26.22C232.975 26.516 232.895 26.856 232.895 27.24ZM237.353 24.48H240.593V25.38H237.353V24.48ZM238.493 24.72H239.453V30H238.493V24.72ZM246.3 24.48L242.7 32.64H241.62L243.132 29.22L241.02 24.48H242.16L243.912 28.8L243.516 28.752L245.22 24.48H246.3ZM247.769 27.12H249.365C249.749 27.12 250.093 27.16 250.397 27.24C250.701 27.32 250.941 27.46 251.117 27.66C251.293 27.86 251.381 28.14 251.381 28.5C251.381 28.916 251.241 29.272 250.961 29.568C250.689 29.856 250.237 30 249.605 30H247.769V29.16H249.365C249.725 29.16 249.989 29.084 250.157 28.932C250.333 28.78 250.421 28.596 250.421 28.38C250.421 28.268 250.397 28.168 250.349 28.08C250.309 27.992 250.245 27.912 250.157 27.84C250.077 27.768 249.969 27.716 249.833 27.684C249.705 27.644 249.549 27.624 249.365 27.624H247.769V27.12ZM247.769 27.36V26.796H249.245C249.389 26.796 249.517 26.78 249.629 26.748C249.749 26.708 249.849 26.652 249.929 26.58C250.009 26.508 250.069 26.428 250.109 26.34C250.157 26.244 250.181 26.144 250.181 26.04C250.181 25.824 250.097 25.652 249.929 25.524C249.761 25.388 249.533 25.32 249.245 25.32H247.769V24.48H249.245C249.589 24.48 249.901 24.532 250.181 24.636C250.469 24.732 250.701 24.892 250.877 25.116C251.053 25.332 251.141 25.62 251.141 25.98C251.141 26.292 251.053 26.552 250.877 26.76C250.701 26.96 250.469 27.112 250.181 27.216C249.901 27.312 249.589 27.36 249.245 27.36H247.769ZM247.205 24.48H248.165V30H247.205V24.48ZM253.074 28.38C253.074 28.572 253.126 28.736 253.23 28.872C253.334 29 253.474 29.1 253.65 29.172C253.826 29.236 254.022 29.268 254.238 29.268C254.558 29.268 254.842 29.22 255.09 29.124C255.338 29.028 255.53 28.876 255.666 28.668C255.81 28.46 255.882 28.184 255.882 27.84L256.074 28.44C256.074 28.792 255.978 29.096 255.786 29.352C255.602 29.6 255.354 29.792 255.042 29.928C254.73 30.056 254.382 30.12 253.998 30.12C253.654 30.12 253.338 30.056 253.05 29.928C252.762 29.8 252.53 29.612 252.354 29.364C252.186 29.108 252.102 28.792 252.102 28.416C252.102 28.024 252.198 27.692 252.39 27.42C252.582 27.148 252.854 26.94 253.206 26.796C253.558 26.644 253.974 26.568 254.454 26.568C254.806 26.568 255.106 26.616 255.354 26.712C255.61 26.8 255.814 26.904 255.966 27.024C256.118 27.136 256.222 27.228 256.278 27.3V27.864C256.006 27.672 255.73 27.532 255.45 27.444C255.17 27.348 254.854 27.3 254.502 27.3C254.182 27.3 253.914 27.344 253.698 27.432C253.49 27.52 253.334 27.644 253.23 27.804C253.126 27.964 253.074 28.156 253.074 28.38ZM253.074 25.776L252.606 25.044C252.814 24.892 253.094 24.74 253.446 24.588C253.798 24.436 254.222 24.36 254.718 24.36C255.142 24.36 255.51 24.428 255.822 24.564C256.142 24.692 256.39 24.88 256.566 25.128C256.75 25.376 256.842 25.68 256.842 26.04V30H255.882V26.04C255.882 25.76 255.762 25.552 255.522 25.416C255.29 25.272 255.022 25.2 254.718 25.2C254.454 25.2 254.214 25.236 253.998 25.308C253.782 25.372 253.594 25.452 253.434 25.548C253.282 25.636 253.162 25.712 253.074 25.776ZM260.326 28.32V27.42H262.21V28.32H260.326ZM261.526 24.48H262.486V30H261.526V24.48ZM259.126 24.48V26.064C259.126 26.384 259.162 26.644 259.234 26.844C259.306 27.044 259.43 27.192 259.606 27.288C259.782 27.376 260.022 27.42 260.326 27.42V28.32C259.774 28.32 259.338 28.244 259.018 28.092C258.706 27.94 258.486 27.7 258.358 27.372C258.23 27.036 258.166 26.6 258.166 26.064V24.48H259.126ZM264.723 28.38C264.723 28.572 264.775 28.736 264.879 28.872C264.983 29 265.123 29.1 265.299 29.172C265.475 29.236 265.671 29.268 265.887 29.268C266.207 29.268 266.491 29.22 266.739 29.124C266.987 29.028 267.179 28.876 267.315 28.668C267.459 28.46 267.531 28.184 267.531 27.84L267.723 28.44C267.723 28.792 267.627 29.096 267.435 29.352C267.251 29.6 267.003 29.792 266.691 29.928C266.379 30.056 266.031 30.12 265.647 30.12C265.303 30.12 264.987 30.056 264.699 29.928C264.411 29.8 264.179 29.612 264.003 29.364C263.835 29.108 263.751 28.792 263.751 28.416C263.751 28.024 263.847 27.692 264.039 27.42C264.231 27.148 264.503 26.94 264.855 26.796C265.207 26.644 265.623 26.568 266.103 26.568C266.455 26.568 266.755 26.616 267.003 26.712C267.259 26.8 267.463 26.904 267.615 27.024C267.767 27.136 267.871 27.228 267.927 27.3V27.864C267.655 27.672 267.379 27.532 267.099 27.444C266.819 27.348 266.503 27.3 266.151 27.3C265.831 27.3 265.563 27.344 265.347 27.432C265.139 27.52 264.983 27.644 264.879 27.804C264.775 27.964 264.723 28.156 264.723 28.38ZM264.723 25.776L264.255 25.044C264.463 24.892 264.743 24.74 265.095 24.588C265.447 24.436 265.871 24.36 266.367 24.36C266.791 24.36 267.159 24.428 267.471 24.564C267.791 24.692 268.039 24.88 268.215 25.128C268.399 25.376 268.491 25.68 268.491 26.04V30H267.531V26.04C267.531 25.76 267.411 25.552 267.171 25.416C266.939 25.272 266.671 25.2 266.367 25.2C266.103 25.2 265.863 25.236 265.647 25.308C265.431 25.372 265.243 25.452 265.083 25.548C264.931 25.636 264.811 25.712 264.723 25.776ZM272.873 24.48H276.113V25.38H272.873V24.48ZM274.013 24.72H274.973V30H274.013V24.72ZM277.508 28.38C277.508 28.572 277.56 28.736 277.664 28.872C277.768 29 277.908 29.1 278.084 29.172C278.26 29.236 278.456 29.268 278.672 29.268C278.992 29.268 279.276 29.22 279.524 29.124C279.772 29.028 279.964 28.876 280.1 28.668C280.244 28.46 280.316 28.184 280.316 27.84L280.508 28.44C280.508 28.792 280.412 29.096 280.22 29.352C280.036 29.6 279.788 29.792 279.476 29.928C279.164 30.056 278.816 30.12 278.432 30.12C278.088 30.12 277.772 30.056 277.484 29.928C277.196 29.8 276.964 29.612 276.788 29.364C276.62 29.108 276.536 28.792 276.536 28.416C276.536 28.024 276.632 27.692 276.824 27.42C277.016 27.148 277.288 26.94 277.64 26.796C277.992 26.644 278.408 26.568 278.888 26.568C279.24 26.568 279.54 26.616 279.788 26.712C280.044 26.8 280.248 26.904 280.4 27.024C280.552 27.136 280.656 27.228 280.712 27.3V27.864C280.44 27.672 280.164 27.532 279.884 27.444C279.604 27.348 279.288 27.3 278.936 27.3C278.616 27.3 278.348 27.344 278.132 27.432C277.924 27.52 277.768 27.644 277.664 27.804C277.56 27.964 277.508 28.156 277.508 28.38ZM277.508 25.776L277.04 25.044C277.248 24.892 277.528 24.74 277.88 24.588C278.232 24.436 278.656 24.36 279.152 24.36C279.576 24.36 279.944 24.428 280.256 24.564C280.576 24.692 280.824 24.88 281 25.128C281.184 25.376 281.276 25.68 281.276 26.04V30H280.316V26.04C280.316 25.76 280.196 25.552 279.956 25.416C279.724 25.272 279.456 25.2 279.152 25.2C278.888 25.2 278.648 25.236 278.432 25.308C278.216 25.372 278.028 25.452 277.868 25.548C277.716 25.636 277.596 25.712 277.508 25.776ZM135.687 44.24C135.687 44.624 135.767 44.964 135.927 45.26C136.095 45.556 136.319 45.792 136.599 45.968C136.887 46.136 137.211 46.22 137.571 46.22C137.867 46.22 138.143 46.176 138.399 46.088C138.663 45.992 138.891 45.868 139.083 45.716C139.275 45.556 139.411 45.388 139.491 45.212V46.412C139.299 46.636 139.023 46.812 138.663 46.94C138.311 47.06 137.947 47.12 137.571 47.12C137.035 47.12 136.551 46.996 136.119 46.748C135.687 46.5 135.343 46.16 135.087 45.728C134.839 45.288 134.715 44.792 134.715 44.24C134.715 43.68 134.839 43.184 135.087 42.752C135.343 42.32 135.687 41.98 136.119 41.732C136.551 41.484 137.035 41.36 137.571 41.36C137.947 41.36 138.311 41.424 138.663 41.552C139.023 41.672 139.299 41.844 139.491 42.068V43.268C139.411 43.084 139.275 42.916 139.083 42.764C138.891 42.612 138.663 42.492 138.399 42.404C138.143 42.308 137.867 42.26 137.571 42.26C137.211 42.26 136.887 42.344 136.599 42.512C136.319 42.68 136.095 42.916 135.927 43.22C135.767 43.516 135.687 43.856 135.687 44.24ZM141.118 44.48V43.664H144.802C144.77 43.376 144.69 43.124 144.562 42.908C144.442 42.684 144.27 42.512 144.046 42.392C143.83 42.264 143.562 42.2 143.242 42.2C142.922 42.2 142.63 42.268 142.366 42.404C142.102 42.54 141.89 42.736 141.73 42.992C141.578 43.24 141.502 43.536 141.502 43.88L141.478 44.24C141.478 44.664 141.55 45.024 141.694 45.32C141.838 45.616 142.042 45.84 142.306 45.992C142.57 46.144 142.882 46.22 143.242 46.22C143.514 46.22 143.754 46.18 143.962 46.1C144.178 46.012 144.37 45.896 144.538 45.752C144.706 45.6 144.85 45.424 144.97 45.224L145.75 45.716C145.566 45.996 145.362 46.244 145.138 46.46C144.914 46.668 144.642 46.832 144.322 46.952C144.002 47.064 143.602 47.12 143.122 47.12C142.626 47.12 142.178 46.996 141.778 46.748C141.386 46.5 141.074 46.16 140.842 45.728C140.618 45.288 140.506 44.792 140.506 44.24C140.506 44.136 140.51 44.036 140.518 43.94C140.526 43.844 140.538 43.748 140.554 43.652C140.634 43.196 140.794 42.796 141.034 42.452C141.274 42.108 141.582 41.84 141.958 41.648C142.342 41.456 142.77 41.36 143.242 41.36C143.762 41.36 144.218 41.476 144.61 41.708C145.002 41.94 145.306 42.268 145.522 42.692C145.738 43.108 145.846 43.608 145.846 44.192C145.846 44.24 145.846 44.288 145.846 44.336C145.846 44.384 145.842 44.432 145.834 44.48H141.118ZM148.062 49.64H147.102V41.48H148.062V49.64ZM152.682 44.24C152.682 44.832 152.558 45.344 152.31 45.776C152.062 46.208 151.73 46.54 151.314 46.772C150.906 47.004 150.45 47.12 149.946 47.12C149.49 47.12 149.086 47.004 148.734 46.772C148.39 46.54 148.118 46.208 147.918 45.776C147.726 45.344 147.63 44.832 147.63 44.24C147.63 43.64 147.726 43.128 147.918 42.704C148.118 42.272 148.39 41.94 148.734 41.708C149.086 41.476 149.49 41.36 149.946 41.36C150.45 41.36 150.906 41.476 151.314 41.708C151.73 41.94 152.062 42.272 152.31 42.704C152.558 43.128 152.682 43.64 152.682 44.24ZM151.71 44.24C151.71 43.816 151.622 43.456 151.446 43.16C151.278 42.864 151.05 42.64 150.762 42.488C150.482 42.336 150.17 42.26 149.826 42.26C149.546 42.26 149.27 42.336 148.998 42.488C148.726 42.64 148.502 42.864 148.326 43.16C148.15 43.456 148.062 43.816 148.062 44.24C148.062 44.664 148.15 45.024 148.326 45.32C148.502 45.616 148.726 45.84 148.998 45.992C149.27 46.144 149.546 46.22 149.826 46.22C150.17 46.22 150.482 46.144 150.762 45.992C151.05 45.84 151.278 45.616 151.446 45.32C151.622 45.024 151.71 44.664 151.71 44.24ZM154.569 44.12H156.165C156.549 44.12 156.893 44.16 157.197 44.24C157.501 44.32 157.741 44.46 157.917 44.66C158.093 44.86 158.181 45.14 158.181 45.5C158.181 45.916 158.041 46.272 157.761 46.568C157.489 46.856 157.037 47 156.405 47H154.569V46.16H156.165C156.525 46.16 156.789 46.084 156.957 45.932C157.133 45.78 157.221 45.596 157.221 45.38C157.221 45.268 157.197 45.168 157.149 45.08C157.109 44.992 157.045 44.912 156.957 44.84C156.877 44.768 156.769 44.716 156.633 44.684C156.505 44.644 156.349 44.624 156.165 44.624H154.569V44.12ZM154.569 44.36V43.796H156.045C156.189 43.796 156.317 43.78 156.429 43.748C156.549 43.708 156.649 43.652 156.729 43.58C156.809 43.508 156.869 43.428 156.909 43.34C156.957 43.244 156.981 43.144 156.981 43.04C156.981 42.824 156.897 42.652 156.729 42.524C156.561 42.388 156.333 42.32 156.045 42.32H154.569V41.48H156.045C156.389 41.48 156.701 41.532 156.981 41.636C157.269 41.732 157.501 41.892 157.677 42.116C157.853 42.332 157.941 42.62 157.941 42.98C157.941 43.292 157.853 43.552 157.677 43.76C157.501 43.96 157.269 44.112 156.981 44.216C156.701 44.312 156.389 44.36 156.045 44.36H154.569ZM154.005 41.48H154.965V47H154.005V41.48ZM159.575 44.48V43.664H163.259C163.227 43.376 163.147 43.124 163.019 42.908C162.899 42.684 162.727 42.512 162.503 42.392C162.287 42.264 162.019 42.2 161.699 42.2C161.379 42.2 161.087 42.268 160.823 42.404C160.559 42.54 160.347 42.736 160.187 42.992C160.035 43.24 159.959 43.536 159.959 43.88L159.935 44.24C159.935 44.664 160.007 45.024 160.151 45.32C160.295 45.616 160.499 45.84 160.763 45.992C161.027 46.144 161.339 46.22 161.699 46.22C161.971 46.22 162.211 46.18 162.419 46.1C162.635 46.012 162.827 45.896 162.995 45.752C163.163 45.6 163.307 45.424 163.427 45.224L164.207 45.716C164.023 45.996 163.819 46.244 163.595 46.46C163.371 46.668 163.099 46.832 162.779 46.952C162.459 47.064 162.059 47.12 161.579 47.12C161.083 47.12 160.635 46.996 160.235 46.748C159.843 46.5 159.531 46.16 159.299 45.728C159.075 45.288 158.963 44.792 158.963 44.24C158.963 44.136 158.967 44.036 158.975 43.94C158.983 43.844 158.995 43.748 159.011 43.652C159.091 43.196 159.251 42.796 159.491 42.452C159.731 42.108 160.039 41.84 160.415 41.648C160.799 41.456 161.227 41.36 161.699 41.36C162.219 41.36 162.675 41.476 163.067 41.708C163.459 41.94 163.763 42.268 163.979 42.692C164.195 43.108 164.303 43.608 164.303 44.192C164.303 44.24 164.303 44.288 164.303 44.336C164.303 44.384 164.299 44.432 164.291 44.48H159.575ZM166.519 49.64H165.559V41.48H166.519V49.64ZM171.139 44.24C171.139 44.832 171.015 45.344 170.767 45.776C170.519 46.208 170.187 46.54 169.771 46.772C169.363 47.004 168.907 47.12 168.403 47.12C167.947 47.12 167.543 47.004 167.191 46.772C166.847 46.54 166.575 46.208 166.375 45.776C166.183 45.344 166.087 44.832 166.087 44.24C166.087 43.64 166.183 43.128 166.375 42.704C166.575 42.272 166.847 41.94 167.191 41.708C167.543 41.476 167.947 41.36 168.403 41.36C168.907 41.36 169.363 41.476 169.771 41.708C170.187 41.94 170.519 42.272 170.767 42.704C171.015 43.128 171.139 43.64 171.139 44.24ZM170.167 44.24C170.167 43.816 170.079 43.456 169.903 43.16C169.735 42.864 169.507 42.64 169.219 42.488C168.939 42.336 168.627 42.26 168.283 42.26C168.003 42.26 167.727 42.336 167.455 42.488C167.183 42.64 166.959 42.864 166.783 43.16C166.607 43.456 166.519 43.816 166.519 44.24C166.519 44.664 166.607 45.024 166.783 45.32C166.959 45.616 167.183 45.84 167.455 45.992C167.727 46.144 168.003 46.22 168.283 46.22C168.627 46.22 168.939 46.144 169.219 45.992C169.507 45.84 169.735 45.616 169.903 45.32C170.079 45.024 170.167 44.664 170.167 44.24ZM173.027 44.54V43.64H177.107V44.54H173.027ZM176.483 41.48H177.443V47H176.483V41.48ZM172.463 41.48H173.423V47H172.463V41.48ZM178.768 44.24C178.768 43.68 178.892 43.184 179.14 42.752C179.396 42.32 179.74 41.98 180.172 41.732C180.604 41.484 181.088 41.36 181.624 41.36C182.168 41.36 182.652 41.484 183.076 41.732C183.508 41.98 183.848 42.32 184.096 42.752C184.352 43.184 184.48 43.68 184.48 44.24C184.48 44.792 184.352 45.288 184.096 45.728C183.848 46.16 183.508 46.5 183.076 46.748C182.652 46.996 182.168 47.12 181.624 47.12C181.088 47.12 180.604 46.996 180.172 46.748C179.74 46.5 179.396 46.16 179.14 45.728C178.892 45.288 178.768 44.792 178.768 44.24ZM179.74 44.24C179.74 44.624 179.82 44.964 179.98 45.26C180.148 45.556 180.372 45.792 180.652 45.968C180.94 46.136 181.264 46.22 181.624 46.22C181.984 46.22 182.304 46.136 182.584 45.968C182.872 45.792 183.096 45.556 183.256 45.26C183.424 44.964 183.508 44.624 183.508 44.24C183.508 43.856 183.424 43.516 183.256 43.22C183.096 42.916 182.872 42.68 182.584 42.512C182.304 42.344 181.984 42.26 181.624 42.26C181.264 42.26 180.94 42.344 180.652 42.512C180.372 42.68 180.148 42.916 179.98 43.22C179.82 43.516 179.74 43.856 179.74 44.24ZM185.858 41.48H188.798V42.38H186.818V47H185.858V41.48ZM189.104 44.24C189.104 43.68 189.228 43.184 189.476 42.752C189.732 42.32 190.076 41.98 190.508 41.732C190.94 41.484 191.424 41.36 191.96 41.36C192.504 41.36 192.988 41.484 193.412 41.732C193.844 41.98 194.184 42.32 194.432 42.752C194.688 43.184 194.816 43.68 194.816 44.24C194.816 44.792 194.688 45.288 194.432 45.728C194.184 46.16 193.844 46.5 193.412 46.748C192.988 46.996 192.504 47.12 191.96 47.12C191.424 47.12 190.94 46.996 190.508 46.748C190.076 46.5 189.732 46.16 189.476 45.728C189.228 45.288 189.104 44.792 189.104 44.24ZM190.076 44.24C190.076 44.624 190.156 44.964 190.316 45.26C190.484 45.556 190.708 45.792 190.988 45.968C191.276 46.136 191.6 46.22 191.96 46.22C192.32 46.22 192.64 46.136 192.92 45.968C193.208 45.792 193.432 45.556 193.592 45.26C193.76 44.964 193.844 44.624 193.844 44.24C193.844 43.856 193.76 43.516 193.592 43.22C193.432 42.916 193.208 42.68 192.92 42.512C192.64 42.344 192.32 42.26 191.96 42.26C191.6 42.26 191.276 42.344 190.988 42.512C190.708 42.68 190.484 42.916 190.316 43.22C190.156 43.516 190.076 43.856 190.076 44.24ZM204.232 41.48V47H203.272V42.38H200.692V47H199.732V41.48H204.232ZM206.937 49.64H205.977V41.48H206.937V49.64ZM211.557 44.24C211.557 44.832 211.433 45.344 211.185 45.776C210.937 46.208 210.605 46.54 210.189 46.772C209.781 47.004 209.325 47.12 208.821 47.12C208.365 47.12 207.961 47.004 207.609 46.772C207.265 46.54 206.993 46.208 206.793 45.776C206.601 45.344 206.505 44.832 206.505 44.24C206.505 43.64 206.601 43.128 206.793 42.704C206.993 42.272 207.265 41.94 207.609 41.708C207.961 41.476 208.365 41.36 208.821 41.36C209.325 41.36 209.781 41.476 210.189 41.708C210.605 41.94 210.937 42.272 211.185 42.704C211.433 43.128 211.557 43.64 211.557 44.24ZM210.585 44.24C210.585 43.816 210.497 43.456 210.321 43.16C210.153 42.864 209.925 42.64 209.637 42.488C209.357 42.336 209.045 42.26 208.701 42.26C208.421 42.26 208.145 42.336 207.873 42.488C207.601 42.64 207.377 42.864 207.201 43.16C207.025 43.456 206.937 43.816 206.937 44.24C206.937 44.664 207.025 45.024 207.201 45.32C207.377 45.616 207.601 45.84 207.873 45.992C208.145 46.144 208.421 46.22 208.701 46.22C209.045 46.22 209.357 46.144 209.637 45.992C209.925 45.84 210.153 45.616 210.321 45.32C210.497 45.024 210.585 44.664 210.585 44.24ZM212.4 44.24C212.4 43.68 212.524 43.184 212.772 42.752C213.028 42.32 213.372 41.98 213.804 41.732C214.236 41.484 214.72 41.36 215.256 41.36C215.8 41.36 216.284 41.484 216.708 41.732C217.14 41.98 217.48 42.32 217.728 42.752C217.984 43.184 218.112 43.68 218.112 44.24C218.112 44.792 217.984 45.288 217.728 45.728C217.48 46.16 217.14 46.5 216.708 46.748C216.284 46.996 215.8 47.12 215.256 47.12C214.72 47.12 214.236 46.996 213.804 46.748C213.372 46.5 213.028 46.16 212.772 45.728C212.524 45.288 212.4 44.792 212.4 44.24ZM213.372 44.24C213.372 44.624 213.452 44.964 213.612 45.26C213.78 45.556 214.004 45.792 214.284 45.968C214.572 46.136 214.896 46.22 215.256 46.22C215.616 46.22 215.936 46.136 216.216 45.968C216.504 45.792 216.728 45.556 216.888 45.26C217.056 44.964 217.14 44.624 217.14 44.24C217.14 43.856 217.056 43.516 216.888 43.22C216.728 42.916 216.504 42.68 216.216 42.512C215.936 42.344 215.616 42.26 215.256 42.26C214.896 42.26 214.572 42.344 214.284 42.512C214.004 42.68 213.78 42.916 213.612 43.22C213.452 43.516 213.372 43.856 213.372 44.24ZM219.491 41.48H222.431V42.38H220.451V47H219.491V41.48ZM224.292 49.64H223.332V41.48H224.292V49.64ZM228.912 44.24C228.912 44.832 228.788 45.344 228.54 45.776C228.292 46.208 227.96 46.54 227.544 46.772C227.136 47.004 226.68 47.12 226.176 47.12C225.72 47.12 225.316 47.004 224.964 46.772C224.62 46.54 224.348 46.208 224.148 45.776C223.956 45.344 223.86 44.832 223.86 44.24C223.86 43.64 223.956 43.128 224.148 42.704C224.348 42.272 224.62 41.94 224.964 41.708C225.316 41.476 225.72 41.36 226.176 41.36C226.68 41.36 227.136 41.476 227.544 41.708C227.96 41.94 228.292 42.272 228.54 42.704C228.788 43.128 228.912 43.64 228.912 44.24ZM227.94 44.24C227.94 43.816 227.852 43.456 227.676 43.16C227.508 42.864 227.28 42.64 226.992 42.488C226.712 42.336 226.4 42.26 226.056 42.26C225.776 42.26 225.5 42.336 225.228 42.488C224.956 42.64 224.732 42.864 224.556 43.16C224.38 43.456 224.292 43.816 224.292 44.24C224.292 44.664 224.38 45.024 224.556 45.32C224.732 45.616 224.956 45.84 225.228 45.992C225.5 46.144 225.776 46.22 226.056 46.22C226.4 46.22 226.712 46.144 226.992 45.992C227.28 45.84 227.508 45.616 227.676 45.32C227.852 45.024 227.94 44.664 227.94 44.24ZM230.668 45.38C230.668 45.572 230.72 45.736 230.824 45.872C230.928 46 231.068 46.1 231.244 46.172C231.42 46.236 231.616 46.268 231.832 46.268C232.152 46.268 232.436 46.22 232.684 46.124C232.932 46.028 233.124 45.876 233.26 45.668C233.404 45.46 233.476 45.184 233.476 44.84L233.668 45.44C233.668 45.792 233.572 46.096 233.38 46.352C233.196 46.6 232.948 46.792 232.636 46.928C232.324 47.056 231.976 47.12 231.592 47.12C231.248 47.12 230.932 47.056 230.644 46.928C230.356 46.8 230.124 46.612 229.948 46.364C229.78 46.108 229.696 45.792 229.696 45.416C229.696 45.024 229.792 44.692 229.984 44.42C230.176 44.148 230.448 43.94 230.8 43.796C231.152 43.644 231.568 43.568 232.048 43.568C232.4 43.568 232.7 43.616 232.948 43.712C233.204 43.8 233.408 43.904 233.56 44.024C233.712 44.136 233.816 44.228 233.872 44.3V44.864C233.6 44.672 233.324 44.532 233.044 44.444C232.764 44.348 232.448 44.3 232.096 44.3C231.776 44.3 231.508 44.344 231.292 44.432C231.084 44.52 230.928 44.644 230.824 44.804C230.72 44.964 230.668 45.156 230.668 45.38ZM230.668 42.776L230.2 42.044C230.408 41.892 230.688 41.74 231.04 41.588C231.392 41.436 231.816 41.36 232.312 41.36C232.736 41.36 233.104 41.428 233.416 41.564C233.736 41.692 233.984 41.88 234.16 42.128C234.344 42.376 234.436 42.68 234.436 43.04V47H233.476V43.04C233.476 42.76 233.356 42.552 233.116 42.416C232.884 42.272 232.616 42.2 232.312 42.2C232.048 42.2 231.808 42.236 231.592 42.308C231.376 42.372 231.188 42.452 231.028 42.548C230.876 42.636 230.756 42.712 230.668 42.776ZM241.304 47L240.404 42.62L240.944 41.06L242.384 47H241.304ZM238.424 46.172L240.944 41.06L241.064 42.98L238.784 47.372L238.424 46.172ZM238.784 47.372L236.54 42.98L236.66 41.06L239.144 46.172L238.784 47.372ZM235.22 47L236.66 41.06L237.2 42.62L236.3 47H235.22ZM247.671 41.48L244.071 49.64H242.991L244.503 46.22L242.391 41.48H243.531L245.283 45.8L244.887 45.752L246.591 41.48H247.671ZM249.14 44.12H250.736C251.12 44.12 251.464 44.16 251.768 44.24C252.072 44.32 252.312 44.46 252.488 44.66C252.664 44.86 252.752 45.14 252.752 45.5C252.752 45.916 252.612 46.272 252.332 46.568C252.06 46.856 251.608 47 250.976 47H249.14V46.16H250.736C251.096 46.16 251.36 46.084 251.528 45.932C251.704 45.78 251.792 45.596 251.792 45.38C251.792 45.268 251.768 45.168 251.72 45.08C251.68 44.992 251.616 44.912 251.528 44.84C251.448 44.768 251.34 44.716 251.204 44.684C251.076 44.644 250.92 44.624 250.736 44.624H249.14V44.12ZM249.14 44.36V43.796H250.616C250.76 43.796 250.888 43.78 251 43.748C251.12 43.708 251.22 43.652 251.3 43.58C251.38 43.508 251.44 43.428 251.48 43.34C251.528 43.244 251.552 43.144 251.552 43.04C251.552 42.824 251.468 42.652 251.3 42.524C251.132 42.388 250.904 42.32 250.616 42.32H249.14V41.48H250.616C250.96 41.48 251.272 41.532 251.552 41.636C251.84 41.732 252.072 41.892 252.248 42.116C252.424 42.332 252.512 42.62 252.512 42.98C252.512 43.292 252.424 43.552 252.248 43.76C252.072 43.96 251.84 44.112 251.552 44.216C251.272 44.312 250.96 44.36 250.616 44.36H249.14ZM248.576 41.48H249.536V47H248.576V41.48ZM254.445 45.38C254.445 45.572 254.497 45.736 254.601 45.872C254.705 46 254.845 46.1 255.021 46.172C255.197 46.236 255.393 46.268 255.609 46.268C255.929 46.268 256.213 46.22 256.461 46.124C256.709 46.028 256.901 45.876 257.037 45.668C257.181 45.46 257.253 45.184 257.253 44.84L257.445 45.44C257.445 45.792 257.349 46.096 257.157 46.352C256.973 46.6 256.725 46.792 256.413 46.928C256.101 47.056 255.753 47.12 255.369 47.12C255.025 47.12 254.709 47.056 254.421 46.928C254.133 46.8 253.901 46.612 253.725 46.364C253.557 46.108 253.473 45.792 253.473 45.416C253.473 45.024 253.569 44.692 253.761 44.42C253.953 44.148 254.225 43.94 254.577 43.796C254.929 43.644 255.345 43.568 255.825 43.568C256.177 43.568 256.477 43.616 256.725 43.712C256.981 43.8 257.185 43.904 257.337 44.024C257.489 44.136 257.593 44.228 257.649 44.3V44.864C257.377 44.672 257.101 44.532 256.821 44.444C256.541 44.348 256.225 44.3 255.873 44.3C255.553 44.3 255.285 44.344 255.069 44.432C254.861 44.52 254.705 44.644 254.601 44.804C254.497 44.964 254.445 45.156 254.445 45.38ZM254.445 42.776L253.977 42.044C254.185 41.892 254.465 41.74 254.817 41.588C255.169 41.436 255.593 41.36 256.089 41.36C256.513 41.36 256.881 41.428 257.193 41.564C257.513 41.692 257.761 41.88 257.937 42.128C258.121 42.376 258.213 42.68 258.213 43.04V47H257.253V43.04C257.253 42.76 257.133 42.552 256.893 42.416C256.661 42.272 256.393 42.2 256.089 42.2C255.825 42.2 255.585 42.236 255.369 42.308C255.153 42.372 254.965 42.452 254.805 42.548C254.653 42.636 254.533 42.712 254.445 42.776ZM260.402 44.54V43.64H264.482V44.54H260.402ZM263.858 41.48H264.818V47H263.858V41.48ZM259.838 41.48H260.798V47H259.838V41.48ZM267.187 44.54V43.64H271.267V44.54H267.187ZM270.643 41.48H271.603V47H270.643V41.48ZM266.623 41.48H267.583V47H266.623V41.48ZM274.2 47H273.144L275.184 44.12H276.24L274.2 47ZM277.704 47H276.744V41.48H277.704V47ZM277.14 43.952V44.792H275.424C275.048 44.792 274.704 44.736 274.392 44.624C274.088 44.512 273.848 44.336 273.672 44.096C273.496 43.848 273.408 43.528 273.408 43.136C273.408 42.736 273.496 42.416 273.672 42.176C273.848 41.936 274.088 41.76 274.392 41.648C274.704 41.536 275.048 41.48 275.424 41.48H277.14V42.32H275.424C275.192 42.32 274.996 42.352 274.836 42.416C274.684 42.472 274.568 42.56 274.488 42.68C274.408 42.8 274.368 42.952 274.368 43.136C274.368 43.32 274.408 43.472 274.488 43.592C274.568 43.712 274.684 43.804 274.836 43.868C274.996 43.924 275.192 43.952 275.424 43.952H277.14ZM280.085 45.68L281.045 46.04L279.725 49.04L279.029 48.788L280.085 45.68ZM123.512 62.38C123.512 62.572 123.564 62.736 123.668 62.872C123.772 63 123.912 63.1 124.088 63.172C124.264 63.236 124.46 63.268 124.676 63.268C124.996 63.268 125.28 63.22 125.528 63.124C125.776 63.028 125.968 62.876 126.104 62.668C126.248 62.46 126.32 62.184 126.32 61.84L126.512 62.44C126.512 62.792 126.416 63.096 126.224 63.352C126.04 63.6 125.792 63.792 125.48 63.928C125.168 64.056 124.82 64.12 124.436 64.12C124.092 64.12 123.776 64.056 123.488 63.928C123.2 63.8 122.968 63.612 122.792 63.364C122.624 63.108 122.54 62.792 122.54 62.416C122.54 62.024 122.636 61.692 122.828 61.42C123.02 61.148 123.292 60.94 123.644 60.796C123.996 60.644 124.412 60.568 124.892 60.568C125.244 60.568 125.544 60.616 125.792 60.712C126.048 60.8 126.252 60.904 126.404 61.024C126.556 61.136 126.66 61.228 126.716 61.3V61.864C126.444 61.672 126.168 61.532 125.888 61.444C125.608 61.348 125.292 61.3 124.94 61.3C124.62 61.3 124.352 61.344 124.136 61.432C123.928 61.52 123.772 61.644 123.668 61.804C123.564 61.964 123.512 62.156 123.512 62.38ZM123.512 59.776L123.044 59.044C123.252 58.892 123.532 58.74 123.884 58.588C124.236 58.436 124.66 58.36 125.156 58.36C125.58 58.36 125.948 58.428 126.26 58.564C126.58 58.692 126.828 58.88 127.004 59.128C127.188 59.376 127.28 59.68 127.28 60.04V64H126.32V60.04C126.32 59.76 126.2 59.552 125.96 59.416C125.728 59.272 125.46 59.2 125.156 59.2C124.892 59.2 124.652 59.236 124.436 59.308C124.22 59.372 124.032 59.452 123.872 59.548C123.72 59.636 123.6 59.712 123.512 59.776ZM131.662 58.48H134.902V59.38H131.662V58.48ZM132.802 58.72H133.762V64H132.802V58.72ZM136.297 62.38C136.297 62.572 136.349 62.736 136.453 62.872C136.557 63 136.697 63.1 136.873 63.172C137.049 63.236 137.245 63.268 137.461 63.268C137.781 63.268 138.065 63.22 138.313 63.124C138.561 63.028 138.753 62.876 138.889 62.668C139.033 62.46 139.105 62.184 139.105 61.84L139.297 62.44C139.297 62.792 139.201 63.096 139.009 63.352C138.825 63.6 138.577 63.792 138.265 63.928C137.953 64.056 137.605 64.12 137.221 64.12C136.877 64.12 136.561 64.056 136.273 63.928C135.985 63.8 135.753 63.612 135.577 63.364C135.409 63.108 135.325 62.792 135.325 62.416C135.325 62.024 135.421 61.692 135.613 61.42C135.805 61.148 136.077 60.94 136.429 60.796C136.781 60.644 137.197 60.568 137.677 60.568C138.029 60.568 138.329 60.616 138.577 60.712C138.833 60.8 139.037 60.904 139.189 61.024C139.341 61.136 139.445 61.228 139.501 61.3V61.864C139.229 61.672 138.953 61.532 138.673 61.444C138.393 61.348 138.077 61.3 137.725 61.3C137.405 61.3 137.137 61.344 136.921 61.432C136.713 61.52 136.557 61.644 136.453 61.804C136.349 61.964 136.297 62.156 136.297 62.38ZM136.297 59.776L135.829 59.044C136.037 58.892 136.317 58.74 136.669 58.588C137.021 58.436 137.445 58.36 137.941 58.36C138.365 58.36 138.733 58.428 139.045 58.564C139.365 58.692 139.613 58.88 139.789 59.128C139.973 59.376 140.065 59.68 140.065 60.04V64H139.105V60.04C139.105 59.76 138.985 59.552 138.745 59.416C138.513 59.272 138.245 59.2 137.941 59.2C137.677 59.2 137.437 59.236 137.221 59.308C137.005 59.372 136.817 59.452 136.657 59.548C136.505 59.636 136.385 59.712 136.297 59.776ZM141.629 58.48H142.589V64H141.629V58.48ZM144.629 58.48H145.829L143.429 60.76L146.069 64H144.869L142.229 60.76L144.629 58.48ZM146.318 61.24C146.318 60.68 146.442 60.184 146.69 59.752C146.946 59.32 147.29 58.98 147.722 58.732C148.154 58.484 148.638 58.36 149.174 58.36C149.718 58.36 150.202 58.484 150.626 58.732C151.058 58.98 151.398 59.32 151.646 59.752C151.902 60.184 152.03 60.68 152.03 61.24C152.03 61.792 151.902 62.288 151.646 62.728C151.398 63.16 151.058 63.5 150.626 63.748C150.202 63.996 149.718 64.12 149.174 64.12C148.638 64.12 148.154 63.996 147.722 63.748C147.29 63.5 146.946 63.16 146.69 62.728C146.442 62.288 146.318 61.792 146.318 61.24ZM147.29 61.24C147.29 61.624 147.37 61.964 147.53 62.26C147.698 62.556 147.922 62.792 148.202 62.968C148.49 63.136 148.814 63.22 149.174 63.22C149.534 63.22 149.854 63.136 150.134 62.968C150.422 62.792 150.646 62.556 150.806 62.26C150.974 61.964 151.058 61.624 151.058 61.24C151.058 60.856 150.974 60.516 150.806 60.22C150.646 59.916 150.422 59.68 150.134 59.512C149.854 59.344 149.534 59.26 149.174 59.26C148.814 59.26 148.49 59.344 148.202 59.512C147.922 59.68 147.698 59.916 147.53 60.22C147.37 60.516 147.29 60.856 147.29 61.24ZM158.933 58.48H160.133L157.613 60.88L160.373 64H159.173L156.533 60.76L158.933 58.48ZM156.773 58.48V64H155.873V58.48H156.773ZM153.713 58.48L156.113 60.76L153.473 64H152.273L155.033 60.88L152.513 58.48H153.713ZM164.389 61.24C164.389 60.68 164.513 60.184 164.761 59.752C165.017 59.32 165.361 58.98 165.793 58.732C166.225 58.484 166.709 58.36 167.245 58.36C167.789 58.36 168.273 58.484 168.697 58.732C169.129 58.98 169.469 59.32 169.717 59.752C169.973 60.184 170.101 60.68 170.101 61.24C170.101 61.792 169.973 62.288 169.717 62.728C169.469 63.16 169.129 63.5 168.697 63.748C168.273 63.996 167.789 64.12 167.245 64.12C166.709 64.12 166.225 63.996 165.793 63.748C165.361 63.5 165.017 63.16 164.761 62.728C164.513 62.288 164.389 61.792 164.389 61.24ZM165.361 61.24C165.361 61.624 165.441 61.964 165.601 62.26C165.769 62.556 165.993 62.792 166.273 62.968C166.561 63.136 166.885 63.22 167.245 63.22C167.605 63.22 167.925 63.136 168.205 62.968C168.493 62.792 168.717 62.556 168.877 62.26C169.045 61.964 169.129 61.624 169.129 61.24C169.129 60.856 169.045 60.516 168.877 60.22C168.717 59.916 168.493 59.68 168.205 59.512C167.925 59.344 167.605 59.26 167.245 59.26C166.885 59.26 166.561 59.344 166.273 59.512C165.993 59.68 165.769 59.916 165.601 60.22C165.441 60.516 165.361 60.856 165.361 61.24ZM171.36 58.48H172.32V64H171.36V58.48ZM174.36 58.48H175.56L173.16 60.76L175.8 64H174.6L171.96 60.76L174.36 58.48ZM177.605 66.64H176.645V58.48H177.605V66.64ZM182.225 61.24C182.225 61.832 182.101 62.344 181.853 62.776C181.605 63.208 181.273 63.54 180.857 63.772C180.449 64.004 179.993 64.12 179.489 64.12C179.033 64.12 178.629 64.004 178.277 63.772C177.933 63.54 177.661 63.208 177.461 62.776C177.269 62.344 177.173 61.832 177.173 61.24C177.173 60.64 177.269 60.128 177.461 59.704C177.661 59.272 177.933 58.94 178.277 58.708C178.629 58.476 179.033 58.36 179.489 58.36C179.993 58.36 180.449 58.476 180.857 58.708C181.273 58.94 181.605 59.272 181.853 59.704C182.101 60.128 182.225 60.64 182.225 61.24ZM181.253 61.24C181.253 60.816 181.165 60.456 180.989 60.16C180.821 59.864 180.593 59.64 180.305 59.488C180.025 59.336 179.713 59.26 179.369 59.26C179.089 59.26 178.813 59.336 178.541 59.488C178.269 59.64 178.045 59.864 177.869 60.16C177.693 60.456 177.605 60.816 177.605 61.24C177.605 61.664 177.693 62.024 177.869 62.32C178.045 62.616 178.269 62.84 178.541 62.992C178.813 63.144 179.089 63.22 179.369 63.22C179.713 63.22 180.025 63.144 180.305 62.992C180.593 62.84 180.821 62.616 180.989 62.32C181.165 62.024 181.253 61.664 181.253 61.24ZM183.68 61.48V60.664H187.364C187.332 60.376 187.252 60.124 187.124 59.908C187.004 59.684 186.832 59.512 186.608 59.392C186.392 59.264 186.124 59.2 185.804 59.2C185.484 59.2 185.192 59.268 184.928 59.404C184.664 59.54 184.452 59.736 184.292 59.992C184.14 60.24 184.064 60.536 184.064 60.88L184.04 61.24C184.04 61.664 184.112 62.024 184.256 62.32C184.4 62.616 184.604 62.84 184.868 62.992C185.132 63.144 185.444 63.22 185.804 63.22C186.076 63.22 186.316 63.18 186.524 63.1C186.74 63.012 186.932 62.896 187.1 62.752C187.268 62.6 187.412 62.424 187.532 62.224L188.312 62.716C188.128 62.996 187.924 63.244 187.7 63.46C187.476 63.668 187.204 63.832 186.884 63.952C186.564 64.064 186.164 64.12 185.684 64.12C185.188 64.12 184.74 63.996 184.34 63.748C183.948 63.5 183.636 63.16 183.404 62.728C183.18 62.288 183.068 61.792 183.068 61.24C183.068 61.136 183.072 61.036 183.08 60.94C183.088 60.844 183.1 60.748 183.116 60.652C183.196 60.196 183.356 59.796 183.596 59.452C183.836 59.108 184.144 58.84 184.52 58.648C184.904 58.456 185.332 58.36 185.804 58.36C186.324 58.36 186.78 58.476 187.172 58.708C187.564 58.94 187.868 59.268 188.084 59.692C188.3 60.108 188.408 60.608 188.408 61.192C188.408 61.24 188.408 61.288 188.408 61.336C188.408 61.384 188.404 61.432 188.396 61.48H183.68ZM194.968 64L194.068 59.62L194.608 58.06L196.048 64H194.968ZM192.088 63.172L194.608 58.06L194.728 59.98L192.448 64.372L192.088 63.172ZM192.448 64.372L190.204 59.98L190.324 58.06L192.808 63.172L192.448 64.372ZM188.884 64L190.324 58.06L190.864 59.62L189.964 64H188.884ZM196.533 61.24C196.533 60.68 196.657 60.184 196.905 59.752C197.161 59.32 197.505 58.98 197.937 58.732C198.369 58.484 198.853 58.36 199.389 58.36C199.933 58.36 200.417 58.484 200.841 58.732C201.273 58.98 201.613 59.32 201.861 59.752C202.117 60.184 202.245 60.68 202.245 61.24C202.245 61.792 202.117 62.288 201.861 62.728C201.613 63.16 201.273 63.5 200.841 63.748C200.417 63.996 199.933 64.12 199.389 64.12C198.853 64.12 198.369 63.996 197.937 63.748C197.505 63.5 197.161 63.16 196.905 62.728C196.657 62.288 196.533 61.792 196.533 61.24ZM197.505 61.24C197.505 61.624 197.585 61.964 197.745 62.26C197.913 62.556 198.137 62.792 198.417 62.968C198.705 63.136 199.029 63.22 199.389 63.22C199.749 63.22 200.069 63.136 200.349 62.968C200.637 62.792 200.861 62.556 201.021 62.26C201.189 61.964 201.273 61.624 201.273 61.24C201.273 60.856 201.189 60.516 201.021 60.22C200.861 59.916 200.637 59.68 200.349 59.512C200.069 59.344 199.749 59.26 199.389 59.26C199.029 59.26 198.705 59.344 198.417 59.512C198.137 59.68 197.913 59.916 197.745 60.22C197.585 60.516 197.505 60.856 197.505 61.24ZM203.624 58.48H206.564V59.38H204.584V64H203.624V58.48ZM206.869 61.24C206.869 60.68 206.993 60.184 207.241 59.752C207.497 59.32 207.841 58.98 208.273 58.732C208.705 58.484 209.189 58.36 209.725 58.36C210.269 58.36 210.753 58.484 211.177 58.732C211.609 58.98 211.949 59.32 212.197 59.752C212.453 60.184 212.581 60.68 212.581 61.24C212.581 61.792 212.453 62.288 212.197 62.728C211.949 63.16 211.609 63.5 211.177 63.748C210.753 63.996 210.269 64.12 209.725 64.12C209.189 64.12 208.705 63.996 208.273 63.748C207.841 63.5 207.497 63.16 207.241 62.728C206.993 62.288 206.869 61.792 206.869 61.24ZM207.841 61.24C207.841 61.624 207.921 61.964 208.081 62.26C208.249 62.556 208.473 62.792 208.753 62.968C209.041 63.136 209.365 63.22 209.725 63.22C210.085 63.22 210.405 63.136 210.685 62.968C210.973 62.792 211.197 62.556 211.357 62.26C211.525 61.964 211.609 61.624 211.609 61.24C211.609 60.856 211.525 60.516 211.357 60.22C211.197 59.916 210.973 59.68 210.685 59.512C210.405 59.344 210.085 59.26 209.725 59.26C209.365 59.26 209.041 59.344 208.753 59.512C208.473 59.68 208.249 59.916 208.081 60.22C207.921 60.516 207.841 60.856 207.841 61.24ZM219.634 57.28H220.594V65.2H219.634V57.28ZM217.018 61.24C217.018 60.68 217.146 60.184 217.402 59.752C217.658 59.32 218.018 58.98 218.482 58.732C218.954 58.484 219.498 58.36 220.114 58.36C220.738 58.36 221.282 58.484 221.746 58.732C222.21 58.98 222.57 59.32 222.826 59.752C223.082 60.184 223.21 60.68 223.21 61.24C223.21 61.792 223.082 62.288 222.826 62.728C222.57 63.16 222.21 63.5 221.746 63.748C221.282 63.996 220.738 64.12 220.114 64.12C219.498 64.12 218.954 63.996 218.482 63.748C218.018 63.5 217.658 63.16 217.402 62.728C217.146 62.288 217.018 61.792 217.018 61.24ZM217.99 61.24C217.99 61.624 218.074 61.964 218.242 62.26C218.418 62.556 218.662 62.792 218.974 62.968C219.294 63.136 219.674 63.22 220.114 63.22C220.554 63.22 220.93 63.136 221.242 62.968C221.562 62.792 221.806 62.556 221.974 62.26C222.15 61.964 222.238 61.624 222.238 61.24C222.238 60.856 222.15 60.516 221.974 60.22C221.806 59.916 221.562 59.68 221.242 59.512C220.93 59.344 220.554 59.26 220.114 59.26C219.674 59.26 219.294 59.344 218.974 59.512C218.662 59.68 218.418 59.916 218.242 60.22C218.074 60.516 217.99 60.856 217.99 61.24ZM228.909 58.48L225.309 66.64H224.229L225.741 63.22L223.629 58.48H224.769L226.521 62.8L226.125 62.752L227.829 58.48H228.909ZM230.378 61.54V60.64H234.458V61.54H230.378ZM233.834 58.48H234.794V64H233.834V58.48ZM229.814 58.48H230.774V64H229.814V58.48ZM236.539 58.48H237.499V64H236.539V58.48ZM239.539 58.48H240.739L238.339 60.76L240.979 64H239.779L237.139 60.76L239.539 58.48ZM246.384 63.1H247.344V65.08H246.504V64H241.884V58.48H242.844V63.1H245.424V58.48H246.384V63.1ZM249.846 57.568V64H248.79V57.568H249.846ZM249.33 55.156C249.49 55.156 249.63 55.212 249.75 55.324C249.878 55.428 249.942 55.596 249.942 55.828C249.942 56.052 249.878 56.22 249.75 56.332C249.63 56.444 249.49 56.5 249.33 56.5C249.154 56.5 249.006 56.444 248.886 56.332C248.766 56.22 248.706 56.052 248.706 55.828C248.706 55.596 248.766 55.428 248.886 55.324C249.006 55.212 249.154 55.156 249.33 55.156ZM251.283 61.24C251.283 60.68 251.407 60.184 251.655 59.752C251.911 59.32 252.255 58.98 252.687 58.732C253.119 58.484 253.603 58.36 254.139 58.36C254.683 58.36 255.167 58.484 255.591 58.732C256.023 58.98 256.363 59.32 256.611 59.752C256.867 60.184 256.995 60.68 256.995 61.24C256.995 61.792 256.867 62.288 256.611 62.728C256.363 63.16 256.023 63.5 255.591 63.748C255.167 63.996 254.683 64.12 254.139 64.12C253.603 64.12 253.119 63.996 252.687 63.748C252.255 63.5 251.911 63.16 251.655 62.728C251.407 62.288 251.283 61.792 251.283 61.24ZM252.255 61.24C252.255 61.624 252.335 61.964 252.495 62.26C252.663 62.556 252.887 62.792 253.167 62.968C253.455 63.136 253.779 63.22 254.139 63.22C254.499 63.22 254.819 63.136 255.099 62.968C255.387 62.792 255.611 62.556 255.771 62.26C255.939 61.964 256.023 61.624 256.023 61.24C256.023 60.856 255.939 60.516 255.771 60.22C255.611 59.916 255.387 59.68 255.099 59.512C254.819 59.344 254.499 59.26 254.139 59.26C253.779 59.26 253.455 59.344 253.167 59.512C252.887 59.68 252.663 59.916 252.495 60.22C252.335 60.516 252.255 60.856 252.255 61.24ZM258.878 61.54V60.64H262.958V61.54H258.878ZM262.334 58.48H263.294V64H262.334V58.48ZM258.314 58.48H259.274V64H258.314V58.48ZM265.531 62.38C265.531 62.572 265.583 62.736 265.687 62.872C265.791 63 265.931 63.1 266.107 63.172C266.283 63.236 266.479 63.268 266.695 63.268C267.015 63.268 267.299 63.22 267.547 63.124C267.795 63.028 267.987 62.876 268.123 62.668C268.267 62.46 268.339 62.184 268.339 61.84L268.531 62.44C268.531 62.792 268.435 63.096 268.243 63.352C268.059 63.6 267.811 63.792 267.499 63.928C267.187 64.056 266.839 64.12 266.455 64.12C266.111 64.12 265.795 64.056 265.507 63.928C265.219 63.8 264.987 63.612 264.811 63.364C264.643 63.108 264.559 62.792 264.559 62.416C264.559 62.024 264.655 61.692 264.847 61.42C265.039 61.148 265.311 60.94 265.663 60.796C266.015 60.644 266.431 60.568 266.911 60.568C267.263 60.568 267.563 60.616 267.811 60.712C268.067 60.8 268.271 60.904 268.423 61.024C268.575 61.136 268.679 61.228 268.735 61.3V61.864C268.463 61.672 268.187 61.532 267.907 61.444C267.627 61.348 267.311 61.3 266.959 61.3C266.639 61.3 266.371 61.344 266.155 61.432C265.947 61.52 265.791 61.644 265.687 61.804C265.583 61.964 265.531 62.156 265.531 62.38ZM265.531 59.776L265.063 59.044C265.271 58.892 265.551 58.74 265.903 58.588C266.255 58.436 266.679 58.36 267.175 58.36C267.599 58.36 267.967 58.428 268.279 58.564C268.599 58.692 268.847 58.88 269.023 59.128C269.207 59.376 269.299 59.68 269.299 60.04V64H268.339V60.04C268.339 59.76 268.219 59.552 267.979 59.416C267.747 59.272 267.479 59.2 267.175 59.2C266.911 59.2 266.671 59.236 266.455 59.308C266.239 59.372 266.051 59.452 265.891 59.548C265.739 59.636 265.619 59.712 265.531 59.776ZM275.759 58.48V64H274.799V59.38H271.979V62.08C271.979 62.512 271.911 62.872 271.775 63.16C271.647 63.44 271.447 63.652 271.175 63.796C270.903 63.932 270.559 64 270.143 64V63.124C270.383 63.124 270.587 63.048 270.755 62.896C270.931 62.744 271.019 62.472 271.019 62.08V58.48H275.759ZM281.995 58.48L278.395 66.64H277.315L278.827 63.22L276.715 58.48H277.855L279.607 62.8L279.211 62.752L280.915 58.48H281.995Z" fill="white"/>
<circle cx="155" cy="310" r="149.5" stroke="#FF3100"/>
<line x1="251.632" y1="16.1406" x2="121.48" y2="460.39" stroke="white" stroke-opacity="0.26" stroke-dasharray="9 9"/>
<line x1="103" y1="369.36" x2="184.482" y2="438.712" stroke="white" stroke-opacity="0.24"/>
<line x1="108.36" y1="444.834" x2="177.712" y2="363.352" stroke="white" stroke-opacity="0.13"/>
</svg>
