<svg width="300" height="455" viewBox="0 0 300 455" fill="none" xmlns="http://www.w3.org/2000/svg">
<path d="M109.742 287.27H99.6016V305H96.0016V284H113.312V305H109.742V287.27ZM116.741 298.1C116.741 296.68 117.061 295.43 117.701 294.35C118.361 293.27 119.251 292.43 120.371 291.83C121.491 291.21 122.761 290.9 124.181 290.9C125.601 290.9 126.861 291.21 127.961 291.83C129.081 292.43 129.971 293.27 130.631 294.35C131.291 295.43 131.621 296.68 131.621 298.1C131.621 299.5 131.291 300.75 130.631 301.85C129.971 302.93 129.081 303.78 127.961 304.4C126.861 305 125.601 305.3 124.181 305.3C122.761 305.3 121.491 305 120.371 304.4C119.251 303.78 118.361 302.93 117.701 301.85C117.061 300.75 116.741 299.5 116.741 298.1ZM120.071 298.1C120.071 298.96 120.251 299.72 120.611 300.38C120.971 301.02 121.461 301.53 122.081 301.91C122.701 302.27 123.401 302.45 124.181 302.45C124.941 302.45 125.631 302.27 126.251 301.91C126.891 301.53 127.391 301.02 127.751 300.38C128.111 299.72 128.291 298.96 128.291 298.1C128.291 297.24 128.111 296.48 127.751 295.82C127.391 295.16 126.891 294.65 126.251 294.29C125.631 293.93 124.941 293.75 124.181 293.75C123.401 293.75 122.701 293.93 122.081 294.29C121.461 294.65 120.971 295.16 120.611 295.82C120.251 296.48 120.071 297.24 120.071 298.1ZM147.745 291.2V305H144.565V294.2H138.295V300.2C138.295 301.28 138.115 302.18 137.755 302.9C137.395 303.6 136.815 304.13 136.015 304.49C135.235 304.83 134.205 305 132.925 305V302.06C133.525 302.06 134.035 301.9 134.455 301.58C134.895 301.26 135.115 300.65 135.115 299.75V291.2H147.745ZM153.625 299.06V296.39H164.185V299.06H153.625ZM162.445 291.2H165.625V305H162.445V291.2ZM152.215 291.2H155.395V305H152.215V291.2ZM183.143 291.2H186.413V305H183.143V291.2ZM169.763 291.2H173.003V305H169.763V291.2ZM172.013 298.64V296.21H176.303C177.723 296.21 178.913 296.56 179.873 297.26C180.853 297.94 181.343 299.02 181.343 300.5C181.343 301.48 181.123 302.31 180.683 302.99C180.243 303.65 179.643 304.15 178.883 304.49C178.123 304.83 177.263 305 176.303 305H172.013V302.33H176.003C176.483 302.33 176.883 302.26 177.203 302.12C177.523 301.98 177.773 301.77 177.953 301.49C178.133 301.21 178.223 300.88 178.223 300.5C178.223 299.9 178.033 299.44 177.653 299.12C177.273 298.8 176.723 298.64 176.003 298.64H172.013ZM203.045 294.2L190.655 306.05L190.805 302L203.195 290.15L203.045 294.2ZM193.835 291.2V302.39L190.655 306.05V291.2H193.835ZM203.195 290.15V305H200.015V293.81L203.195 290.15ZM192.245 284.15H194.705C194.705 284.45 194.775 284.76 194.915 285.08C195.075 285.4 195.325 285.67 195.665 285.89C196.005 286.11 196.465 286.22 197.045 286.22C197.625 286.22 198.085 286.11 198.425 285.89C198.765 285.67 199.005 285.4 199.145 285.08C199.305 284.76 199.385 284.45 199.385 284.15H201.875C201.875 284.87 201.685 285.56 201.305 286.22C200.945 286.88 200.405 287.41 199.685 287.81C198.985 288.21 198.105 288.41 197.045 288.41C196.005 288.41 195.125 288.21 194.405 287.81C193.685 287.41 193.145 286.88 192.785 286.22C192.425 285.56 192.245 284.87 192.245 284.15ZM48.1034 345.15H50.5034V350.85H47.5334V348H35.8034V334.2H39.0434V345.15H44.8334V334.2H48.1034V345.15ZM65.9208 337.2L53.5308 349.05L53.6808 345L66.0708 333.15L65.9208 337.2ZM56.7108 334.2V345.39L53.5308 349.05V334.2H56.7108ZM66.0708 333.15V348H62.8908V336.81L66.0708 333.15ZM70.2244 334.2H73.4044V348H70.2244V334.2ZM78.4744 334.2H82.4344L76.4944 339.9L83.0344 348H79.1044L72.5044 339.9L78.4744 334.2ZM98.2479 334.2V348H95.0679V337.2H88.7979V343.2C88.7979 344.28 88.6179 345.18 88.2579 345.9C87.8979 346.6 87.3179 347.13 86.5179 347.49C85.7379 347.83 84.7079 348 83.4279 348V345.06C84.0279 345.06 84.5379 344.9 84.9579 344.58C85.3979 344.26 85.6179 343.65 85.6179 342.75V334.2H98.2479ZM114.862 354.6H111.592V334.2H114.862V354.6ZM126.292 341.1C126.292 342.62 125.982 343.93 125.362 345.03C124.742 346.11 123.922 346.94 122.902 347.52C121.882 348.08 120.772 348.36 119.572 348.36C118.392 348.36 117.362 348.07 116.482 347.49C115.622 346.89 114.952 346.05 114.472 344.97C114.012 343.87 113.782 342.58 113.782 341.1C113.782 339.6 114.012 338.31 114.472 337.23C114.952 336.15 115.622 335.32 116.482 334.74C117.362 334.14 118.392 333.84 119.572 333.84C120.772 333.84 121.882 334.13 122.902 334.71C123.922 335.27 124.742 336.09 125.362 337.17C125.982 338.25 126.292 339.56 126.292 341.1ZM122.932 341.1C122.932 340.18 122.742 339.4 122.362 338.76C121.982 338.1 121.472 337.61 120.832 337.29C120.212 336.95 119.522 336.78 118.762 336.78C118.142 336.78 117.532 336.95 116.932 337.29C116.332 337.61 115.832 338.09 115.432 338.73C115.052 339.37 114.862 340.16 114.862 341.1C114.862 342.04 115.052 342.83 115.432 343.47C115.832 344.11 116.332 344.6 116.932 344.94C117.532 345.26 118.142 345.42 118.762 345.42C119.522 345.42 120.212 345.26 120.832 344.94C121.472 344.6 121.982 344.11 122.362 343.47C122.742 342.81 122.932 342.02 122.932 341.1ZM131.418 343.92C131.418 344.34 131.528 344.69 131.748 344.97C131.988 345.25 132.298 345.47 132.678 345.63C133.058 345.77 133.488 345.84 133.968 345.84C134.668 345.84 135.298 345.73 135.858 345.51C136.418 345.29 136.858 344.94 137.178 344.46C137.498 343.98 137.658 343.34 137.658 342.54L138.138 344.1C138.138 344.98 137.908 345.74 137.448 346.38C136.988 347 136.368 347.48 135.588 347.82C134.808 348.14 133.938 348.3 132.978 348.3C132.078 348.3 131.258 348.14 130.518 347.82C129.798 347.5 129.218 347.03 128.778 346.41C128.358 345.77 128.148 344.98 128.148 344.04C128.148 343.1 128.388 342.29 128.868 341.61C129.348 340.93 130.028 340.41 130.908 340.05C131.808 339.69 132.858 339.51 134.058 339.51C134.858 339.51 135.568 339.61 136.188 339.81C136.828 340.01 137.358 340.24 137.778 340.5C138.198 340.76 138.488 340.99 138.648 341.19V342.9C138.028 342.44 137.398 342.11 136.758 341.91C136.118 341.69 135.378 341.58 134.538 341.58C133.858 341.58 133.278 341.68 132.798 341.88C132.338 342.06 131.988 342.33 131.748 342.69C131.528 343.03 131.418 343.44 131.418 343.92ZM130.698 337.83L129.408 335.52C130.028 335.14 130.818 334.77 131.778 334.41C132.738 334.05 133.838 333.87 135.078 333.87C136.218 333.87 137.218 334.04 138.078 334.38C138.938 334.72 139.608 335.21 140.088 335.85C140.588 336.47 140.838 337.24 140.838 338.16V348H137.658V338.52C137.658 337.88 137.388 337.39 136.848 337.05C136.328 336.69 135.688 336.51 134.928 336.51C134.268 336.51 133.658 336.59 133.098 336.75C132.538 336.91 132.048 337.1 131.628 337.32C131.228 337.52 130.918 337.69 130.698 337.83ZM150.131 341.1V339.66C150.931 339.66 151.501 339.51 151.841 339.21C152.201 338.89 152.381 338.5 152.381 338.04C152.381 337.58 152.201 337.21 151.841 336.93C151.501 336.65 151.031 336.51 150.431 336.51C149.931 336.51 149.511 336.61 149.171 336.81C148.831 336.99 148.571 337.23 148.391 337.53C148.231 337.81 148.151 338.11 148.151 338.43H145.031C145.031 337.57 145.261 336.8 145.721 336.12C146.181 335.44 146.811 334.9 147.611 334.5C148.431 334.1 149.361 333.9 150.401 333.9C151.381 333.9 152.261 334.07 153.041 334.41C153.821 334.75 154.431 335.21 154.871 335.79C155.311 336.37 155.531 337.01 155.531 337.71C155.531 338.71 155.071 339.54 154.151 340.2C153.231 340.84 151.891 341.14 150.131 341.1ZM150.341 348.3C148.581 348.3 147.181 347.86 146.141 346.98C145.121 346.08 144.531 344.92 144.371 343.5H147.551C147.691 344.14 147.971 344.68 148.391 345.12C148.831 345.54 149.481 345.75 150.341 345.75C150.901 345.75 151.381 345.67 151.781 345.51C152.181 345.35 152.481 345.13 152.681 344.85C152.901 344.55 153.011 344.2 153.011 343.8C153.011 343.38 152.901 343.02 152.681 342.72C152.461 342.42 152.131 342.19 151.691 342.03C151.271 341.87 150.751 341.79 150.131 341.79V340.2C151.991 340.16 153.451 340.46 154.511 341.1C155.591 341.72 156.131 342.67 156.131 343.95C156.131 344.85 155.871 345.63 155.351 346.29C154.851 346.93 154.161 347.43 153.281 347.79C152.401 348.13 151.421 348.3 150.341 348.3ZM162.703 354.6H159.433V334.2H162.703V354.6ZM174.133 341.1C174.133 342.62 173.823 343.93 173.203 345.03C172.583 346.11 171.763 346.94 170.743 347.52C169.723 348.08 168.613 348.36 167.413 348.36C166.233 348.36 165.203 348.07 164.323 347.49C163.463 346.89 162.793 346.05 162.313 344.97C161.853 343.87 161.623 342.58 161.623 341.1C161.623 339.6 161.853 338.31 162.313 337.23C162.793 336.15 163.463 335.32 164.323 334.74C165.203 334.14 166.233 333.84 167.413 333.84C168.613 333.84 169.723 334.13 170.743 334.71C171.763 335.27 172.583 336.09 173.203 337.17C173.823 338.25 174.133 339.56 174.133 341.1ZM170.773 341.1C170.773 340.18 170.583 339.4 170.203 338.76C169.823 338.1 169.313 337.61 168.673 337.29C168.053 336.95 167.363 336.78 166.603 336.78C165.983 336.78 165.373 336.95 164.773 337.29C164.173 337.61 163.673 338.09 163.273 338.73C162.893 339.37 162.703 340.16 162.703 341.1C162.703 342.04 162.893 342.83 163.273 343.47C163.673 344.11 164.173 344.6 164.773 344.94C165.373 345.26 165.983 345.42 166.603 345.42C167.363 345.42 168.053 345.26 168.673 344.94C169.313 344.6 169.823 344.11 170.203 343.47C170.583 342.81 170.773 342.02 170.773 341.1ZM179.259 343.92C179.259 344.34 179.369 344.69 179.589 344.97C179.829 345.25 180.139 345.47 180.519 345.63C180.899 345.77 181.329 345.84 181.809 345.84C182.509 345.84 183.139 345.73 183.699 345.51C184.259 345.29 184.699 344.94 185.019 344.46C185.339 343.98 185.499 343.34 185.499 342.54L185.979 344.1C185.979 344.98 185.749 345.74 185.289 346.38C184.829 347 184.209 347.48 183.429 347.82C182.649 348.14 181.779 348.3 180.819 348.3C179.919 348.3 179.099 348.14 178.359 347.82C177.639 347.5 177.059 347.03 176.619 346.41C176.199 345.77 175.989 344.98 175.989 344.04C175.989 343.1 176.229 342.29 176.709 341.61C177.189 340.93 177.869 340.41 178.749 340.05C179.649 339.69 180.699 339.51 181.899 339.51C182.699 339.51 183.409 339.61 184.029 339.81C184.669 340.01 185.199 340.24 185.619 340.5C186.039 340.76 186.329 340.99 186.489 341.19V342.9C185.869 342.44 185.239 342.11 184.599 341.91C183.959 341.69 183.219 341.58 182.379 341.58C181.699 341.58 181.119 341.68 180.639 341.88C180.179 342.06 179.829 342.33 179.589 342.69C179.369 343.03 179.259 343.44 179.259 343.92ZM178.539 337.83L177.249 335.52C177.869 335.14 178.659 334.77 179.619 334.41C180.579 334.05 181.679 333.87 182.919 333.87C184.059 333.87 185.059 334.04 185.919 334.38C186.779 334.72 187.449 335.21 187.929 335.85C188.429 336.47 188.679 337.24 188.679 338.16V348H185.499V338.52C185.499 337.88 185.229 337.39 184.689 337.05C184.169 336.69 183.529 336.51 182.769 336.51C182.109 336.51 181.499 336.59 180.939 336.75C180.379 336.91 179.889 337.1 179.469 337.32C179.069 337.52 178.759 337.69 178.539 337.83ZM199.053 336.75L199.203 333.9C200.603 333.9 201.853 334.21 202.953 334.83C204.053 335.45 204.913 336.3 205.533 337.38C206.173 338.46 206.493 339.7 206.493 341.1C206.493 342.48 206.173 343.72 205.533 344.82C204.893 345.9 204.013 346.75 202.893 347.37C201.793 347.99 200.513 348.3 199.053 348.3C197.613 348.3 196.313 347.97 195.153 347.31C194.013 346.63 193.113 345.62 192.453 344.28C191.793 342.94 191.463 341.28 191.463 339.3L194.913 341.1C194.913 341.96 195.093 342.72 195.453 343.38C195.833 344.02 196.333 344.53 196.953 344.91C197.573 345.27 198.273 345.45 199.053 345.45C199.833 345.45 200.533 345.27 201.153 344.91C201.773 344.53 202.263 344.02 202.623 343.38C202.983 342.72 203.163 341.96 203.163 341.1C203.163 340.24 202.983 339.48 202.623 338.82C202.263 338.16 201.773 337.65 201.153 337.29C200.533 336.93 199.833 336.75 199.053 336.75ZM193.443 341.1C193.443 339.98 193.583 338.98 193.863 338.1C194.143 337.2 194.533 336.44 195.033 335.82C195.553 335.2 196.163 334.73 196.863 334.41C197.563 334.07 198.343 333.9 199.203 333.9L199.053 336.75C198.573 336.75 198.083 336.85 197.583 337.05C197.103 337.23 196.663 337.51 196.263 337.89C195.863 338.25 195.533 338.7 195.273 339.24C195.033 339.78 194.913 340.4 194.913 341.1H193.443ZM191.463 339.3C191.463 337.42 191.633 335.76 191.973 334.32C192.333 332.88 192.953 331.66 193.833 330.66C194.733 329.64 195.973 328.84 197.553 328.26C198.913 327.76 199.943 327.21 200.643 326.61C201.343 325.99 201.763 325.32 201.903 324.6H205.053C204.953 325.48 204.633 326.3 204.093 327.06C203.553 327.82 202.843 328.49 201.963 329.07C201.103 329.63 200.123 330.1 199.023 330.48C197.783 330.92 196.813 331.53 196.113 332.31C195.433 333.07 194.963 333.93 194.703 334.89C194.443 335.83 194.313 336.8 194.313 337.8L194.613 340.95L191.463 339.3ZM208.572 341.1C208.572 339.68 208.892 338.43 209.532 337.35C210.192 336.27 211.082 335.43 212.202 334.83C213.322 334.21 214.592 333.9 216.012 333.9C217.432 333.9 218.692 334.21 219.792 334.83C220.912 335.43 221.802 336.27 222.462 337.35C223.122 338.43 223.452 339.68 223.452 341.1C223.452 342.5 223.122 343.75 222.462 344.85C221.802 345.93 220.912 346.78 219.792 347.4C218.692 348 217.432 348.3 216.012 348.3C214.592 348.3 213.322 348 212.202 347.4C211.082 346.78 210.192 345.93 209.532 344.85C208.892 343.75 208.572 342.5 208.572 341.1ZM211.902 341.1C211.902 341.96 212.082 342.72 212.442 343.38C212.802 344.02 213.292 344.53 213.912 344.91C214.532 345.27 215.232 345.45 216.012 345.45C216.772 345.45 217.462 345.27 218.082 344.91C218.722 344.53 219.222 344.02 219.582 343.38C219.942 342.72 220.122 341.96 220.122 341.1C220.122 340.24 219.942 339.48 219.582 338.82C219.222 338.16 218.722 337.65 218.082 337.29C217.462 336.93 216.772 336.75 216.012 336.75C215.232 336.75 214.532 336.93 213.912 337.29C213.292 337.65 212.802 338.16 212.442 338.82C212.082 339.48 211.902 340.24 211.902 341.1ZM224.606 334.2H233.336V337.05H224.606V334.2ZM227.396 334.8H230.576V348H227.396V334.8ZM235.429 334.2H238.609V348H235.429V334.2ZM243.679 334.2H247.639L241.699 339.9L248.239 348H244.309L237.709 339.9L243.679 334.2ZM262.913 337.2L250.523 349.05L250.673 345L263.063 333.15L262.913 337.2ZM253.703 334.2V345.39L250.523 349.05V334.2H253.703ZM263.063 333.15V348H259.883V336.81L263.063 333.15Z" fill="white"/>
<path d="M66.2568 7.324L65.6328 13H64.6128L65.6328 4.18L68.9928 10.264L72.3528 4.18L73.3728 13H72.3528L71.7288 7.324L68.9928 12.22L66.2568 7.324ZM79.7277 7.48H80.6877V13H79.7277V7.48ZM74.7477 7.48H75.7077V13H74.7477V7.48ZM75.3117 10.408V9.568H77.0277C77.5957 9.568 78.0717 9.708 78.4557 9.988C78.8477 10.26 79.0437 10.692 79.0437 11.284C79.0437 11.676 78.9557 12 78.7797 12.256C78.6037 12.512 78.3637 12.7 78.0597 12.82C77.7557 12.94 77.4117 13 77.0277 13H75.3117V12.16H77.0277C77.2597 12.16 77.4517 12.128 77.6037 12.064C77.7637 11.992 77.8837 11.892 77.9637 11.764C78.0437 11.628 78.0837 11.468 78.0837 11.284C78.0837 11.004 77.9957 10.788 77.8197 10.636C77.6437 10.484 77.3797 10.408 77.0277 10.408H75.3117ZM86.9797 15.64H86.0197V7.48H86.9797V15.64ZM91.5997 10.24C91.5997 10.832 91.4757 11.344 91.2277 11.776C90.9797 12.208 90.6477 12.54 90.2317 12.772C89.8237 13.004 89.3677 13.12 88.8637 13.12C88.4077 13.12 88.0037 13.004 87.6517 12.772C87.3077 12.54 87.0357 12.208 86.8357 11.776C86.6437 11.344 86.5477 10.832 86.5477 10.24C86.5477 9.64 86.6437 9.128 86.8357 8.704C87.0357 8.272 87.3077 7.94 87.6517 7.708C88.0037 7.476 88.4077 7.36 88.8637 7.36C89.3677 7.36 89.8237 7.476 90.2317 7.708C90.6477 7.94 90.9797 8.272 91.2277 8.704C91.4757 9.128 91.5997 9.64 91.5997 10.24ZM90.6277 10.24C90.6277 9.816 90.5397 9.456 90.3637 9.16C90.1957 8.864 89.9677 8.64 89.6797 8.488C89.3997 8.336 89.0877 8.26 88.7437 8.26C88.4637 8.26 88.1877 8.336 87.9157 8.488C87.6437 8.64 87.4197 8.864 87.2437 9.16C87.0677 9.456 86.9797 9.816 86.9797 10.24C86.9797 10.664 87.0677 11.024 87.2437 11.32C87.4197 11.616 87.6437 11.84 87.9157 11.992C88.1877 12.144 88.4637 12.22 88.7437 12.22C89.0877 12.22 89.3997 12.144 89.6797 11.992C89.9677 11.84 90.1957 11.616 90.3637 11.32C90.5397 11.024 90.6277 10.664 90.6277 10.24ZM93.3554 11.38C93.3554 11.572 93.4074 11.736 93.5114 11.872C93.6154 12 93.7554 12.1 93.9314 12.172C94.1074 12.236 94.3034 12.268 94.5194 12.268C94.8394 12.268 95.1234 12.22 95.3714 12.124C95.6194 12.028 95.8114 11.876 95.9474 11.668C96.0914 11.46 96.1634 11.184 96.1634 10.84L96.3554 11.44C96.3554 11.792 96.2594 12.096 96.0674 12.352C95.8834 12.6 95.6354 12.792 95.3234 12.928C95.0114 13.056 94.6634 13.12 94.2794 13.12C93.9354 13.12 93.6194 13.056 93.3314 12.928C93.0434 12.8 92.8114 12.612 92.6354 12.364C92.4674 12.108 92.3834 11.792 92.3834 11.416C92.3834 11.024 92.4794 10.692 92.6714 10.42C92.8634 10.148 93.1354 9.94 93.4874 9.796C93.8394 9.644 94.2554 9.568 94.7354 9.568C95.0874 9.568 95.3874 9.616 95.6354 9.712C95.8914 9.8 96.0954 9.904 96.2474 10.024C96.3994 10.136 96.5034 10.228 96.5594 10.3V10.864C96.2874 10.672 96.0114 10.532 95.7314 10.444C95.4514 10.348 95.1354 10.3 94.7834 10.3C94.4634 10.3 94.1954 10.344 93.9794 10.432C93.7714 10.52 93.6154 10.644 93.5114 10.804C93.4074 10.964 93.3554 11.156 93.3554 11.38ZM93.3554 8.776L92.8874 8.044C93.0954 7.892 93.3754 7.74 93.7274 7.588C94.0794 7.436 94.5034 7.36 94.9994 7.36C95.4234 7.36 95.7914 7.428 96.1034 7.564C96.4234 7.692 96.6714 7.88 96.8474 8.128C97.0314 8.376 97.1234 8.68 97.1234 9.04V13H96.1634V9.04C96.1634 8.76 96.0434 8.552 95.8034 8.416C95.5714 8.272 95.3034 8.2 94.9994 8.2C94.7354 8.2 94.4954 8.236 94.2794 8.308C94.0634 8.372 93.8754 8.452 93.7154 8.548C93.5634 8.636 93.4434 8.712 93.3554 8.776ZM100.704 10.24V9.64C101.072 9.64 101.336 9.572 101.496 9.436C101.656 9.292 101.736 9.12 101.736 8.92C101.736 8.704 101.656 8.536 101.496 8.416C101.336 8.288 101.112 8.224 100.824 8.224C100.584 8.224 100.384 8.272 100.224 8.368C100.072 8.456 99.9597 8.568 99.8877 8.704C99.8157 8.832 99.7797 8.96 99.7797 9.088H98.8077C98.8077 8.776 98.8957 8.488 99.0717 8.224C99.2477 7.96 99.4877 7.752 99.7917 7.6C100.096 7.44 100.44 7.36 100.824 7.36C101.184 7.36 101.508 7.428 101.796 7.564C102.084 7.7 102.308 7.88 102.468 8.104C102.636 8.328 102.72 8.576 102.72 8.848C102.72 9.248 102.54 9.58 102.18 9.844C101.828 10.108 101.336 10.24 100.704 10.24ZM100.8 13.12C100.152 13.12 99.6317 12.944 99.2397 12.592C98.8557 12.24 98.6317 11.796 98.5677 11.26H99.5397C99.5957 11.524 99.7157 11.76 99.8997 11.968C100.084 12.176 100.384 12.28 100.8 12.28C101.056 12.28 101.272 12.244 101.448 12.172C101.632 12.1 101.772 11.996 101.868 11.86C101.964 11.724 102.012 11.568 102.012 11.392C102.012 11.2 101.96 11.036 101.856 10.9C101.76 10.764 101.612 10.66 101.412 10.588C101.22 10.516 100.984 10.48 100.704 10.48V9.88C101.392 9.88 101.94 10 102.348 10.24C102.756 10.48 102.96 10.86 102.96 11.38C102.96 11.74 102.86 12.052 102.66 12.316C102.468 12.572 102.208 12.772 101.88 12.916C101.552 13.052 101.192 13.12 100.8 13.12ZM105.296 15.64H104.336V7.48H105.296V15.64ZM109.916 10.24C109.916 10.832 109.792 11.344 109.544 11.776C109.296 12.208 108.964 12.54 108.548 12.772C108.14 13.004 107.684 13.12 107.18 13.12C106.724 13.12 106.32 13.004 105.968 12.772C105.624 12.54 105.352 12.208 105.152 11.776C104.96 11.344 104.864 10.832 104.864 10.24C104.864 9.64 104.96 9.128 105.152 8.704C105.352 8.272 105.624 7.94 105.968 7.708C106.32 7.476 106.724 7.36 107.18 7.36C107.684 7.36 108.14 7.476 108.548 7.708C108.964 7.94 109.296 8.272 109.544 8.704C109.792 9.128 109.916 9.64 109.916 10.24ZM108.944 10.24C108.944 9.816 108.856 9.456 108.68 9.16C108.512 8.864 108.284 8.64 107.996 8.488C107.716 8.336 107.404 8.26 107.06 8.26C106.78 8.26 106.504 8.336 106.232 8.488C105.96 8.64 105.736 8.864 105.56 9.16C105.384 9.456 105.296 9.816 105.296 10.24C105.296 10.664 105.384 11.024 105.56 11.32C105.736 11.616 105.96 11.84 106.232 11.992C106.504 12.144 106.78 12.22 107.06 12.22C107.404 12.22 107.716 12.144 107.996 11.992C108.284 11.84 108.512 11.616 108.68 11.32C108.856 11.024 108.944 10.664 108.944 10.24ZM111.672 11.38C111.672 11.572 111.724 11.736 111.828 11.872C111.932 12 112.072 12.1 112.248 12.172C112.424 12.236 112.62 12.268 112.836 12.268C113.156 12.268 113.44 12.22 113.688 12.124C113.936 12.028 114.128 11.876 114.264 11.668C114.408 11.46 114.48 11.184 114.48 10.84L114.672 11.44C114.672 11.792 114.576 12.096 114.384 12.352C114.2 12.6 113.952 12.792 113.64 12.928C113.328 13.056 112.98 13.12 112.596 13.12C112.252 13.12 111.936 13.056 111.648 12.928C111.36 12.8 111.128 12.612 110.952 12.364C110.784 12.108 110.7 11.792 110.7 11.416C110.7 11.024 110.796 10.692 110.988 10.42C111.18 10.148 111.452 9.94 111.804 9.796C112.156 9.644 112.572 9.568 113.052 9.568C113.404 9.568 113.704 9.616 113.952 9.712C114.208 9.8 114.412 9.904 114.564 10.024C114.716 10.136 114.82 10.228 114.876 10.3V10.864C114.604 10.672 114.328 10.532 114.048 10.444C113.768 10.348 113.452 10.3 113.1 10.3C112.78 10.3 112.512 10.344 112.296 10.432C112.088 10.52 111.932 10.644 111.828 10.804C111.724 10.964 111.672 11.156 111.672 11.38ZM111.672 8.776L111.204 8.044C111.412 7.892 111.692 7.74 112.044 7.588C112.396 7.436 112.82 7.36 113.316 7.36C113.74 7.36 114.108 7.428 114.42 7.564C114.74 7.692 114.988 7.88 115.164 8.128C115.348 8.376 115.44 8.68 115.44 9.04V13H114.48V9.04C114.48 8.76 114.36 8.552 114.12 8.416C113.888 8.272 113.62 8.2 113.316 8.2C113.052 8.2 112.812 8.236 112.596 8.308C112.38 8.372 112.192 8.452 112.032 8.548C111.88 8.636 111.76 8.712 111.672 8.776ZM119.44 8.26V7.36C119.984 7.36 120.468 7.484 120.892 7.732C121.324 7.98 121.664 8.32 121.912 8.752C122.168 9.184 122.296 9.68 122.296 10.24C122.296 10.792 122.168 11.288 121.912 11.728C121.664 12.16 121.324 12.5 120.892 12.748C120.468 12.996 119.984 13.12 119.44 13.12C118.904 13.12 118.42 12.988 117.988 12.724C117.556 12.452 117.212 12.048 116.956 11.512C116.708 10.976 116.584 10.312 116.584 9.52L117.544 10.24C117.544 10.624 117.628 10.964 117.796 11.26C117.964 11.556 118.188 11.792 118.468 11.968C118.756 12.136 119.08 12.22 119.44 12.22C119.8 12.22 120.12 12.136 120.4 11.968C120.688 11.792 120.912 11.556 121.072 11.26C121.24 10.964 121.324 10.624 121.324 10.24C121.324 9.856 121.24 9.516 121.072 9.22C120.912 8.916 120.688 8.68 120.4 8.512C120.12 8.344 119.8 8.26 119.44 8.26ZM117.112 10.24C117.112 9.792 117.168 9.392 117.28 9.04C117.392 8.68 117.552 8.376 117.76 8.128C117.968 7.88 118.212 7.692 118.492 7.564C118.78 7.428 119.096 7.36 119.44 7.36V8.26C119.232 8.26 119.016 8.304 118.792 8.392C118.568 8.48 118.36 8.608 118.168 8.776C117.984 8.944 117.832 9.152 117.712 9.4C117.6 9.64 117.544 9.92 117.544 10.24H117.112ZM116.584 9.52C116.584 8.768 116.656 8.104 116.8 7.528C116.944 6.952 117.196 6.464 117.556 6.064C117.924 5.664 118.428 5.352 119.068 5.128C119.612 4.944 120.016 4.724 120.28 4.468C120.552 4.204 120.716 3.928 120.772 3.64H121.72C121.68 3.992 121.552 4.316 121.336 4.612C121.12 4.9 120.836 5.152 120.484 5.368C120.14 5.584 119.748 5.764 119.308 5.908C118.812 6.068 118.424 6.312 118.144 6.64C117.872 6.96 117.684 7.32 117.58 7.72C117.476 8.12 117.424 8.52 117.424 8.92V10.156L116.584 9.52ZM124.047 11.38C124.047 11.572 124.099 11.736 124.203 11.872C124.307 12 124.447 12.1 124.623 12.172C124.799 12.236 124.995 12.268 125.211 12.268C125.531 12.268 125.815 12.22 126.063 12.124C126.311 12.028 126.503 11.876 126.639 11.668C126.783 11.46 126.855 11.184 126.855 10.84L127.047 11.44C127.047 11.792 126.951 12.096 126.759 12.352C126.575 12.6 126.327 12.792 126.015 12.928C125.703 13.056 125.355 13.12 124.971 13.12C124.627 13.12 124.311 13.056 124.023 12.928C123.735 12.8 123.503 12.612 123.327 12.364C123.159 12.108 123.075 11.792 123.075 11.416C123.075 11.024 123.171 10.692 123.363 10.42C123.555 10.148 123.827 9.94 124.179 9.796C124.531 9.644 124.947 9.568 125.427 9.568C125.779 9.568 126.079 9.616 126.327 9.712C126.583 9.8 126.787 9.904 126.939 10.024C127.091 10.136 127.195 10.228 127.251 10.3V10.864C126.979 10.672 126.703 10.532 126.423 10.444C126.143 10.348 125.827 10.3 125.475 10.3C125.155 10.3 124.887 10.344 124.671 10.432C124.463 10.52 124.307 10.644 124.203 10.804C124.099 10.964 124.047 11.156 124.047 11.38ZM124.047 8.776L123.579 8.044C123.787 7.892 124.067 7.74 124.419 7.588C124.771 7.436 125.195 7.36 125.691 7.36C126.115 7.36 126.483 7.428 126.795 7.564C127.115 7.692 127.363 7.88 127.539 8.128C127.723 8.376 127.815 8.68 127.815 9.04V13H126.855V9.04C126.855 8.76 126.735 8.552 126.495 8.416C126.263 8.272 125.995 8.2 125.691 8.2C125.427 8.2 125.187 8.236 124.971 8.308C124.755 8.372 124.567 8.452 124.407 8.548C124.255 8.636 124.135 8.712 124.047 8.776ZM128.599 7.48H131.839V8.38H128.599V7.48ZM129.739 7.72H130.699V13H129.739V7.72ZM137.782 7.48H138.742V13H137.782V7.48ZM132.802 7.48H133.762V13H132.802V7.48ZM133.366 10.408V9.568H135.082C135.65 9.568 136.126 9.708 136.51 9.988C136.902 10.26 137.098 10.692 137.098 11.284C137.098 11.676 137.01 12 136.834 12.256C136.658 12.512 136.418 12.7 136.114 12.82C135.81 12.94 135.466 13 135.082 13H133.366V12.16H135.082C135.314 12.16 135.506 12.128 135.658 12.064C135.818 11.992 135.938 11.892 136.018 11.764C136.098 11.628 136.138 11.468 136.138 11.284C136.138 11.004 136.05 10.788 135.874 10.636C135.698 10.484 135.434 10.408 135.082 10.408H133.366ZM141.101 10.12H142.697C143.081 10.12 143.425 10.16 143.729 10.24C144.033 10.32 144.273 10.46 144.449 10.66C144.625 10.86 144.713 11.14 144.713 11.5C144.713 11.916 144.573 12.272 144.293 12.568C144.021 12.856 143.569 13 142.937 13H141.101V12.16H142.697C143.057 12.16 143.321 12.084 143.489 11.932C143.665 11.78 143.753 11.596 143.753 11.38C143.753 11.268 143.729 11.168 143.681 11.08C143.641 10.992 143.577 10.912 143.489 10.84C143.409 10.768 143.301 10.716 143.165 10.684C143.037 10.644 142.881 10.624 142.697 10.624H141.101V10.12ZM141.101 10.36V9.796H142.577C142.721 9.796 142.849 9.78 142.961 9.748C143.081 9.708 143.181 9.652 143.261 9.58C143.341 9.508 143.401 9.428 143.441 9.34C143.489 9.244 143.513 9.144 143.513 9.04C143.513 8.824 143.429 8.652 143.261 8.524C143.093 8.388 142.865 8.32 142.577 8.32H141.101V7.48H142.577C142.921 7.48 143.233 7.532 143.513 7.636C143.801 7.732 144.033 7.892 144.209 8.116C144.385 8.332 144.473 8.62 144.473 8.98C144.473 9.292 144.385 9.552 144.209 9.76C144.033 9.96 143.801 10.112 143.513 10.216C143.233 10.312 142.921 10.36 142.577 10.36H141.101ZM140.537 7.48H141.497V13H140.537V7.48ZM146.406 11.38C146.406 11.572 146.458 11.736 146.562 11.872C146.666 12 146.806 12.1 146.982 12.172C147.158 12.236 147.354 12.268 147.57 12.268C147.89 12.268 148.174 12.22 148.422 12.124C148.67 12.028 148.862 11.876 148.998 11.668C149.142 11.46 149.214 11.184 149.214 10.84L149.406 11.44C149.406 11.792 149.31 12.096 149.118 12.352C148.934 12.6 148.686 12.792 148.374 12.928C148.062 13.056 147.714 13.12 147.33 13.12C146.986 13.12 146.67 13.056 146.382 12.928C146.094 12.8 145.862 12.612 145.686 12.364C145.518 12.108 145.434 11.792 145.434 11.416C145.434 11.024 145.53 10.692 145.722 10.42C145.914 10.148 146.186 9.94 146.538 9.796C146.89 9.644 147.306 9.568 147.786 9.568C148.138 9.568 148.438 9.616 148.686 9.712C148.942 9.8 149.146 9.904 149.298 10.024C149.45 10.136 149.554 10.228 149.61 10.3V10.864C149.338 10.672 149.062 10.532 148.782 10.444C148.502 10.348 148.186 10.3 147.834 10.3C147.514 10.3 147.246 10.344 147.03 10.432C146.822 10.52 146.666 10.644 146.562 10.804C146.458 10.964 146.406 11.156 146.406 11.38ZM146.406 8.776L145.938 8.044C146.146 7.892 146.426 7.74 146.778 7.588C147.13 7.436 147.554 7.36 148.05 7.36C148.474 7.36 148.842 7.428 149.154 7.564C149.474 7.692 149.722 7.88 149.898 8.128C150.082 8.376 150.174 8.68 150.174 9.04V13H149.214V9.04C149.214 8.76 149.094 8.552 148.854 8.416C148.622 8.272 148.354 8.2 148.05 8.2C147.786 8.2 147.546 8.236 147.33 8.308C147.114 8.372 146.926 8.452 146.766 8.548C146.614 8.636 146.494 8.712 146.406 8.776ZM151.93 10.48V9.664H155.614C155.582 9.376 155.502 9.124 155.374 8.908C155.254 8.684 155.082 8.512 154.858 8.392C154.642 8.264 154.374 8.2 154.054 8.2C153.734 8.2 153.442 8.268 153.178 8.404C152.914 8.54 152.702 8.736 152.542 8.992C152.39 9.24 152.314 9.536 152.314 9.88L152.29 10.24C152.29 10.664 152.362 11.024 152.506 11.32C152.65 11.616 152.854 11.84 153.118 11.992C153.382 12.144 153.694 12.22 154.054 12.22C154.326 12.22 154.566 12.18 154.774 12.1C154.99 12.012 155.182 11.896 155.35 11.752C155.518 11.6 155.662 11.424 155.782 11.224L156.562 11.716C156.378 11.996 156.174 12.244 155.95 12.46C155.726 12.668 155.454 12.832 155.134 12.952C154.814 13.064 154.414 13.12 153.934 13.12C153.438 13.12 152.99 12.996 152.59 12.748C152.198 12.5 151.886 12.16 151.654 11.728C151.43 11.288 151.318 10.792 151.318 10.24C151.318 10.136 151.322 10.036 151.33 9.94C151.338 9.844 151.35 9.748 151.366 9.652C151.446 9.196 151.606 8.796 151.846 8.452C152.086 8.108 152.394 7.84 152.77 7.648C153.154 7.456 153.582 7.36 154.054 7.36C154.574 7.36 155.03 7.476 155.422 7.708C155.814 7.94 156.118 8.268 156.334 8.692C156.55 9.108 156.658 9.608 156.658 10.192C156.658 10.24 156.658 10.288 156.658 10.336C156.658 10.384 156.654 10.432 156.646 10.48H151.93ZM163.218 13L162.318 8.62L162.858 7.06L164.298 13H163.218ZM160.338 12.172L162.858 7.06L162.978 8.98L160.698 13.372L160.338 12.172ZM160.698 13.372L158.454 8.98L158.574 7.06L161.058 12.172L160.698 13.372ZM157.134 13L158.574 7.06L159.114 8.62L158.214 13H157.134ZM173.241 7.48L169.641 15.64H168.561L170.073 12.22L167.961 7.48H169.101L170.853 11.8L170.457 11.752L172.161 7.48H173.241ZM174.71 10.54V9.64H178.79V10.54H174.71ZM178.166 7.48H179.126V13H178.166V7.48ZM174.146 7.48H175.106V13H174.146V7.48ZM185.551 8.44L180.991 13.42L181.051 12.04L185.611 7.06L185.551 8.44ZM181.951 7.48V12.1L180.991 13.42V7.48H181.951ZM185.611 7.06V13H184.651V8.38L185.611 7.06ZM187.41 7.48H188.37V13H187.41V7.48ZM190.41 7.48H191.61L189.21 9.76L191.85 13H190.65L188.01 9.76L190.41 7.48ZM193.187 11.38C193.187 11.572 193.239 11.736 193.343 11.872C193.447 12 193.587 12.1 193.763 12.172C193.939 12.236 194.135 12.268 194.351 12.268C194.671 12.268 194.955 12.22 195.203 12.124C195.451 12.028 195.643 11.876 195.779 11.668C195.923 11.46 195.995 11.184 195.995 10.84L196.187 11.44C196.187 11.792 196.091 12.096 195.899 12.352C195.715 12.6 195.467 12.792 195.155 12.928C194.843 13.056 194.495 13.12 194.111 13.12C193.767 13.12 193.451 13.056 193.163 12.928C192.875 12.8 192.643 12.612 192.467 12.364C192.299 12.108 192.215 11.792 192.215 11.416C192.215 11.024 192.311 10.692 192.503 10.42C192.695 10.148 192.967 9.94 193.319 9.796C193.671 9.644 194.087 9.568 194.567 9.568C194.919 9.568 195.219 9.616 195.467 9.712C195.723 9.8 195.927 9.904 196.079 10.024C196.231 10.136 196.335 10.228 196.391 10.3V10.864C196.119 10.672 195.843 10.532 195.563 10.444C195.283 10.348 194.967 10.3 194.615 10.3C194.295 10.3 194.027 10.344 193.811 10.432C193.603 10.52 193.447 10.644 193.343 10.804C193.239 10.964 193.187 11.156 193.187 11.38ZM193.187 8.776L192.719 8.044C192.927 7.892 193.207 7.74 193.559 7.588C193.911 7.436 194.335 7.36 194.831 7.36C195.255 7.36 195.623 7.428 195.935 7.564C196.255 7.692 196.503 7.88 196.679 8.128C196.863 8.376 196.955 8.68 196.955 9.04V13H195.995V9.04C195.995 8.76 195.875 8.552 195.635 8.416C195.403 8.272 195.135 8.2 194.831 8.2C194.567 8.2 194.327 8.236 194.111 8.308C193.895 8.372 193.707 8.452 193.547 8.548C193.395 8.636 193.275 8.712 193.187 8.776ZM203.416 7.48V13H202.456V8.38H199.636V11.08C199.636 11.512 199.568 11.872 199.432 12.16C199.304 12.44 199.104 12.652 198.832 12.796C198.56 12.932 198.216 13 197.8 13V12.124C198.04 12.124 198.244 12.048 198.412 11.896C198.588 11.744 198.676 11.472 198.676 11.08V7.48H203.416ZM205.271 7.48H206.231V13H205.271V7.48ZM205.835 10.408V9.568H207.551C208.119 9.568 208.595 9.708 208.979 9.988C209.371 10.26 209.567 10.692 209.567 11.284C209.567 11.676 209.479 12 209.303 12.256C209.127 12.512 208.887 12.7 208.583 12.82C208.279 12.94 207.935 13 207.551 13H205.835V12.16H207.551C207.783 12.16 207.975 12.128 208.127 12.064C208.287 11.992 208.407 11.892 208.487 11.764C208.567 11.628 208.607 11.468 208.607 11.284C208.607 11.004 208.519 10.788 208.343 10.636C208.167 10.484 207.903 10.408 207.551 10.408H205.835ZM211.636 10.54V9.64H215.716V10.54H211.636ZM215.092 7.48H216.052V13H215.092V7.48ZM211.072 7.48H212.032V13H211.072V7.48ZM222.837 7.48H223.797V13H222.837V7.48ZM217.857 7.48H218.817V13H217.857V7.48ZM218.421 10.408V9.568H220.137C220.705 9.568 221.181 9.708 221.565 9.988C221.957 10.26 222.153 10.692 222.153 11.284C222.153 11.676 222.065 12 221.889 12.256C221.713 12.512 221.473 12.7 221.169 12.82C220.865 12.94 220.521 13 220.137 13H218.421V12.16H220.137C220.369 12.16 220.561 12.128 220.713 12.064C220.873 11.992 220.993 11.892 221.073 11.764C221.153 11.628 221.193 11.468 221.193 11.284C221.193 11.004 221.105 10.788 220.929 10.636C220.753 10.484 220.489 10.408 220.137 10.408H218.421ZM225.723 10.48V9.664H229.407C229.375 9.376 229.295 9.124 229.167 8.908C229.047 8.684 228.875 8.512 228.651 8.392C228.435 8.264 228.167 8.2 227.847 8.2C227.527 8.2 227.235 8.268 226.971 8.404C226.707 8.54 226.495 8.736 226.335 8.992C226.183 9.24 226.107 9.536 226.107 9.88L226.083 10.24C226.083 10.664 226.155 11.024 226.299 11.32C226.443 11.616 226.647 11.84 226.911 11.992C227.175 12.144 227.487 12.22 227.847 12.22C228.119 12.22 228.359 12.18 228.567 12.1C228.783 12.012 228.975 11.896 229.143 11.752C229.311 11.6 229.455 11.424 229.575 11.224L230.355 11.716C230.171 11.996 229.967 12.244 229.743 12.46C229.519 12.668 229.247 12.832 228.927 12.952C228.607 13.064 228.207 13.12 227.727 13.12C227.231 13.12 226.783 12.996 226.383 12.748C225.991 12.5 225.679 12.16 225.447 11.728C225.223 11.288 225.111 10.792 225.111 10.24C225.111 10.136 225.115 10.036 225.123 9.94C225.131 9.844 225.143 9.748 225.159 9.652C225.239 9.196 225.399 8.796 225.639 8.452C225.879 8.108 226.187 7.84 226.563 7.648C226.947 7.456 227.375 7.36 227.847 7.36C228.367 7.36 228.823 7.476 229.215 7.708C229.607 7.94 229.911 8.268 230.127 8.692C230.343 9.108 230.451 9.608 230.451 10.192C230.451 10.24 230.451 10.288 230.451 10.336C230.451 10.384 230.447 10.432 230.439 10.48H225.723ZM72.0676 32.64H71.1076V24.48H72.0676V32.64ZM76.6876 27.24C76.6876 27.832 76.5636 28.344 76.3156 28.776C76.0676 29.208 75.7356 29.54 75.3196 29.772C74.9116 30.004 74.4556 30.12 73.9516 30.12C73.4956 30.12 73.0916 30.004 72.7396 29.772C72.3956 29.54 72.1236 29.208 71.9236 28.776C71.7316 28.344 71.6356 27.832 71.6356 27.24C71.6356 26.64 71.7316 26.128 71.9236 25.704C72.1236 25.272 72.3956 24.94 72.7396 24.708C73.0916 24.476 73.4956 24.36 73.9516 24.36C74.4556 24.36 74.9116 24.476 75.3196 24.708C75.7356 24.94 76.0676 25.272 76.3156 25.704C76.5636 26.128 76.6876 26.64 76.6876 27.24ZM75.7156 27.24C75.7156 26.816 75.6276 26.456 75.4516 26.16C75.2836 25.864 75.0556 25.64 74.7676 25.488C74.4876 25.336 74.1756 25.26 73.8316 25.26C73.5516 25.26 73.2756 25.336 73.0036 25.488C72.7316 25.64 72.5076 25.864 72.3316 26.16C72.1556 26.456 72.0676 26.816 72.0676 27.24C72.0676 27.664 72.1556 28.024 72.3316 28.32C72.5076 28.616 72.7316 28.84 73.0036 28.992C73.2756 29.144 73.5516 29.22 73.8316 29.22C74.1756 29.22 74.4876 29.144 74.7676 28.992C75.0556 28.84 75.2836 28.616 75.4516 28.32C75.6276 28.024 75.7156 27.664 75.7156 27.24ZM78.1433 27.48V26.664H81.8273C81.7953 26.376 81.7153 26.124 81.5873 25.908C81.4673 25.684 81.2953 25.512 81.0713 25.392C80.8553 25.264 80.5873 25.2 80.2673 25.2C79.9473 25.2 79.6553 25.268 79.3913 25.404C79.1273 25.54 78.9153 25.736 78.7553 25.992C78.6033 26.24 78.5273 26.536 78.5273 26.88L78.5033 27.24C78.5033 27.664 78.5753 28.024 78.7193 28.32C78.8633 28.616 79.0673 28.84 79.3313 28.992C79.5953 29.144 79.9073 29.22 80.2673 29.22C80.5393 29.22 80.7793 29.18 80.9873 29.1C81.2033 29.012 81.3953 28.896 81.5633 28.752C81.7313 28.6 81.8753 28.424 81.9953 28.224L82.7753 28.716C82.5913 28.996 82.3873 29.244 82.1633 29.46C81.9393 29.668 81.6673 29.832 81.3473 29.952C81.0273 30.064 80.6273 30.12 80.1473 30.12C79.6513 30.12 79.2033 29.996 78.8033 29.748C78.4113 29.5 78.0993 29.16 77.8673 28.728C77.6433 28.288 77.5313 27.792 77.5313 27.24C77.5313 27.136 77.5353 27.036 77.5433 26.94C77.5513 26.844 77.5633 26.748 77.5793 26.652C77.6593 26.196 77.8193 25.796 78.0593 25.452C78.2993 25.108 78.6073 24.84 78.9833 24.648C79.3673 24.456 79.7953 24.36 80.2673 24.36C80.7873 24.36 81.2433 24.476 81.6353 24.708C82.0273 24.94 82.3313 25.268 82.5473 25.692C82.7633 26.108 82.8713 26.608 82.8713 27.192C82.8713 27.24 82.8713 27.288 82.8713 27.336C82.8713 27.384 82.8673 27.432 82.8593 27.48H78.1433ZM88.4471 29.1H90.7871V24.48H91.7471V30H84.1871V24.48H85.1471V29.1H87.4871V24.48H88.4471V29.1ZM93.6824 27.48V26.664H97.3664C97.3344 26.376 97.2544 26.124 97.1264 25.908C97.0064 25.684 96.8344 25.512 96.6104 25.392C96.3944 25.264 96.1264 25.2 95.8064 25.2C95.4864 25.2 95.1944 25.268 94.9304 25.404C94.6664 25.54 94.4544 25.736 94.2944 25.992C94.1424 26.24 94.0664 26.536 94.0664 26.88L94.0424 27.24C94.0424 27.664 94.1144 28.024 94.2584 28.32C94.4024 28.616 94.6064 28.84 94.8704 28.992C95.1344 29.144 95.4464 29.22 95.8064 29.22C96.0784 29.22 96.3184 29.18 96.5264 29.1C96.7424 29.012 96.9344 28.896 97.1024 28.752C97.2704 28.6 97.4144 28.424 97.5344 28.224L98.3144 28.716C98.1304 28.996 97.9264 29.244 97.7024 29.46C97.4784 29.668 97.2064 29.832 96.8864 29.952C96.5664 30.064 96.1664 30.12 95.6864 30.12C95.1904 30.12 94.7424 29.996 94.3424 29.748C93.9504 29.5 93.6384 29.16 93.4064 28.728C93.1824 28.288 93.0704 27.792 93.0704 27.24C93.0704 27.136 93.0744 27.036 93.0824 26.94C93.0904 26.844 93.1024 26.748 93.1184 26.652C93.1984 26.196 93.3584 25.796 93.5984 25.452C93.8384 25.108 94.1464 24.84 94.5224 24.648C94.9064 24.456 95.3344 24.36 95.8064 24.36C96.3264 24.36 96.7824 24.476 97.1744 24.708C97.5664 24.94 97.8704 25.268 98.0864 25.692C98.3024 26.108 98.4104 26.608 98.4104 27.192C98.4104 27.24 98.4104 27.288 98.4104 27.336C98.4104 27.384 98.4064 27.432 98.3984 27.48H93.6824ZM100.29 27.54V26.64H104.37V27.54H100.29ZM103.746 24.48H104.706V30H103.746V24.48ZM99.7262 24.48H100.686V30H99.7262V24.48ZM111.131 25.44L106.571 30.42L106.631 29.04L111.191 24.06L111.131 25.44ZM107.531 24.48V29.1L106.571 30.42V24.48H107.531ZM111.191 24.06V30H110.231V25.38L111.191 24.06ZM113.842 30H112.786L114.826 27.12H115.882L113.842 30ZM117.346 30H116.386V24.48H117.346V30ZM116.782 26.952V27.792H115.066C114.69 27.792 114.346 27.736 114.034 27.624C113.73 27.512 113.49 27.336 113.314 27.096C113.138 26.848 113.05 26.528 113.05 26.136C113.05 25.736 113.138 25.416 113.314 25.176C113.49 24.936 113.73 24.76 114.034 24.648C114.346 24.536 114.69 24.48 115.066 24.48H116.782V25.32H115.066C114.834 25.32 114.638 25.352 114.478 25.416C114.326 25.472 114.21 25.56 114.13 25.68C114.05 25.8 114.01 25.952 114.01 26.136C114.01 26.32 114.05 26.472 114.13 26.592C114.21 26.712 114.326 26.804 114.478 26.868C114.638 26.924 114.834 26.952 115.066 26.952H116.782ZM123.013 27.54V26.64H127.093V27.54H123.013ZM126.469 24.48H127.429V30H126.469V24.48ZM122.449 24.48H123.409V30H122.449V24.48ZM129.666 28.38C129.666 28.572 129.718 28.736 129.822 28.872C129.926 29 130.066 29.1 130.242 29.172C130.418 29.236 130.614 29.268 130.83 29.268C131.15 29.268 131.434 29.22 131.682 29.124C131.93 29.028 132.122 28.876 132.258 28.668C132.402 28.46 132.474 28.184 132.474 27.84L132.666 28.44C132.666 28.792 132.57 29.096 132.378 29.352C132.194 29.6 131.946 29.792 131.634 29.928C131.322 30.056 130.974 30.12 130.59 30.12C130.246 30.12 129.93 30.056 129.642 29.928C129.354 29.8 129.122 29.612 128.946 29.364C128.778 29.108 128.694 28.792 128.694 28.416C128.694 28.024 128.79 27.692 128.982 27.42C129.174 27.148 129.446 26.94 129.798 26.796C130.15 26.644 130.566 26.568 131.046 26.568C131.398 26.568 131.698 26.616 131.946 26.712C132.202 26.8 132.406 26.904 132.558 27.024C132.71 27.136 132.814 27.228 132.87 27.3V27.864C132.598 27.672 132.322 27.532 132.042 27.444C131.762 27.348 131.446 27.3 131.094 27.3C130.774 27.3 130.506 27.344 130.29 27.432C130.082 27.52 129.926 27.644 129.822 27.804C129.718 27.964 129.666 28.156 129.666 28.38ZM129.666 25.776L129.198 25.044C129.406 24.892 129.686 24.74 130.038 24.588C130.39 24.436 130.814 24.36 131.31 24.36C131.734 24.36 132.102 24.428 132.414 24.564C132.734 24.692 132.982 24.88 133.158 25.128C133.342 25.376 133.434 25.68 133.434 26.04V30H132.474V26.04C132.474 25.76 132.354 25.552 132.114 25.416C131.882 25.272 131.614 25.2 131.31 25.2C131.046 25.2 130.806 25.236 130.59 25.308C130.374 25.372 130.186 25.452 130.026 25.548C129.874 25.636 129.754 25.712 129.666 25.776ZM140.216 25.86H141.356L144.356 30H143.096L140.216 25.86ZM138.716 21.6H139.736V30H138.716V21.6ZM139.28 22.5V21.6H140.996C141.54 21.6 142.024 21.704 142.448 21.912C142.88 22.112 143.22 22.4 143.468 22.776C143.724 23.152 143.852 23.6 143.852 24.12C143.852 24.632 143.724 25.08 143.468 25.464C143.22 25.84 142.88 26.132 142.448 26.34C142.024 26.54 141.54 26.64 140.996 26.64H139.28V25.74H140.996C141.356 25.74 141.672 25.676 141.944 25.548C142.224 25.42 142.44 25.236 142.592 24.996C142.752 24.756 142.832 24.464 142.832 24.12C142.832 23.776 142.752 23.484 142.592 23.244C142.44 23.004 142.224 22.82 141.944 22.692C141.672 22.564 141.356 22.5 140.996 22.5H139.28ZM147.507 30.12C146.995 30.12 146.539 30 146.139 29.76C145.747 29.512 145.439 29.172 145.215 28.74C144.999 28.308 144.891 27.808 144.891 27.24C144.891 26.664 145.003 26.16 145.227 25.728C145.459 25.296 145.779 24.96 146.187 24.72C146.603 24.48 147.083 24.36 147.627 24.36C148.171 24.36 148.635 24.476 149.019 24.708C149.411 24.932 149.711 25.256 149.919 25.68C150.127 26.104 150.231 26.608 150.231 27.192C150.231 27.248 150.227 27.308 150.219 27.372C150.219 27.428 150.219 27.464 150.219 27.48H145.503V26.664H149.463L149.079 27.216C149.103 27.176 149.127 27.116 149.151 27.036C149.175 26.948 149.187 26.876 149.187 26.82C149.187 26.492 149.119 26.208 148.983 25.968C148.855 25.728 148.675 25.54 148.443 25.404C148.211 25.268 147.939 25.2 147.627 25.2C147.259 25.2 146.943 25.28 146.679 25.44C146.423 25.592 146.223 25.816 146.079 26.112C145.943 26.4 145.871 26.756 145.863 27.18C145.863 27.612 145.931 27.98 146.067 28.284C146.203 28.588 146.403 28.82 146.667 28.98C146.931 29.14 147.251 29.22 147.627 29.22C148.003 29.22 148.335 29.14 148.623 28.98C148.911 28.812 149.155 28.56 149.355 28.224L150.135 28.716C149.847 29.18 149.483 29.532 149.043 29.772C148.611 30.004 148.099 30.12 147.507 30.12ZM151.978 28.296C151.978 28.504 152.026 28.684 152.122 28.836C152.226 28.988 152.366 29.104 152.542 29.184C152.726 29.256 152.934 29.292 153.166 29.292C153.462 29.292 153.726 29.232 153.958 29.112C154.198 28.992 154.386 28.824 154.522 28.608C154.666 28.384 154.738 28.128 154.738 27.84L154.93 28.56C154.93 28.912 154.822 29.204 154.606 29.436C154.398 29.668 154.138 29.84 153.826 29.952C153.522 30.064 153.218 30.12 152.914 30.12C152.578 30.12 152.262 30.052 151.966 29.916C151.678 29.772 151.446 29.568 151.27 29.304C151.094 29.04 151.006 28.72 151.006 28.344C151.006 27.808 151.194 27.38 151.57 27.06C151.954 26.732 152.486 26.568 153.166 26.568C153.566 26.568 153.898 26.616 154.162 26.712C154.434 26.8 154.65 26.904 154.81 27.024C154.97 27.136 155.078 27.228 155.134 27.3V27.864C154.854 27.672 154.566 27.536 154.27 27.456C153.974 27.368 153.658 27.324 153.322 27.324C153.01 27.324 152.754 27.364 152.554 27.444C152.362 27.524 152.218 27.636 152.122 27.78C152.026 27.924 151.978 28.096 151.978 28.296ZM151.834 25.752L151.366 25.044C151.574 24.892 151.858 24.74 152.218 24.588C152.586 24.436 153.026 24.36 153.538 24.36C153.97 24.36 154.346 24.428 154.666 24.564C154.994 24.692 155.246 24.88 155.422 25.128C155.606 25.376 155.698 25.68 155.698 26.04V30H154.738V26.172C154.738 25.98 154.706 25.824 154.642 25.704C154.578 25.576 154.486 25.476 154.366 25.404C154.254 25.332 154.122 25.28 153.97 25.248C153.818 25.216 153.658 25.2 153.49 25.2C153.218 25.2 152.97 25.232 152.746 25.296C152.53 25.36 152.346 25.436 152.194 25.524C152.042 25.612 151.922 25.688 151.834 25.752ZM157.756 27.24C157.756 27.624 157.836 27.964 157.996 28.26C158.164 28.556 158.388 28.792 158.668 28.968C158.956 29.136 159.28 29.22 159.64 29.22C159.936 29.22 160.212 29.176 160.468 29.088C160.732 28.992 160.96 28.868 161.152 28.716C161.344 28.556 161.48 28.388 161.56 28.212V29.412C161.368 29.636 161.092 29.812 160.732 29.94C160.38 30.06 160.016 30.12 159.64 30.12C159.104 30.12 158.62 29.996 158.188 29.748C157.756 29.5 157.412 29.16 157.156 28.728C156.908 28.288 156.784 27.792 156.784 27.24C156.784 26.68 156.908 26.184 157.156 25.752C157.412 25.32 157.756 24.98 158.188 24.732C158.62 24.484 159.104 24.36 159.64 24.36C160.016 24.36 160.38 24.424 160.732 24.552C161.092 24.672 161.368 24.844 161.56 25.068V26.268C161.48 26.084 161.344 25.916 161.152 25.764C160.96 25.612 160.732 25.492 160.468 25.404C160.212 25.308 159.936 25.26 159.64 25.26C159.28 25.26 158.956 25.344 158.668 25.512C158.388 25.68 158.164 25.916 157.996 26.22C157.836 26.516 157.756 26.856 157.756 27.24ZM162.214 24.48H164.974V25.38H162.214V24.48ZM163.114 22.56H164.074V30H163.114V22.56ZM174.155 25.44L169.595 30.42L169.655 29.04L174.215 24.06L174.155 25.44ZM170.555 24.48V29.1L169.595 30.42V24.48H170.555ZM174.215 24.06V30H173.255V25.38L174.215 24.06ZM179.731 21.6H180.751V30H179.731V21.6ZM182.251 30H180.295V28.98H182.251C182.723 28.98 183.155 28.908 183.547 28.764C183.939 28.612 184.275 28.4 184.555 28.128C184.835 27.848 185.051 27.512 185.203 27.12C185.355 26.728 185.431 26.288 185.431 25.8C185.431 25.312 185.355 24.872 185.203 24.48C185.051 24.088 184.835 23.756 184.555 23.484C184.275 23.204 183.939 22.992 183.547 22.848C183.155 22.696 182.723 22.62 182.251 22.62H180.295V21.6H182.251C183.067 21.6 183.791 21.776 184.423 22.128C185.055 22.48 185.551 22.972 185.911 23.604C186.271 24.228 186.451 24.96 186.451 25.8C186.451 26.64 186.271 27.376 185.911 28.008C185.551 28.632 185.055 29.12 184.423 29.472C183.791 29.824 183.067 30 182.251 30ZM187.672 22.2C187.672 22.016 187.736 21.864 187.864 21.744C187.992 21.616 188.144 21.552 188.32 21.552C188.504 21.552 188.656 21.616 188.776 21.744C188.904 21.864 188.968 22.016 188.968 22.2C188.968 22.376 188.904 22.528 188.776 22.656C188.656 22.784 188.504 22.848 188.32 22.848C188.144 22.848 187.992 22.784 187.864 22.656C187.736 22.528 187.672 22.376 187.672 22.2ZM186.724 31.368C186.788 31.464 186.868 31.54 186.964 31.596C187.068 31.652 187.184 31.68 187.312 31.68C187.448 31.68 187.556 31.644 187.636 31.572C187.724 31.5 187.788 31.384 187.828 31.224C187.868 31.064 187.888 30.856 187.888 30.6V24.48H188.848V30.72C188.848 31.12 188.784 31.464 188.656 31.752C188.536 32.04 188.356 32.26 188.116 32.412C187.876 32.564 187.588 32.64 187.252 32.64C187.092 32.64 186.948 32.62 186.82 32.58C186.692 32.548 186.576 32.496 186.472 32.424C186.368 32.352 186.276 32.264 186.196 32.16L186.724 31.368ZM191.26 28.296C191.26 28.504 191.308 28.684 191.404 28.836C191.508 28.988 191.648 29.104 191.824 29.184C192.008 29.256 192.216 29.292 192.448 29.292C192.744 29.292 193.008 29.232 193.24 29.112C193.48 28.992 193.668 28.824 193.804 28.608C193.948 28.384 194.02 28.128 194.02 27.84L194.212 28.56C194.212 28.912 194.104 29.204 193.888 29.436C193.68 29.668 193.42 29.84 193.108 29.952C192.804 30.064 192.5 30.12 192.196 30.12C191.86 30.12 191.544 30.052 191.248 29.916C190.96 29.772 190.728 29.568 190.552 29.304C190.376 29.04 190.288 28.72 190.288 28.344C190.288 27.808 190.476 27.38 190.852 27.06C191.236 26.732 191.768 26.568 192.448 26.568C192.848 26.568 193.18 26.616 193.444 26.712C193.716 26.8 193.932 26.904 194.092 27.024C194.252 27.136 194.36 27.228 194.416 27.3V27.864C194.136 27.672 193.848 27.536 193.552 27.456C193.256 27.368 192.94 27.324 192.604 27.324C192.292 27.324 192.036 27.364 191.836 27.444C191.644 27.524 191.5 27.636 191.404 27.78C191.308 27.924 191.26 28.096 191.26 28.296ZM191.116 25.752L190.648 25.044C190.856 24.892 191.14 24.74 191.5 24.588C191.868 24.436 192.308 24.36 192.82 24.36C193.252 24.36 193.628 24.428 193.948 24.564C194.276 24.692 194.528 24.88 194.704 25.128C194.888 25.376 194.98 25.68 194.98 26.04V30H194.02V26.172C194.02 25.98 193.988 25.824 193.924 25.704C193.86 25.576 193.768 25.476 193.648 25.404C193.536 25.332 193.404 25.28 193.252 25.248C193.1 25.216 192.94 25.2 192.772 25.2C192.5 25.2 192.252 25.232 192.028 25.296C191.812 25.36 191.628 25.436 191.476 25.524C191.324 25.612 191.204 25.688 191.116 25.752ZM200.145 26.64C200.145 26.184 200.045 25.84 199.845 25.608C199.645 25.376 199.353 25.26 198.969 25.26C198.689 25.26 198.441 25.32 198.225 25.44C198.017 25.552 197.853 25.712 197.733 25.92C197.621 26.128 197.565 26.368 197.565 26.64V30H196.605V24.48H197.565V25.344C197.749 25.008 197.977 24.76 198.249 24.6C198.529 24.44 198.849 24.36 199.209 24.36C199.793 24.36 200.253 24.556 200.589 24.948C200.933 25.332 201.105 25.856 201.105 26.52V30H200.145V26.64ZM202.538 30.36H203.51C203.51 30.624 203.582 30.868 203.726 31.092C203.87 31.324 204.074 31.508 204.338 31.644C204.602 31.788 204.914 31.86 205.274 31.86C205.554 31.86 205.83 31.792 206.102 31.656C206.374 31.52 206.598 31.304 206.774 31.008C206.958 30.72 207.05 30.344 207.05 29.88V24.48H208.01V29.88C208.01 30.512 207.878 31.04 207.614 31.464C207.35 31.896 207.01 32.22 206.594 32.436C206.178 32.652 205.738 32.76 205.274 32.76C204.738 32.76 204.262 32.66 203.846 32.46C203.438 32.26 203.118 31.976 202.886 31.608C202.654 31.248 202.538 30.832 202.538 30.36ZM202.43 27.24C202.43 26.64 202.554 26.128 202.802 25.704C203.05 25.272 203.382 24.94 203.798 24.708C204.214 24.476 204.67 24.36 205.166 24.36C205.63 24.36 206.034 24.476 206.378 24.708C206.722 24.94 206.99 25.272 207.182 25.704C207.382 26.128 207.482 26.64 207.482 27.24C207.482 27.832 207.382 28.344 207.182 28.776C206.99 29.208 206.722 29.54 206.378 29.772C206.034 30.004 205.63 30.12 205.166 30.12C204.67 30.12 204.214 30.004 203.798 29.772C203.382 29.54 203.05 29.208 202.802 28.776C202.554 28.344 202.43 27.832 202.43 27.24ZM203.402 27.24C203.402 27.664 203.486 28.024 203.654 28.32C203.83 28.616 204.062 28.84 204.35 28.992C204.638 29.144 204.95 29.22 205.286 29.22C205.566 29.22 205.842 29.144 206.114 28.992C206.386 28.84 206.61 28.616 206.786 28.32C206.962 28.024 207.05 27.664 207.05 27.24C207.05 26.92 206.998 26.64 206.894 26.4C206.79 26.152 206.65 25.944 206.474 25.776C206.306 25.608 206.118 25.48 205.91 25.392C205.702 25.304 205.494 25.26 205.286 25.26C204.95 25.26 204.638 25.336 204.35 25.488C204.062 25.64 203.83 25.864 203.654 26.16C203.486 26.456 203.402 26.816 203.402 27.24ZM209.274 27.24C209.274 26.68 209.398 26.184 209.646 25.752C209.902 25.32 210.246 24.98 210.678 24.732C211.11 24.484 211.594 24.36 212.13 24.36C212.674 24.36 213.158 24.484 213.582 24.732C214.014 24.98 214.354 25.32 214.602 25.752C214.858 26.184 214.986 26.68 214.986 27.24C214.986 27.792 214.858 28.288 214.602 28.728C214.354 29.16 214.014 29.5 213.582 29.748C213.158 29.996 212.674 30.12 212.13 30.12C211.594 30.12 211.11 29.996 210.678 29.748C210.246 29.5 209.902 29.16 209.646 28.728C209.398 28.288 209.274 27.792 209.274 27.24ZM210.246 27.24C210.246 27.624 210.326 27.964 210.486 28.26C210.654 28.556 210.878 28.792 211.158 28.968C211.446 29.136 211.77 29.22 212.13 29.22C212.49 29.22 212.81 29.136 213.09 28.968C213.378 28.792 213.602 28.556 213.762 28.26C213.93 27.964 214.014 27.624 214.014 27.24C214.014 26.856 213.93 26.516 213.762 26.22C213.602 25.916 213.378 25.68 213.09 25.512C212.81 25.344 212.49 25.26 212.13 25.26C211.77 25.26 211.446 25.344 211.158 25.512C210.878 25.68 210.654 25.916 210.486 26.22C210.326 26.516 210.246 26.856 210.246 27.24ZM220.334 27.24C220.334 27.624 220.414 27.964 220.574 28.26C220.742 28.556 220.966 28.792 221.246 28.968C221.534 29.136 221.858 29.22 222.218 29.22C222.514 29.22 222.79 29.176 223.046 29.088C223.31 28.992 223.538 28.868 223.73 28.716C223.922 28.556 224.058 28.388 224.138 28.212V29.412C223.946 29.636 223.67 29.812 223.31 29.94C222.958 30.06 222.594 30.12 222.218 30.12C221.682 30.12 221.198 29.996 220.766 29.748C220.334 29.5 219.99 29.16 219.734 28.728C219.486 28.288 219.362 27.792 219.362 27.24C219.362 26.68 219.486 26.184 219.734 25.752C219.99 25.32 220.334 24.98 220.766 24.732C221.198 24.484 221.682 24.36 222.218 24.36C222.594 24.36 222.958 24.424 223.31 24.552C223.67 24.672 223.946 24.844 224.138 25.068V26.268C224.058 26.084 223.922 25.916 223.73 25.764C223.538 25.612 223.31 25.492 223.046 25.404C222.79 25.308 222.514 25.26 222.218 25.26C221.858 25.26 221.534 25.344 221.246 25.512C220.966 25.68 220.742 25.916 220.574 26.22C220.414 26.516 220.334 26.856 220.334 27.24ZM79.7457 41.48V47H78.7857V42.38H76.2057V47H75.2457V41.48H79.7457ZM81.0704 44.24C81.0704 43.68 81.1944 43.184 81.4424 42.752C81.6984 42.32 82.0424 41.98 82.4744 41.732C82.9064 41.484 83.3904 41.36 83.9264 41.36C84.4704 41.36 84.9544 41.484 85.3784 41.732C85.8104 41.98 86.1504 42.32 86.3984 42.752C86.6544 43.184 86.7824 43.68 86.7824 44.24C86.7824 44.792 86.6544 45.288 86.3984 45.728C86.1504 46.16 85.8104 46.5 85.3784 46.748C84.9544 46.996 84.4704 47.12 83.9264 47.12C83.3904 47.12 82.9064 46.996 82.4744 46.748C82.0424 46.5 81.6984 46.16 81.4424 45.728C81.1944 45.288 81.0704 44.792 81.0704 44.24ZM82.0424 44.24C82.0424 44.624 82.1224 44.964 82.2824 45.26C82.4504 45.556 82.6744 45.792 82.9544 45.968C83.2424 46.136 83.5664 46.22 83.9264 46.22C84.2864 46.22 84.6064 46.136 84.8864 45.968C85.1744 45.792 85.3984 45.556 85.5584 45.26C85.7264 44.964 85.8104 44.624 85.8104 44.24C85.8104 43.856 85.7264 43.516 85.5584 43.22C85.3984 42.916 85.1744 42.68 84.8864 42.512C84.6064 42.344 84.2864 42.26 83.9264 42.26C83.5664 42.26 83.2424 42.344 82.9544 42.512C82.6744 42.68 82.4504 42.916 82.2824 43.22C82.1224 43.516 82.0424 43.856 82.0424 44.24ZM92.9372 41.48V47H91.9772V42.38H89.1572V45.08C89.1572 45.512 89.0892 45.872 88.9532 46.16C88.8252 46.44 88.6252 46.652 88.3532 46.796C88.0812 46.932 87.7372 47 87.3212 47V46.124C87.5612 46.124 87.7652 46.048 87.9332 45.896C88.1092 45.744 88.1972 45.472 88.1972 45.08V41.48H92.9372ZM95.3566 44.54V43.64H99.4366V44.54H95.3566ZM98.8126 41.48H99.7726V47H98.8126V41.48ZM94.7926 41.48H95.7526V47H94.7926V41.48ZM106.558 41.48H107.518V47H106.558V41.48ZM101.578 41.48H102.538V47H101.578V41.48ZM102.142 44.408V43.568H103.858C104.426 43.568 104.902 43.708 105.286 43.988C105.678 44.26 105.874 44.692 105.874 45.284C105.874 45.676 105.786 46 105.61 46.256C105.434 46.512 105.194 46.7 104.89 46.82C104.586 46.94 104.242 47 103.858 47H102.142V46.16H103.858C104.09 46.16 104.282 46.128 104.434 46.064C104.594 45.992 104.714 45.892 104.794 45.764C104.874 45.628 104.914 45.468 104.914 45.284C104.914 45.004 104.826 44.788 104.65 44.636C104.474 44.484 104.21 44.408 103.858 44.408H102.142ZM114.556 47L113.656 42.62L114.196 41.06L115.636 47H114.556ZM111.676 46.172L114.196 41.06L114.316 42.98L112.036 47.372L111.676 46.172ZM112.036 47.372L109.792 42.98L109.912 41.06L112.396 46.172L112.036 47.372ZM108.472 47L109.912 41.06L110.452 42.62L109.552 47H108.472ZM122.335 40.28H123.295V48.2H122.335V40.28ZM119.719 44.24C119.719 43.68 119.847 43.184 120.103 42.752C120.359 42.32 120.719 41.98 121.183 41.732C121.655 41.484 122.199 41.36 122.815 41.36C123.439 41.36 123.983 41.484 124.447 41.732C124.911 41.98 125.271 42.32 125.527 42.752C125.783 43.184 125.911 43.68 125.911 44.24C125.911 44.792 125.783 45.288 125.527 45.728C125.271 46.16 124.911 46.5 124.447 46.748C123.983 46.996 123.439 47.12 122.815 47.12C122.199 47.12 121.655 46.996 121.183 46.748C120.719 46.5 120.359 46.16 120.103 45.728C119.847 45.288 119.719 44.792 119.719 44.24ZM120.691 44.24C120.691 44.624 120.775 44.964 120.943 45.26C121.119 45.556 121.363 45.792 121.675 45.968C121.995 46.136 122.375 46.22 122.815 46.22C123.255 46.22 123.631 46.136 123.943 45.968C124.263 45.792 124.507 45.556 124.675 45.26C124.851 44.964 124.939 44.624 124.939 44.24C124.939 43.856 124.851 43.516 124.675 43.22C124.507 42.916 124.263 42.68 123.943 42.512C123.631 42.344 123.255 42.26 122.815 42.26C122.375 42.26 121.995 42.344 121.675 42.512C121.363 42.68 121.119 42.916 120.943 43.22C120.775 43.516 120.691 43.856 120.691 44.24ZM131.61 41.48L128.01 49.64H126.93L128.442 46.22L126.33 41.48H127.47L129.222 45.8L128.826 45.752L130.53 41.48H131.61ZM133.079 44.54V43.64H137.159V44.54H133.079ZM136.535 41.48H137.495V47H136.535V41.48ZM132.515 41.48H133.475V47H132.515V41.48ZM139.24 41.48H140.2V47H139.24V41.48ZM142.24 41.48H143.44L141.04 43.76L143.68 47H142.48L139.84 43.76L142.24 41.48ZM149.086 46.1H150.046V48.08H149.206V47H144.586V41.48H145.546V46.1H148.126V41.48H149.086V46.1ZM155.991 42.44L151.431 47.42L151.491 46.04L156.051 41.06L155.991 42.44ZM152.391 41.48V46.1L151.431 47.42V41.48H152.391ZM156.051 41.06V47H155.091V42.38L156.051 41.06ZM157.43 44.24C157.43 43.68 157.554 43.184 157.802 42.752C158.058 42.32 158.402 41.98 158.834 41.732C159.266 41.484 159.75 41.36 160.286 41.36C160.83 41.36 161.314 41.484 161.738 41.732C162.17 41.98 162.51 42.32 162.758 42.752C163.014 43.184 163.142 43.68 163.142 44.24C163.142 44.792 163.014 45.288 162.758 45.728C162.51 46.16 162.17 46.5 161.738 46.748C161.314 46.996 160.83 47.12 160.286 47.12C159.75 47.12 159.266 46.996 158.834 46.748C158.402 46.5 158.058 46.16 157.802 45.728C157.554 45.288 157.43 44.792 157.43 44.24ZM158.402 44.24C158.402 44.624 158.482 44.964 158.642 45.26C158.81 45.556 159.034 45.792 159.314 45.968C159.602 46.136 159.926 46.22 160.286 46.22C160.646 46.22 160.966 46.136 161.246 45.968C161.534 45.792 161.758 45.556 161.918 45.26C162.086 44.964 162.17 44.624 162.17 44.24C162.17 43.856 162.086 43.516 161.918 43.22C161.758 42.916 161.534 42.68 161.246 42.512C160.966 42.344 160.646 42.26 160.286 42.26C159.926 42.26 159.602 42.344 159.314 42.512C159.034 42.68 158.81 42.916 158.642 43.22C158.482 43.516 158.402 43.856 158.402 44.24ZM165.025 44.54V43.64H169.105V44.54H165.025ZM168.481 41.48H169.441V47H168.481V41.48ZM164.461 41.48H165.421V47H164.461V41.48ZM171.678 45.38C171.678 45.572 171.73 45.736 171.834 45.872C171.938 46 172.078 46.1 172.254 46.172C172.43 46.236 172.626 46.268 172.842 46.268C173.162 46.268 173.446 46.22 173.694 46.124C173.942 46.028 174.134 45.876 174.27 45.668C174.414 45.46 174.486 45.184 174.486 44.84L174.678 45.44C174.678 45.792 174.582 46.096 174.39 46.352C174.206 46.6 173.958 46.792 173.646 46.928C173.334 47.056 172.986 47.12 172.602 47.12C172.258 47.12 171.942 47.056 171.654 46.928C171.366 46.8 171.134 46.612 170.958 46.364C170.79 46.108 170.706 45.792 170.706 45.416C170.706 45.024 170.802 44.692 170.994 44.42C171.186 44.148 171.458 43.94 171.81 43.796C172.162 43.644 172.578 43.568 173.058 43.568C173.41 43.568 173.71 43.616 173.958 43.712C174.214 43.8 174.418 43.904 174.57 44.024C174.722 44.136 174.826 44.228 174.882 44.3V44.864C174.61 44.672 174.334 44.532 174.054 44.444C173.774 44.348 173.458 44.3 173.106 44.3C172.786 44.3 172.518 44.344 172.302 44.432C172.094 44.52 171.938 44.644 171.834 44.804C171.73 44.964 171.678 45.156 171.678 45.38ZM171.678 42.776L171.21 42.044C171.418 41.892 171.698 41.74 172.05 41.588C172.402 41.436 172.826 41.36 173.322 41.36C173.746 41.36 174.114 41.428 174.426 41.564C174.746 41.692 174.994 41.88 175.17 42.128C175.354 42.376 175.446 42.68 175.446 43.04V47H174.486V43.04C174.486 42.76 174.366 42.552 174.126 42.416C173.894 42.272 173.626 42.2 173.322 42.2C173.058 42.2 172.818 42.236 172.602 42.308C172.386 42.372 172.198 42.452 172.038 42.548C171.886 42.636 171.766 42.712 171.678 42.776ZM181.906 41.48V47H180.946V42.38H178.126V45.08C178.126 45.512 178.058 45.872 177.922 46.16C177.794 46.44 177.594 46.652 177.322 46.796C177.05 46.932 176.706 47 176.29 47V46.124C176.53 46.124 176.734 46.048 176.902 45.896C177.078 45.744 177.166 45.472 177.166 45.08V41.48H181.906ZM183.281 44.24C183.281 43.68 183.405 43.184 183.653 42.752C183.909 42.32 184.253 41.98 184.685 41.732C185.117 41.484 185.601 41.36 186.137 41.36C186.681 41.36 187.165 41.484 187.589 41.732C188.021 41.98 188.361 42.32 188.609 42.752C188.865 43.184 188.993 43.68 188.993 44.24C188.993 44.792 188.865 45.288 188.609 45.728C188.361 46.16 188.021 46.5 187.589 46.748C187.165 46.996 186.681 47.12 186.137 47.12C185.601 47.12 185.117 46.996 184.685 46.748C184.253 46.5 183.909 46.16 183.653 45.728C183.405 45.288 183.281 44.792 183.281 44.24ZM184.253 44.24C184.253 44.624 184.333 44.964 184.493 45.26C184.661 45.556 184.885 45.792 185.165 45.968C185.453 46.136 185.777 46.22 186.137 46.22C186.497 46.22 186.817 46.136 187.097 45.968C187.385 45.792 187.609 45.556 187.769 45.26C187.937 44.964 188.021 44.624 188.021 44.24C188.021 43.856 187.937 43.516 187.769 43.22C187.609 42.916 187.385 42.68 187.097 42.512C186.817 42.344 186.497 42.26 186.137 42.26C185.777 42.26 185.453 42.344 185.165 42.512C184.885 42.68 184.661 42.916 184.493 43.22C184.333 43.516 184.253 43.856 184.253 44.24ZM195.556 47L194.656 42.62L195.196 41.06L196.636 47H195.556ZM192.676 46.172L195.196 41.06L195.316 42.98L193.036 47.372L192.676 46.172ZM193.036 47.372L190.792 42.98L190.912 41.06L193.396 46.172L193.036 47.372ZM189.472 47L190.912 41.06L191.452 42.62L190.552 47H189.472ZM204.199 43.136L202.579 46.64H201.499L204.199 41.06L206.899 46.64H205.819L204.199 43.136ZM206.659 47H201.799V48.08H200.779V46.1H207.619V48.08H206.659V47ZM213.898 41.48V47H212.938V42.38H210.118V45.08C210.118 45.512 210.05 45.872 209.914 46.16C209.786 46.44 209.586 46.652 209.314 46.796C209.042 46.932 208.698 47 208.282 47V46.124C208.522 46.124 208.726 46.048 208.894 45.896C209.07 45.744 209.158 45.472 209.158 45.08V41.48H213.898ZM216.546 47H215.49L217.53 44.12H218.586L216.546 47ZM220.05 47H219.09V41.48H220.05V47ZM219.486 43.952V44.792H217.77C217.394 44.792 217.05 44.736 216.738 44.624C216.434 44.512 216.194 44.336 216.018 44.096C215.842 43.848 215.754 43.528 215.754 43.136C215.754 42.736 215.842 42.416 216.018 42.176C216.194 41.936 216.434 41.76 216.738 41.648C217.05 41.536 217.394 41.48 217.77 41.48H219.486V42.32H217.77C217.538 42.32 217.342 42.352 217.182 42.416C217.03 42.472 216.914 42.56 216.834 42.68C216.754 42.8 216.714 42.952 216.714 43.136C216.714 43.32 216.754 43.472 216.834 43.592C216.914 43.712 217.03 43.804 217.182 43.868C217.342 43.924 217.538 43.952 217.77 43.952H219.486ZM92.487 58.48L88.887 66.64H87.807L89.319 63.22L87.207 58.48H88.347L90.099 62.8L89.703 62.752L91.407 58.48H92.487ZM95.6773 60.136L94.0573 63.64H92.9773L95.6773 58.06L98.3773 63.64H97.2973L95.6773 60.136ZM98.1373 64H93.2773V65.08H92.2573V63.1H99.0973V65.08H98.1373V64ZM100.061 61.24C100.061 60.68 100.185 60.184 100.433 59.752C100.689 59.32 101.033 58.98 101.465 58.732C101.897 58.484 102.381 58.36 102.917 58.36C103.461 58.36 103.945 58.484 104.369 58.732C104.801 58.98 105.141 59.32 105.389 59.752C105.645 60.184 105.773 60.68 105.773 61.24C105.773 61.792 105.645 62.288 105.389 62.728C105.141 63.16 104.801 63.5 104.369 63.748C103.945 63.996 103.461 64.12 102.917 64.12C102.381 64.12 101.897 63.996 101.465 63.748C101.033 63.5 100.689 63.16 100.433 62.728C100.185 62.288 100.061 61.792 100.061 61.24ZM101.033 61.24C101.033 61.624 101.113 61.964 101.273 62.26C101.441 62.556 101.665 62.792 101.945 62.968C102.233 63.136 102.557 63.22 102.917 63.22C103.277 63.22 103.597 63.136 103.877 62.968C104.165 62.792 104.389 62.556 104.549 62.26C104.717 61.964 104.801 61.624 104.801 61.24C104.801 60.856 104.717 60.516 104.549 60.22C104.389 59.916 104.165 59.68 103.877 59.512C103.597 59.344 103.277 59.26 102.917 59.26C102.557 59.26 102.233 59.344 101.945 59.512C101.665 59.68 101.441 59.916 101.273 60.22C101.113 60.516 101.033 60.856 101.033 61.24ZM107.655 61.12H109.251C109.635 61.12 109.979 61.16 110.283 61.24C110.587 61.32 110.827 61.46 111.003 61.66C111.179 61.86 111.267 62.14 111.267 62.5C111.267 62.916 111.127 63.272 110.847 63.568C110.575 63.856 110.123 64 109.491 64H107.655V63.16H109.251C109.611 63.16 109.875 63.084 110.043 62.932C110.219 62.78 110.307 62.596 110.307 62.38C110.307 62.268 110.283 62.168 110.235 62.08C110.195 61.992 110.131 61.912 110.043 61.84C109.963 61.768 109.855 61.716 109.719 61.684C109.591 61.644 109.435 61.624 109.251 61.624H107.655V61.12ZM107.655 61.36V60.796H109.131C109.275 60.796 109.403 60.78 109.515 60.748C109.635 60.708 109.735 60.652 109.815 60.58C109.895 60.508 109.955 60.428 109.995 60.34C110.043 60.244 110.067 60.144 110.067 60.04C110.067 59.824 109.983 59.652 109.815 59.524C109.647 59.388 109.419 59.32 109.131 59.32H107.655V58.48H109.131C109.475 58.48 109.787 58.532 110.067 58.636C110.355 58.732 110.587 58.892 110.763 59.116C110.939 59.332 111.027 59.62 111.027 59.98C111.027 60.292 110.939 60.552 110.763 60.76C110.587 60.96 110.355 61.112 110.067 61.216C109.787 61.312 109.475 61.36 109.131 61.36H107.655ZM107.091 58.48H108.051V64H107.091V58.48ZM117.365 58.48V64H116.405V59.38H113.585V62.08C113.585 62.512 113.517 62.872 113.381 63.16C113.253 63.44 113.053 63.652 112.781 63.796C112.509 63.932 112.165 64 111.749 64V63.124C111.989 63.124 112.193 63.048 112.361 62.896C112.537 62.744 112.625 62.472 112.625 62.08V58.48H117.365ZM119.352 61.48V60.664H123.036C123.004 60.376 122.924 60.124 122.796 59.908C122.676 59.684 122.504 59.512 122.28 59.392C122.064 59.264 121.796 59.2 121.476 59.2C121.156 59.2 120.864 59.268 120.6 59.404C120.336 59.54 120.124 59.736 119.964 59.992C119.812 60.24 119.736 60.536 119.736 60.88L119.712 61.24C119.712 61.664 119.784 62.024 119.928 62.32C120.072 62.616 120.276 62.84 120.54 62.992C120.804 63.144 121.116 63.22 121.476 63.22C121.748 63.22 121.988 63.18 122.196 63.1C122.412 63.012 122.604 62.896 122.772 62.752C122.94 62.6 123.084 62.424 123.204 62.224L123.984 62.716C123.8 62.996 123.596 63.244 123.372 63.46C123.148 63.668 122.876 63.832 122.556 63.952C122.236 64.064 121.836 64.12 121.356 64.12C120.86 64.12 120.412 63.996 120.012 63.748C119.62 63.5 119.308 63.16 119.076 62.728C118.852 62.288 118.74 61.792 118.74 61.24C118.74 61.136 118.744 61.036 118.752 60.94C118.76 60.844 118.772 60.748 118.788 60.652C118.868 60.196 119.028 59.796 119.268 59.452C119.508 59.108 119.816 58.84 120.192 58.648C120.576 58.456 121.004 58.36 121.476 58.36C121.996 58.36 122.452 58.476 122.844 58.708C123.236 58.94 123.54 59.268 123.756 59.692C123.972 60.108 124.08 60.608 124.08 61.192C124.08 61.24 124.08 61.288 124.08 61.336C124.08 61.384 124.076 61.432 124.068 61.48H119.352ZM124.556 58.48H127.796V59.38H124.556V58.48ZM125.696 58.72H126.656V64H125.696V58.72ZM129.323 61.12H130.919C131.303 61.12 131.647 61.16 131.951 61.24C132.255 61.32 132.495 61.46 132.671 61.66C132.847 61.86 132.935 62.14 132.935 62.5C132.935 62.916 132.795 63.272 132.515 63.568C132.243 63.856 131.791 64 131.159 64H129.323V63.16H130.919C131.279 63.16 131.543 63.084 131.711 62.932C131.887 62.78 131.975 62.596 131.975 62.38C131.975 62.268 131.951 62.168 131.903 62.08C131.863 61.992 131.799 61.912 131.711 61.84C131.631 61.768 131.523 61.716 131.387 61.684C131.259 61.644 131.103 61.624 130.919 61.624H129.323V61.12ZM129.323 61.36V60.796H130.799C130.943 60.796 131.071 60.78 131.183 60.748C131.303 60.708 131.403 60.652 131.483 60.58C131.563 60.508 131.623 60.428 131.663 60.34C131.711 60.244 131.735 60.144 131.735 60.04C131.735 59.824 131.651 59.652 131.483 59.524C131.315 59.388 131.087 59.32 130.799 59.32H129.323V58.48H130.799C131.143 58.48 131.455 58.532 131.735 58.636C132.023 58.732 132.255 58.892 132.431 59.116C132.607 59.332 132.695 59.62 132.695 59.98C132.695 60.292 132.607 60.552 132.431 60.76C132.255 60.96 132.023 61.112 131.735 61.216C131.455 61.312 131.143 61.36 130.799 61.36H129.323ZM128.759 58.48H129.719V64H128.759V58.48ZM133.717 61.24C133.717 60.68 133.841 60.184 134.089 59.752C134.345 59.32 134.689 58.98 135.121 58.732C135.553 58.484 136.037 58.36 136.573 58.36C137.117 58.36 137.601 58.484 138.025 58.732C138.457 58.98 138.797 59.32 139.045 59.752C139.301 60.184 139.429 60.68 139.429 61.24C139.429 61.792 139.301 62.288 139.045 62.728C138.797 63.16 138.457 63.5 138.025 63.748C137.601 63.996 137.117 64.12 136.573 64.12C136.037 64.12 135.553 63.996 135.121 63.748C134.689 63.5 134.345 63.16 134.089 62.728C133.841 62.288 133.717 61.792 133.717 61.24ZM134.689 61.24C134.689 61.624 134.769 61.964 134.929 62.26C135.097 62.556 135.321 62.792 135.601 62.968C135.889 63.136 136.213 63.22 136.573 63.22C136.933 63.22 137.253 63.136 137.533 62.968C137.821 62.792 138.045 62.556 138.205 62.26C138.373 61.964 138.457 61.624 138.457 61.24C138.457 60.856 138.373 60.516 138.205 60.22C138.045 59.916 137.821 59.68 137.533 59.512C137.253 59.344 136.933 59.26 136.573 59.26C136.213 59.26 135.889 59.344 135.601 59.512C135.321 59.68 135.097 59.916 134.929 60.22C134.769 60.516 134.689 60.856 134.689 61.24ZM141.648 66.64H140.688V58.48H141.648V66.64ZM146.268 61.24C146.268 61.832 146.144 62.344 145.896 62.776C145.648 63.208 145.316 63.54 144.9 63.772C144.492 64.004 144.036 64.12 143.532 64.12C143.076 64.12 142.672 64.004 142.32 63.772C141.976 63.54 141.704 63.208 141.504 62.776C141.312 62.344 141.216 61.832 141.216 61.24C141.216 60.64 141.312 60.128 141.504 59.704C141.704 59.272 141.976 58.94 142.32 58.708C142.672 58.476 143.076 58.36 143.532 58.36C144.036 58.36 144.492 58.476 144.9 58.708C145.316 58.94 145.648 59.272 145.896 59.704C146.144 60.128 146.268 60.64 146.268 61.24ZM145.296 61.24C145.296 60.816 145.208 60.456 145.032 60.16C144.864 59.864 144.636 59.64 144.348 59.488C144.068 59.336 143.756 59.26 143.412 59.26C143.132 59.26 142.856 59.336 142.584 59.488C142.312 59.64 142.088 59.864 141.912 60.16C141.736 60.456 141.648 60.816 141.648 61.24C141.648 61.664 141.736 62.024 141.912 62.32C142.088 62.616 142.312 62.84 142.584 62.992C142.856 63.144 143.132 63.22 143.412 63.22C143.756 63.22 144.068 63.144 144.348 62.992C144.636 62.84 144.864 62.616 145.032 62.32C145.208 62.024 145.296 61.664 145.296 61.24ZM147.723 61.48V60.664H151.407C151.375 60.376 151.295 60.124 151.167 59.908C151.047 59.684 150.875 59.512 150.651 59.392C150.435 59.264 150.167 59.2 149.847 59.2C149.527 59.2 149.235 59.268 148.971 59.404C148.707 59.54 148.495 59.736 148.335 59.992C148.183 60.24 148.107 60.536 148.107 60.88L148.083 61.24C148.083 61.664 148.155 62.024 148.299 62.32C148.443 62.616 148.647 62.84 148.911 62.992C149.175 63.144 149.487 63.22 149.847 63.22C150.119 63.22 150.359 63.18 150.567 63.1C150.783 63.012 150.975 62.896 151.143 62.752C151.311 62.6 151.455 62.424 151.575 62.224L152.355 62.716C152.171 62.996 151.967 63.244 151.743 63.46C151.519 63.668 151.247 63.832 150.927 63.952C150.607 64.064 150.207 64.12 149.727 64.12C149.231 64.12 148.783 63.996 148.383 63.748C147.991 63.5 147.679 63.16 147.447 62.728C147.223 62.288 147.111 61.792 147.111 61.24C147.111 61.136 147.115 61.036 147.123 60.94C147.131 60.844 147.143 60.748 147.159 60.652C147.239 60.196 147.399 59.796 147.639 59.452C147.879 59.108 148.187 58.84 148.563 58.648C148.947 58.456 149.375 58.36 149.847 58.36C150.367 58.36 150.823 58.476 151.215 58.708C151.607 58.94 151.911 59.268 152.127 59.692C152.343 60.108 152.451 60.608 152.451 61.192C152.451 61.24 152.451 61.288 152.451 61.336C152.451 61.384 152.447 61.432 152.439 61.48H147.723ZM154.331 61.54V60.64H158.411V61.54H154.331ZM157.787 58.48H158.747V64H157.787V58.48ZM153.767 58.48H154.727V64H153.767V58.48ZM165.172 59.44L160.612 64.42L160.672 63.04L165.232 58.06L165.172 59.44ZM161.572 58.48V63.1L160.612 64.42V58.48H161.572ZM165.232 58.06V64H164.272V59.38L165.232 58.06ZM167.883 64H166.827L168.867 61.12H169.923L167.883 64ZM171.387 64H170.427V58.48H171.387V64ZM170.823 60.952V61.792H169.107C168.731 61.792 168.387 61.736 168.075 61.624C167.771 61.512 167.531 61.336 167.355 61.096C167.179 60.848 167.091 60.528 167.091 60.136C167.091 59.736 167.179 59.416 167.355 59.176C167.531 58.936 167.771 58.76 168.075 58.648C168.387 58.536 168.731 58.48 169.107 58.48H170.823V59.32H169.107C168.875 59.32 168.679 59.352 168.519 59.416C168.367 59.472 168.251 59.56 168.171 59.68C168.091 59.8 168.051 59.952 168.051 60.136C168.051 60.32 168.091 60.472 168.171 60.592C168.251 60.712 168.367 60.804 168.519 60.868C168.679 60.924 168.875 60.952 169.107 60.952H170.823ZM177.054 61.12H178.65C179.034 61.12 179.378 61.16 179.682 61.24C179.986 61.32 180.226 61.46 180.402 61.66C180.578 61.86 180.666 62.14 180.666 62.5C180.666 62.916 180.526 63.272 180.246 63.568C179.974 63.856 179.522 64 178.89 64H177.054V63.16H178.65C179.01 63.16 179.274 63.084 179.442 62.932C179.618 62.78 179.706 62.596 179.706 62.38C179.706 62.268 179.682 62.168 179.634 62.08C179.594 61.992 179.53 61.912 179.442 61.84C179.362 61.768 179.254 61.716 179.118 61.684C178.99 61.644 178.834 61.624 178.65 61.624H177.054V61.12ZM177.054 61.36V60.796H178.53C178.674 60.796 178.802 60.78 178.914 60.748C179.034 60.708 179.134 60.652 179.214 60.58C179.294 60.508 179.354 60.428 179.394 60.34C179.442 60.244 179.466 60.144 179.466 60.04C179.466 59.824 179.382 59.652 179.214 59.524C179.046 59.388 178.818 59.32 178.53 59.32H177.054V58.48H178.53C178.874 58.48 179.186 58.532 179.466 58.636C179.754 58.732 179.986 58.892 180.162 59.116C180.338 59.332 180.426 59.62 180.426 59.98C180.426 60.292 180.338 60.552 180.162 60.76C179.986 60.96 179.754 61.112 179.466 61.216C179.186 61.312 178.874 61.36 178.53 61.36H177.054ZM176.49 58.48H177.45V64H176.49V58.48ZM182.359 62.38C182.359 62.572 182.411 62.736 182.515 62.872C182.619 63 182.759 63.1 182.935 63.172C183.111 63.236 183.307 63.268 183.523 63.268C183.843 63.268 184.127 63.22 184.375 63.124C184.623 63.028 184.815 62.876 184.951 62.668C185.095 62.46 185.167 62.184 185.167 61.84L185.359 62.44C185.359 62.792 185.263 63.096 185.071 63.352C184.887 63.6 184.639 63.792 184.327 63.928C184.015 64.056 183.667 64.12 183.283 64.12C182.939 64.12 182.623 64.056 182.335 63.928C182.047 63.8 181.815 63.612 181.639 63.364C181.471 63.108 181.387 62.792 181.387 62.416C181.387 62.024 181.483 61.692 181.675 61.42C181.867 61.148 182.139 60.94 182.491 60.796C182.843 60.644 183.259 60.568 183.739 60.568C184.091 60.568 184.391 60.616 184.639 60.712C184.895 60.8 185.099 60.904 185.251 61.024C185.403 61.136 185.507 61.228 185.563 61.3V61.864C185.291 61.672 185.015 61.532 184.735 61.444C184.455 61.348 184.139 61.3 183.787 61.3C183.467 61.3 183.199 61.344 182.983 61.432C182.775 61.52 182.619 61.644 182.515 61.804C182.411 61.964 182.359 62.156 182.359 62.38ZM182.359 59.776L181.891 59.044C182.099 58.892 182.379 58.74 182.731 58.588C183.083 58.436 183.507 58.36 184.003 58.36C184.427 58.36 184.795 58.428 185.107 58.564C185.427 58.692 185.675 58.88 185.851 59.128C186.035 59.376 186.127 59.68 186.127 60.04V64H185.167V60.04C185.167 59.76 185.047 59.552 184.807 59.416C184.575 59.272 184.307 59.2 184.003 59.2C183.739 59.2 183.499 59.236 183.283 59.308C183.067 59.372 182.879 59.452 182.719 59.548C182.567 59.636 182.447 59.712 182.359 59.776ZM192.012 63.1H194.352V58.48H195.312V64H187.752V58.48H188.712V63.1H191.052V58.48H192.012V63.1ZM201.735 59.44L197.175 64.42L197.235 63.04L201.795 58.06L201.735 59.44ZM198.135 58.48V63.1L197.175 64.42V58.48H198.135ZM201.795 58.06V64H200.835V59.38L201.795 58.06ZM206.594 58.48H207.674L205.79 61.156L207.794 64H206.714L205.274 61.912L203.834 64H202.754L204.758 61.156L202.874 58.48H203.954L205.274 60.4L206.594 58.48ZM115.722 75.48V81H114.762V76.38H112.182V81H111.222V75.48H115.722ZM117.047 78.24C117.047 77.68 117.171 77.184 117.419 76.752C117.675 76.32 118.019 75.98 118.451 75.732C118.883 75.484 119.367 75.36 119.903 75.36C120.447 75.36 120.931 75.484 121.355 75.732C121.787 75.98 122.127 76.32 122.375 76.752C122.631 77.184 122.759 77.68 122.759 78.24C122.759 78.792 122.631 79.288 122.375 79.728C122.127 80.16 121.787 80.5 121.355 80.748C120.931 80.996 120.447 81.12 119.903 81.12C119.367 81.12 118.883 80.996 118.451 80.748C118.019 80.5 117.675 80.16 117.419 79.728C117.171 79.288 117.047 78.792 117.047 78.24ZM118.019 78.24C118.019 78.624 118.099 78.964 118.259 79.26C118.427 79.556 118.651 79.792 118.931 79.968C119.219 80.136 119.543 80.22 119.903 80.22C120.263 80.22 120.583 80.136 120.863 79.968C121.151 79.792 121.375 79.556 121.535 79.26C121.703 78.964 121.787 78.624 121.787 78.24C121.787 77.856 121.703 77.516 121.535 77.22C121.375 76.916 121.151 76.68 120.863 76.512C120.583 76.344 120.263 76.26 119.903 76.26C119.543 76.26 119.219 76.344 118.931 76.512C118.651 76.68 118.427 76.916 118.259 77.22C118.099 77.516 118.019 77.856 118.019 78.24ZM123.238 75.48H126.478V76.38H123.238V75.48ZM124.378 75.72H125.338V81H124.378V75.72ZM128.341 83.64H127.381V75.48H128.341V83.64ZM132.961 78.24C132.961 78.832 132.837 79.344 132.589 79.776C132.341 80.208 132.009 80.54 131.593 80.772C131.185 81.004 130.729 81.12 130.225 81.12C129.769 81.12 129.365 81.004 129.013 80.772C128.669 80.54 128.397 80.208 128.197 79.776C128.005 79.344 127.909 78.832 127.909 78.24C127.909 77.64 128.005 77.128 128.197 76.704C128.397 76.272 128.669 75.94 129.013 75.708C129.365 75.476 129.769 75.36 130.225 75.36C130.729 75.36 131.185 75.476 131.593 75.708C132.009 75.94 132.341 76.272 132.589 76.704C132.837 77.128 132.961 77.64 132.961 78.24ZM131.989 78.24C131.989 77.816 131.901 77.456 131.725 77.16C131.557 76.864 131.329 76.64 131.041 76.488C130.761 76.336 130.449 76.26 130.105 76.26C129.825 76.26 129.549 76.336 129.277 76.488C129.005 76.64 128.781 76.864 128.605 77.16C128.429 77.456 128.341 77.816 128.341 78.24C128.341 78.664 128.429 79.024 128.605 79.32C128.781 79.616 129.005 79.84 129.277 79.992C129.549 80.144 129.825 80.22 130.105 80.22C130.449 80.22 130.761 80.144 131.041 79.992C131.329 79.84 131.557 79.616 131.725 79.32C131.901 79.024 131.989 78.664 131.989 78.24ZM134.417 78.48V77.664H138.101C138.069 77.376 137.989 77.124 137.861 76.908C137.741 76.684 137.569 76.512 137.345 76.392C137.129 76.264 136.861 76.2 136.541 76.2C136.221 76.2 135.929 76.268 135.665 76.404C135.401 76.54 135.189 76.736 135.029 76.992C134.877 77.24 134.801 77.536 134.801 77.88L134.777 78.24C134.777 78.664 134.849 79.024 134.993 79.32C135.137 79.616 135.341 79.84 135.605 79.992C135.869 80.144 136.181 80.22 136.541 80.22C136.813 80.22 137.053 80.18 137.261 80.1C137.477 80.012 137.669 79.896 137.837 79.752C138.005 79.6 138.149 79.424 138.269 79.224L139.049 79.716C138.865 79.996 138.661 80.244 138.437 80.46C138.213 80.668 137.941 80.832 137.621 80.952C137.301 81.064 136.901 81.12 136.421 81.12C135.925 81.12 135.477 80.996 135.077 80.748C134.685 80.5 134.373 80.16 134.141 79.728C133.917 79.288 133.805 78.792 133.805 78.24C133.805 78.136 133.809 78.036 133.817 77.94C133.825 77.844 133.837 77.748 133.853 77.652C133.933 77.196 134.093 76.796 134.333 76.452C134.573 76.108 134.881 75.84 135.257 75.648C135.641 75.456 136.069 75.36 136.541 75.36C137.061 75.36 137.517 75.476 137.909 75.708C138.301 75.94 138.605 76.268 138.821 76.692C139.037 77.108 139.145 77.608 139.145 78.192C139.145 78.24 139.145 78.288 139.145 78.336C139.145 78.384 139.141 78.432 139.133 78.48H134.417ZM142.837 76.26V75.36C143.381 75.36 143.865 75.484 144.289 75.732C144.721 75.98 145.061 76.32 145.309 76.752C145.565 77.184 145.693 77.68 145.693 78.24C145.693 78.792 145.565 79.288 145.309 79.728C145.061 80.16 144.721 80.5 144.289 80.748C143.865 80.996 143.381 81.12 142.837 81.12C142.301 81.12 141.817 80.988 141.385 80.724C140.953 80.452 140.609 80.048 140.353 79.512C140.105 78.976 139.981 78.312 139.981 77.52L140.941 78.24C140.941 78.624 141.025 78.964 141.193 79.26C141.361 79.556 141.585 79.792 141.865 79.968C142.153 80.136 142.477 80.22 142.837 80.22C143.197 80.22 143.517 80.136 143.797 79.968C144.085 79.792 144.309 79.556 144.469 79.26C144.637 78.964 144.721 78.624 144.721 78.24C144.721 77.856 144.637 77.516 144.469 77.22C144.309 76.916 144.085 76.68 143.797 76.512C143.517 76.344 143.197 76.26 142.837 76.26ZM140.509 78.24C140.509 77.792 140.565 77.392 140.677 77.04C140.789 76.68 140.949 76.376 141.157 76.128C141.365 75.88 141.609 75.692 141.889 75.564C142.177 75.428 142.493 75.36 142.837 75.36V76.26C142.629 76.26 142.413 76.304 142.189 76.392C141.965 76.48 141.757 76.608 141.565 76.776C141.381 76.944 141.229 77.152 141.109 77.4C140.997 77.64 140.941 77.92 140.941 78.24H140.509ZM139.981 77.52C139.981 76.768 140.053 76.104 140.197 75.528C140.341 74.952 140.593 74.464 140.953 74.064C141.321 73.664 141.825 73.352 142.465 73.128C143.009 72.944 143.413 72.724 143.677 72.468C143.949 72.204 144.113 71.928 144.169 71.64H145.117C145.077 71.992 144.949 72.316 144.733 72.612C144.517 72.9 144.233 73.152 143.881 73.368C143.537 73.584 143.145 73.764 142.705 73.908C142.209 74.068 141.821 74.312 141.541 74.64C141.269 74.96 141.081 75.32 140.977 75.72C140.873 76.12 140.821 76.52 140.821 76.92V78.156L139.981 77.52ZM147.575 78.54V77.64H151.655V78.54H147.575ZM151.031 75.48H151.991V81H151.031V75.48ZM147.011 75.48H147.971V81H147.011V75.48ZM153.316 78.24C153.316 77.68 153.44 77.184 153.688 76.752C153.944 76.32 154.288 75.98 154.72 75.732C155.152 75.484 155.636 75.36 156.172 75.36C156.716 75.36 157.2 75.484 157.624 75.732C158.056 75.98 158.396 76.32 158.644 76.752C158.9 77.184 159.028 77.68 159.028 78.24C159.028 78.792 158.9 79.288 158.644 79.728C158.396 80.16 158.056 80.5 157.624 80.748C157.2 80.996 156.716 81.12 156.172 81.12C155.636 81.12 155.152 80.996 154.72 80.748C154.288 80.5 153.944 80.16 153.688 79.728C153.44 79.288 153.316 78.792 153.316 78.24ZM154.288 78.24C154.288 78.624 154.368 78.964 154.528 79.26C154.696 79.556 154.92 79.792 155.2 79.968C155.488 80.136 155.812 80.22 156.172 80.22C156.532 80.22 156.852 80.136 157.132 79.968C157.42 79.792 157.644 79.556 157.804 79.26C157.972 78.964 158.056 78.624 158.056 78.24C158.056 77.856 157.972 77.516 157.804 77.22C157.644 76.916 157.42 76.68 157.132 76.512C156.852 76.344 156.532 76.26 156.172 76.26C155.812 76.26 155.488 76.344 155.2 76.512C154.92 76.68 154.696 76.916 154.528 77.22C154.368 77.516 154.288 77.856 154.288 78.24ZM160.779 78.24C160.779 78.624 160.859 78.964 161.019 79.26C161.187 79.556 161.411 79.792 161.691 79.968C161.979 80.136 162.303 80.22 162.663 80.22C162.959 80.22 163.235 80.176 163.491 80.088C163.755 79.992 163.983 79.868 164.175 79.716C164.367 79.556 164.503 79.388 164.583 79.212V80.412C164.391 80.636 164.115 80.812 163.755 80.94C163.403 81.06 163.039 81.12 162.663 81.12C162.127 81.12 161.643 80.996 161.211 80.748C160.779 80.5 160.435 80.16 160.179 79.728C159.931 79.288 159.807 78.792 159.807 78.24C159.807 77.68 159.931 77.184 160.179 76.752C160.435 76.32 160.779 75.98 161.211 75.732C161.643 75.484 162.127 75.36 162.663 75.36C163.039 75.36 163.403 75.424 163.755 75.552C164.115 75.672 164.391 75.844 164.583 76.068V77.268C164.503 77.084 164.367 76.916 164.175 76.764C163.983 76.612 163.755 76.492 163.491 76.404C163.235 76.308 162.959 76.26 162.663 76.26C162.303 76.26 161.979 76.344 161.691 76.512C161.411 76.68 161.187 76.916 161.019 77.22C160.859 77.516 160.779 77.856 160.779 78.24ZM165.238 75.48H168.478V76.38H165.238V75.48ZM166.378 75.72H167.338V81H166.378V75.72ZM169.397 78.48V77.664H173.081C173.049 77.376 172.969 77.124 172.841 76.908C172.721 76.684 172.549 76.512 172.325 76.392C172.109 76.264 171.841 76.2 171.521 76.2C171.201 76.2 170.909 76.268 170.645 76.404C170.381 76.54 170.169 76.736 170.009 76.992C169.857 77.24 169.781 77.536 169.781 77.88L169.757 78.24C169.757 78.664 169.829 79.024 169.973 79.32C170.117 79.616 170.321 79.84 170.585 79.992C170.849 80.144 171.161 80.22 171.521 80.22C171.793 80.22 172.033 80.18 172.241 80.1C172.457 80.012 172.649 79.896 172.817 79.752C172.985 79.6 173.129 79.424 173.249 79.224L174.029 79.716C173.845 79.996 173.641 80.244 173.417 80.46C173.193 80.668 172.921 80.832 172.601 80.952C172.281 81.064 171.881 81.12 171.401 81.12C170.905 81.12 170.457 80.996 170.057 80.748C169.665 80.5 169.353 80.16 169.121 79.728C168.897 79.288 168.785 78.792 168.785 78.24C168.785 78.136 168.789 78.036 168.797 77.94C168.805 77.844 168.817 77.748 168.833 77.652C168.913 77.196 169.073 76.796 169.313 76.452C169.553 76.108 169.861 75.84 170.237 75.648C170.621 75.456 171.049 75.36 171.521 75.36C172.041 75.36 172.497 75.476 172.889 75.708C173.281 75.94 173.585 76.268 173.801 76.692C174.017 77.108 174.125 77.608 174.125 78.192C174.125 78.24 174.125 78.288 174.125 78.336C174.125 78.384 174.121 78.432 174.113 78.48H169.397ZM180.061 76.44L175.501 81.42L175.561 80.04L180.121 75.06L180.061 76.44ZM176.461 75.48V80.1L175.501 81.42V75.48H176.461ZM180.121 75.06V81H179.161V76.38L180.121 75.06ZM175.945 72.66H176.797C176.797 72.764 176.825 72.888 176.881 73.032C176.937 73.168 177.041 73.292 177.193 73.404C177.345 73.508 177.561 73.56 177.841 73.56C178.121 73.56 178.337 73.508 178.489 73.404C178.641 73.292 178.745 73.168 178.801 73.032C178.857 72.888 178.885 72.764 178.885 72.66H179.737C179.737 72.932 179.665 73.2 179.521 73.464C179.385 73.72 179.177 73.932 178.897 74.1C178.617 74.26 178.265 74.34 177.841 74.34C177.425 74.34 177.073 74.26 176.785 74.1C176.505 73.932 176.293 73.72 176.149 73.464C176.013 73.2 175.945 72.932 175.945 72.66ZM182.22 80.52C182.22 80.336 182.284 80.18 182.412 80.052C182.548 79.924 182.704 79.86 182.88 79.86C183.064 79.86 183.22 79.924 183.348 80.052C183.476 80.18 183.54 80.336 183.54 80.52C183.54 80.696 183.476 80.852 183.348 80.988C183.22 81.116 183.064 81.18 182.88 81.18C182.704 81.18 182.548 81.116 182.412 80.988C182.284 80.852 182.22 80.696 182.22 80.52Z" fill="white"/>
<circle cx="150" cy="305" r="149.5" stroke="#FF3100"/>
<line x1="150.49" y1="451.002" x2="150.49" y2="55.9969" stroke="white" stroke-opacity="0.26" stroke-dasharray="9 9"/>
<line x1="111.992" y1="250.667" x2="186.017" y2="327.928" stroke="white" stroke-opacity="0.24"/>
<line x1="109.667" y1="326.295" x2="186.928" y2="252.27" stroke="white" stroke-opacity="0.13"/>
</svg>
