<svg width="300" height="476" viewBox="0 0 300 476" fill="none" xmlns="http://www.w3.org/2000/svg">
<path d="M103.653 299.9C104.205 300.86 104.793 301.712 105.417 302.456C106.065 303.176 106.773 303.74 107.541 304.148C108.309 304.532 109.173 304.724 110.133 304.724C111.285 304.724 112.221 304.412 112.941 303.788C113.661 303.164 114.021 302.36 114.021 301.376C114.021 300.44 113.793 299.696 113.337 299.144C112.881 298.568 112.245 298.088 111.429 297.704C110.637 297.296 109.713 296.9 108.657 296.516C108.033 296.3 107.337 296.012 106.569 295.652C105.801 295.268 105.069 294.8 104.373 294.248C103.677 293.672 103.101 292.976 102.645 292.16C102.189 291.32 101.961 290.312 101.961 289.136C101.961 287.792 102.309 286.616 103.005 285.608C103.701 284.576 104.637 283.784 105.813 283.232C107.013 282.656 108.369 282.368 109.881 282.368C111.369 282.368 112.665 282.632 113.769 283.16C114.873 283.688 115.797 284.36 116.541 285.176C117.309 285.992 117.909 286.844 118.341 287.732L114.885 289.676C114.573 289.052 114.177 288.476 113.697 287.948C113.217 287.396 112.653 286.964 112.005 286.652C111.381 286.316 110.649 286.148 109.809 286.148C108.633 286.148 107.769 286.424 107.217 286.976C106.665 287.504 106.389 288.128 106.389 288.848C106.389 289.496 106.581 290.084 106.965 290.612C107.373 291.116 107.997 291.596 108.837 292.052C109.677 292.508 110.769 292.976 112.113 293.456C112.857 293.72 113.601 294.056 114.345 294.464C115.113 294.872 115.809 295.388 116.433 296.012C117.057 296.612 117.549 297.32 117.909 298.136C118.293 298.952 118.485 299.912 118.485 301.016C118.485 302.192 118.257 303.248 117.801 304.184C117.345 305.12 116.721 305.912 115.929 306.56C115.137 307.184 114.237 307.664 113.229 308C112.245 308.36 111.213 308.54 110.133 308.54C108.645 308.54 107.265 308.252 105.993 307.676C104.745 307.076 103.653 306.284 102.717 305.3C101.781 304.316 101.037 303.248 100.485 302.096L103.653 299.9ZM120.217 291.44H129.613V294.86H120.217V291.44ZM122.989 285.68H126.841V308H122.989V285.68ZM136.147 291.44V308H132.295V291.44H136.147ZM141.079 295.58C140.719 295.292 140.383 295.076 140.071 294.932C139.759 294.788 139.363 294.716 138.883 294.716C138.235 294.716 137.707 294.884 137.299 295.22C136.891 295.556 136.591 296.024 136.399 296.624C136.231 297.2 136.147 297.884 136.147 298.676L134.851 297.92C134.851 296.6 135.091 295.436 135.571 294.428C136.075 293.396 136.711 292.58 137.479 291.98C138.271 291.38 139.087 291.08 139.927 291.08C140.527 291.08 141.091 291.176 141.619 291.368C142.147 291.536 142.591 291.848 142.951 292.304L141.079 295.58ZM143.831 299.72C143.831 298.016 144.215 296.516 144.983 295.22C145.775 293.924 146.843 292.916 148.187 292.196C149.531 291.452 151.055 291.08 152.759 291.08C154.463 291.08 155.975 291.452 157.295 292.196C158.639 292.916 159.707 293.924 160.499 295.22C161.291 296.516 161.687 298.016 161.687 299.72C161.687 301.4 161.291 302.9 160.499 304.22C159.707 305.516 158.639 306.536 157.295 307.28C155.975 308 154.463 308.36 152.759 308.36C151.055 308.36 149.531 308 148.187 307.28C146.843 306.536 145.775 305.516 144.983 304.22C144.215 302.9 143.831 301.4 143.831 299.72ZM147.827 299.72C147.827 300.752 148.043 301.664 148.475 302.456C148.907 303.224 149.495 303.836 150.239 304.292C150.983 304.724 151.823 304.94 152.759 304.94C153.671 304.94 154.499 304.724 155.243 304.292C156.011 303.836 156.611 303.224 157.043 302.456C157.475 301.664 157.691 300.752 157.691 299.72C157.691 298.688 157.475 297.776 157.043 296.984C156.611 296.192 156.011 295.58 155.243 295.148C154.499 294.716 153.671 294.5 152.759 294.5C151.823 294.5 150.983 294.716 150.239 295.148C149.495 295.58 148.907 296.192 148.475 296.984C148.043 297.776 147.827 298.688 147.827 299.72ZM176.033 297.92C176.033 296.696 175.781 295.772 175.277 295.148C174.773 294.524 173.993 294.212 172.937 294.212C172.217 294.212 171.581 294.368 171.029 294.68C170.477 294.968 170.045 295.4 169.733 295.976C169.421 296.528 169.265 297.176 169.265 297.92V308H165.377V291.44H169.265V293.996C169.793 293.012 170.465 292.28 171.281 291.8C172.121 291.32 173.117 291.08 174.269 291.08C176.141 291.08 177.569 291.656 178.553 292.808C179.537 293.936 180.029 295.496 180.029 297.488V308H176.033V297.92ZM184.058 309.116H187.91C187.934 309.86 188.138 310.532 188.522 311.132C188.93 311.732 189.482 312.2 190.178 312.536C190.874 312.872 191.678 313.04 192.59 313.04C193.406 313.04 194.186 312.848 194.93 312.464C195.674 312.08 196.274 311.492 196.73 310.7C197.21 309.908 197.45 308.888 197.45 307.64V291.44H201.266V307.64C201.266 309.632 200.858 311.276 200.042 312.572C199.25 313.868 198.206 314.828 196.91 315.452C195.614 316.1 194.21 316.424 192.698 316.424C190.898 316.424 189.362 316.112 188.09 315.488C186.818 314.888 185.834 314.036 185.138 312.932C184.466 311.828 184.106 310.556 184.058 309.116ZM183.734 299.648C183.734 297.8 184.106 296.252 184.85 295.004C185.594 293.732 186.578 292.76 187.802 292.088C189.05 291.416 190.382 291.08 191.798 291.08C193.19 291.08 194.402 291.428 195.434 292.124C196.49 292.796 197.318 293.768 197.918 295.04C198.542 296.312 198.854 297.848 198.854 299.648C198.854 301.424 198.542 302.948 197.918 304.22C197.318 305.492 196.49 306.476 195.434 307.172C194.402 307.844 193.19 308.18 191.798 308.18C190.382 308.18 189.05 307.844 187.802 307.172C186.578 306.5 185.594 305.528 184.85 304.256C184.106 302.984 183.734 301.448 183.734 299.648ZM187.766 299.648C187.766 300.752 187.994 301.688 188.45 302.456C188.906 303.224 189.506 303.812 190.25 304.22C191.018 304.604 191.846 304.796 192.734 304.796C193.478 304.796 194.21 304.604 194.93 304.22C195.674 303.836 196.274 303.26 196.73 302.492C197.21 301.7 197.45 300.752 197.45 299.648C197.45 298.784 197.306 298.04 197.018 297.416C196.754 296.768 196.394 296.228 195.938 295.796C195.482 295.34 194.966 295.004 194.39 294.788C193.838 294.572 193.286 294.464 192.734 294.464C191.846 294.464 191.018 294.668 190.25 295.076C189.506 295.46 188.906 296.036 188.45 296.804C187.994 297.572 187.766 298.52 187.766 299.648ZM107.889 331.92H111.813V360H107.889V331.92ZM94.1732 351.72C94.1732 349.896 94.5452 348.348 95.2892 347.076C96.0332 345.78 97.0172 344.796 98.2412 344.124C99.4892 343.428 100.821 343.08 102.237 343.08C103.629 343.08 104.841 343.428 105.873 344.124C106.929 344.82 107.757 345.816 108.357 347.112C108.981 348.384 109.293 349.92 109.293 351.72C109.293 353.496 108.981 355.032 108.357 356.328C107.757 357.624 106.929 358.62 105.873 359.316C104.841 360.012 103.629 360.36 102.237 360.36C100.821 360.36 99.4892 360.024 98.2412 359.352C97.0172 358.656 96.0332 357.66 95.2892 356.364C94.5452 355.068 94.1732 353.52 94.1732 351.72ZM98.2052 351.72C98.2052 352.824 98.4332 353.772 98.8892 354.564C99.3452 355.356 99.9452 355.956 100.689 356.364C101.457 356.772 102.285 356.976 103.173 356.976C103.917 356.976 104.649 356.772 105.369 356.364C106.113 355.956 106.713 355.368 107.169 354.6C107.649 353.808 107.889 352.848 107.889 351.72C107.889 350.592 107.649 349.644 107.169 348.876C106.713 348.084 106.113 347.484 105.369 347.076C104.649 346.668 103.917 346.464 103.173 346.464C102.285 346.464 101.457 346.668 100.689 347.076C99.9452 347.484 99.3452 348.084 98.8892 348.876C98.4332 349.668 98.2052 350.616 98.2052 351.72ZM123.832 360.36C122.152 360.36 120.664 360 119.368 359.28C118.096 358.56 117.112 357.552 116.416 356.256C115.72 354.96 115.372 353.448 115.372 351.72C115.372 349.968 115.72 348.444 116.416 347.148C117.136 345.852 118.144 344.856 119.44 344.16C120.736 343.44 122.26 343.08 124.012 343.08C125.764 343.08 127.252 343.416 128.476 344.088C129.7 344.76 130.636 345.732 131.284 347.004C131.956 348.252 132.292 349.764 132.292 351.54C132.292 351.732 132.28 351.936 132.256 352.152C132.256 352.368 132.244 352.524 132.22 352.62H117.676V349.956H128.908L127.72 351.612C127.792 351.468 127.864 351.276 127.936 351.036C128.032 350.772 128.08 350.556 128.08 350.388C128.08 349.5 127.9 348.732 127.54 348.084C127.204 347.436 126.724 346.932 126.1 346.572C125.5 346.212 124.792 346.032 123.976 346.032C122.992 346.032 122.152 346.248 121.456 346.68C120.76 347.112 120.232 347.736 119.872 348.552C119.512 349.368 119.32 350.376 119.296 351.576C119.296 352.776 119.476 353.796 119.836 354.636C120.196 355.452 120.724 356.076 121.42 356.508C122.14 356.94 123.004 357.156 124.012 357.156C125.068 357.156 125.992 356.94 126.784 356.508C127.576 356.076 128.236 355.416 128.764 354.528L132.112 355.896C131.248 357.384 130.132 358.5 128.764 359.244C127.396 359.988 125.752 360.36 123.832 360.36ZM136.76 354.564C137.288 355.14 137.816 355.644 138.344 356.076C138.896 356.484 139.448 356.796 140 357.012C140.552 357.204 141.104 357.3 141.656 357.3C142.352 357.3 142.892 357.144 143.276 356.832C143.684 356.52 143.888 356.088 143.888 355.536C143.888 355.056 143.732 354.648 143.42 354.312C143.108 353.952 142.676 353.652 142.124 353.412C141.572 353.148 140.924 352.884 140.18 352.62C139.436 352.332 138.692 351.996 137.948 351.612C137.228 351.204 136.628 350.676 136.148 350.028C135.692 349.38 135.464 348.564 135.464 347.58C135.464 346.572 135.716 345.732 136.22 345.06C136.748 344.388 137.444 343.896 138.308 343.584C139.196 343.248 140.144 343.08 141.152 343.08C142.064 343.08 142.916 343.212 143.708 343.476C144.524 343.74 145.256 344.088 145.904 344.52C146.552 344.952 147.104 345.444 147.56 345.996L145.4 348.3C144.848 347.652 144.188 347.124 143.42 346.716C142.652 346.308 141.86 346.104 141.044 346.104C140.492 346.104 140.036 346.224 139.676 346.464C139.316 346.704 139.136 347.052 139.136 347.508C139.136 347.892 139.292 348.24 139.604 348.552C139.94 348.84 140.372 349.104 140.9 349.344C141.452 349.584 142.064 349.836 142.736 350.1C143.648 350.46 144.488 350.856 145.256 351.288C146.024 351.72 146.636 352.248 147.092 352.872C147.572 353.496 147.812 354.312 147.812 355.32C147.812 356.88 147.272 358.14 146.192 359.1C145.136 360.036 143.696 360.504 141.872 360.504C140.744 360.504 139.7 360.336 138.74 360C137.804 359.64 136.976 359.184 136.256 358.632C135.56 358.056 134.972 357.456 134.492 356.832L136.76 354.564ZM151.117 336.852C151.117 336.18 151.357 335.616 151.837 335.16C152.341 334.704 152.917 334.476 153.565 334.476C154.261 334.476 154.837 334.704 155.293 335.16C155.773 335.616 156.013 336.18 156.013 336.852C156.013 337.5 155.773 338.064 155.293 338.544C154.837 339 154.261 339.228 153.565 339.228C152.917 339.228 152.341 339 151.837 338.544C151.357 338.064 151.117 337.5 151.117 336.852ZM151.657 343.44H155.473V360H151.657V343.44ZM159.888 361.116H163.74C163.764 361.86 163.968 362.532 164.352 363.132C164.76 363.732 165.312 364.2 166.008 364.536C166.704 364.872 167.508 365.04 168.42 365.04C169.236 365.04 170.016 364.848 170.76 364.464C171.504 364.08 172.104 363.492 172.56 362.7C173.04 361.908 173.28 360.888 173.28 359.64V343.44H177.096V359.64C177.096 361.632 176.688 363.276 175.872 364.572C175.08 365.868 174.036 366.828 172.74 367.452C171.444 368.1 170.04 368.424 168.528 368.424C166.728 368.424 165.192 368.112 163.92 367.488C162.648 366.888 161.664 366.036 160.968 364.932C160.296 363.828 159.936 362.556 159.888 361.116ZM159.564 351.648C159.564 349.8 159.936 348.252 160.68 347.004C161.424 345.732 162.408 344.76 163.632 344.088C164.88 343.416 166.212 343.08 167.628 343.08C169.02 343.08 170.232 343.428 171.264 344.124C172.32 344.796 173.148 345.768 173.748 347.04C174.372 348.312 174.684 349.848 174.684 351.648C174.684 353.424 174.372 354.948 173.748 356.22C173.148 357.492 172.32 358.476 171.264 359.172C170.232 359.844 169.02 360.18 167.628 360.18C166.212 360.18 164.88 359.844 163.632 359.172C162.408 358.5 161.424 357.528 160.68 356.256C159.936 354.984 159.564 353.448 159.564 351.648ZM163.596 351.648C163.596 352.752 163.824 353.688 164.28 354.456C164.736 355.224 165.336 355.812 166.08 356.22C166.848 356.604 167.676 356.796 168.564 356.796C169.308 356.796 170.04 356.604 170.76 356.22C171.504 355.836 172.104 355.26 172.56 354.492C173.04 353.7 173.28 352.752 173.28 351.648C173.28 350.784 173.136 350.04 172.848 349.416C172.584 348.768 172.224 348.228 171.768 347.796C171.312 347.34 170.796 347.004 170.22 346.788C169.668 346.572 169.116 346.464 168.564 346.464C167.676 346.464 166.848 346.668 166.08 347.076C165.336 347.46 164.736 348.036 164.28 348.804C163.824 349.572 163.596 350.52 163.596 351.648ZM192.574 349.92C192.574 348.696 192.322 347.772 191.818 347.148C191.314 346.524 190.534 346.212 189.478 346.212C188.758 346.212 188.122 346.368 187.57 346.68C187.018 346.968 186.586 347.4 186.274 347.976C185.962 348.528 185.806 349.176 185.806 349.92V360H181.918V343.44H185.806V345.996C186.334 345.012 187.006 344.28 187.822 343.8C188.662 343.32 189.658 343.08 190.81 343.08C192.682 343.08 194.11 343.656 195.094 344.808C196.078 345.936 196.57 347.496 196.57 349.488V360H192.574V349.92Z" fill="white"/>
<path d="M28.008 4.6H28.668V13H28.008V4.6ZM30.288 13H28.368V12.34H30.288C30.808 12.34 31.28 12.256 31.704 12.088C32.136 11.92 32.504 11.684 32.808 11.38C33.112 11.068 33.344 10.696 33.504 10.264C33.672 9.824 33.756 9.336 33.756 8.8C33.756 8.264 33.672 7.78 33.504 7.348C33.344 6.908 33.112 6.536 32.808 6.232C32.504 5.92 32.136 5.68 31.704 5.512C31.28 5.344 30.808 5.26 30.288 5.26H28.368V4.6H30.288C31.104 4.6 31.82 4.776 32.436 5.128C33.06 5.48 33.544 5.972 33.888 6.604C34.24 7.228 34.416 7.96 34.416 8.8C34.416 9.64 34.24 10.376 33.888 11.008C33.544 11.632 33.06 12.12 32.436 12.472C31.82 12.824 31.104 13 30.288 13ZM37.9693 13.12C37.4733 13.12 37.0333 12.996 36.6493 12.748C36.2653 12.5 35.9613 12.16 35.7373 11.728C35.5213 11.288 35.4133 10.788 35.4133 10.228C35.4133 9.668 35.5253 9.172 35.7493 8.74C35.9733 8.308 36.2853 7.972 36.6853 7.732C37.0853 7.484 37.5453 7.36 38.0653 7.36C38.5693 7.36 39.0093 7.476 39.3853 7.708C39.7693 7.94 40.0653 8.264 40.2733 8.68C40.4893 9.088 40.5973 9.56 40.5973 10.096C40.5973 10.144 40.5933 10.196 40.5853 10.252C40.5853 10.308 40.5813 10.356 40.5733 10.396H35.8093V9.856H40.1053L39.8413 10.228C39.8573 10.188 39.8733 10.136 39.8893 10.072C39.9133 10 39.9253 9.932 39.9253 9.868C39.9253 9.492 39.8413 9.156 39.6733 8.86C39.5133 8.564 39.2933 8.332 39.0133 8.164C38.7333 7.996 38.4173 7.912 38.0653 7.912C37.6573 7.912 37.3013 8.008 36.9973 8.2C36.7013 8.384 36.4693 8.648 36.3013 8.992C36.1333 9.328 36.0493 9.728 36.0493 10.192C36.0493 10.664 36.1293 11.076 36.2893 11.428C36.4573 11.78 36.6893 12.052 36.9853 12.244C37.2893 12.436 37.6413 12.532 38.0413 12.532C38.4653 12.532 38.8333 12.44 39.1453 12.256C39.4653 12.072 39.7493 11.784 39.9973 11.392L40.5013 11.716C40.1893 12.196 39.8253 12.552 39.4093 12.784C39.0013 13.008 38.5213 13.12 37.9693 13.12ZM41.9985 11.428C42.0785 11.628 42.1865 11.812 42.3225 11.98C42.4585 12.148 42.6305 12.284 42.8385 12.388C43.0545 12.492 43.3065 12.544 43.5945 12.544C43.9305 12.544 44.1985 12.46 44.3985 12.292C44.6065 12.116 44.7105 11.876 44.7105 11.572C44.7105 11.348 44.6465 11.164 44.5185 11.02C44.3905 10.868 44.2225 10.744 44.0145 10.648C43.8065 10.544 43.5825 10.452 43.3425 10.372C43.0865 10.276 42.8385 10.168 42.5985 10.048C42.3585 9.928 42.1585 9.768 41.9985 9.568C41.8465 9.36 41.7705 9.092 41.7705 8.764C41.7705 8.452 41.8465 8.192 41.9985 7.984C42.1585 7.776 42.3625 7.624 42.6105 7.528C42.8665 7.424 43.1385 7.372 43.4265 7.372C43.7385 7.372 44.0185 7.424 44.2665 7.528C44.5145 7.632 44.7265 7.768 44.9025 7.936C45.0785 8.104 45.2145 8.292 45.3105 8.5L44.7945 8.812C44.6665 8.572 44.4865 8.364 44.2545 8.188C44.0225 8.012 43.7225 7.924 43.3545 7.924C43.0825 7.924 42.8505 7.992 42.6585 8.128C42.4745 8.264 42.3825 8.464 42.3825 8.728C42.3825 8.944 42.4425 9.124 42.5625 9.268C42.6825 9.404 42.8425 9.516 43.0425 9.604C43.2425 9.692 43.4545 9.776 43.6785 9.856C43.9745 9.968 44.2465 10.092 44.4945 10.228C44.7505 10.364 44.9545 10.532 45.1065 10.732C45.2665 10.932 45.3465 11.188 45.3465 11.5C45.3465 11.98 45.1785 12.372 44.8425 12.676C44.5145 12.972 44.0865 13.12 43.5585 13.12C43.1745 13.12 42.8385 13.052 42.5505 12.916C42.2705 12.78 42.0425 12.604 41.8665 12.388C41.6985 12.172 41.5745 11.948 41.4945 11.716L41.9985 11.428ZM46.8503 4.984C46.8503 4.856 46.8943 4.752 46.9823 4.672C47.0703 4.584 47.1743 4.54 47.2943 4.54C47.4223 4.54 47.5263 4.584 47.6063 4.672C47.6943 4.752 47.7383 4.856 47.7383 4.984C47.7383 5.104 47.6943 5.208 47.6063 5.296C47.5263 5.384 47.4223 5.428 47.2943 5.428C47.1743 5.428 47.0703 5.384 46.9823 5.296C46.8943 5.208 46.8503 5.104 46.8503 4.984ZM46.9823 7.48H47.6063V13H46.9823V7.48ZM49.2914 13.36H49.9274C49.9274 13.704 50.0074 14.012 50.1674 14.284C50.3274 14.556 50.5514 14.772 50.8394 14.932C51.1354 15.092 51.4754 15.172 51.8594 15.172C52.2034 15.172 52.5274 15.092 52.8314 14.932C53.1354 14.772 53.3834 14.52 53.5754 14.176C53.7754 13.84 53.8754 13.408 53.8754 12.88V7.48H54.4994V12.88C54.4994 13.512 54.3754 14.04 54.1274 14.464C53.8794 14.896 53.5554 15.22 53.1554 15.436C52.7554 15.652 52.3234 15.76 51.8594 15.76C51.3554 15.76 50.9074 15.66 50.5154 15.46C50.1314 15.26 49.8314 14.976 49.6154 14.608C49.3994 14.248 49.2914 13.832 49.2914 13.36ZM49.1594 10.24C49.1594 9.64 49.2794 9.128 49.5194 8.704C49.7594 8.272 50.0794 7.94 50.4794 7.708C50.8874 7.476 51.3354 7.36 51.8234 7.36C52.3034 7.36 52.7154 7.488 53.0594 7.744C53.4034 7.992 53.6714 8.332 53.8634 8.764C54.0634 9.196 54.1634 9.688 54.1634 10.24C54.1634 10.784 54.0634 11.276 53.8634 11.716C53.6714 12.148 53.4034 12.492 53.0594 12.748C52.7154 12.996 52.3034 13.12 51.8234 13.12C51.3354 13.12 50.8874 13.004 50.4794 12.772C50.0794 12.54 49.7594 12.208 49.5194 11.776C49.2794 11.344 49.1594 10.832 49.1594 10.24ZM49.7954 10.24C49.7954 10.72 49.8874 11.132 50.0714 11.476C50.2634 11.82 50.5194 12.084 50.8394 12.268C51.1674 12.444 51.5234 12.532 51.9074 12.532C52.2514 12.532 52.5714 12.432 52.8674 12.232C53.1714 12.032 53.4154 11.76 53.5994 11.416C53.7834 11.064 53.8754 10.664 53.8754 10.216C53.8754 9.896 53.8234 9.6 53.7194 9.328C53.6154 9.056 53.4674 8.816 53.2754 8.608C53.0914 8.4 52.8794 8.24 52.6394 8.128C52.4074 8.008 52.1634 7.948 51.9074 7.948C51.5234 7.948 51.1674 8.04 50.8394 8.224C50.5194 8.4 50.2634 8.66 50.0714 9.004C49.8874 9.348 49.7954 9.76 49.7954 10.24ZM59.8708 9.448C59.8708 8.976 59.7668 8.608 59.5588 8.344C59.3508 8.08 59.0228 7.948 58.5748 7.948C58.2628 7.948 57.9828 8.024 57.7348 8.176C57.4948 8.32 57.3028 8.52 57.1588 8.776C57.0228 9.032 56.9548 9.32 56.9548 9.64V13H56.3308V7.48H56.9548V8.632C57.1068 8.232 57.3348 7.92 57.6388 7.696C57.9508 7.472 58.3108 7.36 58.7188 7.36C59.2948 7.36 59.7348 7.544 60.0388 7.912C60.3428 8.272 60.4948 8.76 60.4948 9.376V13H59.8708V9.448ZM65.5671 7.48H68.1591V8.068H65.5671V7.48ZM68.2791 4.552C68.1911 4.424 68.0831 4.328 67.9551 4.264C67.8271 4.192 67.6911 4.156 67.5471 4.156C67.3471 4.156 67.1871 4.208 67.0671 4.312C66.9551 4.416 66.8711 4.564 66.8151 4.756C66.7591 4.948 66.7311 5.168 66.7311 5.416V13H66.1071V5.344C66.1071 4.968 66.1591 4.648 66.2631 4.384C66.3751 4.112 66.5391 3.904 66.7551 3.76C66.9711 3.608 67.2471 3.532 67.5831 3.532C67.7591 3.532 67.9111 3.56 68.0391 3.616C68.1751 3.664 68.2911 3.728 68.3871 3.808C68.4911 3.888 68.5711 3.968 68.6271 4.048L68.2791 4.552ZM70.0095 7.48V13H69.3855V7.48H70.0095ZM71.8455 8.212C71.7255 8.124 71.6095 8.06 71.4975 8.02C71.3935 7.972 71.2695 7.948 71.1255 7.948C70.8535 7.948 70.6335 8.024 70.4655 8.176C70.3055 8.328 70.1895 8.532 70.1175 8.788C70.0455 9.044 70.0095 9.328 70.0095 9.64H69.7215C69.7215 9.2 69.7895 8.812 69.9255 8.476C70.0615 8.132 70.2455 7.86 70.4775 7.66C70.7175 7.46 70.9815 7.36 71.2695 7.36C71.4455 7.36 71.6095 7.388 71.7615 7.444C71.9215 7.492 72.0655 7.576 72.1935 7.696L71.8455 8.212ZM72.5969 10.24C72.5969 9.68 72.7209 9.184 72.9689 8.752C73.2169 8.32 73.5529 7.98 73.9769 7.732C74.4089 7.484 74.8929 7.36 75.4289 7.36C75.9649 7.36 76.4449 7.484 76.8689 7.732C77.3009 7.98 77.6409 8.32 77.8889 8.752C78.1369 9.184 78.2609 9.68 78.2609 10.24C78.2609 10.792 78.1369 11.288 77.8889 11.728C77.6409 12.16 77.3009 12.5 76.8689 12.748C76.4449 12.996 75.9649 13.12 75.4289 13.12C74.8929 13.12 74.4089 12.996 73.9769 12.748C73.5529 12.5 73.2169 12.16 72.9689 11.728C72.7209 11.288 72.5969 10.792 72.5969 10.24ZM73.2329 10.24C73.2329 10.688 73.3289 11.084 73.5209 11.428C73.7129 11.772 73.9729 12.044 74.3009 12.244C74.6369 12.436 75.0129 12.532 75.4289 12.532C75.8449 12.532 76.2169 12.436 76.5449 12.244C76.8809 12.044 77.1449 11.772 77.3369 11.428C77.5289 11.084 77.6249 10.688 77.6249 10.24C77.6249 9.8 77.5289 9.408 77.3369 9.064C77.1449 8.712 76.8809 8.44 76.5449 8.248C76.2169 8.048 75.8449 7.948 75.4289 7.948C75.0129 7.948 74.6369 8.048 74.3009 8.248C73.9729 8.44 73.7129 8.708 73.5209 9.052C73.3289 9.396 73.2329 9.792 73.2329 10.24ZM86.7066 9.376V13H86.0826V9.448C86.0826 8.968 85.9906 8.6 85.8066 8.344C85.6226 8.08 85.3386 7.948 84.9546 7.948C84.6826 7.948 84.4346 8.02 84.2106 8.164C83.9946 8.308 83.8226 8.508 83.6946 8.764C83.5666 9.02 83.5026 9.312 83.5026 9.64V13H82.8786V9.448C82.8786 8.968 82.7866 8.6 82.6026 8.344C82.4186 8.08 82.1346 7.948 81.7506 7.948C81.4786 7.948 81.2306 8.02 81.0066 8.164C80.7906 8.308 80.6186 8.508 80.4906 8.764C80.3626 9.02 80.2986 9.312 80.2986 9.64V13H79.6746V7.48H80.2986V8.596C80.4426 8.204 80.6546 7.9 80.9346 7.684C81.2146 7.468 81.5346 7.36 81.8946 7.36C82.2946 7.36 82.6226 7.476 82.8786 7.708C83.1346 7.932 83.3066 8.24 83.3946 8.632C83.5546 8.232 83.7866 7.92 84.0906 7.696C84.3946 7.472 84.7306 7.36 85.0986 7.36C85.4426 7.36 85.7346 7.44 85.9746 7.6C86.2146 7.76 86.3946 7.992 86.5146 8.296C86.6426 8.6 86.7066 8.96 86.7066 9.376ZM92.1899 11.428C92.2699 11.628 92.3779 11.812 92.5139 11.98C92.6499 12.148 92.8219 12.284 93.0299 12.388C93.2459 12.492 93.4979 12.544 93.7859 12.544C94.1219 12.544 94.3899 12.46 94.5899 12.292C94.7979 12.116 94.9019 11.876 94.9019 11.572C94.9019 11.348 94.8379 11.164 94.7099 11.02C94.5819 10.868 94.4139 10.744 94.2059 10.648C93.9979 10.544 93.7739 10.452 93.5339 10.372C93.2779 10.276 93.0299 10.168 92.7899 10.048C92.5499 9.928 92.3499 9.768 92.1899 9.568C92.0379 9.36 91.9619 9.092 91.9619 8.764C91.9619 8.452 92.0379 8.192 92.1899 7.984C92.3499 7.776 92.5539 7.624 92.8019 7.528C93.0579 7.424 93.3299 7.372 93.6179 7.372C93.9299 7.372 94.2099 7.424 94.4579 7.528C94.7059 7.632 94.9179 7.768 95.0939 7.936C95.2699 8.104 95.4059 8.292 95.5019 8.5L94.9859 8.812C94.8579 8.572 94.6779 8.364 94.4459 8.188C94.2139 8.012 93.9139 7.924 93.5459 7.924C93.2739 7.924 93.0419 7.992 92.8499 8.128C92.6659 8.264 92.5739 8.464 92.5739 8.728C92.5739 8.944 92.6339 9.124 92.7539 9.268C92.8739 9.404 93.0339 9.516 93.2339 9.604C93.4339 9.692 93.6459 9.776 93.8699 9.856C94.1659 9.968 94.4379 10.092 94.6859 10.228C94.9419 10.364 95.1459 10.532 95.2979 10.732C95.4579 10.932 95.5379 11.188 95.5379 11.5C95.5379 11.98 95.3699 12.372 95.0339 12.676C94.7059 12.972 94.2779 13.12 93.7499 13.12C93.3659 13.12 93.0299 13.052 92.7419 12.916C92.4619 12.78 92.2339 12.604 92.0579 12.388C91.8899 12.172 91.7659 11.948 91.6859 11.716L92.1899 11.428ZM97.1378 10.24C97.1378 10.688 97.2338 11.084 97.4258 11.428C97.6178 11.772 97.8778 12.044 98.2058 12.244C98.5418 12.436 98.9178 12.532 99.3338 12.532C99.6298 12.532 99.9058 12.488 100.162 12.4C100.418 12.312 100.638 12.2 100.822 12.064C101.014 11.92 101.15 11.776 101.23 11.632V12.412C101.062 12.612 100.802 12.78 100.45 12.916C100.106 13.052 99.7338 13.12 99.3338 13.12C98.7978 13.12 98.3178 12.996 97.8938 12.748C97.4698 12.5 97.1298 12.16 96.8738 11.728C96.6258 11.288 96.5018 10.792 96.5018 10.24C96.5018 9.68 96.6258 9.184 96.8738 8.752C97.1298 8.32 97.4698 7.98 97.8938 7.732C98.3178 7.484 98.7978 7.36 99.3338 7.36C99.7338 7.36 100.106 7.432 100.45 7.576C100.802 7.712 101.062 7.876 101.23 8.068V8.848C101.15 8.696 101.014 8.552 100.822 8.416C100.638 8.28 100.418 8.168 100.162 8.08C99.9058 7.992 99.6298 7.948 99.3338 7.948C98.9178 7.948 98.5418 8.048 98.2058 8.248C97.8778 8.44 97.6178 8.708 97.4258 9.052C97.2338 9.396 97.1378 9.792 97.1378 10.24ZM103.455 7.48V13H102.831V7.48H103.455ZM105.291 8.212C105.171 8.124 105.055 8.06 104.943 8.02C104.839 7.972 104.715 7.948 104.571 7.948C104.299 7.948 104.079 8.024 103.911 8.176C103.751 8.328 103.635 8.532 103.563 8.788C103.491 9.044 103.455 9.328 103.455 9.64H103.167C103.167 9.2 103.235 8.812 103.371 8.476C103.507 8.132 103.691 7.86 103.923 7.66C104.163 7.46 104.427 7.36 104.715 7.36C104.891 7.36 105.055 7.388 105.207 7.444C105.367 7.492 105.511 7.576 105.639 7.696L105.291 8.212ZM106.794 11.344C106.794 11.616 106.854 11.844 106.974 12.028C107.102 12.212 107.27 12.352 107.478 12.448C107.694 12.536 107.93 12.58 108.186 12.58C108.498 12.58 108.782 12.508 109.038 12.364C109.302 12.22 109.514 12.008 109.674 11.728C109.834 11.448 109.914 11.104 109.914 10.696L110.058 11.224C110.058 11.656 109.954 12.012 109.746 12.292C109.538 12.572 109.278 12.78 108.966 12.916C108.654 13.052 108.338 13.12 108.018 13.12C107.706 13.12 107.406 13.056 107.118 12.928C106.83 12.792 106.598 12.596 106.422 12.34C106.246 12.084 106.158 11.76 106.158 11.368C106.158 10.832 106.342 10.408 106.71 10.096C107.086 9.784 107.594 9.628 108.234 9.628C108.594 9.628 108.902 9.672 109.158 9.76C109.422 9.84 109.638 9.932 109.806 10.036C109.974 10.14 110.094 10.228 110.166 10.3V10.696C109.894 10.504 109.602 10.364 109.29 10.276C108.986 10.18 108.666 10.132 108.33 10.132C108.018 10.132 107.746 10.176 107.514 10.264C107.29 10.352 107.114 10.484 106.986 10.66C106.858 10.836 106.794 11.064 106.794 11.344ZM106.818 8.488L106.506 8.02C106.714 7.876 106.982 7.732 107.31 7.588C107.646 7.436 108.058 7.36 108.546 7.36C108.962 7.36 109.318 7.428 109.614 7.564C109.91 7.7 110.138 7.896 110.298 8.152C110.458 8.408 110.538 8.72 110.538 9.088V13H109.914V9.172C109.914 9.012 109.89 8.86 109.842 8.716C109.794 8.564 109.714 8.428 109.602 8.308C109.498 8.188 109.354 8.092 109.17 8.02C108.986 7.948 108.762 7.912 108.498 7.912C108.226 7.912 107.982 7.944 107.766 8.008C107.55 8.072 107.362 8.148 107.202 8.236C107.05 8.324 106.922 8.408 106.818 8.488ZM111.413 7.48H113.837V8.068H111.413V7.48ZM112.313 5.56H112.937V13H112.313V5.56ZM114.985 10.24C114.985 10.688 115.081 11.084 115.273 11.428C115.465 11.772 115.725 12.044 116.053 12.244C116.389 12.436 116.765 12.532 117.181 12.532C117.477 12.532 117.753 12.488 118.009 12.4C118.265 12.312 118.485 12.2 118.669 12.064C118.861 11.92 118.997 11.776 119.077 11.632V12.412C118.909 12.612 118.649 12.78 118.297 12.916C117.953 13.052 117.581 13.12 117.181 13.12C116.645 13.12 116.165 12.996 115.741 12.748C115.317 12.5 114.977 12.16 114.721 11.728C114.473 11.288 114.349 10.792 114.349 10.24C114.349 9.68 114.473 9.184 114.721 8.752C114.977 8.32 115.317 7.98 115.741 7.732C116.165 7.484 116.645 7.36 117.181 7.36C117.581 7.36 117.953 7.432 118.297 7.576C118.649 7.712 118.909 7.876 119.077 8.068V8.848C118.997 8.696 118.861 8.552 118.669 8.416C118.485 8.28 118.265 8.168 118.009 8.08C117.753 7.992 117.477 7.948 117.181 7.948C116.765 7.948 116.389 8.048 116.053 8.248C115.725 8.44 115.465 8.708 115.273 9.052C115.081 9.396 114.985 9.792 114.985 10.24ZM121.302 3.64V13H120.678V3.64H121.302ZM124.218 9.448C124.218 8.976 124.114 8.608 123.906 8.344C123.706 8.08 123.378 7.948 122.922 7.948C122.61 7.948 122.33 8.024 122.082 8.176C121.842 8.328 121.65 8.532 121.506 8.788C121.37 9.044 121.302 9.328 121.302 9.64H121.086C121.086 9.2 121.17 8.812 121.338 8.476C121.514 8.132 121.75 7.86 122.046 7.66C122.342 7.46 122.682 7.36 123.066 7.36C123.45 7.36 123.774 7.44 124.038 7.6C124.302 7.752 124.502 7.98 124.638 8.284C124.774 8.58 124.842 8.944 124.842 9.376V13H124.218V9.448ZM129.447 10.288V9.7H131.847V10.288H129.447ZM139.992 9.448C139.992 8.976 139.888 8.608 139.68 8.344C139.472 8.08 139.144 7.948 138.696 7.948C138.384 7.948 138.104 8.024 137.856 8.176C137.616 8.32 137.424 8.52 137.28 8.776C137.144 9.032 137.076 9.32 137.076 9.64V13H136.452V7.48H137.076V8.632C137.228 8.232 137.456 7.92 137.76 7.696C138.072 7.472 138.432 7.36 138.84 7.36C139.416 7.36 139.856 7.544 140.16 7.912C140.464 8.272 140.616 8.76 140.616 9.376V13H139.992V9.448ZM142.031 10.24C142.031 9.68 142.155 9.184 142.403 8.752C142.651 8.32 142.987 7.98 143.411 7.732C143.843 7.484 144.327 7.36 144.863 7.36C145.399 7.36 145.879 7.484 146.303 7.732C146.735 7.98 147.075 8.32 147.323 8.752C147.571 9.184 147.695 9.68 147.695 10.24C147.695 10.792 147.571 11.288 147.323 11.728C147.075 12.16 146.735 12.5 146.303 12.748C145.879 12.996 145.399 13.12 144.863 13.12C144.327 13.12 143.843 12.996 143.411 12.748C142.987 12.5 142.651 12.16 142.403 11.728C142.155 11.288 142.031 10.792 142.031 10.24ZM142.667 10.24C142.667 10.688 142.763 11.084 142.955 11.428C143.147 11.772 143.407 12.044 143.735 12.244C144.071 12.436 144.447 12.532 144.863 12.532C145.279 12.532 145.651 12.436 145.979 12.244C146.315 12.044 146.579 11.772 146.771 11.428C146.963 11.084 147.059 10.688 147.059 10.24C147.059 9.8 146.963 9.408 146.771 9.064C146.579 8.712 146.315 8.44 145.979 8.248C145.651 8.048 145.279 7.948 144.863 7.948C144.447 7.948 144.071 8.048 143.735 8.248C143.407 8.44 143.147 8.708 142.955 9.052C142.763 9.396 142.667 9.792 142.667 10.24ZM27.108 24.48H29.532V25.068H27.108V24.48ZM28.008 22.56H28.632V30H28.008V22.56ZM32.6607 30.12C32.1647 30.12 31.7247 29.996 31.3407 29.748C30.9567 29.5 30.6527 29.16 30.4287 28.728C30.2127 28.288 30.1047 27.788 30.1047 27.228C30.1047 26.668 30.2167 26.172 30.4407 25.74C30.6647 25.308 30.9767 24.972 31.3767 24.732C31.7767 24.484 32.2367 24.36 32.7567 24.36C33.2607 24.36 33.7007 24.476 34.0767 24.708C34.4607 24.94 34.7567 25.264 34.9647 25.68C35.1807 26.088 35.2887 26.56 35.2887 27.096C35.2887 27.144 35.2847 27.196 35.2767 27.252C35.2767 27.308 35.2727 27.356 35.2647 27.396H30.5007V26.856H34.7967L34.5327 27.228C34.5487 27.188 34.5647 27.136 34.5807 27.072C34.6047 27 34.6167 26.932 34.6167 26.868C34.6167 26.492 34.5327 26.156 34.3647 25.86C34.2047 25.564 33.9847 25.332 33.7047 25.164C33.4247 24.996 33.1087 24.912 32.7567 24.912C32.3487 24.912 31.9927 25.008 31.6887 25.2C31.3927 25.384 31.1607 25.648 30.9927 25.992C30.8247 26.328 30.7407 26.728 30.7407 27.192C30.7407 27.664 30.8207 28.076 30.9807 28.428C31.1487 28.78 31.3807 29.052 31.6767 29.244C31.9807 29.436 32.3327 29.532 32.7327 29.532C33.1567 29.532 33.5247 29.44 33.8367 29.256C34.1567 29.072 34.4407 28.784 34.6887 28.392L35.1927 28.716C34.8807 29.196 34.5167 29.552 34.1007 29.784C33.6927 30.008 33.2127 30.12 32.6607 30.12ZM43.7339 26.376V30H43.1099V26.448C43.1099 25.968 43.0179 25.6 42.8339 25.344C42.6499 25.08 42.3659 24.948 41.9819 24.948C41.7099 24.948 41.4619 25.02 41.2379 25.164C41.0219 25.308 40.8499 25.508 40.7219 25.764C40.5939 26.02 40.5299 26.312 40.5299 26.64V30H39.9059V26.448C39.9059 25.968 39.8139 25.6 39.6299 25.344C39.4459 25.08 39.1619 24.948 38.7779 24.948C38.5059 24.948 38.2579 25.02 38.0339 25.164C37.8179 25.308 37.6459 25.508 37.5179 25.764C37.3899 26.02 37.3259 26.312 37.3259 26.64V30H36.7019V24.48H37.3259V25.596C37.4699 25.204 37.6819 24.9 37.9619 24.684C38.2419 24.468 38.5619 24.36 38.9219 24.36C39.3219 24.36 39.6499 24.476 39.9059 24.708C40.1619 24.932 40.3339 25.24 40.4219 25.632C40.5819 25.232 40.8139 24.92 41.1179 24.696C41.4219 24.472 41.7579 24.36 42.1259 24.36C42.4699 24.36 42.7619 24.44 43.0019 24.6C43.2419 24.76 43.4219 24.992 43.5419 25.296C43.6699 25.6 43.7339 25.96 43.7339 26.376ZM46.1956 32.64H45.5716V24.48H46.1956V32.64ZM50.9116 27.24C50.9116 27.832 50.7916 28.344 50.5516 28.776C50.3196 29.208 49.9996 29.54 49.5916 29.772C49.1916 30.004 48.7436 30.12 48.2476 30.12C47.7836 30.12 47.3756 29.996 47.0236 29.748C46.6716 29.492 46.3956 29.148 46.1956 28.716C46.0036 28.276 45.9076 27.784 45.9076 27.24C45.9076 26.688 46.0036 26.196 46.1956 25.764C46.3956 25.332 46.6716 24.992 47.0236 24.744C47.3756 24.488 47.7836 24.36 48.2476 24.36C48.7436 24.36 49.1916 24.476 49.5916 24.708C49.9996 24.94 50.3196 25.272 50.5516 25.704C50.7916 26.128 50.9116 26.64 50.9116 27.24ZM50.2876 27.24C50.2876 26.76 50.1916 26.348 49.9996 26.004C49.8076 25.66 49.5516 25.4 49.2316 25.224C48.9116 25.04 48.5556 24.948 48.1636 24.948C47.8276 24.948 47.5076 25.048 47.2036 25.248C46.8996 25.448 46.6556 25.72 46.4716 26.064C46.2876 26.408 46.1956 26.8 46.1956 27.24C46.1956 27.68 46.2876 28.072 46.4716 28.416C46.6556 28.76 46.8996 29.032 47.2036 29.232C47.5076 29.432 47.8276 29.532 48.1636 29.532C48.5556 29.532 48.9116 29.444 49.2316 29.268C49.5516 29.084 49.8076 28.82 49.9996 28.476C50.1916 28.132 50.2876 27.72 50.2876 27.24ZM52.323 20.64H52.947V30H52.323V20.64ZM54.9385 28.344C54.9385 28.616 54.9985 28.844 55.1185 29.028C55.2465 29.212 55.4145 29.352 55.6225 29.448C55.8385 29.536 56.0745 29.58 56.3305 29.58C56.6425 29.58 56.9265 29.508 57.1825 29.364C57.4465 29.22 57.6585 29.008 57.8185 28.728C57.9785 28.448 58.0585 28.104 58.0585 27.696L58.2025 28.224C58.2025 28.656 58.0985 29.012 57.8905 29.292C57.6825 29.572 57.4225 29.78 57.1105 29.916C56.7985 30.052 56.4825 30.12 56.1625 30.12C55.8505 30.12 55.5505 30.056 55.2625 29.928C54.9745 29.792 54.7425 29.596 54.5665 29.34C54.3905 29.084 54.3025 28.76 54.3025 28.368C54.3025 27.832 54.4865 27.408 54.8545 27.096C55.2305 26.784 55.7385 26.628 56.3785 26.628C56.7385 26.628 57.0465 26.672 57.3025 26.76C57.5665 26.84 57.7825 26.932 57.9505 27.036C58.1185 27.14 58.2385 27.228 58.3105 27.3V27.696C58.0385 27.504 57.7465 27.364 57.4345 27.276C57.1305 27.18 56.8105 27.132 56.4745 27.132C56.1625 27.132 55.8905 27.176 55.6585 27.264C55.4345 27.352 55.2585 27.484 55.1305 27.66C55.0025 27.836 54.9385 28.064 54.9385 28.344ZM54.9625 25.488L54.6505 25.02C54.8585 24.876 55.1265 24.732 55.4545 24.588C55.7905 24.436 56.2025 24.36 56.6905 24.36C57.1065 24.36 57.4625 24.428 57.7585 24.564C58.0545 24.7 58.2825 24.896 58.4425 25.152C58.6025 25.408 58.6825 25.72 58.6825 26.088V30H58.0585V26.172C58.0585 26.012 58.0345 25.86 57.9865 25.716C57.9385 25.564 57.8585 25.428 57.7465 25.308C57.6425 25.188 57.4985 25.092 57.3145 25.02C57.1305 24.948 56.9065 24.912 56.6425 24.912C56.3705 24.912 56.1265 24.944 55.9105 25.008C55.6945 25.072 55.5065 25.148 55.3465 25.236C55.1945 25.324 55.0665 25.408 54.9625 25.488ZM59.5572 24.48H61.9812V25.068H59.5572V24.48ZM60.4572 22.56H61.0812V30H60.4572V22.56ZM65.1099 30.12C64.6139 30.12 64.1739 29.996 63.7899 29.748C63.4059 29.5 63.1019 29.16 62.8779 28.728C62.6619 28.288 62.5539 27.788 62.5539 27.228C62.5539 26.668 62.6659 26.172 62.8899 25.74C63.1139 25.308 63.4259 24.972 63.8259 24.732C64.2259 24.484 64.6859 24.36 65.2059 24.36C65.7099 24.36 66.1499 24.476 66.5259 24.708C66.9099 24.94 67.2059 25.264 67.4139 25.68C67.6299 26.088 67.7379 26.56 67.7379 27.096C67.7379 27.144 67.7339 27.196 67.7259 27.252C67.7259 27.308 67.7219 27.356 67.7139 27.396H62.9499V26.856H67.2459L66.9819 27.228C66.9979 27.188 67.0139 27.136 67.0299 27.072C67.0539 27 67.0659 26.932 67.0659 26.868C67.0659 26.492 66.9819 26.156 66.8139 25.86C66.6539 25.564 66.4339 25.332 66.1539 25.164C65.8739 24.996 65.5579 24.912 65.2059 24.912C64.7979 24.912 64.4419 25.008 64.1379 25.2C63.8419 25.384 63.6099 25.648 63.4419 25.992C63.2739 26.328 63.1899 26.728 63.1899 27.192C63.1899 27.664 63.2699 28.076 63.4299 28.428C63.5979 28.78 63.8299 29.052 64.1259 29.244C64.4299 29.436 64.7819 29.532 65.1819 29.532C65.6059 29.532 65.9739 29.44 66.2859 29.256C66.6059 29.072 66.8899 28.784 67.1379 28.392L67.6419 28.716C67.3299 29.196 66.9659 29.552 66.5499 29.784C66.1419 30.008 65.6619 30.12 65.1099 30.12ZM69.1391 28.428C69.2191 28.628 69.3271 28.812 69.4631 28.98C69.5991 29.148 69.7711 29.284 69.9791 29.388C70.1951 29.492 70.4471 29.544 70.7351 29.544C71.0711 29.544 71.3391 29.46 71.5391 29.292C71.7471 29.116 71.8511 28.876 71.8511 28.572C71.8511 28.348 71.7871 28.164 71.6591 28.02C71.5311 27.868 71.3631 27.744 71.1551 27.648C70.9471 27.544 70.7231 27.452 70.4831 27.372C70.2271 27.276 69.9791 27.168 69.7391 27.048C69.4991 26.928 69.2991 26.768 69.1391 26.568C68.9871 26.36 68.9111 26.092 68.9111 25.764C68.9111 25.452 68.9871 25.192 69.1391 24.984C69.2991 24.776 69.5031 24.624 69.7511 24.528C70.0071 24.424 70.2791 24.372 70.5671 24.372C70.8791 24.372 71.1591 24.424 71.4071 24.528C71.6551 24.632 71.8671 24.768 72.0431 24.936C72.2191 25.104 72.3551 25.292 72.4511 25.5L71.9351 25.812C71.8071 25.572 71.6271 25.364 71.3951 25.188C71.1631 25.012 70.8631 24.924 70.4951 24.924C70.2231 24.924 69.9911 24.992 69.7991 25.128C69.6151 25.264 69.5231 25.464 69.5231 25.728C69.5231 25.944 69.5831 26.124 69.7031 26.268C69.8231 26.404 69.9831 26.516 70.1831 26.604C70.3831 26.692 70.5951 26.776 70.8191 26.856C71.1151 26.968 71.3871 27.092 71.6351 27.228C71.8911 27.364 72.0951 27.532 72.2471 27.732C72.4071 27.932 72.4871 28.188 72.4871 28.5C72.4871 28.98 72.3191 29.372 71.9831 29.676C71.6551 29.972 71.2271 30.12 70.6991 30.12C70.3151 30.12 69.9791 30.052 69.6911 29.916C69.4111 29.78 69.1831 29.604 69.0071 29.388C68.8391 29.172 68.7151 28.948 68.6351 28.716L69.1391 28.428ZM74.303 29.712C74.303 29.584 74.347 29.476 74.435 29.388C74.523 29.3 74.627 29.256 74.747 29.256C74.875 29.256 74.979 29.3 75.059 29.388C75.147 29.476 75.191 29.584 75.191 29.712C75.191 29.832 75.147 29.936 75.059 30.024C74.979 30.112 74.875 30.156 74.747 30.156C74.627 30.156 74.523 30.112 74.435 30.024C74.347 29.936 74.303 29.832 74.303 29.712ZM88.4508 28.548L90.8388 21.6H91.5708L88.4628 30.324L85.8948 23.088L83.3268 30.324L80.2188 21.6H80.9508L83.3748 28.548L85.8948 21.276L88.4508 28.548ZM93.7974 30.12C93.3014 30.12 92.8614 29.996 92.4774 29.748C92.0934 29.5 91.7894 29.16 91.5654 28.728C91.3494 28.288 91.2414 27.788 91.2414 27.228C91.2414 26.668 91.3534 26.172 91.5774 25.74C91.8014 25.308 92.1134 24.972 92.5134 24.732C92.9134 24.484 93.3734 24.36 93.8934 24.36C94.3974 24.36 94.8374 24.476 95.2134 24.708C95.5974 24.94 95.8934 25.264 96.1014 25.68C96.3174 26.088 96.4254 26.56 96.4254 27.096C96.4254 27.144 96.4214 27.196 96.4134 27.252C96.4134 27.308 96.4094 27.356 96.4014 27.396H91.6374V26.856H95.9334L95.6694 27.228C95.6854 27.188 95.7014 27.136 95.7174 27.072C95.7414 27 95.7534 26.932 95.7534 26.868C95.7534 26.492 95.6694 26.156 95.5014 25.86C95.3414 25.564 95.1214 25.332 94.8414 25.164C94.5614 24.996 94.2454 24.912 93.8934 24.912C93.4854 24.912 93.1294 25.008 92.8254 25.2C92.5294 25.384 92.2974 25.648 92.1294 25.992C91.9614 26.328 91.8774 26.728 91.8774 27.192C91.8774 27.664 91.9574 28.076 92.1174 28.428C92.2854 28.78 92.5174 29.052 92.8134 29.244C93.1174 29.436 93.4694 29.532 93.8694 29.532C94.2934 29.532 94.6614 29.44 94.9734 29.256C95.2934 29.072 95.5774 28.784 95.8254 28.392L96.3294 28.716C96.0174 29.196 95.6534 29.552 95.2374 29.784C94.8294 30.008 94.3494 30.12 93.7974 30.12ZM100.596 24.48H103.02V25.068H100.596V24.48ZM101.496 22.56H102.12V30H101.496V22.56ZM104.169 28.344C104.169 28.616 104.229 28.844 104.349 29.028C104.477 29.212 104.645 29.352 104.853 29.448C105.069 29.536 105.305 29.58 105.561 29.58C105.873 29.58 106.157 29.508 106.413 29.364C106.677 29.22 106.889 29.008 107.049 28.728C107.209 28.448 107.289 28.104 107.289 27.696L107.433 28.224C107.433 28.656 107.329 29.012 107.121 29.292C106.913 29.572 106.653 29.78 106.341 29.916C106.029 30.052 105.713 30.12 105.393 30.12C105.081 30.12 104.781 30.056 104.493 29.928C104.205 29.792 103.973 29.596 103.797 29.34C103.621 29.084 103.533 28.76 103.533 28.368C103.533 27.832 103.717 27.408 104.085 27.096C104.461 26.784 104.969 26.628 105.609 26.628C105.969 26.628 106.277 26.672 106.533 26.76C106.797 26.84 107.013 26.932 107.181 27.036C107.349 27.14 107.469 27.228 107.541 27.3V27.696C107.269 27.504 106.977 27.364 106.665 27.276C106.361 27.18 106.041 27.132 105.705 27.132C105.393 27.132 105.121 27.176 104.889 27.264C104.665 27.352 104.489 27.484 104.361 27.66C104.233 27.836 104.169 28.064 104.169 28.344ZM104.193 25.488L103.881 25.02C104.089 24.876 104.357 24.732 104.685 24.588C105.021 24.436 105.433 24.36 105.921 24.36C106.337 24.36 106.693 24.428 106.989 24.564C107.285 24.7 107.513 24.896 107.673 25.152C107.833 25.408 107.913 25.72 107.913 26.088V30H107.289V26.172C107.289 26.012 107.265 25.86 107.217 25.716C107.169 25.564 107.089 25.428 106.977 25.308C106.873 25.188 106.729 25.092 106.545 25.02C106.361 24.948 106.137 24.912 105.873 24.912C105.601 24.912 105.357 24.944 105.141 25.008C104.925 25.072 104.737 25.148 104.577 25.236C104.425 25.324 104.297 25.408 104.193 25.488ZM109.568 20.64H110.192V30H109.568V20.64ZM112.556 24.48H113.36L110.756 26.76L113.588 30H112.796L109.964 26.76L112.556 24.48ZM116.485 30.12C115.989 30.12 115.549 29.996 115.165 29.748C114.781 29.5 114.477 29.16 114.253 28.728C114.037 28.288 113.929 27.788 113.929 27.228C113.929 26.668 114.041 26.172 114.265 25.74C114.489 25.308 114.801 24.972 115.201 24.732C115.601 24.484 116.061 24.36 116.581 24.36C117.085 24.36 117.525 24.476 117.901 24.708C118.285 24.94 118.581 25.264 118.789 25.68C119.005 26.088 119.113 26.56 119.113 27.096C119.113 27.144 119.109 27.196 119.101 27.252C119.101 27.308 119.097 27.356 119.089 27.396H114.325V26.856H118.621L118.357 27.228C118.373 27.188 118.389 27.136 118.405 27.072C118.429 27 118.441 26.932 118.441 26.868C118.441 26.492 118.357 26.156 118.189 25.86C118.029 25.564 117.809 25.332 117.529 25.164C117.249 24.996 116.933 24.912 116.581 24.912C116.173 24.912 115.817 25.008 115.513 25.2C115.217 25.384 114.985 25.648 114.817 25.992C114.649 26.328 114.565 26.728 114.565 27.192C114.565 27.664 114.645 28.076 114.805 28.428C114.973 28.78 115.205 29.052 115.501 29.244C115.805 29.436 116.157 29.532 116.557 29.532C116.981 29.532 117.349 29.44 117.661 29.256C117.981 29.072 118.265 28.784 118.513 28.392L119.017 28.716C118.705 29.196 118.341 29.552 117.925 29.784C117.517 30.008 117.037 30.12 116.485 30.12ZM124.124 21.984C124.124 21.856 124.168 21.752 124.256 21.672C124.344 21.584 124.448 21.54 124.568 21.54C124.696 21.54 124.8 21.584 124.88 21.672C124.968 21.752 125.012 21.856 125.012 21.984C125.012 22.104 124.968 22.208 124.88 22.296C124.8 22.384 124.696 22.428 124.568 22.428C124.448 22.428 124.344 22.384 124.256 22.296C124.168 22.208 124.124 22.104 124.124 21.984ZM124.256 24.48H124.88V30H124.256V24.48ZM130.453 26.448C130.453 25.976 130.349 25.608 130.141 25.344C129.933 25.08 129.605 24.948 129.157 24.948C128.845 24.948 128.565 25.024 128.317 25.176C128.077 25.32 127.885 25.52 127.741 25.776C127.605 26.032 127.537 26.32 127.537 26.64V30H126.913V24.48H127.537V25.632C127.689 25.232 127.917 24.92 128.221 24.696C128.533 24.472 128.893 24.36 129.301 24.36C129.877 24.36 130.317 24.544 130.621 24.912C130.925 25.272 131.077 25.76 131.077 26.376V30H130.453V26.448ZM132.131 24.48H134.555V25.068H132.131V24.48ZM133.031 22.56H133.655V30H133.031V22.56ZM135.128 27.24C135.128 26.68 135.252 26.184 135.5 25.752C135.748 25.32 136.084 24.98 136.508 24.732C136.94 24.484 137.424 24.36 137.96 24.36C138.496 24.36 138.976 24.484 139.4 24.732C139.832 24.98 140.172 25.32 140.42 25.752C140.668 26.184 140.792 26.68 140.792 27.24C140.792 27.792 140.668 28.288 140.42 28.728C140.172 29.16 139.832 29.5 139.4 29.748C138.976 29.996 138.496 30.12 137.96 30.12C137.424 30.12 136.94 29.996 136.508 29.748C136.084 29.5 135.748 29.16 135.5 28.728C135.252 28.288 135.128 27.792 135.128 27.24ZM135.764 27.24C135.764 27.688 135.86 28.084 136.052 28.428C136.244 28.772 136.504 29.044 136.832 29.244C137.168 29.436 137.544 29.532 137.96 29.532C138.376 29.532 138.748 29.436 139.076 29.244C139.412 29.044 139.676 28.772 139.868 28.428C140.06 28.084 140.156 27.688 140.156 27.24C140.156 26.8 140.06 26.408 139.868 26.064C139.676 25.712 139.412 25.44 139.076 25.248C138.748 25.048 138.376 24.948 137.96 24.948C137.544 24.948 137.168 25.048 136.832 25.248C136.504 25.44 136.244 25.708 136.052 26.052C135.86 26.396 135.764 26.792 135.764 27.24ZM145.899 28.344C145.899 28.616 145.959 28.844 146.079 29.028C146.207 29.212 146.375 29.352 146.583 29.448C146.799 29.536 147.035 29.58 147.291 29.58C147.603 29.58 147.887 29.508 148.143 29.364C148.407 29.22 148.619 29.008 148.779 28.728C148.939 28.448 149.019 28.104 149.019 27.696L149.163 28.224C149.163 28.656 149.059 29.012 148.851 29.292C148.643 29.572 148.383 29.78 148.071 29.916C147.759 30.052 147.443 30.12 147.123 30.12C146.811 30.12 146.511 30.056 146.223 29.928C145.935 29.792 145.703 29.596 145.527 29.34C145.351 29.084 145.263 28.76 145.263 28.368C145.263 27.832 145.447 27.408 145.815 27.096C146.191 26.784 146.699 26.628 147.339 26.628C147.699 26.628 148.007 26.672 148.263 26.76C148.527 26.84 148.743 26.932 148.911 27.036C149.079 27.14 149.199 27.228 149.271 27.3V27.696C148.999 27.504 148.707 27.364 148.395 27.276C148.091 27.18 147.771 27.132 147.435 27.132C147.123 27.132 146.851 27.176 146.619 27.264C146.395 27.352 146.219 27.484 146.091 27.66C145.963 27.836 145.899 28.064 145.899 28.344ZM145.923 25.488L145.611 25.02C145.819 24.876 146.087 24.732 146.415 24.588C146.751 24.436 147.163 24.36 147.651 24.36C148.067 24.36 148.423 24.428 148.719 24.564C149.015 24.7 149.243 24.896 149.403 25.152C149.563 25.408 149.643 25.72 149.643 26.088V30H149.019V26.172C149.019 26.012 148.995 25.86 148.947 25.716C148.899 25.564 148.819 25.428 148.707 25.308C148.603 25.188 148.459 25.092 148.275 25.02C148.091 24.948 147.867 24.912 147.603 24.912C147.331 24.912 147.087 24.944 146.871 25.008C146.655 25.072 146.467 25.148 146.307 25.236C146.155 25.324 146.027 25.408 145.923 25.488ZM151.454 27.24C151.454 27.688 151.55 28.084 151.742 28.428C151.934 28.772 152.194 29.044 152.522 29.244C152.858 29.436 153.234 29.532 153.65 29.532C153.946 29.532 154.222 29.488 154.478 29.4C154.734 29.312 154.954 29.2 155.138 29.064C155.33 28.92 155.466 28.776 155.546 28.632V29.412C155.378 29.612 155.118 29.78 154.766 29.916C154.422 30.052 154.05 30.12 153.65 30.12C153.114 30.12 152.634 29.996 152.21 29.748C151.786 29.5 151.446 29.16 151.19 28.728C150.942 28.288 150.818 27.792 150.818 27.24C150.818 26.68 150.942 26.184 151.19 25.752C151.446 25.32 151.786 24.98 152.21 24.732C152.634 24.484 153.114 24.36 153.65 24.36C154.05 24.36 154.422 24.432 154.766 24.576C155.118 24.712 155.378 24.876 155.546 25.068V25.848C155.466 25.696 155.33 25.552 155.138 25.416C154.954 25.28 154.734 25.168 154.478 25.08C154.222 24.992 153.946 24.948 153.65 24.948C153.234 24.948 152.858 25.048 152.522 25.248C152.194 25.44 151.934 25.708 151.742 26.052C151.55 26.396 151.454 26.792 151.454 27.24ZM157.243 27.24C157.243 27.688 157.339 28.084 157.531 28.428C157.723 28.772 157.983 29.044 158.311 29.244C158.647 29.436 159.023 29.532 159.439 29.532C159.735 29.532 160.011 29.488 160.267 29.4C160.523 29.312 160.743 29.2 160.927 29.064C161.119 28.92 161.255 28.776 161.335 28.632V29.412C161.167 29.612 160.907 29.78 160.555 29.916C160.211 30.052 159.839 30.12 159.439 30.12C158.903 30.12 158.423 29.996 157.999 29.748C157.575 29.5 157.235 29.16 156.979 28.728C156.731 28.288 156.607 27.792 156.607 27.24C156.607 26.68 156.731 26.184 156.979 25.752C157.235 25.32 157.575 24.98 157.999 24.732C158.423 24.484 158.903 24.36 159.439 24.36C159.839 24.36 160.211 24.432 160.555 24.576C160.907 24.712 161.167 24.876 161.335 25.068V25.848C161.255 25.696 161.119 25.552 160.927 25.416C160.743 25.28 160.523 25.168 160.267 25.08C160.011 24.992 159.735 24.948 159.439 24.948C159.023 24.948 158.647 25.048 158.311 25.248C157.983 25.44 157.723 25.708 157.531 26.052C157.339 26.396 157.243 26.792 157.243 27.24ZM162.456 27.24C162.456 26.68 162.58 26.184 162.828 25.752C163.076 25.32 163.412 24.98 163.836 24.732C164.268 24.484 164.752 24.36 165.288 24.36C165.824 24.36 166.304 24.484 166.728 24.732C167.16 24.98 167.5 25.32 167.748 25.752C167.996 26.184 168.12 26.68 168.12 27.24C168.12 27.792 167.996 28.288 167.748 28.728C167.5 29.16 167.16 29.5 166.728 29.748C166.304 29.996 165.824 30.12 165.288 30.12C164.752 30.12 164.268 29.996 163.836 29.748C163.412 29.5 163.076 29.16 162.828 28.728C162.58 28.288 162.456 27.792 162.456 27.24ZM163.092 27.24C163.092 27.688 163.188 28.084 163.38 28.428C163.572 28.772 163.832 29.044 164.16 29.244C164.496 29.436 164.872 29.532 165.288 29.532C165.704 29.532 166.076 29.436 166.404 29.244C166.74 29.044 167.004 28.772 167.196 28.428C167.388 28.084 167.484 27.688 167.484 27.24C167.484 26.8 167.388 26.408 167.196 26.064C167.004 25.712 166.74 25.44 166.404 25.248C166.076 25.048 165.704 24.948 165.288 24.948C164.872 24.948 164.496 25.048 164.16 25.248C163.832 25.44 163.572 25.708 163.38 26.052C163.188 26.396 163.092 26.792 163.092 27.24ZM170.158 27.984C170.158 28.464 170.262 28.844 170.47 29.124C170.678 29.396 171.006 29.532 171.454 29.532C171.766 29.532 172.042 29.456 172.282 29.304C172.53 29.152 172.722 28.948 172.858 28.692C173.002 28.436 173.074 28.152 173.074 27.84V24.48H173.698V30H173.074V28.848C172.922 29.248 172.694 29.56 172.39 29.784C172.086 30.008 171.726 30.12 171.31 30.12C170.734 30.12 170.294 29.936 169.99 29.568C169.686 29.192 169.534 28.688 169.534 28.056V24.48H170.158V27.984ZM179.133 26.448C179.133 25.976 179.029 25.608 178.821 25.344C178.613 25.08 178.285 24.948 177.837 24.948C177.525 24.948 177.245 25.024 176.997 25.176C176.757 25.32 176.565 25.52 176.421 25.776C176.285 26.032 176.217 26.32 176.217 26.64V30H175.593V24.48H176.217V25.632C176.369 25.232 176.597 24.92 176.901 24.696C177.213 24.472 177.573 24.36 177.981 24.36C178.557 24.36 178.997 24.544 179.301 24.912C179.605 25.272 179.757 25.76 179.757 26.376V30H179.133V26.448ZM180.811 24.48H183.235V25.068H180.811V24.48ZM181.711 22.56H182.335V30H181.711V22.56ZM28.512 37.64V47H27.888V37.64H28.512ZM33.228 44.24C33.228 44.832 33.108 45.344 32.868 45.776C32.636 46.208 32.316 46.54 31.908 46.772C31.508 47.004 31.06 47.12 30.564 47.12C30.1 47.12 29.692 46.996 29.34 46.748C28.988 46.492 28.712 46.148 28.512 45.716C28.32 45.276 28.224 44.784 28.224 44.24C28.224 43.688 28.32 43.196 28.512 42.764C28.712 42.332 28.988 41.992 29.34 41.744C29.692 41.488 30.1 41.36 30.564 41.36C31.06 41.36 31.508 41.476 31.908 41.708C32.316 41.94 32.636 42.272 32.868 42.704C33.108 43.128 33.228 43.64 33.228 44.24ZM32.604 44.24C32.604 43.76 32.508 43.348 32.316 43.004C32.124 42.66 31.868 42.4 31.548 42.224C31.228 42.04 30.872 41.948 30.48 41.948C30.144 41.948 29.824 42.048 29.52 42.248C29.216 42.448 28.972 42.72 28.788 43.064C28.604 43.408 28.512 43.8 28.512 44.24C28.512 44.68 28.604 45.072 28.788 45.416C28.972 45.76 29.216 46.032 29.52 46.232C29.824 46.432 30.144 46.532 30.48 46.532C30.872 46.532 31.228 46.444 31.548 46.268C31.868 46.084 32.124 45.82 32.316 45.476C32.508 45.132 32.604 44.72 32.604 44.24ZM35.2634 41.48V47H34.6394V41.48H35.2634ZM37.0994 42.212C36.9794 42.124 36.8634 42.06 36.7514 42.02C36.6474 41.972 36.5234 41.948 36.3794 41.948C36.1074 41.948 35.8874 42.024 35.7194 42.176C35.5594 42.328 35.4434 42.532 35.3714 42.788C35.2994 43.044 35.2634 43.328 35.2634 43.64H34.9754C34.9754 43.2 35.0434 42.812 35.1794 42.476C35.3154 42.132 35.4994 41.86 35.7314 41.66C35.9714 41.46 36.2354 41.36 36.5234 41.36C36.6994 41.36 36.8634 41.388 37.0154 41.444C37.1754 41.492 37.3194 41.576 37.4474 41.696L37.0994 42.212ZM38.6026 45.344C38.6026 45.616 38.6626 45.844 38.7826 46.028C38.9106 46.212 39.0786 46.352 39.2866 46.448C39.5026 46.536 39.7386 46.58 39.9946 46.58C40.3066 46.58 40.5906 46.508 40.8466 46.364C41.1106 46.22 41.3226 46.008 41.4826 45.728C41.6426 45.448 41.7226 45.104 41.7226 44.696L41.8666 45.224C41.8666 45.656 41.7626 46.012 41.5546 46.292C41.3466 46.572 41.0866 46.78 40.7746 46.916C40.4626 47.052 40.1466 47.12 39.8266 47.12C39.5146 47.12 39.2146 47.056 38.9266 46.928C38.6386 46.792 38.4066 46.596 38.2306 46.34C38.0546 46.084 37.9666 45.76 37.9666 45.368C37.9666 44.832 38.1506 44.408 38.5186 44.096C38.8946 43.784 39.4026 43.628 40.0426 43.628C40.4026 43.628 40.7106 43.672 40.9666 43.76C41.2306 43.84 41.4466 43.932 41.6146 44.036C41.7826 44.14 41.9026 44.228 41.9746 44.3V44.696C41.7026 44.504 41.4106 44.364 41.0986 44.276C40.7946 44.18 40.4746 44.132 40.1386 44.132C39.8266 44.132 39.5546 44.176 39.3226 44.264C39.0986 44.352 38.9226 44.484 38.7946 44.66C38.6666 44.836 38.6026 45.064 38.6026 45.344ZM38.6266 42.488L38.3146 42.02C38.5226 41.876 38.7906 41.732 39.1186 41.588C39.4546 41.436 39.8666 41.36 40.3546 41.36C40.7706 41.36 41.1266 41.428 41.4226 41.564C41.7186 41.7 41.9466 41.896 42.1066 42.152C42.2666 42.408 42.3466 42.72 42.3466 43.088V47H41.7226V43.172C41.7226 43.012 41.6986 42.86 41.6506 42.716C41.6026 42.564 41.5226 42.428 41.4106 42.308C41.3066 42.188 41.1626 42.092 40.9786 42.02C40.7946 41.948 40.5706 41.912 40.3066 41.912C40.0346 41.912 39.7906 41.944 39.5746 42.008C39.3586 42.072 39.1706 42.148 39.0106 42.236C38.8586 42.324 38.7306 42.408 38.6266 42.488ZM47.6013 43.448C47.6013 42.976 47.4973 42.608 47.2893 42.344C47.0813 42.08 46.7533 41.948 46.3053 41.948C45.9933 41.948 45.7133 42.024 45.4653 42.176C45.2253 42.32 45.0333 42.52 44.8893 42.776C44.7533 43.032 44.6853 43.32 44.6853 43.64V47H44.0613V41.48H44.6853V42.632C44.8373 42.232 45.0653 41.92 45.3693 41.696C45.6813 41.472 46.0413 41.36 46.4493 41.36C47.0253 41.36 47.4653 41.544 47.7693 41.912C48.0733 42.272 48.2253 42.76 48.2253 43.376V47H47.6013V43.448ZM54.3559 37.64H54.9799V47H54.3559V37.64ZM49.6399 44.24C49.6399 43.64 49.7599 43.128 49.9999 42.704C50.2399 42.272 50.5599 41.94 50.9599 41.708C51.3679 41.476 51.8159 41.36 52.3039 41.36C52.7839 41.36 53.1959 41.488 53.5399 41.744C53.8839 41.992 54.1519 42.332 54.3439 42.764C54.5439 43.196 54.6439 43.688 54.6439 44.24C54.6439 44.784 54.5439 45.276 54.3439 45.716C54.1519 46.148 53.8839 46.492 53.5399 46.748C53.1959 46.996 52.7839 47.12 52.3039 47.12C51.8159 47.12 51.3679 47.004 50.9599 46.772C50.5599 46.54 50.2399 46.208 49.9999 45.776C49.7599 45.344 49.6399 44.832 49.6399 44.24ZM50.2759 44.24C50.2759 44.72 50.3679 45.132 50.5519 45.476C50.7439 45.82 50.9999 46.084 51.3199 46.268C51.6479 46.444 52.0039 46.532 52.3879 46.532C52.7319 46.532 53.0519 46.432 53.3479 46.232C53.6519 46.032 53.8959 45.76 54.0799 45.416C54.2639 45.072 54.3559 44.68 54.3559 44.24C54.3559 43.8 54.2639 43.408 54.0799 43.064C53.8959 42.72 53.6519 42.448 53.3479 42.248C53.0519 42.048 52.7319 41.948 52.3879 41.948C52.0039 41.948 51.6479 42.04 51.3199 42.224C50.9999 42.4 50.7439 42.66 50.5519 43.004C50.3679 43.348 50.2759 43.76 50.2759 44.24ZM60.3969 45.428C60.4769 45.628 60.5849 45.812 60.7209 45.98C60.8569 46.148 61.0289 46.284 61.2369 46.388C61.4529 46.492 61.7049 46.544 61.9929 46.544C62.3289 46.544 62.5969 46.46 62.7969 46.292C63.0049 46.116 63.1089 45.876 63.1089 45.572C63.1089 45.348 63.0449 45.164 62.9169 45.02C62.7889 44.868 62.6209 44.744 62.4129 44.648C62.2049 44.544 61.9809 44.452 61.7409 44.372C61.4849 44.276 61.2369 44.168 60.9969 44.048C60.7569 43.928 60.5569 43.768 60.3969 43.568C60.2449 43.36 60.1689 43.092 60.1689 42.764C60.1689 42.452 60.2449 42.192 60.3969 41.984C60.5569 41.776 60.7609 41.624 61.0089 41.528C61.2649 41.424 61.5369 41.372 61.8249 41.372C62.1369 41.372 62.4169 41.424 62.6649 41.528C62.9129 41.632 63.1249 41.768 63.3009 41.936C63.4769 42.104 63.6129 42.292 63.7089 42.5L63.1929 42.812C63.0649 42.572 62.8849 42.364 62.6529 42.188C62.4209 42.012 62.1209 41.924 61.7529 41.924C61.4809 41.924 61.2489 41.992 61.0569 42.128C60.8729 42.264 60.7809 42.464 60.7809 42.728C60.7809 42.944 60.8409 43.124 60.9609 43.268C61.0809 43.404 61.2409 43.516 61.4409 43.604C61.6409 43.692 61.8529 43.776 62.0769 43.856C62.3729 43.968 62.6449 44.092 62.8929 44.228C63.1489 44.364 63.3529 44.532 63.5049 44.732C63.6649 44.932 63.7449 45.188 63.7449 45.5C63.7449 45.98 63.5769 46.372 63.2409 46.676C62.9129 46.972 62.4849 47.12 61.9569 47.12C61.5729 47.12 61.2369 47.052 60.9489 46.916C60.6689 46.78 60.4409 46.604 60.2649 46.388C60.0969 46.172 59.9729 45.948 59.8929 45.716L60.3969 45.428ZM64.4088 41.48H66.8328V42.068H64.4088V41.48ZM65.3088 39.56H65.9328V47H65.3088V39.56ZM72.0975 41.48L68.4975 49.64H67.8015L69.2175 46.436L66.9855 41.48H67.7295L69.7335 46.184L69.4455 46.16L71.4015 41.48H72.0975ZM73.0886 37.64H73.7126V47H73.0886V37.64ZM77.6842 47.12C77.1882 47.12 76.7482 46.996 76.3642 46.748C75.9802 46.5 75.6762 46.16 75.4522 45.728C75.2362 45.288 75.1282 44.788 75.1282 44.228C75.1282 43.668 75.2402 43.172 75.4642 42.74C75.6882 42.308 76.0002 41.972 76.4002 41.732C76.8002 41.484 77.2602 41.36 77.7802 41.36C78.2842 41.36 78.7242 41.476 79.1002 41.708C79.4842 41.94 79.7802 42.264 79.9882 42.68C80.2042 43.088 80.3122 43.56 80.3122 44.096C80.3122 44.144 80.3082 44.196 80.3002 44.252C80.3002 44.308 80.2962 44.356 80.2882 44.396H75.5242V43.856H79.8202L79.5562 44.228C79.5722 44.188 79.5882 44.136 79.6042 44.072C79.6282 44 79.6402 43.932 79.6402 43.868C79.6402 43.492 79.5562 43.156 79.3882 42.86C79.2282 42.564 79.0082 42.332 78.7282 42.164C78.4482 41.996 78.1322 41.912 77.7802 41.912C77.3722 41.912 77.0162 42.008 76.7122 42.2C76.4162 42.384 76.1842 42.648 76.0162 42.992C75.8482 43.328 75.7642 43.728 75.7642 44.192C75.7642 44.664 75.8442 45.076 76.0042 45.428C76.1722 45.78 76.4042 46.052 76.7002 46.244C77.0042 46.436 77.3562 46.532 77.7562 46.532C78.1802 46.532 78.5482 46.44 78.8602 46.256C79.1802 46.072 79.4642 45.784 79.7122 45.392L80.2162 45.716C79.9042 46.196 79.5402 46.552 79.1242 46.784C78.7162 47.008 78.2362 47.12 77.6842 47.12ZM82.0877 45.752L82.7117 45.992L81.3917 48.992L80.9477 48.836L82.0877 45.752ZM88.2644 38.6H88.9244V44.288C88.9244 44.96 89.1004 45.496 89.4524 45.896C89.8044 46.296 90.3044 46.496 90.9524 46.496C91.6004 46.496 92.1004 46.296 92.4524 45.896C92.8044 45.496 92.9804 44.96 92.9804 44.288V38.6H93.6404V44.288C93.6404 44.704 93.5804 45.088 93.4604 45.44C93.3404 45.784 93.1644 46.08 92.9324 46.328C92.7004 46.576 92.4164 46.772 92.0804 46.916C91.7524 47.052 91.3764 47.12 90.9524 47.12C90.5284 47.12 90.1484 47.052 89.8124 46.916C89.4844 46.772 89.2044 46.576 88.9724 46.328C88.7404 46.08 88.5644 45.784 88.4444 45.44C88.3244 45.088 88.2644 44.704 88.2644 44.288V38.6ZM99.8498 38.6H100.642L98.1578 42.596L100.822 47H100.03L97.8218 43.184L95.5538 47H94.7618L97.4858 42.596L95.0618 38.6H95.8538L97.8338 42.02L99.8498 38.6ZM105.634 45.344C105.634 45.616 105.694 45.844 105.814 46.028C105.942 46.212 106.11 46.352 106.318 46.448C106.534 46.536 106.77 46.58 107.026 46.58C107.338 46.58 107.622 46.508 107.878 46.364C108.142 46.22 108.354 46.008 108.514 45.728C108.674 45.448 108.754 45.104 108.754 44.696L108.898 45.224C108.898 45.656 108.794 46.012 108.586 46.292C108.378 46.572 108.118 46.78 107.806 46.916C107.494 47.052 107.178 47.12 106.858 47.12C106.546 47.12 106.246 47.056 105.958 46.928C105.67 46.792 105.438 46.596 105.262 46.34C105.086 46.084 104.998 45.76 104.998 45.368C104.998 44.832 105.182 44.408 105.55 44.096C105.926 43.784 106.434 43.628 107.074 43.628C107.434 43.628 107.742 43.672 107.998 43.76C108.262 43.84 108.478 43.932 108.646 44.036C108.814 44.14 108.934 44.228 109.006 44.3V44.696C108.734 44.504 108.442 44.364 108.13 44.276C107.826 44.18 107.506 44.132 107.17 44.132C106.858 44.132 106.586 44.176 106.354 44.264C106.13 44.352 105.954 44.484 105.826 44.66C105.698 44.836 105.634 45.064 105.634 45.344ZM105.658 42.488L105.346 42.02C105.554 41.876 105.822 41.732 106.15 41.588C106.486 41.436 106.898 41.36 107.386 41.36C107.802 41.36 108.158 41.428 108.454 41.564C108.75 41.7 108.978 41.896 109.138 42.152C109.298 42.408 109.378 42.72 109.378 43.088V47H108.754V43.172C108.754 43.012 108.73 42.86 108.682 42.716C108.634 42.564 108.554 42.428 108.442 42.308C108.338 42.188 108.194 42.092 108.01 42.02C107.826 41.948 107.602 41.912 107.338 41.912C107.066 41.912 106.822 41.944 106.606 42.008C106.39 42.072 106.202 42.148 106.042 42.236C105.89 42.324 105.762 42.408 105.658 42.488ZM114.633 43.448C114.633 42.976 114.529 42.608 114.321 42.344C114.113 42.08 113.785 41.948 113.337 41.948C113.025 41.948 112.745 42.024 112.497 42.176C112.257 42.32 112.065 42.52 111.921 42.776C111.785 43.032 111.717 43.32 111.717 43.64V47H111.093V41.48H111.717V42.632C111.869 42.232 112.097 41.92 112.401 41.696C112.713 41.472 113.073 41.36 113.481 41.36C114.057 41.36 114.497 41.544 114.801 41.912C115.105 42.272 115.257 42.76 115.257 43.376V47H114.633V43.448ZM121.387 37.64H122.011V47H121.387V37.64ZM116.671 44.24C116.671 43.64 116.791 43.128 117.031 42.704C117.271 42.272 117.591 41.94 117.991 41.708C118.399 41.476 118.847 41.36 119.335 41.36C119.815 41.36 120.227 41.488 120.571 41.744C120.915 41.992 121.183 42.332 121.375 42.764C121.575 43.196 121.675 43.688 121.675 44.24C121.675 44.784 121.575 45.276 121.375 45.716C121.183 46.148 120.915 46.492 120.571 46.748C120.227 46.996 119.815 47.12 119.335 47.12C118.847 47.12 118.399 47.004 117.991 46.772C117.591 46.54 117.271 46.208 117.031 45.776C116.791 45.344 116.671 44.832 116.671 44.24ZM117.307 44.24C117.307 44.72 117.399 45.132 117.583 45.476C117.775 45.82 118.031 46.084 118.351 46.268C118.679 46.444 119.035 46.532 119.419 46.532C119.763 46.532 120.083 46.432 120.379 46.232C120.683 46.032 120.927 45.76 121.111 45.416C121.295 45.072 121.387 44.68 121.387 44.24C121.387 43.8 121.295 43.408 121.111 43.064C120.927 42.72 120.683 42.448 120.379 42.248C120.083 42.048 119.763 41.948 119.419 41.948C119.035 41.948 118.679 42.04 118.351 42.224C118.031 42.4 117.775 42.66 117.583 43.004C117.399 43.348 117.307 43.76 117.307 44.24ZM134.472 43.376V47H133.848V43.448C133.848 42.968 133.756 42.6 133.572 42.344C133.388 42.08 133.104 41.948 132.72 41.948C132.448 41.948 132.2 42.02 131.976 42.164C131.76 42.308 131.588 42.508 131.46 42.764C131.332 43.02 131.268 43.312 131.268 43.64V47H130.644V43.448C130.644 42.968 130.552 42.6 130.368 42.344C130.184 42.08 129.9 41.948 129.516 41.948C129.244 41.948 128.996 42.02 128.772 42.164C128.556 42.308 128.384 42.508 128.256 42.764C128.128 43.02 128.064 43.312 128.064 43.64V47H127.44V41.48H128.064V42.596C128.208 42.204 128.42 41.9 128.7 41.684C128.98 41.468 129.3 41.36 129.66 41.36C130.06 41.36 130.388 41.476 130.644 41.708C130.9 41.932 131.072 42.24 131.16 42.632C131.32 42.232 131.552 41.92 131.856 41.696C132.16 41.472 132.496 41.36 132.864 41.36C133.208 41.36 133.5 41.44 133.74 41.6C133.98 41.76 134.16 41.992 134.28 42.296C134.408 42.6 134.472 42.96 134.472 43.376ZM135.89 44.24C135.89 43.68 136.014 43.184 136.262 42.752C136.51 42.32 136.846 41.98 137.27 41.732C137.702 41.484 138.186 41.36 138.722 41.36C139.258 41.36 139.738 41.484 140.162 41.732C140.594 41.98 140.934 42.32 141.182 42.752C141.43 43.184 141.554 43.68 141.554 44.24C141.554 44.792 141.43 45.288 141.182 45.728C140.934 46.16 140.594 46.5 140.162 46.748C139.738 46.996 139.258 47.12 138.722 47.12C138.186 47.12 137.702 46.996 137.27 46.748C136.846 46.5 136.51 46.16 136.262 45.728C136.014 45.288 135.89 44.792 135.89 44.24ZM136.526 44.24C136.526 44.688 136.622 45.084 136.814 45.428C137.006 45.772 137.266 46.044 137.594 46.244C137.93 46.436 138.306 46.532 138.722 46.532C139.138 46.532 139.51 46.436 139.838 46.244C140.174 46.044 140.438 45.772 140.63 45.428C140.822 45.084 140.918 44.688 140.918 44.24C140.918 43.8 140.822 43.408 140.63 43.064C140.438 42.712 140.174 42.44 139.838 42.248C139.51 42.048 139.138 41.948 138.722 41.948C138.306 41.948 137.93 42.048 137.594 42.248C137.266 42.44 137.006 42.708 136.814 43.052C136.622 43.396 136.526 43.792 136.526 44.24ZM147.204 37.64H147.828V47H147.204V37.64ZM142.488 44.24C142.488 43.64 142.608 43.128 142.848 42.704C143.088 42.272 143.408 41.94 143.808 41.708C144.216 41.476 144.664 41.36 145.152 41.36C145.632 41.36 146.044 41.488 146.388 41.744C146.732 41.992 147 42.332 147.192 42.764C147.392 43.196 147.492 43.688 147.492 44.24C147.492 44.784 147.392 45.276 147.192 45.716C147 46.148 146.732 46.492 146.388 46.748C146.044 46.996 145.632 47.12 145.152 47.12C144.664 47.12 144.216 47.004 143.808 46.772C143.408 46.54 143.088 46.208 142.848 45.776C142.608 45.344 142.488 44.832 142.488 44.24ZM143.124 44.24C143.124 44.72 143.216 45.132 143.4 45.476C143.592 45.82 143.848 46.084 144.168 46.268C144.496 46.444 144.852 46.532 145.236 46.532C145.58 46.532 145.9 46.432 146.196 46.232C146.5 46.032 146.744 45.76 146.928 45.416C147.112 45.072 147.204 44.68 147.204 44.24C147.204 43.8 147.112 43.408 146.928 43.064C146.744 42.72 146.5 42.448 146.196 42.248C145.9 42.048 145.58 41.948 145.236 41.948C144.852 41.948 144.496 42.04 144.168 42.224C143.848 42.4 143.592 42.66 143.4 43.004C143.216 43.348 143.124 43.76 143.124 44.24ZM151.735 47.12C151.239 47.12 150.799 46.996 150.415 46.748C150.031 46.5 149.727 46.16 149.503 45.728C149.287 45.288 149.179 44.788 149.179 44.228C149.179 43.668 149.291 43.172 149.515 42.74C149.739 42.308 150.051 41.972 150.451 41.732C150.851 41.484 151.311 41.36 151.831 41.36C152.335 41.36 152.775 41.476 153.151 41.708C153.535 41.94 153.831 42.264 154.039 42.68C154.255 43.088 154.363 43.56 154.363 44.096C154.363 44.144 154.359 44.196 154.351 44.252C154.351 44.308 154.347 44.356 154.339 44.396H149.575V43.856H153.871L153.607 44.228C153.623 44.188 153.639 44.136 153.655 44.072C153.679 44 153.691 43.932 153.691 43.868C153.691 43.492 153.607 43.156 153.439 42.86C153.279 42.564 153.059 42.332 152.779 42.164C152.499 41.996 152.183 41.912 151.831 41.912C151.423 41.912 151.067 42.008 150.763 42.2C150.467 42.384 150.235 42.648 150.067 42.992C149.899 43.328 149.815 43.728 149.815 44.192C149.815 44.664 149.895 45.076 150.055 45.428C150.223 45.78 150.455 46.052 150.751 46.244C151.055 46.436 151.407 46.532 151.807 46.532C152.231 46.532 152.599 46.44 152.911 46.256C153.231 46.072 153.515 45.784 153.763 45.392L154.267 45.716C153.955 46.196 153.591 46.552 153.175 46.784C152.767 47.008 152.287 47.12 151.735 47.12ZM156.4 41.48V47H155.776V41.48H156.4ZM158.236 42.212C158.116 42.124 158 42.06 157.888 42.02C157.784 41.972 157.66 41.948 157.516 41.948C157.244 41.948 157.024 42.024 156.856 42.176C156.696 42.328 156.58 42.532 156.508 42.788C156.436 43.044 156.4 43.328 156.4 43.64H156.112C156.112 43.2 156.18 42.812 156.316 42.476C156.452 42.132 156.636 41.86 156.868 41.66C157.108 41.46 157.372 41.36 157.66 41.36C157.836 41.36 158 41.388 158.152 41.444C158.312 41.492 158.456 41.576 158.584 41.696L158.236 42.212ZM163.183 43.448C163.183 42.976 163.079 42.608 162.871 42.344C162.663 42.08 162.335 41.948 161.887 41.948C161.575 41.948 161.295 42.024 161.047 42.176C160.807 42.32 160.615 42.52 160.471 42.776C160.335 43.032 160.267 43.32 160.267 43.64V47H159.643V41.48H160.267V42.632C160.419 42.232 160.647 41.92 160.951 41.696C161.263 41.472 161.623 41.36 162.031 41.36C162.607 41.36 163.047 41.544 163.351 41.912C163.655 42.272 163.807 42.76 163.807 43.376V47H163.183V43.448ZM27.108 58.48H29.532V59.068H27.108V58.48ZM28.008 56.56H28.632V64H28.008V56.56ZM31.2087 58.48V64H30.5847V58.48H31.2087ZM33.0447 59.212C32.9247 59.124 32.8087 59.06 32.6967 59.02C32.5927 58.972 32.4687 58.948 32.3247 58.948C32.0527 58.948 31.8327 59.024 31.6647 59.176C31.5047 59.328 31.3887 59.532 31.3167 59.788C31.2447 60.044 31.2087 60.328 31.2087 60.64H30.9207C30.9207 60.2 30.9887 59.812 31.1247 59.476C31.2607 59.132 31.4447 58.86 31.6767 58.66C31.9167 58.46 32.1807 58.36 32.4687 58.36C32.6447 58.36 32.8087 58.388 32.9607 58.444C33.1207 58.492 33.2647 58.576 33.3927 58.696L33.0447 59.212ZM36.3521 64.12C35.8561 64.12 35.4161 63.996 35.0321 63.748C34.6481 63.5 34.3441 63.16 34.1201 62.728C33.9041 62.288 33.7961 61.788 33.7961 61.228C33.7961 60.668 33.9081 60.172 34.1321 59.74C34.3561 59.308 34.6681 58.972 35.0681 58.732C35.4681 58.484 35.9281 58.36 36.4481 58.36C36.9521 58.36 37.3921 58.476 37.7681 58.708C38.1521 58.94 38.4481 59.264 38.6561 59.68C38.8721 60.088 38.9801 60.56 38.9801 61.096C38.9801 61.144 38.9761 61.196 38.9681 61.252C38.9681 61.308 38.9641 61.356 38.9561 61.396H34.1921V60.856H38.4881L38.2241 61.228C38.2401 61.188 38.2561 61.136 38.2721 61.072C38.2961 61 38.3081 60.932 38.3081 60.868C38.3081 60.492 38.2241 60.156 38.0561 59.86C37.8961 59.564 37.6761 59.332 37.3961 59.164C37.1161 58.996 36.8001 58.912 36.4481 58.912C36.0401 58.912 35.6841 59.008 35.3801 59.2C35.0841 59.384 34.8521 59.648 34.6841 59.992C34.5161 60.328 34.4321 60.728 34.4321 61.192C34.4321 61.664 34.5121 62.076 34.6721 62.428C34.8401 62.78 35.0721 63.052 35.3681 63.244C35.6721 63.436 36.0241 63.532 36.4241 63.532C36.8481 63.532 37.2161 63.44 37.5281 63.256C37.8481 63.072 38.1321 62.784 38.3801 62.392L38.8841 62.716C38.5721 63.196 38.2081 63.552 37.7921 63.784C37.3841 64.008 36.9041 64.12 36.3521 64.12ZM43.9333 60.448C43.9333 59.976 43.8293 59.608 43.6213 59.344C43.4133 59.08 43.0853 58.948 42.6373 58.948C42.3253 58.948 42.0453 59.024 41.7973 59.176C41.5573 59.32 41.3653 59.52 41.2213 59.776C41.0853 60.032 41.0173 60.32 41.0173 60.64V64H40.3933V58.48H41.0173V59.632C41.1693 59.232 41.3973 58.92 41.7013 58.696C42.0133 58.472 42.3733 58.36 42.7813 58.36C43.3573 58.36 43.7973 58.544 44.1013 58.912C44.4053 59.272 44.5573 59.76 44.5573 60.376V64H43.9333V60.448ZM50.6879 54.64H51.3119V64H50.6879V54.64ZM45.9719 61.24C45.9719 60.64 46.0919 60.128 46.3319 59.704C46.5719 59.272 46.8919 58.94 47.2919 58.708C47.6999 58.476 48.1479 58.36 48.6359 58.36C49.1159 58.36 49.5279 58.488 49.8719 58.744C50.2159 58.992 50.4839 59.332 50.6759 59.764C50.8759 60.196 50.9759 60.688 50.9759 61.24C50.9759 61.784 50.8759 62.276 50.6759 62.716C50.4839 63.148 50.2159 63.492 49.8719 63.748C49.5279 63.996 49.1159 64.12 48.6359 64.12C48.1479 64.12 47.6999 64.004 47.2919 63.772C46.8919 63.54 46.5719 63.208 46.3319 62.776C46.0919 62.344 45.9719 61.832 45.9719 61.24ZM46.6079 61.24C46.6079 61.72 46.6999 62.132 46.8839 62.476C47.0759 62.82 47.3319 63.084 47.6519 63.268C47.9799 63.444 48.3359 63.532 48.7199 63.532C49.0639 63.532 49.3839 63.432 49.6799 63.232C49.9839 63.032 50.2279 62.76 50.4119 62.416C50.5959 62.072 50.6879 61.68 50.6879 61.24C50.6879 60.8 50.5959 60.408 50.4119 60.064C50.2279 59.72 49.9839 59.448 49.6799 59.248C49.3839 59.048 49.0639 58.948 48.7199 58.948C48.3359 58.948 47.9799 59.04 47.6519 59.224C47.3319 59.4 47.0759 59.66 46.8839 60.004C46.6999 60.348 46.6079 60.76 46.6079 61.24ZM53.1313 62.428C53.2113 62.628 53.3193 62.812 53.4553 62.98C53.5913 63.148 53.7633 63.284 53.9713 63.388C54.1873 63.492 54.4393 63.544 54.7273 63.544C55.0633 63.544 55.3313 63.46 55.5313 63.292C55.7393 63.116 55.8433 62.876 55.8433 62.572C55.8433 62.348 55.7793 62.164 55.6513 62.02C55.5233 61.868 55.3553 61.744 55.1473 61.648C54.9393 61.544 54.7153 61.452 54.4753 61.372C54.2193 61.276 53.9713 61.168 53.7313 61.048C53.4913 60.928 53.2913 60.768 53.1313 60.568C52.9793 60.36 52.9033 60.092 52.9033 59.764C52.9033 59.452 52.9793 59.192 53.1313 58.984C53.2913 58.776 53.4953 58.624 53.7433 58.528C53.9993 58.424 54.2713 58.372 54.5593 58.372C54.8713 58.372 55.1513 58.424 55.3993 58.528C55.6473 58.632 55.8593 58.768 56.0353 58.936C56.2113 59.104 56.3473 59.292 56.4433 59.5L55.9273 59.812C55.7993 59.572 55.6193 59.364 55.3873 59.188C55.1553 59.012 54.8553 58.924 54.4873 58.924C54.2153 58.924 53.9833 58.992 53.7913 59.128C53.6073 59.264 53.5153 59.464 53.5153 59.728C53.5153 59.944 53.5753 60.124 53.6953 60.268C53.8153 60.404 53.9753 60.516 54.1753 60.604C54.3753 60.692 54.5873 60.776 54.8113 60.856C55.1073 60.968 55.3793 61.092 55.6273 61.228C55.8833 61.364 56.0873 61.532 56.2393 61.732C56.3993 61.932 56.4793 62.188 56.4793 62.5C56.4793 62.98 56.3113 63.372 55.9753 63.676C55.6473 63.972 55.2193 64.12 54.6913 64.12C54.3073 64.12 53.9713 64.052 53.6833 63.916C53.4033 63.78 53.1753 63.604 52.9993 63.388C52.8313 63.172 52.7073 62.948 52.6273 62.716L53.1313 62.428ZM58.2952 63.712C58.2952 63.584 58.3392 63.476 58.4272 63.388C58.5152 63.3 58.6192 63.256 58.7392 63.256C58.8672 63.256 58.9712 63.3 59.0512 63.388C59.1392 63.476 59.1832 63.584 59.1832 63.712C59.1832 63.832 59.1392 63.936 59.0512 64.024C58.9712 64.112 58.8672 64.156 58.7392 64.156C58.6192 64.156 58.5152 64.112 58.4272 64.024C58.3392 63.936 58.2952 63.832 58.2952 63.712Z" fill="white"/>
<circle cx="150" cy="325" r="149.5" stroke="#FF3100"/>
<g filter="url(#filter0_d_839_17)">
<line x1="33.4668" y1="34.821" x2="199.226" y2="467.049" stroke="white" stroke-opacity="0.26" stroke-dasharray="9 9" shape-rendering="crispEdges"/>
</g>
<line x1="102.471" y1="343.927" x2="171.559" y2="262.221" stroke="white" stroke-opacity="0.24"/>
<line x1="177.927" y1="338.322" x2="96.2208" y2="269.235" stroke="white" stroke-opacity="0.13"/>
<defs>
<filter id="filter0_d_839_17" x="29" y="34.6421" width="174.692" height="440.586" filterUnits="userSpaceOnUse" color-interpolation-filters="sRGB">
<feFlood flood-opacity="0" result="BackgroundImageFix"/>
<feColorMatrix in="SourceAlpha" type="matrix" values="0 0 0 0 0 0 0 0 0 0 0 0 0 0 0 0 0 0 127 0" result="hardAlpha"/>
<feOffset dy="4"/>
<feGaussianBlur stdDeviation="2"/>
<feComposite in2="hardAlpha" operator="out"/>
<feColorMatrix type="matrix" values="0 0 0 0 0 0 0 0 0 0 0 0 0 0 0 0 0 0 0.25 0"/>
<feBlend mode="normal" in2="BackgroundImageFix" result="effect1_dropShadow_839_17"/>
<feBlend mode="normal" in="SourceGraphic" in2="effect1_dropShadow_839_17" result="shape"/>
</filter>
</defs>
</svg>
