<svg width="1522" height="202" viewBox="0 0 1522 202" fill="none" xmlns="http://www.w3.org/2000/svg">
<path d="M1317.21 163.078H1320.64V164.313H1317.21V163.078ZM1320.48 160.426C1320.39 160.287 1320.29 160.196 1320.18 160.153C1320.08 160.109 1319.97 160.088 1319.86 160.088C1319.73 160.088 1319.61 160.122 1319.52 160.192C1319.43 160.261 1319.36 160.374 1319.31 160.53C1319.26 160.686 1319.23 160.889 1319.23 161.141V169.058H1317.86V160.868C1317.86 160.4 1317.93 160.014 1318.08 159.711C1318.23 159.399 1318.45 159.165 1318.74 159.009C1319.03 158.844 1319.38 158.762 1319.79 158.762C1320.03 158.762 1320.23 158.792 1320.4 158.853C1320.58 158.913 1320.72 158.987 1320.85 159.074C1320.98 159.16 1321.07 159.247 1321.14 159.334L1320.48 160.426ZM1323.15 166.718C1323.15 167.142 1323.24 167.472 1323.43 167.706C1323.61 167.94 1323.89 168.057 1324.26 168.057C1324.53 168.057 1324.76 168.005 1324.96 167.901C1325.16 167.788 1325.32 167.632 1325.43 167.433C1325.54 167.225 1325.6 166.986 1325.6 166.718V163.078H1327V169.058H1325.6V168.135C1325.41 168.481 1325.16 168.746 1324.86 168.928C1324.56 169.101 1324.21 169.188 1323.79 169.188C1323.12 169.188 1322.61 168.98 1322.24 168.564C1321.89 168.148 1321.71 167.584 1321.71 166.874V163.078H1323.15V166.718ZM1328.79 158.918H1330.2V169.058H1328.79V158.918ZM1331.99 158.918H1333.4V169.058H1331.99V158.918ZM1340.03 166.068C1340.03 166.449 1340.11 166.783 1340.27 167.069C1340.44 167.346 1340.66 167.567 1340.94 167.732C1341.22 167.896 1341.54 167.979 1341.89 167.979C1342.17 167.979 1342.44 167.935 1342.7 167.849C1342.96 167.762 1343.19 167.641 1343.39 167.485C1343.59 167.329 1343.74 167.155 1343.84 166.965V168.512C1343.63 168.72 1343.35 168.884 1342.99 169.006C1342.64 169.127 1342.25 169.188 1341.82 169.188C1341.21 169.188 1340.65 169.058 1340.16 168.798C1339.67 168.529 1339.29 168.161 1339 167.693C1338.72 167.216 1338.58 166.674 1338.58 166.068C1338.58 165.452 1338.72 164.911 1339 164.443C1339.29 163.975 1339.67 163.611 1340.16 163.351C1340.65 163.082 1341.21 162.948 1341.82 162.948C1342.25 162.948 1342.64 163.008 1342.99 163.13C1343.35 163.251 1343.63 163.416 1343.84 163.624V165.171C1343.74 164.971 1343.59 164.798 1343.38 164.651C1343.18 164.495 1342.95 164.373 1342.69 164.287C1342.43 164.2 1342.16 164.157 1341.89 164.157C1341.54 164.157 1341.22 164.239 1340.94 164.404C1340.66 164.568 1340.44 164.794 1340.27 165.08C1340.11 165.366 1340.03 165.695 1340.03 166.068ZM1350.68 163.078L1346.78 171.918H1345.28L1346.84 168.356L1344.44 163.078H1346.05L1347.96 167.81L1347.3 167.771L1349.17 163.078H1350.68ZM1352.26 166.068C1352.26 166.449 1352.35 166.783 1352.51 167.069C1352.68 167.346 1352.9 167.567 1353.17 167.732C1353.46 167.896 1353.78 167.979 1354.12 167.979C1354.41 167.979 1354.68 167.935 1354.94 167.849C1355.2 167.762 1355.43 167.641 1355.63 167.485C1355.83 167.329 1355.98 167.155 1356.07 166.965V168.512C1355.87 168.72 1355.58 168.884 1355.23 169.006C1354.87 169.127 1354.48 169.188 1354.06 169.188C1353.44 169.188 1352.89 169.058 1352.39 168.798C1351.91 168.529 1351.52 168.161 1351.24 167.693C1350.96 167.216 1350.82 166.674 1350.82 166.068C1350.82 165.452 1350.96 164.911 1351.24 164.443C1351.52 163.975 1351.91 163.611 1352.39 163.351C1352.89 163.082 1353.44 162.948 1354.06 162.948C1354.48 162.948 1354.87 163.008 1355.23 163.13C1355.58 163.251 1355.87 163.416 1356.07 163.624V165.171C1355.98 164.971 1355.83 164.798 1355.62 164.651C1355.42 164.495 1355.19 164.373 1354.93 164.287C1354.67 164.2 1354.4 164.157 1354.12 164.157C1353.78 164.157 1353.46 164.239 1353.17 164.404C1352.9 164.568 1352.68 164.794 1352.51 165.08C1352.35 165.366 1352.26 165.695 1352.26 166.068ZM1357.63 158.918H1359.03V169.058H1357.63V158.918ZM1363.42 169.188C1362.82 169.188 1362.28 169.058 1361.81 168.798C1361.35 168.538 1361 168.174 1360.75 167.706C1360.5 167.238 1360.37 166.692 1360.37 166.068C1360.37 165.435 1360.5 164.885 1360.75 164.417C1361.01 163.949 1361.37 163.589 1361.84 163.338C1362.31 163.078 1362.86 162.948 1363.49 162.948C1364.12 162.948 1364.66 163.069 1365.1 163.312C1365.54 163.554 1365.88 163.905 1366.12 164.365C1366.36 164.815 1366.48 165.361 1366.48 166.003C1366.48 166.072 1366.48 166.146 1366.47 166.224C1366.47 166.302 1366.46 166.358 1366.45 166.393H1361.2V165.431H1365.26L1364.83 166.029C1364.85 165.977 1364.88 165.907 1364.91 165.821C1364.94 165.725 1364.96 165.647 1364.96 165.587C1364.96 165.266 1364.89 164.989 1364.76 164.755C1364.64 164.521 1364.47 164.339 1364.24 164.209C1364.03 164.079 1363.77 164.014 1363.48 164.014C1363.12 164.014 1362.82 164.092 1362.57 164.248C1362.32 164.404 1362.12 164.629 1361.99 164.924C1361.86 165.218 1361.8 165.582 1361.79 166.016C1361.79 166.449 1361.85 166.817 1361.98 167.121C1362.11 167.415 1362.3 167.641 1362.55 167.797C1362.81 167.953 1363.13 168.031 1363.49 168.031C1363.87 168.031 1364.2 167.953 1364.49 167.797C1364.78 167.641 1365.02 167.402 1365.21 167.082L1366.41 167.576C1366.1 168.113 1365.7 168.516 1365.21 168.785C1364.71 169.053 1364.12 169.188 1363.42 169.188ZM1376.22 158.918H1377.63V169.058H1376.22V158.918ZM1371.26 166.068C1371.26 165.409 1371.4 164.85 1371.67 164.391C1371.93 163.923 1372.29 163.567 1372.73 163.325C1373.18 163.073 1373.66 162.948 1374.17 162.948C1374.68 162.948 1375.11 163.073 1375.49 163.325C1375.87 163.576 1376.17 163.936 1376.38 164.404C1376.61 164.863 1376.72 165.418 1376.72 166.068C1376.72 166.709 1376.61 167.264 1376.38 167.732C1376.17 168.2 1375.87 168.559 1375.49 168.811C1375.11 169.062 1374.68 169.188 1374.17 169.188C1373.66 169.188 1373.18 169.066 1372.73 168.824C1372.29 168.572 1371.93 168.213 1371.67 167.745C1371.4 167.277 1371.26 166.718 1371.26 166.068ZM1372.72 166.068C1372.72 166.466 1372.8 166.809 1372.97 167.095C1373.13 167.381 1373.35 167.597 1373.62 167.745C1373.89 167.892 1374.19 167.966 1374.51 167.966C1374.78 167.966 1375.05 167.892 1375.31 167.745C1375.57 167.597 1375.79 167.385 1375.96 167.108C1376.13 166.822 1376.22 166.475 1376.22 166.068C1376.22 165.66 1376.13 165.318 1375.96 165.041C1375.79 164.755 1375.57 164.538 1375.31 164.391C1375.05 164.243 1374.78 164.17 1374.51 164.17C1374.19 164.17 1373.89 164.243 1373.62 164.391C1373.35 164.538 1373.13 164.755 1372.97 165.041C1372.8 165.327 1372.72 165.669 1372.72 166.068ZM1381.97 169.188C1381.37 169.188 1380.83 169.058 1380.36 168.798C1379.9 168.538 1379.55 168.174 1379.29 167.706C1379.04 167.238 1378.92 166.692 1378.92 166.068C1378.92 165.435 1379.04 164.885 1379.29 164.417C1379.55 163.949 1379.92 163.589 1380.39 163.338C1380.85 163.078 1381.41 162.948 1382.04 162.948C1382.67 162.948 1383.21 163.069 1383.65 163.312C1384.09 163.554 1384.43 163.905 1384.66 164.365C1384.91 164.815 1385.03 165.361 1385.03 166.003C1385.03 166.072 1385.02 166.146 1385.01 166.224C1385.01 166.302 1385.01 166.358 1385 166.393H1379.75V165.431H1383.81L1383.38 166.029C1383.4 165.977 1383.43 165.907 1383.45 165.821C1383.49 165.725 1383.51 165.647 1383.51 165.587C1383.51 165.266 1383.44 164.989 1383.31 164.755C1383.19 164.521 1383.02 164.339 1382.79 164.209C1382.58 164.079 1382.32 164.014 1382.02 164.014C1381.67 164.014 1381.37 164.092 1381.11 164.248C1380.86 164.404 1380.67 164.629 1380.54 164.924C1380.41 165.218 1380.34 165.582 1380.33 166.016C1380.33 166.449 1380.4 166.817 1380.53 167.121C1380.66 167.415 1380.85 167.641 1381.1 167.797C1381.36 167.953 1381.67 168.031 1382.04 168.031C1382.42 168.031 1382.75 167.953 1383.04 167.797C1383.32 167.641 1383.56 167.402 1383.75 167.082L1384.96 167.576C1384.65 168.113 1384.25 168.516 1383.75 168.785C1383.26 169.053 1382.67 169.188 1381.97 169.188ZM1385.27 163.078H1386.8L1388.36 166.939L1389.92 163.078H1391.47L1388.36 169.604L1385.27 163.078ZM1394.76 169.188C1394.15 169.188 1393.61 169.058 1393.15 168.798C1392.69 168.538 1392.33 168.174 1392.08 167.706C1391.83 167.238 1391.7 166.692 1391.7 166.068C1391.7 165.435 1391.83 164.885 1392.08 164.417C1392.34 163.949 1392.7 163.589 1393.17 163.338C1393.64 163.078 1394.19 162.948 1394.82 162.948C1395.45 162.948 1395.99 163.069 1396.43 163.312C1396.88 163.554 1397.21 163.905 1397.45 164.365C1397.69 164.815 1397.81 165.361 1397.81 166.003C1397.81 166.072 1397.81 166.146 1397.8 166.224C1397.8 166.302 1397.79 166.358 1397.79 166.393H1392.53V165.431H1396.59L1396.16 166.029C1396.19 165.977 1396.21 165.907 1396.24 165.821C1396.27 165.725 1396.29 165.647 1396.29 165.587C1396.29 165.266 1396.23 164.989 1396.1 164.755C1395.97 164.521 1395.8 164.339 1395.58 164.209C1395.36 164.079 1395.1 164.014 1394.81 164.014C1394.45 164.014 1394.15 164.092 1393.9 164.248C1393.65 164.404 1393.46 164.629 1393.33 164.924C1393.2 165.218 1393.13 165.582 1393.12 166.016C1393.12 166.449 1393.18 166.817 1393.31 167.121C1393.44 167.415 1393.63 167.641 1393.89 167.797C1394.15 167.953 1394.46 168.031 1394.82 168.031C1395.2 168.031 1395.54 167.953 1395.82 167.797C1396.11 167.641 1396.35 167.402 1396.54 167.082L1397.75 167.576C1397.44 168.113 1397.03 168.516 1396.54 168.785C1396.04 169.053 1395.45 169.188 1394.76 169.188ZM1399.15 158.918H1400.56V169.058H1399.15V158.918ZM1401.9 166.068C1401.9 165.452 1402.04 164.911 1402.31 164.443C1402.6 163.975 1402.98 163.611 1403.47 163.351C1403.95 163.082 1404.51 162.948 1405.12 162.948C1405.74 162.948 1406.28 163.082 1406.76 163.351C1407.24 163.611 1407.63 163.975 1407.92 164.443C1408.2 164.911 1408.34 165.452 1408.34 166.068C1408.34 166.674 1408.2 167.216 1407.92 167.693C1407.63 168.161 1407.24 168.529 1406.76 168.798C1406.28 169.058 1405.74 169.188 1405.12 169.188C1404.51 169.188 1403.95 169.058 1403.47 168.798C1402.98 168.529 1402.6 168.161 1402.31 167.693C1402.04 167.216 1401.9 166.674 1401.9 166.068ZM1403.34 166.068C1403.34 166.44 1403.42 166.77 1403.57 167.056C1403.73 167.333 1403.94 167.554 1404.21 167.719C1404.48 167.875 1404.78 167.953 1405.12 167.953C1405.45 167.953 1405.75 167.875 1406.02 167.719C1406.29 167.554 1406.51 167.333 1406.67 167.056C1406.82 166.77 1406.9 166.44 1406.9 166.068C1406.9 165.695 1406.82 165.366 1406.67 165.08C1406.51 164.794 1406.29 164.573 1406.02 164.417C1405.75 164.261 1405.45 164.183 1405.12 164.183C1404.78 164.183 1404.48 164.261 1404.21 164.417C1403.94 164.573 1403.73 164.794 1403.57 165.08C1403.42 165.366 1403.34 165.695 1403.34 166.068ZM1411.04 171.918H1409.62V163.078H1411.04V171.918ZM1415.99 166.068C1415.99 166.726 1415.86 167.294 1415.59 167.771C1415.32 168.239 1414.97 168.598 1414.53 168.85C1414.08 169.092 1413.6 169.214 1413.08 169.214C1412.57 169.214 1412.12 169.088 1411.74 168.837C1411.37 168.577 1411.08 168.213 1410.87 167.745C1410.67 167.268 1410.57 166.709 1410.57 166.068C1410.57 165.418 1410.67 164.859 1410.87 164.391C1411.08 163.923 1411.37 163.563 1411.74 163.312C1412.12 163.052 1412.57 162.922 1413.08 162.922C1413.6 162.922 1414.08 163.047 1414.53 163.299C1414.97 163.541 1415.32 163.897 1415.59 164.365C1415.86 164.833 1415.99 165.4 1415.99 166.068ZM1414.54 166.068C1414.54 165.669 1414.46 165.331 1414.29 165.054C1414.13 164.768 1413.91 164.555 1413.63 164.417C1413.36 164.269 1413.06 164.196 1412.73 164.196C1412.46 164.196 1412.2 164.269 1411.94 164.417C1411.68 164.555 1411.46 164.763 1411.29 165.041C1411.12 165.318 1411.04 165.66 1411.04 166.068C1411.04 166.475 1411.12 166.817 1411.29 167.095C1411.46 167.372 1411.68 167.584 1411.94 167.732C1412.2 167.87 1412.46 167.94 1412.73 167.94C1413.06 167.94 1413.36 167.87 1413.63 167.732C1413.91 167.584 1414.13 167.372 1414.29 167.095C1414.46 166.809 1414.54 166.466 1414.54 166.068ZM1425.89 165.262V169.058H1424.48V165.418C1424.48 164.967 1424.4 164.633 1424.23 164.417C1424.08 164.191 1423.83 164.079 1423.48 164.079C1423.25 164.079 1423.04 164.131 1422.86 164.235C1422.68 164.339 1422.54 164.49 1422.44 164.69C1422.35 164.889 1422.3 165.132 1422.3 165.418V169.058H1420.89V165.418C1420.89 164.967 1420.81 164.633 1420.65 164.417C1420.49 164.191 1420.24 164.079 1419.89 164.079C1419.65 164.079 1419.44 164.131 1419.26 164.235C1419.08 164.339 1418.95 164.49 1418.85 164.69C1418.76 164.889 1418.71 165.132 1418.71 165.418V169.058H1417.33V163.078H1418.71V163.949C1418.88 163.619 1419.11 163.372 1419.39 163.208C1419.67 163.034 1420.01 162.948 1420.39 162.948C1420.83 162.948 1421.19 163.039 1421.48 163.221C1421.77 163.403 1421.99 163.667 1422.12 164.014C1422.32 163.667 1422.58 163.403 1422.9 163.221C1423.22 163.039 1423.58 162.948 1423.99 162.948C1424.41 162.948 1424.76 163.039 1425.04 163.221C1425.33 163.394 1425.54 163.654 1425.68 164.001C1425.82 164.347 1425.89 164.768 1425.89 165.262ZM1430.28 169.188C1429.67 169.188 1429.13 169.058 1428.67 168.798C1428.21 168.538 1427.85 168.174 1427.6 167.706C1427.35 167.238 1427.22 166.692 1427.22 166.068C1427.22 165.435 1427.35 164.885 1427.6 164.417C1427.86 163.949 1428.22 163.589 1428.69 163.338C1429.16 163.078 1429.71 162.948 1430.34 162.948C1430.98 162.948 1431.51 163.069 1431.96 163.312C1432.4 163.554 1432.74 163.905 1432.97 164.365C1433.21 164.815 1433.33 165.361 1433.33 166.003C1433.33 166.072 1433.33 166.146 1433.32 166.224C1433.32 166.302 1433.32 166.358 1433.31 166.393H1428.06V165.431H1432.11L1431.68 166.029C1431.71 165.977 1431.73 165.907 1431.76 165.821C1431.8 165.725 1431.81 165.647 1431.81 165.587C1431.81 165.266 1431.75 164.989 1431.62 164.755C1431.5 164.521 1431.32 164.339 1431.1 164.209C1430.88 164.079 1430.63 164.014 1430.33 164.014C1429.98 164.014 1429.67 164.092 1429.42 164.248C1429.17 164.404 1428.98 164.629 1428.85 164.924C1428.72 165.218 1428.65 165.582 1428.64 166.016C1428.64 166.449 1428.71 166.817 1428.84 167.121C1428.97 167.415 1429.16 167.641 1429.41 167.797C1429.67 167.953 1429.98 168.031 1430.34 168.031C1430.72 168.031 1431.06 167.953 1431.34 167.797C1431.63 167.641 1431.87 167.402 1432.06 167.082L1433.27 167.576C1432.96 168.113 1432.55 168.516 1432.06 168.785C1431.57 169.053 1430.97 169.188 1430.28 169.188ZM1438.52 165.418C1438.52 164.976 1438.43 164.642 1438.25 164.417C1438.07 164.191 1437.78 164.079 1437.4 164.079C1437.14 164.079 1436.91 164.135 1436.71 164.248C1436.52 164.352 1436.36 164.508 1436.25 164.716C1436.13 164.915 1436.08 165.149 1436.08 165.418V169.058H1434.67V163.078H1436.08V164.001C1436.27 163.645 1436.51 163.381 1436.81 163.208C1437.11 163.034 1437.47 162.948 1437.88 162.948C1438.56 162.948 1439.08 163.156 1439.43 163.572C1439.79 163.979 1439.96 164.542 1439.96 165.262V169.058H1438.52V165.418ZM1440.93 163.078H1444.32V164.313H1440.93V163.078ZM1441.93 160.998H1443.32V169.058H1441.93V160.998ZM1449.46 167.095C1449.65 167.303 1449.84 167.485 1450.03 167.641C1450.23 167.788 1450.43 167.901 1450.63 167.979C1450.83 168.048 1451.03 168.083 1451.23 168.083C1451.48 168.083 1451.67 168.026 1451.81 167.914C1451.96 167.801 1452.03 167.645 1452.03 167.446C1452.03 167.272 1451.98 167.125 1451.86 167.004C1451.75 166.874 1451.59 166.765 1451.39 166.679C1451.2 166.583 1450.96 166.488 1450.69 166.393C1450.42 166.289 1450.16 166.167 1449.89 166.029C1449.63 165.881 1449.41 165.691 1449.24 165.457C1449.07 165.223 1448.99 164.928 1448.99 164.573C1448.99 164.209 1449.08 163.905 1449.26 163.663C1449.45 163.42 1449.7 163.242 1450.02 163.13C1450.34 163.008 1450.68 162.948 1451.04 162.948C1451.37 162.948 1451.68 162.995 1451.97 163.091C1452.26 163.186 1452.53 163.312 1452.76 163.468C1452.99 163.624 1453.19 163.801 1453.36 164.001L1452.58 164.833C1452.38 164.599 1452.14 164.408 1451.86 164.261C1451.59 164.113 1451.3 164.04 1451 164.04C1450.81 164.04 1450.64 164.083 1450.51 164.17C1450.38 164.256 1450.32 164.382 1450.32 164.547C1450.32 164.685 1450.37 164.811 1450.48 164.924C1450.61 165.028 1450.76 165.123 1450.95 165.21C1451.15 165.296 1451.37 165.387 1451.62 165.483C1451.94 165.613 1452.25 165.756 1452.53 165.912C1452.8 166.068 1453.02 166.258 1453.19 166.484C1453.36 166.709 1453.45 167.004 1453.45 167.368C1453.45 167.931 1453.25 168.386 1452.86 168.733C1452.48 169.071 1451.96 169.24 1451.3 169.24C1450.9 169.24 1450.52 169.179 1450.17 169.058C1449.83 168.928 1449.54 168.763 1449.28 168.564C1449.02 168.356 1448.81 168.139 1448.64 167.914L1449.46 167.095ZM1453.86 163.078H1457.26V164.313H1453.86V163.078ZM1454.86 160.998H1456.25V169.058H1454.86V160.998ZM1459.67 166.718C1459.67 167.142 1459.76 167.472 1459.94 167.706C1460.12 167.94 1460.4 168.057 1460.77 168.057C1461.04 168.057 1461.27 168.005 1461.47 167.901C1461.67 167.788 1461.83 167.632 1461.94 167.433C1462.05 167.225 1462.11 166.986 1462.11 166.718V163.078H1463.51V169.058H1462.11V168.135C1461.92 168.481 1461.67 168.746 1461.37 168.928C1461.07 169.101 1460.72 169.188 1460.3 169.188C1459.64 169.188 1459.12 168.98 1458.76 168.564C1458.4 168.148 1458.22 167.584 1458.22 166.874V163.078H1459.67V166.718ZM1469.81 158.918H1471.22V169.058H1469.81V158.918ZM1464.85 166.068C1464.85 165.409 1464.99 164.85 1465.26 164.391C1465.52 163.923 1465.88 163.567 1466.32 163.325C1466.77 163.073 1467.25 162.948 1467.76 162.948C1468.27 162.948 1468.7 163.073 1469.08 163.325C1469.46 163.576 1469.76 163.936 1469.97 164.404C1470.2 164.863 1470.31 165.418 1470.31 166.068C1470.31 166.709 1470.2 167.264 1469.97 167.732C1469.76 168.2 1469.46 168.559 1469.08 168.811C1468.7 169.062 1468.27 169.188 1467.76 169.188C1467.25 169.188 1466.77 169.066 1466.32 168.824C1465.88 168.572 1465.52 168.213 1465.26 167.745C1464.99 167.277 1464.85 166.718 1464.85 166.068ZM1466.31 166.068C1466.31 166.466 1466.39 166.809 1466.56 167.095C1466.72 167.381 1466.94 167.597 1467.21 167.745C1467.48 167.892 1467.78 167.966 1468.1 167.966C1468.37 167.966 1468.64 167.892 1468.9 167.745C1469.16 167.597 1469.38 167.385 1469.55 167.108C1469.72 166.822 1469.81 166.475 1469.81 166.068C1469.81 165.66 1469.72 165.318 1469.55 165.041C1469.38 164.755 1469.16 164.538 1468.9 164.391C1468.64 164.243 1468.37 164.17 1468.1 164.17C1467.78 164.17 1467.48 164.243 1467.21 164.391C1466.94 164.538 1466.72 164.755 1466.56 165.041C1466.39 165.327 1466.31 165.669 1466.31 166.068ZM1472.91 160.699C1472.91 160.456 1473 160.252 1473.17 160.088C1473.35 159.923 1473.56 159.841 1473.79 159.841C1474.05 159.841 1474.25 159.923 1474.42 160.088C1474.59 160.252 1474.68 160.456 1474.68 160.699C1474.68 160.933 1474.59 161.136 1474.42 161.31C1474.25 161.474 1474.05 161.557 1473.79 161.557C1473.56 161.557 1473.35 161.474 1473.17 161.31C1473 161.136 1472.91 160.933 1472.91 160.699ZM1473.11 163.078H1474.48V169.058H1473.11V163.078ZM1475.96 166.068C1475.96 165.452 1476.1 164.911 1476.38 164.443C1476.66 163.975 1477.05 163.611 1477.53 163.351C1478.02 163.082 1478.57 162.948 1479.18 162.948C1479.8 162.948 1480.35 163.082 1480.82 163.351C1481.31 163.611 1481.69 163.975 1481.98 164.443C1482.27 164.911 1482.41 165.452 1482.41 166.068C1482.41 166.674 1482.27 167.216 1481.98 167.693C1481.69 168.161 1481.31 168.529 1480.82 168.798C1480.35 169.058 1479.8 169.188 1479.18 169.188C1478.57 169.188 1478.02 169.058 1477.53 168.798C1477.05 168.529 1476.66 168.161 1476.38 167.693C1476.1 167.216 1475.96 166.674 1475.96 166.068ZM1477.4 166.068C1477.4 166.44 1477.48 166.77 1477.64 167.056C1477.79 167.333 1478.01 167.554 1478.27 167.719C1478.54 167.875 1478.85 167.953 1479.18 167.953C1479.51 167.953 1479.81 167.875 1480.08 167.719C1480.36 167.554 1480.58 167.333 1480.73 167.056C1480.89 166.77 1480.97 166.44 1480.97 166.068C1480.97 165.695 1480.89 165.366 1480.73 165.08C1480.58 164.794 1480.36 164.573 1480.08 164.417C1479.81 164.261 1479.51 164.183 1479.18 164.183C1478.85 164.183 1478.54 164.261 1478.27 164.417C1478.01 164.573 1477.79 164.794 1477.64 165.08C1477.48 165.366 1477.4 165.695 1477.4 166.068Z" fill="white"/>
<path d="M143.852 70.5568C117.295 85.3568 38.8971 101.723 3.01782 108.057V197.558L1521.01 201.058V57.5576L1421.42 60.0576H1378.17C1371.73 60.0576 1340.27 57.3909 1325.35 56.0576L1281.59 41.0576C1253.02 29.8576 1227.77 27.7243 1218.72 28.0576C1191.39 19.0575 1131.91 0.857129 1112.59 0.057129C1093.28 -0.742871 1050.56 7.05713 1031.61 11.0571L987.853 15.5571L944.094 20.5571C908.382 22.8905 835.148 27.5571 827.905 27.5571C820.662 27.5571 790.685 36.8905 776.601 41.5571L732.842 44.5571C717.25 51.0571 576.918 70.0571 542.715 75.0571C515.353 79.0571 430.719 67.7236 391.821 61.5568C263.059 27.1568 172.857 53.2235 143.852 70.5568Z" fill="#891A11"/>
<path d="M923.15 52.4391C950.908 24.1118 835.675 40.6361 774.589 52.4391C779.965 41.4677 872.815 29.9962 879.657 29.9962C886.499 29.9962 965.666 22.5154 981.304 22.5154C993.814 22.5154 1062.43 11.5436 1095.17 6.05762C1109.01 6.3901 1139.25 10.1471 1149.41 22.5154C1162.12 37.9758 1170.43 41.9655 1174.82 42.4643C1179.22 42.963 1257.41 67.8991 1268.65 67.8991C1277.64 67.8991 1313.12 72.5538 1329.74 74.8811H1367.86C1376.65 74.8811 1396.2 81.3645 1399.13 82.362C1402.06 83.3594 1417.21 100.815 1426.01 100.815C1433.05 100.815 1469.01 110.457 1486.12 115.278C1483.51 127.081 1479.86 151.884 1486.12 156.671C1492.37 161.459 1495.89 188.257 1496.87 201.058H1464.13L1299.93 167.145C1252.85 159.165 1146.97 139.715 1100.05 125.751C1053.14 111.787 994.173 108.96 970.553 109.293C951.168 110.124 903.114 109.692 865.974 101.313C819.549 90.8402 888.453 87.8483 923.15 52.4391Z" fill="#761A13" fill-opacity="0.7"/>
<path d="M494.222 79.0576L380.253 59.0576C458.258 75.7243 501.313 139.058 525.627 139.058C549.94 139.058 657.831 160.169 678.092 160.169C694.301 160.169 778.385 179.428 818.401 189.058H910.082H1077.24H1141.06L1169.93 174.058L1145.11 169.613L1028.1 160.169C980.828 156.095 884.655 147.947 878.171 147.947C871.687 147.947 798.477 137.206 762.682 131.835L657.831 113.502L564.63 101.28L494.222 79.0576Z" fill="#5C1712" fill-opacity="0.18"/>
<path d="M91.0394 154.557C74.5417 158.557 28.5022 156.224 7.54471 154.557H3.52087V111.558H14.5864C21.8293 111.558 90.0335 95.2243 123.23 87.0576C136.911 84.6576 162.127 70.7242 173.025 64.0574C230.164 41.2574 315.872 52.2241 351.583 60.5574C274.124 48.0574 260.041 71.5574 216.784 81.5574C182.179 89.5574 168.834 102.557 166.486 108.057C183.755 104.724 221.512 98.0574 234.389 98.0574C250.484 98.0574 285.693 111.057 260.041 119.557C239.519 126.357 234.389 140.724 234.389 147.057C239.586 149.557 251.993 154.557 260.041 154.557H311.848L336.494 160.057C327.105 160.057 305.309 161.357 293.237 166.557C278.148 173.057 228.353 166.557 198.174 166.557C167.995 166.557 111.662 149.557 91.0394 154.557Z" fill="#5C1712" fill-opacity="0.24"/>
<path d="M504.992 153.058C439.001 119.058 346.721 88.2247 308.83 77.0581C375.626 37.0581 472.801 104.058 513.04 142.558L547.745 153.058C569.541 159.558 626.11 173.158 678.017 175.558C729.925 177.958 760.674 192.558 769.56 199.558H678.017C647.838 198.225 570.983 187.058 504.992 153.058Z" fill="#AB2419" fill-opacity="0.23"/>
<path d="M1164.9 36.0578C1160.48 35.2578 1138.58 20.0578 1128.18 12.5578C1110.24 0.0577998 1155.85 12.5578 1171.94 19.5578C1188.04 26.5578 1252.92 43.0578 1276.06 47.0578C1299.2 51.0578 1344.97 66.5578 1366.6 66.5578C1388.23 66.5578 1447.58 76.0578 1458.64 76.0578C1467.49 76.0578 1503.58 92.0578 1520.51 100.058V200.058H1494.86C1488.82 182.224 1476.55 144.158 1475.74 134.558C1474.74 122.558 1447.07 117.558 1416.39 95.0578C1391.85 77.0578 1340.44 74.8911 1317.81 76.0578C1303.56 72.8911 1270.63 66.5578 1252.92 66.5578C1230.79 66.5578 1170.43 37.0578 1164.9 36.0578Z" fill="#A22117"/>
<path d="M157.339 94.7317C175.992 72.3832 83.4757 108.866 36.6953 117.818C16.4991 124.87 -15.4821 138.456 18.1623 136.388C60.2178 133.804 138.687 117.08 157.339 94.7317Z" fill="white" fill-opacity="0.03"/>
</svg>
