<svg width="1490" height="274" viewBox="0 0 1490 274" fill="none" xmlns="http://www.w3.org/2000/svg">
<path d="M858.015 36.5027C835.436 32.0707 836.064 12.496 839.199 3.2627H1036.77C1066.87 3.2627 1087.57 19.8827 1093.22 29.116C1117.3 57.1854 1110.78 96.2117 1104.51 112.216C1090.96 141.763 1052.45 151.612 1034.89 152.843L1132.73 269.183H1083.81L1014.19 189.776L953.977 117.756H1027.36C1059.35 117.756 1072.52 101.136 1074.4 91.9027C1083.81 56.816 1057.47 38.3494 1044.29 36.5027H858.015Z" fill="#FF0000"/>
<path d="M839.199 258.102V152.842C864.789 146.933 873.696 158.998 874.95 165.769V272.876C850.865 275.83 841.081 264.258 839.199 258.102Z" fill="#FF0000"/>
<path d="M1223.05 106.676C1239.61 150.996 1293.92 155.92 1319.01 152.843V119.603C1298.94 120.834 1258.42 115.171 1256.92 82.6693C1255.41 50.168 1277.61 39.5803 1288.9 38.3493H1467.66C1487.23 23.576 1483.34 7.57158 1478.95 1.41602H1277.61C1211.76 23.576 1210.5 84.516 1223.05 106.676Z" fill="#FF0000"/>
<path d="M1409.33 154.689C1391.26 151.735 1389.26 130.067 1390.51 119.603L1431.91 121.449C1442.44 124.404 1455.11 132.529 1460.13 136.223C1496.26 161.337 1491.49 208.243 1484.59 228.556C1468.03 261.057 1441.31 270.414 1430.03 271.029H1221.17C1219.66 244.437 1230.57 237.789 1236.22 237.789L1426.26 235.943C1451.85 227.079 1455.74 202.703 1454.49 191.623C1452.98 160.599 1423.75 154.074 1409.33 154.689Z" fill="#FF0000"/>
<path d="M579.537 1.41602C570.505 2.89335 465.387 178.08 413.955 265.489L410.191 271.029H413.955H453.468L596.471 42.0427L699.96 237.789H592.708C582.171 240.744 582.047 261.18 583.3 271.029H760.171L615.287 1.41602H579.537Z" fill="#FF0000"/>
<path d="M143.003 184.236L1.88161 19.8829V3.26286H30.1058L163.7 141.763C203.841 98.0585 286.381 9.17219 295.413 3.26286C304.445 -2.64649 315.484 0.800622 319.874 3.26286V271.03C297.295 275.462 286.632 263.027 284.123 256.256V60.5095C251.509 99.2895 184.398 178.327 176.872 184.236C169.345 190.146 151.156 186.699 143.003 184.236Z" fill="#FF0000"/>
<path d="M0 258.103V154.69C16.5582 148.78 33.2418 157.152 39.5139 162.076V269.183C18.4398 273.615 4.39044 263.643 0 258.103Z" fill="#FF0000"/>
</svg>
