<svg width="1512" height="454" viewBox="0 0 1512 454" fill="none" xmlns="http://www.w3.org/2000/svg">
<path d="M1388.89 358.15H1392.32V359.385H1388.89V358.15ZM1392.16 355.498C1392.08 355.359 1391.98 355.268 1391.86 355.225C1391.76 355.182 1391.65 355.16 1391.54 355.16C1391.41 355.16 1391.3 355.195 1391.2 355.264C1391.11 355.333 1391.05 355.446 1390.99 355.602C1390.94 355.758 1390.92 355.962 1390.92 356.213V364.13H1389.54V355.94C1389.54 355.472 1389.61 355.086 1389.76 354.783C1389.91 354.471 1390.14 354.237 1390.42 354.081C1390.71 353.916 1391.06 353.834 1391.47 353.834C1391.71 353.834 1391.91 353.864 1392.09 353.925C1392.26 353.986 1392.41 354.059 1392.53 354.146C1392.66 354.233 1392.76 354.319 1392.83 354.406L1392.16 355.498ZM1394.84 361.79C1394.84 362.215 1394.93 362.544 1395.11 362.778C1395.29 363.012 1395.57 363.129 1395.94 363.129C1396.21 363.129 1396.44 363.077 1396.64 362.973C1396.84 362.86 1397 362.704 1397.11 362.505C1397.22 362.297 1397.28 362.059 1397.28 361.79V358.15H1398.68V364.13H1397.28V363.207C1397.09 363.554 1396.84 363.818 1396.54 364C1396.24 364.173 1395.89 364.26 1395.47 364.26C1394.81 364.26 1394.29 364.052 1393.93 363.636C1393.57 363.22 1393.39 362.657 1393.39 361.946V358.15H1394.84V361.79ZM1400.48 353.99H1401.88V364.13H1400.48V353.99ZM1403.68 353.99H1405.08V364.13H1403.68V353.99ZM1411.71 361.14C1411.71 361.521 1411.79 361.855 1411.96 362.141C1412.12 362.418 1412.34 362.639 1412.62 362.804C1412.9 362.969 1413.22 363.051 1413.57 363.051C1413.85 363.051 1414.13 363.008 1414.39 362.921C1414.65 362.834 1414.88 362.713 1415.08 362.557C1415.28 362.401 1415.42 362.228 1415.52 362.037V363.584C1415.31 363.792 1415.03 363.957 1414.67 364.078C1414.32 364.199 1413.93 364.26 1413.5 364.26C1412.89 364.26 1412.33 364.13 1411.84 363.87C1411.35 363.601 1410.97 363.233 1410.68 362.765C1410.4 362.288 1410.27 361.747 1410.27 361.14C1410.27 360.525 1410.4 359.983 1410.68 359.515C1410.97 359.047 1411.35 358.683 1411.84 358.423C1412.33 358.154 1412.89 358.02 1413.5 358.02C1413.93 358.02 1414.32 358.081 1414.67 358.202C1415.03 358.323 1415.31 358.488 1415.52 358.696V360.243C1415.42 360.044 1415.27 359.87 1415.06 359.723C1414.86 359.567 1414.63 359.446 1414.37 359.359C1414.11 359.272 1413.85 359.229 1413.57 359.229C1413.22 359.229 1412.9 359.311 1412.62 359.476C1412.34 359.641 1412.12 359.866 1411.96 360.152C1411.79 360.438 1411.71 360.767 1411.71 361.14ZM1422.36 358.15L1418.46 366.99H1416.97L1418.53 363.428L1416.12 358.15H1417.73L1419.64 362.882L1418.98 362.843L1420.85 358.15H1422.36ZM1423.95 361.14C1423.95 361.521 1424.03 361.855 1424.19 362.141C1424.36 362.418 1424.58 362.639 1424.86 362.804C1425.14 362.969 1425.46 363.051 1425.81 363.051C1426.09 363.051 1426.37 363.008 1426.63 362.921C1426.89 362.834 1427.11 362.713 1427.31 362.557C1427.51 362.401 1427.66 362.228 1427.76 362.037V363.584C1427.55 363.792 1427.27 363.957 1426.91 364.078C1426.56 364.199 1426.17 364.26 1425.74 364.26C1425.13 364.26 1424.57 364.13 1424.08 363.87C1423.59 363.601 1423.21 363.233 1422.92 362.765C1422.64 362.288 1422.5 361.747 1422.5 361.14C1422.5 360.525 1422.64 359.983 1422.92 359.515C1423.21 359.047 1423.59 358.683 1424.08 358.423C1424.57 358.154 1425.13 358.02 1425.74 358.02C1426.17 358.02 1426.56 358.081 1426.91 358.202C1427.27 358.323 1427.55 358.488 1427.76 358.696V360.243C1427.66 360.044 1427.51 359.87 1427.3 359.723C1427.1 359.567 1426.87 359.446 1426.61 359.359C1426.35 359.272 1426.08 359.229 1425.81 359.229C1425.46 359.229 1425.14 359.311 1424.86 359.476C1424.58 359.641 1424.36 359.866 1424.19 360.152C1424.03 360.438 1423.95 360.767 1423.95 361.14ZM1429.31 353.99H1430.71V364.13H1429.31V353.99ZM1435.11 364.26C1434.5 364.26 1433.96 364.13 1433.5 363.87C1433.04 363.61 1432.68 363.246 1432.43 362.778C1432.18 362.31 1432.05 361.764 1432.05 361.14C1432.05 360.507 1432.18 359.957 1432.43 359.489C1432.69 359.021 1433.05 358.661 1433.52 358.41C1433.99 358.15 1434.54 358.02 1435.17 358.02C1435.81 358.02 1436.34 358.141 1436.78 358.384C1437.23 358.627 1437.56 358.978 1437.8 359.437C1438.04 359.888 1438.16 360.434 1438.16 361.075C1438.16 361.144 1438.16 361.218 1438.15 361.296C1438.15 361.374 1438.15 361.43 1438.14 361.465H1432.88V360.503H1436.94L1436.51 361.101C1436.54 361.049 1436.56 360.98 1436.59 360.893C1436.62 360.798 1436.64 360.72 1436.64 360.659C1436.64 360.338 1436.58 360.061 1436.45 359.827C1436.33 359.593 1436.15 359.411 1435.93 359.281C1435.71 359.151 1435.45 359.086 1435.16 359.086C1434.8 359.086 1434.5 359.164 1434.25 359.32C1434 359.476 1433.81 359.701 1433.68 359.996C1433.55 360.291 1433.48 360.655 1433.47 361.088C1433.47 361.521 1433.53 361.89 1433.66 362.193C1433.79 362.488 1433.99 362.713 1434.24 362.869C1434.5 363.025 1434.81 363.103 1435.17 363.103C1435.55 363.103 1435.89 363.025 1436.17 362.869C1436.46 362.713 1436.7 362.475 1436.89 362.154L1438.1 362.648C1437.79 363.185 1437.38 363.588 1436.89 363.857C1436.39 364.126 1435.8 364.26 1435.11 364.26ZM1447.9 353.99H1449.31V364.13H1447.9V353.99ZM1442.94 361.14C1442.94 360.481 1443.08 359.922 1443.35 359.463C1443.62 358.995 1443.97 358.64 1444.41 358.397C1444.86 358.146 1445.35 358.02 1445.86 358.02C1446.36 358.02 1446.8 358.146 1447.17 358.397C1447.55 358.648 1447.85 359.008 1448.07 359.476C1448.29 359.935 1448.4 360.49 1448.4 361.14C1448.4 361.781 1448.29 362.336 1448.07 362.804C1447.85 363.272 1447.55 363.632 1447.17 363.883C1446.8 364.134 1446.36 364.26 1445.86 364.26C1445.35 364.26 1444.86 364.139 1444.41 363.896C1443.97 363.645 1443.62 363.285 1443.35 362.817C1443.08 362.349 1442.94 361.79 1442.94 361.14ZM1444.4 361.14C1444.4 361.539 1444.48 361.881 1444.65 362.167C1444.81 362.453 1445.03 362.67 1445.3 362.817C1445.58 362.964 1445.87 363.038 1446.19 363.038C1446.46 363.038 1446.73 362.964 1446.99 362.817C1447.26 362.67 1447.47 362.457 1447.64 362.18C1447.81 361.894 1447.9 361.547 1447.9 361.14C1447.9 360.733 1447.81 360.39 1447.64 360.113C1447.47 359.827 1447.26 359.61 1446.99 359.463C1446.73 359.316 1446.46 359.242 1446.19 359.242C1445.87 359.242 1445.58 359.316 1445.3 359.463C1445.03 359.61 1444.81 359.827 1444.65 360.113C1444.48 360.399 1444.4 360.741 1444.4 361.14ZM1453.66 364.26C1453.05 364.26 1452.51 364.13 1452.04 363.87C1451.58 363.61 1451.23 363.246 1450.98 362.778C1450.73 362.31 1450.6 361.764 1450.6 361.14C1450.6 360.507 1450.73 359.957 1450.98 359.489C1451.24 359.021 1451.6 358.661 1452.07 358.41C1452.54 358.15 1453.09 358.02 1453.72 358.02C1454.35 358.02 1454.89 358.141 1455.33 358.384C1455.77 358.627 1456.11 358.978 1456.35 359.437C1456.59 359.888 1456.71 360.434 1456.71 361.075C1456.71 361.144 1456.71 361.218 1456.7 361.296C1456.7 361.374 1456.69 361.43 1456.68 361.465H1451.43V360.503H1455.49L1455.06 361.101C1455.09 361.049 1455.11 360.98 1455.14 360.893C1455.17 360.798 1455.19 360.72 1455.19 360.659C1455.19 360.338 1455.12 360.061 1454.99 359.827C1454.87 359.593 1454.7 359.411 1454.47 359.281C1454.26 359.151 1454 359.086 1453.71 359.086C1453.35 359.086 1453.05 359.164 1452.8 359.32C1452.55 359.476 1452.36 359.701 1452.23 359.996C1452.1 360.291 1452.03 360.655 1452.02 361.088C1452.02 361.521 1452.08 361.89 1452.21 362.193C1452.34 362.488 1452.53 362.713 1452.78 362.869C1453.04 363.025 1453.36 363.103 1453.72 363.103C1454.1 363.103 1454.44 363.025 1454.72 362.869C1455.01 362.713 1455.25 362.475 1455.44 362.154L1456.65 362.648C1456.33 363.185 1455.93 363.588 1455.44 363.857C1454.94 364.126 1454.35 364.26 1453.66 364.26ZM1456.95 358.15H1458.48L1460.04 362.011L1461.6 358.15H1463.15L1460.04 364.676L1456.95 358.15ZM1466.44 364.26C1465.83 364.26 1465.3 364.13 1464.83 363.87C1464.37 363.61 1464.01 363.246 1463.76 362.778C1463.51 362.31 1463.38 361.764 1463.38 361.14C1463.38 360.507 1463.51 359.957 1463.76 359.489C1464.02 359.021 1464.39 358.661 1464.85 358.41C1465.32 358.15 1465.87 358.02 1466.5 358.02C1467.14 358.02 1467.67 358.141 1468.12 358.384C1468.56 358.627 1468.9 358.978 1469.13 359.437C1469.37 359.888 1469.49 360.434 1469.49 361.075C1469.49 361.144 1469.49 361.218 1469.48 361.296C1469.48 361.374 1469.48 361.43 1469.47 361.465H1464.22V360.503H1468.27L1467.84 361.101C1467.87 361.049 1467.9 360.98 1467.92 360.893C1467.96 360.798 1467.97 360.72 1467.97 360.659C1467.97 360.338 1467.91 360.061 1467.78 359.827C1467.66 359.593 1467.48 359.411 1467.26 359.281C1467.04 359.151 1466.79 359.086 1466.49 359.086C1466.14 359.086 1465.83 359.164 1465.58 359.32C1465.33 359.476 1465.14 359.701 1465.01 359.996C1464.88 360.291 1464.81 360.655 1464.8 361.088C1464.8 361.521 1464.87 361.89 1465 362.193C1465.13 362.488 1465.32 362.713 1465.57 362.869C1465.83 363.025 1466.14 363.103 1466.5 363.103C1466.89 363.103 1467.22 363.025 1467.51 362.869C1467.79 362.713 1468.03 362.475 1468.22 362.154L1469.43 362.648C1469.12 363.185 1468.71 363.588 1468.22 363.857C1467.73 364.126 1467.13 364.26 1466.44 364.26ZM1470.83 353.99H1472.24V364.13H1470.83V353.99ZM1473.58 361.14C1473.58 360.525 1473.72 359.983 1473.99 359.515C1474.28 359.047 1474.67 358.683 1475.15 358.423C1475.64 358.154 1476.19 358.02 1476.8 358.02C1477.42 358.02 1477.96 358.154 1478.44 358.423C1478.93 358.683 1479.31 359.047 1479.6 359.515C1479.88 359.983 1480.03 360.525 1480.03 361.14C1480.03 361.747 1479.88 362.288 1479.6 362.765C1479.31 363.233 1478.93 363.601 1478.44 363.87C1477.96 364.13 1477.42 364.26 1476.8 364.26C1476.19 364.26 1475.64 364.13 1475.15 363.87C1474.67 363.601 1474.28 363.233 1473.99 362.765C1473.72 362.288 1473.58 361.747 1473.58 361.14ZM1475.02 361.14C1475.02 361.513 1475.1 361.842 1475.26 362.128C1475.41 362.405 1475.62 362.626 1475.89 362.791C1476.16 362.947 1476.46 363.025 1476.8 363.025C1477.13 363.025 1477.43 362.947 1477.7 362.791C1477.98 362.626 1478.19 362.405 1478.35 362.128C1478.51 361.842 1478.58 361.513 1478.58 361.14C1478.58 360.767 1478.51 360.438 1478.35 360.152C1478.19 359.866 1477.98 359.645 1477.7 359.489C1477.43 359.333 1477.13 359.255 1476.8 359.255C1476.46 359.255 1476.16 359.333 1475.89 359.489C1475.62 359.645 1475.41 359.866 1475.26 360.152C1475.1 360.438 1475.02 360.767 1475.02 361.14ZM1482.72 366.99H1481.31V358.15H1482.72V366.99ZM1487.68 361.14C1487.68 361.799 1487.54 362.366 1487.27 362.843C1487.01 363.311 1486.65 363.671 1486.21 363.922C1485.77 364.165 1485.28 364.286 1484.76 364.286C1484.25 364.286 1483.81 364.16 1483.43 363.909C1483.05 363.649 1482.76 363.285 1482.55 362.817C1482.36 362.34 1482.26 361.781 1482.26 361.14C1482.26 360.49 1482.36 359.931 1482.55 359.463C1482.76 358.995 1483.05 358.635 1483.43 358.384C1483.81 358.124 1484.25 357.994 1484.76 357.994C1485.28 357.994 1485.77 358.12 1486.21 358.371C1486.65 358.614 1487.01 358.969 1487.27 359.437C1487.54 359.905 1487.68 360.473 1487.68 361.14ZM1486.22 361.14C1486.22 360.741 1486.14 360.403 1485.97 360.126C1485.81 359.84 1485.59 359.628 1485.31 359.489C1485.04 359.342 1484.74 359.268 1484.41 359.268C1484.15 359.268 1483.88 359.342 1483.62 359.489C1483.36 359.628 1483.14 359.836 1482.97 360.113C1482.81 360.39 1482.72 360.733 1482.72 361.14C1482.72 361.547 1482.81 361.89 1482.97 362.167C1483.14 362.444 1483.36 362.657 1483.62 362.804C1483.88 362.943 1484.15 363.012 1484.41 363.012C1484.74 363.012 1485.04 362.943 1485.31 362.804C1485.59 362.657 1485.81 362.444 1485.97 362.167C1486.14 361.881 1486.22 361.539 1486.22 361.14ZM1497.57 360.334V364.13H1496.16V360.49C1496.16 360.039 1496.08 359.706 1495.92 359.489C1495.76 359.264 1495.51 359.151 1495.16 359.151C1494.93 359.151 1494.72 359.203 1494.54 359.307C1494.37 359.411 1494.23 359.563 1494.12 359.762C1494.03 359.961 1493.98 360.204 1493.98 360.49V364.13H1492.58V360.49C1492.58 360.039 1492.49 359.706 1492.33 359.489C1492.17 359.264 1491.92 359.151 1491.58 359.151C1491.33 359.151 1491.12 359.203 1490.94 359.307C1490.76 359.411 1490.63 359.563 1490.54 359.762C1490.44 359.961 1490.39 360.204 1490.39 360.49V364.13H1489.01V358.15H1490.39V359.021C1490.57 358.692 1490.79 358.445 1491.07 358.28C1491.35 358.107 1491.69 358.02 1492.07 358.02C1492.51 358.02 1492.88 358.111 1493.16 358.293C1493.46 358.475 1493.67 358.739 1493.8 359.086C1494.01 358.739 1494.27 358.475 1494.58 358.293C1494.9 358.111 1495.26 358.02 1495.67 358.02C1496.09 358.02 1496.45 358.111 1496.72 358.293C1497.01 358.466 1497.22 358.726 1497.36 359.073C1497.5 359.42 1497.57 359.84 1497.57 360.334ZM1501.96 364.26C1501.35 364.26 1500.82 364.13 1500.35 363.87C1499.89 363.61 1499.53 363.246 1499.28 362.778C1499.03 362.31 1498.91 361.764 1498.91 361.14C1498.91 360.507 1499.03 359.957 1499.28 359.489C1499.54 359.021 1499.91 358.661 1500.37 358.41C1500.84 358.15 1501.39 358.02 1502.03 358.02C1502.66 358.02 1503.2 358.141 1503.64 358.384C1504.08 358.627 1504.42 358.978 1504.65 359.437C1504.89 359.888 1505.02 360.434 1505.02 361.075C1505.02 361.144 1505.01 361.218 1505 361.296C1505 361.374 1505 361.43 1504.99 361.465H1499.74V360.503H1503.79L1503.36 361.101C1503.39 361.049 1503.42 360.98 1503.44 360.893C1503.48 360.798 1503.49 360.72 1503.49 360.659C1503.49 360.338 1503.43 360.061 1503.3 359.827C1503.18 359.593 1503.01 359.411 1502.78 359.281C1502.56 359.151 1502.31 359.086 1502.01 359.086C1501.66 359.086 1501.35 359.164 1501.1 359.32C1500.85 359.476 1500.66 359.701 1500.53 359.996C1500.4 360.291 1500.33 360.655 1500.32 361.088C1500.32 361.521 1500.39 361.89 1500.52 362.193C1500.65 362.488 1500.84 362.713 1501.09 362.869C1501.35 363.025 1501.66 363.103 1502.03 363.103C1502.41 363.103 1502.74 363.025 1503.03 362.869C1503.31 362.713 1503.55 362.475 1503.74 362.154L1504.95 362.648C1504.64 363.185 1504.24 363.588 1503.74 363.857C1503.25 364.126 1502.65 364.26 1501.96 364.26ZM1510.2 360.49C1510.2 360.048 1510.11 359.714 1509.93 359.489C1509.75 359.264 1509.47 359.151 1509.09 359.151C1508.83 359.151 1508.6 359.207 1508.4 359.32C1508.2 359.424 1508.04 359.58 1507.93 359.788C1507.82 359.987 1507.76 360.221 1507.76 360.49V364.13H1506.36V358.15H1507.76V359.073C1507.95 358.718 1508.19 358.453 1508.49 358.28C1508.79 358.107 1509.15 358.02 1509.57 358.02C1510.24 358.02 1510.76 358.228 1511.11 358.644C1511.47 359.051 1511.65 359.615 1511.65 360.334V364.13H1510.2V360.49ZM1512.61 358.15H1516V359.385H1512.61V358.15ZM1513.61 356.07H1515V364.13H1513.61V356.07ZM1521.14 362.167C1521.33 362.375 1521.52 362.557 1521.71 362.713C1521.91 362.86 1522.11 362.973 1522.31 363.051C1522.51 363.12 1522.71 363.155 1522.91 363.155C1523.16 363.155 1523.35 363.099 1523.49 362.986C1523.64 362.873 1523.71 362.717 1523.71 362.518C1523.71 362.345 1523.66 362.197 1523.54 362.076C1523.43 361.946 1523.28 361.838 1523.08 361.751C1522.88 361.656 1522.64 361.56 1522.37 361.465C1522.11 361.361 1521.84 361.24 1521.57 361.101C1521.31 360.954 1521.09 360.763 1520.92 360.529C1520.75 360.295 1520.67 360 1520.67 359.645C1520.67 359.281 1520.76 358.978 1520.94 358.735C1521.14 358.492 1521.39 358.315 1521.7 358.202C1522.02 358.081 1522.36 358.02 1522.73 358.02C1523.06 358.02 1523.36 358.068 1523.65 358.163C1523.94 358.258 1524.21 358.384 1524.44 358.54C1524.68 358.696 1524.88 358.874 1525.04 359.073L1524.26 359.905C1524.06 359.671 1523.82 359.48 1523.54 359.333C1523.27 359.186 1522.98 359.112 1522.69 359.112C1522.49 359.112 1522.32 359.155 1522.19 359.242C1522.06 359.329 1522 359.454 1522 359.619C1522 359.758 1522.05 359.883 1522.17 359.996C1522.29 360.1 1522.44 360.195 1522.63 360.282C1522.83 360.369 1523.06 360.46 1523.3 360.555C1523.63 360.685 1523.93 360.828 1524.21 360.984C1524.49 361.14 1524.71 361.331 1524.87 361.556C1525.04 361.781 1525.13 362.076 1525.13 362.44C1525.13 363.003 1524.94 363.458 1524.55 363.805C1524.16 364.143 1523.64 364.312 1522.99 364.312C1522.58 364.312 1522.2 364.251 1521.85 364.13C1521.52 364 1521.22 363.835 1520.96 363.636C1520.71 363.428 1520.49 363.211 1520.32 362.986L1521.14 362.167ZM1525.54 358.15H1528.94V359.385H1525.54V358.15ZM1526.55 356.07H1527.94V364.13H1526.55V356.07ZM1531.35 361.79C1531.35 362.215 1531.44 362.544 1531.62 362.778C1531.8 363.012 1532.08 363.129 1532.45 363.129C1532.72 363.129 1532.96 363.077 1533.16 362.973C1533.36 362.86 1533.51 362.704 1533.62 362.505C1533.74 362.297 1533.79 362.059 1533.79 361.79V358.15H1535.2V364.13H1533.79V363.207C1533.6 363.554 1533.36 363.818 1533.05 364C1532.76 364.173 1532.4 364.26 1531.99 364.26C1531.32 364.26 1530.8 364.052 1530.44 363.636C1530.08 363.22 1529.91 362.657 1529.91 361.946V358.15H1531.35V361.79ZM1541.49 353.99H1542.9V364.13H1541.49V353.99ZM1536.53 361.14C1536.53 360.481 1536.67 359.922 1536.94 359.463C1537.21 358.995 1537.56 358.64 1538 358.397C1538.45 358.146 1538.94 358.02 1539.45 358.02C1539.95 358.02 1540.39 358.146 1540.76 358.397C1541.14 358.648 1541.44 359.008 1541.66 359.476C1541.88 359.935 1541.99 360.49 1541.99 361.14C1541.99 361.781 1541.88 362.336 1541.66 362.804C1541.44 363.272 1541.14 363.632 1540.76 363.883C1540.39 364.134 1539.95 364.26 1539.45 364.26C1538.94 364.26 1538.45 364.139 1538 363.896C1537.56 363.645 1537.21 363.285 1536.94 362.817C1536.67 362.349 1536.53 361.79 1536.53 361.14ZM1537.99 361.14C1537.99 361.539 1538.07 361.881 1538.24 362.167C1538.4 362.453 1538.62 362.67 1538.89 362.817C1539.17 362.964 1539.46 363.038 1539.78 363.038C1540.05 363.038 1540.32 362.964 1540.58 362.817C1540.85 362.67 1541.06 362.457 1541.23 362.18C1541.4 361.894 1541.49 361.547 1541.49 361.14C1541.49 360.733 1541.4 360.39 1541.23 360.113C1541.06 359.827 1540.85 359.61 1540.58 359.463C1540.32 359.316 1540.05 359.242 1539.78 359.242C1539.46 359.242 1539.17 359.316 1538.89 359.463C1538.62 359.61 1538.4 359.827 1538.24 360.113C1538.07 360.399 1537.99 360.741 1537.99 361.14ZM1544.59 355.771C1544.59 355.528 1544.68 355.325 1544.85 355.16C1545.04 354.995 1545.24 354.913 1545.48 354.913C1545.73 354.913 1545.94 354.995 1546.1 355.16C1546.27 355.325 1546.36 355.528 1546.36 355.771C1546.36 356.005 1546.27 356.209 1546.1 356.382C1545.94 356.547 1545.73 356.629 1545.48 356.629C1545.24 356.629 1545.04 356.547 1544.85 356.382C1544.68 356.209 1544.59 356.005 1544.59 355.771ZM1544.79 358.15H1546.17V364.13H1544.79V358.15ZM1547.64 361.14C1547.64 360.525 1547.78 359.983 1548.06 359.515C1548.35 359.047 1548.73 358.683 1549.22 358.423C1549.7 358.154 1550.25 358.02 1550.87 358.02C1551.48 358.02 1552.03 358.154 1552.51 358.423C1552.99 358.683 1553.38 359.047 1553.66 359.515C1553.95 359.983 1554.09 360.525 1554.09 361.14C1554.09 361.747 1553.95 362.288 1553.66 362.765C1553.38 363.233 1552.99 363.601 1552.51 363.87C1552.03 364.13 1551.48 364.26 1550.87 364.26C1550.25 364.26 1549.7 364.13 1549.22 363.87C1548.73 363.601 1548.35 363.233 1548.06 362.765C1547.78 362.288 1547.64 361.747 1547.64 361.14ZM1549.09 361.14C1549.09 361.513 1549.16 361.842 1549.32 362.128C1549.48 362.405 1549.69 362.626 1549.96 362.791C1550.23 362.947 1550.53 363.025 1550.87 363.025C1551.2 363.025 1551.5 362.947 1551.76 362.791C1552.04 362.626 1552.26 362.405 1552.41 362.128C1552.57 361.842 1552.65 361.513 1552.65 361.14C1552.65 360.767 1552.57 360.438 1552.41 360.152C1552.26 359.866 1552.04 359.645 1551.76 359.489C1551.5 359.333 1551.2 359.255 1550.87 359.255C1550.53 359.255 1550.23 359.333 1549.96 359.489C1549.69 359.645 1549.48 359.866 1549.32 360.152C1549.16 360.438 1549.09 360.767 1549.09 361.14Z" fill="white"/>
<path d="M53.8499 159.321C23.6318 192.741 -65.5728 229.698 -106.398 243.999V446.097L1620.84 454V129.969L1507.53 135.614H1458.31C1450.98 135.614 1415.19 129.592 1398.21 126.581L1348.42 92.7105C1315.92 67.4203 1287.18 62.6031 1276.88 63.3558C1245.79 43.0329 1178.1 1.93545 1156.13 0.129001C1134.15 -1.67745 1085.54 15.9354 1063.98 24.9677L1014.19 35.1289L964.4 46.4192C923.766 51.688 840.437 62.2256 832.196 62.2256C823.955 62.2256 789.845 83.3008 773.82 93.8385L724.029 100.613C706.287 115.29 546.612 158.193 507.694 169.483C476.56 178.516 380.259 152.924 336 138.999C189.488 61.3217 86.8533 120.182 53.8499 159.321Z" fill="#891A11"/>
<path d="M940.57 118.41C972.154 54.4451 841.037 91.7579 771.531 118.41C777.647 93.6358 883.297 67.7326 891.081 67.7326C898.866 67.7326 988.946 50.8404 1006.74 50.8404C1020.97 50.8404 1099.04 26.0653 1136.3 13.6777C1152.05 14.4285 1186.46 22.9121 1198.02 50.8404C1212.48 85.7508 1221.93 94.76 1226.94 95.8861C1231.94 97.0123 1320.91 153.319 1333.7 153.319C1343.93 153.319 1384.3 163.83 1403.2 169.085H1446.58C1456.58 169.085 1478.83 183.725 1482.16 185.977C1485.5 188.23 1502.74 227.645 1512.75 227.645C1520.75 227.645 1561.68 249.417 1581.14 260.303C1578.17 286.955 1574.02 342.962 1581.14 353.773C1588.26 364.584 1592.26 425.095 1593.37 453.999H1556.12L1369.28 377.422C1315.72 359.403 1195.24 315.484 1141.86 283.952C1088.48 252.42 1021.38 246.038 994.507 246.789C972.45 248.666 917.772 247.69 875.512 228.771C822.687 205.122 901.09 198.366 940.57 118.41Z" fill="#761A13" fill-opacity="0.7"/>
<path d="M452.516 178.517L322.837 133.355C411.595 170.99 460.585 314 488.25 314C515.915 314 638.678 361.67 661.732 361.67C680.175 361.67 775.849 405.159 821.381 426.903H925.701H1115.9H1188.52L1221.37 393.032L1193.13 382.996L1059.99 361.67C1006.2 352.471 896.768 334.072 889.391 334.072C882.013 334.072 798.711 309.819 757.982 297.692L638.678 256.294L532.629 228.696L452.516 178.517Z" fill="#5C1712" fill-opacity="0.18"/>
<path d="M-6.24295 348.999C-25.0148 358.031 -77.4006 352.762 -101.247 348.999H-105.825V251.903H-93.2346C-84.9933 251.903 -7.38757 215.022 30.3851 196.581C45.952 191.162 74.644 159.699 87.0441 144.645C152.059 93.1615 249.581 117.925 290.215 136.742C202.079 108.516 186.054 161.581 136.835 184.161C97.4602 202.226 82.2748 231.581 79.604 244C99.2535 236.473 142.215 221.419 156.866 221.419C175.18 221.419 215.242 250.774 186.054 269.968C162.704 285.322 156.866 317.763 156.866 332.064C162.78 337.709 176.897 348.999 186.054 348.999H245.003L273.046 361.419C262.363 361.419 237.562 364.354 223.827 376.095C206.658 390.772 149.999 376.095 115.66 376.095C81.321 376.095 17.2219 337.708 -6.24295 348.999Z" fill="#5C1712" fill-opacity="0.24"/>
<path d="M464.771 345.614C389.683 268.84 284.683 199.217 241.569 174.002C317.572 83.6792 428.143 234.969 473.928 321.904L513.417 345.614C538.218 360.291 602.584 391.001 661.647 396.42C720.709 401.84 755.697 434.807 765.808 450.614H661.647C627.308 447.603 539.858 422.388 464.771 345.614Z" fill="#AB2419" fill-opacity="0.23"/>
<path d="M1215.65 81.4207C1210.61 79.6143 1185.69 45.2918 1173.87 28.3563C1153.44 0.130585 1205.34 28.3563 1223.66 44.1627C1241.97 59.9692 1315.8 97.2271 1342.13 106.259C1368.45 115.292 1420.53 150.292 1445.14 150.292C1469.75 150.292 1537.29 171.743 1549.88 171.743C1559.95 171.743 1601 207.872 1620.27 225.937V451.742H1591.08C1584.22 411.474 1570.25 325.517 1569.34 303.84C1568.19 276.743 1536.71 265.453 1501.8 214.646C1473.87 174.001 1415.38 169.109 1389.63 171.743C1373.41 164.593 1335.95 150.292 1315.8 150.292C1290.62 150.292 1221.94 83.6788 1215.65 81.4207Z" fill="#A22117"/>
<path d="M69.1961 213.909C90.4197 163.445 -14.8493 245.826 -68.0781 266.04C-91.0582 281.963 -127.448 312.642 -89.1658 307.972C-41.3132 302.136 47.9725 264.373 69.1961 213.909Z" fill="white" fill-opacity="0.03"/>
</svg>
