<svg width="866" height="159" viewBox="0 0 866 159" fill="none" xmlns="http://www.w3.org/2000/svg">
<path d="M498.883 21.224C485.754 18.647 486.12 7.26558 487.942 1.89697H602.817C620.321 1.89697 632.356 11.5605 635.638 16.9291C649.642 33.2497 645.85 55.9411 642.202 65.2466C634.325 82.4261 611.934 88.1527 601.723 88.8685L658.613 156.513H630.168L589.688 110.343L554.679 68.4678H597.346C615.945 68.4678 623.603 58.8043 624.697 53.4356C630.168 33.0349 614.851 22.2977 607.193 21.224H498.883Z" fill="#FF0000"/>
<path d="M487.942 150.071V88.8684C502.821 85.4325 508 92.4475 508.729 96.3844V158.66C494.725 160.378 489.036 153.65 487.942 150.071Z" fill="#FF0000"/>
<path d="M711.127 62.0254C720.754 87.7948 752.335 90.658 766.923 88.8685V69.5415C755.254 70.2572 731.695 66.9645 730.819 48.067C729.944 29.1695 742.854 23.0134 749.418 22.2977H853.352C864.73 13.7079 862.47 4.40232 859.916 0.823242H742.854C704.562 13.7079 703.834 49.1408 711.127 62.0254Z" fill="#FF0000"/>
<path d="M819.437 89.9422C808.934 88.2243 807.768 75.6259 808.496 69.5415L832.565 70.6152C838.692 72.3332 846.059 77.0576 848.976 79.205C869.981 93.8076 867.209 121.08 863.198 132.891C853.571 151.789 838.035 157.229 831.471 157.587H710.033C709.157 142.125 715.503 138.26 718.785 138.26L829.283 137.186C844.162 132.032 846.422 117.859 845.694 111.417C844.819 93.3781 827.824 89.5843 819.437 89.9422Z" fill="#FF0000"/>
<path d="M336.965 0.823242C331.713 1.68222 270.594 103.543 240.689 154.366L238.501 157.587H240.689H263.664L346.811 24.4451L406.983 138.26H344.623C338.496 139.978 338.424 151.86 339.153 157.587H441.993L357.751 0.823242H336.965Z" fill="#FF0000"/>
<path d="M83.1471 107.122L1.09399 11.5607V1.89715H17.5046L95.1815 82.4263C118.521 57.015 166.513 5.33306 171.764 1.89715C177.016 -1.53877 183.434 0.465512 185.987 1.89715V157.587C172.858 160.164 166.659 152.934 165.2 148.997V35.1825C146.237 57.7307 107.216 103.686 102.84 107.122C98.4636 110.558 87.888 108.554 83.1471 107.122Z" fill="#FF0000"/>
<path d="M0 150.071V89.9425C9.62756 86.5066 19.3281 91.3742 22.9749 94.2374V156.513C10.7216 159.09 2.55277 153.292 0 150.071Z" fill="#FF0000"/>
</svg>
