<svg width="226" height="80" viewBox="0 0 226 80" fill="none" xmlns="http://www.w3.org/2000/svg">
<path d="M0.4 24.1V7.59999L36.9 0.599995V72H18.3V19.9L0.4 24.1ZM69.3344 37C69.3344 40.0667 69.601 42.8333 70.1344 45.3C70.7344 47.7667 71.5344 49.8667 72.5344 51.6C73.5344 53.3333 74.7344 54.6667 76.1344 55.6C77.5344 56.4667 79.0677 56.9 80.7344 56.9C82.4677 56.9 84.001 56.4667 85.3344 55.6C86.7344 54.6667 87.9344 53.3333 88.9344 51.6C90.001 49.8667 90.801 47.7667 91.3344 45.3C91.9344 42.8333 92.2344 40.0667 92.2344 37C92.2344 33.9333 91.9344 31.1667 91.3344 28.7C90.801 26.2333 90.001 24.1333 88.9344 22.4C87.9344 20.6667 86.7344 19.3667 85.3344 18.5C84.001 17.5667 82.4677 17.1 80.7344 17.1C79.0677 17.1 77.5344 17.5667 76.1344 18.5C74.7344 19.3667 73.5344 20.6667 72.5344 22.4C71.5344 24.1333 70.7344 26.2333 70.1344 28.7C69.601 31.1667 69.3344 33.9333 69.3344 37ZM50.7344 37C50.7344 29.2 52.001 22.6 54.5344 17.2C57.0677 11.8 60.5677 7.7 65.0344 4.9C69.5677 2.03333 74.801 0.599995 80.7344 0.599995C87.001 0.599995 92.3677 2.03333 96.8344 4.9C101.301 7.7 104.734 11.8 107.134 17.2C109.601 22.6 110.834 29.2 110.834 37C110.834 44.8 109.601 51.4 107.134 56.8C104.734 62.2 101.301 66.3333 96.8344 69.2C92.3677 72 87.001 73.4 80.7344 73.4C74.801 73.4 69.5677 72 65.0344 69.2C60.5677 66.3333 57.0677 62.2 54.5344 56.8C52.001 51.4 50.7344 44.8 50.7344 37ZM137.401 37C137.401 40.0667 137.667 42.8333 138.201 45.3C138.801 47.7667 139.601 49.8667 140.601 51.6C141.601 53.3333 142.801 54.6667 144.201 55.6C145.601 56.4667 147.134 56.9 148.801 56.9C150.534 56.9 152.067 56.4667 153.401 55.6C154.801 54.6667 156.001 53.3333 157.001 51.6C158.067 49.8667 158.867 47.7667 159.401 45.3C160.001 42.8333 160.301 40.0667 160.301 37C160.301 33.9333 160.001 31.1667 159.401 28.7C158.867 26.2333 158.067 24.1333 157.001 22.4C156.001 20.6667 154.801 19.3667 153.401 18.5C152.067 17.5667 150.534 17.1 148.801 17.1C147.134 17.1 145.601 17.5667 144.201 18.5C142.801 19.3667 141.601 20.6667 140.601 22.4C139.601 24.1333 138.801 26.2333 138.201 28.7C137.667 31.1667 137.401 33.9333 137.401 37ZM118.801 37C118.801 29.2 120.067 22.6 122.601 17.2C125.134 11.8 128.634 7.7 133.101 4.9C137.634 2.03333 142.867 0.599995 148.801 0.599995C155.067 0.599995 160.434 2.03333 164.901 4.9C169.367 7.7 172.801 11.8 175.201 17.2C177.667 22.6 178.901 29.2 178.901 37C178.901 44.8 177.667 51.4 175.201 56.8C172.801 62.2 169.367 66.3333 164.901 69.2C160.434 72 155.067 73.4 148.801 73.4C142.867 73.4 137.634 72 133.101 69.2C128.634 66.3333 125.134 62.2 122.601 56.8C120.067 51.4 118.801 44.8 118.801 37ZM201.277 14.74H211.007L210.447 28.04H201.837L201.277 14.74ZM201.837 67.38H210.377L210.937 79.84H201.277L201.837 67.38ZM214.437 38.26C213.737 36.9067 212.967 35.7633 212.127 34.83C211.287 33.85 210.377 33.1267 209.397 32.66C208.464 32.1933 207.461 31.96 206.387 31.96C205.267 31.96 204.357 32.1467 203.657 32.52C202.957 32.8467 202.444 33.29 202.117 33.85C201.791 34.41 201.627 35.04 201.627 35.74C201.627 37 202.141 38.0033 203.167 38.75C204.194 39.4967 205.547 40.15 207.227 40.71C208.954 41.27 210.797 41.9233 212.757 42.67C214.577 43.3233 216.234 44.1167 217.727 45.05C219.221 45.9367 220.527 47.01 221.647 48.27C222.814 49.4833 223.701 50.9067 224.307 52.54C224.961 54.1733 225.287 56.04 225.287 58.14C225.287 61.2667 224.447 63.9267 222.767 66.12C221.134 68.2667 218.824 69.9 215.837 71.02C212.851 72.14 209.351 72.7 205.337 72.7C202.304 72.7 199.411 72.14 196.657 71.02C193.904 69.8533 191.477 68.36 189.377 66.54C187.324 64.72 185.784 62.7367 184.757 60.59L194.067 53.94C195.234 55.8067 196.401 57.3467 197.567 58.56C198.734 59.7733 199.971 60.6833 201.277 61.29C202.584 61.85 204.054 62.13 205.687 62.13C206.901 62.13 207.881 61.99 208.627 61.71C209.421 61.3833 210.004 60.94 210.377 60.38C210.751 59.7733 210.937 59.0267 210.937 58.14C210.937 57.0667 210.517 56.2033 209.677 55.55C208.884 54.85 207.764 54.1967 206.317 53.59C204.871 52.9833 203.167 52.3067 201.207 51.56C199.994 51.0933 198.617 50.4633 197.077 49.67C195.537 48.8767 194.044 47.8733 192.597 46.66C191.197 45.4467 190.031 43.9533 189.097 42.18C188.164 40.4067 187.697 38.3067 187.697 35.88C187.697 33.4533 188.467 31.2133 190.007 29.16C191.547 27.1067 193.671 25.45 196.377 24.19C199.131 22.93 202.304 22.3 205.897 22.3C209.537 22.3 212.524 22.79 214.857 23.77C217.191 24.7033 219.127 25.9633 220.667 27.55C222.207 29.09 223.514 30.77 224.587 32.59L214.437 38.26Z" fill="url(#paint0_linear_652_3)" fill-opacity="0.3"/>
<defs>
<linearGradient id="paint0_linear_652_3" x1="111.095" y1="18" x2="111.095" y2="84.5" gradientUnits="userSpaceOnUse">
<stop stop-color="white" stop-opacity="0.5"/>
<stop offset="0.759615" stop-color="#3B3B3B" stop-opacity="0.3"/>
</linearGradient>
</defs>
</svg>
