<svg width="766" height="938" viewBox="0 0 766 938" fill="none" xmlns="http://www.w3.org/2000/svg">
<path d="M301.262 201.14V199.88C301.955 199.88 302.542 199.787 303.022 199.6C303.502 199.4 303.862 199.14 304.102 198.82C304.355 198.487 304.482 198.12 304.482 197.72C304.482 197.347 304.389 197.013 304.202 196.72C304.029 196.413 303.755 196.18 303.382 196.02C303.022 195.86 302.569 195.78 302.022 195.78C301.502 195.78 301.035 195.867 300.622 196.04C300.222 196.2 299.909 196.427 299.682 196.72C299.455 197.013 299.342 197.347 299.342 197.72H297.122C297.122 196.947 297.315 196.267 297.702 195.68C298.102 195.093 298.669 194.633 299.402 194.3C300.135 193.953 301.009 193.78 302.022 193.78C303.049 193.78 303.922 193.953 304.642 194.3C305.362 194.647 305.909 195.107 306.282 195.68C306.669 196.24 306.862 196.867 306.862 197.56C306.862 198.093 306.722 198.58 306.442 199.02C306.162 199.46 305.769 199.84 305.262 200.16C304.769 200.48 304.175 200.727 303.482 200.9C302.802 201.06 302.062 201.14 301.262 201.14ZM302.002 208.24C301.082 208.24 300.282 208.133 299.602 207.92C298.922 207.693 298.349 207.387 297.882 207C297.429 206.6 297.089 206.147 296.862 205.64C296.635 205.12 296.522 204.573 296.522 204H298.882C298.922 204.453 299.062 204.847 299.302 205.18C299.542 205.5 299.882 205.753 300.322 205.94C300.775 206.113 301.322 206.2 301.962 206.2C302.922 206.2 303.649 206.007 304.142 205.62C304.635 205.233 304.882 204.693 304.882 204C304.882 203.493 304.735 203.067 304.442 202.72C304.149 202.373 303.729 202.107 303.182 201.92C302.649 201.733 302.009 201.64 301.262 201.64V200.3C302.395 200.3 303.415 200.44 304.322 200.72C305.229 200.987 305.942 201.407 306.462 201.98C306.995 202.553 307.262 203.313 307.262 204.26C307.262 205.047 307.055 205.74 306.642 206.34C306.242 206.94 305.649 207.407 304.862 207.74C304.089 208.073 303.135 208.24 302.002 208.24ZM317.559 198.8L311.559 212.4H309.259L311.659 206.92L307.959 198.8H310.439L313.379 206.08L312.359 206.02L315.239 198.8H317.559ZM320 203.4C320 203.987 320.126 204.5 320.38 204.94C320.633 205.367 320.973 205.707 321.4 205.96C321.84 206.213 322.326 206.34 322.86 206.34C323.3 206.34 323.72 206.273 324.12 206.14C324.52 206.007 324.873 205.82 325.18 205.58C325.486 205.34 325.713 205.073 325.86 204.78V207.16C325.54 207.48 325.106 207.733 324.56 207.92C324.013 208.107 323.413 208.2 322.76 208.2C321.813 208.2 320.96 208 320.2 207.6C319.453 207.187 318.86 206.62 318.42 205.9C317.993 205.167 317.78 204.333 317.78 203.4C317.78 202.453 317.993 201.62 318.42 200.9C318.86 200.18 319.453 199.62 320.2 199.22C320.96 198.807 321.813 198.6 322.76 198.6C323.413 198.6 324.013 198.693 324.56 198.88C325.106 199.067 325.54 199.32 325.86 199.64V202.02C325.713 201.713 325.48 201.447 325.16 201.22C324.853 200.98 324.5 200.793 324.1 200.66C323.7 200.527 323.286 200.46 322.86 200.46C322.326 200.46 321.84 200.587 321.4 200.84C320.973 201.093 320.633 201.44 320.38 201.88C320.126 202.32 320 202.827 320 203.4ZM326.967 198.8H332.787V200.7H326.967V198.8ZM328.827 199.2H330.947V208H328.827V199.2ZM336.363 212.4H334.183V198.8H336.363V212.4ZM343.983 203.4C343.983 204.413 343.776 205.287 343.363 206.02C342.949 206.74 342.403 207.293 341.723 207.68C341.043 208.053 340.303 208.24 339.503 208.24C338.716 208.24 338.029 208.047 337.443 207.66C336.869 207.26 336.423 206.7 336.103 205.98C335.796 205.247 335.643 204.387 335.643 203.4C335.643 202.4 335.796 201.54 336.103 200.82C336.423 200.1 336.869 199.547 337.443 199.16C338.029 198.76 338.716 198.56 339.503 198.56C340.303 198.56 341.043 198.753 341.723 199.14C342.403 199.513 342.949 200.06 343.363 200.78C343.776 201.5 343.983 202.373 343.983 203.4ZM341.743 203.4C341.743 202.787 341.616 202.267 341.363 201.84C341.109 201.4 340.769 201.073 340.343 200.86C339.929 200.633 339.469 200.52 338.963 200.52C338.549 200.52 338.143 200.633 337.743 200.86C337.343 201.073 337.009 201.393 336.743 201.82C336.489 202.247 336.363 202.773 336.363 203.4C336.363 204.027 336.489 204.553 336.743 204.98C337.009 205.407 337.343 205.733 337.743 205.96C338.143 206.173 338.549 206.28 338.963 206.28C339.469 206.28 339.929 206.173 340.343 205.96C340.769 205.733 341.109 205.407 341.363 204.98C341.616 204.54 341.743 204.013 341.743 203.4ZM348.44 197.22V208H346.32V197.22H348.44ZM347.4 193.12C347.72 193.12 348 193.213 348.24 193.4C348.48 193.587 348.6 193.9 348.6 194.34C348.6 194.767 348.48 195.08 348.24 195.28C348 195.467 347.72 195.56 347.4 195.56C347.053 195.56 346.76 195.467 346.52 195.28C346.293 195.08 346.18 194.767 346.18 194.34C346.18 193.9 346.293 193.587 346.52 193.4C346.76 193.213 347.053 193.12 347.4 193.12ZM354.709 205.4L355.049 203.5H357.849V205.4H354.709ZM356.709 198.8H358.889V208H356.709V198.8ZM353.289 198.8V201.54C353.289 202.007 353.343 202.387 353.449 202.68C353.556 202.96 353.736 203.167 353.989 203.3C354.256 203.433 354.609 203.5 355.049 203.5L354.709 205.4C353.789 205.4 353.063 205.26 352.529 204.98C352.009 204.687 351.643 204.247 351.429 203.66C351.216 203.073 351.109 202.333 351.109 201.44V198.8H353.289ZM371.341 203.4V202.44C371.874 202.44 372.254 202.34 372.481 202.14C372.721 201.927 372.841 201.667 372.841 201.36C372.841 201.053 372.721 200.807 372.481 200.62C372.254 200.433 371.941 200.34 371.541 200.34C371.207 200.34 370.927 200.407 370.701 200.54C370.474 200.66 370.301 200.82 370.181 201.02C370.074 201.207 370.021 201.407 370.021 201.62H367.941C367.941 201.047 368.094 200.533 368.401 200.08C368.707 199.627 369.127 199.267 369.661 199C370.207 198.733 370.827 198.6 371.521 198.6C372.174 198.6 372.761 198.713 373.281 198.94C373.801 199.167 374.207 199.473 374.501 199.86C374.794 200.247 374.941 200.673 374.941 201.14C374.941 201.807 374.634 202.36 374.021 202.8C373.407 203.227 372.514 203.427 371.341 203.4ZM371.481 208.2C370.307 208.2 369.374 207.907 368.681 207.32C368.001 206.72 367.607 205.947 367.501 205H369.621C369.714 205.427 369.901 205.787 370.181 206.08C370.474 206.36 370.907 206.5 371.481 206.5C371.854 206.5 372.174 206.447 372.441 206.34C372.707 206.233 372.907 206.087 373.041 205.9C373.187 205.7 373.261 205.467 373.261 205.2C373.261 204.92 373.187 204.68 373.041 204.48C372.894 204.28 372.674 204.127 372.381 204.02C372.101 203.913 371.754 203.86 371.341 203.86V202.8C372.581 202.773 373.554 202.973 374.261 203.4C374.981 203.813 375.341 204.447 375.341 205.3C375.341 205.9 375.167 206.42 374.821 206.86C374.487 207.287 374.027 207.62 373.441 207.86C372.854 208.087 372.201 208.2 371.481 208.2ZM383.538 198.8H385.658V208H383.538V198.8ZM389.038 198.8H391.678L387.718 202.6L392.078 208H389.458L385.058 202.6L389.038 198.8ZM402.221 198.8V208H400.101V200.8H395.921V204.8C395.921 205.52 395.801 206.12 395.561 206.6C395.321 207.067 394.934 207.42 394.401 207.66C393.881 207.887 393.194 208 392.341 208V206.04C392.741 206.04 393.081 205.933 393.361 205.72C393.654 205.507 393.801 205.1 393.801 204.5V198.8H402.221ZM407.6 197.22V208H405.48V197.22H407.6ZM406.56 193.12C406.88 193.12 407.16 193.213 407.4 193.4C407.64 193.587 407.76 193.9 407.76 194.34C407.76 194.767 407.64 195.08 407.4 195.28C407.16 195.467 406.88 195.56 406.56 195.56C406.214 195.56 405.92 195.467 405.68 195.28C405.454 195.08 405.34 194.767 405.34 194.34C405.34 193.9 405.454 193.587 405.68 193.4C405.92 193.213 406.214 193.12 406.56 193.12ZM415.53 208.2C414.503 208.2 413.596 208.013 412.81 207.64C412.023 207.253 411.41 206.653 410.97 205.84C410.53 205.013 410.31 203.96 410.31 202.68C410.31 201.307 410.536 200.207 410.99 199.38C411.443 198.553 412.063 197.953 412.85 197.58C413.65 197.207 414.55 197.02 415.55 197.02C416.123 197.02 416.683 197.08 417.23 197.2C417.776 197.307 418.256 197.453 418.67 197.64L418.05 199.28C417.636 199.12 417.203 198.993 416.75 198.9C416.31 198.793 415.896 198.74 415.51 198.74C414.896 198.74 414.376 198.847 413.95 199.06C413.523 199.273 413.19 199.6 412.95 200.04C412.723 200.467 412.576 201.013 412.51 201.68H417.43V203.28H412.49C412.543 204 412.683 204.6 412.91 205.08C413.136 205.56 413.456 205.913 413.87 206.14C414.296 206.367 414.823 206.48 415.45 206.48C416.05 206.48 416.59 206.42 417.07 206.3C417.563 206.167 418.03 206.013 418.47 205.84V207.58C418.07 207.78 417.636 207.933 417.17 208.04C416.703 208.147 416.156 208.2 415.53 208.2ZM421.668 204.04V202.26H428.708V204.04H421.668ZM427.548 198.8H429.668V208H427.548V198.8ZM420.728 198.8H422.848V208H420.728V198.8ZM431.147 198.8H436.967V200.7H431.147V198.8ZM433.007 199.2H435.127V208H433.007V199.2ZM437.45 203.4C437.45 202.453 437.663 201.62 438.09 200.9C438.53 200.18 439.123 199.62 439.87 199.22C440.616 198.807 441.463 198.6 442.41 198.6C443.356 198.6 444.196 198.807 444.93 199.22C445.676 199.62 446.27 200.18 446.71 200.9C447.15 201.62 447.37 202.453 447.37 203.4C447.37 204.333 447.15 205.167 446.71 205.9C446.27 206.62 445.676 207.187 444.93 207.6C444.196 208 443.356 208.2 442.41 208.2C441.463 208.2 440.616 208 439.87 207.6C439.123 207.187 438.53 206.62 438.09 205.9C437.663 205.167 437.45 204.333 437.45 203.4ZM439.67 203.4C439.67 203.973 439.79 204.48 440.03 204.92C440.27 205.347 440.596 205.687 441.01 205.94C441.423 206.18 441.89 206.3 442.41 206.3C442.916 206.3 443.376 206.18 443.79 205.94C444.216 205.687 444.55 205.347 444.79 204.92C445.03 204.48 445.15 203.973 445.15 203.4C445.15 202.827 445.03 202.32 444.79 201.88C444.55 201.44 444.216 201.1 443.79 200.86C443.376 200.62 442.916 200.5 442.41 200.5C441.89 200.5 441.423 200.62 441.01 200.86C440.596 201.1 440.27 201.44 440.03 201.88C439.79 202.32 439.67 202.827 439.67 203.4ZM458.179 208L456.779 201.1L457.919 198.1L460.479 208H458.179ZM453.679 206.12L457.919 198.1L458.119 201.64L454.279 208.62L453.679 206.12ZM454.279 208.62L450.479 201.64L450.679 198.1L454.879 206.12L454.279 208.62ZM448.139 208L450.679 198.1L451.839 201.1L450.439 208H448.139Z" fill="white"/>
<path d="M296.387 333.78V332.62H298.647C299.087 332.62 299.474 332.547 299.807 332.4C300.141 332.253 300.401 332.047 300.587 331.78C300.774 331.5 300.867 331.167 300.867 330.78C300.867 330.193 300.661 329.74 300.247 329.42C299.834 329.1 299.301 328.94 298.647 328.94H296.947V339.06H298.907C299.441 339.06 299.914 338.973 300.327 338.8C300.741 338.627 301.067 338.367 301.307 338.02C301.547 337.673 301.667 337.24 301.667 336.72C301.667 336.347 301.594 336.02 301.447 335.74C301.314 335.447 301.121 335.207 300.867 335.02C300.627 334.82 300.341 334.68 300.007 334.6C299.674 334.507 299.307 334.46 298.907 334.46H296.387V333.16H299.047C299.727 333.16 300.367 333.233 300.967 333.38C301.567 333.527 302.101 333.753 302.567 334.06C303.047 334.367 303.421 334.76 303.687 335.24C303.954 335.72 304.087 336.293 304.087 336.96C304.087 337.88 303.867 338.64 303.427 339.24C303.001 339.84 302.407 340.287 301.647 340.58C300.901 340.86 300.034 341 299.047 341H294.587V327H298.807C299.687 327 300.461 327.127 301.127 327.38C301.807 327.633 302.334 328.02 302.707 328.54C303.094 329.06 303.287 329.72 303.287 330.52C303.287 331.213 303.094 331.807 302.707 332.3C302.334 332.78 301.807 333.147 301.127 333.4C300.461 333.653 299.687 333.78 298.807 333.78H296.387ZM308.8 330.22V341H306.68V330.22H308.8ZM307.76 326.12C308.08 326.12 308.36 326.213 308.6 326.4C308.84 326.587 308.96 326.9 308.96 327.34C308.96 327.767 308.84 328.08 308.6 328.28C308.36 328.467 308.08 328.56 307.76 328.56C307.413 328.56 307.12 328.467 306.88 328.28C306.653 328.08 306.54 327.767 306.54 327.34C306.54 326.9 306.653 326.587 306.88 326.4C307.12 326.213 307.413 326.12 307.76 326.12ZM315.509 336.4V335.44C316.042 335.44 316.422 335.34 316.649 335.14C316.889 334.927 317.009 334.667 317.009 334.36C317.009 334.053 316.889 333.807 316.649 333.62C316.422 333.433 316.109 333.34 315.709 333.34C315.375 333.34 315.095 333.407 314.869 333.54C314.642 333.66 314.469 333.82 314.349 334.02C314.242 334.207 314.189 334.407 314.189 334.62H312.109C312.109 334.047 312.262 333.533 312.569 333.08C312.875 332.627 313.295 332.267 313.829 332C314.375 331.733 314.995 331.6 315.689 331.6C316.342 331.6 316.929 331.713 317.449 331.94C317.969 332.167 318.375 332.473 318.669 332.86C318.962 333.247 319.109 333.673 319.109 334.14C319.109 334.807 318.802 335.36 318.189 335.8C317.575 336.227 316.682 336.427 315.509 336.4ZM315.649 341.2C314.475 341.2 313.542 340.907 312.849 340.32C312.169 339.72 311.775 338.947 311.669 338H313.789C313.882 338.427 314.069 338.787 314.349 339.08C314.642 339.36 315.075 339.5 315.649 339.5C316.022 339.5 316.342 339.447 316.609 339.34C316.875 339.233 317.075 339.087 317.209 338.9C317.355 338.7 317.429 338.467 317.429 338.2C317.429 337.92 317.355 337.68 317.209 337.48C317.062 337.28 316.842 337.127 316.549 337.02C316.269 336.913 315.922 336.86 315.509 336.86V335.8C316.749 335.773 317.722 335.973 318.429 336.4C319.149 336.813 319.509 337.447 319.509 338.3C319.509 338.9 319.335 339.42 318.989 339.86C318.655 340.287 318.195 340.62 317.609 340.86C317.022 341.087 316.369 341.2 315.649 341.2ZM329.833 331.8L323.833 345.4H321.533L323.933 339.92L320.232 331.8H322.713L325.653 339.08L324.633 339.02L327.513 331.8H329.833ZM332.486 338.28C332.486 338.56 332.559 338.793 332.706 338.98C332.866 339.167 333.073 339.313 333.326 339.42C333.579 339.513 333.866 339.56 334.186 339.56C334.653 339.56 335.073 339.487 335.446 339.34C335.819 339.193 336.113 338.96 336.326 338.64C336.539 338.32 336.646 337.893 336.646 337.36L336.966 338.4C336.966 338.987 336.813 339.493 336.506 339.92C336.199 340.333 335.786 340.653 335.266 340.88C334.746 341.093 334.166 341.2 333.526 341.2C332.926 341.2 332.379 341.093 331.886 340.88C331.406 340.667 331.019 340.353 330.726 339.94C330.446 339.513 330.306 338.987 330.306 338.36C330.306 337.733 330.466 337.193 330.786 336.74C331.106 336.287 331.559 335.94 332.146 335.7C332.746 335.46 333.446 335.34 334.246 335.34C334.779 335.34 335.253 335.407 335.666 335.54C336.093 335.673 336.446 335.827 336.726 336C337.006 336.173 337.199 336.327 337.306 336.46V337.6C336.893 337.293 336.473 337.073 336.046 336.94C335.619 336.793 335.126 336.72 334.566 336.72C334.113 336.72 333.726 336.787 333.406 336.92C333.099 337.04 332.866 337.22 332.706 337.46C332.559 337.687 332.486 337.96 332.486 338.28ZM332.006 334.22L331.146 332.68C331.559 332.427 332.086 332.18 332.726 331.94C333.366 331.7 334.099 331.58 334.926 331.58C335.686 331.58 336.353 331.693 336.926 331.92C337.499 332.147 337.946 332.473 338.266 332.9C338.599 333.313 338.766 333.827 338.766 334.44V341H336.646V334.68C336.646 334.253 336.466 333.927 336.106 333.7C335.759 333.46 335.333 333.34 334.826 333.34C334.386 333.34 333.979 333.393 333.606 333.5C333.233 333.607 332.906 333.733 332.626 333.88C332.359 334.013 332.153 334.127 332.006 334.22ZM350.002 331.8V341H347.882V333.8H343.702V337.8C343.702 338.52 343.582 339.12 343.342 339.6C343.102 340.067 342.715 340.42 342.182 340.66C341.662 340.887 340.975 341 340.122 341V339.04C340.522 339.04 340.862 338.933 341.142 338.72C341.435 338.507 341.582 338.1 341.582 337.5V331.8H350.002ZM353.022 331.8H355.202V341H353.022V331.8ZM354.542 336.76V335.14H357.402C358.348 335.14 359.142 335.373 359.782 335.84C360.435 336.293 360.762 337.013 360.762 338C360.762 338.653 360.615 339.207 360.322 339.66C360.028 340.1 359.628 340.433 359.122 340.66C358.615 340.887 358.042 341 357.402 341H354.542V339.22H357.182C357.502 339.22 357.768 339.173 357.982 339.08C358.208 338.987 358.375 338.847 358.482 338.66C358.602 338.473 358.662 338.253 358.662 338C358.662 337.6 358.535 337.293 358.282 337.08C358.042 336.867 357.675 336.76 357.182 336.76H354.542ZM364.078 337.04V335.26H371.118V337.04H364.078ZM369.958 331.8H372.078V341H369.958V331.8ZM363.138 331.8H365.258V341H363.138V331.8ZM376.197 338.28C376.197 338.56 376.27 338.793 376.417 338.98C376.577 339.167 376.784 339.313 377.037 339.42C377.29 339.513 377.577 339.56 377.897 339.56C378.364 339.56 378.784 339.487 379.157 339.34C379.53 339.193 379.824 338.96 380.037 338.64C380.25 338.32 380.357 337.893 380.357 337.36L380.677 338.4C380.677 338.987 380.524 339.493 380.217 339.92C379.91 340.333 379.497 340.653 378.977 340.88C378.457 341.093 377.877 341.2 377.237 341.2C376.637 341.2 376.09 341.093 375.597 340.88C375.117 340.667 374.73 340.353 374.437 339.94C374.157 339.513 374.017 338.987 374.017 338.36C374.017 337.733 374.177 337.193 374.497 336.74C374.817 336.287 375.27 335.94 375.857 335.7C376.457 335.46 377.157 335.34 377.957 335.34C378.49 335.34 378.964 335.407 379.377 335.54C379.804 335.673 380.157 335.827 380.437 336C380.717 336.173 380.91 336.327 381.017 336.46V337.6C380.604 337.293 380.184 337.073 379.757 336.94C379.33 336.793 378.837 336.72 378.277 336.72C377.824 336.72 377.437 336.787 377.117 336.92C376.81 337.04 376.577 337.22 376.417 337.46C376.27 337.687 376.197 337.96 376.197 338.28ZM375.717 334.22L374.857 332.68C375.27 332.427 375.797 332.18 376.437 331.94C377.077 331.7 377.81 331.58 378.637 331.58C379.397 331.58 380.064 331.693 380.637 331.92C381.21 332.147 381.657 332.473 381.977 332.9C382.31 333.313 382.477 333.827 382.477 334.44V341H380.357V334.68C380.357 334.253 380.177 333.927 379.817 333.7C379.47 333.46 379.044 333.34 378.537 333.34C378.097 333.34 377.69 333.393 377.317 333.5C376.944 333.607 376.617 333.733 376.337 333.88C376.07 334.013 375.864 334.127 375.717 334.22ZM390.929 331.8H393.049V341H390.929V331.8ZM396.429 331.8H399.069L395.109 335.6L399.469 341H396.849L392.449 335.6L396.429 331.8ZM399.918 336.4C399.918 335.453 400.132 334.62 400.558 333.9C400.998 333.18 401.592 332.62 402.338 332.22C403.085 331.807 403.932 331.6 404.878 331.6C405.825 331.6 406.665 331.807 407.398 332.22C408.145 332.62 408.738 333.18 409.178 333.9C409.618 334.62 409.838 335.453 409.838 336.4C409.838 337.333 409.618 338.167 409.178 338.9C408.738 339.62 408.145 340.187 407.398 340.6C406.665 341 405.825 341.2 404.878 341.2C403.932 341.2 403.085 341 402.338 340.6C401.592 340.187 400.998 339.62 400.558 338.9C400.132 338.167 399.918 337.333 399.918 336.4ZM402.138 336.4C402.138 336.973 402.258 337.48 402.498 337.92C402.738 338.347 403.065 338.687 403.478 338.94C403.892 339.18 404.358 339.3 404.878 339.3C405.385 339.3 405.845 339.18 406.258 338.94C406.685 338.687 407.018 338.347 407.258 337.92C407.498 337.48 407.618 336.973 407.618 336.4C407.618 335.827 407.498 335.32 407.258 334.88C407.018 334.44 406.685 334.1 406.258 333.86C405.845 333.62 405.385 333.5 404.878 333.5C404.358 333.5 403.892 333.62 403.478 333.86C403.065 334.1 402.738 334.44 402.498 334.88C402.258 335.32 402.138 335.827 402.138 336.4ZM412.828 337.04V335.26H419.868V337.04H412.828ZM418.708 331.8H420.828V341H418.708V331.8ZM411.888 331.8H414.008V341H411.888V331.8ZM431.787 339.1H433.387V342.9H431.407V341H423.587V331.8H425.747V339.1H429.607V331.8H431.787V339.1ZM435.905 336.9V335.42H441.685C441.632 334.98 441.512 334.6 441.325 334.28C441.152 333.947 440.905 333.693 440.585 333.52C440.265 333.333 439.872 333.24 439.405 333.24C438.925 333.24 438.492 333.347 438.105 333.56C437.719 333.76 437.412 334.06 437.185 334.46C436.959 334.847 436.845 335.307 436.845 335.84L436.805 336.4C436.805 337.08 436.912 337.647 437.125 338.1C437.352 338.54 437.659 338.873 438.045 339.1C438.445 339.313 438.905 339.42 439.425 339.42C439.852 339.42 440.225 339.36 440.545 339.24C440.879 339.12 441.172 338.953 441.425 338.74C441.679 338.513 441.892 338.253 442.065 337.96L443.925 338.72C443.619 339.213 443.265 339.647 442.865 340.02C442.479 340.393 441.999 340.687 441.425 340.9C440.865 341.1 440.165 341.2 439.325 341.2C438.379 341.2 437.552 340.993 436.845 340.58C436.139 340.167 435.592 339.6 435.205 338.88C434.819 338.147 434.625 337.32 434.625 336.4C434.625 336.227 434.632 336.06 434.645 335.9C434.659 335.74 434.679 335.58 434.705 335.42C434.839 334.66 435.105 333.993 435.505 333.42C435.919 332.847 436.459 332.4 437.125 332.08C437.792 331.76 438.559 331.6 439.425 331.6C440.372 331.6 441.185 331.793 441.865 332.18C442.559 332.553 443.092 333.093 443.465 333.8C443.839 334.493 444.025 335.327 444.025 336.3C444.025 336.38 444.025 336.473 444.025 336.58C444.025 336.673 444.012 336.78 443.985 336.9H435.905ZM454.247 331.8V341H452.127V333.74H448.227V341H446.107V331.8H454.247ZM465.205 339.1H466.805V342.9H464.825V341H457.005V331.8H459.165V339.1H463.025V331.8H465.205V339.1ZM471.143 330.22V341H469.023V330.22H471.143ZM470.103 326.12C470.423 326.12 470.703 326.213 470.943 326.4C471.183 326.587 471.303 326.9 471.303 327.34C471.303 327.767 471.183 328.08 470.943 328.28C470.703 328.467 470.423 328.56 470.103 328.56C469.757 328.56 469.463 328.467 469.223 328.28C468.997 328.08 468.883 327.767 468.883 327.34C468.883 326.9 468.997 326.587 469.223 326.4C469.463 326.213 469.757 326.12 470.103 326.12ZM476.073 341H473.773L476.933 336.44H479.133L476.073 341ZM482.053 341H479.873V331.8H482.053V341ZM480.673 335.82V337.46H477.812C477.186 337.46 476.606 337.367 476.073 337.18C475.539 336.98 475.113 336.673 474.793 336.26C474.473 335.833 474.313 335.28 474.313 334.6C474.313 333.92 474.473 333.38 474.793 332.98C475.113 332.567 475.539 332.267 476.073 332.08C476.606 331.893 477.186 331.8 477.812 331.8H480.673V333.6H477.993C477.659 333.6 477.379 333.64 477.153 333.72C476.926 333.8 476.753 333.92 476.633 334.08C476.513 334.24 476.453 334.447 476.453 334.7C476.453 334.967 476.513 335.18 476.633 335.34C476.753 335.5 476.926 335.62 477.153 335.7C477.379 335.78 477.659 335.82 477.993 335.82H480.673Z" fill="white"/>
<path d="M350.742 467.06L347.242 476.4H344.602L350.762 462.3L356.902 476.4H354.262L350.742 467.06ZM355.962 477H345.542V479.2H343.302V474.88H358.202V479.2H355.962V477ZM368.824 469.8L360.564 477.7L360.664 475L368.924 467.1L368.824 469.8ZM362.684 467.8V475.26L360.564 477.7V467.8H362.684ZM368.924 467.1V477H366.804V469.54L368.924 467.1ZM375.433 472.4V471.44C375.966 471.44 376.346 471.34 376.573 471.14C376.813 470.927 376.933 470.667 376.933 470.36C376.933 470.053 376.813 469.807 376.573 469.62C376.346 469.433 376.033 469.34 375.633 469.34C375.299 469.34 375.019 469.407 374.793 469.54C374.566 469.66 374.393 469.82 374.273 470.02C374.166 470.207 374.113 470.407 374.113 470.62H372.033C372.033 470.047 372.186 469.533 372.493 469.08C372.799 468.627 373.219 468.267 373.753 468C374.299 467.733 374.919 467.6 375.613 467.6C376.266 467.6 376.853 467.713 377.373 467.94C377.893 468.167 378.299 468.473 378.593 468.86C378.886 469.247 379.033 469.673 379.033 470.14C379.033 470.807 378.726 471.36 378.113 471.8C377.499 472.227 376.606 472.427 375.433 472.4ZM375.573 477.2C374.399 477.2 373.466 476.907 372.773 476.32C372.093 475.72 371.699 474.947 371.593 474H373.713C373.806 474.427 373.993 474.787 374.273 475.08C374.566 475.36 374.999 475.5 375.573 475.5C375.946 475.5 376.266 475.447 376.533 475.34C376.799 475.233 376.999 475.087 377.133 474.9C377.279 474.7 377.353 474.467 377.353 474.2C377.353 473.92 377.279 473.68 377.133 473.48C376.986 473.28 376.766 473.127 376.473 473.02C376.193 472.913 375.846 472.86 375.433 472.86V471.8C376.673 471.773 377.646 471.973 378.353 472.4C379.073 472.813 379.433 473.447 379.433 474.3C379.433 474.9 379.259 475.42 378.913 475.86C378.579 476.287 378.119 476.62 377.533 476.86C376.946 477.087 376.293 477.2 375.573 477.2ZM383.074 474.28C383.074 474.56 383.147 474.793 383.294 474.98C383.454 475.167 383.661 475.313 383.914 475.42C384.167 475.513 384.454 475.56 384.774 475.56C385.241 475.56 385.661 475.487 386.034 475.34C386.407 475.193 386.701 474.96 386.914 474.64C387.127 474.32 387.234 473.893 387.234 473.36L387.554 474.4C387.554 474.987 387.401 475.493 387.094 475.92C386.787 476.333 386.374 476.653 385.854 476.88C385.334 477.093 384.754 477.2 384.114 477.2C383.514 477.2 382.967 477.093 382.474 476.88C381.994 476.667 381.607 476.353 381.314 475.94C381.034 475.513 380.894 474.987 380.894 474.36C380.894 473.733 381.054 473.193 381.374 472.74C381.694 472.287 382.147 471.94 382.734 471.7C383.334 471.46 384.034 471.34 384.834 471.34C385.367 471.34 385.841 471.407 386.254 471.54C386.681 471.673 387.034 471.827 387.314 472C387.594 472.173 387.787 472.327 387.894 472.46V473.6C387.481 473.293 387.061 473.073 386.634 472.94C386.207 472.793 385.714 472.72 385.154 472.72C384.701 472.72 384.314 472.787 383.994 472.92C383.687 473.04 383.454 473.22 383.294 473.46C383.147 473.687 383.074 473.96 383.074 474.28ZM382.594 470.22L381.734 468.68C382.147 468.427 382.674 468.18 383.314 467.94C383.954 467.7 384.687 467.58 385.514 467.58C386.274 467.58 386.941 467.693 387.514 467.92C388.087 468.147 388.534 468.473 388.854 468.9C389.187 469.313 389.354 469.827 389.354 470.44V477H387.234V470.68C387.234 470.253 387.054 469.927 386.694 469.7C386.347 469.46 385.921 469.34 385.414 469.34C384.974 469.34 384.567 469.393 384.194 469.5C383.821 469.607 383.494 469.733 383.214 469.88C382.947 470.013 382.741 470.127 382.594 470.22ZM400.23 469.8L391.97 477.7L392.07 475L400.33 467.1L400.23 469.8ZM394.09 467.8V475.26L391.97 477.7V467.8H394.09ZM400.33 467.1V477H398.21V469.54L400.33 467.1ZM393.03 463.1H394.67C394.67 463.3 394.716 463.507 394.81 463.72C394.916 463.933 395.083 464.113 395.31 464.26C395.536 464.407 395.843 464.48 396.23 464.48C396.616 464.48 396.923 464.407 397.15 464.26C397.376 464.113 397.536 463.933 397.63 463.72C397.736 463.507 397.79 463.3 397.79 463.1H399.45C399.45 463.58 399.323 464.04 399.07 464.48C398.83 464.92 398.47 465.273 397.99 465.54C397.523 465.807 396.936 465.94 396.23 465.94C395.536 465.94 394.95 465.807 394.47 465.54C393.99 465.273 393.63 464.92 393.39 464.48C393.15 464.04 393.03 463.58 393.03 463.1ZM404.119 473.04V471.26H411.159V473.04H404.119ZM409.999 467.8H412.119V477H409.999V467.8ZM403.179 467.8H405.299V477H403.179V467.8Z" fill="white"/>
<path d="M273.451 587.18H266.691V599H264.291V585H275.831V599H273.451V587.18ZM280.918 603.4H278.738V589.8H280.918V603.4ZM288.538 594.4C288.538 595.413 288.331 596.287 287.918 597.02C287.504 597.74 286.958 598.293 286.278 598.68C285.598 599.053 284.858 599.24 284.058 599.24C283.271 599.24 282.584 599.047 281.998 598.66C281.424 598.26 280.978 597.7 280.658 596.98C280.351 596.247 280.198 595.387 280.198 594.4C280.198 593.4 280.351 592.54 280.658 591.82C280.978 591.1 281.424 590.547 281.998 590.16C282.584 589.76 283.271 589.56 284.058 589.56C284.858 589.56 285.598 589.753 286.278 590.14C286.958 590.513 287.504 591.06 287.918 591.78C288.331 592.5 288.538 593.373 288.538 594.4ZM286.298 594.4C286.298 593.787 286.171 593.267 285.918 592.84C285.664 592.4 285.324 592.073 284.898 591.86C284.484 591.633 284.024 591.52 283.518 591.52C283.104 591.52 282.698 591.633 282.298 591.86C281.898 592.073 281.564 592.393 281.298 592.82C281.044 593.247 280.918 593.773 280.918 594.4C280.918 595.027 281.044 595.553 281.298 595.98C281.564 596.407 281.898 596.733 282.298 596.96C282.698 597.173 283.104 597.28 283.518 597.28C284.024 597.28 284.484 597.173 284.898 596.96C285.324 596.733 285.664 596.407 285.918 595.98C286.171 595.54 286.298 595.013 286.298 594.4ZM289.895 594.4C289.895 593.453 290.108 592.62 290.535 591.9C290.975 591.18 291.568 590.62 292.315 590.22C293.062 589.807 293.908 589.6 294.855 589.6C295.802 589.6 296.642 589.807 297.375 590.22C298.122 590.62 298.715 591.18 299.155 591.9C299.595 592.62 299.815 593.453 299.815 594.4C299.815 595.333 299.595 596.167 299.155 596.9C298.715 597.62 298.122 598.187 297.375 598.6C296.642 599 295.802 599.2 294.855 599.2C293.908 599.2 293.062 599 292.315 598.6C291.568 598.187 290.975 597.62 290.535 596.9C290.108 596.167 289.895 595.333 289.895 594.4ZM292.115 594.4C292.115 594.973 292.235 595.48 292.475 595.92C292.715 596.347 293.042 596.687 293.455 596.94C293.868 597.18 294.335 597.3 294.855 597.3C295.362 597.3 295.822 597.18 296.235 596.94C296.662 596.687 296.995 596.347 297.235 595.92C297.475 595.48 297.595 594.973 297.595 594.4C297.595 593.827 297.475 593.32 297.235 592.88C296.995 592.44 296.662 592.1 296.235 591.86C295.822 591.62 295.362 591.5 294.855 591.5C294.335 591.5 293.868 591.62 293.455 591.86C293.042 592.1 292.715 592.44 292.475 592.88C292.235 593.32 292.115 593.827 292.115 594.4ZM301.944 589.8H307.224V591.7H304.084V599H301.944V589.8ZM310.781 603.4H308.601V589.8H310.781V603.4ZM318.401 594.4C318.401 595.413 318.194 596.287 317.781 597.02C317.367 597.74 316.821 598.293 316.141 598.68C315.461 599.053 314.721 599.24 313.921 599.24C313.134 599.24 312.447 599.047 311.861 598.66C311.287 598.26 310.841 597.7 310.521 596.98C310.214 596.247 310.061 595.387 310.061 594.4C310.061 593.4 310.214 592.54 310.521 591.82C310.841 591.1 311.287 590.547 311.861 590.16C312.447 589.76 313.134 589.56 313.921 589.56C314.721 589.56 315.461 589.753 316.141 590.14C316.821 590.513 317.367 591.06 317.781 591.78C318.194 592.5 318.401 593.373 318.401 594.4ZM316.161 594.4C316.161 593.787 316.034 593.267 315.781 592.84C315.527 592.4 315.187 592.073 314.761 591.86C314.347 591.633 313.887 591.52 313.381 591.52C312.967 591.52 312.561 591.633 312.161 591.86C311.761 592.073 311.427 592.393 311.161 592.82C310.907 593.247 310.781 593.773 310.781 594.4C310.781 595.027 310.907 595.553 311.161 595.98C311.427 596.407 311.761 596.733 312.161 596.96C312.561 597.173 312.967 597.28 313.381 597.28C313.887 597.28 314.347 597.173 314.761 596.96C315.187 596.733 315.527 596.407 315.781 595.98C316.034 595.54 316.161 595.013 316.161 594.4ZM321.818 596.28C321.818 596.56 321.891 596.793 322.038 596.98C322.198 597.167 322.405 597.313 322.658 597.42C322.911 597.513 323.198 597.56 323.518 597.56C323.985 597.56 324.405 597.487 324.778 597.34C325.151 597.193 325.445 596.96 325.658 596.64C325.871 596.32 325.978 595.893 325.978 595.36L326.298 596.4C326.298 596.987 326.145 597.493 325.838 597.92C325.531 598.333 325.118 598.653 324.598 598.88C324.078 599.093 323.498 599.2 322.858 599.2C322.258 599.2 321.711 599.093 321.218 598.88C320.738 598.667 320.351 598.353 320.058 597.94C319.778 597.513 319.638 596.987 319.638 596.36C319.638 595.733 319.798 595.193 320.118 594.74C320.438 594.287 320.891 593.94 321.478 593.7C322.078 593.46 322.778 593.34 323.578 593.34C324.111 593.34 324.585 593.407 324.998 593.54C325.425 593.673 325.778 593.827 326.058 594C326.338 594.173 326.531 594.327 326.638 594.46V595.6C326.225 595.293 325.805 595.073 325.378 594.94C324.951 594.793 324.458 594.72 323.898 594.72C323.445 594.72 323.058 594.787 322.738 594.92C322.431 595.04 322.198 595.22 322.038 595.46C321.891 595.687 321.818 595.96 321.818 596.28ZM321.338 592.22L320.478 590.68C320.891 590.427 321.418 590.18 322.058 589.94C322.698 589.7 323.431 589.58 324.258 589.58C325.018 589.58 325.685 589.693 326.258 589.92C326.831 590.147 327.278 590.473 327.598 590.9C327.931 591.313 328.098 591.827 328.098 592.44V599H325.978V592.68C325.978 592.253 325.798 591.927 325.438 591.7C325.091 591.46 324.665 591.34 324.158 591.34C323.718 591.34 323.311 591.393 322.938 591.5C322.565 591.607 322.238 591.733 321.958 591.88C321.691 592.013 321.485 592.127 321.338 592.22ZM339.394 599L337.994 592.1L339.134 589.1L341.694 599H339.394ZM334.894 597.12L339.134 589.1L339.334 592.64L335.494 599.62L334.894 597.12ZM335.494 599.62L331.694 592.64L331.894 589.1L336.094 597.12L335.494 599.62ZM329.354 599L331.894 589.1L333.054 592.1L331.654 599H329.354ZM351.215 589.8L345.215 603.4H342.915L345.315 597.92L341.615 589.8H344.095L347.035 597.08L346.015 597.02L348.895 589.8H351.215ZM353.889 594.2H356.809C357.449 594.2 358.022 594.267 358.529 594.4C359.036 594.533 359.436 594.767 359.729 595.1C360.022 595.433 360.169 595.9 360.169 596.5C360.169 597.193 359.936 597.787 359.469 598.28C359.016 598.76 358.262 599 357.209 599H353.889V597.4H356.549C357.082 597.4 357.469 597.287 357.709 597.06C357.949 596.833 358.069 596.567 358.069 596.26C358.069 596.1 358.036 595.953 357.969 595.82C357.902 595.687 357.809 595.567 357.689 595.46C357.582 595.353 357.429 595.273 357.229 595.22C357.042 595.167 356.816 595.14 356.549 595.14H353.889V594.2ZM353.889 594.6V593.56H356.349C356.549 593.56 356.729 593.533 356.889 593.48C357.062 593.427 357.202 593.347 357.309 593.24C357.416 593.133 357.502 593.013 357.569 592.88C357.636 592.747 357.669 592.607 357.669 592.46C357.669 592.153 357.549 591.9 357.309 591.7C357.082 591.5 356.762 591.4 356.349 591.4H353.889V589.8H356.609C357.182 589.8 357.702 589.887 358.169 590.06C358.649 590.22 359.036 590.487 359.329 590.86C359.622 591.22 359.769 591.7 359.769 592.3C359.769 592.82 359.622 593.253 359.329 593.6C359.036 593.933 358.649 594.187 358.169 594.36C357.702 594.52 357.182 594.6 356.609 594.6H353.889ZM352.629 589.8H354.749V599H352.629V589.8ZM363.517 596.28C363.517 596.56 363.591 596.793 363.737 596.98C363.897 597.167 364.104 597.313 364.357 597.42C364.611 597.513 364.897 597.56 365.217 597.56C365.684 597.56 366.104 597.487 366.477 597.34C366.851 597.193 367.144 596.96 367.357 596.64C367.571 596.32 367.677 595.893 367.677 595.36L367.997 596.4C367.997 596.987 367.844 597.493 367.537 597.92C367.231 598.333 366.817 598.653 366.297 598.88C365.777 599.093 365.197 599.2 364.557 599.2C363.957 599.2 363.411 599.093 362.917 598.88C362.437 598.667 362.051 598.353 361.757 597.94C361.477 597.513 361.337 596.987 361.337 596.36C361.337 595.733 361.497 595.193 361.817 594.74C362.137 594.287 362.591 593.94 363.177 593.7C363.777 593.46 364.477 593.34 365.277 593.34C365.811 593.34 366.284 593.407 366.697 593.54C367.124 593.673 367.477 593.827 367.757 594C368.037 594.173 368.231 594.327 368.337 594.46V595.6C367.924 595.293 367.504 595.073 367.077 594.94C366.651 594.793 366.157 594.72 365.597 594.72C365.144 594.72 364.757 594.787 364.437 594.92C364.131 595.04 363.897 595.22 363.737 595.46C363.591 595.687 363.517 595.96 363.517 596.28ZM363.037 592.22L362.177 590.68C362.591 590.427 363.117 590.18 363.757 589.94C364.397 589.7 365.131 589.58 365.957 589.58C366.717 589.58 367.384 589.693 367.957 589.92C368.531 590.147 368.977 590.473 369.297 590.9C369.631 591.313 369.797 591.827 369.797 592.44V599H367.677V592.68C367.677 592.253 367.497 591.927 367.137 591.7C366.791 591.46 366.364 591.34 365.857 591.34C365.417 591.34 365.011 591.393 364.637 591.5C364.264 591.607 363.937 591.733 363.657 591.88C363.391 592.013 363.184 592.127 363.037 592.22ZM373.273 595.04V593.26H380.313V595.04H373.273ZM379.153 589.8H381.273V599H379.153V589.8ZM372.333 589.8H374.453V599H372.333V589.8ZM384.972 595.04V593.26H392.012V595.04H384.972ZM390.852 589.8H392.972V599H390.852V589.8ZM384.032 589.8H386.152V599H384.032V589.8ZM397.612 599H395.312L398.472 594.44H400.672L397.612 599ZM403.592 599H401.412V589.8H403.592V599ZM402.212 593.82V595.46H399.352C398.725 595.46 398.145 595.367 397.612 595.18C397.078 594.98 396.652 594.673 396.332 594.26C396.012 593.833 395.852 593.28 395.852 592.6C395.852 591.92 396.012 591.38 396.332 590.98C396.652 590.567 397.078 590.267 397.612 590.08C398.145 589.893 398.725 589.8 399.352 589.8H402.212V591.6H399.532C399.198 591.6 398.918 591.64 398.692 591.72C398.465 591.8 398.292 591.92 398.172 592.08C398.052 592.24 397.992 592.447 397.992 592.7C397.992 592.967 398.052 593.18 398.172 593.34C398.292 593.5 398.465 593.62 398.692 593.7C398.918 593.78 399.198 593.82 399.532 593.82H402.212ZM413.264 594.2H416.184C416.824 594.2 417.397 594.267 417.904 594.4C418.411 594.533 418.811 594.767 419.104 595.1C419.397 595.433 419.544 595.9 419.544 596.5C419.544 597.193 419.311 597.787 418.844 598.28C418.391 598.76 417.637 599 416.584 599H413.264V597.4H415.924C416.457 597.4 416.844 597.287 417.084 597.06C417.324 596.833 417.444 596.567 417.444 596.26C417.444 596.1 417.411 595.953 417.344 595.82C417.277 595.687 417.184 595.567 417.064 595.46C416.957 595.353 416.804 595.273 416.604 595.22C416.417 595.167 416.191 595.14 415.924 595.14H413.264V594.2ZM413.264 594.6V593.56H415.724C415.924 593.56 416.104 593.533 416.264 593.48C416.437 593.427 416.577 593.347 416.684 593.24C416.791 593.133 416.877 593.013 416.944 592.88C417.011 592.747 417.044 592.607 417.044 592.46C417.044 592.153 416.924 591.9 416.684 591.7C416.457 591.5 416.137 591.4 415.724 591.4H413.264V589.8H415.984C416.557 589.8 417.077 589.887 417.544 590.06C418.024 590.22 418.411 590.487 418.704 590.86C418.997 591.22 419.144 591.7 419.144 592.3C419.144 592.82 418.997 593.253 418.704 593.6C418.411 593.933 418.024 594.187 417.544 594.36C417.077 594.52 416.557 594.6 415.984 594.6H413.264ZM412.004 589.8H414.124V599H412.004V589.8ZM423.932 588.22V599H421.812V588.22H423.932ZM422.892 584.12C423.212 584.12 423.492 584.213 423.732 584.4C423.972 584.587 424.092 584.9 424.092 585.34C424.092 585.767 423.972 586.08 423.732 586.28C423.492 586.467 423.212 586.56 422.892 586.56C422.546 586.56 422.252 586.467 422.012 586.28C421.786 586.08 421.672 585.767 421.672 585.34C421.672 584.9 421.786 584.587 422.012 584.4C422.252 584.213 422.546 584.12 422.892 584.12ZM430.642 594.4V593.44C431.175 593.44 431.555 593.34 431.782 593.14C432.022 592.927 432.142 592.667 432.142 592.36C432.142 592.053 432.022 591.807 431.782 591.62C431.555 591.433 431.242 591.34 430.842 591.34C430.508 591.34 430.228 591.407 430.002 591.54C429.775 591.66 429.602 591.82 429.482 592.02C429.375 592.207 429.322 592.407 429.322 592.62H427.242C427.242 592.047 427.395 591.533 427.702 591.08C428.008 590.627 428.428 590.267 428.962 590C429.508 589.733 430.128 589.6 430.822 589.6C431.475 589.6 432.062 589.713 432.582 589.94C433.102 590.167 433.508 590.473 433.802 590.86C434.095 591.247 434.242 591.673 434.242 592.14C434.242 592.807 433.935 593.36 433.322 593.8C432.708 594.227 431.815 594.427 430.642 594.4ZM430.782 599.2C429.608 599.2 428.675 598.907 427.982 598.32C427.302 597.72 426.908 596.947 426.802 596H428.922C429.015 596.427 429.202 596.787 429.482 597.08C429.775 597.36 430.208 597.5 430.782 597.5C431.155 597.5 431.475 597.447 431.742 597.34C432.008 597.233 432.208 597.087 432.342 596.9C432.488 596.7 432.562 596.467 432.562 596.2C432.562 595.92 432.488 595.68 432.342 595.48C432.195 595.28 431.975 595.127 431.682 595.02C431.402 594.913 431.055 594.86 430.642 594.86V593.8C431.882 593.773 432.855 593.973 433.562 594.4C434.282 594.813 434.642 595.447 434.642 596.3C434.642 596.9 434.468 597.42 434.122 597.86C433.788 598.287 433.328 598.62 432.742 598.86C432.155 599.087 431.502 599.2 430.782 599.2ZM444.965 589.8L438.965 603.4H436.665L439.065 597.92L435.365 589.8H437.845L440.785 597.08L439.765 597.02L442.645 589.8H444.965ZM447.619 596.28C447.619 596.56 447.692 596.793 447.839 596.98C447.999 597.167 448.206 597.313 448.459 597.42C448.712 597.513 448.999 597.56 449.319 597.56C449.786 597.56 450.206 597.487 450.579 597.34C450.952 597.193 451.246 596.96 451.459 596.64C451.672 596.32 451.779 595.893 451.779 595.36L452.099 596.4C452.099 596.987 451.946 597.493 451.639 597.92C451.332 598.333 450.919 598.653 450.399 598.88C449.879 599.093 449.299 599.2 448.659 599.2C448.059 599.2 447.512 599.093 447.019 598.88C446.539 598.667 446.152 598.353 445.859 597.94C445.579 597.513 445.439 596.987 445.439 596.36C445.439 595.733 445.599 595.193 445.919 594.74C446.239 594.287 446.692 593.94 447.279 593.7C447.879 593.46 448.579 593.34 449.379 593.34C449.912 593.34 450.386 593.407 450.799 593.54C451.226 593.673 451.579 593.827 451.859 594C452.139 594.173 452.332 594.327 452.439 594.46V595.6C452.026 595.293 451.606 595.073 451.179 594.94C450.752 594.793 450.259 594.72 449.699 594.72C449.246 594.72 448.859 594.787 448.539 594.92C448.232 595.04 447.999 595.22 447.839 595.46C447.692 595.687 447.619 595.96 447.619 596.28ZM447.139 592.22L446.279 590.68C446.692 590.427 447.219 590.18 447.859 589.94C448.499 589.7 449.232 589.58 450.059 589.58C450.819 589.58 451.486 589.693 452.059 589.92C452.632 590.147 453.079 590.473 453.399 590.9C453.732 591.313 453.899 591.827 453.899 592.44V599H451.779V592.68C451.779 592.253 451.599 591.927 451.239 591.7C450.892 591.46 450.466 591.34 449.959 591.34C449.519 591.34 449.112 591.393 448.739 591.5C448.366 591.607 448.039 591.733 447.759 591.88C447.492 592.013 447.286 592.127 447.139 592.22ZM465.135 589.8V599H463.015V591.8H458.835V595.8C458.835 596.52 458.715 597.12 458.475 597.6C458.235 598.067 457.848 598.42 457.315 598.66C456.795 598.887 456.108 599 455.255 599V597.04C455.655 597.04 455.995 596.933 456.275 596.72C456.568 596.507 456.715 596.1 456.715 595.5V589.8H465.135ZM468.154 589.8H470.334V599H468.154V589.8ZM469.674 594.76V593.14H472.534C473.481 593.14 474.274 593.373 474.914 593.84C475.568 594.293 475.894 595.013 475.894 596C475.894 596.653 475.748 597.207 475.454 597.66C475.161 598.1 474.761 598.433 474.254 598.66C473.748 598.887 473.174 599 472.534 599H469.674V597.22H472.314C472.634 597.22 472.901 597.173 473.114 597.08C473.341 596.987 473.508 596.847 473.614 596.66C473.734 596.473 473.794 596.253 473.794 596C473.794 595.6 473.668 595.293 473.414 595.08C473.174 594.867 472.808 594.76 472.314 594.76H469.674ZM479.211 595.04V593.26H486.251V595.04H479.211ZM485.091 589.8H487.211V599H485.091V589.8ZM478.271 589.8H480.391V599H478.271V589.8ZM489.27 594.4C489.27 593.453 489.483 592.62 489.91 591.9C490.35 591.18 490.943 590.62 491.69 590.22C492.437 589.807 493.283 589.6 494.23 589.6C495.177 589.6 496.017 589.807 496.75 590.22C497.497 590.62 498.09 591.18 498.53 591.9C498.97 592.62 499.19 593.453 499.19 594.4C499.19 595.333 498.97 596.167 498.53 596.9C498.09 597.62 497.497 598.187 496.75 598.6C496.017 599 495.177 599.2 494.23 599.2C493.283 599.2 492.437 599 491.69 598.6C490.943 598.187 490.35 597.62 489.91 596.9C489.483 596.167 489.27 595.333 489.27 594.4ZM491.49 594.4C491.49 594.973 491.61 595.48 491.85 595.92C492.09 596.347 492.417 596.687 492.83 596.94C493.243 597.18 493.71 597.3 494.23 597.3C494.737 597.3 495.197 597.18 495.61 596.94C496.037 596.687 496.37 596.347 496.61 595.92C496.85 595.48 496.97 594.973 496.97 594.4C496.97 593.827 496.85 593.32 496.61 592.88C496.37 592.44 496.037 592.1 495.61 591.86C495.197 591.62 494.737 591.5 494.23 591.5C493.71 591.5 493.243 591.62 492.83 591.86C492.417 592.1 492.09 592.44 491.85 592.88C491.61 593.32 491.49 593.827 491.49 594.4ZM503.639 599H501.519V588.22H503.639V599ZM499.599 585.36C499.599 584.973 499.706 584.7 499.919 584.54C500.133 584.367 500.379 584.28 500.659 584.28C500.953 584.28 501.206 584.367 501.419 584.54C501.633 584.7 501.739 584.967 501.739 585.34C501.739 585.713 501.633 585.993 501.419 586.18C501.206 586.353 500.953 586.44 500.659 586.44C500.379 586.44 500.133 586.353 499.919 586.18C499.706 585.993 499.599 585.72 499.599 585.36ZM503.419 585.36C503.419 584.973 503.519 584.7 503.719 584.54C503.933 584.367 504.186 584.28 504.479 584.28C504.759 584.28 505.006 584.367 505.219 584.54C505.433 584.7 505.539 584.967 505.539 585.34C505.539 585.713 505.433 585.993 505.219 586.18C505.006 586.353 504.759 586.44 504.479 586.44C504.186 586.44 503.933 586.353 503.719 586.18C503.519 585.993 503.419 585.72 503.419 585.36ZM353.424 625.4L353.764 623.5H356.564V625.4H353.424ZM355.424 618.8H357.604V628H355.424V618.8ZM352.004 618.8V621.54C352.004 622.007 352.058 622.387 352.164 622.68C352.271 622.96 352.451 623.167 352.704 623.3C352.971 623.433 353.324 623.5 353.764 623.5L353.424 625.4C352.504 625.4 351.778 625.26 351.244 624.98C350.724 624.687 350.358 624.247 350.144 623.66C349.931 623.073 349.824 622.333 349.824 621.44V618.8H352.004ZM361.76 625.28C361.76 625.56 361.833 625.793 361.98 625.98C362.14 626.167 362.346 626.313 362.6 626.42C362.853 626.513 363.14 626.56 363.46 626.56C363.926 626.56 364.346 626.487 364.72 626.34C365.093 626.193 365.386 625.96 365.6 625.64C365.813 625.32 365.92 624.893 365.92 624.36L366.24 625.4C366.24 625.987 366.086 626.493 365.78 626.92C365.473 627.333 365.06 627.653 364.54 627.88C364.02 628.093 363.44 628.2 362.8 628.2C362.2 628.2 361.653 628.093 361.16 627.88C360.68 627.667 360.293 627.353 360 626.94C359.72 626.513 359.58 625.987 359.58 625.36C359.58 624.733 359.74 624.193 360.06 623.74C360.38 623.287 360.833 622.94 361.42 622.7C362.02 622.46 362.72 622.34 363.52 622.34C364.053 622.34 364.526 622.407 364.94 622.54C365.366 622.673 365.72 622.827 366 623C366.28 623.173 366.473 623.327 366.58 623.46V624.6C366.166 624.293 365.746 624.073 365.32 623.94C364.893 623.793 364.4 623.72 363.84 623.72C363.386 623.72 363 623.787 362.68 623.92C362.373 624.04 362.14 624.22 361.98 624.46C361.833 624.687 361.76 624.96 361.76 625.28ZM361.28 621.22L360.42 619.68C360.833 619.427 361.36 619.18 362 618.94C362.64 618.7 363.373 618.58 364.2 618.58C364.96 618.58 365.626 618.693 366.2 618.92C366.773 619.147 367.22 619.473 367.54 619.9C367.873 620.313 368.04 620.827 368.04 621.44V628H365.92V621.68C365.92 621.253 365.74 620.927 365.38 620.7C365.033 620.46 364.606 620.34 364.1 620.34C363.66 620.34 363.253 620.393 362.88 620.5C362.506 620.607 362.18 620.733 361.9 620.88C361.633 621.013 361.426 621.127 361.28 621.22ZM372.015 623.4C372.015 623.987 372.142 624.5 372.395 624.94C372.649 625.367 372.989 625.707 373.415 625.96C373.855 626.213 374.342 626.34 374.875 626.34C375.315 626.34 375.735 626.273 376.135 626.14C376.535 626.007 376.889 625.82 377.195 625.58C377.502 625.34 377.729 625.073 377.875 624.78V627.16C377.555 627.48 377.122 627.733 376.575 627.92C376.029 628.107 375.429 628.2 374.775 628.2C373.829 628.2 372.975 628 372.215 627.6C371.469 627.187 370.875 626.62 370.435 625.9C370.009 625.167 369.795 624.333 369.795 623.4C369.795 622.453 370.009 621.62 370.435 620.9C370.875 620.18 371.469 619.62 372.215 619.22C372.975 618.807 373.829 618.6 374.775 618.6C375.429 618.6 376.029 618.693 376.575 618.88C377.122 619.067 377.555 619.32 377.875 619.64V622.02C377.729 621.713 377.495 621.447 377.175 621.22C376.869 620.98 376.515 620.793 376.115 620.66C375.715 620.527 375.302 620.46 374.875 620.46C374.342 620.46 373.855 620.587 373.415 620.84C372.989 621.093 372.649 621.44 372.395 621.88C372.142 622.32 372.015 622.827 372.015 623.4ZM378.983 618.8H384.803V620.7H378.983V618.8ZM380.843 619.2H382.963V628H380.843V619.2ZM394.618 620.8L386.358 628.7L386.458 626L394.718 618.1L394.618 620.8ZM388.478 618.8V626.26L386.358 628.7V618.8H388.478ZM394.718 618.1V628H392.598V620.54L394.718 618.1ZM398.508 624.04V622.26H405.548V624.04H398.508ZM404.388 618.8H406.508V628H404.388V618.8ZM397.568 618.8H399.688V628H397.568V618.8ZM417.607 620.8L409.347 628.7L409.447 626L417.707 618.1L417.607 620.8ZM411.467 618.8V626.26L409.347 628.7V618.8H411.467ZM417.707 618.1V628H415.587V620.54L417.707 618.1Z" fill="white"/>
<path d="M324.852 733.18H318.092V745H315.692V731H327.232V745H324.852V733.18ZM332.318 749.4H330.138V735.8H332.318V749.4ZM339.938 740.4C339.938 741.413 339.731 742.287 339.318 743.02C338.905 743.74 338.358 744.293 337.678 744.68C336.998 745.053 336.258 745.24 335.458 745.24C334.671 745.24 333.985 745.047 333.398 744.66C332.825 744.26 332.378 743.7 332.058 742.98C331.751 742.247 331.598 741.387 331.598 740.4C331.598 739.4 331.751 738.54 332.058 737.82C332.378 737.1 332.825 736.547 333.398 736.16C333.985 735.76 334.671 735.56 335.458 735.56C336.258 735.56 336.998 735.753 337.678 736.14C338.358 736.513 338.905 737.06 339.318 737.78C339.731 738.5 339.938 739.373 339.938 740.4ZM337.698 740.4C337.698 739.787 337.571 739.267 337.318 738.84C337.065 738.4 336.725 738.073 336.298 737.86C335.885 737.633 335.425 737.52 334.918 737.52C334.505 737.52 334.098 737.633 333.698 737.86C333.298 738.073 332.965 738.393 332.698 738.82C332.445 739.247 332.318 739.773 332.318 740.4C332.318 741.027 332.445 741.553 332.698 741.98C332.965 742.407 333.298 742.733 333.698 742.96C334.098 743.173 334.505 743.28 334.918 743.28C335.425 743.28 335.885 743.173 336.298 742.96C336.725 742.733 337.065 742.407 337.318 741.98C337.571 741.54 337.698 741.013 337.698 740.4ZM341.295 740.4C341.295 739.453 341.509 738.62 341.935 737.9C342.375 737.18 342.969 736.62 343.715 736.22C344.462 735.807 345.309 735.6 346.255 735.6C347.202 735.6 348.042 735.807 348.775 736.22C349.522 736.62 350.115 737.18 350.555 737.9C350.995 738.62 351.215 739.453 351.215 740.4C351.215 741.333 350.995 742.167 350.555 742.9C350.115 743.62 349.522 744.187 348.775 744.6C348.042 745 347.202 745.2 346.255 745.2C345.309 745.2 344.462 745 343.715 744.6C342.969 744.187 342.375 743.62 341.935 742.9C341.509 742.167 341.295 741.333 341.295 740.4ZM343.515 740.4C343.515 740.973 343.635 741.48 343.875 741.92C344.115 742.347 344.442 742.687 344.855 742.94C345.269 743.18 345.735 743.3 346.255 743.3C346.762 743.3 347.222 743.18 347.635 742.94C348.062 742.687 348.395 742.347 348.635 741.92C348.875 741.48 348.995 740.973 348.995 740.4C348.995 739.827 348.875 739.32 348.635 738.88C348.395 738.44 348.062 738.1 347.635 737.86C347.222 737.62 346.762 737.5 346.255 737.5C345.735 737.5 345.269 737.62 344.855 737.86C344.442 738.1 344.115 738.44 343.875 738.88C343.635 739.32 343.515 739.827 343.515 740.4ZM353.345 735.8H358.625V737.7H355.485V745H353.345V735.8ZM362.181 749.4H360.001V735.8H362.181V749.4ZM369.801 740.4C369.801 741.413 369.595 742.287 369.181 743.02C368.768 743.74 368.221 744.293 367.541 744.68C366.861 745.053 366.121 745.24 365.321 745.24C364.535 745.24 363.848 745.047 363.261 744.66C362.688 744.26 362.241 743.7 361.921 742.98C361.615 742.247 361.461 741.387 361.461 740.4C361.461 739.4 361.615 738.54 361.921 737.82C362.241 737.1 362.688 736.547 363.261 736.16C363.848 735.76 364.535 735.56 365.321 735.56C366.121 735.56 366.861 735.753 367.541 736.14C368.221 736.513 368.768 737.06 369.181 737.78C369.595 738.5 369.801 739.373 369.801 740.4ZM367.561 740.4C367.561 739.787 367.435 739.267 367.181 738.84C366.928 738.4 366.588 738.073 366.161 737.86C365.748 737.633 365.288 737.52 364.781 737.52C364.368 737.52 363.961 737.633 363.561 737.86C363.161 738.073 362.828 738.393 362.561 738.82C362.308 739.247 362.181 739.773 362.181 740.4C362.181 741.027 362.308 741.553 362.561 741.98C362.828 742.407 363.161 742.733 363.561 742.96C363.961 743.173 364.368 743.28 364.781 743.28C365.288 743.28 365.748 743.173 366.161 742.96C366.588 742.733 366.928 742.407 367.181 741.98C367.435 741.54 367.561 741.013 367.561 740.4ZM373.219 742.28C373.219 742.56 373.292 742.793 373.439 742.98C373.599 743.167 373.805 743.313 374.059 743.42C374.312 743.513 374.599 743.56 374.919 743.56C375.385 743.56 375.805 743.487 376.179 743.34C376.552 743.193 376.845 742.96 377.059 742.64C377.272 742.32 377.379 741.893 377.379 741.36L377.699 742.4C377.699 742.987 377.545 743.493 377.239 743.92C376.932 744.333 376.519 744.653 375.999 744.88C375.479 745.093 374.899 745.2 374.259 745.2C373.659 745.2 373.112 745.093 372.619 744.88C372.139 744.667 371.752 744.353 371.459 743.94C371.179 743.513 371.039 742.987 371.039 742.36C371.039 741.733 371.199 741.193 371.519 740.74C371.839 740.287 372.292 739.94 372.879 739.7C373.479 739.46 374.179 739.34 374.979 739.34C375.512 739.34 375.985 739.407 376.399 739.54C376.825 739.673 377.179 739.827 377.459 740C377.739 740.173 377.932 740.327 378.039 740.46V741.6C377.625 741.293 377.205 741.073 376.779 740.94C376.352 740.793 375.859 740.72 375.299 740.72C374.845 740.72 374.459 740.787 374.139 740.92C373.832 741.04 373.599 741.22 373.439 741.46C373.292 741.687 373.219 741.96 373.219 742.28ZM372.739 738.22L371.879 736.68C372.292 736.427 372.819 736.18 373.459 735.94C374.099 735.7 374.832 735.58 375.659 735.58C376.419 735.58 377.085 735.693 377.659 735.92C378.232 736.147 378.679 736.473 378.999 736.9C379.332 737.313 379.499 737.827 379.499 738.44V745H377.379V738.68C377.379 738.253 377.199 737.927 376.839 737.7C376.492 737.46 376.065 737.34 375.559 737.34C375.119 737.34 374.712 737.393 374.339 737.5C373.965 737.607 373.639 737.733 373.359 737.88C373.092 738.013 372.885 738.127 372.739 738.22ZM390.794 745L389.394 738.1L390.534 735.1L393.094 745H390.794ZM386.294 743.12L390.534 735.1L390.734 738.64L386.894 745.62L386.294 743.12ZM386.894 745.62L383.094 738.64L383.294 735.1L387.494 743.12L386.894 745.62ZM380.754 745L383.294 735.1L384.454 738.1L383.054 745H380.754ZM402.616 735.8L396.616 749.4H394.316L396.716 743.92L393.016 735.8H395.496L398.436 743.08L397.416 743.02L400.296 735.8H402.616ZM405.289 740.2H408.209C408.849 740.2 409.423 740.267 409.929 740.4C410.436 740.533 410.836 740.767 411.129 741.1C411.423 741.433 411.569 741.9 411.569 742.5C411.569 743.193 411.336 743.787 410.869 744.28C410.416 744.76 409.663 745 408.609 745H405.289V743.4H407.949C408.483 743.4 408.869 743.287 409.109 743.06C409.349 742.833 409.469 742.567 409.469 742.26C409.469 742.1 409.436 741.953 409.369 741.82C409.303 741.687 409.209 741.567 409.089 741.46C408.983 741.353 408.829 741.273 408.629 741.22C408.443 741.167 408.216 741.14 407.949 741.14H405.289V740.2ZM405.289 740.6V739.56H407.749C407.949 739.56 408.129 739.533 408.289 739.48C408.463 739.427 408.603 739.347 408.709 739.24C408.816 739.133 408.903 739.013 408.969 738.88C409.036 738.747 409.069 738.607 409.069 738.46C409.069 738.153 408.949 737.9 408.709 737.7C408.483 737.5 408.163 737.4 407.749 737.4H405.289V735.8H408.009C408.583 735.8 409.103 735.887 409.569 736.06C410.049 736.22 410.436 736.487 410.729 736.86C411.023 737.22 411.169 737.7 411.169 738.3C411.169 738.82 411.023 739.253 410.729 739.6C410.436 739.933 410.049 740.187 409.569 740.36C409.103 740.52 408.583 740.6 408.009 740.6H405.289ZM404.029 735.8H406.149V745H404.029V735.8ZM414.918 742.28C414.918 742.56 414.991 742.793 415.138 742.98C415.298 743.167 415.504 743.313 415.758 743.42C416.011 743.513 416.298 743.56 416.618 743.56C417.084 743.56 417.504 743.487 417.878 743.34C418.251 743.193 418.544 742.96 418.758 742.64C418.971 742.32 419.078 741.893 419.078 741.36L419.398 742.4C419.398 742.987 419.244 743.493 418.938 743.92C418.631 744.333 418.218 744.653 417.698 744.88C417.178 745.093 416.598 745.2 415.958 745.2C415.358 745.2 414.811 745.093 414.318 744.88C413.838 744.667 413.451 744.353 413.158 743.94C412.878 743.513 412.738 742.987 412.738 742.36C412.738 741.733 412.898 741.193 413.218 740.74C413.538 740.287 413.991 739.94 414.578 739.7C415.178 739.46 415.878 739.34 416.678 739.34C417.211 739.34 417.684 739.407 418.098 739.54C418.524 739.673 418.878 739.827 419.158 740C419.438 740.173 419.631 740.327 419.738 740.46V741.6C419.324 741.293 418.904 741.073 418.478 740.94C418.051 740.793 417.558 740.72 416.998 740.72C416.544 740.72 416.158 740.787 415.838 740.92C415.531 741.04 415.298 741.22 415.138 741.46C414.991 741.687 414.918 741.96 414.918 742.28ZM414.438 738.22L413.578 736.68C413.991 736.427 414.518 736.18 415.158 735.94C415.798 735.7 416.531 735.58 417.358 735.58C418.118 735.58 418.784 735.693 419.358 735.92C419.931 736.147 420.378 736.473 420.698 736.9C421.031 737.313 421.198 737.827 421.198 738.44V745H419.078V738.68C419.078 738.253 418.898 737.927 418.538 737.7C418.191 737.46 417.764 737.34 417.258 737.34C416.818 737.34 416.411 737.393 416.038 737.5C415.664 737.607 415.338 737.733 415.058 737.88C414.791 738.013 414.584 738.127 414.438 738.22ZM424.674 741.04V739.26H431.714V741.04H424.674ZM430.554 735.8H432.674V745H430.554V735.8ZM423.734 735.8H425.854V745H423.734V735.8ZM436.373 741.04V739.26H443.413V741.04H436.373ZM442.253 735.8H444.373V745H442.253V735.8ZM435.433 735.8H437.553V745H435.433V735.8ZM449.012 745H446.712L449.872 740.44H452.072L449.012 745ZM454.992 745H452.812V735.8H454.992V745ZM453.612 739.82V741.46H450.752C450.125 741.46 449.545 741.367 449.012 741.18C448.479 740.98 448.052 740.673 447.732 740.26C447.412 739.833 447.252 739.28 447.252 738.6C447.252 737.92 447.412 737.38 447.732 736.98C448.052 736.567 448.479 736.267 449.012 736.08C449.545 735.893 450.125 735.8 450.752 735.8H453.612V737.6H450.932C450.599 737.6 450.319 737.64 450.092 737.72C449.865 737.8 449.692 737.92 449.572 738.08C449.452 738.24 449.392 738.447 449.392 738.7C449.392 738.967 449.452 739.18 449.572 739.34C449.692 739.5 449.865 739.62 450.092 739.7C450.319 739.78 450.599 739.82 450.932 739.82H453.612ZM295.26 769.2H298.18C298.82 769.2 299.393 769.267 299.9 769.4C300.407 769.533 300.807 769.767 301.1 770.1C301.393 770.433 301.54 770.9 301.54 771.5C301.54 772.193 301.307 772.787 300.84 773.28C300.387 773.76 299.633 774 298.58 774H295.26V772.4H297.92C298.453 772.4 298.84 772.287 299.08 772.06C299.32 771.833 299.44 771.567 299.44 771.26C299.44 771.1 299.407 770.953 299.34 770.82C299.273 770.687 299.18 770.567 299.06 770.46C298.953 770.353 298.8 770.273 298.6 770.22C298.413 770.167 298.187 770.14 297.92 770.14H295.26V769.2ZM295.26 769.6V768.56H297.72C297.92 768.56 298.1 768.533 298.26 768.48C298.433 768.427 298.573 768.347 298.68 768.24C298.787 768.133 298.873 768.013 298.94 767.88C299.007 767.747 299.04 767.607 299.04 767.46C299.04 767.153 298.92 766.9 298.68 766.7C298.453 766.5 298.133 766.4 297.72 766.4H295.26V764.8H297.98C298.553 764.8 299.073 764.887 299.54 765.06C300.02 765.22 300.407 765.487 300.7 765.86C300.993 766.22 301.14 766.7 301.14 767.3C301.14 767.82 300.993 768.253 300.7 768.6C300.407 768.933 300.02 769.187 299.54 769.36C299.073 769.52 298.553 769.6 297.98 769.6H295.26ZM294 764.8H296.12V774H294V764.8ZM304.468 770.04V768.26H311.508V770.04H304.468ZM310.348 764.8H312.468V774H310.348V764.8ZM303.528 764.8H305.648V774H303.528V764.8ZM323.368 764.8L317.368 778.4H315.068L317.468 772.92L313.768 764.8H316.248L319.188 772.08L318.168 772.02L321.048 764.8H323.368ZM323.381 764.8H329.201V766.7H323.381V764.8ZM325.241 765.2H327.361V774H325.241V765.2ZM332.777 778.4H330.597V764.8H332.777V778.4ZM340.397 769.4C340.397 770.413 340.19 771.287 339.777 772.02C339.364 772.74 338.817 773.293 338.137 773.68C337.457 774.053 336.717 774.24 335.917 774.24C335.13 774.24 334.444 774.047 333.857 773.66C333.284 773.26 332.837 772.7 332.517 771.98C332.21 771.247 332.057 770.387 332.057 769.4C332.057 768.4 332.21 767.54 332.517 766.82C332.837 766.1 333.284 765.547 333.857 765.16C334.444 764.76 335.13 764.56 335.917 764.56C336.717 764.56 337.457 764.753 338.137 765.14C338.817 765.513 339.364 766.06 339.777 766.78C340.19 767.5 340.397 768.373 340.397 769.4ZM338.157 769.4C338.157 768.787 338.03 768.267 337.777 767.84C337.524 767.4 337.184 767.073 336.757 766.86C336.344 766.633 335.884 766.52 335.377 766.52C334.964 766.52 334.557 766.633 334.157 766.86C333.757 767.073 333.424 767.393 333.157 767.82C332.904 768.247 332.777 768.773 332.777 769.4C332.777 770.027 332.904 770.553 333.157 770.98C333.424 771.407 333.757 771.733 334.157 771.96C334.557 772.173 334.964 772.28 335.377 772.28C335.884 772.28 336.344 772.173 336.757 771.96C337.184 771.733 337.524 771.407 337.777 770.98C338.03 770.54 338.157 770.013 338.157 769.4ZM344.854 763.22V774H342.734V763.22H344.854ZM343.814 759.12C344.134 759.12 344.414 759.213 344.654 759.4C344.894 759.587 345.014 759.9 345.014 760.34C345.014 760.767 344.894 761.08 344.654 761.28C344.414 761.467 344.134 761.56 343.814 761.56C343.468 761.56 343.174 761.467 342.934 761.28C342.708 761.08 342.594 760.767 342.594 760.34C342.594 759.9 342.708 759.587 342.934 759.4C343.174 759.213 343.468 759.12 343.814 759.12ZM355.603 772.1H359.083V764.8H361.203V774H347.903V764.8H350.023V772.1H353.483V764.8H355.603V772.1ZM364.898 770.04V768.26H371.938V770.04H364.898ZM370.778 764.8H372.898V774H370.778V764.8ZM363.958 764.8H366.078V774H363.958V764.8ZM375.697 764.8H377.877V774H375.697V764.8ZM377.217 769.76V768.14H380.077C381.024 768.14 381.817 768.373 382.457 768.84C383.111 769.293 383.437 770.013 383.437 771C383.437 771.653 383.291 772.207 382.997 772.66C382.704 773.1 382.304 773.433 381.797 773.66C381.291 773.887 380.717 774 380.077 774H377.217V772.22H379.857C380.177 772.22 380.444 772.173 380.657 772.08C380.884 771.987 381.051 771.847 381.157 771.66C381.277 771.473 381.337 771.253 381.337 771C381.337 770.6 381.211 770.293 380.957 770.08C380.717 769.867 380.351 769.76 379.857 769.76H377.217ZM385.114 769.4C385.114 768.453 385.327 767.62 385.754 766.9C386.194 766.18 386.787 765.62 387.534 765.22C388.28 764.807 389.127 764.6 390.074 764.6C391.02 764.6 391.86 764.807 392.594 765.22C393.34 765.62 393.934 766.18 394.374 766.9C394.814 767.62 395.034 768.453 395.034 769.4C395.034 770.333 394.814 771.167 394.374 771.9C393.934 772.62 393.34 773.187 392.594 773.6C391.86 774 391.02 774.2 390.074 774.2C389.127 774.2 388.28 774 387.534 773.6C386.787 773.187 386.194 772.62 385.754 771.9C385.327 771.167 385.114 770.333 385.114 769.4ZM387.334 769.4C387.334 769.973 387.454 770.48 387.694 770.92C387.934 771.347 388.26 771.687 388.674 771.94C389.087 772.18 389.554 772.3 390.074 772.3C390.58 772.3 391.04 772.18 391.454 771.94C391.88 771.687 392.214 771.347 392.454 770.92C392.694 770.48 392.814 769.973 392.814 769.4C392.814 768.827 392.694 768.32 392.454 767.88C392.214 767.44 391.88 767.1 391.454 766.86C391.04 766.62 390.58 766.5 390.074 766.5C389.554 766.5 389.087 766.62 388.674 766.86C388.26 767.1 387.934 767.44 387.694 767.88C387.454 768.32 387.334 768.827 387.334 769.4ZM399.483 774H397.363V763.22H399.483V774ZM395.443 760.36C395.443 759.973 395.55 759.7 395.763 759.54C395.976 759.367 396.223 759.28 396.503 759.28C396.796 759.28 397.05 759.367 397.263 759.54C397.476 759.7 397.583 759.967 397.583 760.34C397.583 760.713 397.476 760.993 397.263 761.18C397.05 761.353 396.796 761.44 396.503 761.44C396.223 761.44 395.976 761.353 395.763 761.18C395.55 760.993 395.443 760.72 395.443 760.36ZM399.263 760.36C399.263 759.973 399.363 759.7 399.563 759.54C399.776 759.367 400.03 759.28 400.323 759.28C400.603 759.28 400.85 759.367 401.063 759.54C401.276 759.7 401.383 759.967 401.383 760.34C401.383 760.713 401.276 760.993 401.063 761.18C400.85 761.353 400.603 761.44 400.323 761.44C400.03 761.44 399.776 761.353 399.563 761.18C399.363 760.993 399.263 760.72 399.263 760.36ZM411.748 771.4L412.088 769.5H414.888V771.4H411.748ZM413.748 764.8H415.928V774H413.748V764.8ZM410.328 764.8V767.54C410.328 768.007 410.382 768.387 410.488 768.68C410.595 768.96 410.775 769.167 411.028 769.3C411.295 769.433 411.648 769.5 412.088 769.5L411.748 771.4C410.828 771.4 410.102 771.26 409.568 770.98C409.048 770.687 408.682 770.247 408.468 769.66C408.255 769.073 408.148 768.333 408.148 767.44V764.8H410.328ZM420.084 771.28C420.084 771.56 420.157 771.793 420.304 771.98C420.464 772.167 420.67 772.313 420.924 772.42C421.177 772.513 421.464 772.56 421.784 772.56C422.25 772.56 422.67 772.487 423.044 772.34C423.417 772.193 423.71 771.96 423.924 771.64C424.137 771.32 424.244 770.893 424.244 770.36L424.564 771.4C424.564 771.987 424.41 772.493 424.104 772.92C423.797 773.333 423.384 773.653 422.864 773.88C422.344 774.093 421.764 774.2 421.124 774.2C420.524 774.2 419.977 774.093 419.484 773.88C419.004 773.667 418.617 773.353 418.324 772.94C418.044 772.513 417.904 771.987 417.904 771.36C417.904 770.733 418.064 770.193 418.384 769.74C418.704 769.287 419.157 768.94 419.744 768.7C420.344 768.46 421.044 768.34 421.844 768.34C422.377 768.34 422.85 768.407 423.264 768.54C423.69 768.673 424.044 768.827 424.324 769C424.604 769.173 424.797 769.327 424.904 769.46V770.6C424.49 770.293 424.07 770.073 423.644 769.94C423.217 769.793 422.724 769.72 422.164 769.72C421.71 769.72 421.324 769.787 421.004 769.92C420.697 770.04 420.464 770.22 420.304 770.46C420.157 770.687 420.084 770.96 420.084 771.28ZM419.604 767.22L418.744 765.68C419.157 765.427 419.684 765.18 420.324 764.94C420.964 764.7 421.697 764.58 422.524 764.58C423.284 764.58 423.95 764.693 424.524 764.92C425.097 765.147 425.544 765.473 425.864 765.9C426.197 766.313 426.364 766.827 426.364 767.44V774H424.244V767.68C424.244 767.253 424.064 766.927 423.704 766.7C423.357 766.46 422.93 766.34 422.424 766.34C421.984 766.34 421.577 766.393 421.204 766.5C420.83 766.607 420.504 766.733 420.224 766.88C419.957 767.013 419.75 767.127 419.604 767.22ZM430.34 769.4C430.34 769.987 430.466 770.5 430.72 770.94C430.973 771.367 431.313 771.707 431.74 771.96C432.18 772.213 432.666 772.34 433.2 772.34C433.64 772.34 434.06 772.273 434.46 772.14C434.86 772.007 435.213 771.82 435.52 771.58C435.826 771.34 436.053 771.073 436.2 770.78V773.16C435.88 773.48 435.446 773.733 434.9 773.92C434.353 774.107 433.753 774.2 433.1 774.2C432.153 774.2 431.3 774 430.54 773.6C429.793 773.187 429.2 772.62 428.76 771.9C428.333 771.167 428.12 770.333 428.12 769.4C428.12 768.453 428.333 767.62 428.76 766.9C429.2 766.18 429.793 765.62 430.54 765.22C431.3 764.807 432.153 764.6 433.1 764.6C433.753 764.6 434.353 764.693 434.9 764.88C435.446 765.067 435.88 765.32 436.2 765.64V768.02C436.053 767.713 435.82 767.447 435.5 767.22C435.193 766.98 434.84 766.793 434.44 766.66C434.04 766.527 433.626 766.46 433.2 766.46C432.666 766.46 432.18 766.587 431.74 766.84C431.313 767.093 430.973 767.44 430.72 767.88C430.466 768.32 430.34 768.827 430.34 769.4ZM437.307 764.8H443.127V766.7H437.307V764.8ZM439.167 765.2H441.287V774H439.167V765.2ZM452.943 766.8L444.683 774.7L444.783 772L453.043 764.1L452.943 766.8ZM446.803 764.8V772.26L444.683 774.7V764.8H446.803ZM453.043 764.1V774H450.923V766.54L453.043 764.1ZM456.832 770.04V768.26H463.872V770.04H456.832ZM462.712 764.8H464.832V774H462.712V764.8ZM455.892 764.8H458.012V774H455.892V764.8ZM475.931 766.8L467.671 774.7L467.771 772L476.031 764.1L475.931 766.8ZM469.791 764.8V772.26L467.671 774.7V764.8H469.791ZM476.031 764.1V774H473.911V766.54L476.031 764.1Z" fill="white"/>
<path d="M384 86.5C594.693 86.5 765.5 258.643 765.5 471C765.5 683.357 594.693 855.5 384 855.5C173.307 855.5 2.5 683.357 2.5 471C2.5 258.643 173.307 86.5 384 86.5Z" stroke="#FF0000"/>
<path d="M383.5 131.5C454.576 131.5 518.906 139.109 565.452 151.4C588.729 157.547 607.53 164.857 620.5 172.955C633.496 181.069 640.5 189.884 640.5 199C640.5 208.116 633.496 216.931 620.5 225.045C607.53 233.143 588.729 240.453 565.452 246.6C518.906 258.891 454.576 266.5 383.5 266.5C312.424 266.5 248.094 258.891 201.548 246.6C178.271 240.453 159.47 233.143 146.5 225.045C133.504 216.931 126.5 208.116 126.5 199C126.5 189.884 133.504 181.069 146.5 172.955C159.47 164.857 178.271 157.547 201.548 151.4C248.094 139.109 312.424 131.5 383.5 131.5Z" stroke="#FF0000"/>
<path d="M384 267.5C482.009 267.5 570.726 275.11 634.929 287.408C667.034 293.558 692.985 300.875 710.896 308.986C719.854 313.043 726.773 317.287 731.446 321.661C736.119 326.035 738.5 330.496 738.5 335C738.5 339.504 736.119 343.965 731.446 348.339C726.773 352.713 719.854 356.957 710.896 361.014C692.985 369.125 667.034 376.442 634.929 382.592C570.726 394.89 482.009 402.5 384 402.5C285.991 402.5 197.274 394.89 133.071 382.592C100.966 376.442 75.0152 369.125 57.1035 361.014C48.1462 356.957 41.2266 352.713 36.5537 348.339C31.8808 343.965 29.5 339.504 29.5 335C29.5 330.496 31.8808 326.035 36.5537 321.661C41.2266 317.287 48.1462 313.043 57.1035 308.986C75.0152 300.875 100.966 293.558 133.071 287.408C197.274 275.11 285.991 267.5 384 267.5Z" stroke="#FF0000"/>
<path d="M383.5 401.5C488.828 401.5 584.172 409.277 653.172 421.848C687.676 428.133 715.568 435.613 734.822 443.906C744.451 448.054 751.892 452.393 756.917 456.867C761.944 461.343 764.5 465.902 764.5 470.5C764.5 475.098 761.944 479.657 756.917 484.133C751.892 488.607 744.451 492.946 734.822 497.094C715.568 505.387 687.676 512.867 653.172 519.152C584.172 531.723 488.828 539.5 383.5 539.5C278.172 539.5 182.828 531.723 113.828 519.152C79.324 512.867 51.4319 505.387 32.1777 497.094C22.5487 492.946 15.1083 488.607 10.083 484.133C5.05593 479.657 2.5 475.098 2.5 470.5C2.5 465.902 5.05593 461.343 10.083 456.867C15.1083 452.393 22.5487 448.054 32.1777 443.906C51.4319 435.613 79.324 428.133 113.828 421.848C182.828 409.277 278.172 401.5 383.5 401.5Z" stroke="#FF0000"/>
<path d="M384 540.5C482.009 540.5 570.726 548.054 634.93 560.262C667.035 566.366 692.986 573.629 710.897 581.682C719.855 585.708 726.774 589.921 731.447 594.263C736.121 598.605 738.5 603.032 738.5 607.5C738.5 611.968 736.121 616.395 731.447 620.737C726.774 625.079 719.855 629.292 710.897 633.318C692.986 641.371 667.035 648.634 634.93 654.738C570.726 666.946 482.009 674.5 384 674.5C285.991 674.5 197.274 666.946 133.07 654.738C100.965 648.634 75.0144 641.371 57.1025 633.318C48.145 629.292 41.2255 625.079 36.5527 620.737C31.8794 616.395 29.5 611.968 29.5 607.5C29.5 603.032 31.8794 598.605 36.5527 594.263C41.2255 589.921 48.145 585.708 57.1025 581.682C75.0144 573.629 100.965 566.366 133.07 560.262C197.274 548.054 285.991 540.5 384 540.5Z" stroke="#FF0000"/>
<path d="M384.5 675.5C455.299 675.5 519.378 683.276 565.742 695.839C588.928 702.121 607.655 709.592 620.573 717.868C633.515 726.159 640.5 735.17 640.5 744.5C640.5 753.83 633.515 762.841 620.573 771.132C607.655 779.408 588.928 786.879 565.742 793.161C519.378 805.724 455.299 813.5 384.5 813.5C313.701 813.5 249.622 805.724 203.258 793.161C180.072 786.879 161.345 779.408 148.427 771.132C135.485 762.841 128.5 753.83 128.5 744.5C128.5 735.17 135.485 726.159 148.427 717.868C161.345 709.592 180.072 702.121 203.258 695.839C249.622 683.276 313.701 675.5 384.5 675.5Z" stroke="#FF0000"/>
</svg>
