<svg width="300" height="480" viewBox="0 0 300 480" fill="none" xmlns="http://www.w3.org/2000/svg">
<path d="M76.8256 271.8H81.1096V297H76.8256V271.8ZM97.0716 286.92C97.0716 285.696 96.8196 284.772 96.3156 284.148C95.8116 283.524 95.0316 283.212 93.9756 283.212C93.2556 283.212 92.6196 283.368 92.0676 283.68C91.5156 283.968 91.0836 284.4 90.7716 284.976C90.4596 285.528 90.3036 286.176 90.3036 286.92V297H86.4156V280.44H90.3036V282.996C90.8316 282.012 91.5036 281.28 92.3196 280.8C93.1596 280.32 94.1556 280.08 95.3076 280.08C97.1796 280.08 98.6076 280.656 99.5916 281.808C100.576 282.936 101.068 284.496 101.068 286.488V297H97.0716V286.92ZM118.489 268.92H122.413V297H118.489V268.92ZM104.773 288.72C104.773 286.896 105.145 285.348 105.889 284.076C106.633 282.78 107.617 281.796 108.841 281.124C110.089 280.428 111.421 280.08 112.837 280.08C114.229 280.08 115.441 280.428 116.473 281.124C117.529 281.82 118.357 282.816 118.957 284.112C119.581 285.384 119.893 286.92 119.893 288.72C119.893 290.496 119.581 292.032 118.957 293.328C118.357 294.624 117.529 295.62 116.473 296.316C115.441 297.012 114.229 297.36 112.837 297.36C111.421 297.36 110.089 297.024 108.841 296.352C107.617 295.656 106.633 294.66 105.889 293.364C105.145 292.068 104.773 290.52 104.773 288.72ZM108.805 288.72C108.805 289.824 109.033 290.772 109.489 291.564C109.945 292.356 110.545 292.956 111.289 293.364C112.057 293.772 112.885 293.976 113.773 293.976C114.517 293.976 115.249 293.772 115.969 293.364C116.713 292.956 117.313 292.368 117.769 291.6C118.249 290.808 118.489 289.848 118.489 288.72C118.489 287.592 118.249 286.644 117.769 285.876C117.313 285.084 116.713 284.484 115.969 284.076C115.249 283.668 114.517 283.464 113.773 283.464C112.885 283.464 112.057 283.668 111.289 284.076C110.545 284.484 109.945 285.084 109.489 285.876C109.033 286.668 108.805 287.616 108.805 288.72ZM127.088 273.852C127.088 273.18 127.328 272.616 127.808 272.16C128.312 271.704 128.888 271.476 129.536 271.476C130.232 271.476 130.808 271.704 131.264 272.16C131.744 272.616 131.984 273.18 131.984 273.852C131.984 274.5 131.744 275.064 131.264 275.544C130.808 276 130.232 276.228 129.536 276.228C128.888 276.228 128.312 276 127.808 275.544C127.328 275.064 127.088 274.5 127.088 273.852ZM127.628 280.44H131.444V297H127.628V280.44ZM134.275 280.44H138.523L142.843 291.132L147.163 280.44H151.447L142.843 298.512L134.275 280.44ZM153.736 273.852C153.736 273.18 153.976 272.616 154.456 272.16C154.96 271.704 155.536 271.476 156.184 271.476C156.88 271.476 157.456 271.704 157.912 272.16C158.392 272.616 158.632 273.18 158.632 273.852C158.632 274.5 158.392 275.064 157.912 275.544C157.456 276 156.88 276.228 156.184 276.228C155.536 276.228 154.96 276 154.456 275.544C153.976 275.064 153.736 274.5 153.736 273.852ZM154.276 280.44H158.092V297H154.276V280.44ZM175.899 268.92H179.823V297H175.899V268.92ZM162.183 288.72C162.183 286.896 162.555 285.348 163.299 284.076C164.043 282.78 165.027 281.796 166.251 281.124C167.499 280.428 168.831 280.08 170.247 280.08C171.639 280.08 172.851 280.428 173.883 281.124C174.939 281.82 175.767 282.816 176.367 284.112C176.991 285.384 177.303 286.92 177.303 288.72C177.303 290.496 176.991 292.032 176.367 293.328C175.767 294.624 174.939 295.62 173.883 296.316C172.851 297.012 171.639 297.36 170.247 297.36C168.831 297.36 167.499 297.024 166.251 296.352C165.027 295.656 164.043 294.66 163.299 293.364C162.555 292.068 162.183 290.52 162.183 288.72ZM166.215 288.72C166.215 289.824 166.443 290.772 166.899 291.564C167.355 292.356 167.955 292.956 168.699 293.364C169.467 293.772 170.295 293.976 171.183 293.976C171.927 293.976 172.659 293.772 173.379 293.364C174.123 292.956 174.723 292.368 175.179 291.6C175.659 290.808 175.899 289.848 175.899 288.72C175.899 287.592 175.659 286.644 175.179 285.876C174.723 285.084 174.123 284.484 173.379 284.076C172.659 283.668 171.927 283.464 171.183 283.464C170.295 283.464 169.467 283.668 168.699 284.076C167.955 284.484 167.355 285.084 166.899 285.876C166.443 286.668 166.215 287.616 166.215 288.72ZM188.638 290.52C188.638 291.696 188.89 292.608 189.394 293.256C189.898 293.904 190.666 294.228 191.698 294.228C192.442 294.228 193.09 294.084 193.642 293.796C194.194 293.484 194.626 293.052 194.938 292.5C195.25 291.924 195.406 291.264 195.406 290.52V280.44H199.294V297H195.406V294.444C194.878 295.404 194.194 296.136 193.354 296.64C192.538 297.12 191.554 297.36 190.402 297.36C188.554 297.36 187.126 296.784 186.118 295.632C185.134 294.48 184.642 292.92 184.642 290.952V280.44H188.638V290.52ZM206.707 291.852C206.707 292.404 206.839 292.884 207.103 293.292C207.367 293.676 207.727 293.964 208.183 294.156C208.663 294.348 209.203 294.444 209.803 294.444C210.571 294.444 211.267 294.288 211.891 293.976C212.539 293.664 213.055 293.208 213.439 292.608C213.847 291.984 214.051 291.264 214.051 290.448L214.627 292.608C214.627 293.664 214.315 294.552 213.691 295.272C213.091 295.968 212.323 296.496 211.387 296.856C210.475 297.192 209.539 297.36 208.579 297.36C207.547 297.36 206.587 297.156 205.699 296.748C204.811 296.34 204.103 295.74 203.575 294.948C203.047 294.156 202.783 293.196 202.783 292.068C202.783 290.46 203.347 289.188 204.475 288.252C205.603 287.292 207.199 286.812 209.263 286.812C210.367 286.812 211.315 286.932 212.107 287.172C212.923 287.412 213.595 287.7 214.123 288.036C214.651 288.348 215.023 288.636 215.239 288.9V290.88C214.495 290.352 213.703 289.968 212.863 289.728C212.023 289.488 211.135 289.368 210.199 289.368C209.383 289.368 208.723 289.476 208.219 289.692C207.715 289.884 207.331 290.16 207.067 290.52C206.827 290.88 206.707 291.324 206.707 291.852ZM205.483 284.76L203.899 282.024C204.643 281.568 205.603 281.124 206.779 280.692C207.979 280.26 209.347 280.044 210.883 280.044C212.251 280.044 213.451 280.248 214.483 280.656C215.539 281.064 216.367 281.652 216.967 282.42C217.567 283.164 217.867 284.088 217.867 285.192V297H214.051V285.948C214.051 285.42 213.955 284.988 213.763 284.652C213.595 284.316 213.355 284.04 213.043 283.824C212.731 283.608 212.359 283.452 211.927 283.356C211.495 283.26 211.027 283.212 210.523 283.212C209.755 283.212 209.023 283.308 208.327 283.5C207.655 283.668 207.067 283.884 206.563 284.148C206.083 284.388 205.723 284.592 205.483 284.76ZM222.4 268.92H226.288V297H222.4V268.92ZM87.6111 343.564C88.1391 344.14 88.6671 344.644 89.1951 345.076C89.7471 345.484 90.2991 345.796 90.8511 346.012C91.4031 346.204 91.9551 346.3 92.5071 346.3C93.2031 346.3 93.7431 346.144 94.1271 345.832C94.5351 345.52 94.7391 345.088 94.7391 344.536C94.7391 344.056 94.5831 343.648 94.2711 343.312C93.9591 342.952 93.5271 342.652 92.9751 342.412C92.4231 342.148 91.7751 341.884 91.0311 341.62C90.2871 341.332 89.5431 340.996 88.7991 340.612C88.0791 340.204 87.4791 339.676 86.9991 339.028C86.5431 338.38 86.3151 337.564 86.3151 336.58C86.3151 335.572 86.5671 334.732 87.0711 334.06C87.5991 333.388 88.2951 332.896 89.1591 332.584C90.0471 332.248 90.9951 332.08 92.0031 332.08C92.9151 332.08 93.7671 332.212 94.5591 332.476C95.3751 332.74 96.1071 333.088 96.7551 333.52C97.4031 333.952 97.9551 334.444 98.4111 334.996L96.2511 337.3C95.6991 336.652 95.0391 336.124 94.2711 335.716C93.5031 335.308 92.7111 335.104 91.8951 335.104C91.3431 335.104 90.8871 335.224 90.5271 335.464C90.1671 335.704 89.9871 336.052 89.9871 336.508C89.9871 336.892 90.1431 337.24 90.4551 337.552C90.7911 337.84 91.2231 338.104 91.7511 338.344C92.3031 338.584 92.9151 338.836 93.5871 339.1C94.4991 339.46 95.3391 339.856 96.1071 340.288C96.8751 340.72 97.4871 341.248 97.9431 341.872C98.4231 342.496 98.6631 343.312 98.6631 344.32C98.6631 345.88 98.1231 347.14 97.0431 348.1C95.9871 349.036 94.5471 349.504 92.7231 349.504C91.5951 349.504 90.5511 349.336 89.5911 349C88.6551 348.64 87.8271 348.184 87.1071 347.632C86.4111 347.056 85.8231 346.456 85.3431 345.832L87.6111 343.564ZM100.853 340.72C100.853 339.016 101.237 337.516 102.005 336.22C102.797 334.924 103.865 333.916 105.209 333.196C106.553 332.452 108.077 332.08 109.781 332.08C111.485 332.08 112.997 332.452 114.317 333.196C115.661 333.916 116.729 334.924 117.521 336.22C118.313 337.516 118.709 339.016 118.709 340.72C118.709 342.4 118.313 343.9 117.521 345.22C116.729 346.516 115.661 347.536 114.317 348.28C112.997 349 111.485 349.36 109.781 349.36C108.077 349.36 106.553 349 105.209 348.28C103.865 347.536 102.797 346.516 102.005 345.22C101.237 343.9 100.853 342.4 100.853 340.72ZM104.849 340.72C104.849 341.752 105.065 342.664 105.497 343.456C105.929 344.224 106.517 344.836 107.261 345.292C108.005 345.724 108.845 345.94 109.781 345.94C110.693 345.94 111.521 345.724 112.265 345.292C113.033 344.836 113.633 344.224 114.065 343.456C114.497 342.664 114.713 341.752 114.713 340.72C114.713 339.688 114.497 338.776 114.065 337.984C113.633 337.192 113.033 336.58 112.265 336.148C111.521 335.716 110.693 335.5 109.781 335.5C108.845 335.5 108.005 335.716 107.261 336.148C106.517 336.58 105.929 337.192 105.497 337.984C105.065 338.776 104.849 339.688 104.849 340.72ZM122.398 320.92H126.286V349H122.398V320.92ZM135.253 342.52C135.253 343.696 135.505 344.608 136.009 345.256C136.513 345.904 137.281 346.228 138.313 346.228C139.057 346.228 139.705 346.084 140.257 345.796C140.809 345.484 141.241 345.052 141.553 344.5C141.865 343.924 142.021 343.264 142.021 342.52V332.44H145.909V349H142.021V346.444C141.493 347.404 140.809 348.136 139.969 348.64C139.153 349.12 138.169 349.36 137.017 349.36C135.169 349.36 133.741 348.784 132.733 347.632C131.749 346.48 131.257 344.92 131.257 342.952V332.44H135.253V342.52ZM148.571 332.44H157.967V335.86H148.571V332.44ZM151.343 326.68H155.195V349H151.343V326.68ZM160.504 325.852C160.504 325.18 160.744 324.616 161.224 324.16C161.728 323.704 162.304 323.476 162.952 323.476C163.648 323.476 164.224 323.704 164.68 324.16C165.16 324.616 165.4 325.18 165.4 325.852C165.4 326.5 165.16 327.064 164.68 327.544C164.224 328 163.648 328.228 162.952 328.228C162.304 328.228 161.728 328 161.224 327.544C160.744 327.064 160.504 326.5 160.504 325.852ZM161.044 332.44H164.86V349H161.044V332.44ZM168.951 340.72C168.951 339.016 169.335 337.516 170.103 336.22C170.895 334.924 171.963 333.916 173.307 333.196C174.651 332.452 176.175 332.08 177.879 332.08C179.583 332.08 181.095 332.452 182.415 333.196C183.759 333.916 184.827 334.924 185.619 336.22C186.411 337.516 186.807 339.016 186.807 340.72C186.807 342.4 186.411 343.9 185.619 345.22C184.827 346.516 183.759 347.536 182.415 348.28C181.095 349 179.583 349.36 177.879 349.36C176.175 349.36 174.651 349 173.307 348.28C171.963 347.536 170.895 346.516 170.103 345.22C169.335 343.9 168.951 342.4 168.951 340.72ZM172.947 340.72C172.947 341.752 173.163 342.664 173.595 343.456C174.027 344.224 174.615 344.836 175.359 345.292C176.103 345.724 176.943 345.94 177.879 345.94C178.791 345.94 179.619 345.724 180.363 345.292C181.131 344.836 181.731 344.224 182.163 343.456C182.595 342.664 182.811 341.752 182.811 340.72C182.811 339.688 182.595 338.776 182.163 337.984C181.731 337.192 181.131 336.58 180.363 336.148C179.619 335.716 178.791 335.5 177.879 335.5C176.943 335.5 176.103 335.716 175.359 336.148C174.615 336.58 174.027 337.192 173.595 337.984C173.163 338.776 172.947 339.688 172.947 340.72ZM201.152 338.92C201.152 337.696 200.9 336.772 200.396 336.148C199.892 335.524 199.112 335.212 198.056 335.212C197.336 335.212 196.7 335.368 196.148 335.68C195.596 335.968 195.164 336.4 194.852 336.976C194.54 337.528 194.384 338.176 194.384 338.92V349H190.496V332.44H194.384V334.996C194.912 334.012 195.584 333.28 196.4 332.8C197.24 332.32 198.236 332.08 199.388 332.08C201.26 332.08 202.688 332.656 203.672 333.808C204.656 334.936 205.148 336.496 205.148 338.488V349H201.152V338.92Z" fill="white"/>
<path d="M104.124 4.6H105.144V13H104.124V4.6ZM106.644 13H104.688V11.98H106.644C107.116 11.98 107.548 11.908 107.94 11.764C108.332 11.612 108.668 11.4 108.948 11.128C109.228 10.848 109.444 10.512 109.596 10.12C109.748 9.728 109.824 9.288 109.824 8.8C109.824 8.312 109.748 7.872 109.596 7.48C109.444 7.088 109.228 6.756 108.948 6.484C108.668 6.204 108.332 5.992 107.94 5.848C107.548 5.696 107.116 5.62 106.644 5.62H104.688V4.6H106.644C107.46 4.6 108.184 4.776 108.816 5.128C109.448 5.48 109.944 5.972 110.304 6.604C110.664 7.228 110.844 7.96 110.844 8.8C110.844 9.64 110.664 10.376 110.304 11.008C109.944 11.632 109.448 12.12 108.816 12.472C108.184 12.824 107.46 13 106.644 13ZM114.356 13.12C113.844 13.12 113.388 13 112.988 12.76C112.596 12.512 112.288 12.172 112.064 11.74C111.848 11.308 111.74 10.808 111.74 10.24C111.74 9.664 111.852 9.16 112.076 8.728C112.308 8.296 112.628 7.96 113.036 7.72C113.452 7.48 113.932 7.36 114.476 7.36C115.02 7.36 115.484 7.476 115.868 7.708C116.26 7.932 116.56 8.256 116.768 8.68C116.976 9.104 117.08 9.608 117.08 10.192C117.08 10.248 117.076 10.308 117.068 10.372C117.068 10.428 117.068 10.464 117.068 10.48H112.352V9.664H116.312L115.928 10.216C115.952 10.176 115.976 10.116 116 10.036C116.024 9.948 116.036 9.876 116.036 9.82C116.036 9.492 115.968 9.208 115.832 8.968C115.704 8.728 115.524 8.54 115.292 8.404C115.06 8.268 114.788 8.2 114.476 8.2C114.108 8.2 113.792 8.28 113.528 8.44C113.272 8.592 113.072 8.816 112.928 9.112C112.792 9.4 112.72 9.756 112.712 10.18C112.712 10.612 112.78 10.98 112.916 11.284C113.052 11.588 113.252 11.82 113.516 11.98C113.78 12.14 114.1 12.22 114.476 12.22C114.852 12.22 115.184 12.14 115.472 11.98C115.76 11.812 116.004 11.56 116.204 11.224L116.984 11.716C116.696 12.18 116.332 12.532 115.892 12.772C115.46 13.004 114.948 13.12 114.356 13.12ZM117.32 7.48H118.4L119.96 11.38L121.52 7.48H122.6L119.96 13.42L117.32 7.48ZM125.466 13.12C124.954 13.12 124.498 13 124.098 12.76C123.706 12.512 123.398 12.172 123.174 11.74C122.958 11.308 122.85 10.808 122.85 10.24C122.85 9.664 122.962 9.16 123.186 8.728C123.418 8.296 123.738 7.96 124.146 7.72C124.562 7.48 125.042 7.36 125.586 7.36C126.13 7.36 126.594 7.476 126.978 7.708C127.37 7.932 127.67 8.256 127.878 8.68C128.086 9.104 128.19 9.608 128.19 10.192C128.19 10.248 128.186 10.308 128.178 10.372C128.178 10.428 128.178 10.464 128.178 10.48H123.462V9.664H127.422L127.038 10.216C127.062 10.176 127.086 10.116 127.11 10.036C127.134 9.948 127.146 9.876 127.146 9.82C127.146 9.492 127.078 9.208 126.942 8.968C126.814 8.728 126.634 8.54 126.402 8.404C126.17 8.268 125.898 8.2 125.586 8.2C125.218 8.2 124.902 8.28 124.638 8.44C124.382 8.592 124.182 8.816 124.038 9.112C123.902 9.4 123.83 9.756 123.822 10.18C123.822 10.612 123.89 10.98 124.026 11.284C124.162 11.588 124.362 11.82 124.626 11.98C124.89 12.14 125.21 12.22 125.586 12.22C125.962 12.22 126.294 12.14 126.582 11.98C126.87 11.812 127.114 11.56 127.314 11.224L128.094 11.716C127.806 12.18 127.442 12.532 127.002 12.772C126.57 13.004 126.058 13.12 125.466 13.12ZM129.505 3.64H130.465V13H129.505V3.64ZM131.791 10.24C131.791 9.68 131.915 9.184 132.163 8.752C132.419 8.32 132.763 7.98 133.195 7.732C133.627 7.484 134.111 7.36 134.647 7.36C135.191 7.36 135.675 7.484 136.099 7.732C136.531 7.98 136.871 8.32 137.119 8.752C137.375 9.184 137.503 9.68 137.503 10.24C137.503 10.792 137.375 11.288 137.119 11.728C136.871 12.16 136.531 12.5 136.099 12.748C135.675 12.996 135.191 13.12 134.647 13.12C134.111 13.12 133.627 12.996 133.195 12.748C132.763 12.5 132.419 12.16 132.163 11.728C131.915 11.288 131.791 10.792 131.791 10.24ZM132.763 10.24C132.763 10.624 132.843 10.964 133.003 11.26C133.171 11.556 133.395 11.792 133.675 11.968C133.963 12.136 134.287 12.22 134.647 12.22C135.007 12.22 135.327 12.136 135.607 11.968C135.895 11.792 136.119 11.556 136.279 11.26C136.447 10.964 136.531 10.624 136.531 10.24C136.531 9.856 136.447 9.516 136.279 9.22C136.119 8.916 135.895 8.68 135.607 8.512C135.327 8.344 135.007 8.26 134.647 8.26C134.287 8.26 133.963 8.344 133.675 8.512C133.395 8.68 133.171 8.916 133.003 9.22C132.843 9.516 132.763 9.856 132.763 10.24ZM139.722 15.64H138.762V7.48H139.722V15.64ZM144.342 10.24C144.342 10.832 144.218 11.344 143.97 11.776C143.722 12.208 143.39 12.54 142.974 12.772C142.566 13.004 142.11 13.12 141.606 13.12C141.15 13.12 140.746 13.004 140.394 12.772C140.05 12.54 139.778 12.208 139.578 11.776C139.386 11.344 139.29 10.832 139.29 10.24C139.29 9.64 139.386 9.128 139.578 8.704C139.778 8.272 140.05 7.94 140.394 7.708C140.746 7.476 141.15 7.36 141.606 7.36C142.11 7.36 142.566 7.476 142.974 7.708C143.39 7.94 143.722 8.272 143.97 8.704C144.218 9.128 144.342 9.64 144.342 10.24ZM143.37 10.24C143.37 9.816 143.282 9.456 143.106 9.16C142.938 8.864 142.71 8.64 142.422 8.488C142.142 8.336 141.83 8.26 141.486 8.26C141.206 8.26 140.93 8.336 140.658 8.488C140.386 8.64 140.162 8.864 139.986 9.16C139.81 9.456 139.722 9.816 139.722 10.24C139.722 10.664 139.81 11.024 139.986 11.32C140.162 11.616 140.386 11.84 140.658 11.992C140.93 12.144 141.206 12.22 141.486 12.22C141.83 12.22 142.142 12.144 142.422 11.992C142.71 11.84 142.938 11.616 143.106 11.32C143.282 11.024 143.37 10.664 143.37 10.24ZM153.226 9.52V13H152.266V9.64C152.266 9.168 152.178 8.82 152.002 8.596C151.834 8.372 151.57 8.26 151.21 8.26C150.946 8.26 150.718 8.316 150.526 8.428C150.334 8.532 150.186 8.688 150.082 8.896C149.978 9.104 149.926 9.352 149.926 9.64V13H148.966V9.64C148.966 9.168 148.878 8.82 148.702 8.596C148.534 8.372 148.27 8.26 147.91 8.26C147.646 8.26 147.418 8.316 147.226 8.428C147.034 8.532 146.886 8.688 146.782 8.896C146.678 9.104 146.626 9.352 146.626 9.64V13H145.666V7.48H146.626V8.284C146.794 7.972 147.002 7.74 147.25 7.588C147.506 7.436 147.806 7.36 148.15 7.36C148.534 7.36 148.862 7.452 149.134 7.636C149.414 7.812 149.618 8.064 149.746 8.392C149.938 8.048 150.178 7.792 150.466 7.624C150.754 7.448 151.082 7.36 151.45 7.36C151.826 7.36 152.146 7.444 152.41 7.612C152.674 7.78 152.874 8.028 153.01 8.356C153.154 8.676 153.226 9.064 153.226 9.52ZM157.165 13.12C156.653 13.12 156.197 13 155.797 12.76C155.405 12.512 155.097 12.172 154.873 11.74C154.657 11.308 154.549 10.808 154.549 10.24C154.549 9.664 154.661 9.16 154.885 8.728C155.117 8.296 155.437 7.96 155.845 7.72C156.261 7.48 156.741 7.36 157.285 7.36C157.829 7.36 158.293 7.476 158.677 7.708C159.069 7.932 159.369 8.256 159.577 8.68C159.785 9.104 159.889 9.608 159.889 10.192C159.889 10.248 159.885 10.308 159.877 10.372C159.877 10.428 159.877 10.464 159.877 10.48H155.161V9.664H159.121L158.737 10.216C158.761 10.176 158.785 10.116 158.809 10.036C158.833 9.948 158.845 9.876 158.845 9.82C158.845 9.492 158.777 9.208 158.641 8.968C158.513 8.728 158.333 8.54 158.101 8.404C157.869 8.268 157.597 8.2 157.285 8.2C156.917 8.2 156.601 8.28 156.337 8.44C156.081 8.592 155.881 8.816 155.737 9.112C155.601 9.4 155.529 9.756 155.521 10.18C155.521 10.612 155.589 10.98 155.725 11.284C155.861 11.588 156.061 11.82 156.325 11.98C156.589 12.14 156.909 12.22 157.285 12.22C157.661 12.22 157.993 12.14 158.281 11.98C158.569 11.812 158.813 11.56 159.013 11.224L159.793 11.716C159.505 12.18 159.141 12.532 158.701 12.772C158.269 13.004 157.757 13.12 157.165 13.12ZM164.745 9.64C164.745 9.184 164.645 8.84 164.445 8.608C164.245 8.376 163.953 8.26 163.569 8.26C163.289 8.26 163.041 8.32 162.825 8.44C162.617 8.552 162.453 8.712 162.333 8.92C162.221 9.128 162.165 9.368 162.165 9.64V13H161.205V7.48H162.165V8.344C162.349 8.008 162.577 7.76 162.849 7.6C163.129 7.44 163.449 7.36 163.809 7.36C164.393 7.36 164.853 7.556 165.189 7.948C165.533 8.332 165.705 8.856 165.705 9.52V13H164.745V9.64ZM166.669 7.48H169.429V8.38H166.669V7.48ZM167.569 5.56H168.529V13H167.569V5.56ZM170.62 11.308C170.732 11.476 170.86 11.632 171.004 11.776C171.148 11.92 171.312 12.036 171.496 12.124C171.688 12.204 171.896 12.244 172.12 12.244C172.392 12.244 172.604 12.184 172.756 12.064C172.916 11.936 172.996 11.764 172.996 11.548C172.996 11.356 172.932 11.196 172.804 11.068C172.684 10.932 172.528 10.82 172.336 10.732C172.144 10.636 171.94 10.548 171.724 10.468C171.484 10.372 171.24 10.26 170.992 10.132C170.752 9.996 170.548 9.824 170.38 9.616C170.22 9.4 170.14 9.132 170.14 8.812C170.14 8.484 170.224 8.212 170.392 7.996C170.568 7.78 170.792 7.62 171.064 7.516C171.344 7.412 171.632 7.36 171.928 7.36C172.224 7.36 172.5 7.408 172.756 7.504C173.02 7.6 173.252 7.728 173.452 7.888C173.652 8.048 173.808 8.232 173.92 8.44L173.152 8.932C173 8.724 172.808 8.552 172.576 8.416C172.352 8.28 172.096 8.212 171.808 8.212C171.608 8.212 171.436 8.256 171.292 8.344C171.148 8.432 171.076 8.568 171.076 8.752C171.076 8.896 171.132 9.024 171.244 9.136C171.356 9.248 171.5 9.348 171.676 9.436C171.852 9.524 172.036 9.608 172.228 9.688C172.548 9.816 172.84 9.956 173.104 10.108C173.368 10.252 173.576 10.428 173.728 10.636C173.888 10.844 173.968 11.112 173.968 11.44C173.968 11.92 173.792 12.32 173.44 12.64C173.096 12.96 172.64 13.12 172.072 13.12C171.704 13.12 171.372 13.056 171.076 12.928C170.78 12.792 170.528 12.62 170.32 12.412C170.12 12.204 169.968 11.992 169.864 11.776L170.62 11.308ZM178.41 7.48H181.17V8.38H178.41V7.48ZM181.074 4.792C180.994 4.656 180.898 4.572 180.786 4.54C180.682 4.5 180.582 4.48 180.486 4.48C180.366 4.48 180.262 4.516 180.174 4.588C180.094 4.652 180.03 4.764 179.982 4.924C179.934 5.084 179.91 5.296 179.91 5.56V13H178.95V5.44C178.95 5 179.014 4.64 179.142 4.36C179.27 4.08 179.45 3.872 179.682 3.736C179.922 3.592 180.21 3.52 180.546 3.52C180.722 3.52 180.878 3.544 181.014 3.592C181.15 3.64 181.266 3.7 181.362 3.772C181.466 3.844 181.546 3.92 181.602 4L181.074 4.792ZM183.223 7.48V13H182.263V7.48H183.223ZM184.891 8.536C184.763 8.44 184.647 8.372 184.543 8.332C184.439 8.284 184.307 8.26 184.147 8.26C183.907 8.26 183.719 8.32 183.583 8.44C183.447 8.56 183.351 8.724 183.295 8.932C183.247 9.14 183.223 9.376 183.223 9.64H182.791C182.791 9.2 182.867 8.812 183.019 8.476C183.179 8.132 183.383 7.86 183.631 7.66C183.879 7.46 184.131 7.36 184.387 7.36C184.587 7.36 184.771 7.388 184.939 7.444C185.115 7.492 185.275 7.592 185.419 7.744L184.891 8.536ZM185.721 10.24C185.721 9.68 185.845 9.184 186.093 8.752C186.349 8.32 186.693 7.98 187.125 7.732C187.557 7.484 188.041 7.36 188.577 7.36C189.121 7.36 189.605 7.484 190.029 7.732C190.461 7.98 190.801 8.32 191.049 8.752C191.305 9.184 191.433 9.68 191.433 10.24C191.433 10.792 191.305 11.288 191.049 11.728C190.801 12.16 190.461 12.5 190.029 12.748C189.605 12.996 189.121 13.12 188.577 13.12C188.041 13.12 187.557 12.996 187.125 12.748C186.693 12.5 186.349 12.16 186.093 11.728C185.845 11.288 185.721 10.792 185.721 10.24ZM186.693 10.24C186.693 10.624 186.773 10.964 186.933 11.26C187.101 11.556 187.325 11.792 187.605 11.968C187.893 12.136 188.217 12.22 188.577 12.22C188.937 12.22 189.257 12.136 189.537 11.968C189.825 11.792 190.049 11.556 190.209 11.26C190.377 10.964 190.461 10.624 190.461 10.24C190.461 9.856 190.377 9.516 190.209 9.22C190.049 8.916 189.825 8.68 189.537 8.512C189.257 8.344 188.937 8.26 188.577 8.26C188.217 8.26 187.893 8.344 187.605 8.512C187.325 8.68 187.101 8.916 186.933 9.22C186.773 9.516 186.693 9.856 186.693 10.24ZM200.312 9.52V13H199.352V9.64C199.352 9.168 199.264 8.82 199.088 8.596C198.92 8.372 198.656 8.26 198.296 8.26C198.032 8.26 197.804 8.316 197.612 8.428C197.42 8.532 197.272 8.688 197.168 8.896C197.064 9.104 197.012 9.352 197.012 9.64V13H196.052V9.64C196.052 9.168 195.964 8.82 195.788 8.596C195.62 8.372 195.356 8.26 194.996 8.26C194.732 8.26 194.504 8.316 194.312 8.428C194.12 8.532 193.972 8.688 193.868 8.896C193.764 9.104 193.712 9.352 193.712 9.64V13H192.752V7.48H193.712V8.284C193.88 7.972 194.088 7.74 194.336 7.588C194.592 7.436 194.892 7.36 195.236 7.36C195.62 7.36 195.948 7.452 196.22 7.636C196.5 7.812 196.704 8.064 196.832 8.392C197.024 8.048 197.264 7.792 197.552 7.624C197.84 7.448 198.168 7.36 198.536 7.36C198.912 7.36 199.232 7.444 199.496 7.612C199.76 7.78 199.96 8.028 200.096 8.356C200.24 8.676 200.312 9.064 200.312 9.52ZM209.853 3.64H210.812V13H209.853V3.64ZM205.233 10.24C205.233 9.64 205.356 9.128 205.604 8.704C205.853 8.272 206.185 7.94 206.601 7.708C207.017 7.476 207.473 7.36 207.969 7.36C208.433 7.36 208.837 7.476 209.181 7.708C209.525 7.94 209.793 8.272 209.985 8.704C210.185 9.128 210.285 9.64 210.285 10.24C210.285 10.832 210.185 11.344 209.985 11.776C209.793 12.208 209.525 12.54 209.181 12.772C208.837 13.004 208.433 13.12 207.969 13.12C207.473 13.12 207.017 13.004 206.601 12.772C206.185 12.54 205.853 12.208 205.604 11.776C205.356 11.344 205.233 10.832 205.233 10.24ZM206.205 10.24C206.205 10.664 206.289 11.024 206.457 11.32C206.633 11.616 206.865 11.84 207.153 11.992C207.441 12.144 207.753 12.22 208.089 12.22C208.369 12.22 208.645 12.144 208.917 11.992C209.189 11.84 209.413 11.616 209.589 11.32C209.765 11.024 209.853 10.664 209.853 10.24C209.853 9.816 209.765 9.456 209.589 9.16C209.413 8.864 209.189 8.64 208.917 8.488C208.645 8.336 208.369 8.26 208.089 8.26C207.753 8.26 207.441 8.336 207.153 8.488C206.865 8.64 206.633 8.864 206.457 9.16C206.289 9.456 206.205 9.816 206.205 10.24ZM214.692 13.12C214.18 13.12 213.724 13 213.324 12.76C212.932 12.512 212.624 12.172 212.4 11.74C212.184 11.308 212.076 10.808 212.076 10.24C212.076 9.664 212.188 9.16 212.412 8.728C212.644 8.296 212.964 7.96 213.372 7.72C213.788 7.48 214.268 7.36 214.812 7.36C215.356 7.36 215.82 7.476 216.204 7.708C216.596 7.932 216.896 8.256 217.104 8.68C217.312 9.104 217.416 9.608 217.416 10.192C217.416 10.248 217.412 10.308 217.404 10.372C217.404 10.428 217.404 10.464 217.404 10.48H212.688V9.664H216.648L216.264 10.216C216.288 10.176 216.312 10.116 216.336 10.036C216.36 9.948 216.372 9.876 216.372 9.82C216.372 9.492 216.304 9.208 216.168 8.968C216.04 8.728 215.86 8.54 215.628 8.404C215.396 8.268 215.124 8.2 214.812 8.2C214.444 8.2 214.128 8.28 213.864 8.44C213.608 8.592 213.408 8.816 213.264 9.112C213.128 9.4 213.056 9.756 213.048 10.18C213.048 10.612 213.116 10.98 213.252 11.284C213.388 11.588 213.588 11.82 213.852 11.98C214.116 12.14 214.436 12.22 214.812 12.22C215.188 12.22 215.52 12.14 215.808 11.98C216.096 11.812 216.34 11.56 216.54 11.224L217.32 11.716C217.032 12.18 216.668 12.532 216.228 12.772C215.796 13.004 215.284 13.12 214.692 13.12ZM218.96 11.308C219.072 11.476 219.2 11.632 219.344 11.776C219.488 11.92 219.652 12.036 219.836 12.124C220.028 12.204 220.236 12.244 220.46 12.244C220.732 12.244 220.944 12.184 221.096 12.064C221.256 11.936 221.336 11.764 221.336 11.548C221.336 11.356 221.272 11.196 221.144 11.068C221.024 10.932 220.868 10.82 220.676 10.732C220.484 10.636 220.28 10.548 220.064 10.468C219.824 10.372 219.58 10.26 219.332 10.132C219.092 9.996 218.888 9.824 218.72 9.616C218.56 9.4 218.48 9.132 218.48 8.812C218.48 8.484 218.564 8.212 218.732 7.996C218.908 7.78 219.132 7.62 219.404 7.516C219.684 7.412 219.972 7.36 220.268 7.36C220.564 7.36 220.84 7.408 221.096 7.504C221.36 7.6 221.592 7.728 221.792 7.888C221.992 8.048 222.148 8.232 222.26 8.44L221.492 8.932C221.34 8.724 221.148 8.552 220.916 8.416C220.692 8.28 220.436 8.212 220.148 8.212C219.948 8.212 219.776 8.256 219.632 8.344C219.488 8.432 219.416 8.568 219.416 8.752C219.416 8.896 219.472 9.024 219.584 9.136C219.696 9.248 219.84 9.348 220.016 9.436C220.192 9.524 220.376 9.608 220.568 9.688C220.888 9.816 221.18 9.956 221.444 10.108C221.708 10.252 221.916 10.428 222.068 10.636C222.228 10.844 222.308 11.112 222.308 11.44C222.308 11.92 222.132 12.32 221.78 12.64C221.436 12.96 220.98 13.12 220.412 13.12C220.044 13.12 219.712 13.056 219.416 12.928C219.12 12.792 218.868 12.62 218.66 12.412C218.46 12.204 218.308 11.992 218.204 11.776L218.96 11.308ZM223.572 5.2C223.572 5.016 223.636 4.86 223.764 4.732C223.9 4.604 224.056 4.54 224.232 4.54C224.416 4.54 224.572 4.604 224.7 4.732C224.828 4.86 224.892 5.016 224.892 5.2C224.892 5.376 224.828 5.532 224.7 5.668C224.572 5.796 224.416 5.86 224.232 5.86C224.056 5.86 223.9 5.796 223.764 5.668C223.636 5.532 223.572 5.376 223.572 5.2ZM223.752 7.48H224.712V13H223.752V7.48ZM226.317 13.36H227.289C227.289 13.624 227.361 13.868 227.505 14.092C227.649 14.324 227.853 14.508 228.117 14.644C228.381 14.788 228.693 14.86 229.053 14.86C229.333 14.86 229.609 14.792 229.881 14.656C230.153 14.52 230.377 14.304 230.553 14.008C230.737 13.72 230.829 13.344 230.829 12.88V7.48H231.789V12.88C231.789 13.512 231.657 14.04 231.393 14.464C231.129 14.896 230.789 15.22 230.373 15.436C229.957 15.652 229.517 15.76 229.053 15.76C228.517 15.76 228.041 15.66 227.625 15.46C227.217 15.26 226.897 14.976 226.665 14.608C226.433 14.248 226.317 13.832 226.317 13.36ZM226.209 10.24C226.209 9.64 226.333 9.128 226.581 8.704C226.829 8.272 227.161 7.94 227.577 7.708C227.993 7.476 228.449 7.36 228.945 7.36C229.409 7.36 229.813 7.476 230.157 7.708C230.501 7.94 230.769 8.272 230.961 8.704C231.161 9.128 231.261 9.64 231.261 10.24C231.261 10.832 231.161 11.344 230.961 11.776C230.769 12.208 230.501 12.54 230.157 12.772C229.813 13.004 229.409 13.12 228.945 13.12C228.449 13.12 227.993 13.004 227.577 12.772C227.161 12.54 226.829 12.208 226.581 11.776C226.333 11.344 226.209 10.832 226.209 10.24ZM227.181 10.24C227.181 10.664 227.265 11.024 227.433 11.32C227.609 11.616 227.841 11.84 228.129 11.992C228.417 12.144 228.729 12.22 229.065 12.22C229.345 12.22 229.621 12.144 229.893 11.992C230.165 11.84 230.389 11.616 230.565 11.32C230.741 11.024 230.829 10.664 230.829 10.24C230.829 9.92 230.777 9.64 230.673 9.4C230.569 9.152 230.429 8.944 230.253 8.776C230.085 8.608 229.897 8.48 229.689 8.392C229.481 8.304 229.273 8.26 229.065 8.26C228.729 8.26 228.417 8.336 228.129 8.488C227.841 8.64 227.609 8.864 227.433 9.16C227.265 9.456 227.181 9.816 227.181 10.24ZM237.073 9.64C237.073 9.184 236.973 8.84 236.773 8.608C236.573 8.376 236.281 8.26 235.897 8.26C235.617 8.26 235.369 8.32 235.153 8.44C234.945 8.552 234.781 8.712 234.661 8.92C234.549 9.128 234.493 9.368 234.493 9.64V13H233.533V7.48H234.493V8.344C234.677 8.008 234.905 7.76 235.177 7.6C235.457 7.44 235.777 7.36 236.137 7.36C236.721 7.36 237.181 7.556 237.517 7.948C237.861 8.332 238.033 8.856 238.033 9.52V13H237.073V9.64ZM242.595 7.48H245.355V8.38H242.595V7.48ZM243.495 5.56H244.455V13H243.495V5.56ZM245.838 10.24C245.838 9.68 245.962 9.184 246.21 8.752C246.466 8.32 246.81 7.98 247.242 7.732C247.674 7.484 248.158 7.36 248.694 7.36C249.238 7.36 249.722 7.484 250.146 7.732C250.578 7.98 250.918 8.32 251.166 8.752C251.422 9.184 251.55 9.68 251.55 10.24C251.55 10.792 251.422 11.288 251.166 11.728C250.918 12.16 250.578 12.5 250.146 12.748C249.722 12.996 249.238 13.12 248.694 13.12C248.158 13.12 247.674 12.996 247.242 12.748C246.81 12.5 246.466 12.16 246.21 11.728C245.962 11.288 245.838 10.792 245.838 10.24ZM246.81 10.24C246.81 10.624 246.89 10.964 247.05 11.26C247.218 11.556 247.442 11.792 247.722 11.968C248.01 12.136 248.334 12.22 248.694 12.22C249.054 12.22 249.374 12.136 249.654 11.968C249.942 11.792 250.166 11.556 250.326 11.26C250.494 10.964 250.578 10.624 250.578 10.24C250.578 9.856 250.494 9.516 250.326 9.22C250.166 8.916 249.942 8.68 249.654 8.512C249.374 8.344 249.054 8.26 248.694 8.26C248.334 8.26 248.01 8.344 247.722 8.512C247.442 8.68 247.218 8.916 247.05 9.22C246.89 9.516 246.81 9.856 246.81 10.24ZM257.426 10.84C257.426 11.28 257.526 11.62 257.726 11.86C257.926 12.1 258.218 12.22 258.602 12.22C258.882 12.22 259.126 12.164 259.334 12.052C259.55 11.932 259.714 11.768 259.826 11.56C259.946 11.352 260.006 11.112 260.006 10.84V7.48H260.966V13H260.006V12.136C259.822 12.464 259.594 12.712 259.322 12.88C259.05 13.04 258.73 13.12 258.362 13.12C257.786 13.12 257.326 12.924 256.982 12.532C256.638 12.14 256.466 11.616 256.466 10.96V7.48H257.426V10.84ZM262.999 11.308C263.111 11.476 263.239 11.632 263.383 11.776C263.527 11.92 263.691 12.036 263.875 12.124C264.067 12.204 264.275 12.244 264.499 12.244C264.771 12.244 264.983 12.184 265.135 12.064C265.295 11.936 265.375 11.764 265.375 11.548C265.375 11.356 265.311 11.196 265.183 11.068C265.063 10.932 264.907 10.82 264.715 10.732C264.523 10.636 264.319 10.548 264.103 10.468C263.863 10.372 263.619 10.26 263.371 10.132C263.131 9.996 262.927 9.824 262.759 9.616C262.599 9.4 262.519 9.132 262.519 8.812C262.519 8.484 262.603 8.212 262.771 7.996C262.947 7.78 263.171 7.62 263.443 7.516C263.723 7.412 264.011 7.36 264.307 7.36C264.603 7.36 264.879 7.408 265.135 7.504C265.399 7.6 265.631 7.728 265.831 7.888C266.031 8.048 266.187 8.232 266.299 8.44L265.531 8.932C265.379 8.724 265.187 8.552 264.955 8.416C264.731 8.28 264.475 8.212 264.187 8.212C263.987 8.212 263.815 8.256 263.671 8.344C263.527 8.432 263.455 8.568 263.455 8.752C263.455 8.896 263.511 9.024 263.623 9.136C263.735 9.248 263.879 9.348 264.055 9.436C264.231 9.524 264.415 9.608 264.607 9.688C264.927 9.816 265.219 9.956 265.483 10.108C265.747 10.252 265.955 10.428 266.107 10.636C266.267 10.844 266.347 11.112 266.347 11.44C266.347 11.92 266.171 12.32 265.819 12.64C265.475 12.96 265.019 13.12 264.451 13.12C264.083 13.12 263.751 13.056 263.455 12.928C263.159 12.792 262.907 12.62 262.699 12.412C262.499 12.204 262.347 11.992 262.243 11.776L262.999 11.308ZM269.747 13.12C269.235 13.12 268.779 13 268.379 12.76C267.987 12.512 267.679 12.172 267.455 11.74C267.239 11.308 267.131 10.808 267.131 10.24C267.131 9.664 267.243 9.16 267.467 8.728C267.699 8.296 268.019 7.96 268.427 7.72C268.843 7.48 269.323 7.36 269.867 7.36C270.411 7.36 270.875 7.476 271.259 7.708C271.651 7.932 271.951 8.256 272.159 8.68C272.367 9.104 272.471 9.608 272.471 10.192C272.471 10.248 272.467 10.308 272.459 10.372C272.459 10.428 272.459 10.464 272.459 10.48H267.743V9.664H271.703L271.319 10.216C271.343 10.176 271.367 10.116 271.391 10.036C271.415 9.948 271.427 9.876 271.427 9.82C271.427 9.492 271.359 9.208 271.223 8.968C271.095 8.728 270.915 8.54 270.683 8.404C270.451 8.268 270.179 8.2 269.867 8.2C269.499 8.2 269.183 8.28 268.919 8.44C268.663 8.592 268.463 8.816 268.319 9.112C268.183 9.4 268.111 9.756 268.103 10.18C268.103 10.612 268.171 10.98 268.307 11.284C268.443 11.588 268.643 11.82 268.907 11.98C269.171 12.14 269.491 12.22 269.867 12.22C270.243 12.22 270.575 12.14 270.863 11.98C271.151 11.812 271.395 11.56 271.595 11.224L272.375 11.716C272.087 12.18 271.723 12.532 271.283 12.772C270.851 13.004 270.339 13.12 269.747 13.12ZM274.747 7.48V13H273.787V7.48H274.747ZM276.415 8.536C276.287 8.44 276.171 8.372 276.067 8.332C275.963 8.284 275.831 8.26 275.671 8.26C275.431 8.26 275.243 8.32 275.107 8.44C274.971 8.56 274.875 8.724 274.819 8.932C274.771 9.14 274.747 9.376 274.747 9.64H274.315C274.315 9.2 274.391 8.812 274.543 8.476C274.703 8.132 274.907 7.86 275.155 7.66C275.403 7.46 275.655 7.36 275.911 7.36C276.111 7.36 276.295 7.388 276.463 7.444C276.639 7.492 276.799 7.592 276.943 7.744L276.415 8.536ZM100.83 22.2C100.83 22.016 100.894 21.86 101.022 21.732C101.158 21.604 101.314 21.54 101.49 21.54C101.674 21.54 101.83 21.604 101.958 21.732C102.086 21.86 102.15 22.016 102.15 22.2C102.15 22.376 102.086 22.532 101.958 22.668C101.83 22.796 101.674 22.86 101.49 22.86C101.314 22.86 101.158 22.796 101.022 22.668C100.894 22.532 100.83 22.376 100.83 22.2ZM101.01 24.48H101.97V30H101.01V24.48ZM107.487 26.64C107.487 26.184 107.387 25.84 107.187 25.608C106.987 25.376 106.695 25.26 106.311 25.26C106.031 25.26 105.783 25.32 105.567 25.44C105.359 25.552 105.195 25.712 105.075 25.92C104.963 26.128 104.907 26.368 104.907 26.64V30H103.947V24.48H104.907V25.344C105.091 25.008 105.319 24.76 105.591 24.6C105.871 24.44 106.191 24.36 106.551 24.36C107.135 24.36 107.595 24.556 107.931 24.948C108.275 25.332 108.447 25.856 108.447 26.52V30H107.487V26.64ZM109.412 24.48H112.172V25.38H109.412V24.48ZM110.312 22.56H111.272V30H110.312V22.56ZM115.27 30.12C114.758 30.12 114.302 30 113.902 29.76C113.51 29.512 113.202 29.172 112.978 28.74C112.762 28.308 112.654 27.808 112.654 27.24C112.654 26.664 112.766 26.16 112.99 25.728C113.222 25.296 113.542 24.96 113.95 24.72C114.366 24.48 114.846 24.36 115.39 24.36C115.934 24.36 116.398 24.476 116.782 24.708C117.174 24.932 117.474 25.256 117.682 25.68C117.89 26.104 117.994 26.608 117.994 27.192C117.994 27.248 117.99 27.308 117.982 27.372C117.982 27.428 117.982 27.464 117.982 27.48H113.266V26.664H117.226L116.842 27.216C116.866 27.176 116.89 27.116 116.914 27.036C116.938 26.948 116.95 26.876 116.95 26.82C116.95 26.492 116.882 26.208 116.746 25.968C116.618 25.728 116.438 25.54 116.206 25.404C115.974 25.268 115.702 25.2 115.39 25.2C115.022 25.2 114.706 25.28 114.442 25.44C114.186 25.592 113.986 25.816 113.842 26.112C113.706 26.4 113.634 26.756 113.626 27.18C113.626 27.612 113.694 27.98 113.83 28.284C113.966 28.588 114.166 28.82 114.43 28.98C114.694 29.14 115.014 29.22 115.39 29.22C115.766 29.22 116.098 29.14 116.386 28.98C116.674 28.812 116.918 28.56 117.118 28.224L117.898 28.716C117.61 29.18 117.246 29.532 116.806 29.772C116.374 30.004 115.862 30.12 115.27 30.12ZM120.27 24.48V30H119.31V24.48H120.27ZM121.938 25.536C121.81 25.44 121.694 25.372 121.59 25.332C121.486 25.284 121.354 25.26 121.194 25.26C120.954 25.26 120.766 25.32 120.63 25.44C120.494 25.56 120.398 25.724 120.342 25.932C120.294 26.14 120.27 26.376 120.27 26.64H119.838C119.838 26.2 119.914 25.812 120.066 25.476C120.226 25.132 120.43 24.86 120.678 24.66C120.926 24.46 121.178 24.36 121.434 24.36C121.634 24.36 121.818 24.388 121.986 24.444C122.162 24.492 122.322 24.592 122.466 24.744L121.938 25.536ZM123.003 24.48H125.763V25.38H123.003V24.48ZM125.667 21.792C125.587 21.656 125.491 21.572 125.379 21.54C125.275 21.5 125.175 21.48 125.079 21.48C124.959 21.48 124.855 21.516 124.767 21.588C124.687 21.652 124.623 21.764 124.575 21.924C124.527 22.084 124.503 22.296 124.503 22.56V30H123.543V22.44C123.543 22 123.607 21.64 123.735 21.36C123.863 21.08 124.043 20.872 124.275 20.736C124.515 20.592 124.803 20.52 125.139 20.52C125.315 20.52 125.471 20.544 125.607 20.592C125.743 20.64 125.859 20.7 125.955 20.772C126.059 20.844 126.139 20.92 126.195 21L125.667 21.792ZM127.289 28.296C127.289 28.504 127.337 28.684 127.433 28.836C127.537 28.988 127.677 29.104 127.853 29.184C128.037 29.256 128.245 29.292 128.477 29.292C128.773 29.292 129.037 29.232 129.269 29.112C129.509 28.992 129.697 28.824 129.833 28.608C129.977 28.384 130.049 28.128 130.049 27.84L130.241 28.56C130.241 28.912 130.133 29.204 129.917 29.436C129.709 29.668 129.449 29.84 129.137 29.952C128.833 30.064 128.529 30.12 128.225 30.12C127.889 30.12 127.573 30.052 127.277 29.916C126.989 29.772 126.757 29.568 126.581 29.304C126.405 29.04 126.317 28.72 126.317 28.344C126.317 27.808 126.505 27.38 126.881 27.06C127.265 26.732 127.797 26.568 128.477 26.568C128.877 26.568 129.209 26.616 129.473 26.712C129.745 26.8 129.961 26.904 130.121 27.024C130.281 27.136 130.389 27.228 130.445 27.3V27.864C130.165 27.672 129.877 27.536 129.581 27.456C129.285 27.368 128.969 27.324 128.633 27.324C128.321 27.324 128.065 27.364 127.865 27.444C127.673 27.524 127.529 27.636 127.433 27.78C127.337 27.924 127.289 28.096 127.289 28.296ZM127.145 25.752L126.677 25.044C126.885 24.892 127.169 24.74 127.529 24.588C127.897 24.436 128.337 24.36 128.849 24.36C129.281 24.36 129.657 24.428 129.977 24.564C130.305 24.692 130.557 24.88 130.733 25.128C130.917 25.376 131.009 25.68 131.009 26.04V30H130.049V26.172C130.049 25.98 130.017 25.824 129.953 25.704C129.889 25.576 129.797 25.476 129.677 25.404C129.565 25.332 129.433 25.28 129.281 25.248C129.129 25.216 128.969 25.2 128.801 25.2C128.529 25.2 128.281 25.232 128.057 25.296C127.841 25.36 127.657 25.436 127.505 25.524C127.353 25.612 127.233 25.688 127.145 25.752ZM133.066 27.24C133.066 27.624 133.146 27.964 133.306 28.26C133.474 28.556 133.698 28.792 133.978 28.968C134.266 29.136 134.59 29.22 134.95 29.22C135.246 29.22 135.522 29.176 135.778 29.088C136.042 28.992 136.27 28.868 136.462 28.716C136.654 28.556 136.79 28.388 136.87 28.212V29.412C136.678 29.636 136.402 29.812 136.042 29.94C135.69 30.06 135.326 30.12 134.95 30.12C134.414 30.12 133.93 29.996 133.498 29.748C133.066 29.5 132.722 29.16 132.466 28.728C132.218 28.288 132.094 27.792 132.094 27.24C132.094 26.68 132.218 26.184 132.466 25.752C132.722 25.32 133.066 24.98 133.498 24.732C133.93 24.484 134.414 24.36 134.95 24.36C135.326 24.36 135.69 24.424 136.042 24.552C136.402 24.672 136.678 24.844 136.87 25.068V26.268C136.79 26.084 136.654 25.916 136.462 25.764C136.27 25.612 136.042 25.492 135.778 25.404C135.522 25.308 135.246 25.26 134.95 25.26C134.59 25.26 134.266 25.344 133.978 25.512C133.698 25.68 133.474 25.916 133.306 26.22C133.146 26.516 133.066 26.856 133.066 27.24ZM140.501 30.12C139.989 30.12 139.533 30 139.133 29.76C138.741 29.512 138.433 29.172 138.209 28.74C137.993 28.308 137.885 27.808 137.885 27.24C137.885 26.664 137.997 26.16 138.221 25.728C138.453 25.296 138.773 24.96 139.181 24.72C139.597 24.48 140.077 24.36 140.621 24.36C141.165 24.36 141.629 24.476 142.013 24.708C142.405 24.932 142.705 25.256 142.913 25.68C143.121 26.104 143.225 26.608 143.225 27.192C143.225 27.248 143.221 27.308 143.213 27.372C143.213 27.428 143.213 27.464 143.213 27.48H138.497V26.664H142.457L142.073 27.216C142.097 27.176 142.121 27.116 142.145 27.036C142.169 26.948 142.181 26.876 142.181 26.82C142.181 26.492 142.113 26.208 141.977 25.968C141.849 25.728 141.669 25.54 141.437 25.404C141.205 25.268 140.933 25.2 140.621 25.2C140.253 25.2 139.937 25.28 139.673 25.44C139.417 25.592 139.217 25.816 139.073 26.112C138.937 26.4 138.865 26.756 138.857 27.18C138.857 27.612 138.925 27.98 139.061 28.284C139.197 28.588 139.397 28.82 139.661 28.98C139.925 29.14 140.245 29.22 140.621 29.22C140.997 29.22 141.329 29.14 141.617 28.98C141.905 28.812 142.149 28.56 142.349 28.224L143.129 28.716C142.841 29.18 142.477 29.532 142.037 29.772C141.605 30.004 141.093 30.12 140.501 30.12ZM148.57 28.296C148.57 28.504 148.618 28.684 148.714 28.836C148.818 28.988 148.958 29.104 149.134 29.184C149.318 29.256 149.526 29.292 149.758 29.292C150.054 29.292 150.318 29.232 150.55 29.112C150.79 28.992 150.978 28.824 151.114 28.608C151.258 28.384 151.33 28.128 151.33 27.84L151.522 28.56C151.522 28.912 151.414 29.204 151.198 29.436C150.99 29.668 150.73 29.84 150.418 29.952C150.114 30.064 149.81 30.12 149.506 30.12C149.17 30.12 148.854 30.052 148.558 29.916C148.27 29.772 148.038 29.568 147.862 29.304C147.686 29.04 147.598 28.72 147.598 28.344C147.598 27.808 147.786 27.38 148.162 27.06C148.546 26.732 149.078 26.568 149.758 26.568C150.158 26.568 150.49 26.616 150.754 26.712C151.026 26.8 151.242 26.904 151.402 27.024C151.562 27.136 151.67 27.228 151.726 27.3V27.864C151.446 27.672 151.158 27.536 150.862 27.456C150.566 27.368 150.25 27.324 149.914 27.324C149.602 27.324 149.346 27.364 149.146 27.444C148.954 27.524 148.81 27.636 148.714 27.78C148.618 27.924 148.57 28.096 148.57 28.296ZM148.426 25.752L147.958 25.044C148.166 24.892 148.45 24.74 148.81 24.588C149.178 24.436 149.618 24.36 150.13 24.36C150.562 24.36 150.938 24.428 151.258 24.564C151.586 24.692 151.838 24.88 152.014 25.128C152.198 25.376 152.29 25.68 152.29 26.04V30H151.33V26.172C151.33 25.98 151.298 25.824 151.234 25.704C151.17 25.576 151.078 25.476 150.958 25.404C150.846 25.332 150.714 25.28 150.562 25.248C150.41 25.216 150.25 25.2 150.082 25.2C149.81 25.2 149.562 25.232 149.338 25.296C149.122 25.36 148.938 25.436 148.786 25.524C148.634 25.612 148.514 25.688 148.426 25.752ZM157.456 26.64C157.456 26.184 157.356 25.84 157.156 25.608C156.956 25.376 156.664 25.26 156.28 25.26C156 25.26 155.752 25.32 155.536 25.44C155.328 25.552 155.164 25.712 155.044 25.92C154.932 26.128 154.876 26.368 154.876 26.64V30H153.916V24.48H154.876V25.344C155.06 25.008 155.288 24.76 155.56 24.6C155.84 24.44 156.16 24.36 156.52 24.36C157.104 24.36 157.564 24.556 157.9 24.948C158.244 25.332 158.416 25.856 158.416 26.52V30H157.456V26.64ZM164.36 20.64H165.32V30H164.36V20.64ZM159.74 27.24C159.74 26.64 159.864 26.128 160.112 25.704C160.36 25.272 160.692 24.94 161.108 24.708C161.524 24.476 161.98 24.36 162.476 24.36C162.94 24.36 163.344 24.476 163.688 24.708C164.032 24.94 164.3 25.272 164.492 25.704C164.692 26.128 164.792 26.64 164.792 27.24C164.792 27.832 164.692 28.344 164.492 28.776C164.3 29.208 164.032 29.54 163.688 29.772C163.344 30.004 162.94 30.12 162.476 30.12C161.98 30.12 161.524 30.004 161.108 29.772C160.692 29.54 160.36 29.208 160.112 28.776C159.864 28.344 159.74 27.832 159.74 27.24ZM160.712 27.24C160.712 27.664 160.796 28.024 160.964 28.32C161.14 28.616 161.372 28.84 161.66 28.992C161.948 29.144 162.26 29.22 162.596 29.22C162.876 29.22 163.152 29.144 163.424 28.992C163.696 28.84 163.92 28.616 164.096 28.32C164.272 28.024 164.36 27.664 164.36 27.24C164.36 26.816 164.272 26.456 164.096 26.16C163.92 25.864 163.696 25.64 163.424 25.488C163.152 25.336 162.876 25.26 162.596 25.26C162.26 25.26 161.948 25.336 161.66 25.488C161.372 25.64 161.14 25.864 160.964 26.16C160.796 26.456 160.712 26.816 160.712 27.24ZM170.89 28.308C171.002 28.476 171.13 28.632 171.274 28.776C171.418 28.92 171.582 29.036 171.766 29.124C171.958 29.204 172.166 29.244 172.39 29.244C172.662 29.244 172.874 29.184 173.026 29.064C173.186 28.936 173.266 28.764 173.266 28.548C173.266 28.356 173.202 28.196 173.074 28.068C172.954 27.932 172.798 27.82 172.606 27.732C172.414 27.636 172.21 27.548 171.994 27.468C171.754 27.372 171.51 27.26 171.262 27.132C171.022 26.996 170.818 26.824 170.65 26.616C170.49 26.4 170.41 26.132 170.41 25.812C170.41 25.484 170.494 25.212 170.662 24.996C170.838 24.78 171.062 24.62 171.334 24.516C171.614 24.412 171.902 24.36 172.198 24.36C172.494 24.36 172.77 24.408 173.026 24.504C173.29 24.6 173.522 24.728 173.722 24.888C173.922 25.048 174.078 25.232 174.19 25.44L173.422 25.932C173.27 25.724 173.078 25.552 172.846 25.416C172.622 25.28 172.366 25.212 172.078 25.212C171.878 25.212 171.706 25.256 171.562 25.344C171.418 25.432 171.346 25.568 171.346 25.752C171.346 25.896 171.402 26.024 171.514 26.136C171.626 26.248 171.77 26.348 171.946 26.436C172.122 26.524 172.306 26.608 172.498 26.688C172.818 26.816 173.11 26.956 173.374 27.108C173.638 27.252 173.846 27.428 173.998 27.636C174.158 27.844 174.238 28.112 174.238 28.44C174.238 28.92 174.062 29.32 173.71 29.64C173.366 29.96 172.91 30.12 172.342 30.12C171.974 30.12 171.642 30.056 171.346 29.928C171.05 29.792 170.798 29.62 170.59 29.412C170.39 29.204 170.238 28.992 170.134 28.776L170.89 28.308ZM177.638 30.12C177.126 30.12 176.67 30 176.27 29.76C175.878 29.512 175.57 29.172 175.346 28.74C175.13 28.308 175.022 27.808 175.022 27.24C175.022 26.664 175.134 26.16 175.358 25.728C175.59 25.296 175.91 24.96 176.318 24.72C176.734 24.48 177.214 24.36 177.758 24.36C178.302 24.36 178.766 24.476 179.15 24.708C179.542 24.932 179.842 25.256 180.05 25.68C180.258 26.104 180.362 26.608 180.362 27.192C180.362 27.248 180.358 27.308 180.35 27.372C180.35 27.428 180.35 27.464 180.35 27.48H175.634V26.664H179.594L179.21 27.216C179.234 27.176 179.258 27.116 179.282 27.036C179.306 26.948 179.318 26.876 179.318 26.82C179.318 26.492 179.25 26.208 179.114 25.968C178.986 25.728 178.806 25.54 178.574 25.404C178.342 25.268 178.07 25.2 177.758 25.2C177.39 25.2 177.074 25.28 176.81 25.44C176.554 25.592 176.354 25.816 176.21 26.112C176.074 26.4 176.002 26.756 175.994 27.18C175.994 27.612 176.062 27.98 176.198 28.284C176.334 28.588 176.534 28.82 176.798 28.98C177.062 29.14 177.382 29.22 177.758 29.22C178.134 29.22 178.466 29.14 178.754 28.98C179.042 28.812 179.286 28.56 179.486 28.224L180.266 28.716C179.978 29.18 179.614 29.532 179.174 29.772C178.742 30.004 178.23 30.12 177.638 30.12ZM182.637 24.48V30H181.677V24.48H182.637ZM184.305 25.536C184.177 25.44 184.061 25.372 183.957 25.332C183.853 25.284 183.721 25.26 183.561 25.26C183.321 25.26 183.133 25.32 182.997 25.44C182.861 25.56 182.765 25.724 182.709 25.932C182.661 26.14 182.637 26.376 182.637 26.64H182.205C182.205 26.2 182.281 25.812 182.433 25.476C182.593 25.132 182.797 24.86 183.045 24.66C183.293 24.46 183.545 24.36 183.801 24.36C184.001 24.36 184.185 24.388 184.353 24.444C184.529 24.492 184.689 24.592 184.833 24.744L184.305 25.536ZM185.254 24.48H186.334L187.894 28.38L189.454 24.48H190.534L187.894 30.42L185.254 24.48ZM193.399 30.12C192.887 30.12 192.431 30 192.031 29.76C191.639 29.512 191.331 29.172 191.107 28.74C190.891 28.308 190.783 27.808 190.783 27.24C190.783 26.664 190.895 26.16 191.119 25.728C191.351 25.296 191.671 24.96 192.079 24.72C192.495 24.48 192.975 24.36 193.519 24.36C194.063 24.36 194.527 24.476 194.911 24.708C195.303 24.932 195.603 25.256 195.811 25.68C196.019 26.104 196.123 26.608 196.123 27.192C196.123 27.248 196.119 27.308 196.111 27.372C196.111 27.428 196.111 27.464 196.111 27.48H191.395V26.664H195.355L194.971 27.216C194.995 27.176 195.019 27.116 195.043 27.036C195.067 26.948 195.079 26.876 195.079 26.82C195.079 26.492 195.011 26.208 194.875 25.968C194.747 25.728 194.567 25.54 194.335 25.404C194.103 25.268 193.831 25.2 193.519 25.2C193.151 25.2 192.835 25.28 192.571 25.44C192.315 25.592 192.115 25.816 191.971 26.112C191.835 26.4 191.763 26.756 191.755 27.18C191.755 27.612 191.823 27.98 191.959 28.284C192.095 28.588 192.295 28.82 192.559 28.98C192.823 29.14 193.143 29.22 193.519 29.22C193.895 29.22 194.227 29.14 194.515 28.98C194.803 28.812 195.047 28.56 195.247 28.224L196.027 28.716C195.739 29.18 195.375 29.532 194.935 29.772C194.503 30.004 193.991 30.12 193.399 30.12ZM198.399 24.48V30H197.439V24.48H198.399ZM200.067 25.536C199.939 25.44 199.823 25.372 199.719 25.332C199.615 25.284 199.483 25.26 199.323 25.26C199.083 25.26 198.895 25.32 198.759 25.44C198.623 25.56 198.527 25.724 198.471 25.932C198.423 26.14 198.399 26.376 198.399 26.64H197.967C197.967 26.2 198.043 25.812 198.195 25.476C198.355 25.132 198.559 24.86 198.807 24.66C199.055 24.46 199.307 24.36 199.563 24.36C199.763 24.36 199.947 24.388 200.115 24.444C200.291 24.492 200.451 24.592 200.595 24.744L200.067 25.536ZM206.05 32.64H205.09V24.48H206.05V32.64ZM210.67 27.24C210.67 27.832 210.546 28.344 210.298 28.776C210.05 29.208 209.718 29.54 209.302 29.772C208.894 30.004 208.438 30.12 207.934 30.12C207.478 30.12 207.074 30.004 206.722 29.772C206.378 29.54 206.106 29.208 205.906 28.776C205.714 28.344 205.618 27.832 205.618 27.24C205.618 26.64 205.714 26.128 205.906 25.704C206.106 25.272 206.378 24.94 206.722 24.708C207.074 24.476 207.478 24.36 207.934 24.36C208.438 24.36 208.894 24.476 209.302 24.708C209.718 24.94 210.05 25.272 210.298 25.704C210.546 26.128 210.67 26.64 210.67 27.24ZM209.698 27.24C209.698 26.816 209.61 26.456 209.434 26.16C209.266 25.864 209.038 25.64 208.75 25.488C208.47 25.336 208.158 25.26 207.814 25.26C207.534 25.26 207.258 25.336 206.986 25.488C206.714 25.64 206.49 25.864 206.314 26.16C206.138 26.456 206.05 26.816 206.05 27.24C206.05 27.664 206.138 28.024 206.314 28.32C206.49 28.616 206.714 28.84 206.986 28.992C207.258 29.144 207.534 29.22 207.814 29.22C208.158 29.22 208.47 29.144 208.75 28.992C209.038 28.84 209.266 28.616 209.434 28.32C209.61 28.024 209.698 27.664 209.698 27.24ZM212.954 24.48V30H211.994V24.48H212.954ZM214.622 25.536C214.494 25.44 214.378 25.372 214.274 25.332C214.17 25.284 214.038 25.26 213.878 25.26C213.638 25.26 213.45 25.32 213.314 25.44C213.178 25.56 213.082 25.724 213.026 25.932C212.978 26.14 212.954 26.376 212.954 26.64H212.522C212.522 26.2 212.598 25.812 212.75 25.476C212.91 25.132 213.114 24.86 213.362 24.66C213.61 24.46 213.862 24.36 214.118 24.36C214.318 24.36 214.502 24.388 214.67 24.444C214.846 24.492 215.006 24.592 215.15 24.744L214.622 25.536ZM215.451 27.24C215.451 26.68 215.575 26.184 215.823 25.752C216.079 25.32 216.423 24.98 216.855 24.732C217.287 24.484 217.771 24.36 218.307 24.36C218.851 24.36 219.335 24.484 219.759 24.732C220.191 24.98 220.531 25.32 220.779 25.752C221.035 26.184 221.163 26.68 221.163 27.24C221.163 27.792 221.035 28.288 220.779 28.728C220.531 29.16 220.191 29.5 219.759 29.748C219.335 29.996 218.851 30.12 218.307 30.12C217.771 30.12 217.287 29.996 216.855 29.748C216.423 29.5 216.079 29.16 215.823 28.728C215.575 28.288 215.451 27.792 215.451 27.24ZM216.423 27.24C216.423 27.624 216.503 27.964 216.663 28.26C216.831 28.556 217.055 28.792 217.335 28.968C217.623 29.136 217.947 29.22 218.307 29.22C218.667 29.22 218.987 29.136 219.267 28.968C219.555 28.792 219.779 28.556 219.939 28.26C220.107 27.964 220.191 27.624 220.191 27.24C220.191 26.856 220.107 26.516 219.939 26.22C219.779 25.916 219.555 25.68 219.267 25.512C218.987 25.344 218.667 25.26 218.307 25.26C217.947 25.26 217.623 25.344 217.335 25.512C217.055 25.68 216.831 25.916 216.663 26.22C216.503 26.516 216.423 26.856 216.423 27.24ZM222.11 30.36H223.082C223.082 30.624 223.154 30.868 223.298 31.092C223.442 31.324 223.646 31.508 223.91 31.644C224.174 31.788 224.486 31.86 224.846 31.86C225.126 31.86 225.402 31.792 225.674 31.656C225.946 31.52 226.17 31.304 226.346 31.008C226.53 30.72 226.622 30.344 226.622 29.88V24.48H227.582V29.88C227.582 30.512 227.45 31.04 227.186 31.464C226.922 31.896 226.582 32.22 226.166 32.436C225.75 32.652 225.31 32.76 224.846 32.76C224.31 32.76 223.834 32.66 223.418 32.46C223.01 32.26 222.69 31.976 222.458 31.608C222.226 31.248 222.11 30.832 222.11 30.36ZM222.002 27.24C222.002 26.64 222.126 26.128 222.374 25.704C222.622 25.272 222.954 24.94 223.37 24.708C223.786 24.476 224.242 24.36 224.738 24.36C225.202 24.36 225.606 24.476 225.95 24.708C226.294 24.94 226.562 25.272 226.754 25.704C226.954 26.128 227.054 26.64 227.054 27.24C227.054 27.832 226.954 28.344 226.754 28.776C226.562 29.208 226.294 29.54 225.95 29.772C225.606 30.004 225.202 30.12 224.738 30.12C224.242 30.12 223.786 30.004 223.37 29.772C222.954 29.54 222.622 29.208 222.374 28.776C222.126 28.344 222.002 27.832 222.002 27.24ZM222.974 27.24C222.974 27.664 223.058 28.024 223.226 28.32C223.402 28.616 223.634 28.84 223.922 28.992C224.21 29.144 224.522 29.22 224.858 29.22C225.138 29.22 225.414 29.144 225.686 28.992C225.958 28.84 226.182 28.616 226.358 28.32C226.534 28.024 226.622 27.664 226.622 27.24C226.622 26.92 226.57 26.64 226.466 26.4C226.362 26.152 226.222 25.944 226.046 25.776C225.878 25.608 225.69 25.48 225.482 25.392C225.274 25.304 225.066 25.26 224.858 25.26C224.522 25.26 224.21 25.336 223.922 25.488C223.634 25.64 223.402 25.864 223.226 26.16C223.058 26.456 222.974 26.816 222.974 27.24ZM230.286 24.48V30H229.326V24.48H230.286ZM231.954 25.536C231.826 25.44 231.71 25.372 231.606 25.332C231.502 25.284 231.37 25.26 231.21 25.26C230.97 25.26 230.782 25.32 230.646 25.44C230.51 25.56 230.414 25.724 230.358 25.932C230.31 26.14 230.286 26.376 230.286 26.64H229.854C229.854 26.2 229.93 25.812 230.082 25.476C230.242 25.132 230.446 24.86 230.694 24.66C230.942 24.46 231.194 24.36 231.45 24.36C231.65 24.36 231.834 24.388 232.002 24.444C232.178 24.492 232.338 24.592 232.482 24.744L231.954 25.536ZM233.871 28.296C233.871 28.504 233.919 28.684 234.015 28.836C234.119 28.988 234.259 29.104 234.435 29.184C234.619 29.256 234.827 29.292 235.059 29.292C235.355 29.292 235.619 29.232 235.851 29.112C236.091 28.992 236.279 28.824 236.415 28.608C236.559 28.384 236.631 28.128 236.631 27.84L236.823 28.56C236.823 28.912 236.715 29.204 236.499 29.436C236.291 29.668 236.031 29.84 235.719 29.952C235.415 30.064 235.111 30.12 234.807 30.12C234.471 30.12 234.155 30.052 233.859 29.916C233.571 29.772 233.339 29.568 233.163 29.304C232.987 29.04 232.899 28.72 232.899 28.344C232.899 27.808 233.087 27.38 233.463 27.06C233.847 26.732 234.379 26.568 235.059 26.568C235.459 26.568 235.791 26.616 236.055 26.712C236.327 26.8 236.543 26.904 236.703 27.024C236.863 27.136 236.971 27.228 237.027 27.3V27.864C236.747 27.672 236.459 27.536 236.163 27.456C235.867 27.368 235.551 27.324 235.215 27.324C234.903 27.324 234.647 27.364 234.447 27.444C234.255 27.524 234.111 27.636 234.015 27.78C233.919 27.924 233.871 28.096 233.871 28.296ZM233.727 25.752L233.259 25.044C233.467 24.892 233.751 24.74 234.111 24.588C234.479 24.436 234.919 24.36 235.431 24.36C235.863 24.36 236.239 24.428 236.559 24.564C236.887 24.692 237.139 24.88 237.315 25.128C237.499 25.376 237.591 25.68 237.591 26.04V30H236.631V26.172C236.631 25.98 236.599 25.824 236.535 25.704C236.471 25.576 236.379 25.476 236.259 25.404C236.147 25.332 236.015 25.28 235.863 25.248C235.711 25.216 235.551 25.2 235.383 25.2C235.111 25.2 234.863 25.232 234.639 25.296C234.423 25.36 234.239 25.436 234.087 25.524C233.935 25.612 233.815 25.688 233.727 25.752ZM246.776 26.52V30H245.816V26.64C245.816 26.168 245.728 25.82 245.552 25.596C245.384 25.372 245.12 25.26 244.76 25.26C244.496 25.26 244.268 25.316 244.076 25.428C243.884 25.532 243.736 25.688 243.632 25.896C243.528 26.104 243.476 26.352 243.476 26.64V30H242.516V26.64C242.516 26.168 242.428 25.82 242.252 25.596C242.084 25.372 241.82 25.26 241.46 25.26C241.196 25.26 240.968 25.316 240.776 25.428C240.584 25.532 240.436 25.688 240.332 25.896C240.228 26.104 240.176 26.352 240.176 26.64V30H239.216V24.48H240.176V25.284C240.344 24.972 240.552 24.74 240.8 24.588C241.056 24.436 241.356 24.36 241.7 24.36C242.084 24.36 242.412 24.452 242.684 24.636C242.964 24.812 243.168 25.064 243.296 25.392C243.488 25.048 243.728 24.792 244.016 24.624C244.304 24.448 244.632 24.36 245 24.36C245.376 24.36 245.696 24.444 245.96 24.612C246.224 24.78 246.424 25.028 246.56 25.356C246.704 25.676 246.776 26.064 246.776 26.52ZM256.14 26.52V30H255.18V26.64C255.18 26.168 255.092 25.82 254.916 25.596C254.748 25.372 254.484 25.26 254.124 25.26C253.86 25.26 253.632 25.316 253.44 25.428C253.248 25.532 253.1 25.688 252.996 25.896C252.892 26.104 252.84 26.352 252.84 26.64V30H251.88V26.64C251.88 26.168 251.792 25.82 251.616 25.596C251.448 25.372 251.184 25.26 250.824 25.26C250.56 25.26 250.332 25.316 250.14 25.428C249.948 25.532 249.8 25.688 249.696 25.896C249.592 26.104 249.54 26.352 249.54 26.64V30H248.58V24.48H249.54V25.284C249.708 24.972 249.916 24.74 250.164 24.588C250.42 24.436 250.72 24.36 251.064 24.36C251.448 24.36 251.776 24.452 252.048 24.636C252.328 24.812 252.532 25.064 252.66 25.392C252.852 25.048 253.092 24.792 253.38 24.624C253.668 24.448 253.996 24.36 254.364 24.36C254.74 24.36 255.06 24.444 255.324 24.612C255.588 24.78 255.788 25.028 255.924 25.356C256.068 25.676 256.14 26.064 256.14 26.52ZM257.943 22.2C257.943 22.016 258.007 21.86 258.135 21.732C258.271 21.604 258.427 21.54 258.603 21.54C258.787 21.54 258.943 21.604 259.071 21.732C259.199 21.86 259.263 22.016 259.263 22.2C259.263 22.376 259.199 22.532 259.071 22.668C258.943 22.796 258.787 22.86 258.603 22.86C258.427 22.86 258.271 22.796 258.135 22.668C258.007 22.532 257.943 22.376 257.943 22.2ZM258.123 24.48H259.083V30H258.123V24.48ZM264.6 26.64C264.6 26.184 264.5 25.84 264.3 25.608C264.1 25.376 263.808 25.26 263.424 25.26C263.144 25.26 262.896 25.32 262.68 25.44C262.472 25.552 262.308 25.712 262.188 25.92C262.076 26.128 262.02 26.368 262.02 26.64V30H261.06V24.48H262.02V25.344C262.204 25.008 262.432 24.76 262.704 24.6C262.984 24.44 263.304 24.36 263.664 24.36C264.248 24.36 264.708 24.556 265.044 24.948C265.388 25.332 265.56 25.856 265.56 26.52V30H264.6V26.64ZM266.993 30.36H267.965C267.965 30.624 268.037 30.868 268.181 31.092C268.325 31.324 268.529 31.508 268.793 31.644C269.057 31.788 269.369 31.86 269.729 31.86C270.009 31.86 270.285 31.792 270.557 31.656C270.829 31.52 271.053 31.304 271.229 31.008C271.413 30.72 271.505 30.344 271.505 29.88V24.48H272.465V29.88C272.465 30.512 272.333 31.04 272.069 31.464C271.805 31.896 271.465 32.22 271.049 32.436C270.633 32.652 270.193 32.76 269.729 32.76C269.193 32.76 268.717 32.66 268.301 32.46C267.893 32.26 267.573 31.976 267.341 31.608C267.109 31.248 266.993 30.832 266.993 30.36ZM266.885 27.24C266.885 26.64 267.009 26.128 267.257 25.704C267.505 25.272 267.837 24.94 268.253 24.708C268.669 24.476 269.125 24.36 269.621 24.36C270.085 24.36 270.489 24.476 270.833 24.708C271.177 24.94 271.445 25.272 271.637 25.704C271.837 26.128 271.937 26.64 271.937 27.24C271.937 27.832 271.837 28.344 271.637 28.776C271.445 29.208 271.177 29.54 270.833 29.772C270.489 30.004 270.085 30.12 269.621 30.12C269.125 30.12 268.669 30.004 268.253 29.772C267.837 29.54 267.505 29.208 267.257 28.776C267.009 28.344 266.885 27.832 266.885 27.24ZM267.857 27.24C267.857 27.664 267.941 28.024 268.109 28.32C268.285 28.616 268.517 28.84 268.805 28.992C269.093 29.144 269.405 29.22 269.741 29.22C270.021 29.22 270.297 29.144 270.569 28.992C270.841 28.84 271.065 28.616 271.241 28.32C271.417 28.024 271.505 27.664 271.505 27.24C271.505 26.92 271.453 26.64 271.349 26.4C271.245 26.152 271.105 25.944 270.929 25.776C270.761 25.608 270.573 25.48 270.365 25.392C270.157 25.304 269.949 25.26 269.741 25.26C269.405 25.26 269.093 25.336 268.805 25.488C268.517 25.64 268.285 25.864 268.109 26.16C267.941 26.456 267.857 26.816 267.857 27.24ZM275.085 28.68L276.045 29.04L274.725 32.04L274.029 31.788L275.085 28.68ZM119.977 45.296C119.977 45.504 120.025 45.684 120.121 45.836C120.225 45.988 120.365 46.104 120.541 46.184C120.725 46.256 120.933 46.292 121.165 46.292C121.461 46.292 121.725 46.232 121.957 46.112C122.197 45.992 122.385 45.824 122.521 45.608C122.665 45.384 122.737 45.128 122.737 44.84L122.929 45.56C122.929 45.912 122.821 46.204 122.605 46.436C122.397 46.668 122.137 46.84 121.825 46.952C121.521 47.064 121.217 47.12 120.913 47.12C120.577 47.12 120.261 47.052 119.965 46.916C119.677 46.772 119.445 46.568 119.269 46.304C119.093 46.04 119.005 45.72 119.005 45.344C119.005 44.808 119.193 44.38 119.569 44.06C119.953 43.732 120.485 43.568 121.165 43.568C121.565 43.568 121.897 43.616 122.161 43.712C122.433 43.8 122.649 43.904 122.809 44.024C122.969 44.136 123.077 44.228 123.133 44.3V44.864C122.853 44.672 122.565 44.536 122.269 44.456C121.973 44.368 121.657 44.324 121.321 44.324C121.009 44.324 120.753 44.364 120.553 44.444C120.361 44.524 120.217 44.636 120.121 44.78C120.025 44.924 119.977 45.096 119.977 45.296ZM119.833 42.752L119.365 42.044C119.573 41.892 119.857 41.74 120.217 41.588C120.585 41.436 121.025 41.36 121.537 41.36C121.969 41.36 122.345 41.428 122.665 41.564C122.993 41.692 123.245 41.88 123.421 42.128C123.605 42.376 123.697 42.68 123.697 43.04V47H122.737V43.172C122.737 42.98 122.705 42.824 122.641 42.704C122.577 42.576 122.485 42.476 122.365 42.404C122.253 42.332 122.121 42.28 121.969 42.248C121.817 42.216 121.657 42.2 121.489 42.2C121.217 42.2 120.969 42.232 120.745 42.296C120.529 42.36 120.345 42.436 120.193 42.524C120.041 42.612 119.921 42.688 119.833 42.752ZM125.55 45.308C125.662 45.476 125.79 45.632 125.934 45.776C126.078 45.92 126.242 46.036 126.426 46.124C126.618 46.204 126.826 46.244 127.05 46.244C127.322 46.244 127.534 46.184 127.686 46.064C127.846 45.936 127.926 45.764 127.926 45.548C127.926 45.356 127.862 45.196 127.734 45.068C127.614 44.932 127.458 44.82 127.266 44.732C127.074 44.636 126.87 44.548 126.654 44.468C126.414 44.372 126.17 44.26 125.922 44.132C125.682 43.996 125.478 43.824 125.31 43.616C125.15 43.4 125.07 43.132 125.07 42.812C125.07 42.484 125.154 42.212 125.322 41.996C125.498 41.78 125.722 41.62 125.994 41.516C126.274 41.412 126.562 41.36 126.858 41.36C127.154 41.36 127.43 41.408 127.686 41.504C127.95 41.6 128.182 41.728 128.382 41.888C128.582 42.048 128.738 42.232 128.85 42.44L128.082 42.932C127.93 42.724 127.738 42.552 127.506 42.416C127.282 42.28 127.026 42.212 126.738 42.212C126.538 42.212 126.366 42.256 126.222 42.344C126.078 42.432 126.006 42.568 126.006 42.752C126.006 42.896 126.062 43.024 126.174 43.136C126.286 43.248 126.43 43.348 126.606 43.436C126.782 43.524 126.966 43.608 127.158 43.688C127.478 43.816 127.77 43.956 128.034 44.108C128.298 44.252 128.506 44.428 128.658 44.636C128.818 44.844 128.898 45.112 128.898 45.44C128.898 45.92 128.722 46.32 128.37 46.64C128.026 46.96 127.57 47.12 127.002 47.12C126.634 47.12 126.302 47.056 126.006 46.928C125.71 46.792 125.458 46.62 125.25 46.412C125.05 46.204 124.898 45.992 124.794 45.776L125.55 45.308ZM132.919 41.48H133.999L135.379 45.068L136.879 41.06L138.487 45.092L139.879 41.48H140.959L138.559 47.42L136.891 43.4L135.319 47.42L132.919 41.48ZM143.876 47.12C143.364 47.12 142.908 47 142.508 46.76C142.116 46.512 141.808 46.172 141.584 45.74C141.368 45.308 141.26 44.808 141.26 44.24C141.26 43.664 141.372 43.16 141.596 42.728C141.828 42.296 142.148 41.96 142.556 41.72C142.972 41.48 143.452 41.36 143.996 41.36C144.54 41.36 145.004 41.476 145.388 41.708C145.78 41.932 146.08 42.256 146.288 42.68C146.496 43.104 146.6 43.608 146.6 44.192C146.6 44.248 146.596 44.308 146.588 44.372C146.588 44.428 146.588 44.464 146.588 44.48H141.872V43.664H145.832L145.448 44.216C145.472 44.176 145.496 44.116 145.52 44.036C145.544 43.948 145.556 43.876 145.556 43.82C145.556 43.492 145.488 43.208 145.352 42.968C145.224 42.728 145.044 42.54 144.812 42.404C144.58 42.268 144.308 42.2 143.996 42.2C143.628 42.2 143.312 42.28 143.048 42.44C142.792 42.592 142.592 42.816 142.448 43.112C142.312 43.4 142.24 43.756 142.232 44.18C142.232 44.612 142.3 44.98 142.436 45.284C142.572 45.588 142.772 45.82 143.036 45.98C143.3 46.14 143.62 46.22 143.996 46.22C144.372 46.22 144.704 46.14 144.992 45.98C145.28 45.812 145.524 45.56 145.724 45.224L146.504 45.716C146.216 46.18 145.852 46.532 145.412 46.772C144.98 47.004 144.468 47.12 143.876 47.12ZM147.916 37.64H148.876V47H147.916V37.64ZM150.681 37.64H151.641V47H150.681V37.64ZM157.477 45.296C157.477 45.504 157.525 45.684 157.621 45.836C157.725 45.988 157.865 46.104 158.041 46.184C158.225 46.256 158.433 46.292 158.665 46.292C158.961 46.292 159.225 46.232 159.457 46.112C159.697 45.992 159.885 45.824 160.021 45.608C160.165 45.384 160.237 45.128 160.237 44.84L160.429 45.56C160.429 45.912 160.321 46.204 160.105 46.436C159.897 46.668 159.637 46.84 159.325 46.952C159.021 47.064 158.717 47.12 158.413 47.12C158.077 47.12 157.761 47.052 157.465 46.916C157.177 46.772 156.945 46.568 156.769 46.304C156.593 46.04 156.505 45.72 156.505 45.344C156.505 44.808 156.693 44.38 157.069 44.06C157.453 43.732 157.985 43.568 158.665 43.568C159.065 43.568 159.397 43.616 159.661 43.712C159.933 43.8 160.149 43.904 160.309 44.024C160.469 44.136 160.577 44.228 160.633 44.3V44.864C160.353 44.672 160.065 44.536 159.769 44.456C159.473 44.368 159.157 44.324 158.821 44.324C158.509 44.324 158.253 44.364 158.053 44.444C157.861 44.524 157.717 44.636 157.621 44.78C157.525 44.924 157.477 45.096 157.477 45.296ZM157.333 42.752L156.865 42.044C157.073 41.892 157.357 41.74 157.717 41.588C158.085 41.436 158.525 41.36 159.037 41.36C159.469 41.36 159.845 41.428 160.165 41.564C160.493 41.692 160.745 41.88 160.921 42.128C161.105 42.376 161.197 42.68 161.197 43.04V47H160.237V43.172C160.237 42.98 160.205 42.824 160.141 42.704C160.077 42.576 159.985 42.476 159.865 42.404C159.753 42.332 159.621 42.28 159.469 42.248C159.317 42.216 159.157 42.2 158.989 42.2C158.717 42.2 158.469 42.232 158.245 42.296C158.029 42.36 157.845 42.436 157.693 42.524C157.541 42.612 157.421 42.688 157.333 42.752ZM163.05 45.308C163.162 45.476 163.29 45.632 163.434 45.776C163.578 45.92 163.742 46.036 163.926 46.124C164.118 46.204 164.326 46.244 164.55 46.244C164.822 46.244 165.034 46.184 165.186 46.064C165.346 45.936 165.426 45.764 165.426 45.548C165.426 45.356 165.362 45.196 165.234 45.068C165.114 44.932 164.958 44.82 164.766 44.732C164.574 44.636 164.37 44.548 164.154 44.468C163.914 44.372 163.67 44.26 163.422 44.132C163.182 43.996 162.978 43.824 162.81 43.616C162.65 43.4 162.57 43.132 162.57 42.812C162.57 42.484 162.654 42.212 162.822 41.996C162.998 41.78 163.222 41.62 163.494 41.516C163.774 41.412 164.062 41.36 164.358 41.36C164.654 41.36 164.93 41.408 165.186 41.504C165.45 41.6 165.682 41.728 165.882 41.888C166.082 42.048 166.238 42.232 166.35 42.44L165.582 42.932C165.43 42.724 165.238 42.552 165.006 42.416C164.782 42.28 164.526 42.212 164.238 42.212C164.038 42.212 163.866 42.256 163.722 42.344C163.578 42.432 163.506 42.568 163.506 42.752C163.506 42.896 163.562 43.024 163.674 43.136C163.786 43.248 163.93 43.348 164.106 43.436C164.282 43.524 164.466 43.608 164.658 43.688C164.978 43.816 165.27 43.956 165.534 44.108C165.798 44.252 166.006 44.428 166.158 44.636C166.318 44.844 166.398 45.112 166.398 45.44C166.398 45.92 166.222 46.32 165.87 46.64C165.526 46.96 165.07 47.12 164.502 47.12C164.134 47.12 163.802 47.056 163.506 46.928C163.21 46.792 162.958 46.62 162.75 46.412C162.55 46.204 162.398 45.992 162.294 45.776L163.05 45.308ZM171.487 45.308C171.599 45.476 171.727 45.632 171.871 45.776C172.015 45.92 172.179 46.036 172.363 46.124C172.555 46.204 172.763 46.244 172.987 46.244C173.259 46.244 173.471 46.184 173.623 46.064C173.783 45.936 173.863 45.764 173.863 45.548C173.863 45.356 173.799 45.196 173.671 45.068C173.551 44.932 173.395 44.82 173.203 44.732C173.011 44.636 172.807 44.548 172.591 44.468C172.351 44.372 172.107 44.26 171.859 44.132C171.619 43.996 171.415 43.824 171.247 43.616C171.087 43.4 171.007 43.132 171.007 42.812C171.007 42.484 171.091 42.212 171.259 41.996C171.435 41.78 171.659 41.62 171.931 41.516C172.211 41.412 172.499 41.36 172.795 41.36C173.091 41.36 173.367 41.408 173.623 41.504C173.887 41.6 174.119 41.728 174.319 41.888C174.519 42.048 174.675 42.232 174.787 42.44L174.019 42.932C173.867 42.724 173.675 42.552 173.443 42.416C173.219 42.28 172.963 42.212 172.675 42.212C172.475 42.212 172.303 42.256 172.159 42.344C172.015 42.432 171.943 42.568 171.943 42.752C171.943 42.896 171.999 43.024 172.111 43.136C172.223 43.248 172.367 43.348 172.543 43.436C172.719 43.524 172.903 43.608 173.095 43.688C173.415 43.816 173.707 43.956 173.971 44.108C174.235 44.252 174.443 44.428 174.595 44.636C174.755 44.844 174.835 45.112 174.835 45.44C174.835 45.92 174.659 46.32 174.307 46.64C173.963 46.96 173.507 47.12 172.939 47.12C172.571 47.12 172.239 47.056 171.943 46.928C171.647 46.792 171.395 46.62 171.187 46.412C170.987 46.204 170.835 45.992 170.731 45.776L171.487 45.308ZM178.235 47.12C177.723 47.12 177.267 47 176.867 46.76C176.475 46.512 176.167 46.172 175.943 45.74C175.727 45.308 175.619 44.808 175.619 44.24C175.619 43.664 175.731 43.16 175.955 42.728C176.187 42.296 176.507 41.96 176.915 41.72C177.331 41.48 177.811 41.36 178.355 41.36C178.899 41.36 179.363 41.476 179.747 41.708C180.139 41.932 180.439 42.256 180.647 42.68C180.855 43.104 180.959 43.608 180.959 44.192C180.959 44.248 180.955 44.308 180.947 44.372C180.947 44.428 180.947 44.464 180.947 44.48H176.231V43.664H180.191L179.807 44.216C179.831 44.176 179.855 44.116 179.879 44.036C179.903 43.948 179.915 43.876 179.915 43.82C179.915 43.492 179.847 43.208 179.711 42.968C179.583 42.728 179.403 42.54 179.171 42.404C178.939 42.268 178.667 42.2 178.355 42.2C177.987 42.2 177.671 42.28 177.407 42.44C177.151 42.592 176.951 42.816 176.807 43.112C176.671 43.4 176.599 43.756 176.591 44.18C176.591 44.612 176.659 44.98 176.795 45.284C176.931 45.588 177.131 45.82 177.395 45.98C177.659 46.14 177.979 46.22 178.355 46.22C178.731 46.22 179.063 46.14 179.351 45.98C179.639 45.812 179.883 45.56 180.083 45.224L180.863 45.716C180.575 46.18 180.211 46.532 179.771 46.772C179.339 47.004 178.827 47.12 178.235 47.12ZM183.175 49.64H182.215V41.48H183.175V49.64ZM187.795 44.24C187.795 44.832 187.671 45.344 187.423 45.776C187.175 46.208 186.843 46.54 186.427 46.772C186.019 47.004 185.563 47.12 185.059 47.12C184.603 47.12 184.199 47.004 183.847 46.772C183.503 46.54 183.231 46.208 183.031 45.776C182.839 45.344 182.743 44.832 182.743 44.24C182.743 43.64 182.839 43.128 183.031 42.704C183.231 42.272 183.503 41.94 183.847 41.708C184.199 41.476 184.603 41.36 185.059 41.36C185.563 41.36 186.019 41.476 186.427 41.708C186.843 41.94 187.175 42.272 187.423 42.704C187.671 43.128 187.795 43.64 187.795 44.24ZM186.823 44.24C186.823 43.816 186.735 43.456 186.559 43.16C186.391 42.864 186.163 42.64 185.875 42.488C185.595 42.336 185.283 42.26 184.939 42.26C184.659 42.26 184.383 42.336 184.111 42.488C183.839 42.64 183.615 42.864 183.439 43.16C183.263 43.456 183.175 43.816 183.175 44.24C183.175 44.664 183.263 45.024 183.439 45.32C183.615 45.616 183.839 45.84 184.111 45.992C184.383 46.144 184.659 46.22 184.939 46.22C185.283 46.22 185.595 46.144 185.875 45.992C186.163 45.84 186.391 45.616 186.559 45.32C186.735 45.024 186.823 44.664 186.823 44.24ZM189.551 45.296C189.551 45.504 189.599 45.684 189.695 45.836C189.799 45.988 189.939 46.104 190.115 46.184C190.299 46.256 190.507 46.292 190.739 46.292C191.035 46.292 191.299 46.232 191.531 46.112C191.771 45.992 191.959 45.824 192.095 45.608C192.239 45.384 192.311 45.128 192.311 44.84L192.503 45.56C192.503 45.912 192.395 46.204 192.179 46.436C191.971 46.668 191.711 46.84 191.399 46.952C191.095 47.064 190.791 47.12 190.487 47.12C190.151 47.12 189.835 47.052 189.539 46.916C189.251 46.772 189.019 46.568 188.843 46.304C188.667 46.04 188.579 45.72 188.579 45.344C188.579 44.808 188.767 44.38 189.143 44.06C189.527 43.732 190.059 43.568 190.739 43.568C191.139 43.568 191.471 43.616 191.735 43.712C192.007 43.8 192.223 43.904 192.383 44.024C192.543 44.136 192.651 44.228 192.707 44.3V44.864C192.427 44.672 192.139 44.536 191.843 44.456C191.547 44.368 191.231 44.324 190.895 44.324C190.583 44.324 190.327 44.364 190.127 44.444C189.935 44.524 189.791 44.636 189.695 44.78C189.599 44.924 189.551 45.096 189.551 45.296ZM189.407 42.752L188.939 42.044C189.147 41.892 189.431 41.74 189.791 41.588C190.159 41.436 190.599 41.36 191.111 41.36C191.543 41.36 191.919 41.428 192.239 41.564C192.567 41.692 192.819 41.88 192.995 42.128C193.179 42.376 193.271 42.68 193.271 43.04V47H192.311V43.172C192.311 42.98 192.279 42.824 192.215 42.704C192.151 42.576 192.059 42.476 191.939 42.404C191.827 42.332 191.695 42.28 191.543 42.248C191.391 42.216 191.231 42.2 191.063 42.2C190.791 42.2 190.543 42.232 190.319 42.296C190.103 42.36 189.919 42.436 189.767 42.524C189.615 42.612 189.495 42.688 189.407 42.752ZM195.856 41.48V47H194.896V41.48H195.856ZM197.524 42.536C197.396 42.44 197.28 42.372 197.176 42.332C197.072 42.284 196.94 42.26 196.78 42.26C196.54 42.26 196.352 42.32 196.216 42.44C196.08 42.56 195.984 42.724 195.928 42.932C195.88 43.14 195.856 43.376 195.856 43.64H195.424C195.424 43.2 195.5 42.812 195.652 42.476C195.812 42.132 196.016 41.86 196.264 41.66C196.512 41.46 196.764 41.36 197.02 41.36C197.22 41.36 197.404 41.388 197.572 41.444C197.748 41.492 197.908 41.592 198.052 41.744L197.524 42.536ZM199.441 45.296C199.441 45.504 199.489 45.684 199.585 45.836C199.689 45.988 199.829 46.104 200.005 46.184C200.189 46.256 200.397 46.292 200.629 46.292C200.925 46.292 201.189 46.232 201.421 46.112C201.661 45.992 201.849 45.824 201.985 45.608C202.129 45.384 202.201 45.128 202.201 44.84L202.393 45.56C202.393 45.912 202.285 46.204 202.069 46.436C201.861 46.668 201.601 46.84 201.289 46.952C200.985 47.064 200.681 47.12 200.377 47.12C200.041 47.12 199.725 47.052 199.429 46.916C199.141 46.772 198.909 46.568 198.733 46.304C198.557 46.04 198.469 45.72 198.469 45.344C198.469 44.808 198.657 44.38 199.033 44.06C199.417 43.732 199.949 43.568 200.629 43.568C201.029 43.568 201.361 43.616 201.625 43.712C201.897 43.8 202.113 43.904 202.273 44.024C202.433 44.136 202.541 44.228 202.597 44.3V44.864C202.317 44.672 202.029 44.536 201.733 44.456C201.437 44.368 201.121 44.324 200.785 44.324C200.473 44.324 200.217 44.364 200.017 44.444C199.825 44.524 199.681 44.636 199.585 44.78C199.489 44.924 199.441 45.096 199.441 45.296ZM199.297 42.752L198.829 42.044C199.037 41.892 199.321 41.74 199.681 41.588C200.049 41.436 200.489 41.36 201.001 41.36C201.433 41.36 201.809 41.428 202.129 41.564C202.457 41.692 202.709 41.88 202.885 42.128C203.069 42.376 203.161 42.68 203.161 43.04V47H202.201V43.172C202.201 42.98 202.169 42.824 202.105 42.704C202.041 42.576 201.949 42.476 201.829 42.404C201.717 42.332 201.585 42.28 201.433 42.248C201.281 42.216 201.121 42.2 200.953 42.2C200.681 42.2 200.433 42.232 200.209 42.296C199.993 42.36 199.809 42.436 199.657 42.524C199.505 42.612 199.385 42.688 199.297 42.752ZM203.947 41.48H206.707V42.38H203.947V41.48ZM204.847 39.56H205.807V47H204.847V39.56ZM209.806 47.12C209.294 47.12 208.838 47 208.438 46.76C208.046 46.512 207.738 46.172 207.514 45.74C207.298 45.308 207.19 44.808 207.19 44.24C207.19 43.664 207.302 43.16 207.526 42.728C207.758 42.296 208.078 41.96 208.486 41.72C208.902 41.48 209.382 41.36 209.926 41.36C210.47 41.36 210.934 41.476 211.318 41.708C211.71 41.932 212.01 42.256 212.218 42.68C212.426 43.104 212.53 43.608 212.53 44.192C212.53 44.248 212.526 44.308 212.518 44.372C212.518 44.428 212.518 44.464 212.518 44.48H207.802V43.664H211.762L211.378 44.216C211.402 44.176 211.426 44.116 211.45 44.036C211.474 43.948 211.486 43.876 211.486 43.82C211.486 43.492 211.418 43.208 211.282 42.968C211.154 42.728 210.974 42.54 210.742 42.404C210.51 42.268 210.238 42.2 209.926 42.2C209.558 42.2 209.242 42.28 208.978 42.44C208.722 42.592 208.522 42.816 208.378 43.112C208.242 43.4 208.17 43.756 208.162 44.18C208.162 44.612 208.23 44.98 208.366 45.284C208.502 45.588 208.702 45.82 208.966 45.98C209.23 46.14 209.55 46.22 209.926 46.22C210.302 46.22 210.634 46.14 210.922 45.98C211.21 45.812 211.454 45.56 211.654 45.224L212.434 45.716C212.146 46.18 211.782 46.532 211.342 46.772C210.91 47.004 210.398 47.12 209.806 47.12ZM217.023 41.48H219.783V42.38H217.023V41.48ZM219.687 38.792C219.607 38.656 219.511 38.572 219.399 38.54C219.295 38.5 219.195 38.48 219.099 38.48C218.979 38.48 218.875 38.516 218.787 38.588C218.707 38.652 218.643 38.764 218.595 38.924C218.547 39.084 218.523 39.296 218.523 39.56V47H217.563V39.44C217.563 39 217.627 38.64 217.755 38.36C217.883 38.08 218.063 37.872 218.295 37.736C218.535 37.592 218.823 37.52 219.159 37.52C219.335 37.52 219.491 37.544 219.627 37.592C219.763 37.64 219.879 37.7 219.975 37.772C220.079 37.844 220.159 37.92 220.215 38L219.687 38.792ZM221.837 44.84C221.837 45.28 221.937 45.62 222.137 45.86C222.337 46.1 222.629 46.22 223.013 46.22C223.293 46.22 223.537 46.164 223.745 46.052C223.961 45.932 224.125 45.768 224.237 45.56C224.357 45.352 224.417 45.112 224.417 44.84V41.48H225.377V47H224.417V46.136C224.233 46.464 224.005 46.712 223.733 46.88C223.461 47.04 223.141 47.12 222.773 47.12C222.197 47.12 221.737 46.924 221.393 46.532C221.049 46.14 220.877 45.616 220.877 44.96V41.48H221.837V44.84ZM230.721 43.64C230.721 43.184 230.621 42.84 230.421 42.608C230.221 42.376 229.929 42.26 229.545 42.26C229.265 42.26 229.017 42.32 228.801 42.44C228.593 42.552 228.429 42.712 228.309 42.92C228.197 43.128 228.141 43.368 228.141 43.64V47H227.181V41.48H228.141V42.344C228.325 42.008 228.553 41.76 228.825 41.6C229.105 41.44 229.425 41.36 229.785 41.36C230.369 41.36 230.829 41.556 231.165 41.948C231.509 42.332 231.681 42.856 231.681 43.52V47H230.721V43.64ZM233.918 44.24C233.918 44.624 233.998 44.964 234.158 45.26C234.326 45.556 234.55 45.792 234.83 45.968C235.118 46.136 235.442 46.22 235.802 46.22C236.098 46.22 236.374 46.176 236.63 46.088C236.894 45.992 237.122 45.868 237.314 45.716C237.506 45.556 237.642 45.388 237.722 45.212V46.412C237.53 46.636 237.254 46.812 236.894 46.94C236.542 47.06 236.178 47.12 235.802 47.12C235.266 47.12 234.782 46.996 234.35 46.748C233.918 46.5 233.574 46.16 233.318 45.728C233.07 45.288 232.946 44.792 232.946 44.24C232.946 43.68 233.07 43.184 233.318 42.752C233.574 42.32 233.918 41.98 234.35 41.732C234.782 41.484 235.266 41.36 235.802 41.36C236.178 41.36 236.542 41.424 236.894 41.552C237.254 41.672 237.53 41.844 237.722 42.068V43.268C237.642 43.084 237.506 42.916 237.314 42.764C237.122 42.612 236.894 42.492 236.63 42.404C236.374 42.308 236.098 42.26 235.802 42.26C235.442 42.26 235.118 42.344 234.83 42.512C234.55 42.68 234.326 42.916 234.158 43.22C233.998 43.516 233.918 43.856 233.918 44.24ZM238.376 41.48H241.136V42.38H238.376V41.48ZM239.276 39.56H240.236V47H239.276V39.56ZM242.099 39.2C242.099 39.016 242.163 38.86 242.291 38.732C242.427 38.604 242.583 38.54 242.759 38.54C242.943 38.54 243.099 38.604 243.227 38.732C243.355 38.86 243.419 39.016 243.419 39.2C243.419 39.376 243.355 39.532 243.227 39.668C243.099 39.796 242.943 39.86 242.759 39.86C242.583 39.86 242.427 39.796 242.291 39.668C242.163 39.532 242.099 39.376 242.099 39.2ZM242.279 41.48H243.239V47H242.279V41.48ZM244.736 44.24C244.736 43.68 244.86 43.184 245.108 42.752C245.364 42.32 245.708 41.98 246.14 41.732C246.572 41.484 247.056 41.36 247.592 41.36C248.136 41.36 248.62 41.484 249.044 41.732C249.476 41.98 249.816 42.32 250.064 42.752C250.32 43.184 250.448 43.68 250.448 44.24C250.448 44.792 250.32 45.288 250.064 45.728C249.816 46.16 249.476 46.5 249.044 46.748C248.62 46.996 248.136 47.12 247.592 47.12C247.056 47.12 246.572 46.996 246.14 46.748C245.708 46.5 245.364 46.16 245.108 45.728C244.86 45.288 244.736 44.792 244.736 44.24ZM245.708 44.24C245.708 44.624 245.788 44.964 245.948 45.26C246.116 45.556 246.34 45.792 246.62 45.968C246.908 46.136 247.232 46.22 247.592 46.22C247.952 46.22 248.272 46.136 248.552 45.968C248.84 45.792 249.064 45.556 249.224 45.26C249.392 44.964 249.476 44.624 249.476 44.24C249.476 43.856 249.392 43.516 249.224 43.22C249.064 42.916 248.84 42.68 248.552 42.512C248.272 42.344 247.952 42.26 247.592 42.26C247.232 42.26 246.908 42.344 246.62 42.512C246.34 42.68 246.116 42.916 245.948 43.22C245.788 43.516 245.708 43.856 245.708 44.24ZM255.307 43.64C255.307 43.184 255.207 42.84 255.007 42.608C254.807 42.376 254.515 42.26 254.131 42.26C253.851 42.26 253.603 42.32 253.387 42.44C253.179 42.552 253.015 42.712 252.895 42.92C252.783 43.128 252.727 43.368 252.727 43.64V47H251.767V41.48H252.727V42.344C252.911 42.008 253.139 41.76 253.411 41.6C253.691 41.44 254.011 41.36 254.371 41.36C254.955 41.36 255.415 41.556 255.751 41.948C256.095 42.332 256.267 42.856 256.267 43.52V47H255.307V43.64ZM258.504 45.296C258.504 45.504 258.552 45.684 258.648 45.836C258.752 45.988 258.892 46.104 259.068 46.184C259.252 46.256 259.46 46.292 259.692 46.292C259.988 46.292 260.252 46.232 260.484 46.112C260.724 45.992 260.912 45.824 261.048 45.608C261.192 45.384 261.264 45.128 261.264 44.84L261.456 45.56C261.456 45.912 261.348 46.204 261.132 46.436C260.924 46.668 260.664 46.84 260.352 46.952C260.048 47.064 259.744 47.12 259.44 47.12C259.104 47.12 258.788 47.052 258.492 46.916C258.204 46.772 257.972 46.568 257.796 46.304C257.62 46.04 257.532 45.72 257.532 45.344C257.532 44.808 257.72 44.38 258.096 44.06C258.48 43.732 259.012 43.568 259.692 43.568C260.092 43.568 260.424 43.616 260.688 43.712C260.96 43.8 261.176 43.904 261.336 44.024C261.496 44.136 261.604 44.228 261.66 44.3V44.864C261.38 44.672 261.092 44.536 260.796 44.456C260.5 44.368 260.184 44.324 259.848 44.324C259.536 44.324 259.28 44.364 259.08 44.444C258.888 44.524 258.744 44.636 258.648 44.78C258.552 44.924 258.504 45.096 258.504 45.296ZM258.36 42.752L257.892 42.044C258.1 41.892 258.384 41.74 258.744 41.588C259.112 41.436 259.552 41.36 260.064 41.36C260.496 41.36 260.872 41.428 261.192 41.564C261.52 41.692 261.772 41.88 261.948 42.128C262.132 42.376 262.224 42.68 262.224 43.04V47H261.264V43.172C261.264 42.98 261.232 42.824 261.168 42.704C261.104 42.576 261.012 42.476 260.892 42.404C260.78 42.332 260.648 42.28 260.496 42.248C260.344 42.216 260.184 42.2 260.016 42.2C259.744 42.2 259.496 42.232 259.272 42.296C259.056 42.36 258.872 42.436 258.72 42.524C258.568 42.612 258.448 42.688 258.36 42.752ZM263.849 37.64H264.809V47H263.849V37.64ZM266.615 39.2C266.615 39.016 266.679 38.86 266.807 38.732C266.943 38.604 267.099 38.54 267.275 38.54C267.459 38.54 267.615 38.604 267.743 38.732C267.871 38.86 267.935 39.016 267.935 39.2C267.935 39.376 267.871 39.532 267.743 39.668C267.615 39.796 267.459 39.86 267.275 39.86C267.099 39.86 266.943 39.796 266.807 39.668C266.679 39.532 266.615 39.376 266.615 39.2ZM266.795 41.48H267.755V47H266.795V41.48ZM268.892 41.48H271.652V42.38H268.892V41.48ZM269.792 39.56H270.752V47H269.792V39.56ZM276.995 41.48L273.395 49.64H272.315L273.827 46.22L271.715 41.48H272.855L274.607 45.8L274.211 45.752L275.915 41.48H276.995Z" fill="white"/>
<circle cx="150" cy="310" r="149.5" stroke="#FF3100"/>
<line x1="246.632" y1="16.1406" x2="116.48" y2="460.39" stroke="white" stroke-opacity="0.26" stroke-dasharray="9 9"/>
<line x1="98.0003" y1="369.36" x2="179.482" y2="438.712" stroke="white" stroke-opacity="0.24"/>
<line x1="103.36" y1="444.834" x2="172.712" y2="363.352" stroke="white" stroke-opacity="0.13"/>
</svg>
