<svg width="1731" height="610" viewBox="0 0 1731 610" fill="none" xmlns="http://www.w3.org/2000/svg">
<path d="M996.194 41.5302C970.505 36.4878 971.22 14.217 974.787 3.71191H1199.57C1233.82 3.71191 1257.37 22.6211 1263.79 33.1262C1291.19 65.0616 1283.77 109.463 1276.64 127.672C1261.22 161.288 1217.41 172.494 1197.43 173.894L1308.75 306.259H1253.09L1173.88 215.915L1105.37 133.975H1188.86C1225.26 133.975 1240.24 115.066 1242.38 104.561C1253.09 64.6414 1223.12 43.6313 1208.13 41.5302H996.194Z" fill="#FF0000"/>
<path d="M974.786 293.652V173.894C1003.9 167.171 1014.04 180.898 1015.46 188.601V310.46C988.059 313.822 976.927 300.656 974.786 293.652Z" fill="#FF0000"/>
<path d="M1411.5 121.369C1430.34 171.794 1492.14 177.396 1520.68 173.895V136.076C1497.85 137.477 1451.75 131.034 1450.04 94.0561C1448.33 57.0782 1473.59 45.0322 1486.43 43.6317H1689.81C1712.07 26.8235 1707.65 8.61474 1702.65 1.61133H1473.59C1398.66 26.8235 1397.23 96.1571 1411.5 121.369Z" fill="#FF0000"/>
<path d="M1623.44 175.996C1602.89 172.634 1600.61 147.982 1602.03 136.076L1649.13 138.177C1661.12 141.539 1675.54 150.783 1681.24 154.985C1722.35 183.559 1716.92 236.925 1709.07 260.036C1690.23 297.014 1659.84 307.659 1646.99 308.36H1409.36C1407.65 278.105 1420.07 270.541 1426.49 270.541L1642.71 268.44C1671.82 258.355 1676.25 230.622 1674.82 218.016C1673.11 182.719 1639.85 175.295 1623.44 175.996Z" fill="#FF0000"/>
<path d="M679.359 1.61133C669.084 3.29214 549.487 202.609 490.971 302.057L486.689 308.36H490.971H535.927L698.626 47.8337L816.369 270.542H694.345C682.356 273.903 682.215 297.154 683.641 308.36H884.874L720.034 1.61133H679.359Z" fill="#FF0000"/>
<path d="M182.699 209.612L22.1409 22.6214V3.71227H54.2525L206.248 161.289C251.918 111.565 345.826 10.4355 356.102 3.71227C366.378 -3.011 378.937 0.910896 383.932 3.71227V308.36C358.243 313.402 346.112 299.255 343.257 291.552V68.8438C306.15 112.965 229.796 202.889 221.233 209.612C212.67 216.335 191.976 212.414 182.699 209.612Z" fill="#FF0000"/>
<path d="M20 293.653V175.996C38.8388 169.273 57.8204 178.798 64.9563 184.4V306.259C40.9796 311.302 24.9952 299.956 20 293.653Z" fill="#FF0000"/>
<path d="M58.8442 292.167C83.5507 281.616 223.909 312.15 291 328.737L153.623 493L4 482.209V341.926C11.987 329.736 34.1377 302.718 58.8442 292.167Z" fill="#761710" stroke="#811911"/>
<path d="M596.553 277.758C435.486 252.295 338.74 288.367 310.5 309.587L409.173 427L914.5 309.587C875.629 309.587 757.619 303.221 596.553 277.758Z" fill="#721912" stroke="#811911"/>
<path d="M163.682 353.617C133.463 382.693 44.2589 414.847 3.43384 427.29V603.124L1730.68 610V328.078L1617.36 332.99H1568.14C1560.81 332.99 1525.02 327.751 1508.05 325.131L1458.25 295.662C1425.75 273.659 1397.02 269.467 1386.71 270.122C1355.62 252.44 1287.93 216.684 1265.96 215.112C1243.98 213.541 1195.37 228.865 1173.81 236.723L1124.02 245.564L1074.23 255.387C1033.6 259.971 950.269 269.139 942.028 269.139C933.786 269.139 899.676 287.475 883.652 296.644L833.86 302.537C816.119 315.307 656.443 352.635 617.526 362.458C586.392 370.316 490.091 348.05 445.832 335.935C299.32 268.353 196.685 319.563 163.682 353.617Z" fill="#891A11"/>
<path d="M1050.4 318.022C1081.99 262.37 950.869 294.834 881.362 318.022C887.479 296.467 993.128 273.93 1000.91 273.93C1008.7 273.93 1098.78 259.234 1116.57 259.234C1130.81 259.234 1208.88 237.678 1246.13 226.9C1261.89 227.554 1296.29 234.935 1307.85 259.234C1322.31 289.607 1331.76 297.446 1336.77 298.425C1341.77 299.405 1430.74 348.395 1443.53 348.395C1453.76 348.395 1494.13 357.539 1513.04 362.112H1556.41C1566.42 362.112 1588.66 374.849 1591.99 376.809C1595.33 378.768 1612.57 413.061 1622.58 413.061C1630.58 413.061 1671.51 432.004 1690.97 441.475C1688.01 464.664 1683.85 513.392 1690.97 522.798C1698.09 532.204 1702.09 584.852 1703.2 610H1665.95L1479.12 543.374C1425.55 527.697 1305.07 489.485 1251.69 462.051C1198.31 434.617 1131.21 429.064 1104.34 429.718C1082.28 431.351 1027.6 430.501 985.344 414.041C932.519 393.465 1010.92 387.587 1050.4 318.022Z" fill="#761A13" fill-opacity="0.7"/>
<path d="M562.348 370.318L432.669 331.025C521.427 363.769 570.417 488.194 598.082 488.194C625.747 488.194 748.509 529.669 771.563 529.669C790.007 529.669 885.681 567.506 931.213 586.425H1035.53H1225.73H1298.35L1331.2 556.956L1302.96 548.224L1169.82 529.669C1116.03 521.665 1006.6 505.657 999.222 505.657C991.845 505.657 908.543 484.556 867.814 474.005L748.509 437.988L642.461 413.976L562.348 370.318Z" fill="#5C1712" fill-opacity="0.18"/>
<path d="M103.589 518.643C84.8169 526.502 32.4311 521.918 8.58473 518.643H4.00623V434.166H16.5971C24.8384 434.166 102.444 402.078 140.217 386.033C155.784 381.318 184.476 353.944 196.876 340.847C261.891 296.054 359.413 317.599 400.047 333.971C311.911 309.413 295.886 355.582 246.667 375.228C207.292 390.945 192.107 416.485 189.436 427.29C209.085 420.741 252.047 407.644 266.698 407.644C285.012 407.644 325.074 433.184 295.886 449.883C272.536 463.242 266.698 491.467 266.698 503.91C272.612 508.821 286.729 518.643 295.886 518.643H354.834L382.878 529.45C372.194 529.45 347.394 532.003 333.659 542.219C316.489 554.988 259.83 542.219 225.491 542.219C191.153 542.219 127.054 508.82 103.589 518.643Z" fill="#5C1712" fill-opacity="0.24"/>
<path d="M574.603 515.699C499.515 448.902 394.515 388.327 351.4 366.389C427.404 287.804 537.974 419.433 583.76 495.071L623.249 515.699C648.049 528.469 712.416 555.188 771.478 559.903C830.541 564.618 865.528 593.301 875.639 607.053H771.478C737.139 604.434 649.69 582.496 574.603 515.699Z" fill="#AB2419" fill-opacity="0.23"/>
<path d="M1325.48 285.84C1320.44 284.268 1295.53 254.406 1283.7 239.671C1263.28 215.114 1315.18 239.671 1333.49 253.424C1351.8 267.176 1425.63 299.592 1451.96 307.45C1478.29 315.309 1530.37 345.76 1554.98 345.76C1579.58 345.76 1647.12 364.424 1659.71 364.424C1669.78 364.424 1710.83 395.858 1730.1 411.575V608.036H1700.91C1694.05 573 1680.08 498.214 1679.17 479.354C1678.02 455.778 1646.55 445.955 1611.63 401.752C1583.71 366.389 1525.21 362.132 1499.46 364.424C1483.25 358.203 1445.78 345.76 1425.63 345.76C1400.45 345.76 1331.77 287.804 1325.48 285.84Z" fill="#A22117"/>
<path d="M179.028 401.111C200.251 357.205 94.9823 428.881 41.7536 446.468C18.7735 460.321 -17.6162 487.013 20.6658 482.951C68.5185 477.873 157.804 445.017 179.028 401.111Z" fill="white" fill-opacity="0.03"/>
</svg>
