<svg width="987" height="452" viewBox="0 0 987 452" fill="none" xmlns="http://www.w3.org/2000/svg">
<path d="M59.9741 222.36L62.6141 207.56L94.5341 201.64L84.6941 259H68.1341L74.9341 219.16L59.9741 222.36ZM115.918 231C115.758 232.227 115.651 233.507 115.598 234.84C115.544 236.173 115.571 237.453 115.678 238.68C115.784 239.907 116.024 241.027 116.398 242.04C116.771 243 117.278 243.8 117.918 244.44C118.611 245.027 119.518 245.32 120.638 245.32C122.078 245.373 123.384 245 124.558 244.2C125.731 243.4 126.771 242.307 127.678 240.92C128.584 239.533 129.331 237.987 129.918 236.28C130.558 234.52 130.984 232.76 131.198 231C131.304 229.773 131.384 228.493 131.438 227.16C131.491 225.827 131.464 224.547 131.358 223.32C131.251 222.093 131.011 221 130.638 220.04C130.318 219.027 129.811 218.227 129.118 217.64C128.424 217 127.544 216.653 126.478 216.6C125.038 216.6 123.704 217 122.478 217.8C121.304 218.6 120.264 219.693 119.358 221.08C118.451 222.467 117.704 224.04 117.118 225.8C116.531 227.507 116.131 229.24 115.918 231ZM99.3578 231C99.9445 226.787 101.011 222.92 102.558 219.4C104.158 215.827 106.211 212.733 108.718 210.12C111.224 207.507 114.104 205.48 117.358 204.04C120.611 202.547 124.184 201.8 128.078 201.8C131.278 201.8 134.078 202.307 136.478 203.32C138.878 204.28 140.878 205.667 142.478 207.48C144.131 209.24 145.411 211.347 146.318 213.8C147.224 216.253 147.784 218.947 147.998 221.88C148.264 224.76 148.184 227.8 147.758 231C147.171 235.213 146.104 239.107 144.558 242.68C143.011 246.2 141.011 249.293 138.558 251.96C136.104 254.573 133.224 256.6 129.918 258.04C126.664 259.48 123.038 260.2 119.038 260.2C115.891 260.2 113.118 259.72 110.718 258.76C108.371 257.747 106.371 256.333 104.718 254.52C103.118 252.707 101.838 250.6 100.878 248.2C99.9711 245.747 99.3845 243.08 99.1178 240.2C98.8511 237.267 98.9311 234.2 99.3578 231ZM170.215 231C170.055 232.227 169.948 233.507 169.895 234.84C169.841 236.173 169.868 237.453 169.975 238.68C170.081 239.907 170.321 241.027 170.695 242.04C171.068 243 171.575 243.8 172.215 244.44C172.908 245.027 173.815 245.32 174.935 245.32C176.375 245.373 177.681 245 178.855 244.2C180.028 243.4 181.068 242.307 181.975 240.92C182.881 239.533 183.628 237.987 184.215 236.28C184.855 234.52 185.281 232.76 185.495 231C185.601 229.773 185.681 228.493 185.735 227.16C185.788 225.827 185.761 224.547 185.655 223.32C185.548 222.093 185.308 221 184.935 220.04C184.615 219.027 184.108 218.227 183.415 217.64C182.721 217 181.841 216.653 180.775 216.6C179.335 216.6 178.001 217 176.775 217.8C175.601 218.6 174.561 219.693 173.655 221.08C172.748 222.467 172.001 224.04 171.415 225.8C170.828 227.507 170.428 229.24 170.215 231ZM153.655 231C154.241 226.787 155.308 222.92 156.855 219.4C158.455 215.827 160.508 212.733 163.015 210.12C165.521 207.507 168.401 205.48 171.655 204.04C174.908 202.547 178.481 201.8 182.375 201.8C185.575 201.8 188.375 202.307 190.775 203.32C193.175 204.28 195.175 205.667 196.775 207.48C198.428 209.24 199.708 211.347 200.615 213.8C201.521 216.253 202.081 218.947 202.295 221.88C202.561 224.76 202.481 227.8 202.055 231C201.468 235.213 200.401 239.107 198.855 242.68C197.308 246.2 195.308 249.293 192.855 251.96C190.401 254.573 187.521 256.6 184.215 258.04C180.961 259.48 177.335 260.2 173.335 260.2C170.188 260.2 167.415 259.72 165.015 258.76C162.668 257.747 160.668 256.333 159.015 254.52C157.415 252.707 156.135 250.6 155.175 248.2C154.268 245.747 153.681 243.08 153.415 240.2C153.148 237.267 153.228 234.2 153.655 231ZM231.472 193.56H243.712L240.352 209.56H229.712L231.472 193.56ZM223.072 253.4H233.632L232.032 267.96H219.952L223.072 253.4ZM242.432 221C241.845 219.773 241.178 218.653 240.432 217.64C239.738 216.627 238.938 215.827 238.032 215.24C237.178 214.6 236.192 214.28 235.072 214.28C234.165 214.28 233.338 214.467 232.592 214.84C231.845 215.213 231.232 215.667 230.752 216.2C230.272 216.733 229.952 217.32 229.792 217.96C229.578 219.027 229.792 219.933 230.432 220.68C231.072 221.373 231.952 221.96 233.072 222.44C234.245 222.92 235.498 223.373 236.832 223.8C238.218 224.227 239.498 224.653 240.672 225.08C243.338 226.147 245.605 227.533 247.472 229.24C249.338 230.947 250.672 232.973 251.472 235.32C252.325 237.613 252.592 240.173 252.272 243C251.738 246.84 250.218 250.013 247.712 252.52C245.258 254.973 242.165 256.813 238.432 258.04C234.752 259.213 230.805 259.8 226.592 259.8C223.232 259.747 220.085 259.133 217.152 257.96C214.218 256.787 211.632 255.187 209.392 253.16C207.205 251.08 205.552 248.76 204.432 246.2L216.992 237.72C217.952 239.427 218.938 240.947 219.952 242.28C221.018 243.56 222.218 244.573 223.552 245.32C224.885 246.013 226.432 246.333 228.192 246.28C229.685 246.28 230.965 246.013 232.032 245.48C233.152 244.947 233.818 244.067 234.032 242.84C234.245 241.773 233.898 240.893 232.992 240.2C232.085 239.453 230.912 238.813 229.472 238.28C228.032 237.693 226.565 237.107 225.072 236.52C222.938 235.56 220.805 234.28 218.672 232.68C216.538 231.027 214.805 229 213.472 226.6C212.192 224.2 211.738 221.373 212.112 218.12C212.592 214.973 213.952 212.227 216.192 209.88C218.432 207.48 221.232 205.613 224.592 204.28C228.005 202.893 231.658 202.2 235.552 202.2C239.178 202.2 242.272 202.707 244.832 203.72C247.392 204.68 249.552 206.04 251.312 207.8C253.125 209.56 254.672 211.613 255.952 213.96L242.432 221Z" fill="#FF3100"/>
<path d="M146.797 156.07C146.997 154.67 147.507 153.43 148.327 152.35C149.147 151.27 150.187 150.42 151.447 149.8C152.707 149.18 154.067 148.87 155.527 148.87C156.967 148.87 158.217 149.19 159.277 149.83C160.357 150.45 161.167 151.31 161.707 152.41C162.247 153.49 162.417 154.72 162.217 156.1C162.017 157.5 161.507 158.75 160.687 159.85C159.867 160.93 158.827 161.78 157.567 162.4C156.327 163 154.977 163.3 153.517 163.3C152.077 163.3 150.817 162.99 149.737 162.37C148.657 161.73 147.847 160.87 147.307 159.79C146.787 158.71 146.617 157.47 146.797 156.07ZM151.417 156.13C151.317 156.71 151.337 157.26 151.477 157.78C151.637 158.3 151.907 158.72 152.287 159.04C152.667 159.36 153.157 159.52 153.757 159.52C154.377 159.54 154.957 159.4 155.497 159.1C156.037 158.78 156.497 158.36 156.877 157.84C157.257 157.3 157.507 156.71 157.627 156.07C157.707 155.49 157.667 154.94 157.507 154.42C157.367 153.9 157.107 153.48 156.727 153.16C156.367 152.82 155.887 152.64 155.287 152.62C154.667 152.62 154.077 152.78 153.517 153.1C152.977 153.4 152.517 153.82 152.137 154.36C151.757 154.9 151.517 155.49 151.417 156.13ZM164.355 149.2H173.895L173.265 152.95H163.725L164.355 149.2ZM166.845 149.8H171.225L168.915 163H164.595L166.845 149.8Z" fill="#FF3100"/>
<path d="M478.797 145.07C478.997 143.67 479.507 142.43 480.327 141.35C481.147 140.27 482.187 139.42 483.447 138.8C484.707 138.18 486.067 137.87 487.527 137.87C488.967 137.87 490.217 138.19 491.277 138.83C492.357 139.45 493.167 140.31 493.707 141.41C494.247 142.49 494.417 143.72 494.217 145.1C494.017 146.5 493.507 147.75 492.687 148.85C491.867 149.93 490.827 150.78 489.567 151.4C488.327 152 486.977 152.3 485.517 152.3C484.077 152.3 482.817 151.99 481.737 151.37C480.657 150.73 479.847 149.87 479.307 148.79C478.787 147.71 478.617 146.47 478.797 145.07ZM483.417 145.13C483.317 145.71 483.337 146.26 483.477 146.78C483.637 147.3 483.907 147.72 484.287 148.04C484.667 148.36 485.157 148.52 485.757 148.52C486.377 148.54 486.957 148.4 487.497 148.1C488.037 147.78 488.497 147.36 488.877 146.84C489.257 146.3 489.507 145.71 489.627 145.07C489.707 144.49 489.667 143.94 489.507 143.42C489.367 142.9 489.107 142.48 488.727 142.16C488.367 141.82 487.887 141.64 487.287 141.62C486.667 141.62 486.077 141.78 485.517 142.1C484.977 142.4 484.517 142.82 484.137 143.36C483.757 143.9 483.517 144.49 483.417 145.13ZM496.355 138.2H505.895L505.265 141.95H495.725L496.355 138.2ZM498.845 138.8H503.225L500.915 152H496.595L498.845 138.8Z" fill="#FF3100"/>
<path d="M800.797 145.07C800.997 143.67 801.507 142.43 802.327 141.35C803.147 140.27 804.187 139.42 805.447 138.8C806.707 138.18 808.067 137.87 809.527 137.87C810.967 137.87 812.217 138.19 813.277 138.83C814.357 139.45 815.167 140.31 815.707 141.41C816.247 142.49 816.417 143.72 816.217 145.1C816.017 146.5 815.507 147.75 814.687 148.85C813.867 149.93 812.827 150.78 811.567 151.4C810.327 152 808.977 152.3 807.517 152.3C806.077 152.3 804.817 151.99 803.737 151.37C802.657 150.73 801.847 149.87 801.307 148.79C800.787 147.71 800.617 146.47 800.797 145.07ZM805.417 145.13C805.317 145.71 805.337 146.26 805.477 146.78C805.637 147.3 805.907 147.72 806.287 148.04C806.667 148.36 807.157 148.52 807.757 148.52C808.377 148.54 808.957 148.4 809.497 148.1C810.037 147.78 810.497 147.36 810.877 146.84C811.257 146.3 811.507 145.71 811.627 145.07C811.707 144.49 811.667 143.94 811.507 143.42C811.367 142.9 811.107 142.48 810.727 142.16C810.367 141.82 809.887 141.64 809.287 141.62C808.667 141.62 808.077 141.78 807.517 142.1C806.977 142.4 806.517 142.82 806.137 143.36C805.757 143.9 805.517 144.49 805.417 145.13ZM818.355 138.2H827.895L827.265 141.95H817.725L818.355 138.2ZM820.845 138.8H825.225L822.915 152H818.595L820.845 138.8Z" fill="#FF3100"/>
<path d="M410.847 232.12L411.807 225.08C413.353 225.027 414.9 224.76 416.447 224.28C418.047 223.747 419.407 223.053 420.527 222.2C421.647 221.293 422.287 220.173 422.447 218.84C422.5 218.147 422.367 217.56 422.047 217.08C421.727 216.547 421.247 216.147 420.607 215.88C420.02 215.613 419.273 215.453 418.367 215.4C417.193 215.4 416.127 215.667 415.167 216.2C414.26 216.68 413.487 217.347 412.847 218.2C412.26 219 411.833 219.907 411.567 220.92L395.727 220.84C396.367 217.16 397.753 213.907 399.887 211.08C402.073 208.2 404.847 205.933 408.207 204.28C411.62 202.627 415.46 201.8 419.727 201.8C423.673 201.8 427.22 202.44 430.367 203.72C433.513 204.947 435.94 206.76 437.647 209.16C439.353 211.56 439.967 214.413 439.487 217.72C439.06 220.707 437.94 223.133 436.127 225C434.313 226.867 432.047 228.333 429.327 229.4C426.607 230.413 423.647 231.133 420.447 231.56C417.247 231.933 414.047 232.12 410.847 232.12ZM410.847 260.6C406.207 260.547 402.287 259.56 399.087 257.64C395.94 255.667 393.593 253.08 392.047 249.88C390.553 246.68 389.967 243.187 390.287 239.4H407.087C406.98 240.947 407.14 242.28 407.567 243.4C407.993 244.52 408.633 245.373 409.487 245.96C410.393 246.547 411.513 246.867 412.847 246.92C414.02 246.973 415.14 246.84 416.207 246.52C417.273 246.147 418.18 245.56 418.927 244.76C419.673 243.96 420.153 242.947 420.367 241.72C420.58 240.6 420.473 239.667 420.047 238.92C419.673 238.12 419.007 237.48 418.047 237C417.14 236.467 416.02 236.093 414.687 235.88C413.407 235.613 411.993 235.453 410.447 235.4L411.567 227.08C414.927 227.133 418.207 227.427 421.407 227.96C424.66 228.493 427.513 229.373 429.967 230.6C432.473 231.827 434.367 233.48 435.647 235.56C436.98 237.64 437.433 240.253 437.007 243.4C436.527 247.08 435.06 250.2 432.607 252.76C430.153 255.32 427.033 257.267 423.247 258.6C419.513 259.933 415.38 260.6 410.847 260.6ZM459.605 231C459.445 232.227 459.339 233.507 459.285 234.84C459.232 236.173 459.259 237.453 459.365 238.68C459.472 239.907 459.712 241.027 460.085 242.04C460.459 243 460.965 243.8 461.605 244.44C462.299 245.027 463.205 245.32 464.325 245.32C465.765 245.373 467.072 245 468.245 244.2C469.419 243.4 470.459 242.307 471.365 240.92C472.272 239.533 473.019 237.987 473.605 236.28C474.245 234.52 474.672 232.76 474.885 231C474.992 229.773 475.072 228.493 475.125 227.16C475.179 225.827 475.152 224.547 475.045 223.32C474.939 222.093 474.699 221 474.325 220.04C474.005 219.027 473.499 218.227 472.805 217.64C472.112 217 471.232 216.653 470.165 216.6C468.725 216.6 467.392 217 466.165 217.8C464.992 218.6 463.952 219.693 463.045 221.08C462.139 222.467 461.392 224.04 460.805 225.8C460.219 227.507 459.819 229.24 459.605 231ZM443.045 231C443.632 226.787 444.699 222.92 446.245 219.4C447.845 215.827 449.899 212.733 452.405 210.12C454.912 207.507 457.792 205.48 461.045 204.04C464.299 202.547 467.872 201.8 471.765 201.8C474.965 201.8 477.765 202.307 480.165 203.32C482.565 204.28 484.565 205.667 486.165 207.48C487.819 209.24 489.099 211.347 490.005 213.8C490.912 216.253 491.472 218.947 491.685 221.88C491.952 224.76 491.872 227.8 491.445 231C490.859 235.213 489.792 239.107 488.245 242.68C486.699 246.2 484.699 249.293 482.245 251.96C479.792 254.573 476.912 256.6 473.605 258.04C470.352 259.48 466.725 260.2 462.725 260.2C459.579 260.2 456.805 259.72 454.405 258.76C452.059 257.747 450.059 256.333 448.405 254.52C446.805 252.707 445.525 250.6 444.565 248.2C443.659 245.747 443.072 243.08 442.805 240.2C442.539 237.267 442.619 234.2 443.045 231ZM513.902 231C513.742 232.227 513.636 233.507 513.582 234.84C513.529 236.173 513.556 237.453 513.662 238.68C513.769 239.907 514.009 241.027 514.382 242.04C514.756 243 515.262 243.8 515.902 244.44C516.596 245.027 517.502 245.32 518.622 245.32C520.062 245.373 521.369 245 522.542 244.2C523.716 243.4 524.756 242.307 525.662 240.92C526.569 239.533 527.316 237.987 527.902 236.28C528.542 234.52 528.969 232.76 529.182 231C529.289 229.773 529.369 228.493 529.422 227.16C529.476 225.827 529.449 224.547 529.342 223.32C529.236 222.093 528.996 221 528.622 220.04C528.302 219.027 527.796 218.227 527.102 217.64C526.409 217 525.529 216.653 524.462 216.6C523.022 216.6 521.689 217 520.462 217.8C519.289 218.6 518.249 219.693 517.342 221.08C516.436 222.467 515.689 224.04 515.102 225.8C514.516 227.507 514.116 229.24 513.902 231ZM497.342 231C497.929 226.787 498.996 222.92 500.542 219.4C502.142 215.827 504.196 212.733 506.702 210.12C509.209 207.507 512.089 205.48 515.342 204.04C518.596 202.547 522.169 201.8 526.062 201.8C529.262 201.8 532.062 202.307 534.462 203.32C536.862 204.28 538.862 205.667 540.462 207.48C542.116 209.24 543.396 211.347 544.302 213.8C545.209 216.253 545.769 218.947 545.982 221.88C546.249 224.76 546.169 227.8 545.742 231C545.156 235.213 544.089 239.107 542.542 242.68C540.996 246.2 538.996 249.293 536.542 251.96C534.089 254.573 531.209 256.6 527.902 258.04C524.649 259.48 521.022 260.2 517.022 260.2C513.876 260.2 511.102 259.72 508.702 258.76C506.356 257.747 504.356 256.333 502.702 254.52C501.102 252.707 499.822 250.6 498.862 248.2C497.956 245.747 497.369 243.08 497.102 240.2C496.836 237.267 496.916 234.2 497.342 231ZM575.159 193.56H587.399L584.039 209.56H573.399L575.159 193.56ZM566.759 253.4H577.319L575.719 267.96H563.639L566.759 253.4ZM586.119 221C585.532 219.773 584.866 218.653 584.119 217.64C583.426 216.627 582.626 215.827 581.719 215.24C580.866 214.6 579.879 214.28 578.759 214.28C577.852 214.28 577.026 214.467 576.279 214.84C575.532 215.213 574.919 215.667 574.439 216.2C573.959 216.733 573.639 217.32 573.479 217.96C573.266 219.027 573.479 219.933 574.119 220.68C574.759 221.373 575.639 221.96 576.759 222.44C577.932 222.92 579.186 223.373 580.519 223.8C581.906 224.227 583.186 224.653 584.359 225.08C587.026 226.147 589.292 227.533 591.159 229.24C593.026 230.947 594.359 232.973 595.159 235.32C596.012 237.613 596.279 240.173 595.959 243C595.426 246.84 593.906 250.013 591.399 252.52C588.946 254.973 585.852 256.813 582.119 258.04C578.439 259.213 574.492 259.8 570.279 259.8C566.919 259.747 563.772 259.133 560.839 257.96C557.906 256.787 555.319 255.187 553.079 253.16C550.892 251.08 549.239 248.76 548.119 246.2L560.679 237.72C561.639 239.427 562.626 240.947 563.639 242.28C564.706 243.56 565.906 244.573 567.239 245.32C568.572 246.013 570.119 246.333 571.879 246.28C573.372 246.28 574.652 246.013 575.719 245.48C576.839 244.947 577.506 244.067 577.719 242.84C577.932 241.773 577.586 240.893 576.679 240.2C575.772 239.453 574.599 238.813 573.159 238.28C571.719 237.693 570.252 237.107 568.759 236.52C566.626 235.56 564.492 234.28 562.359 232.68C560.226 231.027 558.492 229 557.159 226.6C555.879 224.2 555.426 221.373 555.799 218.12C556.279 214.973 557.639 212.227 559.879 209.88C562.119 207.48 564.919 205.613 568.279 204.28C571.692 202.893 575.346 202.2 579.239 202.2C582.866 202.2 585.959 202.707 588.519 203.72C591.079 204.68 593.239 206.04 594.999 207.8C596.812 209.56 598.359 211.613 599.639 213.96L586.119 221Z" fill="#FF3100"/>
<path d="M729.621 247.72L770.021 201H784.581L774.981 257H756.821L759.141 242.92L761.621 242.04L764.741 224.04L753.781 235.72H774.101L775.941 233H787.621L785.061 247.8L729.621 247.72ZM811.551 229C811.391 230.227 811.284 231.507 811.231 232.84C811.177 234.173 811.204 235.453 811.311 236.68C811.417 237.907 811.657 239.027 812.031 240.04C812.404 241 812.911 241.8 813.551 242.44C814.244 243.027 815.151 243.32 816.271 243.32C817.711 243.373 819.017 243 820.191 242.2C821.364 241.4 822.404 240.307 823.311 238.92C824.217 237.533 824.964 235.987 825.551 234.28C826.191 232.52 826.617 230.76 826.831 229C826.937 227.773 827.017 226.493 827.071 225.16C827.124 223.827 827.097 222.547 826.991 221.32C826.884 220.093 826.644 219 826.271 218.04C825.951 217.027 825.444 216.227 824.751 215.64C824.057 215 823.177 214.653 822.111 214.6C820.671 214.6 819.337 215 818.111 215.8C816.937 216.6 815.897 217.693 814.991 219.08C814.084 220.467 813.337 222.04 812.751 223.8C812.164 225.507 811.764 227.24 811.551 229ZM794.991 229C795.577 224.787 796.644 220.92 798.191 217.4C799.791 213.827 801.844 210.733 804.351 208.12C806.857 205.507 809.737 203.48 812.991 202.04C816.244 200.547 819.817 199.8 823.711 199.8C826.911 199.8 829.711 200.307 832.111 201.32C834.511 202.28 836.511 203.667 838.111 205.48C839.764 207.24 841.044 209.347 841.951 211.8C842.857 214.253 843.417 216.947 843.631 219.88C843.897 222.76 843.817 225.8 843.391 229C842.804 233.213 841.737 237.107 840.191 240.68C838.644 244.2 836.644 247.293 834.191 249.96C831.737 252.573 828.857 254.6 825.551 256.04C822.297 257.48 818.671 258.2 814.671 258.2C811.524 258.2 808.751 257.72 806.351 256.76C804.004 255.747 802.004 254.333 800.351 252.52C798.751 250.707 797.471 248.6 796.511 246.2C795.604 243.747 795.017 241.08 794.751 238.2C794.484 235.267 794.564 232.2 794.991 229ZM865.848 229C865.688 230.227 865.581 231.507 865.528 232.84C865.474 234.173 865.501 235.453 865.608 236.68C865.714 237.907 865.954 239.027 866.328 240.04C866.701 241 867.208 241.8 867.848 242.44C868.541 243.027 869.448 243.32 870.568 243.32C872.008 243.373 873.314 243 874.488 242.2C875.661 241.4 876.701 240.307 877.608 238.92C878.514 237.533 879.261 235.987 879.848 234.28C880.488 232.52 880.914 230.76 881.128 229C881.234 227.773 881.314 226.493 881.368 225.16C881.421 223.827 881.394 222.547 881.288 221.32C881.181 220.093 880.941 219 880.568 218.04C880.248 217.027 879.741 216.227 879.048 215.64C878.354 215 877.474 214.653 876.408 214.6C874.968 214.6 873.634 215 872.408 215.8C871.234 216.6 870.194 217.693 869.288 219.08C868.381 220.467 867.634 222.04 867.048 223.8C866.461 225.507 866.061 227.24 865.848 229ZM849.288 229C849.874 224.787 850.941 220.92 852.488 217.4C854.088 213.827 856.141 210.733 858.648 208.12C861.154 205.507 864.034 203.48 867.288 202.04C870.541 200.547 874.114 199.8 878.008 199.8C881.208 199.8 884.008 200.307 886.408 201.32C888.808 202.28 890.808 203.667 892.408 205.48C894.061 207.24 895.341 209.347 896.248 211.8C897.154 214.253 897.714 216.947 897.928 219.88C898.194 222.76 898.114 225.8 897.688 229C897.101 233.213 896.034 237.107 894.488 240.68C892.941 244.2 890.941 247.293 888.488 249.96C886.034 252.573 883.154 254.6 879.848 256.04C876.594 257.48 872.968 258.2 868.968 258.2C865.821 258.2 863.048 257.72 860.648 256.76C858.301 255.747 856.301 254.333 854.648 252.52C853.048 250.707 851.768 248.6 850.808 246.2C849.901 243.747 849.314 241.08 849.048 238.2C848.781 235.267 848.861 232.2 849.288 229ZM927.104 191.56H939.344L935.984 207.56H925.344L927.104 191.56ZM918.704 251.4H929.264L927.664 265.96H915.584L918.704 251.4ZM938.064 219C937.478 217.773 936.811 216.653 936.064 215.64C935.371 214.627 934.571 213.827 933.664 213.24C932.811 212.6 931.824 212.28 930.704 212.28C929.798 212.28 928.971 212.467 928.224 212.84C927.478 213.213 926.864 213.667 926.384 214.2C925.904 214.733 925.584 215.32 925.424 215.96C925.211 217.027 925.424 217.933 926.064 218.68C926.704 219.373 927.584 219.96 928.704 220.44C929.878 220.92 931.131 221.373 932.464 221.8C933.851 222.227 935.131 222.653 936.304 223.08C938.971 224.147 941.238 225.533 943.104 227.24C944.971 228.947 946.304 230.973 947.104 233.32C947.958 235.613 948.224 238.173 947.904 241C947.371 244.84 945.851 248.013 943.344 250.52C940.891 252.973 937.798 254.813 934.064 256.04C930.384 257.213 926.438 257.8 922.224 257.8C918.864 257.747 915.718 257.133 912.784 255.96C909.851 254.787 907.264 253.187 905.024 251.16C902.838 249.08 901.184 246.76 900.064 244.2L912.624 235.72C913.584 237.427 914.571 238.947 915.584 240.28C916.651 241.56 917.851 242.573 919.184 243.32C920.518 244.013 922.064 244.333 923.824 244.28C925.318 244.28 926.598 244.013 927.664 243.48C928.784 242.947 929.451 242.067 929.664 240.84C929.878 239.773 929.531 238.893 928.624 238.2C927.718 237.453 926.544 236.813 925.104 236.28C923.664 235.693 922.198 235.107 920.704 234.52C918.571 233.56 916.438 232.28 914.304 230.68C912.171 229.027 910.438 227 909.104 224.6C907.824 222.2 907.371 219.373 907.744 216.12C908.224 212.973 909.584 210.227 911.824 207.88C914.064 205.48 916.864 203.613 920.224 202.28C923.638 200.893 927.291 200.2 931.184 200.2C934.811 200.2 937.904 200.707 940.464 201.72C943.024 202.68 945.184 204.04 946.944 205.8C948.758 207.56 950.304 209.613 951.584 211.96L938.064 219Z" fill="#FF3100"/>
<path d="M49.3383 302.5C49.3383 304.24 49.7083 305.8 50.4483 307.18C51.2083 308.56 52.2383 309.65 53.5383 310.45C54.8583 311.23 56.3583 311.62 58.0383 311.62C59.7183 311.62 61.2083 311.23 62.5083 310.45C63.8283 309.65 64.8583 308.56 65.5983 307.18C66.3383 305.8 66.7083 304.24 66.7083 302.5C66.7083 300.74 66.3383 299.18 65.5983 297.82C64.8583 296.44 63.8283 295.36 62.5083 294.58C61.2083 293.78 59.7183 293.38 58.0383 293.38C56.3583 293.38 54.8583 293.78 53.5383 294.58C52.2383 295.36 51.2083 296.44 50.4483 297.82C49.7083 299.18 49.3383 300.74 49.3383 302.5ZM47.5983 302.5C47.5983 300.96 47.8583 299.54 48.3783 298.24C48.8983 296.92 49.6283 295.78 50.5683 294.82C51.5083 293.84 52.6083 293.08 53.8683 292.54C55.1483 292 56.5383 291.73 58.0383 291.73C59.5383 291.73 60.9183 292 62.1783 292.54C63.4583 293.08 64.5683 293.84 65.5083 294.82C66.4483 295.78 67.1783 296.92 67.6983 298.24C68.2183 299.54 68.4783 300.96 68.4783 302.5C68.4783 304.04 68.2183 305.47 67.6983 306.79C67.1783 308.09 66.4483 309.23 65.5083 310.21C64.5683 311.17 63.4583 311.92 62.1783 312.46C60.9183 313 59.5383 313.27 58.0383 313.27C56.5383 313.27 55.1483 313 53.8683 312.46C52.6083 311.92 51.5083 311.17 50.5683 310.21C49.6283 309.23 48.8983 308.09 48.3783 306.79C47.8583 305.47 47.5983 304.04 47.5983 302.5ZM78.8213 301.57L73.8113 312.34H72.0713L78.8213 298.15L85.5713 312.34H83.8313L78.8213 301.57ZM85.8113 313H71.9213V315.7H70.2713V311.53H87.3713V315.7H85.8113V313ZM91.9095 306.43V304.96H101.989V306.43H91.9095ZM101.029 299.2H102.589V313H101.029V299.2ZM90.9795 299.2H92.5395V313H90.9795V299.2ZM106.013 306.1C106.013 304.7 106.323 303.46 106.943 302.38C107.563 301.3 108.403 300.45 109.463 299.83C110.543 299.21 111.753 298.9 113.093 298.9C114.433 298.9 115.633 299.21 116.693 299.83C117.773 300.45 118.623 301.3 119.243 302.38C119.863 303.46 120.173 304.7 120.173 306.1C120.173 307.48 119.863 308.72 119.243 309.82C118.623 310.9 117.773 311.75 116.693 312.37C115.633 312.99 114.433 313.3 113.093 313.3C111.753 313.3 110.543 312.99 109.463 312.37C108.403 311.75 107.563 310.9 106.943 309.82C106.323 308.72 106.013 307.48 106.013 306.1ZM107.603 306.1C107.603 307.22 107.843 308.21 108.323 309.07C108.803 309.93 109.453 310.61 110.273 311.11C111.113 311.59 112.053 311.83 113.093 311.83C114.133 311.83 115.063 311.59 115.883 311.11C116.723 310.61 117.383 309.93 117.863 309.07C118.343 308.21 118.583 307.22 118.583 306.1C118.583 305 118.343 304.02 117.863 303.16C117.383 302.28 116.723 301.6 115.883 301.12C115.063 300.62 114.133 300.37 113.093 300.37C112.053 300.37 111.113 300.62 110.273 301.12C109.453 301.6 108.803 302.27 108.323 303.13C107.843 303.99 107.603 304.98 107.603 306.1ZM123.83 306.1C123.83 307.22 124.07 308.21 124.55 309.07C125.03 309.93 125.68 310.61 126.5 311.11C127.34 311.59 128.28 311.83 129.32 311.83C130.06 311.83 130.75 311.72 131.39 311.5C132.03 311.28 132.58 311 133.04 310.66C133.52 310.3 133.86 309.94 134.06 309.58V311.53C133.64 312.03 132.99 312.45 132.11 312.79C131.25 313.13 130.32 313.3 129.32 313.3C127.98 313.3 126.78 312.99 125.72 312.37C124.66 311.75 123.81 310.9 123.17 309.82C122.55 308.72 122.24 307.48 122.24 306.1C122.24 304.7 122.55 303.46 123.17 302.38C123.81 301.3 124.66 300.45 125.72 299.83C126.78 299.21 127.98 298.9 129.32 298.9C130.32 298.9 131.25 299.08 132.11 299.44C132.99 299.78 133.64 300.19 134.06 300.67V302.62C133.86 302.24 133.52 301.88 133.04 301.54C132.58 301.2 132.03 300.92 131.39 300.7C130.75 300.48 130.06 300.37 129.32 300.37C128.28 300.37 127.34 300.62 126.5 301.12C125.68 301.6 125.03 302.27 124.55 303.13C124.07 303.99 123.83 304.98 123.83 306.1ZM135.696 299.2H143.796V300.67H135.696V299.2ZM138.966 299.62H140.526V313H138.966V299.62ZM147.734 319.6H146.174V299.2H147.734V319.6ZM159.524 306.1C159.524 307.58 159.224 308.86 158.624 309.94C158.044 311.02 157.244 311.85 156.224 312.43C155.224 313.01 154.104 313.3 152.864 313.3C151.704 313.3 150.684 312.99 149.804 312.37C148.924 311.73 148.234 310.87 147.734 309.79C147.254 308.69 147.014 307.46 147.014 306.1C147.014 304.72 147.254 303.49 147.734 302.41C148.234 301.33 148.924 300.48 149.804 299.86C150.684 299.22 151.704 298.9 152.864 298.9C154.104 298.9 155.224 299.19 156.224 299.77C157.244 300.35 158.044 301.18 158.624 302.26C159.224 303.32 159.524 304.6 159.524 306.1ZM157.964 306.1C157.964 304.9 157.724 303.87 157.244 303.01C156.764 302.15 156.124 301.5 155.324 301.06C154.524 300.6 153.634 300.37 152.654 300.37C151.814 300.37 151.014 300.62 150.254 301.12C149.494 301.62 148.884 302.3 148.424 303.16C147.964 304.02 147.734 305 147.734 306.1C147.734 307.2 147.964 308.18 148.424 309.04C148.884 309.9 149.494 310.58 150.254 311.08C151.014 311.58 151.814 311.83 152.654 311.83C153.634 311.83 154.524 311.61 155.324 311.17C156.124 310.71 156.764 310.05 157.244 309.19C157.724 308.33 157.964 307.3 157.964 306.1ZM163.673 308.95C163.673 309.63 163.833 310.19 164.153 310.63C164.473 311.05 164.893 311.37 165.413 311.59C165.953 311.79 166.523 311.89 167.123 311.89C167.963 311.89 168.713 311.73 169.373 311.41C170.053 311.09 170.583 310.63 170.963 310.03C171.343 309.43 171.533 308.7 171.533 307.84L171.893 308.74C171.893 309.62 171.663 310.41 171.203 311.11C170.763 311.79 170.153 312.33 169.373 312.73C168.613 313.11 167.743 313.3 166.763 313.3C165.943 313.3 165.173 313.15 164.453 312.85C163.753 312.53 163.183 312.06 162.743 311.44C162.303 310.8 162.083 309.99 162.083 309.01C162.083 308.03 162.333 307.21 162.833 306.55C163.333 305.87 164.013 305.36 164.873 305.02C165.733 304.66 166.703 304.48 167.783 304.48C168.623 304.48 169.333 304.58 169.913 304.78C170.513 304.98 170.993 305.21 171.353 305.47C171.733 305.73 172.003 305.95 172.163 306.13V307.09C171.603 306.67 170.973 306.34 170.273 306.1C169.593 305.84 168.783 305.71 167.843 305.71C167.043 305.71 166.323 305.84 165.683 306.1C165.063 306.34 164.573 306.7 164.213 307.18C163.853 307.66 163.673 308.25 163.673 308.95ZM164.063 301.93L163.283 300.73C163.803 300.31 164.473 299.9 165.293 299.5C166.133 299.1 167.143 298.9 168.323 298.9C169.323 298.9 170.173 299.08 170.873 299.44C171.593 299.78 172.143 300.27 172.523 300.91C172.903 301.55 173.093 302.32 173.093 303.22V313H171.533V303.22C171.533 302.28 171.233 301.56 170.633 301.06C170.053 300.54 169.283 300.28 168.323 300.28C167.663 300.28 167.063 300.37 166.523 300.55C165.983 300.71 165.503 300.92 165.083 301.18C164.683 301.44 164.343 301.69 164.063 301.93ZM178.804 306.43V304.96H188.884V306.43H178.804ZM187.924 299.2H189.484V313H187.924V299.2ZM177.874 299.2H179.434V313H177.874V299.2ZM204.697 300.55L194.137 314.05L194.287 311.65L204.847 298.15L204.697 300.55ZM195.697 299.2V311.83L194.137 314.05V299.2H195.697ZM204.847 298.15V313H203.287V300.37L204.847 298.15ZM214.135 308.8V307.33H218.245V308.8H214.135ZM217.135 299.2H218.695V313H217.135V299.2ZM210.295 299.2V303.16C210.295 304.18 210.415 305 210.655 305.62C210.895 306.22 211.295 306.66 211.855 306.94C212.415 307.2 213.175 307.33 214.135 307.33V308.8C212.755 308.8 211.665 308.61 210.865 308.23C210.085 307.85 209.535 307.25 209.215 306.43C208.895 305.59 208.735 304.5 208.735 303.16V299.2H210.295ZM224.126 306.43V304.96H234.206V306.43H224.126ZM233.246 299.2H234.806V313H233.246V299.2ZM223.196 299.2H224.756V313H223.196V299.2ZM251.46 299.2H253.02V313H251.46V299.2ZM239.31 299.2H240.87V313H239.31V299.2ZM240.18 305.8V304.42H244.17C245.59 304.42 246.78 304.77 247.74 305.47C248.72 306.15 249.21 307.23 249.21 308.71C249.21 309.69 248.99 310.5 248.55 311.14C248.11 311.78 247.51 312.25 246.75 312.55C245.99 312.85 245.13 313 244.17 313H240.18V311.62H244.17C244.87 311.62 245.48 311.52 246 311.32C246.52 311.1 246.92 310.78 247.2 310.36C247.5 309.92 247.65 309.37 247.65 308.71C247.65 307.75 247.33 307.03 246.69 306.55C246.07 306.05 245.23 305.8 244.17 305.8H240.18ZM257.442 306.49V305.14H267.702C267.702 304.2 267.502 303.37 267.102 302.65C266.702 301.91 266.152 301.33 265.452 300.91C264.772 300.49 263.982 300.28 263.082 300.28C262.182 300.28 261.352 300.49 260.592 300.91C259.832 301.33 259.222 301.94 258.762 302.74C258.302 303.52 258.072 304.45 258.072 305.53L258.042 306.07C258.042 307.23 258.252 308.25 258.672 309.13C259.092 309.99 259.672 310.66 260.412 311.14C261.172 311.6 262.042 311.83 263.022 311.83C263.902 311.83 264.642 311.7 265.242 311.44C265.862 311.16 266.382 310.81 266.802 310.39C267.242 309.95 267.612 309.48 267.912 308.98L269.172 309.79C268.772 310.41 268.312 310.99 267.792 311.53C267.272 312.05 266.622 312.48 265.842 312.82C265.062 313.14 264.062 313.3 262.842 313.3C261.642 313.3 260.552 312.99 259.572 312.37C258.612 311.75 257.852 310.89 257.292 309.79C256.732 308.69 256.452 307.45 256.452 306.07C256.452 305.75 256.462 305.45 256.482 305.17C256.522 304.87 256.572 304.57 256.632 304.27C256.872 303.21 257.282 302.28 257.862 301.48C258.442 300.66 259.182 300.03 260.082 299.59C260.982 299.13 261.982 298.9 263.082 298.9C264.282 298.9 265.362 299.19 266.322 299.77C267.282 300.33 268.032 301.12 268.572 302.14C269.132 303.16 269.412 304.36 269.412 305.74C269.412 305.86 269.402 305.99 269.382 306.13C269.382 306.25 269.372 306.37 269.352 306.49H257.442Z" fill="#D9D9D9"/>
<path d="M383.506 301.38L381.706 318H380.056L382.486 296.19L390.886 312.33L399.286 296.19L401.716 318H400.066L398.266 301.38L390.886 315.57L383.506 301.38ZM406.083 311.43V309.96H416.163V311.43H406.083ZM415.203 304.2H416.763V318H415.203V304.2ZM405.153 304.2H406.713V318H405.153V304.2ZM420.187 311.1C420.187 309.7 420.497 308.46 421.117 307.38C421.737 306.3 422.577 305.45 423.637 304.83C424.717 304.21 425.927 303.9 427.267 303.9C428.607 303.9 429.807 304.21 430.867 304.83C431.947 305.45 432.797 306.3 433.417 307.38C434.037 308.46 434.347 309.7 434.347 311.1C434.347 312.48 434.037 313.72 433.417 314.82C432.797 315.9 431.947 316.75 430.867 317.37C429.807 317.99 428.607 318.3 427.267 318.3C425.927 318.3 424.717 317.99 423.637 317.37C422.577 316.75 421.737 315.9 421.117 314.82C420.497 313.72 420.187 312.48 420.187 311.1ZM421.777 311.1C421.777 312.22 422.017 313.21 422.497 314.07C422.977 314.93 423.627 315.61 424.447 316.11C425.287 316.59 426.227 316.83 427.267 316.83C428.307 316.83 429.237 316.59 430.057 316.11C430.897 315.61 431.557 314.93 432.037 314.07C432.517 313.21 432.757 312.22 432.757 311.1C432.757 310 432.517 309.02 432.037 308.16C431.557 307.28 430.897 306.6 430.057 306.12C429.237 305.62 428.307 305.37 427.267 305.37C426.227 305.37 425.287 305.62 424.447 306.12C423.627 306.6 422.977 307.27 422.497 308.13C422.017 308.99 421.777 309.98 421.777 311.1ZM437.794 304.2H444.784V305.67H439.354V318H437.794V304.2ZM445.675 311.1C445.675 309.7 445.985 308.46 446.605 307.38C447.225 306.3 448.065 305.45 449.125 304.83C450.205 304.21 451.415 303.9 452.755 303.9C454.095 303.9 455.295 304.21 456.355 304.83C457.435 305.45 458.285 306.3 458.905 307.38C459.525 308.46 459.835 309.7 459.835 311.1C459.835 312.48 459.525 313.72 458.905 314.82C458.285 315.9 457.435 316.75 456.355 317.37C455.295 317.99 454.095 318.3 452.755 318.3C451.415 318.3 450.205 317.99 449.125 317.37C448.065 316.75 447.225 315.9 446.605 314.82C445.985 313.72 445.675 312.48 445.675 311.1ZM447.265 311.1C447.265 312.22 447.505 313.21 447.985 314.07C448.465 314.93 449.115 315.61 449.935 316.11C450.775 316.59 451.715 316.83 452.755 316.83C453.795 316.83 454.725 316.59 455.545 316.11C456.385 315.61 457.045 314.93 457.525 314.07C458.005 313.21 458.245 312.22 458.245 311.1C458.245 310 458.005 309.02 457.525 308.16C457.045 307.28 456.385 306.6 455.545 306.12C454.725 305.62 453.795 305.37 452.755 305.37C451.715 305.37 450.775 305.62 449.935 306.12C449.115 306.6 448.465 307.27 447.985 308.13C447.505 308.99 447.265 309.98 447.265 311.1ZM463.492 311.1C463.492 312.22 463.732 313.21 464.212 314.07C464.692 314.93 465.342 315.61 466.162 316.11C467.002 316.59 467.942 316.83 468.982 316.83C469.722 316.83 470.412 316.72 471.052 316.5C471.692 316.28 472.242 316 472.702 315.66C473.182 315.3 473.522 314.94 473.722 314.58V316.53C473.302 317.03 472.652 317.45 471.772 317.79C470.912 318.13 469.982 318.3 468.982 318.3C467.642 318.3 466.442 317.99 465.382 317.37C464.322 316.75 463.472 315.9 462.832 314.82C462.212 313.72 461.902 312.48 461.902 311.1C461.902 309.7 462.212 308.46 462.832 307.38C463.472 306.3 464.322 305.45 465.382 304.83C466.442 304.21 467.642 303.9 468.982 303.9C469.982 303.9 470.912 304.08 471.772 304.44C472.652 304.78 473.302 305.19 473.722 305.67V307.62C473.522 307.24 473.182 306.88 472.702 306.54C472.242 306.2 471.692 305.92 471.052 305.7C470.412 305.48 469.722 305.37 468.982 305.37C467.942 305.37 467.002 305.62 466.162 306.12C465.342 306.6 464.692 307.27 464.212 308.13C463.732 308.99 463.492 309.98 463.492 311.1ZM475.358 304.2H483.458V305.67H475.358V304.2ZM478.628 304.62H480.188V318H478.628V304.62ZM487.396 324.6H485.836V304.2H487.396V324.6ZM499.186 311.1C499.186 312.58 498.886 313.86 498.286 314.94C497.706 316.02 496.906 316.85 495.886 317.43C494.886 318.01 493.766 318.3 492.526 318.3C491.366 318.3 490.346 317.99 489.466 317.37C488.586 316.73 487.896 315.87 487.396 314.79C486.916 313.69 486.676 312.46 486.676 311.1C486.676 309.72 486.916 308.49 487.396 307.41C487.896 306.33 488.586 305.48 489.466 304.86C490.346 304.22 491.366 303.9 492.526 303.9C493.766 303.9 494.886 304.19 495.886 304.77C496.906 305.35 497.706 306.18 498.286 307.26C498.886 308.32 499.186 309.6 499.186 311.1ZM497.626 311.1C497.626 309.9 497.386 308.87 496.906 308.01C496.426 307.15 495.786 306.5 494.986 306.06C494.186 305.6 493.296 305.37 492.316 305.37C491.476 305.37 490.676 305.62 489.916 306.12C489.156 306.62 488.546 307.3 488.086 308.16C487.626 309.02 487.396 310 487.396 311.1C487.396 312.2 487.626 313.18 488.086 314.04C488.546 314.9 489.156 315.58 489.916 316.08C490.676 316.58 491.476 316.83 492.316 316.83C493.296 316.83 494.186 316.61 494.986 316.17C495.786 315.71 496.426 315.05 496.906 314.19C497.386 313.33 497.626 312.3 497.626 311.1ZM503.336 313.95C503.336 314.63 503.496 315.19 503.816 315.63C504.136 316.05 504.556 316.37 505.076 316.59C505.616 316.79 506.186 316.89 506.786 316.89C507.626 316.89 508.376 316.73 509.036 316.41C509.716 316.09 510.246 315.63 510.626 315.03C511.006 314.43 511.196 313.7 511.196 312.84L511.556 313.74C511.556 314.62 511.326 315.41 510.866 316.11C510.426 316.79 509.816 317.33 509.036 317.73C508.276 318.11 507.406 318.3 506.426 318.3C505.606 318.3 504.836 318.15 504.116 317.85C503.416 317.53 502.846 317.06 502.406 316.44C501.966 315.8 501.746 314.99 501.746 314.01C501.746 313.03 501.996 312.21 502.496 311.55C502.996 310.87 503.676 310.36 504.536 310.02C505.396 309.66 506.366 309.48 507.446 309.48C508.286 309.48 508.996 309.58 509.576 309.78C510.176 309.98 510.656 310.21 511.016 310.47C511.396 310.73 511.666 310.95 511.826 311.13V312.09C511.266 311.67 510.636 311.34 509.936 311.1C509.256 310.84 508.446 310.71 507.506 310.71C506.706 310.71 505.986 310.84 505.346 311.1C504.726 311.34 504.236 311.7 503.876 312.18C503.516 312.66 503.336 313.25 503.336 313.95ZM503.726 306.93L502.946 305.73C503.466 305.31 504.136 304.9 504.956 304.5C505.796 304.1 506.806 303.9 507.986 303.9C508.986 303.9 509.836 304.08 510.536 304.44C511.256 304.78 511.806 305.27 512.186 305.91C512.566 306.55 512.756 307.32 512.756 308.22V318H511.196V308.22C511.196 307.28 510.896 306.56 510.296 306.06C509.716 305.54 508.946 305.28 507.986 305.28C507.326 305.28 506.726 305.37 506.186 305.55C505.646 305.71 505.166 305.92 504.746 306.18C504.346 306.44 504.006 306.69 503.726 306.93ZM518.466 311.43V309.96H528.546V311.43H518.466ZM527.586 304.2H529.146V318H527.586V304.2ZM517.536 304.2H519.096V318H517.536V304.2ZM544.359 305.55L533.799 319.05L533.949 316.65L544.509 303.15L544.359 305.55ZM535.359 304.2V316.83L533.799 319.05V304.2H535.359ZM544.509 303.15V318H542.949V305.37L544.509 303.15ZM553.797 313.8V312.33H557.907V313.8H553.797ZM556.797 304.2H558.357V318H556.797V304.2ZM549.957 304.2V308.16C549.957 309.18 550.077 310 550.317 310.62C550.557 311.22 550.957 311.66 551.517 311.94C552.077 312.2 552.837 312.33 553.797 312.33V313.8C552.417 313.8 551.327 313.61 550.527 313.23C549.747 312.85 549.197 312.25 548.877 311.43C548.557 310.59 548.397 309.5 548.397 308.16V304.2H549.957ZM563.788 311.43V309.96H573.868V311.43H563.788ZM572.908 304.2H574.468V318H572.908V304.2ZM562.858 304.2H564.418V318H562.858V304.2ZM591.122 304.2H592.682V318H591.122V304.2ZM578.972 304.2H580.532V318H578.972V304.2ZM579.842 310.8V309.42H583.832C585.252 309.42 586.442 309.77 587.402 310.47C588.382 311.15 588.872 312.23 588.872 313.71C588.872 314.69 588.652 315.5 588.212 316.14C587.772 316.78 587.172 317.25 586.412 317.55C585.652 317.85 584.792 318 583.832 318H579.842V316.62H583.832C584.532 316.62 585.142 316.52 585.662 316.32C586.182 316.1 586.582 315.78 586.862 315.36C587.162 314.92 587.312 314.37 587.312 313.71C587.312 312.75 586.992 312.03 586.352 311.55C585.732 311.05 584.892 310.8 583.832 310.8H579.842ZM597.104 311.49V310.14H607.364C607.364 309.2 607.164 308.37 606.764 307.65C606.364 306.91 605.814 306.33 605.114 305.91C604.434 305.49 603.644 305.28 602.744 305.28C601.844 305.28 601.014 305.49 600.254 305.91C599.494 306.33 598.884 306.94 598.424 307.74C597.964 308.52 597.734 309.45 597.734 310.53L597.704 311.07C597.704 312.23 597.914 313.25 598.334 314.13C598.754 314.99 599.334 315.66 600.074 316.14C600.834 316.6 601.704 316.83 602.684 316.83C603.564 316.83 604.304 316.7 604.904 316.44C605.524 316.16 606.044 315.81 606.464 315.39C606.904 314.95 607.274 314.48 607.574 313.98L608.834 314.79C608.434 315.41 607.974 315.99 607.454 316.53C606.934 317.05 606.284 317.48 605.504 317.82C604.724 318.14 603.724 318.3 602.504 318.3C601.304 318.3 600.214 317.99 599.234 317.37C598.274 316.75 597.514 315.89 596.954 314.79C596.394 313.69 596.114 312.45 596.114 311.07C596.114 310.75 596.124 310.45 596.144 310.17C596.184 309.87 596.234 309.57 596.294 309.27C596.534 308.21 596.944 307.28 597.524 306.48C598.104 305.66 598.844 305.03 599.744 304.59C600.644 304.13 601.644 303.9 602.744 303.9C603.944 303.9 605.024 304.19 605.984 304.77C606.944 305.33 607.694 306.12 608.234 307.14C608.794 308.16 609.074 309.36 609.074 310.74C609.074 310.86 609.064 310.99 609.044 311.13C609.044 311.25 609.034 311.37 609.014 311.49H597.104Z" fill="#D9D9D9"/>
<path d="M727.47 300.5L709.95 321.05L710.04 318.5L727.56 297.95L727.47 300.5ZM711.6 299V318.8L709.95 321.05V299H711.6ZM727.56 297.95V320H725.91V300.17L727.56 297.95ZM733.256 313.43V311.96H743.336V313.43H733.256ZM742.376 306.2H743.936V320H742.376V306.2ZM732.326 306.2H733.886V320H732.326V306.2ZM746.339 306.2H754.439V307.67H746.339V306.2ZM749.609 306.62H751.169V320H749.609V306.62ZM756.318 313.49V312.14H766.578C766.578 311.2 766.378 310.37 765.978 309.65C765.578 308.91 765.028 308.33 764.328 307.91C763.648 307.49 762.858 307.28 761.958 307.28C761.058 307.28 760.228 307.49 759.468 307.91C758.708 308.33 758.098 308.94 757.638 309.74C757.178 310.52 756.948 311.45 756.948 312.53L756.918 313.07C756.918 314.23 757.128 315.25 757.548 316.13C757.968 316.99 758.548 317.66 759.288 318.14C760.048 318.6 760.918 318.83 761.898 318.83C762.778 318.83 763.518 318.7 764.118 318.44C764.738 318.16 765.258 317.81 765.678 317.39C766.118 316.95 766.488 316.48 766.788 315.98L768.048 316.79C767.648 317.41 767.188 317.99 766.668 318.53C766.148 319.05 765.498 319.48 764.718 319.82C763.938 320.14 762.938 320.3 761.718 320.3C760.518 320.3 759.428 319.99 758.448 319.37C757.488 318.75 756.728 317.89 756.168 316.79C755.608 315.69 755.328 314.45 755.328 313.07C755.328 312.75 755.338 312.45 755.358 312.17C755.398 311.87 755.448 311.57 755.508 311.27C755.748 310.21 756.158 309.28 756.738 308.48C757.318 307.66 758.058 307.03 758.958 306.59C759.858 306.13 760.858 305.9 761.958 305.9C763.158 305.9 764.238 306.19 765.198 306.77C766.158 307.33 766.908 308.12 767.448 309.14C768.008 310.16 768.288 311.36 768.288 312.74C768.288 312.86 768.278 312.99 768.258 313.13C768.258 313.25 768.248 313.37 768.228 313.49H756.318ZM773.378 326.6H771.818V306.2H773.378V326.6ZM785.168 313.1C785.168 314.58 784.868 315.86 784.268 316.94C783.688 318.02 782.888 318.85 781.868 319.43C780.868 320.01 779.748 320.3 778.508 320.3C777.348 320.3 776.328 319.99 775.448 319.37C774.568 318.73 773.878 317.87 773.378 316.79C772.898 315.69 772.658 314.46 772.658 313.1C772.658 311.72 772.898 310.49 773.378 309.41C773.878 308.33 774.568 307.48 775.448 306.86C776.328 306.22 777.348 305.9 778.508 305.9C779.748 305.9 780.868 306.19 781.868 306.77C782.888 307.35 783.688 308.18 784.268 309.26C784.868 310.32 785.168 311.6 785.168 313.1ZM783.608 313.1C783.608 311.9 783.368 310.87 782.888 310.01C782.408 309.15 781.768 308.5 780.968 308.06C780.168 307.6 779.278 307.37 778.298 307.37C777.458 307.37 776.658 307.62 775.898 308.12C775.138 308.62 774.528 309.3 774.068 310.16C773.608 311.02 773.378 312 773.378 313.1C773.378 314.2 773.608 315.18 774.068 316.04C774.528 316.9 775.138 317.58 775.898 318.08C776.658 318.58 777.458 318.83 778.298 318.83C779.278 318.83 780.168 318.61 780.968 318.17C781.768 317.71 782.408 317.05 782.888 316.19C783.368 315.33 783.608 314.3 783.608 313.1ZM789.887 313.43V311.96H799.967V313.43H789.887ZM799.007 306.2H800.567V320H799.007V306.2ZM788.957 306.2H790.517V320H788.957V306.2ZM804.98 313.49V312.14H815.24C815.24 311.2 815.04 310.37 814.64 309.65C814.24 308.91 813.69 308.33 812.99 307.91C812.31 307.49 811.52 307.28 810.62 307.28C809.72 307.28 808.89 307.49 808.13 307.91C807.37 308.33 806.76 308.94 806.3 309.74C805.84 310.52 805.61 311.45 805.61 312.53L805.58 313.07C805.58 314.23 805.79 315.25 806.21 316.13C806.63 316.99 807.21 317.66 807.95 318.14C808.71 318.6 809.58 318.83 810.56 318.83C811.44 318.83 812.18 318.7 812.78 318.44C813.4 318.16 813.92 317.81 814.34 317.39C814.78 316.95 815.15 316.48 815.45 315.98L816.71 316.79C816.31 317.41 815.85 317.99 815.33 318.53C814.81 319.05 814.16 319.48 813.38 319.82C812.6 320.14 811.6 320.3 810.38 320.3C809.18 320.3 808.09 319.99 807.11 319.37C806.15 318.75 805.39 317.89 804.83 316.79C804.27 315.69 803.99 314.45 803.99 313.07C803.99 312.75 804 312.45 804.02 312.17C804.06 311.87 804.11 311.57 804.17 311.27C804.41 310.21 804.82 309.28 805.4 308.48C805.98 307.66 806.72 307.03 807.62 306.59C808.52 306.13 809.52 305.9 810.62 305.9C811.82 305.9 812.9 306.19 813.86 306.77C814.82 307.33 815.57 308.12 816.11 309.14C816.67 310.16 816.95 311.36 816.95 312.74C816.95 312.86 816.94 312.99 816.92 313.13C816.92 313.25 816.91 313.37 816.89 313.49H804.98ZM818.41 306.2H826.51V307.67H818.41V306.2ZM821.68 306.62H823.24V320H821.68V306.62ZM851.952 320L849.282 307.97L850.122 305.15L853.722 320H851.952ZM844.182 318.65L850.122 305.15L850.272 308.51L844.722 320.93L844.182 318.65ZM844.722 320.93L839.262 308.51L839.412 305.15L845.262 318.65L844.722 320.93ZM835.812 320L839.412 305.15L840.252 307.97L837.612 320H835.812ZM856.495 315.95C856.495 316.63 856.655 317.19 856.975 317.63C857.295 318.05 857.715 318.37 858.235 318.59C858.775 318.79 859.345 318.89 859.945 318.89C860.785 318.89 861.535 318.73 862.195 318.41C862.875 318.09 863.405 317.63 863.785 317.03C864.165 316.43 864.355 315.7 864.355 314.84L864.715 315.74C864.715 316.62 864.485 317.41 864.025 318.11C863.585 318.79 862.975 319.33 862.195 319.73C861.435 320.11 860.565 320.3 859.585 320.3C858.765 320.3 857.995 320.15 857.275 319.85C856.575 319.53 856.005 319.06 855.565 318.44C855.125 317.8 854.905 316.99 854.905 316.01C854.905 315.03 855.155 314.21 855.655 313.55C856.155 312.87 856.835 312.36 857.695 312.02C858.555 311.66 859.525 311.48 860.605 311.48C861.445 311.48 862.155 311.58 862.735 311.78C863.335 311.98 863.815 312.21 864.175 312.47C864.555 312.73 864.825 312.95 864.985 313.13V314.09C864.425 313.67 863.795 313.34 863.095 313.1C862.415 312.84 861.605 312.71 860.665 312.71C859.865 312.71 859.145 312.84 858.505 313.1C857.885 313.34 857.395 313.7 857.035 314.18C856.675 314.66 856.495 315.25 856.495 315.95ZM856.885 308.93L856.105 307.73C856.625 307.31 857.295 306.9 858.115 306.5C858.955 306.1 859.965 305.9 861.145 305.9C862.145 305.9 862.995 306.08 863.695 306.44C864.415 306.78 864.965 307.27 865.345 307.91C865.725 308.55 865.915 309.32 865.915 310.22V320H864.355V310.22C864.355 309.28 864.055 308.56 863.455 308.06C862.875 307.54 862.105 307.28 861.145 307.28C860.485 307.28 859.885 307.37 859.345 307.55C858.805 307.71 858.325 307.92 857.905 308.18C857.505 308.44 857.165 308.69 856.885 308.93ZM870.845 306.2H877.835V307.67H872.405V320H870.845V306.2ZM880.606 315.95C880.606 316.63 880.766 317.19 881.086 317.63C881.406 318.05 881.826 318.37 882.346 318.59C882.886 318.79 883.456 318.89 884.056 318.89C884.896 318.89 885.646 318.73 886.306 318.41C886.986 318.09 887.516 317.63 887.896 317.03C888.276 316.43 888.466 315.7 888.466 314.84L888.826 315.74C888.826 316.62 888.596 317.41 888.136 318.11C887.696 318.79 887.086 319.33 886.306 319.73C885.546 320.11 884.676 320.3 883.696 320.3C882.876 320.3 882.106 320.15 881.386 319.85C880.686 319.53 880.116 319.06 879.676 318.44C879.236 317.8 879.016 316.99 879.016 316.01C879.016 315.03 879.266 314.21 879.766 313.55C880.266 312.87 880.946 312.36 881.806 312.02C882.666 311.66 883.636 311.48 884.716 311.48C885.556 311.48 886.266 311.58 886.846 311.78C887.446 311.98 887.926 312.21 888.286 312.47C888.666 312.73 888.936 312.95 889.096 313.13V314.09C888.536 313.67 887.906 313.34 887.206 313.1C886.526 312.84 885.716 312.71 884.776 312.71C883.976 312.71 883.256 312.84 882.616 313.1C881.996 313.34 881.506 313.7 881.146 314.18C880.786 314.66 880.606 315.25 880.606 315.95ZM880.996 308.93L880.216 307.73C880.736 307.31 881.406 306.9 882.226 306.5C883.066 306.1 884.076 305.9 885.256 305.9C886.256 305.9 887.106 306.08 887.806 306.44C888.526 306.78 889.076 307.27 889.456 307.91C889.836 308.55 890.026 309.32 890.026 310.22V320H888.466V310.22C888.466 309.28 888.166 308.56 887.566 308.06C886.986 307.54 886.216 307.28 885.256 307.28C884.596 307.28 883.996 307.37 883.456 307.55C882.916 307.71 882.436 307.92 882.016 308.18C881.616 308.44 881.276 308.69 880.996 308.93ZM899.877 312.95V311.96C900.977 311.96 901.807 311.75 902.367 311.33C902.927 310.89 903.207 310.33 903.207 309.65C903.207 308.93 902.917 308.36 902.337 307.94C901.777 307.52 901.037 307.31 900.117 307.31C899.397 307.31 898.777 307.45 898.257 307.73C897.737 308.01 897.337 308.37 897.057 308.81C896.797 309.23 896.667 309.66 896.667 310.1H895.077C895.077 309.34 895.297 308.64 895.737 308C896.197 307.36 896.807 306.85 897.567 306.47C898.347 306.09 899.207 305.9 900.147 305.9C901.027 305.9 901.817 306.06 902.517 306.38C903.217 306.7 903.767 307.13 904.167 307.67C904.587 308.21 904.797 308.83 904.797 309.53C904.797 310.53 904.367 311.35 903.507 311.99C902.667 312.63 901.457 312.95 899.877 312.95ZM900.057 320.3C898.437 320.3 897.127 319.86 896.127 318.98C895.127 318.1 894.547 316.99 894.387 315.65H895.977C896.117 316.53 896.517 317.3 897.177 317.96C897.837 318.6 898.797 318.92 900.057 318.92C900.757 318.92 901.387 318.81 901.947 318.59C902.527 318.37 902.987 318.05 903.327 317.63C903.687 317.21 903.867 316.69 903.867 316.07C903.867 315.45 903.697 314.94 903.357 314.54C903.017 314.14 902.547 313.84 901.947 313.64C901.347 313.44 900.657 313.34 899.877 313.34V312.35C901.617 312.35 902.967 312.66 903.927 313.28C904.907 313.88 905.397 314.8 905.397 316.04C905.397 316.94 905.147 317.71 904.647 318.35C904.167 318.99 903.517 319.48 902.697 319.82C901.877 320.14 900.997 320.3 900.057 320.3ZM919.696 307.55L909.136 321.05L909.286 318.65L919.846 305.15L919.696 307.55ZM910.696 306.2V318.83L909.136 321.05V306.2H910.696ZM919.846 305.15V320H918.286V307.37L919.846 305.15ZM925.414 313.43V311.96H935.494V313.43H925.414ZM934.534 306.2H936.094V320H934.534V306.2ZM924.484 306.2H926.044V320H924.484V306.2ZM952.748 306.2H954.308V320H952.748V306.2ZM940.598 306.2H942.158V320H940.598V306.2ZM941.468 312.8V311.42H945.458C946.878 311.42 948.068 311.77 949.028 312.47C950.008 313.15 950.498 314.23 950.498 315.71C950.498 316.69 950.278 317.5 949.838 318.14C949.398 318.78 948.798 319.25 948.038 319.55C947.278 319.85 946.418 320 945.458 320H941.468V318.62H945.458C946.158 318.62 946.768 318.52 947.288 318.32C947.808 318.1 948.208 317.78 948.488 317.36C948.788 316.92 948.938 316.37 948.938 315.71C948.938 314.75 948.618 314.03 947.978 313.55C947.358 313.05 946.518 312.8 945.458 312.8H941.468Z" fill="#D9D9D9"/>
<circle cx="159.5" cy="240.5" r="159" stroke="#CE664D" stroke-dasharray="10 10"/>
<circle cx="493" cy="226" r="225.5" stroke="#CE664D" stroke-dasharray="10 10"/>
<circle cx="827.5" cy="243.5" r="159" stroke="#CE664D" stroke-dasharray="10 10"/>
</svg>
