<svg width="383" height="867" viewBox="0 0 383 867" fill="none" xmlns="http://www.w3.org/2000/svg">
<path d="M88.8173 777.5L71.2973 798.05L71.3873 795.5L88.9073 774.95L88.8173 777.5ZM72.9473 776V795.8L71.2973 798.05V776H72.9473ZM88.9073 774.95V797H87.2573V777.17L88.9073 774.95ZM94.6038 790.43V788.96H104.684V790.43H94.6038ZM103.724 783.2H105.284V797H103.724V783.2ZM93.6738 783.2H95.2338V797H93.6738V783.2ZM107.687 783.2H115.787V784.67H107.687V783.2ZM110.957 783.62H112.517V797H110.957V783.62ZM117.666 790.49V789.14H127.926C127.926 788.2 127.726 787.37 127.326 786.65C126.926 785.91 126.376 785.33 125.676 784.91C124.996 784.49 124.206 784.28 123.306 784.28C122.406 784.28 121.576 784.49 120.816 784.91C120.056 785.33 119.446 785.94 118.986 786.74C118.526 787.52 118.296 788.45 118.296 789.53L118.266 790.07C118.266 791.23 118.476 792.25 118.896 793.13C119.316 793.99 119.896 794.66 120.636 795.14C121.396 795.6 122.266 795.83 123.246 795.83C124.126 795.83 124.866 795.7 125.466 795.44C126.086 795.16 126.606 794.81 127.026 794.39C127.466 793.95 127.836 793.48 128.136 792.98L129.396 793.79C128.996 794.41 128.536 794.99 128.016 795.53C127.496 796.05 126.846 796.48 126.066 796.82C125.286 797.14 124.286 797.3 123.066 797.3C121.866 797.3 120.776 796.99 119.796 796.37C118.836 795.75 118.076 794.89 117.516 793.79C116.956 792.69 116.676 791.45 116.676 790.07C116.676 789.75 116.686 789.45 116.706 789.17C116.746 788.87 116.796 788.57 116.856 788.27C117.096 787.21 117.506 786.28 118.086 785.48C118.666 784.66 119.406 784.03 120.306 783.59C121.206 783.13 122.206 782.9 123.306 782.9C124.506 782.9 125.586 783.19 126.546 783.77C127.506 784.33 128.256 785.12 128.796 786.14C129.356 787.16 129.636 788.36 129.636 789.74C129.636 789.86 129.626 789.99 129.606 790.13C129.606 790.25 129.596 790.37 129.576 790.49H117.666ZM134.725 803.6H133.165V783.2H134.725V803.6ZM146.515 790.1C146.515 791.58 146.215 792.86 145.615 793.94C145.035 795.02 144.235 795.85 143.215 796.43C142.215 797.01 141.095 797.3 139.855 797.3C138.695 797.3 137.675 796.99 136.795 796.37C135.915 795.73 135.225 794.87 134.725 793.79C134.245 792.69 134.005 791.46 134.005 790.1C134.005 788.72 134.245 787.49 134.725 786.41C135.225 785.33 135.915 784.48 136.795 783.86C137.675 783.22 138.695 782.9 139.855 782.9C141.095 782.9 142.215 783.19 143.215 783.77C144.235 784.35 145.035 785.18 145.615 786.26C146.215 787.32 146.515 788.6 146.515 790.1ZM144.955 790.1C144.955 788.9 144.715 787.87 144.235 787.01C143.755 786.15 143.115 785.5 142.315 785.06C141.515 784.6 140.625 784.37 139.645 784.37C138.805 784.37 138.005 784.62 137.245 785.12C136.485 785.62 135.875 786.3 135.415 787.16C134.955 788.02 134.725 789 134.725 790.1C134.725 791.2 134.955 792.18 135.415 793.04C135.875 793.9 136.485 794.58 137.245 795.08C138.005 795.58 138.805 795.83 139.645 795.83C140.625 795.83 141.515 795.61 142.315 795.17C143.115 794.71 143.755 794.05 144.235 793.19C144.715 792.33 144.955 791.3 144.955 790.1ZM151.235 790.43V788.96H161.315V790.43H151.235ZM160.355 783.2H161.915V797H160.355V783.2ZM150.305 783.2H151.865V797H150.305V783.2ZM166.328 790.49V789.14H176.588C176.588 788.2 176.388 787.37 175.988 786.65C175.588 785.91 175.038 785.33 174.338 784.91C173.658 784.49 172.868 784.28 171.968 784.28C171.068 784.28 170.238 784.49 169.478 784.91C168.718 785.33 168.108 785.94 167.648 786.74C167.188 787.52 166.958 788.45 166.958 789.53L166.928 790.07C166.928 791.23 167.138 792.25 167.558 793.13C167.978 793.99 168.558 794.66 169.298 795.14C170.058 795.6 170.928 795.83 171.908 795.83C172.788 795.83 173.528 795.7 174.128 795.44C174.748 795.16 175.268 794.81 175.688 794.39C176.128 793.95 176.498 793.48 176.798 792.98L178.058 793.79C177.658 794.41 177.198 794.99 176.678 795.53C176.158 796.05 175.508 796.48 174.728 796.82C173.948 797.14 172.948 797.3 171.728 797.3C170.528 797.3 169.438 796.99 168.458 796.37C167.498 795.75 166.738 794.89 166.178 793.79C165.618 792.69 165.338 791.45 165.338 790.07C165.338 789.75 165.348 789.45 165.368 789.17C165.408 788.87 165.458 788.57 165.518 788.27C165.758 787.21 166.168 786.28 166.748 785.48C167.328 784.66 168.068 784.03 168.968 783.59C169.868 783.13 170.868 782.9 171.968 782.9C173.168 782.9 174.248 783.19 175.208 783.77C176.168 784.33 176.918 785.12 177.458 786.14C178.018 787.16 178.298 788.36 178.298 789.74C178.298 789.86 178.288 789.99 178.268 790.13C178.268 790.25 178.258 790.37 178.238 790.49H166.328ZM179.757 783.2H187.857V784.67H179.757V783.2ZM183.027 783.62H184.587V797H183.027V783.62ZM188.166 790.22V788.75H194.166V790.22H188.166ZM210.604 797L207.934 784.97L208.774 782.15L212.374 797H210.604ZM202.834 795.65L208.774 782.15L208.924 785.51L203.374 797.93L202.834 795.65ZM203.374 797.93L197.914 785.51L198.064 782.15L203.914 795.65L203.374 797.93ZM194.464 797L198.064 782.15L198.904 784.97L196.264 797H194.464ZM215.147 792.95C215.147 793.63 215.307 794.19 215.627 794.63C215.947 795.05 216.367 795.37 216.887 795.59C217.427 795.79 217.997 795.89 218.597 795.89C219.437 795.89 220.187 795.73 220.847 795.41C221.527 795.09 222.057 794.63 222.437 794.03C222.817 793.43 223.007 792.7 223.007 791.84L223.367 792.74C223.367 793.62 223.137 794.41 222.677 795.11C222.237 795.79 221.627 796.33 220.847 796.73C220.087 797.11 219.217 797.3 218.237 797.3C217.417 797.3 216.647 797.15 215.927 796.85C215.227 796.53 214.657 796.06 214.217 795.44C213.777 794.8 213.557 793.99 213.557 793.01C213.557 792.03 213.807 791.21 214.307 790.55C214.807 789.87 215.487 789.36 216.347 789.02C217.207 788.66 218.177 788.48 219.257 788.48C220.097 788.48 220.807 788.58 221.387 788.78C221.987 788.98 222.467 789.21 222.827 789.47C223.207 789.73 223.477 789.95 223.637 790.13V791.09C223.077 790.67 222.447 790.34 221.747 790.1C221.067 789.84 220.257 789.71 219.317 789.71C218.517 789.71 217.797 789.84 217.157 790.1C216.537 790.34 216.047 790.7 215.687 791.18C215.327 791.66 215.147 792.25 215.147 792.95ZM215.537 785.93L214.757 784.73C215.277 784.31 215.947 783.9 216.767 783.5C217.607 783.1 218.617 782.9 219.797 782.9C220.797 782.9 221.647 783.08 222.347 783.44C223.067 783.78 223.617 784.27 223.997 784.91C224.377 785.55 224.567 786.32 224.567 787.22V797H223.007V787.22C223.007 786.28 222.707 785.56 222.107 785.06C221.527 784.54 220.757 784.28 219.797 784.28C219.137 784.28 218.537 784.37 217.997 784.55C217.457 784.71 216.977 784.92 216.557 785.18C216.157 785.44 215.817 785.69 215.537 785.93ZM229.498 783.2H236.488V784.67H231.058V797H229.498V783.2ZM239.258 792.95C239.258 793.63 239.418 794.19 239.738 794.63C240.058 795.05 240.478 795.37 240.998 795.59C241.538 795.79 242.108 795.89 242.708 795.89C243.548 795.89 244.298 795.73 244.958 795.41C245.638 795.09 246.168 794.63 246.548 794.03C246.928 793.43 247.118 792.7 247.118 791.84L247.478 792.74C247.478 793.62 247.248 794.41 246.788 795.11C246.348 795.79 245.738 796.33 244.958 796.73C244.198 797.11 243.328 797.3 242.348 797.3C241.528 797.3 240.758 797.15 240.038 796.85C239.338 796.53 238.768 796.06 238.328 795.44C237.888 794.8 237.668 793.99 237.668 793.01C237.668 792.03 237.918 791.21 238.418 790.55C238.918 789.87 239.598 789.36 240.458 789.02C241.318 788.66 242.288 788.48 243.368 788.48C244.208 788.48 244.918 788.58 245.498 788.78C246.098 788.98 246.578 789.21 246.938 789.47C247.318 789.73 247.588 789.95 247.748 790.13V791.09C247.188 790.67 246.558 790.34 245.858 790.1C245.178 789.84 244.368 789.71 243.428 789.71C242.628 789.71 241.908 789.84 241.268 790.1C240.648 790.34 240.158 790.7 239.798 791.18C239.438 791.66 239.258 792.25 239.258 792.95ZM239.648 785.93L238.868 784.73C239.388 784.31 240.058 783.9 240.878 783.5C241.718 783.1 242.728 782.9 243.908 782.9C244.908 782.9 245.758 783.08 246.458 783.44C247.178 783.78 247.728 784.27 248.108 784.91C248.488 785.55 248.678 786.32 248.678 787.22V797H247.118V787.22C247.118 786.28 246.818 785.56 246.218 785.06C245.638 784.54 244.868 784.28 243.908 784.28C243.248 784.28 242.648 784.37 242.108 784.55C241.568 784.71 241.088 784.92 240.668 785.18C240.268 785.44 239.928 785.69 239.648 785.93ZM258.529 789.95V788.96C259.629 788.96 260.459 788.75 261.019 788.33C261.579 787.89 261.859 787.33 261.859 786.65C261.859 785.93 261.569 785.36 260.989 784.94C260.429 784.52 259.689 784.31 258.769 784.31C258.049 784.31 257.429 784.45 256.909 784.73C256.389 785.01 255.989 785.37 255.709 785.81C255.449 786.23 255.319 786.66 255.319 787.1H253.729C253.729 786.34 253.949 785.64 254.389 785C254.849 784.36 255.459 783.85 256.219 783.47C256.999 783.09 257.859 782.9 258.799 782.9C259.679 782.9 260.469 783.06 261.169 783.38C261.869 783.7 262.419 784.13 262.819 784.67C263.239 785.21 263.449 785.83 263.449 786.53C263.449 787.53 263.019 788.35 262.159 788.99C261.319 789.63 260.109 789.95 258.529 789.95ZM258.709 797.3C257.089 797.3 255.779 796.86 254.779 795.98C253.779 795.1 253.199 793.99 253.039 792.65H254.629C254.769 793.53 255.169 794.3 255.829 794.96C256.489 795.6 257.449 795.92 258.709 795.92C259.409 795.92 260.039 795.81 260.599 795.59C261.179 795.37 261.639 795.05 261.979 794.63C262.339 794.21 262.519 793.69 262.519 793.07C262.519 792.45 262.349 791.94 262.009 791.54C261.669 791.14 261.199 790.84 260.599 790.64C259.999 790.44 259.309 790.34 258.529 790.34V789.35C260.269 789.35 261.619 789.66 262.579 790.28C263.559 790.88 264.049 791.8 264.049 793.04C264.049 793.94 263.799 794.71 263.299 795.35C262.819 795.99 262.169 796.48 261.349 796.82C260.529 797.14 259.649 797.3 258.709 797.3ZM278.349 784.55L267.789 798.05L267.939 795.65L278.499 782.15L278.349 784.55ZM269.349 783.2V795.83L267.789 798.05V783.2H269.349ZM278.499 782.15V797H276.939V784.37L278.499 782.15ZM284.067 790.43V788.96H294.147V790.43H284.067ZM293.187 783.2H294.747V797H293.187V783.2ZM283.137 783.2H284.697V797H283.137V783.2ZM311.4 783.2H312.96V797H311.4V783.2ZM299.25 783.2H300.81V797H299.25V783.2ZM300.12 789.8V788.42H304.11C305.53 788.42 306.72 788.77 307.68 789.47C308.66 790.15 309.15 791.23 309.15 792.71C309.15 793.69 308.93 794.5 308.49 795.14C308.05 795.78 307.45 796.25 306.69 796.55C305.93 796.85 305.07 797 304.11 797H300.12V795.62H304.11C304.81 795.62 305.42 795.52 305.94 795.32C306.46 795.1 306.86 794.78 307.14 794.36C307.44 793.92 307.59 793.37 307.59 792.71C307.59 791.75 307.27 791.03 306.63 790.55C306.01 790.05 305.17 789.8 304.11 789.8H300.12Z" fill="#D9D9D9"/>
<path d="M80.4769 506.38L78.6769 523H77.0269L79.4569 501.19L87.8569 517.33L96.2569 501.19L98.6869 523H97.0369L95.2369 506.38L87.8569 520.57L80.4769 506.38ZM103.054 516.43V514.96H113.134V516.43H103.054ZM112.174 509.2H113.734V523H112.174V509.2ZM102.124 509.2H103.684V523H102.124V509.2ZM117.157 516.1C117.157 514.7 117.467 513.46 118.087 512.38C118.707 511.3 119.547 510.45 120.607 509.83C121.687 509.21 122.897 508.9 124.237 508.9C125.577 508.9 126.777 509.21 127.837 509.83C128.917 510.45 129.767 511.3 130.387 512.38C131.007 513.46 131.317 514.7 131.317 516.1C131.317 517.48 131.007 518.72 130.387 519.82C129.767 520.9 128.917 521.75 127.837 522.37C126.777 522.99 125.577 523.3 124.237 523.3C122.897 523.3 121.687 522.99 120.607 522.37C119.547 521.75 118.707 520.9 118.087 519.82C117.467 518.72 117.157 517.48 117.157 516.1ZM118.747 516.1C118.747 517.22 118.987 518.21 119.467 519.07C119.947 519.93 120.597 520.61 121.417 521.11C122.257 521.59 123.197 521.83 124.237 521.83C125.277 521.83 126.207 521.59 127.027 521.11C127.867 520.61 128.527 519.93 129.007 519.07C129.487 518.21 129.727 517.22 129.727 516.1C129.727 515 129.487 514.02 129.007 513.16C128.527 512.28 127.867 511.6 127.027 511.12C126.207 510.62 125.277 510.37 124.237 510.37C123.197 510.37 122.257 510.62 121.417 511.12C120.597 511.6 119.947 512.27 119.467 513.13C118.987 513.99 118.747 514.98 118.747 516.1ZM134.764 509.2H141.754V510.67H136.324V523H134.764V509.2ZM142.646 516.1C142.646 514.7 142.956 513.46 143.576 512.38C144.196 511.3 145.036 510.45 146.096 509.83C147.176 509.21 148.386 508.9 149.726 508.9C151.066 508.9 152.266 509.21 153.326 509.83C154.406 510.45 155.256 511.3 155.876 512.38C156.496 513.46 156.806 514.7 156.806 516.1C156.806 517.48 156.496 518.72 155.876 519.82C155.256 520.9 154.406 521.75 153.326 522.37C152.266 522.99 151.066 523.3 149.726 523.3C148.386 523.3 147.176 522.99 146.096 522.37C145.036 521.75 144.196 520.9 143.576 519.82C142.956 518.72 142.646 517.48 142.646 516.1ZM144.236 516.1C144.236 517.22 144.476 518.21 144.956 519.07C145.436 519.93 146.086 520.61 146.906 521.11C147.746 521.59 148.686 521.83 149.726 521.83C150.766 521.83 151.696 521.59 152.516 521.11C153.356 520.61 154.016 519.93 154.496 519.07C154.976 518.21 155.216 517.22 155.216 516.1C155.216 515 154.976 514.02 154.496 513.16C154.016 512.28 153.356 511.6 152.516 511.12C151.696 510.62 150.766 510.37 149.726 510.37C148.686 510.37 147.746 510.62 146.906 511.12C146.086 511.6 145.436 512.27 144.956 513.13C144.476 513.99 144.236 514.98 144.236 516.1ZM160.463 516.1C160.463 517.22 160.703 518.21 161.183 519.07C161.663 519.93 162.313 520.61 163.133 521.11C163.973 521.59 164.913 521.83 165.953 521.83C166.693 521.83 167.383 521.72 168.023 521.5C168.663 521.28 169.213 521 169.673 520.66C170.153 520.3 170.493 519.94 170.693 519.58V521.53C170.273 522.03 169.623 522.45 168.743 522.79C167.883 523.13 166.953 523.3 165.953 523.3C164.613 523.3 163.413 522.99 162.353 522.37C161.293 521.75 160.443 520.9 159.803 519.82C159.183 518.72 158.873 517.48 158.873 516.1C158.873 514.7 159.183 513.46 159.803 512.38C160.443 511.3 161.293 510.45 162.353 509.83C163.413 509.21 164.613 508.9 165.953 508.9C166.953 508.9 167.883 509.08 168.743 509.44C169.623 509.78 170.273 510.19 170.693 510.67V512.62C170.493 512.24 170.153 511.88 169.673 511.54C169.213 511.2 168.663 510.92 168.023 510.7C167.383 510.48 166.693 510.37 165.953 510.37C164.913 510.37 163.973 510.62 163.133 511.12C162.313 511.6 161.663 512.27 161.183 513.13C160.703 513.99 160.463 514.98 160.463 516.1ZM172.329 509.2H180.429V510.67H172.329V509.2ZM175.599 509.62H177.159V523H175.599V509.62ZM184.367 529.6H182.807V509.2H184.367V529.6ZM196.157 516.1C196.157 517.58 195.857 518.86 195.257 519.94C194.677 521.02 193.877 521.85 192.857 522.43C191.857 523.01 190.737 523.3 189.497 523.3C188.337 523.3 187.317 522.99 186.437 522.37C185.557 521.73 184.867 520.87 184.367 519.79C183.887 518.69 183.647 517.46 183.647 516.1C183.647 514.72 183.887 513.49 184.367 512.41C184.867 511.33 185.557 510.48 186.437 509.86C187.317 509.22 188.337 508.9 189.497 508.9C190.737 508.9 191.857 509.19 192.857 509.77C193.877 510.35 194.677 511.18 195.257 512.26C195.857 513.32 196.157 514.6 196.157 516.1ZM194.597 516.1C194.597 514.9 194.357 513.87 193.877 513.01C193.397 512.15 192.757 511.5 191.957 511.06C191.157 510.6 190.267 510.37 189.287 510.37C188.447 510.37 187.647 510.62 186.887 511.12C186.127 511.62 185.517 512.3 185.057 513.16C184.597 514.02 184.367 515 184.367 516.1C184.367 517.2 184.597 518.18 185.057 519.04C185.517 519.9 186.127 520.58 186.887 521.08C187.647 521.58 188.447 521.83 189.287 521.83C190.267 521.83 191.157 521.61 191.957 521.17C192.757 520.71 193.397 520.05 193.877 519.19C194.357 518.33 194.597 517.3 194.597 516.1ZM200.306 518.95C200.306 519.63 200.466 520.19 200.786 520.63C201.106 521.05 201.526 521.37 202.046 521.59C202.586 521.79 203.156 521.89 203.756 521.89C204.596 521.89 205.346 521.73 206.006 521.41C206.686 521.09 207.216 520.63 207.596 520.03C207.976 519.43 208.166 518.7 208.166 517.84L208.526 518.74C208.526 519.62 208.296 520.41 207.836 521.11C207.396 521.79 206.786 522.33 206.006 522.73C205.246 523.11 204.376 523.3 203.396 523.3C202.576 523.3 201.806 523.15 201.086 522.85C200.386 522.53 199.816 522.06 199.376 521.44C198.936 520.8 198.716 519.99 198.716 519.01C198.716 518.03 198.966 517.21 199.466 516.55C199.966 515.87 200.646 515.36 201.506 515.02C202.366 514.66 203.336 514.48 204.416 514.48C205.256 514.48 205.966 514.58 206.546 514.78C207.146 514.98 207.626 515.21 207.986 515.47C208.366 515.73 208.636 515.95 208.796 516.13V517.09C208.236 516.67 207.606 516.34 206.906 516.1C206.226 515.84 205.416 515.71 204.476 515.71C203.676 515.71 202.956 515.84 202.316 516.1C201.696 516.34 201.206 516.7 200.846 517.18C200.486 517.66 200.306 518.25 200.306 518.95ZM200.696 511.93L199.916 510.73C200.436 510.31 201.106 509.9 201.926 509.5C202.766 509.1 203.776 508.9 204.956 508.9C205.956 508.9 206.806 509.08 207.506 509.44C208.226 509.78 208.776 510.27 209.156 510.91C209.536 511.55 209.726 512.32 209.726 513.22V523H208.166V513.22C208.166 512.28 207.866 511.56 207.266 511.06C206.686 510.54 205.916 510.28 204.956 510.28C204.296 510.28 203.696 510.37 203.156 510.55C202.616 510.71 202.136 510.92 201.716 511.18C201.316 511.44 200.976 511.69 200.696 511.93ZM215.437 516.43V514.96H225.517V516.43H215.437ZM224.557 509.2H226.117V523H224.557V509.2ZM214.507 509.2H216.067V523H214.507V509.2ZM241.33 510.55L230.77 524.05L230.92 521.65L241.48 508.15L241.33 510.55ZM232.33 509.2V521.83L230.77 524.05V509.2H232.33ZM241.48 508.15V523H239.92V510.37L241.48 508.15ZM250.768 518.8V517.33H254.878V518.8H250.768ZM253.768 509.2H255.328V523H253.768V509.2ZM246.928 509.2V513.16C246.928 514.18 247.048 515 247.288 515.62C247.528 516.22 247.928 516.66 248.488 516.94C249.048 517.2 249.808 517.33 250.768 517.33V518.8C249.388 518.8 248.298 518.61 247.498 518.23C246.718 517.85 246.168 517.25 245.848 516.43C245.528 515.59 245.368 514.5 245.368 513.16V509.2H246.928ZM260.759 516.43V514.96H270.839V516.43H260.759ZM269.879 509.2H271.439V523H269.879V509.2ZM259.829 509.2H261.389V523H259.829V509.2ZM288.092 509.2H289.652V523H288.092V509.2ZM275.942 509.2H277.502V523H275.942V509.2ZM276.812 515.8V514.42H280.802C282.222 514.42 283.412 514.77 284.372 515.47C285.352 516.15 285.842 517.23 285.842 518.71C285.842 519.69 285.622 520.5 285.182 521.14C284.742 521.78 284.142 522.25 283.382 522.55C282.622 522.85 281.762 523 280.802 523H276.812V521.62H280.802C281.502 521.62 282.112 521.52 282.632 521.32C283.152 521.1 283.552 520.78 283.832 520.36C284.132 519.92 284.282 519.37 284.282 518.71C284.282 517.75 283.962 517.03 283.322 516.55C282.702 516.05 281.862 515.8 280.802 515.8H276.812ZM304.875 510.55L294.315 524.05L294.465 521.65L305.025 508.15L304.875 510.55ZM295.875 509.2V521.83L294.315 524.05V509.2H295.875ZM305.025 508.15V523H303.465V510.37L305.025 508.15ZM294.945 502.15H296.355C296.355 502.57 296.465 503.01 296.685 503.47C296.905 503.91 297.265 504.29 297.765 504.61C298.265 504.91 298.905 505.06 299.685 505.06C300.465 505.06 301.105 504.91 301.605 504.61C302.105 504.29 302.465 503.91 302.685 503.47C302.905 503.01 303.015 502.57 303.015 502.15H304.425C304.425 502.83 304.245 503.5 303.885 504.16C303.545 504.8 303.025 505.33 302.325 505.75C301.625 506.15 300.745 506.35 299.685 506.35C298.645 506.35 297.765 506.15 297.045 505.75C296.345 505.33 295.815 504.8 295.455 504.16C295.115 503.5 294.945 502.83 294.945 502.15Z" fill="#D9D9D9"/>
<path d="M106.847 435.12L107.807 428.08C109.353 428.027 110.9 427.76 112.447 427.28C114.047 426.747 115.407 426.053 116.527 425.2C117.647 424.293 118.287 423.173 118.447 421.84C118.5 421.147 118.367 420.56 118.047 420.08C117.727 419.547 117.247 419.147 116.607 418.88C116.02 418.613 115.273 418.453 114.367 418.4C113.193 418.4 112.127 418.667 111.167 419.2C110.26 419.68 109.487 420.347 108.847 421.2C108.26 422 107.833 422.907 107.567 423.92L91.7266 423.84C92.3666 420.16 93.7532 416.907 95.8866 414.08C98.0732 411.2 100.847 408.933 104.207 407.28C107.62 405.627 111.46 404.8 115.727 404.8C119.673 404.8 123.22 405.44 126.367 406.72C129.513 407.947 131.94 409.76 133.647 412.16C135.353 414.56 135.967 417.413 135.487 420.72C135.06 423.707 133.94 426.133 132.127 428C130.313 429.867 128.047 431.333 125.327 432.4C122.607 433.413 119.647 434.133 116.447 434.56C113.247 434.933 110.047 435.12 106.847 435.12ZM106.847 463.6C102.207 463.547 98.2866 462.56 95.0866 460.64C91.9399 458.667 89.5932 456.08 88.0466 452.88C86.5532 449.68 85.9666 446.187 86.2866 442.4H103.087C102.98 443.947 103.14 445.28 103.567 446.4C103.993 447.52 104.633 448.373 105.487 448.96C106.393 449.547 107.513 449.867 108.847 449.92C110.02 449.973 111.14 449.84 112.207 449.52C113.273 449.147 114.18 448.56 114.927 447.76C115.673 446.96 116.153 445.947 116.367 444.72C116.58 443.6 116.473 442.667 116.047 441.92C115.673 441.12 115.007 440.48 114.047 440C113.14 439.467 112.02 439.093 110.687 438.88C109.407 438.613 107.993 438.453 106.447 438.4L107.567 430.08C110.927 430.133 114.207 430.427 117.407 430.96C120.66 431.493 123.513 432.373 125.967 433.6C128.473 434.827 130.367 436.48 131.647 438.56C132.98 440.64 133.433 443.253 133.007 446.4C132.527 450.08 131.06 453.2 128.607 455.76C126.153 458.32 123.033 460.267 119.247 461.6C115.513 462.933 111.38 463.6 106.847 463.6ZM155.605 434C155.445 435.227 155.339 436.507 155.285 437.84C155.232 439.173 155.259 440.453 155.365 441.68C155.472 442.907 155.712 444.027 156.085 445.04C156.459 446 156.965 446.8 157.605 447.44C158.299 448.027 159.205 448.32 160.325 448.32C161.765 448.373 163.072 448 164.245 447.2C165.419 446.4 166.459 445.307 167.365 443.92C168.272 442.533 169.019 440.987 169.605 439.28C170.245 437.52 170.672 435.76 170.885 434C170.992 432.773 171.072 431.493 171.125 430.16C171.179 428.827 171.152 427.547 171.045 426.32C170.939 425.093 170.699 424 170.325 423.04C170.005 422.027 169.499 421.227 168.805 420.64C168.112 420 167.232 419.653 166.165 419.6C164.725 419.6 163.392 420 162.165 420.8C160.992 421.6 159.952 422.693 159.045 424.08C158.139 425.467 157.392 427.04 156.805 428.8C156.219 430.507 155.819 432.24 155.605 434ZM139.045 434C139.632 429.787 140.699 425.92 142.245 422.4C143.845 418.827 145.899 415.733 148.405 413.12C150.912 410.507 153.792 408.48 157.045 407.04C160.299 405.547 163.872 404.8 167.765 404.8C170.965 404.8 173.765 405.307 176.165 406.32C178.565 407.28 180.565 408.667 182.165 410.48C183.819 412.24 185.099 414.347 186.005 416.8C186.912 419.253 187.472 421.947 187.685 424.88C187.952 427.76 187.872 430.8 187.445 434C186.859 438.213 185.792 442.107 184.245 445.68C182.699 449.2 180.699 452.293 178.245 454.96C175.792 457.573 172.912 459.6 169.605 461.04C166.352 462.48 162.725 463.2 158.725 463.2C155.579 463.2 152.805 462.72 150.405 461.76C148.059 460.747 146.059 459.333 144.405 457.52C142.805 455.707 141.525 453.6 140.565 451.2C139.659 448.747 139.072 446.08 138.805 443.2C138.539 440.267 138.619 437.2 139.045 434ZM209.902 434C209.742 435.227 209.636 436.507 209.582 437.84C209.529 439.173 209.556 440.453 209.662 441.68C209.769 442.907 210.009 444.027 210.382 445.04C210.756 446 211.262 446.8 211.902 447.44C212.596 448.027 213.502 448.32 214.622 448.32C216.062 448.373 217.369 448 218.542 447.2C219.716 446.4 220.756 445.307 221.662 443.92C222.569 442.533 223.316 440.987 223.902 439.28C224.542 437.52 224.969 435.76 225.182 434C225.289 432.773 225.369 431.493 225.422 430.16C225.476 428.827 225.449 427.547 225.342 426.32C225.236 425.093 224.996 424 224.622 423.04C224.302 422.027 223.796 421.227 223.102 420.64C222.409 420 221.529 419.653 220.462 419.6C219.022 419.6 217.689 420 216.462 420.8C215.289 421.6 214.249 422.693 213.342 424.08C212.436 425.467 211.689 427.04 211.102 428.8C210.516 430.507 210.116 432.24 209.902 434ZM193.342 434C193.929 429.787 194.996 425.92 196.542 422.4C198.142 418.827 200.196 415.733 202.702 413.12C205.209 410.507 208.089 408.48 211.342 407.04C214.596 405.547 218.169 404.8 222.062 404.8C225.262 404.8 228.062 405.307 230.462 406.32C232.862 407.28 234.862 408.667 236.462 410.48C238.116 412.24 239.396 414.347 240.302 416.8C241.209 419.253 241.769 421.947 241.982 424.88C242.249 427.76 242.169 430.8 241.742 434C241.156 438.213 240.089 442.107 238.542 445.68C236.996 449.2 234.996 452.293 232.542 454.96C230.089 457.573 227.209 459.6 223.902 461.04C220.649 462.48 217.022 463.2 213.022 463.2C209.876 463.2 207.102 462.72 204.702 461.76C202.356 460.747 200.356 459.333 198.702 457.52C197.102 455.707 195.822 453.6 194.862 451.2C193.956 448.747 193.369 446.08 193.102 443.2C192.836 440.267 192.916 437.2 193.342 434ZM271.159 396.56H283.399L280.039 412.56H269.399L271.159 396.56ZM262.759 456.4H273.319L271.719 470.96H259.639L262.759 456.4ZM282.119 424C281.532 422.773 280.866 421.653 280.119 420.64C279.426 419.627 278.626 418.827 277.719 418.24C276.866 417.6 275.879 417.28 274.759 417.28C273.852 417.28 273.026 417.467 272.279 417.84C271.532 418.213 270.919 418.667 270.439 419.2C269.959 419.733 269.639 420.32 269.479 420.96C269.266 422.027 269.479 422.933 270.119 423.68C270.759 424.373 271.639 424.96 272.759 425.44C273.932 425.92 275.186 426.373 276.519 426.8C277.906 427.227 279.186 427.653 280.359 428.08C283.026 429.147 285.292 430.533 287.159 432.24C289.026 433.947 290.359 435.973 291.159 438.32C292.012 440.613 292.279 443.173 291.959 446C291.426 449.84 289.906 453.013 287.399 455.52C284.946 457.973 281.852 459.813 278.119 461.04C274.439 462.213 270.492 462.8 266.279 462.8C262.919 462.747 259.772 462.133 256.839 460.96C253.906 459.787 251.319 458.187 249.079 456.16C246.892 454.08 245.239 451.76 244.119 449.2L256.679 440.72C257.639 442.427 258.626 443.947 259.639 445.28C260.706 446.56 261.906 447.573 263.239 448.32C264.572 449.013 266.119 449.333 267.879 449.28C269.372 449.28 270.652 449.013 271.719 448.48C272.839 447.947 273.506 447.067 273.719 445.84C273.932 444.773 273.586 443.893 272.679 443.2C271.772 442.453 270.599 441.813 269.159 441.28C267.719 440.693 266.252 440.107 264.759 439.52C262.626 438.56 260.492 437.28 258.359 435.68C256.226 434.027 254.492 432 253.159 429.6C251.879 427.2 251.426 424.373 251.799 421.12C252.279 417.973 253.639 415.227 255.879 412.88C258.119 410.48 260.919 408.613 264.279 407.28C267.692 405.893 271.346 405.2 275.239 405.2C278.866 405.2 281.959 405.707 284.519 406.72C287.079 407.68 289.239 409.04 290.999 410.8C292.812 412.56 294.359 414.613 295.639 416.96L282.119 424Z" fill="#FF3100"/>
<path d="M78.6212 726.72L119.021 680H133.581L123.981 736H105.821L108.141 721.92L110.621 721.04L113.741 703.04L102.781 714.72H123.101L124.941 712H136.621L134.061 726.8L78.6212 726.72ZM160.551 708C160.391 709.227 160.284 710.507 160.231 711.84C160.177 713.173 160.204 714.453 160.311 715.68C160.417 716.907 160.657 718.027 161.031 719.04C161.404 720 161.911 720.8 162.551 721.44C163.244 722.027 164.151 722.32 165.271 722.32C166.711 722.373 168.017 722 169.191 721.2C170.364 720.4 171.404 719.307 172.311 717.92C173.217 716.533 173.964 714.987 174.551 713.28C175.191 711.52 175.617 709.76 175.831 708C175.937 706.773 176.017 705.493 176.071 704.16C176.124 702.827 176.097 701.547 175.991 700.32C175.884 699.093 175.644 698 175.271 697.04C174.951 696.027 174.444 695.227 173.751 694.64C173.057 694 172.177 693.653 171.111 693.6C169.671 693.6 168.337 694 167.111 694.8C165.937 695.6 164.897 696.693 163.991 698.08C163.084 699.467 162.337 701.04 161.751 702.8C161.164 704.507 160.764 706.24 160.551 708ZM143.991 708C144.577 703.787 145.644 699.92 147.191 696.4C148.791 692.827 150.844 689.733 153.351 687.12C155.857 684.507 158.737 682.48 161.991 681.04C165.244 679.547 168.817 678.8 172.711 678.8C175.911 678.8 178.711 679.307 181.111 680.32C183.511 681.28 185.511 682.667 187.111 684.48C188.764 686.24 190.044 688.347 190.951 690.8C191.857 693.253 192.417 695.947 192.631 698.88C192.897 701.76 192.817 704.8 192.391 708C191.804 712.213 190.737 716.107 189.191 719.68C187.644 723.2 185.644 726.293 183.191 728.96C180.737 731.573 177.857 733.6 174.551 735.04C171.297 736.48 167.671 737.2 163.671 737.2C160.524 737.2 157.751 736.72 155.351 735.76C153.004 734.747 151.004 733.333 149.351 731.52C147.751 729.707 146.471 727.6 145.511 725.2C144.604 722.747 144.017 720.08 143.751 717.2C143.484 714.267 143.564 711.2 143.991 708ZM214.848 708C214.688 709.227 214.581 710.507 214.528 711.84C214.474 713.173 214.501 714.453 214.608 715.68C214.714 716.907 214.954 718.027 215.328 719.04C215.701 720 216.208 720.8 216.848 721.44C217.541 722.027 218.448 722.32 219.568 722.32C221.008 722.373 222.314 722 223.488 721.2C224.661 720.4 225.701 719.307 226.608 717.92C227.514 716.533 228.261 714.987 228.848 713.28C229.488 711.52 229.914 709.76 230.128 708C230.234 706.773 230.314 705.493 230.368 704.16C230.421 702.827 230.394 701.547 230.288 700.32C230.181 699.093 229.941 698 229.568 697.04C229.248 696.027 228.741 695.227 228.048 694.64C227.354 694 226.474 693.653 225.408 693.6C223.968 693.6 222.634 694 221.408 694.8C220.234 695.6 219.194 696.693 218.288 698.08C217.381 699.467 216.634 701.04 216.048 702.8C215.461 704.507 215.061 706.24 214.848 708ZM198.288 708C198.874 703.787 199.941 699.92 201.488 696.4C203.088 692.827 205.141 689.733 207.648 687.12C210.154 684.507 213.034 682.48 216.288 681.04C219.541 679.547 223.114 678.8 227.008 678.8C230.208 678.8 233.008 679.307 235.408 680.32C237.808 681.28 239.808 682.667 241.408 684.48C243.061 686.24 244.341 688.347 245.248 690.8C246.154 693.253 246.714 695.947 246.928 698.88C247.194 701.76 247.114 704.8 246.688 708C246.101 712.213 245.034 716.107 243.488 719.68C241.941 723.2 239.941 726.293 237.488 728.96C235.034 731.573 232.154 733.6 228.848 735.04C225.594 736.48 221.968 737.2 217.968 737.2C214.821 737.2 212.048 736.72 209.648 735.76C207.301 734.747 205.301 733.333 203.648 731.52C202.048 729.707 200.768 727.6 199.808 725.2C198.901 722.747 198.314 720.08 198.048 717.2C197.781 714.267 197.861 711.2 198.288 708ZM276.104 670.56H288.344L284.984 686.56H274.344L276.104 670.56ZM267.704 730.4H278.264L276.664 744.96H264.584L267.704 730.4ZM287.064 698C286.478 696.773 285.811 695.653 285.064 694.64C284.371 693.627 283.571 692.827 282.664 692.24C281.811 691.6 280.824 691.28 279.704 691.28C278.798 691.28 277.971 691.467 277.224 691.84C276.478 692.213 275.864 692.667 275.384 693.2C274.904 693.733 274.584 694.32 274.424 694.96C274.211 696.027 274.424 696.933 275.064 697.68C275.704 698.373 276.584 698.96 277.704 699.44C278.878 699.92 280.131 700.373 281.464 700.8C282.851 701.227 284.131 701.653 285.304 702.08C287.971 703.147 290.238 704.533 292.104 706.24C293.971 707.947 295.304 709.973 296.104 712.32C296.958 714.613 297.224 717.173 296.904 720C296.371 723.84 294.851 727.013 292.344 729.52C289.891 731.973 286.798 733.813 283.064 735.04C279.384 736.213 275.438 736.8 271.224 736.8C267.864 736.747 264.718 736.133 261.784 734.96C258.851 733.787 256.264 732.187 254.024 730.16C251.838 728.08 250.184 725.76 249.064 723.2L261.624 714.72C262.584 716.427 263.571 717.947 264.584 719.28C265.651 720.56 266.851 721.573 268.184 722.32C269.518 723.013 271.064 723.333 272.824 723.28C274.318 723.28 275.598 723.013 276.664 722.48C277.784 721.947 278.451 721.067 278.664 719.84C278.878 718.773 278.531 717.893 277.624 717.2C276.718 716.453 275.544 715.813 274.104 715.28C272.664 714.693 271.198 714.107 269.704 713.52C267.571 712.56 265.438 711.28 263.304 709.68C261.171 708.027 259.438 706 258.104 703.6C256.824 701.2 256.371 698.373 256.744 695.12C257.224 691.973 258.584 689.227 260.824 686.88C263.064 684.48 265.864 682.613 269.224 681.28C272.638 679.893 276.291 679.2 280.184 679.2C283.811 679.2 286.904 679.707 289.464 680.72C292.024 681.68 294.184 683.04 295.944 684.8C297.758 686.56 299.304 688.613 300.584 690.96L287.064 698Z" fill="#FF3100"/>
<path d="M84.9741 141.36L87.6141 126.56L119.534 120.64L109.694 178H93.1341L99.9341 138.16L84.9741 141.36ZM140.918 150C140.758 151.227 140.651 152.507 140.598 153.84C140.544 155.173 140.571 156.453 140.678 157.68C140.784 158.907 141.024 160.027 141.398 161.04C141.771 162 142.278 162.8 142.918 163.44C143.611 164.027 144.518 164.32 145.638 164.32C147.078 164.373 148.384 164 149.558 163.2C150.731 162.4 151.771 161.307 152.678 159.92C153.584 158.533 154.331 156.987 154.918 155.28C155.558 153.52 155.984 151.76 156.198 150C156.304 148.773 156.384 147.493 156.438 146.16C156.491 144.827 156.464 143.547 156.358 142.32C156.251 141.093 156.011 140 155.638 139.04C155.318 138.027 154.811 137.227 154.118 136.64C153.424 136 152.544 135.653 151.478 135.6C150.038 135.6 148.704 136 147.478 136.8C146.304 137.6 145.264 138.693 144.358 140.08C143.451 141.467 142.704 143.04 142.118 144.8C141.531 146.507 141.131 148.24 140.918 150ZM124.358 150C124.944 145.787 126.011 141.92 127.558 138.4C129.158 134.827 131.211 131.733 133.718 129.12C136.224 126.507 139.104 124.48 142.358 123.04C145.611 121.547 149.184 120.8 153.078 120.8C156.278 120.8 159.078 121.307 161.478 122.32C163.878 123.28 165.878 124.667 167.478 126.48C169.131 128.24 170.411 130.347 171.318 132.8C172.224 135.253 172.784 137.947 172.998 140.88C173.264 143.76 173.184 146.8 172.758 150C172.171 154.213 171.104 158.107 169.558 161.68C168.011 165.2 166.011 168.293 163.558 170.96C161.104 173.573 158.224 175.6 154.918 177.04C151.664 178.48 148.038 179.2 144.038 179.2C140.891 179.2 138.118 178.72 135.718 177.76C133.371 176.747 131.371 175.333 129.718 173.52C128.118 171.707 126.838 169.6 125.878 167.2C124.971 164.747 124.384 162.08 124.118 159.2C123.851 156.267 123.931 153.2 124.358 150ZM195.215 150C195.055 151.227 194.948 152.507 194.895 153.84C194.841 155.173 194.868 156.453 194.975 157.68C195.081 158.907 195.321 160.027 195.695 161.04C196.068 162 196.575 162.8 197.215 163.44C197.908 164.027 198.815 164.32 199.935 164.32C201.375 164.373 202.681 164 203.855 163.2C205.028 162.4 206.068 161.307 206.975 159.92C207.881 158.533 208.628 156.987 209.215 155.28C209.855 153.52 210.281 151.76 210.495 150C210.601 148.773 210.681 147.493 210.735 146.16C210.788 144.827 210.761 143.547 210.655 142.32C210.548 141.093 210.308 140 209.935 139.04C209.615 138.027 209.108 137.227 208.415 136.64C207.721 136 206.841 135.653 205.775 135.6C204.335 135.6 203.001 136 201.775 136.8C200.601 137.6 199.561 138.693 198.655 140.08C197.748 141.467 197.001 143.04 196.415 144.8C195.828 146.507 195.428 148.24 195.215 150ZM178.655 150C179.241 145.787 180.308 141.92 181.855 138.4C183.455 134.827 185.508 131.733 188.015 129.12C190.521 126.507 193.401 124.48 196.655 123.04C199.908 121.547 203.481 120.8 207.375 120.8C210.575 120.8 213.375 121.307 215.775 122.32C218.175 123.28 220.175 124.667 221.775 126.48C223.428 128.24 224.708 130.347 225.615 132.8C226.521 135.253 227.081 137.947 227.295 140.88C227.561 143.76 227.481 146.8 227.055 150C226.468 154.213 225.401 158.107 223.855 161.68C222.308 165.2 220.308 168.293 217.855 170.96C215.401 173.573 212.521 175.6 209.215 177.04C205.961 178.48 202.335 179.2 198.335 179.2C195.188 179.2 192.415 178.72 190.015 177.76C187.668 176.747 185.668 175.333 184.015 173.52C182.415 171.707 181.135 169.6 180.175 167.2C179.268 164.747 178.681 162.08 178.415 159.2C178.148 156.267 178.228 153.2 178.655 150ZM256.472 112.56H268.712L265.352 128.56H254.712L256.472 112.56ZM248.072 172.4H258.632L257.032 186.96H244.952L248.072 172.4ZM267.432 140C266.845 138.773 266.178 137.653 265.432 136.64C264.738 135.627 263.938 134.827 263.032 134.24C262.178 133.6 261.192 133.28 260.072 133.28C259.165 133.28 258.338 133.467 257.592 133.84C256.845 134.213 256.232 134.667 255.752 135.2C255.272 135.733 254.952 136.32 254.792 136.96C254.578 138.027 254.792 138.933 255.432 139.68C256.072 140.373 256.952 140.96 258.072 141.44C259.245 141.92 260.498 142.373 261.832 142.8C263.218 143.227 264.498 143.653 265.672 144.08C268.338 145.147 270.605 146.533 272.472 148.24C274.338 149.947 275.672 151.973 276.472 154.32C277.325 156.613 277.592 159.173 277.272 162C276.738 165.84 275.218 169.013 272.712 171.52C270.258 173.973 267.165 175.813 263.432 177.04C259.752 178.213 255.805 178.8 251.592 178.8C248.232 178.747 245.085 178.133 242.152 176.96C239.218 175.787 236.632 174.187 234.392 172.16C232.205 170.08 230.552 167.76 229.432 165.2L241.992 156.72C242.952 158.427 243.938 159.947 244.952 161.28C246.018 162.56 247.218 163.573 248.552 164.32C249.885 165.013 251.432 165.333 253.192 165.28C254.685 165.28 255.965 165.013 257.032 164.48C258.152 163.947 258.818 163.067 259.032 161.84C259.245 160.773 258.898 159.893 257.992 159.2C257.085 158.453 255.912 157.813 254.472 157.28C253.032 156.693 251.565 156.107 250.072 155.52C247.938 154.56 245.805 153.28 243.672 151.68C241.538 150.027 239.805 148 238.472 145.6C237.192 143.2 236.738 140.373 237.112 137.12C237.592 133.973 238.952 131.227 241.192 128.88C243.432 126.48 246.232 124.613 249.592 123.28C253.005 121.893 256.658 121.2 260.552 121.2C264.178 121.2 267.272 121.707 269.832 122.72C272.392 123.68 274.552 125.04 276.312 126.8C278.125 128.56 279.672 130.613 280.952 132.96L267.432 140Z" fill="#FF3100"/>
<path d="M171.797 83.07C171.997 81.67 172.507 80.43 173.327 79.35C174.147 78.27 175.187 77.42 176.447 76.8C177.707 76.18 179.067 75.87 180.527 75.87C181.967 75.87 183.217 76.19 184.277 76.83C185.357 77.45 186.167 78.31 186.707 79.41C187.247 80.49 187.417 81.72 187.217 83.1C187.017 84.5 186.507 85.75 185.687 86.85C184.867 87.93 183.827 88.78 182.567 89.4C181.327 90 179.977 90.3 178.517 90.3C177.077 90.3 175.817 89.99 174.737 89.37C173.657 88.73 172.847 87.87 172.307 86.79C171.787 85.71 171.617 84.47 171.797 83.07ZM176.417 83.13C176.317 83.71 176.337 84.26 176.477 84.78C176.637 85.3 176.907 85.72 177.287 86.04C177.667 86.36 178.157 86.52 178.757 86.52C179.377 86.54 179.957 86.4 180.497 86.1C181.037 85.78 181.497 85.36 181.877 84.84C182.257 84.3 182.507 83.71 182.627 83.07C182.707 82.49 182.667 81.94 182.507 81.42C182.367 80.9 182.107 80.48 181.727 80.16C181.367 79.82 180.887 79.64 180.287 79.62C179.667 79.62 179.077 79.78 178.517 80.1C177.977 80.4 177.517 80.82 177.137 81.36C176.757 81.9 176.517 82.49 176.417 83.13ZM189.355 76.2H198.895L198.265 79.95H188.725L189.355 76.2ZM191.845 76.8H196.225L193.915 90H189.595L191.845 76.8Z" fill="#FF3100"/>
<path d="M179.797 375.07C179.997 373.67 180.507 372.43 181.327 371.35C182.147 370.27 183.187 369.42 184.447 368.8C185.707 368.18 187.067 367.87 188.527 367.87C189.967 367.87 191.217 368.19 192.277 368.83C193.357 369.45 194.167 370.31 194.707 371.41C195.247 372.49 195.417 373.72 195.217 375.1C195.017 376.5 194.507 377.75 193.687 378.85C192.867 379.93 191.827 380.78 190.567 381.4C189.327 382 187.977 382.3 186.517 382.3C185.077 382.3 183.817 381.99 182.737 381.37C181.657 380.73 180.847 379.87 180.307 378.79C179.787 377.71 179.617 376.47 179.797 375.07ZM184.417 375.13C184.317 375.71 184.337 376.26 184.477 376.78C184.637 377.3 184.907 377.72 185.287 378.04C185.667 378.36 186.157 378.52 186.757 378.52C187.377 378.54 187.957 378.4 188.497 378.1C189.037 377.78 189.497 377.36 189.877 376.84C190.257 376.3 190.507 375.71 190.627 375.07C190.707 374.49 190.667 373.94 190.507 373.42C190.367 372.9 190.107 372.48 189.727 372.16C189.367 371.82 188.887 371.64 188.287 371.62C187.667 371.62 187.077 371.78 186.517 372.1C185.977 372.4 185.517 372.82 185.137 373.36C184.757 373.9 184.517 374.49 184.417 375.13ZM197.355 368.2H206.895L206.265 371.95H196.725L197.355 368.2ZM199.845 368.8H204.225L201.915 382H197.595L199.845 368.8Z" fill="#FF3100"/>
<path d="M181.797 649.07C181.997 647.67 182.507 646.43 183.327 645.35C184.147 644.27 185.187 643.42 186.447 642.8C187.707 642.18 189.067 641.87 190.527 641.87C191.967 641.87 193.217 642.19 194.277 642.83C195.357 643.45 196.167 644.31 196.707 645.41C197.247 646.49 197.417 647.72 197.217 649.1C197.017 650.5 196.507 651.75 195.687 652.85C194.867 653.93 193.827 654.78 192.567 655.4C191.327 656 189.977 656.3 188.517 656.3C187.077 656.3 185.817 655.99 184.737 655.37C183.657 654.73 182.847 653.87 182.307 652.79C181.787 651.71 181.617 650.47 181.797 649.07ZM186.417 649.13C186.317 649.71 186.337 650.26 186.477 650.78C186.637 651.3 186.907 651.72 187.287 652.04C187.667 652.36 188.157 652.52 188.757 652.52C189.377 652.54 189.957 652.4 190.497 652.1C191.037 651.78 191.497 651.36 191.877 650.84C192.257 650.3 192.507 649.71 192.627 649.07C192.707 648.49 192.667 647.94 192.507 647.42C192.367 646.9 192.107 646.48 191.727 646.16C191.367 645.82 190.887 645.64 190.287 645.62C189.667 645.62 189.077 645.78 188.517 646.1C187.977 646.4 187.517 646.82 187.137 647.36C186.757 647.9 186.517 648.49 186.417 649.13ZM199.355 642.2H208.895L208.265 645.95H198.725L199.355 642.2ZM201.845 642.8H206.225L203.915 656H199.595L201.845 642.8Z" fill="#FF3100"/>
<path d="M74.309 221.5C74.309 223.24 74.679 224.8 75.419 226.18C76.179 227.56 77.209 228.65 78.509 229.45C79.829 230.23 81.329 230.62 83.009 230.62C84.689 230.62 86.179 230.23 87.479 229.45C88.799 228.65 89.829 227.56 90.569 226.18C91.309 224.8 91.679 223.24 91.679 221.5C91.679 219.74 91.309 218.18 90.569 216.82C89.829 215.44 88.799 214.36 87.479 213.58C86.179 212.78 84.689 212.38 83.009 212.38C81.329 212.38 79.829 212.78 78.509 213.58C77.209 214.36 76.179 215.44 75.419 216.82C74.679 218.18 74.309 219.74 74.309 221.5ZM72.569 221.5C72.569 219.96 72.829 218.54 73.349 217.24C73.869 215.92 74.599 214.78 75.539 213.82C76.479 212.84 77.579 212.08 78.839 211.54C80.119 211 81.509 210.73 83.009 210.73C84.509 210.73 85.889 211 87.149 211.54C88.429 212.08 89.539 212.84 90.479 213.82C91.419 214.78 92.149 215.92 92.669 217.24C93.189 218.54 93.449 219.96 93.449 221.5C93.449 223.04 93.189 224.47 92.669 225.79C92.149 227.09 91.419 228.23 90.479 229.21C89.539 230.17 88.429 230.92 87.149 231.46C85.889 232 84.509 232.27 83.009 232.27C81.509 232.27 80.119 232 78.839 231.46C77.579 230.92 76.479 230.17 75.539 229.21C74.599 228.23 73.869 227.09 73.349 225.79C72.829 224.47 72.569 223.04 72.569 221.5ZM103.792 220.57L98.782 231.34H97.042L103.792 217.15L110.542 231.34H108.802L103.792 220.57ZM110.782 232H96.892V234.7H95.242V230.53H112.342V234.7H110.782V232ZM116.88 225.43V223.96H126.96V225.43H116.88ZM126 218.2H127.56V232H126V218.2ZM115.95 218.2H117.51V232H115.95V218.2ZM130.983 225.1C130.983 223.7 131.293 222.46 131.913 221.38C132.533 220.3 133.373 219.45 134.433 218.83C135.513 218.21 136.723 217.9 138.063 217.9C139.403 217.9 140.603 218.21 141.663 218.83C142.743 219.45 143.593 220.3 144.213 221.38C144.833 222.46 145.143 223.7 145.143 225.1C145.143 226.48 144.833 227.72 144.213 228.82C143.593 229.9 142.743 230.75 141.663 231.37C140.603 231.99 139.403 232.3 138.063 232.3C136.723 232.3 135.513 231.99 134.433 231.37C133.373 230.75 132.533 229.9 131.913 228.82C131.293 227.72 130.983 226.48 130.983 225.1ZM132.573 225.1C132.573 226.22 132.813 227.21 133.293 228.07C133.773 228.93 134.423 229.61 135.243 230.11C136.083 230.59 137.023 230.83 138.063 230.83C139.103 230.83 140.033 230.59 140.853 230.11C141.693 229.61 142.353 228.93 142.833 228.07C143.313 227.21 143.553 226.22 143.553 225.1C143.553 224 143.313 223.02 142.833 222.16C142.353 221.28 141.693 220.6 140.853 220.12C140.033 219.62 139.103 219.37 138.063 219.37C137.023 219.37 136.083 219.62 135.243 220.12C134.423 220.6 133.773 221.27 133.293 222.13C132.813 222.99 132.573 223.98 132.573 225.1ZM148.8 225.1C148.8 226.22 149.04 227.21 149.52 228.07C150 228.93 150.65 229.61 151.47 230.11C152.31 230.59 153.25 230.83 154.29 230.83C155.03 230.83 155.72 230.72 156.36 230.5C157 230.28 157.55 230 158.01 229.66C158.49 229.3 158.83 228.94 159.03 228.58V230.53C158.61 231.03 157.96 231.45 157.08 231.79C156.22 232.13 155.29 232.3 154.29 232.3C152.95 232.3 151.75 231.99 150.69 231.37C149.63 230.75 148.78 229.9 148.14 228.82C147.52 227.72 147.21 226.48 147.21 225.1C147.21 223.7 147.52 222.46 148.14 221.38C148.78 220.3 149.63 219.45 150.69 218.83C151.75 218.21 152.95 217.9 154.29 217.9C155.29 217.9 156.22 218.08 157.08 218.44C157.96 218.78 158.61 219.19 159.03 219.67V221.62C158.83 221.24 158.49 220.88 158.01 220.54C157.55 220.2 157 219.92 156.36 219.7C155.72 219.48 155.03 219.37 154.29 219.37C153.25 219.37 152.31 219.62 151.47 220.12C150.65 220.6 150 221.27 149.52 222.13C149.04 222.99 148.8 223.98 148.8 225.1ZM160.667 218.2H168.767V219.67H160.667V218.2ZM163.937 218.62H165.497V232H163.937V218.62ZM172.705 238.6H171.145V218.2H172.705V238.6ZM184.495 225.1C184.495 226.58 184.195 227.86 183.595 228.94C183.015 230.02 182.215 230.85 181.195 231.43C180.195 232.01 179.075 232.3 177.835 232.3C176.675 232.3 175.655 231.99 174.775 231.37C173.895 230.73 173.205 229.87 172.705 228.79C172.225 227.69 171.985 226.46 171.985 225.1C171.985 223.72 172.225 222.49 172.705 221.41C173.205 220.33 173.895 219.48 174.775 218.86C175.655 218.22 176.675 217.9 177.835 217.9C179.075 217.9 180.195 218.19 181.195 218.77C182.215 219.35 183.015 220.18 183.595 221.26C184.195 222.32 184.495 223.6 184.495 225.1ZM182.935 225.1C182.935 223.9 182.695 222.87 182.215 222.01C181.735 221.15 181.095 220.5 180.295 220.06C179.495 219.6 178.605 219.37 177.625 219.37C176.785 219.37 175.985 219.62 175.225 220.12C174.465 220.62 173.855 221.3 173.395 222.16C172.935 223.02 172.705 224 172.705 225.1C172.705 226.2 172.935 227.18 173.395 228.04C173.855 228.9 174.465 229.58 175.225 230.08C175.985 230.58 176.785 230.83 177.625 230.83C178.605 230.83 179.495 230.61 180.295 230.17C181.095 229.71 181.735 229.05 182.215 228.19C182.695 227.33 182.935 226.3 182.935 225.1ZM188.644 227.95C188.644 228.63 188.804 229.19 189.124 229.63C189.444 230.05 189.864 230.37 190.384 230.59C190.924 230.79 191.494 230.89 192.094 230.89C192.934 230.89 193.684 230.73 194.344 230.41C195.024 230.09 195.554 229.63 195.934 229.03C196.314 228.43 196.504 227.7 196.504 226.84L196.864 227.74C196.864 228.62 196.634 229.41 196.174 230.11C195.734 230.79 195.124 231.33 194.344 231.73C193.584 232.11 192.714 232.3 191.734 232.3C190.914 232.3 190.144 232.15 189.424 231.85C188.724 231.53 188.154 231.06 187.714 230.44C187.274 229.8 187.054 228.99 187.054 228.01C187.054 227.03 187.304 226.21 187.804 225.55C188.304 224.87 188.984 224.36 189.844 224.02C190.704 223.66 191.674 223.48 192.754 223.48C193.594 223.48 194.304 223.58 194.884 223.78C195.484 223.98 195.964 224.21 196.324 224.47C196.704 224.73 196.974 224.95 197.134 225.13V226.09C196.574 225.67 195.944 225.34 195.244 225.1C194.564 224.84 193.754 224.71 192.814 224.71C192.014 224.71 191.294 224.84 190.654 225.1C190.034 225.34 189.544 225.7 189.184 226.18C188.824 226.66 188.644 227.25 188.644 227.95ZM189.034 220.93L188.254 219.73C188.774 219.31 189.444 218.9 190.264 218.5C191.104 218.1 192.114 217.9 193.294 217.9C194.294 217.9 195.144 218.08 195.844 218.44C196.564 218.78 197.114 219.27 197.494 219.91C197.874 220.55 198.064 221.32 198.064 222.22V232H196.504V222.22C196.504 221.28 196.204 220.56 195.604 220.06C195.024 219.54 194.254 219.28 193.294 219.28C192.634 219.28 192.034 219.37 191.494 219.55C190.954 219.71 190.474 219.92 190.054 220.18C189.654 220.44 189.314 220.69 189.034 220.93ZM203.775 225.43V223.96H213.855V225.43H203.775ZM212.895 218.2H214.455V232H212.895V218.2ZM202.845 218.2H204.405V232H202.845V218.2ZM229.668 219.55L219.108 233.05L219.258 230.65L229.818 217.15L229.668 219.55ZM220.668 218.2V230.83L219.108 233.05V218.2H220.668ZM229.818 217.15V232H228.258V219.37L229.818 217.15ZM239.106 227.8V226.33H243.216V227.8H239.106ZM242.106 218.2H243.666V232H242.106V218.2ZM235.266 218.2V222.16C235.266 223.18 235.386 224 235.626 224.62C235.866 225.22 236.266 225.66 236.826 225.94C237.386 226.2 238.146 226.33 239.106 226.33V227.8C237.726 227.8 236.636 227.61 235.836 227.23C235.056 226.85 234.506 226.25 234.186 225.43C233.866 224.59 233.706 223.5 233.706 222.16V218.2H235.266ZM249.097 225.43V223.96H259.177V225.43H249.097ZM258.217 218.2H259.777V232H258.217V218.2ZM248.167 218.2H249.727V232H248.167V218.2ZM276.43 218.2H277.99V232H276.43V218.2ZM264.28 218.2H265.84V232H264.28V218.2ZM265.15 224.8V223.42H269.14C270.56 223.42 271.75 223.77 272.71 224.47C273.69 225.15 274.18 226.23 274.18 227.71C274.18 228.69 273.96 229.5 273.52 230.14C273.08 230.78 272.48 231.25 271.72 231.55C270.96 231.85 270.1 232 269.14 232H265.15V230.62H269.14C269.84 230.62 270.45 230.52 270.97 230.32C271.49 230.1 271.89 229.78 272.17 229.36C272.47 228.92 272.62 228.37 272.62 227.71C272.62 226.75 272.3 226.03 271.66 225.55C271.04 225.05 270.2 224.8 269.14 224.8H265.15ZM293.213 219.55L282.653 233.05L282.803 230.65L293.363 217.15L293.213 219.55ZM284.213 218.2V230.83L282.653 233.05V218.2H284.213ZM293.363 217.15V232H291.803V219.37L293.363 217.15ZM283.283 211.15H284.693C284.693 211.57 284.803 212.01 285.023 212.47C285.243 212.91 285.603 213.29 286.103 213.61C286.603 213.91 287.243 214.06 288.023 214.06C288.803 214.06 289.443 213.91 289.943 213.61C290.443 213.29 290.803 212.91 291.023 212.47C291.243 212.01 291.353 211.57 291.353 211.15H292.763C292.763 211.83 292.583 212.5 292.223 213.16C291.883 213.8 291.363 214.33 290.663 214.75C289.963 215.15 289.083 215.35 288.023 215.35C286.983 215.35 286.103 215.15 285.383 214.75C284.683 214.33 284.153 213.8 283.793 213.16C283.453 212.5 283.283 211.83 283.283 211.15Z" fill="#D9D9D9"/>
<circle cx="184.5" cy="159.5" r="159" stroke="#CE664D" stroke-dasharray="10 10"/>
<circle cx="186.5" cy="433.5" r="159" stroke="#CE664D" stroke-dasharray="10 10"/>
<circle cx="188.5" cy="707.5" r="159" stroke="#CE664D" stroke-dasharray="10 10"/>
</svg>
