<svg width="239" height="80" viewBox="0 0 239 80" fill="none" xmlns="http://www.w3.org/2000/svg">
<path d="M24.1 38.3V30.1C25.9667 30.1 27.6667 29.8667 29.2 29.4C30.7333 28.9333 32.0667 28.3 33.2 27.5C34.3333 26.7 35.2 25.8 35.8 24.8C36.4 23.7333 36.7 22.6333 36.7 21.5C36.7 20.3667 36.4333 19.3667 35.9 18.5C35.3667 17.6333 34.5667 16.9667 33.5 16.5C32.5 16.0333 31.2 15.8 29.6 15.8C27.1333 15.8 25.1 16.5 23.5 17.9C21.9667 19.3 21.2 21.1333 21.2 23.4H3.4C3.4 19.1333 4.46667 15.3 6.6 11.9C8.8 8.43333 11.8667 5.7 15.8 3.7C19.7333 1.63333 24.3333 0.599995 29.6 0.599995C35.2 0.599995 39.9333 1.46666 43.8 3.2C47.7333 4.93333 50.7 7.29999 52.7 10.3C54.7667 13.2333 55.8 16.5333 55.8 20.2C55.8 24.4667 54.3667 27.9333 51.5 30.6C48.7 33.2667 44.9 35.2333 40.1 36.5C35.3 37.7 29.9667 38.3 24.1 38.3ZM28.7 73.8C24.2333 73.8 20.2333 73.1333 16.7 71.8C13.2333 70.4 10.2667 68.5 7.8 66.1C5.4 63.7 3.56667 61 2.3 58C1.03333 55 0.4 51.9 0.4 48.7H19.5C19.5 50.9667 19.9667 52.8333 20.9 54.3C21.8333 55.7667 23.0667 56.8333 24.6 57.5C26.2 58.1667 27.8333 58.5 29.5 58.5C31.3 58.5 32.8667 58.2667 34.2 57.8C35.6 57.3333 36.7 56.5333 37.5 55.4C38.3 54.2 38.7 52.7 38.7 50.9C38.7 49.7 38.4333 48.5667 37.9 47.5C37.3667 46.3667 36.5 45.4 35.3 44.6C34.1667 43.7333 32.6667 43.0667 30.8 42.6C29 42.1333 26.7667 41.9 24.1 41.9V32.5C29.1 32.5 33.6333 32.8667 37.7 33.6C41.8333 34.3333 45.4 35.5333 48.4 37.2C51.4 38.8667 53.7 40.9667 55.3 43.5C56.9667 46.0333 57.8 49.1 57.8 52.7C57.8 56.7667 56.6667 60.4 54.4 63.6C52.1333 66.8 48.8333 69.3 44.5 71.1C40.1667 72.9 34.9 73.8 28.7 73.8ZM82.8578 37C82.8578 40.0667 83.1245 42.8333 83.6578 45.3C84.2578 47.7667 85.0578 49.8667 86.0578 51.6C87.0578 53.3333 88.2578 54.6667 89.6578 55.6C91.0578 56.4667 92.5911 56.9 94.2578 56.9C95.9911 56.9 97.5245 56.4667 98.8578 55.6C100.258 54.6667 101.458 53.3333 102.458 51.6C103.524 49.8667 104.324 47.7667 104.858 45.3C105.458 42.8333 105.758 40.0667 105.758 37C105.758 33.9333 105.458 31.1667 104.858 28.7C104.324 26.2333 103.524 24.1333 102.458 22.4C101.458 20.6667 100.258 19.3667 98.8578 18.5C97.5245 17.5667 95.9911 17.1 94.2578 17.1C92.5911 17.1 91.0578 17.5667 89.6578 18.5C88.2578 19.3667 87.0578 20.6667 86.0578 22.4C85.0578 24.1333 84.2578 26.2333 83.6578 28.7C83.1245 31.1667 82.8578 33.9333 82.8578 37ZM64.2578 37C64.2578 29.2 65.5245 22.6 68.0578 17.2C70.5911 11.8 74.0911 7.7 78.5578 4.9C83.0911 2.03333 88.3245 0.599995 94.2578 0.599995C100.524 0.599995 105.891 2.03333 110.358 4.9C114.824 7.7 118.258 11.8 120.658 17.2C123.124 22.6 124.358 29.2 124.358 37C124.358 44.8 123.124 51.4 120.658 56.8C118.258 62.2 114.824 66.3333 110.358 69.2C105.891 72 100.524 73.4 94.2578 73.4C88.3245 73.4 83.0911 72 78.5578 69.2C74.0911 66.3333 70.5911 62.2 68.0578 56.8C65.5245 51.4 64.2578 44.8 64.2578 37ZM150.924 37C150.924 40.0667 151.191 42.8333 151.724 45.3C152.324 47.7667 153.124 49.8667 154.124 51.6C155.124 53.3333 156.324 54.6667 157.724 55.6C159.124 56.4667 160.658 56.9 162.324 56.9C164.058 56.9 165.591 56.4667 166.924 55.6C168.324 54.6667 169.524 53.3333 170.524 51.6C171.591 49.8667 172.391 47.7667 172.924 45.3C173.524 42.8333 173.824 40.0667 173.824 37C173.824 33.9333 173.524 31.1667 172.924 28.7C172.391 26.2333 171.591 24.1333 170.524 22.4C169.524 20.6667 168.324 19.3667 166.924 18.5C165.591 17.5667 164.058 17.1 162.324 17.1C160.658 17.1 159.124 17.5667 157.724 18.5C156.324 19.3667 155.124 20.6667 154.124 22.4C153.124 24.1333 152.324 26.2333 151.724 28.7C151.191 31.1667 150.924 33.9333 150.924 37ZM132.324 37C132.324 29.2 133.591 22.6 136.124 17.2C138.658 11.8 142.158 7.7 146.624 4.9C151.158 2.03333 156.391 0.599995 162.324 0.599995C168.591 0.599995 173.958 2.03333 178.424 4.9C182.891 7.7 186.324 11.8 188.724 17.2C191.191 22.6 192.424 29.2 192.424 37C192.424 44.8 191.191 51.4 188.724 56.8C186.324 62.2 182.891 66.3333 178.424 69.2C173.958 72 168.591 73.4 162.324 73.4C156.391 73.4 151.158 72 146.624 69.2C142.158 66.3333 138.658 62.2 136.124 56.8C133.591 51.4 132.324 44.8 132.324 37ZM214.801 14.74H224.531L223.971 28.04H215.361L214.801 14.74ZM215.361 67.38H223.901L224.461 79.84H214.801L215.361 67.38ZM227.961 38.26C227.261 36.9067 226.491 35.7633 225.651 34.83C224.811 33.85 223.901 33.1267 222.921 32.66C221.987 32.1933 220.984 31.96 219.911 31.96C218.791 31.96 217.881 32.1467 217.181 32.52C216.481 32.8467 215.967 33.29 215.641 33.85C215.314 34.41 215.151 35.04 215.151 35.74C215.151 37 215.664 38.0033 216.691 38.75C217.717 39.4967 219.071 40.15 220.751 40.71C222.477 41.27 224.321 41.9233 226.281 42.67C228.101 43.3233 229.757 44.1167 231.251 45.05C232.744 45.9367 234.051 47.01 235.171 48.27C236.337 49.4833 237.224 50.9067 237.831 52.54C238.484 54.1733 238.811 56.04 238.811 58.14C238.811 61.2667 237.971 63.9267 236.291 66.12C234.657 68.2667 232.347 69.9 229.361 71.02C226.374 72.14 222.874 72.7 218.861 72.7C215.827 72.7 212.934 72.14 210.181 71.02C207.427 69.8533 205.001 68.36 202.901 66.54C200.847 64.72 199.307 62.7367 198.281 60.59L207.591 53.94C208.757 55.8067 209.924 57.3467 211.091 58.56C212.257 59.7733 213.494 60.6833 214.801 61.29C216.107 61.85 217.577 62.13 219.211 62.13C220.424 62.13 221.404 61.99 222.151 61.71C222.944 61.3833 223.527 60.94 223.901 60.38C224.274 59.7733 224.461 59.0267 224.461 58.14C224.461 57.0667 224.041 56.2033 223.201 55.55C222.407 54.85 221.287 54.1967 219.841 53.59C218.394 52.9833 216.691 52.3067 214.731 51.56C213.517 51.0933 212.141 50.4633 210.601 49.67C209.061 48.8767 207.567 47.8733 206.121 46.66C204.721 45.4467 203.554 43.9533 202.621 42.18C201.687 40.4067 201.221 38.3067 201.221 35.88C201.221 33.4533 201.991 31.2133 203.531 29.16C205.071 27.1067 207.194 25.45 209.901 24.19C212.654 22.93 215.827 22.3 219.421 22.3C223.061 22.3 226.047 22.79 228.381 23.77C230.714 24.7033 232.651 25.9633 234.191 27.55C235.731 29.09 237.037 30.77 238.111 32.59L227.961 38.26Z" fill="url(#paint0_linear_652_3)" fill-opacity="0.3"/>
<defs>
<linearGradient id="paint0_linear_652_3" x1="113.095" y1="18" x2="113.095" y2="84.5" gradientUnits="userSpaceOnUse">
<stop stop-color="white" stop-opacity="0.5"/>
<stop offset="0.759615" stop-color="#3B3B3B" stop-opacity="0.3"/>
</linearGradient>
</defs>
</svg>
