<svg width="610" height="364" viewBox="0 0 610 364" fill="none" xmlns="http://www.w3.org/2000/svg">
<path d="M578 68.5H590.5L589 118H547.5L578 68.5Z" fill="white"/>
<path d="M85 68H119L88 119H54.5L85 68Z" fill="white"/>
<path d="M137.5 68H171.5L140.5 119H107L137.5 68Z" fill="white"/>
<path d="M188.5 68H222.5L191.5 119H158L188.5 68Z" fill="white"/>
<path d="M242.5 68H276.5L245.5 119H212L242.5 68Z" fill="white"/>
<path d="M67 68H23.5V118.5H37L67 68Z" fill="white"/>
<path d="M2 244V335C2.83333 343.167 6.5 358.5 26.5 362H161.5" stroke="white" stroke-width="4"/>
<path d="M22.5 320.5V43.5C22.5 32.7 29 26.5 35.5 26.5H577.5C588 28 590.333 37.8333 590.5 41.5V268.5H260C252.5 268.5 247 272 243 277.5L206.5 335.5C204.1 339.9 197.5 341.5 194 341.5H35C25.8 341.5 22.8333 332.5 22.5 328V320.5Z" stroke="white" stroke-width="3"/>
<g filter="url(#filter0_d_737_3)">
<path d="M216.5 320.5H574C583 319 589 314 590.5 306V268" stroke="white" stroke-width="3"/>
</g>
<path d="M246.5 335.5H375" stroke="white"/>
<rect x="398" y="328" width="3" height="13" fill="white"/>
<rect x="159" width="4" height="13" fill="white"/>
<rect x="413" y="328" width="3" height="13" fill="white"/>
<rect x="174" width="3" height="13" fill="white"/>
<rect x="417" y="328" width="3" height="13" fill="white"/>
<rect x="178" width="3" height="13" fill="white"/>
<rect x="421" y="328" width="2" height="13" fill="white"/>
<rect x="182" width="2" height="13" fill="white"/>
<rect x="424" y="328" width="4" height="13" fill="white"/>
<rect x="185" width="4" height="13" fill="white"/>
<rect x="429" y="328" width="3" height="13" fill="white"/>
<rect x="190" width="3" height="13" fill="white"/>
<rect x="434" y="328" width="2" height="13" fill="white"/>
<rect x="195" width="2" height="13" fill="white"/>
<rect x="437" y="328" width="2" height="13" fill="white"/>
<rect x="198" width="2" height="13" fill="white"/>
<rect x="440" y="328" width="4" height="13" fill="white"/>
<rect x="201" width="4" height="13" fill="white"/>
<rect x="446" y="328" width="2" height="13" fill="white"/>
<rect x="207" width="2" height="13" fill="white"/>
<rect x="450" y="328" width="2" height="13" fill="white"/>
<rect x="211" width="2" height="13" fill="white"/>
<rect x="464" y="328" width="2" height="13" fill="white"/>
<rect x="225" width="2" height="13" fill="white"/>
<rect x="468" y="328" width="2" height="13" fill="white"/>
<rect x="229" width="2" height="13" fill="white"/>
<rect x="472" y="328" width="1" height="13" fill="white"/>
<rect x="233" width="1" height="13" fill="white"/>
<rect x="475" y="328" width="3" height="13" fill="white"/>
<rect x="236" width="3" height="13" fill="white"/>
<rect x="481" y="328" width="1" height="13" fill="white"/>
<rect x="242" width="1" height="13" fill="white"/>
<rect x="484" y="328" width="2" height="13" fill="white"/>
<rect x="245" width="2" height="13" fill="white"/>
<rect x="488" y="328" width="1" height="13" fill="white"/>
<rect x="249" width="1" height="13" fill="white"/>
<rect x="491" y="328" width="3" height="13" fill="white"/>
<rect x="252" width="3" height="13" fill="white"/>
<rect x="497" y="328" width="2" height="13" fill="white"/>
<rect x="258" width="2" height="13" fill="white"/>
<rect x="501" y="328" width="1" height="13" fill="white"/>
<rect x="262" width="1" height="13" fill="white"/>
<rect x="454" y="328" width="8" height="13" fill="white"/>
<rect x="215" width="8" height="13" fill="white"/>
<rect x="403" y="328" width="8" height="13" fill="white"/>
<rect x="164" width="9" height="13" fill="white"/>
<path d="M285.5 9.5H587.032C596.018 10.4864 607.5 17.3916 607.5 31.6951V191.5" stroke="white" stroke-width="4"/>
<rect x="51" y="271" width="2" height="49" fill="white"/>
<rect x="57" y="271" width="1" height="49" fill="white"/>
<rect x="61" y="271" width="4" height="49" fill="white"/>
<rect x="69" y="271" width="1" height="49" fill="white"/>
<rect x="73" y="271" width="2" height="49" fill="white"/>
<rect x="78" y="271" width="1" height="49" fill="white"/>
<rect x="82" y="271" width="5" height="49" fill="white"/>
<rect x="90" y="271" width="1" height="49" fill="white"/>
<rect x="94" y="271" width="2" height="49" fill="white"/>
<rect x="99" y="271" width="2" height="49" fill="white"/>
<rect x="105" y="271" width="9" height="49" fill="white"/>
<rect x="116" y="271" width="3" height="49" fill="white"/>
<rect x="122" y="271" width="2" height="49" fill="white"/>
<rect x="127" y="271" width="4" height="49" fill="white"/>
<rect x="134" y="271" width="1" height="49" fill="white"/>
<rect x="138" y="271" width="2" height="49" fill="white"/>
<rect x="143" y="271" width="2" height="49" fill="white"/>
<rect x="147" y="271" width="5" height="49" fill="white"/>
<rect x="154" y="271" width="3" height="49" fill="white"/>
<rect x="159" y="271" width="2" height="49" fill="white"/>
<rect x="164" y="271" width="3" height="49" fill="white"/>
<rect x="170" y="271" width="9" height="49" fill="white"/>
<rect x="182" y="271" width="4" height="49" fill="white"/>
<path d="M431.473 76.56C427.619 75.7891 427.726 72.3842 428.261 70.7781H461.989C467.128 70.7781 470.662 73.669 471.626 75.2751C475.737 80.1576 474.624 86.946 473.553 89.7299C471.24 94.8694 464.666 96.5826 461.668 96.7967L478.371 117.033H470.019L458.134 103.221L447.855 90.6936H460.383C465.844 90.6936 468.092 87.8026 468.413 86.1965C470.019 80.0934 465.522 76.8812 463.274 76.56H431.473Z" fill="#FF0000"/>
<path d="M428.261 115.106V96.7967C432.63 95.7688 434.15 97.8674 434.364 99.0452V117.676C430.253 118.19 428.582 116.177 428.261 115.106Z" fill="#FF0000"/>
<path d="M493.79 88.7663C496.616 96.4755 505.889 97.3321 510.172 96.7967V91.0148C506.745 91.2289 499.828 90.2439 499.571 84.5904C499.315 78.937 503.105 77.0954 505.032 76.8812H535.548C538.889 74.3115 538.225 71.5276 537.475 70.4568H503.105C491.862 74.3115 491.648 84.9117 493.79 88.7663Z" fill="#FF0000"/>
<path d="M525.59 97.1179C522.506 96.604 522.164 92.835 522.378 91.0148L529.445 91.336C531.244 91.85 533.406 93.2633 534.263 93.9058C540.43 98.2743 539.617 106.433 538.439 109.967C535.612 115.62 531.051 117.248 529.124 117.355H493.468C493.211 112.729 495.074 111.573 496.038 111.573L528.481 111.252C532.85 109.71 533.514 105.47 533.299 103.542C533.042 98.1458 528.053 97.0109 525.59 97.1179Z" fill="#FF0000"/>
<path d="M383.933 70.4568C382.391 70.7138 364.446 101.187 355.666 116.391L355.023 117.355H355.666H362.411L386.824 77.5236L404.491 111.573H386.181C384.383 112.087 384.361 115.642 384.575 117.355H414.77L390.036 70.4568H383.933Z" fill="#FF0000"/>
<path d="M309.41 102.257L285.319 73.669V70.7781H290.137L312.944 94.8694C319.796 87.2673 333.887 71.806 335.429 70.7781C336.971 69.7502 338.855 70.3498 339.605 70.7781V117.355C335.75 118.126 333.93 115.963 333.502 114.785V80.7358C327.934 87.4814 316.477 101.23 315.192 102.257C313.907 103.285 310.802 102.686 309.41 102.257Z" fill="#FF0000"/>
<path d="M284.998 115.106V97.1179C287.825 96.09 290.673 97.5462 291.743 98.4028V117.033C288.146 117.804 285.747 116.07 284.998 115.106Z" fill="#FF0000"/>
<path d="M42.478 48.378L41.75 55H40.56L41.75 44.71L45.67 51.808L49.59 44.71L50.78 55H49.59L48.862 48.378L45.67 54.09L42.478 48.378ZM53.392 52.06L53.812 50.94H58.152L58.572 52.06H53.392ZM55.954 47.412L54.302 51.304L54.19 51.556L52.734 55H51.404L55.954 44.71L60.504 55H59.174L57.746 51.64L57.634 51.36L55.954 47.412ZM63.4462 50.17H64.7762L68.2762 55H66.8062L63.4462 50.17ZM61.6962 45.2H62.8862V55H61.6962V45.2ZM62.3542 46.25V45.2H64.3562C64.9908 45.2 65.5555 45.3213 66.0502 45.564C66.5542 45.7973 66.9508 46.1333 67.2402 46.572C67.5388 47.0107 67.6882 47.5333 67.6882 48.14C67.6882 48.7373 67.5388 49.26 67.2402 49.708C66.9508 50.1467 66.5542 50.4873 66.0502 50.73C65.5555 50.9633 64.9908 51.08 64.3562 51.08H62.3542V50.03H64.3562C64.7762 50.03 65.1448 49.9553 65.4622 49.806C65.7888 49.6567 66.0408 49.442 66.2182 49.162C66.4048 48.882 66.4982 48.5413 66.4982 48.14C66.4982 47.7387 66.4048 47.398 66.2182 47.118C66.0408 46.838 65.7888 46.6233 65.4622 46.474C65.1448 46.3247 64.7762 46.25 64.3562 46.25H62.3542ZM69.8942 52.032C70.1182 52.424 70.3515 52.7693 70.5942 53.068C70.8462 53.3667 71.1262 53.6 71.4342 53.768C71.7422 53.936 72.0922 54.02 72.4842 54.02C73.0068 54.02 73.4268 53.8753 73.7442 53.586C74.0615 53.2967 74.2202 52.928 74.2202 52.48C74.2202 52.0413 74.1175 51.6913 73.9122 51.43C73.7068 51.1687 73.4362 50.9587 73.1002 50.8C72.7735 50.632 72.4235 50.4827 72.0502 50.352C71.8075 50.268 71.5368 50.1607 71.2382 50.03C70.9395 49.89 70.6548 49.7173 70.3842 49.512C70.1135 49.2973 69.8895 49.036 69.7122 48.728C69.5442 48.42 69.4602 48.042 69.4602 47.594C69.4602 47.1087 69.5815 46.6747 69.8242 46.292C70.0668 45.9093 70.4028 45.6107 70.8322 45.396C71.2615 45.172 71.7515 45.06 72.3022 45.06C72.8342 45.06 73.2962 45.1627 73.6882 45.368C74.0895 45.564 74.4302 45.8207 74.7102 46.138C74.9902 46.446 75.2095 46.7727 75.3682 47.118L74.3462 47.706C74.2248 47.4633 74.0708 47.2253 73.8842 46.992C73.6975 46.7587 73.4688 46.5673 73.1982 46.418C72.9368 46.2687 72.6148 46.194 72.2322 46.194C71.7002 46.194 71.3128 46.3247 71.0702 46.586C70.8275 46.838 70.7062 47.1227 70.7062 47.44C70.7062 47.7107 70.7762 47.9627 70.9162 48.196C71.0562 48.42 71.2895 48.6347 71.6162 48.84C71.9522 49.036 72.4048 49.232 72.9742 49.428C73.2355 49.5213 73.5108 49.6427 73.8002 49.792C74.0895 49.9413 74.3555 50.1327 74.5982 50.366C74.8502 50.59 75.0555 50.8653 75.2142 51.192C75.3728 51.5093 75.4522 51.892 75.4522 52.34C75.4522 52.7693 75.3682 53.1567 75.2002 53.502C75.0415 53.8473 74.8175 54.1413 74.5282 54.384C74.2482 54.6267 73.9262 54.8133 73.5622 54.944C73.2075 55.0747 72.8342 55.14 72.4422 55.14C71.9102 55.14 71.4155 55.028 70.9582 54.804C70.5102 54.5707 70.1135 54.2673 69.7682 53.894C69.4322 53.5113 69.1568 53.1053 68.9422 52.676L69.8942 52.032ZM81.3973 45.2H82.5873V55H81.3973V45.2ZM84.3373 55H82.0553V53.81H84.3373C84.888 53.81 85.392 53.726 85.8493 53.558C86.3067 53.3807 86.6987 53.1333 87.0253 52.816C87.352 52.4893 87.604 52.0973 87.7813 51.64C87.9587 51.1827 88.0473 50.6693 88.0473 50.1C88.0473 49.5307 87.9587 49.0173 87.7813 48.56C87.604 48.1027 87.352 47.7153 87.0253 47.398C86.6987 47.0713 86.3067 46.824 85.8493 46.656C85.392 46.4787 84.888 46.39 84.3373 46.39H82.0553V45.2H84.3373C85.2893 45.2 86.134 45.4053 86.8713 45.816C87.6087 46.2267 88.1873 46.8007 88.6073 47.538C89.0273 48.266 89.2373 49.12 89.2373 50.1C89.2373 51.08 89.0273 51.9387 88.6073 52.676C88.1873 53.404 87.6087 53.9733 86.8713 54.384C86.134 54.7947 85.2893 55 84.3373 55ZM91.571 55V53.88H96.513V55H91.571ZM91.571 46.32V45.2H96.513V46.32H91.571ZM91.571 50.24V49.12H96.233V50.24H91.571ZM90.913 45.2H92.103V55H90.913V45.2ZM98.9742 52.032C99.1982 52.424 99.4316 52.7693 99.6742 53.068C99.9262 53.3667 100.206 53.6 100.514 53.768C100.822 53.936 101.172 54.02 101.564 54.02C102.087 54.02 102.507 53.8753 102.824 53.586C103.142 53.2967 103.3 52.928 103.3 52.48C103.3 52.0413 103.198 51.6913 102.992 51.43C102.787 51.1687 102.516 50.9587 102.18 50.8C101.854 50.632 101.504 50.4827 101.13 50.352C100.888 50.268 100.617 50.1607 100.318 50.03C100.02 49.89 99.7349 49.7173 99.4642 49.512C99.1936 49.2973 98.9696 49.036 98.7922 48.728C98.6242 48.42 98.5402 48.042 98.5402 47.594C98.5402 47.1087 98.6616 46.6747 98.9042 46.292C99.1469 45.9093 99.4829 45.6107 99.9122 45.396C100.342 45.172 100.832 45.06 101.382 45.06C101.914 45.06 102.376 45.1627 102.768 45.368C103.17 45.564 103.51 45.8207 103.79 46.138C104.07 46.446 104.29 46.7727 104.448 47.118L103.426 47.706C103.305 47.4633 103.151 47.2253 102.964 46.992C102.778 46.7587 102.549 46.5673 102.278 46.418C102.017 46.2687 101.695 46.194 101.312 46.194C100.78 46.194 100.393 46.3247 100.15 46.586C99.9076 46.838 99.7862 47.1227 99.7862 47.44C99.7862 47.7107 99.8562 47.9627 99.9962 48.196C100.136 48.42 100.37 48.6347 100.696 48.84C101.032 49.036 101.485 49.232 102.054 49.428C102.316 49.5213 102.591 49.6427 102.88 49.792C103.17 49.9413 103.436 50.1327 103.678 50.366C103.93 50.59 104.136 50.8653 104.294 51.192C104.453 51.5093 104.532 51.892 104.532 52.34C104.532 52.7693 104.448 53.1567 104.28 53.502C104.122 53.8473 103.898 54.1413 103.608 54.384C103.328 54.6267 103.006 54.8133 102.642 54.944C102.288 55.0747 101.914 55.14 101.522 55.14C100.99 55.14 100.496 55.028 100.038 54.804C99.5902 54.5707 99.1936 54.2673 98.8482 53.894C98.5122 53.5113 98.2369 53.1053 98.0222 52.676L98.9742 52.032ZM106.28 45.2H107.47V55H106.28V45.2ZM114.262 51.15V50.03H118.812C118.812 50.7113 118.709 51.36 118.504 51.976C118.298 52.5827 117.995 53.124 117.594 53.6C117.192 54.076 116.698 54.454 116.11 54.734C115.531 55.0047 114.868 55.14 114.122 55.14C113.412 55.14 112.754 55.0187 112.148 54.776C111.541 54.524 111.014 54.174 110.566 53.726C110.118 53.2687 109.768 52.732 109.516 52.116C109.273 51.5 109.152 50.828 109.152 50.1C109.152 49.372 109.273 48.7 109.516 48.084C109.768 47.468 110.118 46.936 110.566 46.488C111.014 46.0307 111.541 45.6807 112.148 45.438C112.754 45.186 113.412 45.06 114.122 45.06C114.728 45.06 115.284 45.1393 115.788 45.298C116.301 45.4567 116.758 45.69 117.16 45.998C117.57 46.306 117.916 46.6887 118.196 47.146L117.356 47.916C117.048 47.3933 116.618 46.9873 116.068 46.698C115.517 46.3993 114.868 46.25 114.122 46.25C113.431 46.25 112.806 46.4133 112.246 46.74C111.686 47.0667 111.238 47.5193 110.902 48.098C110.575 48.6673 110.412 49.3347 110.412 50.1C110.412 50.856 110.575 51.5233 110.902 52.102C111.238 52.6807 111.686 53.1333 112.246 53.46C112.806 53.7867 113.431 53.95 114.122 53.95C114.607 53.95 115.041 53.88 115.424 53.74C115.816 53.5907 116.152 53.3853 116.432 53.124C116.712 52.8627 116.94 52.564 117.118 52.228C117.304 51.892 117.44 51.5327 117.524 51.15H114.262ZM127.987 45.2H129.177V55.49L121.757 47.706V55H120.567V44.71L127.987 52.494V45.2ZM135.984 52.032C136.208 52.424 136.441 52.7693 136.684 53.068C136.936 53.3667 137.216 53.6 137.524 53.768C137.832 53.936 138.182 54.02 138.574 54.02C139.097 54.02 139.517 53.8753 139.834 53.586C140.151 53.2967 140.31 52.928 140.31 52.48C140.31 52.0413 140.207 51.6913 140.002 51.43C139.797 51.1687 139.526 50.9587 139.19 50.8C138.863 50.632 138.513 50.4827 138.14 50.352C137.897 50.268 137.627 50.1607 137.328 50.03C137.029 49.89 136.745 49.7173 136.474 49.512C136.203 49.2973 135.979 49.036 135.802 48.728C135.634 48.42 135.55 48.042 135.55 47.594C135.55 47.1087 135.671 46.6747 135.914 46.292C136.157 45.9093 136.493 45.6107 136.922 45.396C137.351 45.172 137.841 45.06 138.392 45.06C138.924 45.06 139.386 45.1627 139.778 45.368C140.179 45.564 140.52 45.8207 140.8 46.138C141.08 46.446 141.299 46.7727 141.458 47.118L140.436 47.706C140.315 47.4633 140.161 47.2253 139.974 46.992C139.787 46.7587 139.559 46.5673 139.288 46.418C139.027 46.2687 138.705 46.194 138.322 46.194C137.79 46.194 137.403 46.3247 137.16 46.586C136.917 46.838 136.796 47.1227 136.796 47.44C136.796 47.7107 136.866 47.9627 137.006 48.196C137.146 48.42 137.379 48.6347 137.706 48.84C138.042 49.036 138.495 49.232 139.064 49.428C139.325 49.5213 139.601 49.6427 139.89 49.792C140.179 49.9413 140.445 50.1327 140.688 50.366C140.94 50.59 141.145 50.8653 141.304 51.192C141.463 51.5093 141.542 51.892 141.542 52.34C141.542 52.7693 141.458 53.1567 141.29 53.502C141.131 53.8473 140.907 54.1413 140.618 54.384C140.338 54.6267 140.016 54.8133 139.652 54.944C139.297 55.0747 138.924 55.14 138.532 55.14C138 55.14 137.505 55.028 137.048 54.804C136.6 54.5707 136.203 54.2673 135.858 53.894C135.522 53.5113 135.247 53.1053 135.032 52.676L135.984 52.032ZM142.31 46.32V45.2H148.54V46.32H146.02V55H144.83V46.32H142.31ZM149.728 45.2H150.918V51.78C150.918 52.452 151.1 52.9933 151.464 53.404C151.828 53.8147 152.36 54.02 153.06 54.02C153.76 54.02 154.292 53.8147 154.656 53.404C155.02 52.9933 155.202 52.452 155.202 51.78V45.2H156.392V51.78C156.392 52.2653 156.312 52.7133 156.154 53.124C156.004 53.5347 155.78 53.8893 155.482 54.188C155.192 54.4867 154.842 54.72 154.432 54.888C154.021 55.056 153.564 55.14 153.06 55.14C152.556 55.14 152.098 55.056 151.688 54.888C151.277 54.72 150.922 54.4867 150.624 54.188C150.334 53.8893 150.11 53.5347 149.952 53.124C149.802 52.7133 149.728 52.2653 149.728 51.78V45.2ZM158.561 45.2H159.751V55H158.561V45.2ZM161.501 55H159.219V53.81H161.501C162.052 53.81 162.556 53.726 163.013 53.558C163.471 53.3807 163.863 53.1333 164.189 52.816C164.516 52.4893 164.768 52.0973 164.945 51.64C165.123 51.1827 165.211 50.6693 165.211 50.1C165.211 49.5307 165.123 49.0173 164.945 48.56C164.768 48.1027 164.516 47.7153 164.189 47.398C163.863 47.0713 163.471 46.824 163.013 46.656C162.556 46.4787 162.052 46.39 161.501 46.39H159.219V45.2H161.501C162.453 45.2 163.298 45.4053 164.035 45.816C164.773 46.2267 165.351 46.8007 165.771 47.538C166.191 48.266 166.401 49.12 166.401 50.1C166.401 51.08 166.191 51.9387 165.771 52.676C165.351 53.404 164.773 53.9733 164.035 54.384C163.298 54.7947 162.453 55 161.501 55ZM168.077 45.2H169.267V55H168.077V45.2ZM172.209 50.1C172.209 50.8373 172.367 51.4953 172.685 52.074C173.011 52.6527 173.455 53.11 174.015 53.446C174.575 53.782 175.209 53.95 175.919 53.95C176.637 53.95 177.272 53.782 177.823 53.446C178.383 53.11 178.821 52.6527 179.139 52.074C179.465 51.4953 179.629 50.8373 179.629 50.1C179.629 49.3627 179.465 48.7047 179.139 48.126C178.821 47.5473 178.383 47.09 177.823 46.754C177.272 46.418 176.637 46.25 175.919 46.25C175.209 46.25 174.575 46.418 174.015 46.754C173.455 47.09 173.011 47.5473 172.685 48.126C172.367 48.7047 172.209 49.3627 172.209 50.1ZM170.949 50.1C170.949 49.3813 171.07 48.7187 171.313 48.112C171.565 47.496 171.915 46.964 172.363 46.516C172.811 46.0587 173.338 45.704 173.945 45.452C174.551 45.1907 175.209 45.06 175.919 45.06C176.637 45.06 177.295 45.1907 177.893 45.452C178.499 45.704 179.027 46.0587 179.475 46.516C179.923 46.964 180.268 47.496 180.511 48.112C180.763 48.7187 180.889 49.3813 180.889 50.1C180.889 50.8093 180.763 51.472 180.511 52.088C180.268 52.704 179.923 53.2407 179.475 53.698C179.027 54.146 178.499 54.5007 177.893 54.762C177.295 55.014 176.637 55.14 175.919 55.14C175.209 55.14 174.551 55.014 173.945 54.762C173.338 54.5007 172.811 54.146 172.363 53.698C171.915 53.2407 171.565 52.704 171.313 52.088C171.07 51.472 170.949 50.8093 170.949 50.1Z" fill="white"/>
<path d="M498.8 296H499.65V303H498.8V296ZM500.9 303H499.27V302.15H500.9C501.293 302.15 501.653 302.09 501.98 301.97C502.307 301.843 502.587 301.667 502.82 301.44C503.053 301.207 503.233 300.927 503.36 300.6C503.487 300.273 503.55 299.907 503.55 299.5C503.55 299.093 503.487 298.727 503.36 298.4C503.233 298.073 503.053 297.797 502.82 297.57C502.587 297.337 502.307 297.16 501.98 297.04C501.653 296.913 501.293 296.85 500.9 296.85H499.27V296H500.9C501.58 296 502.183 296.147 502.71 296.44C503.237 296.733 503.65 297.143 503.95 297.67C504.25 298.19 504.4 298.8 504.4 299.5C504.4 300.2 504.25 300.813 503.95 301.34C503.65 301.86 503.237 302.267 502.71 302.56C502.183 302.853 501.58 303 500.9 303ZM505.597 296H506.447V303H505.597V296ZM511.298 300.25V299.45H514.548C514.548 299.937 514.475 300.4 514.328 300.84C514.181 301.273 513.965 301.66 513.678 302C513.391 302.34 513.038 302.61 512.618 302.81C512.205 303.003 511.731 303.1 511.198 303.1C510.691 303.1 510.221 303.013 509.788 302.84C509.355 302.66 508.978 302.41 508.658 302.09C508.338 301.763 508.088 301.38 507.908 300.94C507.735 300.5 507.648 300.02 507.648 299.5C507.648 298.98 507.735 298.5 507.908 298.06C508.088 297.62 508.338 297.24 508.658 296.92C508.978 296.593 509.355 296.343 509.788 296.17C510.221 295.99 510.691 295.9 511.198 295.9C511.631 295.9 512.028 295.957 512.388 296.07C512.755 296.183 513.081 296.35 513.368 296.57C513.661 296.79 513.908 297.063 514.108 297.39L513.508 297.94C513.288 297.567 512.981 297.277 512.588 297.07C512.195 296.857 511.731 296.75 511.198 296.75C510.705 296.75 510.258 296.867 509.858 297.1C509.458 297.333 509.138 297.657 508.898 298.07C508.665 298.477 508.548 298.953 508.548 299.5C508.548 300.04 508.665 300.517 508.898 300.93C509.138 301.343 509.458 301.667 509.858 301.9C510.258 302.133 510.705 302.25 511.198 302.25C511.545 302.25 511.855 302.2 512.128 302.1C512.408 301.993 512.648 301.847 512.848 301.66C513.048 301.473 513.211 301.26 513.338 301.02C513.471 300.78 513.568 300.523 513.628 300.25H511.298ZM515.802 296H516.652V303H515.802V296ZM517.553 296.8V296H522.003V296.8H520.203V303H519.353V296.8H517.553ZM522.575 300.9L522.875 300.1H525.975L526.275 300.9H522.575ZM524.405 297.58L523.225 300.36L523.145 300.54L522.105 303H521.155L524.405 295.65L527.655 303H526.705L525.685 300.6L525.605 300.4L524.405 297.58ZM528.507 296H529.357V302.2H532.107V303H528.507V296ZM536.267 300.88C536.427 301.16 536.594 301.407 536.767 301.62C536.947 301.833 537.147 302 537.367 302.12C537.587 302.24 537.837 302.3 538.117 302.3C538.49 302.3 538.79 302.197 539.017 301.99C539.244 301.783 539.357 301.52 539.357 301.2C539.357 300.887 539.284 300.637 539.137 300.45C538.99 300.263 538.797 300.113 538.557 300C538.324 299.88 538.074 299.773 537.807 299.68C537.634 299.62 537.44 299.543 537.227 299.45C537.014 299.35 536.81 299.227 536.617 299.08C536.424 298.927 536.264 298.74 536.137 298.52C536.017 298.3 535.957 298.03 535.957 297.71C535.957 297.363 536.044 297.053 536.217 296.78C536.39 296.507 536.63 296.293 536.937 296.14C537.244 295.98 537.594 295.9 537.987 295.9C538.367 295.9 538.697 295.973 538.977 296.12C539.264 296.26 539.507 296.443 539.707 296.67C539.907 296.89 540.064 297.123 540.177 297.37L539.447 297.79C539.36 297.617 539.25 297.447 539.117 297.28C538.984 297.113 538.82 296.977 538.627 296.87C538.44 296.763 538.21 296.71 537.937 296.71C537.557 296.71 537.28 296.803 537.107 296.99C536.934 297.17 536.847 297.373 536.847 297.6C536.847 297.793 536.897 297.973 536.997 298.14C537.097 298.3 537.264 298.453 537.497 298.6C537.737 298.74 538.06 298.88 538.467 299.02C538.654 299.087 538.85 299.173 539.057 299.28C539.264 299.387 539.454 299.523 539.627 299.69C539.807 299.85 539.954 300.047 540.067 300.28C540.18 300.507 540.237 300.78 540.237 301.1C540.237 301.407 540.177 301.683 540.057 301.93C539.944 302.177 539.784 302.387 539.577 302.56C539.377 302.733 539.147 302.867 538.887 302.96C538.634 303.053 538.367 303.1 538.087 303.1C537.707 303.1 537.354 303.02 537.027 302.86C536.707 302.693 536.424 302.477 536.177 302.21C535.937 301.937 535.74 301.647 535.587 301.34L536.267 300.88ZM540.786 296.8V296H545.236V296.8H543.436V303H542.586V296.8H540.786ZM546.084 296H546.934V300.7C546.934 301.18 547.064 301.567 547.324 301.86C547.584 302.153 547.964 302.3 548.464 302.3C548.964 302.3 549.344 302.153 549.604 301.86C549.864 301.567 549.994 301.18 549.994 300.7V296H550.844V300.7C550.844 301.047 550.787 301.367 550.674 301.66C550.567 301.953 550.407 302.207 550.194 302.42C549.987 302.633 549.737 302.8 549.444 302.92C549.151 303.04 548.824 303.1 548.464 303.1C548.104 303.1 547.777 303.04 547.484 302.92C547.191 302.8 546.937 302.633 546.724 302.42C546.517 302.207 546.357 301.953 546.244 301.66C546.137 301.367 546.084 301.047 546.084 300.7V296ZM552.394 296H553.244V303H552.394V296ZM554.494 303H552.864V302.15H554.494C554.887 302.15 555.247 302.09 555.574 301.97C555.9 301.843 556.18 301.667 556.414 301.44C556.647 301.207 556.827 300.927 556.954 300.6C557.08 300.273 557.144 299.907 557.144 299.5C557.144 299.093 557.08 298.727 556.954 298.4C556.827 298.073 556.647 297.797 556.414 297.57C556.18 297.337 555.9 297.16 555.574 297.04C555.247 296.913 554.887 296.85 554.494 296.85H552.864V296H554.494C555.174 296 555.777 296.147 556.304 296.44C556.83 296.733 557.244 297.143 557.544 297.67C557.844 298.19 557.994 298.8 557.994 299.5C557.994 300.2 557.844 300.813 557.544 301.34C557.244 301.86 556.83 302.267 556.304 302.56C555.777 302.853 555.174 303 554.494 303ZM559.191 296H560.041V303H559.191V296ZM562.142 299.5C562.142 300.027 562.255 300.497 562.482 300.91C562.715 301.323 563.032 301.65 563.432 301.89C563.832 302.13 564.285 302.25 564.792 302.25C565.305 302.25 565.758 302.13 566.152 301.89C566.552 301.65 566.865 301.323 567.092 300.91C567.325 300.497 567.442 300.027 567.442 299.5C567.442 298.973 567.325 298.503 567.092 298.09C566.865 297.677 566.552 297.35 566.152 297.11C565.758 296.87 565.305 296.75 564.792 296.75C564.285 296.75 563.832 296.87 563.432 297.11C563.032 297.35 562.715 297.677 562.482 298.09C562.255 298.503 562.142 298.973 562.142 299.5ZM561.242 299.5C561.242 298.987 561.328 298.513 561.502 298.08C561.682 297.64 561.932 297.26 562.252 296.94C562.572 296.613 562.948 296.36 563.382 296.18C563.815 295.993 564.285 295.9 564.792 295.9C565.305 295.9 565.775 295.993 566.202 296.18C566.635 296.36 567.012 296.613 567.332 296.94C567.652 297.26 567.898 297.64 568.072 298.08C568.252 298.513 568.342 298.987 568.342 299.5C568.342 300.007 568.252 300.48 568.072 300.92C567.898 301.36 567.652 301.743 567.332 302.07C567.012 302.39 566.635 302.643 566.202 302.83C565.775 303.01 565.305 303.1 564.792 303.1C564.285 303.1 563.815 303.01 563.382 302.83C562.948 302.643 562.572 302.39 562.252 302.07C561.932 301.743 561.682 301.36 561.502 300.92C561.328 300.48 561.242 300.007 561.242 299.5Z" fill="white"/>
<defs>
<filter id="filter0_d_737_3" x="212.5" y="268" width="383.5" height="62" filterUnits="userSpaceOnUse" color-interpolation-filters="sRGB">
<feFlood flood-opacity="0" result="BackgroundImageFix"/>
<feColorMatrix in="SourceAlpha" type="matrix" values="0 0 0 0 0 0 0 0 0 0 0 0 0 0 0 0 0 0 127 0" result="hardAlpha"/>
<feOffset dy="4"/>
<feGaussianBlur stdDeviation="2"/>
<feComposite in2="hardAlpha" operator="out"/>
<feColorMatrix type="matrix" values="0 0 0 0 0 0 0 0 0 0 0 0 0 0 0 0 0 0 0.25 0"/>
<feBlend mode="normal" in2="BackgroundImageFix" result="effect1_dropShadow_737_3"/>
<feBlend mode="normal" in="SourceGraphic" in2="effect1_dropShadow_737_3" result="shape"/>
</filter>
</defs>
</svg>
