<svg width="31" height="22" viewBox="0 0 31 22" fill="none" xmlns="http://www.w3.org/2000/svg">
<path d="M26.6195 3.96139C28.3386 3.68707 25.7809 6.73319 24.1036 8.35805C23.6005 9.04617 24.1735 8.77224 24.5229 8.54926C29.3533 4.53492 30.1696 2.4481 29.9739 1.90648C29.8397 0.453672 24.3273 3.02154 21.5878 4.48708C13.1179 -4.87972 4.85759 9.93517 8.33782 11.9901C10.8157 13.4531 16.9335 9.37757 19.659 7.2111C23.5502 4.87895 25.9206 4.0729 26.6195 3.96139Z" fill="#FF0000" stroke="#FF0000"/>
<path d="M4.39077 18.4435C2.67196 18.7205 5.22601 15.6704 6.90124 14.0429C7.40357 13.354 6.83086 13.6288 6.48172 13.8523C1.65622 17.8743 0.842511 19.9624 1.03884 20.5037C1.17479 21.9563 6.6841 19.3797 9.42177 17.9099C17.9031 27.2633 26.1454 12.4354 22.6626 10.386C20.183 8.92683 14.0701 13.012 11.3473 15.1828C7.45895 17.5211 5.08947 18.3309 4.39077 18.4435Z" fill="#FF0000" stroke="#FF0000"/>
</svg>
