<svg width="245" height="80" viewBox="0 0 245 80" fill="none" xmlns="http://www.w3.org/2000/svg">
<path d="M1.41561e-07 72L30.7 40.6C32.6333 38.4 34.3 36.4667 35.7 34.8C37.1667 33.1333 38.2667 31.5 39 29.9C39.8 28.2333 40.2 26.5 40.2 24.7C40.2 23.7 40.0333 22.7333 39.7 21.8C39.3667 20.8667 38.8333 20.0667 38.1 19.4C37.3667 18.6667 36.4667 18.1 35.4 17.7C34.4 17.2333 33.1667 17 31.7 17C29.8333 17 28.1667 17.5 26.7 18.5C25.2333 19.4333 24.1 20.7667 23.3 22.5C22.5667 24.2333 22.2 26.2 22.2 28.4H3.2C3.2 23.4 4.26667 18.8 6.4 14.6C8.6 10.3333 11.8667 6.93333 16.2 4.39999C20.6 1.8 26 0.499997 32.4 0.499997C36.8667 0.499997 40.8333 1.16666 44.3 2.49999C47.7667 3.76666 50.6667 5.5 53 7.7C55.4 9.9 57.2 12.3667 58.4 15.1C59.6 17.7667 60.2 20.5333 60.2 23.4C60.2 27.2 59.2667 30.6333 57.4 33.7C55.5333 36.7667 53.0333 39.5667 49.9 42.1L35.4 54.3H62.3V72H1.41561e-07ZM88.7641 37C88.7641 40.0667 89.0307 42.8333 89.5641 45.3C90.1641 47.7667 90.9641 49.8667 91.9641 51.6C92.9641 53.3333 94.1641 54.6667 95.5641 55.6C96.9641 56.4667 98.4974 56.9 100.164 56.9C101.897 56.9 103.431 56.4667 104.764 55.6C106.164 54.6667 107.364 53.3333 108.364 51.6C109.431 49.8667 110.231 47.7667 110.764 45.3C111.364 42.8333 111.664 40.0667 111.664 37C111.664 33.9333 111.364 31.1667 110.764 28.7C110.231 26.2333 109.431 24.1333 108.364 22.4C107.364 20.6667 106.164 19.3667 104.764 18.5C103.431 17.5667 101.897 17.1 100.164 17.1C98.4974 17.1 96.9641 17.5667 95.5641 18.5C94.1641 19.3667 92.9641 20.6667 91.9641 22.4C90.9641 24.1333 90.1641 26.2333 89.5641 28.7C89.0307 31.1667 88.7641 33.9333 88.7641 37ZM70.1641 37C70.1641 29.2 71.4307 22.6 73.9641 17.2C76.4974 11.8 79.9974 7.7 84.4641 4.9C88.9974 2.03333 94.2307 0.599995 100.164 0.599995C106.431 0.599995 111.797 2.03333 116.264 4.9C120.731 7.7 124.164 11.8 126.564 17.2C129.031 22.6 130.264 29.2 130.264 37C130.264 44.8 129.031 51.4 126.564 56.8C124.164 62.2 120.731 66.3333 116.264 69.2C111.797 72 106.431 73.4 100.164 73.4C94.2307 73.4 88.9974 72 84.4641 69.2C79.9974 66.3333 76.4974 62.2 73.9641 56.8C71.4307 51.4 70.1641 44.8 70.1641 37ZM156.83 37C156.83 40.0667 157.097 42.8333 157.63 45.3C158.23 47.7667 159.03 49.8667 160.03 51.6C161.03 53.3333 162.23 54.6667 163.63 55.6C165.03 56.4667 166.564 56.9 168.23 56.9C169.964 56.9 171.497 56.4667 172.83 55.6C174.23 54.6667 175.43 53.3333 176.43 51.6C177.497 49.8667 178.297 47.7667 178.83 45.3C179.43 42.8333 179.73 40.0667 179.73 37C179.73 33.9333 179.43 31.1667 178.83 28.7C178.297 26.2333 177.497 24.1333 176.43 22.4C175.43 20.6667 174.23 19.3667 172.83 18.5C171.497 17.5667 169.964 17.1 168.23 17.1C166.564 17.1 165.03 17.5667 163.63 18.5C162.23 19.3667 161.03 20.6667 160.03 22.4C159.03 24.1333 158.23 26.2333 157.63 28.7C157.097 31.1667 156.83 33.9333 156.83 37ZM138.23 37C138.23 29.2 139.497 22.6 142.03 17.2C144.564 11.8 148.064 7.7 152.53 4.9C157.064 2.03333 162.297 0.599995 168.23 0.599995C174.497 0.599995 179.864 2.03333 184.33 4.9C188.797 7.7 192.23 11.8 194.63 17.2C197.097 22.6 198.33 29.2 198.33 37C198.33 44.8 197.097 51.4 194.63 56.8C192.23 62.2 188.797 66.3333 184.33 69.2C179.864 72 174.497 73.4 168.23 73.4C162.297 73.4 157.064 72 152.53 69.2C148.064 66.3333 144.564 62.2 142.03 56.8C139.497 51.4 138.23 44.8 138.23 37ZM220.707 14.74H230.437L229.877 28.04H221.267L220.707 14.74ZM221.267 67.38H229.807L230.367 79.84H220.707L221.267 67.38ZM233.867 38.26C233.167 36.9067 232.397 35.7633 231.557 34.83C230.717 33.85 229.807 33.1267 228.827 32.66C227.894 32.1933 226.89 31.96 225.817 31.96C224.697 31.96 223.787 32.1467 223.087 32.52C222.387 32.8467 221.874 33.29 221.547 33.85C221.22 34.41 221.057 35.04 221.057 35.74C221.057 37 221.57 38.0033 222.597 38.75C223.624 39.4967 224.977 40.15 226.657 40.71C228.384 41.27 230.227 41.9233 232.187 42.67C234.007 43.3233 235.664 44.1167 237.157 45.05C238.65 45.9367 239.957 47.01 241.077 48.27C242.244 49.4833 243.13 50.9067 243.737 52.54C244.39 54.1733 244.717 56.04 244.717 58.14C244.717 61.2667 243.877 63.9267 242.197 66.12C240.564 68.2667 238.254 69.9 235.267 71.02C232.28 72.14 228.78 72.7 224.767 72.7C221.734 72.7 218.84 72.14 216.087 71.02C213.334 69.8533 210.907 68.36 208.807 66.54C206.754 64.72 205.214 62.7367 204.187 60.59L213.497 53.94C214.664 55.8067 215.83 57.3467 216.997 58.56C218.164 59.7733 219.4 60.6833 220.707 61.29C222.014 61.85 223.484 62.13 225.117 62.13C226.33 62.13 227.31 61.99 228.057 61.71C228.85 61.3833 229.434 60.94 229.807 60.38C230.18 59.7733 230.367 59.0267 230.367 58.14C230.367 57.0667 229.947 56.2033 229.107 55.55C228.314 54.85 227.194 54.1967 225.747 53.59C224.3 52.9833 222.597 52.3067 220.637 51.56C219.424 51.0933 218.047 50.4633 216.507 49.67C214.967 48.8767 213.474 47.8733 212.027 46.66C210.627 45.4467 209.46 43.9533 208.527 42.18C207.594 40.4067 207.127 38.3067 207.127 35.88C207.127 33.4533 207.897 31.2133 209.437 29.16C210.977 27.1067 213.1 25.45 215.807 24.19C218.56 22.93 221.734 22.3 225.327 22.3C228.967 22.3 231.954 22.79 234.287 23.77C236.62 24.7033 238.557 25.9633 240.097 27.55C241.637 29.09 242.944 30.77 244.017 32.59L233.867 38.26Z" fill="url(#paint0_linear_652_3)" fill-opacity="0.3"/>
<defs>
<linearGradient id="paint0_linear_652_3" x1="115.095" y1="18" x2="115.095" y2="84.5" gradientUnits="userSpaceOnUse">
<stop stop-color="white" stop-opacity="0.5"/>
<stop offset="0.759615" stop-color="#3B3B3B" stop-opacity="0.3"/>
</linearGradient>
</defs>
</svg>
