<svg width="290" height="193" viewBox="0 0 290 193" fill="none" xmlns="http://www.w3.org/2000/svg">
<path d="M160.645 77.8181C235.295 49.8369 265.33 53.7373 273.736 58.8081C277.283 60.9482 276.92 65.3525 273.053 70.2903C263.049 83.0645 242.22 98.5069 214.349 123.79C176.117 158.474 127.11 180.748 86.4619 189.592C58.2506 195.729 37.8568 185.182 24.2517 178.333C15.858 174.107 10.9355 168.604 7.09078 161.952C5.22631 158.726 5.4575 154.87 6.22209 151.682C7.70569 145.497 23.1374 129.681 54.0145 100.796C92.8407 64.4733 140.286 43.3301 174.095 31.4276C216.297 16.5698 268.698 26.6148 286.709 34.7361C293.359 37.7347 283.904 51.0465 275.629 61.8965C263.873 77.3119 239.708 90.2325 202.886 103.875C110.689 138.034 83.1392 127.176 69.6018 127.977C63.2523 128.353 57.9812 119.601 53.2059 111.739C51.0111 108.125 51.2562 104.245 52.8195 100.444C56.2898 92.0039 84.2195 72.3881 129.168 44.1969C168.232 19.696 198.134 18.1405 210.723 18.6849C217.579 18.9815 224.97 23.0381 229.659 26.5569C234.348 30.0758 236.006 33.8845 233.481 39.716C226.948 54.8041 182.709 89.0811 127.294 132.985C106.631 149.356 100.201 152.568 94.1791 154.002C71.0123 159.52 52.4154 145.718 45.1803 137.186C37.9098 128.612 54.0885 109.731 78.289 84.709C116.298 45.409 161.423 20.6833 192.657 8.81481C220.496 -1.76313 245.32 1.07252 260.695 2.71006C266.865 3.36728 269.434 5.6366 271.532 9.16525C276.36 17.2893 275.329 33.1848 270.915 53.2365C266.221 74.5567 248.657 93.5565 225.972 112.311C198.371 135.129 155.329 142.372 110.839 147.796C63.6064 153.554 32.0717 145.957 21.1081 138.386C15.5758 134.566 12.7248 127.56 12.5808 119.91C12.2634 103.056 46.7577 75.5079 95.2776 45.2249C127.314 25.23 175.102 20.2926 224.969 13.3717C243.167 10.8462 247.316 13.6338 249.926 16.1517C254.695 20.7524 255.515 29.204 255.834 37.9323C256.152 46.6536 245.342 57.5931 229.524 73.6084C208.176 95.2227 166.851 115.487 122.668 134.732C104.012 142.859 91.8779 144.95 83.4362 144.99C74.9946 145.031 70.3266 142.266 66.6935 139.245C63.0604 136.223 60.6038 133.028 58.9086 129.171C57.2134 125.314 56.3541 120.891 59.3827 114.037C67.0043 96.7879 100.466 70.1773 145.185 38.3311C180.371 13.2729 216.028 8.15467 245.354 13.7368C259.947 16.5146 269.211 33.6921 274.527 43.9112C279.844 54.1303 279.72 60.5802 275.878 68.0793C266.975 85.4564 226.529 114.463 172.103 151.213C133.066 177.572 101.976 183.323 82.1296 188.34C64.6792 191.515 44.2871 191.791 23.9252 189.502C15.6644 188.075 11.6105 186.109 1.85052 176.823" stroke="#00FF9A" stroke-width="2" stroke-linecap="round"/>
</svg>
