<svg width="1512" height="394" viewBox="0 0 1512 394" fill="none" xmlns="http://www.w3.org/2000/svg">
<path d="M871.015 36.5027C848.436 32.0707 849.064 12.496 852.199 3.2627H1049.77C1079.87 3.2627 1100.57 19.8827 1106.22 29.116C1130.3 57.1854 1123.78 96.2117 1117.51 112.216C1103.96 141.763 1065.45 151.612 1047.89 152.843L1145.73 269.183H1096.81L1027.19 189.776L966.977 117.756H1040.36C1072.35 117.756 1085.52 101.136 1087.4 91.9027C1096.81 56.816 1070.47 38.3494 1057.29 36.5027H871.015Z" fill="#FF0000"/>
<path d="M852.199 258.102V152.842C877.789 146.933 886.696 158.998 887.95 165.769V272.876C863.865 275.83 854.081 264.258 852.199 258.102Z" fill="#FF0000"/>
<path d="M1236.05 106.676C1252.61 150.996 1306.92 155.92 1332.01 152.843V119.603C1311.94 120.834 1271.42 115.171 1269.92 82.6694C1268.41 50.168 1290.61 39.5803 1301.9 38.3493H1480.66C1500.23 23.576 1496.34 7.57158 1491.95 1.41602H1290.61C1224.76 23.576 1223.5 84.516 1236.05 106.676Z" fill="#FF0000"/>
<path d="M1422.33 154.689C1404.26 151.735 1402.26 130.067 1403.51 119.603L1444.91 121.449C1455.44 124.404 1468.11 132.529 1473.13 136.223C1509.26 161.337 1504.49 208.243 1497.59 228.556C1481.03 261.057 1454.31 270.414 1443.03 271.029H1234.17C1232.66 244.437 1243.57 237.789 1249.22 237.789L1439.26 235.943C1464.85 227.079 1468.74 202.703 1467.49 191.623C1465.98 160.599 1436.75 154.074 1422.33 154.689Z" fill="#FF0000"/>
<path d="M592.537 1.41602C583.505 2.89335 478.387 178.08 426.955 265.489L423.191 271.029H426.955H466.468L609.471 42.0427L712.96 237.789H605.708C595.171 240.744 595.047 261.18 596.3 271.029H773.171L628.287 1.41602H592.537Z" fill="#FF0000"/>
<path d="M156.003 184.236L14.8816 19.8829V3.26286H43.1058L176.7 141.763C216.841 98.0585 299.381 9.17219 308.413 3.26286C317.445 -2.64649 328.483 0.800622 332.874 3.26286V271.03C310.295 275.462 299.632 263.027 297.123 256.256V60.5095C264.509 99.2895 197.398 178.327 189.872 184.236C182.345 190.146 164.156 186.699 156.003 184.236Z" fill="#FF0000"/>
<path d="M13 258.103V154.69C29.5582 148.78 46.2418 157.152 52.5139 162.076V269.183C31.4398 273.615 17.3904 263.643 13 258.103Z" fill="#FF0000"/>
<path d="M1308.19 355.078H1311.63V356.313H1308.19V355.078ZM1311.47 352.426C1311.38 352.287 1311.28 352.196 1311.17 352.153C1311.07 352.109 1310.96 352.088 1310.85 352.088C1310.72 352.088 1310.6 352.122 1310.51 352.192C1310.42 352.261 1310.35 352.374 1310.3 352.53C1310.25 352.686 1310.22 352.889 1310.22 353.141V361.058H1308.84V352.868C1308.84 352.4 1308.92 352.014 1309.06 351.711C1309.22 351.399 1309.44 351.165 1309.73 351.009C1310.01 350.844 1310.36 350.762 1310.78 350.762C1311.01 350.762 1311.22 350.792 1311.39 350.853C1311.56 350.913 1311.71 350.987 1311.83 351.074C1311.96 351.16 1312.06 351.247 1312.13 351.334L1311.47 352.426ZM1314.14 358.718C1314.14 359.142 1314.23 359.472 1314.41 359.706C1314.6 359.94 1314.87 360.057 1315.25 360.057C1315.52 360.057 1315.75 360.005 1315.95 359.901C1316.15 359.788 1316.3 359.632 1316.42 359.433C1316.53 359.225 1316.59 358.986 1316.59 358.718V355.078H1317.99V361.058H1316.59V360.135C1316.4 360.481 1316.15 360.746 1315.84 360.928C1315.55 361.101 1315.19 361.188 1314.78 361.188C1314.11 361.188 1313.6 360.98 1313.23 360.564C1312.88 360.148 1312.7 359.584 1312.7 358.874V355.078H1314.14V358.718ZM1319.78 350.918H1321.19V361.058H1319.78V350.918ZM1322.98 350.918H1324.39V361.058H1322.98V350.918ZM1331.01 358.068C1331.01 358.449 1331.1 358.783 1331.26 359.069C1331.43 359.346 1331.65 359.567 1331.92 359.732C1332.21 359.896 1332.53 359.979 1332.87 359.979C1333.16 359.979 1333.43 359.935 1333.69 359.849C1333.95 359.762 1334.18 359.641 1334.38 359.485C1334.58 359.329 1334.73 359.155 1334.82 358.965V360.512C1334.62 360.72 1334.33 360.884 1333.98 361.006C1333.62 361.127 1333.23 361.188 1332.81 361.188C1332.19 361.188 1331.64 361.058 1331.14 360.798C1330.66 360.529 1330.27 360.161 1329.99 359.693C1329.71 359.216 1329.57 358.674 1329.57 358.068C1329.57 357.452 1329.71 356.911 1329.99 356.443C1330.27 355.975 1330.66 355.611 1331.14 355.351C1331.64 355.082 1332.19 354.948 1332.81 354.948C1333.23 354.948 1333.62 355.008 1333.98 355.13C1334.33 355.251 1334.62 355.416 1334.82 355.624V357.171C1334.73 356.971 1334.58 356.798 1334.37 356.651C1334.17 356.495 1333.94 356.373 1333.68 356.287C1333.42 356.2 1333.15 356.157 1332.87 356.157C1332.53 356.157 1332.21 356.239 1331.92 356.404C1331.65 356.568 1331.43 356.794 1331.26 357.08C1331.1 357.366 1331.01 357.695 1331.01 358.068ZM1341.67 355.078L1337.77 363.918H1336.27L1337.83 360.356L1335.43 355.078H1337.04L1338.95 359.81L1338.29 359.771L1340.16 355.078H1341.67ZM1343.25 358.068C1343.25 358.449 1343.34 358.783 1343.5 359.069C1343.66 359.346 1343.89 359.567 1344.16 359.732C1344.45 359.896 1344.77 359.979 1345.11 359.979C1345.4 359.979 1345.67 359.935 1345.93 359.849C1346.19 359.762 1346.42 359.641 1346.62 359.485C1346.82 359.329 1346.97 359.155 1347.06 358.965V360.512C1346.85 360.72 1346.57 360.884 1346.22 361.006C1345.86 361.127 1345.47 361.188 1345.05 361.188C1344.43 361.188 1343.88 361.058 1343.38 360.798C1342.9 360.529 1342.51 360.161 1342.23 359.693C1341.95 359.216 1341.81 358.674 1341.81 358.068C1341.81 357.452 1341.95 356.911 1342.23 356.443C1342.51 355.975 1342.9 355.611 1343.38 355.351C1343.88 355.082 1344.43 354.948 1345.05 354.948C1345.47 354.948 1345.86 355.008 1346.22 355.13C1346.57 355.251 1346.85 355.416 1347.06 355.624V357.171C1346.97 356.971 1346.81 356.798 1346.61 356.651C1346.41 356.495 1346.18 356.373 1345.92 356.287C1345.66 356.2 1345.39 356.157 1345.11 356.157C1344.77 356.157 1344.45 356.239 1344.16 356.404C1343.89 356.568 1343.66 356.794 1343.5 357.08C1343.34 357.366 1343.25 357.695 1343.25 358.068ZM1348.61 350.918H1350.02V361.058H1348.61V350.918ZM1354.41 361.188C1353.81 361.188 1353.27 361.058 1352.8 360.798C1352.34 360.538 1351.99 360.174 1351.74 359.706C1351.48 359.238 1351.36 358.692 1351.36 358.068C1351.36 357.435 1351.48 356.885 1351.74 356.417C1352 355.949 1352.36 355.589 1352.83 355.338C1353.3 355.078 1353.85 354.948 1354.48 354.948C1355.11 354.948 1355.65 355.069 1356.09 355.312C1356.53 355.554 1356.87 355.905 1357.1 356.365C1357.35 356.815 1357.47 357.361 1357.47 358.003C1357.47 358.072 1357.46 358.146 1357.46 358.224C1357.46 358.302 1357.45 358.358 1357.44 358.393H1352.19V357.431H1356.25L1355.82 358.029C1355.84 357.977 1355.87 357.907 1355.9 357.821C1355.93 357.725 1355.95 357.647 1355.95 357.587C1355.95 357.266 1355.88 356.989 1355.75 356.755C1355.63 356.521 1355.46 356.339 1355.23 356.209C1355.02 356.079 1354.76 356.014 1354.47 356.014C1354.11 356.014 1353.81 356.092 1353.56 356.248C1353.3 356.404 1353.11 356.629 1352.98 356.924C1352.85 357.218 1352.78 357.582 1352.78 358.016C1352.78 358.449 1352.84 358.817 1352.97 359.121C1353.1 359.415 1353.29 359.641 1353.54 359.797C1353.8 359.953 1354.11 360.031 1354.48 360.031C1354.86 360.031 1355.19 359.953 1355.48 359.797C1355.77 359.641 1356 359.402 1356.19 359.082L1357.4 359.576C1357.09 360.113 1356.69 360.516 1356.19 360.785C1355.7 361.053 1355.11 361.188 1354.41 361.188ZM1367.2 350.918H1368.62V361.058H1367.2V350.918ZM1362.25 358.068C1362.25 357.409 1362.38 356.85 1362.65 356.391C1362.92 355.923 1363.28 355.567 1363.72 355.325C1364.17 355.073 1364.65 354.948 1365.16 354.948C1365.67 354.948 1366.1 355.073 1366.48 355.325C1366.86 355.576 1367.16 355.936 1367.37 356.404C1367.6 356.863 1367.71 357.418 1367.71 358.068C1367.71 358.709 1367.6 359.264 1367.37 359.732C1367.16 360.2 1366.86 360.559 1366.48 360.811C1366.1 361.062 1365.67 361.188 1365.16 361.188C1364.65 361.188 1364.17 361.066 1363.72 360.824C1363.28 360.572 1362.92 360.213 1362.65 359.745C1362.38 359.277 1362.25 358.718 1362.25 358.068ZM1363.71 358.068C1363.71 358.466 1363.79 358.809 1363.95 359.095C1364.12 359.381 1364.33 359.597 1364.6 359.745C1364.88 359.892 1365.18 359.966 1365.5 359.966C1365.77 359.966 1366.03 359.892 1366.29 359.745C1366.56 359.597 1366.78 359.385 1366.94 359.108C1367.12 358.822 1367.2 358.475 1367.2 358.068C1367.2 357.66 1367.12 357.318 1366.94 357.041C1366.78 356.755 1366.56 356.538 1366.29 356.391C1366.03 356.243 1365.77 356.17 1365.5 356.17C1365.18 356.17 1364.88 356.243 1364.6 356.391C1364.33 356.538 1364.12 356.755 1363.95 357.041C1363.79 357.327 1363.71 357.669 1363.71 358.068ZM1372.96 361.188C1372.35 361.188 1371.82 361.058 1371.35 360.798C1370.89 360.538 1370.53 360.174 1370.28 359.706C1370.03 359.238 1369.91 358.692 1369.91 358.068C1369.91 357.435 1370.03 356.885 1370.28 356.417C1370.54 355.949 1370.91 355.589 1371.37 355.338C1371.84 355.078 1372.39 354.948 1373.03 354.948C1373.66 354.948 1374.2 355.069 1374.64 355.312C1375.08 355.554 1375.42 355.905 1375.65 356.365C1375.89 356.815 1376.02 357.361 1376.02 358.003C1376.02 358.072 1376.01 358.146 1376 358.224C1376 358.302 1376 358.358 1375.99 358.393H1370.74V357.431H1374.79L1374.36 358.029C1374.39 357.977 1374.42 357.907 1374.44 357.821C1374.48 357.725 1374.49 357.647 1374.49 357.587C1374.49 357.266 1374.43 356.989 1374.3 356.755C1374.18 356.521 1374.01 356.339 1373.78 356.209C1373.56 356.079 1373.31 356.014 1373.01 356.014C1372.66 356.014 1372.35 356.092 1372.1 356.248C1371.85 356.404 1371.66 356.629 1371.53 356.924C1371.4 357.218 1371.33 357.582 1371.32 358.016C1371.32 358.449 1371.39 358.817 1371.52 359.121C1371.65 359.415 1371.84 359.641 1372.09 359.797C1372.35 359.953 1372.66 360.031 1373.03 360.031C1373.41 360.031 1373.74 359.953 1374.03 359.797C1374.31 359.641 1374.55 359.402 1374.74 359.082L1375.95 359.576C1375.64 360.113 1375.24 360.516 1374.74 360.785C1374.25 361.053 1373.65 361.188 1372.96 361.188ZM1376.26 355.078H1377.79L1379.35 358.939L1380.91 355.078H1382.46L1379.35 361.604L1376.26 355.078ZM1385.75 361.188C1385.14 361.188 1384.6 361.058 1384.13 360.798C1383.67 360.538 1383.32 360.174 1383.07 359.706C1382.82 359.238 1382.69 358.692 1382.69 358.068C1382.69 357.435 1382.82 356.885 1383.07 356.417C1383.33 355.949 1383.69 355.589 1384.16 355.338C1384.63 355.078 1385.18 354.948 1385.81 354.948C1386.44 354.948 1386.98 355.069 1387.42 355.312C1387.86 355.554 1388.2 355.905 1388.44 356.365C1388.68 356.815 1388.8 357.361 1388.8 358.003C1388.8 358.072 1388.8 358.146 1388.79 358.224C1388.79 358.302 1388.78 358.358 1388.77 358.393H1383.52V357.431H1387.58L1387.15 358.029C1387.18 357.977 1387.2 357.907 1387.23 357.821C1387.26 357.725 1387.28 357.647 1387.28 357.587C1387.28 357.266 1387.21 356.989 1387.08 356.755C1386.96 356.521 1386.79 356.339 1386.56 356.209C1386.35 356.079 1386.09 356.014 1385.8 356.014C1385.44 356.014 1385.14 356.092 1384.89 356.248C1384.64 356.404 1384.45 356.629 1384.32 356.924C1384.19 357.218 1384.12 357.582 1384.11 358.016C1384.11 358.449 1384.17 358.817 1384.3 359.121C1384.43 359.415 1384.62 359.641 1384.87 359.797C1385.13 359.953 1385.45 360.031 1385.81 360.031C1386.19 360.031 1386.53 359.953 1386.81 359.797C1387.1 359.641 1387.34 359.402 1387.53 359.082L1388.74 359.576C1388.42 360.113 1388.02 360.516 1387.53 360.785C1387.03 361.053 1386.44 361.188 1385.75 361.188ZM1390.14 350.918H1391.54V361.058H1390.14V350.918ZM1392.88 358.068C1392.88 357.452 1393.02 356.911 1393.3 356.443C1393.59 355.975 1393.97 355.611 1394.46 355.351C1394.94 355.082 1395.49 354.948 1396.11 354.948C1396.72 354.948 1397.27 355.082 1397.75 355.351C1398.23 355.611 1398.62 355.975 1398.9 356.443C1399.19 356.911 1399.33 357.452 1399.33 358.068C1399.33 358.674 1399.19 359.216 1398.9 359.693C1398.62 360.161 1398.23 360.529 1397.75 360.798C1397.27 361.058 1396.72 361.188 1396.11 361.188C1395.49 361.188 1394.94 361.058 1394.46 360.798C1393.97 360.529 1393.59 360.161 1393.3 359.693C1393.02 359.216 1392.88 358.674 1392.88 358.068ZM1394.33 358.068C1394.33 358.44 1394.41 358.77 1394.56 359.056C1394.72 359.333 1394.93 359.554 1395.2 359.719C1395.47 359.875 1395.77 359.953 1396.11 359.953C1396.44 359.953 1396.74 359.875 1397.01 359.719C1397.28 359.554 1397.5 359.333 1397.66 359.056C1397.81 358.77 1397.89 358.44 1397.89 358.068C1397.89 357.695 1397.81 357.366 1397.66 357.08C1397.5 356.794 1397.28 356.573 1397.01 356.417C1396.74 356.261 1396.44 356.183 1396.11 356.183C1395.77 356.183 1395.47 356.261 1395.2 356.417C1394.93 356.573 1394.72 356.794 1394.56 357.08C1394.41 357.366 1394.33 357.695 1394.33 358.068ZM1402.03 363.918H1400.61V355.078H1402.03V363.918ZM1406.98 358.068C1406.98 358.726 1406.85 359.294 1406.58 359.771C1406.31 360.239 1405.96 360.598 1405.51 360.85C1405.07 361.092 1404.59 361.214 1404.07 361.214C1403.56 361.214 1403.11 361.088 1402.73 360.837C1402.36 360.577 1402.07 360.213 1401.86 359.745C1401.66 359.268 1401.56 358.709 1401.56 358.068C1401.56 357.418 1401.66 356.859 1401.86 356.391C1402.07 355.923 1402.36 355.563 1402.73 355.312C1403.11 355.052 1403.56 354.922 1404.07 354.922C1404.59 354.922 1405.07 355.047 1405.51 355.299C1405.96 355.541 1406.31 355.897 1406.58 356.365C1406.85 356.833 1406.98 357.4 1406.98 358.068ZM1405.53 358.068C1405.53 357.669 1405.44 357.331 1405.28 357.054C1405.11 356.768 1404.89 356.555 1404.62 356.417C1404.35 356.269 1404.05 356.196 1403.72 356.196C1403.45 356.196 1403.19 356.269 1402.93 356.417C1402.67 356.555 1402.45 356.763 1402.28 357.041C1402.11 357.318 1402.03 357.66 1402.03 358.068C1402.03 358.475 1402.11 358.817 1402.28 359.095C1402.45 359.372 1402.67 359.584 1402.93 359.732C1403.19 359.87 1403.45 359.94 1403.72 359.94C1404.05 359.94 1404.35 359.87 1404.62 359.732C1404.89 359.584 1405.11 359.372 1405.28 359.095C1405.44 358.809 1405.53 358.466 1405.53 358.068ZM1416.87 357.262V361.058H1415.47V357.418C1415.47 356.967 1415.39 356.633 1415.22 356.417C1415.07 356.191 1414.82 356.079 1414.47 356.079C1414.23 356.079 1414.03 356.131 1413.84 356.235C1413.67 356.339 1413.53 356.49 1413.43 356.69C1413.33 356.889 1413.29 357.132 1413.29 357.418V361.058H1411.88V357.418C1411.88 356.967 1411.8 356.633 1411.63 356.417C1411.48 356.191 1411.23 356.079 1410.88 356.079C1410.64 356.079 1410.43 356.131 1410.24 356.235C1410.07 356.339 1409.94 356.49 1409.84 356.69C1409.75 356.889 1409.7 357.132 1409.7 357.418V361.058H1408.32V355.078H1409.7V355.949C1409.87 355.619 1410.1 355.372 1410.37 355.208C1410.66 355.034 1410.99 354.948 1411.37 354.948C1411.82 354.948 1412.18 355.039 1412.47 355.221C1412.76 355.403 1412.97 355.667 1413.1 356.014C1413.31 355.667 1413.57 355.403 1413.88 355.221C1414.2 355.039 1414.57 354.948 1414.98 354.948C1415.4 354.948 1415.75 355.039 1416.03 355.221C1416.31 355.394 1416.53 355.654 1416.67 356.001C1416.8 356.347 1416.87 356.768 1416.87 357.262ZM1421.27 361.188C1420.66 361.188 1420.12 361.058 1419.65 360.798C1419.2 360.538 1418.84 360.174 1418.59 359.706C1418.34 359.238 1418.21 358.692 1418.21 358.068C1418.21 357.435 1418.34 356.885 1418.59 356.417C1418.85 355.949 1419.21 355.589 1419.68 355.338C1420.15 355.078 1420.7 354.948 1421.33 354.948C1421.96 354.948 1422.5 355.069 1422.94 355.312C1423.39 355.554 1423.72 355.905 1423.96 356.365C1424.2 356.815 1424.32 357.361 1424.32 358.003C1424.32 358.072 1424.32 358.146 1424.31 358.224C1424.31 358.302 1424.3 358.358 1424.3 358.393H1419.04V357.431H1423.1L1422.67 358.029C1422.7 357.977 1422.72 357.907 1422.75 357.821C1422.78 357.725 1422.8 357.647 1422.8 357.587C1422.8 357.266 1422.74 356.989 1422.61 356.755C1422.48 356.521 1422.31 356.339 1422.09 356.209C1421.87 356.079 1421.61 356.014 1421.32 356.014C1420.96 356.014 1420.66 356.092 1420.41 356.248C1420.16 356.404 1419.97 356.629 1419.84 356.924C1419.71 357.218 1419.64 357.582 1419.63 358.016C1419.63 358.449 1419.69 358.817 1419.82 359.121C1419.95 359.415 1420.14 359.641 1420.4 359.797C1420.66 359.953 1420.97 360.031 1421.33 360.031C1421.71 360.031 1422.05 359.953 1422.33 359.797C1422.62 359.641 1422.86 359.402 1423.05 359.082L1424.26 359.576C1423.94 360.113 1423.54 360.516 1423.05 360.785C1422.55 361.053 1421.96 361.188 1421.27 361.188ZM1429.51 357.418C1429.51 356.976 1429.42 356.642 1429.24 356.417C1429.05 356.191 1428.77 356.079 1428.39 356.079C1428.13 356.079 1427.9 356.135 1427.7 356.248C1427.5 356.352 1427.35 356.508 1427.23 356.716C1427.12 356.915 1427.07 357.149 1427.07 357.418V361.058H1425.66V355.078H1427.07V356.001C1427.26 355.645 1427.5 355.381 1427.79 355.208C1428.1 355.034 1428.46 354.948 1428.87 354.948C1429.55 354.948 1430.06 355.156 1430.42 355.572C1430.77 355.979 1430.95 356.542 1430.95 357.262V361.058H1429.51V357.418ZM1431.91 355.078H1435.31V356.313H1431.91V355.078ZM1432.91 352.998H1434.31V361.058H1432.91V352.998ZM1440.45 359.095C1440.64 359.303 1440.83 359.485 1441.02 359.641C1441.22 359.788 1441.42 359.901 1441.62 359.979C1441.81 360.048 1442.01 360.083 1442.21 360.083C1442.46 360.083 1442.66 360.026 1442.8 359.914C1442.95 359.801 1443.02 359.645 1443.02 359.446C1443.02 359.272 1442.96 359.125 1442.85 359.004C1442.74 358.874 1442.58 358.765 1442.38 358.679C1442.18 358.583 1441.95 358.488 1441.68 358.393C1441.41 358.289 1441.14 358.167 1440.87 358.029C1440.61 357.881 1440.4 357.691 1440.22 357.457C1440.06 357.223 1439.98 356.928 1439.98 356.573C1439.98 356.209 1440.07 355.905 1440.25 355.663C1440.44 355.42 1440.69 355.242 1441 355.13C1441.33 355.008 1441.67 354.948 1442.03 354.948C1442.36 354.948 1442.67 354.995 1442.95 355.091C1443.25 355.186 1443.51 355.312 1443.75 355.468C1443.98 355.624 1444.18 355.801 1444.35 356.001L1443.57 356.833C1443.37 356.599 1443.13 356.408 1442.85 356.261C1442.57 356.113 1442.29 356.04 1441.99 356.04C1441.79 356.04 1441.63 356.083 1441.5 356.17C1441.37 356.256 1441.3 356.382 1441.3 356.547C1441.3 356.685 1441.36 356.811 1441.47 356.924C1441.59 357.028 1441.75 357.123 1441.94 357.21C1442.14 357.296 1442.36 357.387 1442.6 357.483C1442.93 357.613 1443.24 357.756 1443.51 357.912C1443.79 358.068 1444.01 358.258 1444.18 358.484C1444.35 358.709 1444.44 359.004 1444.44 359.368C1444.44 359.931 1444.24 360.386 1443.85 360.733C1443.47 361.071 1442.95 361.24 1442.29 361.24C1441.88 361.24 1441.51 361.179 1441.16 361.058C1440.82 360.928 1440.52 360.763 1440.26 360.564C1440.01 360.356 1439.8 360.139 1439.63 359.914L1440.45 359.095ZM1444.85 355.078H1448.24V356.313H1444.85V355.078ZM1445.85 352.998H1447.24V361.058H1445.85V352.998ZM1450.65 358.718C1450.65 359.142 1450.75 359.472 1450.93 359.706C1451.11 359.94 1451.39 360.057 1451.76 360.057C1452.03 360.057 1452.26 360.005 1452.46 359.901C1452.66 359.788 1452.82 359.632 1452.93 359.433C1453.04 359.225 1453.1 358.986 1453.1 358.718V355.078H1454.5V361.058H1453.1V360.135C1452.91 360.481 1452.66 360.746 1452.36 360.928C1452.06 361.101 1451.71 361.188 1451.29 361.188C1450.62 361.188 1450.11 360.98 1449.74 360.564C1449.39 360.148 1449.21 359.584 1449.21 358.874V355.078H1450.65V358.718ZM1460.79 350.918H1462.21V361.058H1460.79V350.918ZM1455.84 358.068C1455.84 357.409 1455.97 356.85 1456.24 356.391C1456.51 355.923 1456.87 355.567 1457.31 355.325C1457.76 355.073 1458.24 354.948 1458.75 354.948C1459.26 354.948 1459.69 355.073 1460.07 355.325C1460.45 355.576 1460.75 355.936 1460.96 356.404C1461.19 356.863 1461.3 357.418 1461.3 358.068C1461.3 358.709 1461.19 359.264 1460.96 359.732C1460.75 360.2 1460.45 360.559 1460.07 360.811C1459.69 361.062 1459.26 361.188 1458.75 361.188C1458.24 361.188 1457.76 361.066 1457.31 360.824C1456.87 360.572 1456.51 360.213 1456.24 359.745C1455.97 359.277 1455.84 358.718 1455.84 358.068ZM1457.3 358.068C1457.3 358.466 1457.38 358.809 1457.54 359.095C1457.71 359.381 1457.92 359.597 1458.19 359.745C1458.47 359.892 1458.77 359.966 1459.09 359.966C1459.36 359.966 1459.62 359.892 1459.88 359.745C1460.15 359.597 1460.37 359.385 1460.53 359.108C1460.71 358.822 1460.79 358.475 1460.79 358.068C1460.79 357.66 1460.71 357.318 1460.53 357.041C1460.37 356.755 1460.15 356.538 1459.88 356.391C1459.62 356.243 1459.36 356.17 1459.09 356.17C1458.77 356.17 1458.47 356.243 1458.19 356.391C1457.92 356.538 1457.71 356.755 1457.54 357.041C1457.38 357.327 1457.3 357.669 1457.3 358.068ZM1463.9 352.699C1463.9 352.456 1463.99 352.252 1464.16 352.088C1464.34 351.923 1464.55 351.841 1464.78 351.841C1465.03 351.841 1465.24 351.923 1465.41 352.088C1465.58 352.252 1465.67 352.456 1465.67 352.699C1465.67 352.933 1465.58 353.136 1465.41 353.31C1465.24 353.474 1465.03 353.557 1464.78 353.557C1464.55 353.557 1464.34 353.474 1464.16 353.31C1463.99 353.136 1463.9 352.933 1463.9 352.699ZM1464.09 355.078H1465.47V361.058H1464.09V355.078ZM1466.95 358.068C1466.95 357.452 1467.09 356.911 1467.36 356.443C1467.65 355.975 1468.04 355.611 1468.52 355.351C1469.01 355.082 1469.56 354.948 1470.17 354.948C1470.79 354.948 1471.33 355.082 1471.81 355.351C1472.3 355.611 1472.68 355.975 1472.97 356.443C1473.25 356.911 1473.4 357.452 1473.4 358.068C1473.4 358.674 1473.25 359.216 1472.97 359.693C1472.68 360.161 1472.3 360.529 1471.81 360.798C1471.33 361.058 1470.79 361.188 1470.17 361.188C1469.56 361.188 1469.01 361.058 1468.52 360.798C1468.04 360.529 1467.65 360.161 1467.36 359.693C1467.09 359.216 1466.95 358.674 1466.95 358.068ZM1468.39 358.068C1468.39 358.44 1468.47 358.77 1468.63 359.056C1468.78 359.333 1468.99 359.554 1469.26 359.719C1469.53 359.875 1469.83 359.953 1470.17 359.953C1470.5 359.953 1470.8 359.875 1471.07 359.719C1471.35 359.554 1471.56 359.333 1471.72 359.056C1471.88 358.77 1471.95 358.44 1471.95 358.068C1471.95 357.695 1471.88 357.366 1471.72 357.08C1471.56 356.794 1471.35 356.573 1471.07 356.417C1470.8 356.261 1470.5 356.183 1470.17 356.183C1469.83 356.183 1469.53 356.261 1469.26 356.417C1468.99 356.573 1468.78 356.794 1468.63 357.08C1468.47 357.366 1468.39 357.695 1468.39 358.068Z" fill="white"/>
<path d="M134.84 262.557C108.283 277.357 29.8852 293.723 -5.99406 300.057V389.558L1512 393.058V249.558L1412.41 252.058H1369.15C1362.72 252.058 1331.26 249.391 1316.34 248.058L1272.58 233.058C1244.01 221.858 1218.76 219.724 1209.71 220.058C1182.38 211.057 1122.89 192.857 1103.58 192.057C1084.27 191.257 1041.55 199.057 1022.6 203.057L978.841 207.557L935.082 212.557C899.37 214.89 826.136 219.557 818.893 219.557C811.65 219.557 781.673 228.89 767.589 233.557L723.83 236.557C708.238 243.057 567.906 262.057 533.704 267.057C506.342 271.057 421.707 259.724 382.81 253.557C254.047 219.157 163.846 245.223 134.84 262.557Z" fill="#891A11"/>
<path d="M914.138 244.439C941.896 216.112 826.663 232.636 765.577 244.439C770.953 233.468 863.804 221.996 870.645 221.996C877.487 221.996 956.654 214.515 972.292 214.515C984.802 214.515 1053.41 203.544 1086.16 198.058C1100 198.39 1130.24 202.147 1140.4 214.515C1153.11 229.976 1161.41 233.966 1165.81 234.464C1170.21 234.963 1248.4 259.899 1259.64 259.899C1268.63 259.899 1304.11 264.554 1320.73 266.881H1358.84C1367.64 266.881 1387.19 273.365 1390.12 274.362C1393.05 275.359 1408.2 292.815 1417 292.815C1424.03 292.815 1460 302.457 1477.11 307.278C1474.5 319.081 1470.85 343.884 1477.11 348.671C1483.36 353.459 1486.88 380.257 1487.86 393.058H1455.11L1290.92 359.145C1243.84 351.165 1137.96 331.715 1091.04 317.751C1044.13 303.787 985.161 300.96 961.541 301.293C942.156 302.124 894.102 301.692 856.962 293.313C810.537 282.84 879.442 279.848 914.138 244.439Z" fill="#761A13" fill-opacity="0.7"/>
<path d="M485.21 271.058L371.241 251.058C449.247 267.724 492.302 331.058 516.615 331.058C540.928 331.058 648.819 352.169 669.08 352.169C685.289 352.169 769.373 371.428 809.389 381.058H901.07H1068.23H1132.05L1160.92 366.058L1136.1 361.613L1019.09 352.169C971.816 348.095 875.643 339.947 869.159 339.947C862.676 339.947 789.465 329.206 753.671 323.835L648.819 305.502L555.618 293.28L485.21 271.058Z" fill="#5C1712" fill-opacity="0.18"/>
<path d="M82.0275 346.557C65.5297 350.557 19.4903 348.224 -1.46723 346.557H-5.49108V303.558H5.57449C12.8174 303.558 81.0215 287.224 114.218 279.058C127.899 276.658 153.115 262.724 164.013 256.057C221.152 233.257 306.86 244.224 342.571 252.557C265.112 240.057 251.029 263.557 207.772 273.557C173.167 281.557 159.822 294.557 157.474 300.057C174.743 296.724 212.501 290.057 225.377 290.057C241.472 290.057 276.681 303.057 251.029 311.557C230.507 318.357 225.377 332.724 225.377 339.057C230.574 341.557 242.981 346.557 251.029 346.557H302.836L327.482 352.057C318.093 352.057 296.297 353.357 284.225 358.557C269.136 365.057 219.341 358.557 189.162 358.557C158.983 358.557 102.65 341.557 82.0275 346.557Z" fill="#5C1712" fill-opacity="0.24"/>
<path d="M495.98 345.058C429.989 311.058 337.709 280.225 299.818 269.058C366.614 229.058 463.789 296.058 504.028 334.558L538.733 345.058C560.529 351.558 617.098 365.158 669.005 367.558C720.913 369.958 751.662 384.558 760.548 391.558H669.005C638.826 390.225 561.971 379.058 495.98 345.058Z" fill="#AB2419" fill-opacity="0.23"/>
<path d="M1155.89 228.058C1151.46 227.258 1129.57 212.058 1119.17 204.558C1101.22 192.058 1146.84 204.558 1162.93 211.558C1179.03 218.558 1243.91 235.058 1267.05 239.058C1290.19 243.058 1335.96 258.558 1357.59 258.558C1379.21 258.558 1438.56 268.058 1449.63 268.058C1458.48 268.058 1494.56 284.058 1511.5 292.058V392.058H1485.84C1479.81 374.224 1467.54 336.158 1466.73 326.558C1465.73 314.558 1438.06 309.558 1407.38 287.058C1382.83 269.058 1331.43 266.891 1308.8 268.058C1294.54 264.891 1261.62 258.558 1243.91 258.558C1221.78 258.558 1161.42 229.058 1155.89 228.058Z" fill="#A22117"/>
<path d="M148.327 286.732C166.98 264.383 74.4637 300.866 27.6834 309.818C7.4872 316.87 -24.4941 330.456 9.15033 328.388C51.2058 325.804 129.675 309.08 148.327 286.732Z" fill="white" fill-opacity="0.03"/>
</svg>
