<svg width="1512" height="202" viewBox="0 0 1512 202" fill="none" xmlns="http://www.w3.org/2000/svg">
<path d="M1308.19 163.078H1311.63V164.313H1308.19V163.078ZM1311.47 160.426C1311.38 160.287 1311.28 160.196 1311.17 160.153C1311.07 160.109 1310.96 160.088 1310.85 160.088C1310.72 160.088 1310.6 160.122 1310.51 160.192C1310.42 160.261 1310.35 160.374 1310.3 160.53C1310.25 160.686 1310.22 160.889 1310.22 161.141V169.058H1308.84V160.868C1308.84 160.4 1308.92 160.014 1309.06 159.711C1309.22 159.399 1309.44 159.165 1309.73 159.009C1310.01 158.844 1310.36 158.762 1310.78 158.762C1311.01 158.762 1311.22 158.792 1311.39 158.853C1311.56 158.913 1311.71 158.987 1311.83 159.074C1311.96 159.16 1312.06 159.247 1312.13 159.334L1311.47 160.426ZM1314.14 166.718C1314.14 167.142 1314.23 167.472 1314.41 167.706C1314.6 167.94 1314.87 168.057 1315.25 168.057C1315.52 168.057 1315.75 168.005 1315.95 167.901C1316.15 167.788 1316.3 167.632 1316.42 167.433C1316.53 167.225 1316.59 166.986 1316.59 166.718V163.078H1317.99V169.058H1316.59V168.135C1316.4 168.481 1316.15 168.746 1315.84 168.928C1315.55 169.101 1315.19 169.188 1314.78 169.188C1314.11 169.188 1313.6 168.98 1313.23 168.564C1312.88 168.148 1312.7 167.584 1312.7 166.874V163.078H1314.14V166.718ZM1319.78 158.918H1321.19V169.058H1319.78V158.918ZM1322.98 158.918H1324.39V169.058H1322.98V158.918ZM1331.01 166.068C1331.01 166.449 1331.1 166.783 1331.26 167.069C1331.43 167.346 1331.65 167.567 1331.92 167.732C1332.21 167.896 1332.53 167.979 1332.87 167.979C1333.16 167.979 1333.43 167.935 1333.69 167.849C1333.95 167.762 1334.18 167.641 1334.38 167.485C1334.58 167.329 1334.73 167.155 1334.82 166.965V168.512C1334.62 168.72 1334.33 168.884 1333.98 169.006C1333.62 169.127 1333.23 169.188 1332.81 169.188C1332.19 169.188 1331.64 169.058 1331.14 168.798C1330.66 168.529 1330.27 168.161 1329.99 167.693C1329.71 167.216 1329.57 166.674 1329.57 166.068C1329.57 165.452 1329.71 164.911 1329.99 164.443C1330.27 163.975 1330.66 163.611 1331.14 163.351C1331.64 163.082 1332.19 162.948 1332.81 162.948C1333.23 162.948 1333.62 163.008 1333.98 163.13C1334.33 163.251 1334.62 163.416 1334.82 163.624V165.171C1334.73 164.971 1334.58 164.798 1334.37 164.651C1334.17 164.495 1333.94 164.373 1333.68 164.287C1333.42 164.2 1333.15 164.157 1332.87 164.157C1332.53 164.157 1332.21 164.239 1331.92 164.404C1331.65 164.568 1331.43 164.794 1331.26 165.08C1331.1 165.366 1331.01 165.695 1331.01 166.068ZM1341.67 163.078L1337.77 171.918H1336.27L1337.83 168.356L1335.43 163.078H1337.04L1338.95 167.81L1338.29 167.771L1340.16 163.078H1341.67ZM1343.25 166.068C1343.25 166.449 1343.34 166.783 1343.5 167.069C1343.66 167.346 1343.89 167.567 1344.16 167.732C1344.45 167.896 1344.77 167.979 1345.11 167.979C1345.4 167.979 1345.67 167.935 1345.93 167.849C1346.19 167.762 1346.42 167.641 1346.62 167.485C1346.82 167.329 1346.97 167.155 1347.06 166.965V168.512C1346.85 168.72 1346.57 168.884 1346.22 169.006C1345.86 169.127 1345.47 169.188 1345.05 169.188C1344.43 169.188 1343.88 169.058 1343.38 168.798C1342.9 168.529 1342.51 168.161 1342.23 167.693C1341.95 167.216 1341.81 166.674 1341.81 166.068C1341.81 165.452 1341.95 164.911 1342.23 164.443C1342.51 163.975 1342.9 163.611 1343.38 163.351C1343.88 163.082 1344.43 162.948 1345.05 162.948C1345.47 162.948 1345.86 163.008 1346.22 163.13C1346.57 163.251 1346.85 163.416 1347.06 163.624V165.171C1346.97 164.971 1346.81 164.798 1346.61 164.651C1346.41 164.495 1346.18 164.373 1345.92 164.287C1345.66 164.2 1345.39 164.157 1345.11 164.157C1344.77 164.157 1344.45 164.239 1344.16 164.404C1343.89 164.568 1343.66 164.794 1343.5 165.08C1343.34 165.366 1343.25 165.695 1343.25 166.068ZM1348.61 158.918H1350.02V169.058H1348.61V158.918ZM1354.41 169.188C1353.81 169.188 1353.27 169.058 1352.8 168.798C1352.34 168.538 1351.99 168.174 1351.74 167.706C1351.48 167.238 1351.36 166.692 1351.36 166.068C1351.36 165.435 1351.48 164.885 1351.74 164.417C1352 163.949 1352.36 163.589 1352.83 163.338C1353.3 163.078 1353.85 162.948 1354.48 162.948C1355.11 162.948 1355.65 163.069 1356.09 163.312C1356.53 163.554 1356.87 163.905 1357.1 164.365C1357.35 164.815 1357.47 165.361 1357.47 166.003C1357.47 166.072 1357.46 166.146 1357.46 166.224C1357.46 166.302 1357.45 166.358 1357.44 166.393H1352.19V165.431H1356.25L1355.82 166.029C1355.84 165.977 1355.87 165.907 1355.9 165.821C1355.93 165.725 1355.95 165.647 1355.95 165.587C1355.95 165.266 1355.88 164.989 1355.75 164.755C1355.63 164.521 1355.46 164.339 1355.23 164.209C1355.02 164.079 1354.76 164.014 1354.47 164.014C1354.11 164.014 1353.81 164.092 1353.56 164.248C1353.3 164.404 1353.11 164.629 1352.98 164.924C1352.85 165.218 1352.78 165.582 1352.78 166.016C1352.78 166.449 1352.84 166.817 1352.97 167.121C1353.1 167.415 1353.29 167.641 1353.54 167.797C1353.8 167.953 1354.11 168.031 1354.48 168.031C1354.86 168.031 1355.19 167.953 1355.48 167.797C1355.77 167.641 1356 167.402 1356.19 167.082L1357.4 167.576C1357.09 168.113 1356.69 168.516 1356.19 168.785C1355.7 169.053 1355.11 169.188 1354.41 169.188ZM1367.2 158.918H1368.62V169.058H1367.2V158.918ZM1362.25 166.068C1362.25 165.409 1362.38 164.85 1362.65 164.391C1362.92 163.923 1363.28 163.567 1363.72 163.325C1364.17 163.073 1364.65 162.948 1365.16 162.948C1365.67 162.948 1366.1 163.073 1366.48 163.325C1366.86 163.576 1367.16 163.936 1367.37 164.404C1367.6 164.863 1367.71 165.418 1367.71 166.068C1367.71 166.709 1367.6 167.264 1367.37 167.732C1367.16 168.2 1366.86 168.559 1366.48 168.811C1366.1 169.062 1365.67 169.188 1365.16 169.188C1364.65 169.188 1364.17 169.066 1363.72 168.824C1363.28 168.572 1362.92 168.213 1362.65 167.745C1362.38 167.277 1362.25 166.718 1362.25 166.068ZM1363.71 166.068C1363.71 166.466 1363.79 166.809 1363.95 167.095C1364.12 167.381 1364.33 167.597 1364.6 167.745C1364.88 167.892 1365.18 167.966 1365.5 167.966C1365.77 167.966 1366.03 167.892 1366.29 167.745C1366.56 167.597 1366.78 167.385 1366.94 167.108C1367.12 166.822 1367.2 166.475 1367.2 166.068C1367.2 165.66 1367.12 165.318 1366.94 165.041C1366.78 164.755 1366.56 164.538 1366.29 164.391C1366.03 164.243 1365.77 164.17 1365.5 164.17C1365.18 164.17 1364.88 164.243 1364.6 164.391C1364.33 164.538 1364.12 164.755 1363.95 165.041C1363.79 165.327 1363.71 165.669 1363.71 166.068ZM1372.96 169.188C1372.35 169.188 1371.82 169.058 1371.35 168.798C1370.89 168.538 1370.53 168.174 1370.28 167.706C1370.03 167.238 1369.91 166.692 1369.91 166.068C1369.91 165.435 1370.03 164.885 1370.28 164.417C1370.54 163.949 1370.91 163.589 1371.37 163.338C1371.84 163.078 1372.39 162.948 1373.03 162.948C1373.66 162.948 1374.2 163.069 1374.64 163.312C1375.08 163.554 1375.42 163.905 1375.65 164.365C1375.89 164.815 1376.02 165.361 1376.02 166.003C1376.02 166.072 1376.01 166.146 1376 166.224C1376 166.302 1376 166.358 1375.99 166.393H1370.74V165.431H1374.79L1374.36 166.029C1374.39 165.977 1374.42 165.907 1374.44 165.821C1374.48 165.725 1374.49 165.647 1374.49 165.587C1374.49 165.266 1374.43 164.989 1374.3 164.755C1374.18 164.521 1374.01 164.339 1373.78 164.209C1373.56 164.079 1373.31 164.014 1373.01 164.014C1372.66 164.014 1372.35 164.092 1372.1 164.248C1371.85 164.404 1371.66 164.629 1371.53 164.924C1371.4 165.218 1371.33 165.582 1371.32 166.016C1371.32 166.449 1371.39 166.817 1371.52 167.121C1371.65 167.415 1371.84 167.641 1372.09 167.797C1372.35 167.953 1372.66 168.031 1373.03 168.031C1373.41 168.031 1373.74 167.953 1374.03 167.797C1374.31 167.641 1374.55 167.402 1374.74 167.082L1375.95 167.576C1375.64 168.113 1375.24 168.516 1374.74 168.785C1374.25 169.053 1373.65 169.188 1372.96 169.188ZM1376.26 163.078H1377.79L1379.35 166.939L1380.91 163.078H1382.46L1379.35 169.604L1376.26 163.078ZM1385.75 169.188C1385.14 169.188 1384.6 169.058 1384.13 168.798C1383.67 168.538 1383.32 168.174 1383.07 167.706C1382.82 167.238 1382.69 166.692 1382.69 166.068C1382.69 165.435 1382.82 164.885 1383.07 164.417C1383.33 163.949 1383.69 163.589 1384.16 163.338C1384.63 163.078 1385.18 162.948 1385.81 162.948C1386.44 162.948 1386.98 163.069 1387.42 163.312C1387.86 163.554 1388.2 163.905 1388.44 164.365C1388.68 164.815 1388.8 165.361 1388.8 166.003C1388.8 166.072 1388.8 166.146 1388.79 166.224C1388.79 166.302 1388.78 166.358 1388.77 166.393H1383.52V165.431H1387.58L1387.15 166.029C1387.18 165.977 1387.2 165.907 1387.23 165.821C1387.26 165.725 1387.28 165.647 1387.28 165.587C1387.28 165.266 1387.21 164.989 1387.08 164.755C1386.96 164.521 1386.79 164.339 1386.56 164.209C1386.35 164.079 1386.09 164.014 1385.8 164.014C1385.44 164.014 1385.14 164.092 1384.89 164.248C1384.64 164.404 1384.45 164.629 1384.32 164.924C1384.19 165.218 1384.12 165.582 1384.11 166.016C1384.11 166.449 1384.17 166.817 1384.3 167.121C1384.43 167.415 1384.62 167.641 1384.87 167.797C1385.13 167.953 1385.45 168.031 1385.81 168.031C1386.19 168.031 1386.53 167.953 1386.81 167.797C1387.1 167.641 1387.34 167.402 1387.53 167.082L1388.74 167.576C1388.42 168.113 1388.02 168.516 1387.53 168.785C1387.03 169.053 1386.44 169.188 1385.75 169.188ZM1390.14 158.918H1391.54V169.058H1390.14V158.918ZM1392.88 166.068C1392.88 165.452 1393.02 164.911 1393.3 164.443C1393.59 163.975 1393.97 163.611 1394.46 163.351C1394.94 163.082 1395.49 162.948 1396.11 162.948C1396.72 162.948 1397.27 163.082 1397.75 163.351C1398.23 163.611 1398.62 163.975 1398.9 164.443C1399.19 164.911 1399.33 165.452 1399.33 166.068C1399.33 166.674 1399.19 167.216 1398.9 167.693C1398.62 168.161 1398.23 168.529 1397.75 168.798C1397.27 169.058 1396.72 169.188 1396.11 169.188C1395.49 169.188 1394.94 169.058 1394.46 168.798C1393.97 168.529 1393.59 168.161 1393.3 167.693C1393.02 167.216 1392.88 166.674 1392.88 166.068ZM1394.33 166.068C1394.33 166.44 1394.41 166.77 1394.56 167.056C1394.72 167.333 1394.93 167.554 1395.2 167.719C1395.47 167.875 1395.77 167.953 1396.11 167.953C1396.44 167.953 1396.74 167.875 1397.01 167.719C1397.28 167.554 1397.5 167.333 1397.66 167.056C1397.81 166.77 1397.89 166.44 1397.89 166.068C1397.89 165.695 1397.81 165.366 1397.66 165.08C1397.5 164.794 1397.28 164.573 1397.01 164.417C1396.74 164.261 1396.44 164.183 1396.11 164.183C1395.77 164.183 1395.47 164.261 1395.2 164.417C1394.93 164.573 1394.72 164.794 1394.56 165.08C1394.41 165.366 1394.33 165.695 1394.33 166.068ZM1402.03 171.918H1400.61V163.078H1402.03V171.918ZM1406.98 166.068C1406.98 166.726 1406.85 167.294 1406.58 167.771C1406.31 168.239 1405.96 168.598 1405.51 168.85C1405.07 169.092 1404.59 169.214 1404.07 169.214C1403.56 169.214 1403.11 169.088 1402.73 168.837C1402.36 168.577 1402.07 168.213 1401.86 167.745C1401.66 167.268 1401.56 166.709 1401.56 166.068C1401.56 165.418 1401.66 164.859 1401.86 164.391C1402.07 163.923 1402.36 163.563 1402.73 163.312C1403.11 163.052 1403.56 162.922 1404.07 162.922C1404.59 162.922 1405.07 163.047 1405.51 163.299C1405.96 163.541 1406.31 163.897 1406.58 164.365C1406.85 164.833 1406.98 165.4 1406.98 166.068ZM1405.53 166.068C1405.53 165.669 1405.44 165.331 1405.28 165.054C1405.11 164.768 1404.89 164.555 1404.62 164.417C1404.35 164.269 1404.05 164.196 1403.72 164.196C1403.45 164.196 1403.19 164.269 1402.93 164.417C1402.67 164.555 1402.45 164.763 1402.28 165.041C1402.11 165.318 1402.03 165.66 1402.03 166.068C1402.03 166.475 1402.11 166.817 1402.28 167.095C1402.45 167.372 1402.67 167.584 1402.93 167.732C1403.19 167.87 1403.45 167.94 1403.72 167.94C1404.05 167.94 1404.35 167.87 1404.62 167.732C1404.89 167.584 1405.11 167.372 1405.28 167.095C1405.44 166.809 1405.53 166.466 1405.53 166.068ZM1416.87 165.262V169.058H1415.47V165.418C1415.47 164.967 1415.39 164.633 1415.22 164.417C1415.07 164.191 1414.82 164.079 1414.47 164.079C1414.23 164.079 1414.03 164.131 1413.84 164.235C1413.67 164.339 1413.53 164.49 1413.43 164.69C1413.33 164.889 1413.29 165.132 1413.29 165.418V169.058H1411.88V165.418C1411.88 164.967 1411.8 164.633 1411.63 164.417C1411.48 164.191 1411.23 164.079 1410.88 164.079C1410.64 164.079 1410.43 164.131 1410.24 164.235C1410.07 164.339 1409.94 164.49 1409.84 164.69C1409.75 164.889 1409.7 165.132 1409.7 165.418V169.058H1408.32V163.078H1409.7V163.949C1409.87 163.619 1410.1 163.372 1410.37 163.208C1410.66 163.034 1410.99 162.948 1411.37 162.948C1411.82 162.948 1412.18 163.039 1412.47 163.221C1412.76 163.403 1412.97 163.667 1413.1 164.014C1413.31 163.667 1413.57 163.403 1413.88 163.221C1414.2 163.039 1414.57 162.948 1414.98 162.948C1415.4 162.948 1415.75 163.039 1416.03 163.221C1416.31 163.394 1416.53 163.654 1416.67 164.001C1416.8 164.347 1416.87 164.768 1416.87 165.262ZM1421.27 169.188C1420.66 169.188 1420.12 169.058 1419.65 168.798C1419.2 168.538 1418.84 168.174 1418.59 167.706C1418.34 167.238 1418.21 166.692 1418.21 166.068C1418.21 165.435 1418.34 164.885 1418.59 164.417C1418.85 163.949 1419.21 163.589 1419.68 163.338C1420.15 163.078 1420.7 162.948 1421.33 162.948C1421.96 162.948 1422.5 163.069 1422.94 163.312C1423.39 163.554 1423.72 163.905 1423.96 164.365C1424.2 164.815 1424.32 165.361 1424.32 166.003C1424.32 166.072 1424.32 166.146 1424.31 166.224C1424.31 166.302 1424.3 166.358 1424.3 166.393H1419.04V165.431H1423.1L1422.67 166.029C1422.7 165.977 1422.72 165.907 1422.75 165.821C1422.78 165.725 1422.8 165.647 1422.8 165.587C1422.8 165.266 1422.74 164.989 1422.61 164.755C1422.48 164.521 1422.31 164.339 1422.09 164.209C1421.87 164.079 1421.61 164.014 1421.32 164.014C1420.96 164.014 1420.66 164.092 1420.41 164.248C1420.16 164.404 1419.97 164.629 1419.84 164.924C1419.71 165.218 1419.64 165.582 1419.63 166.016C1419.63 166.449 1419.69 166.817 1419.82 167.121C1419.95 167.415 1420.14 167.641 1420.4 167.797C1420.66 167.953 1420.97 168.031 1421.33 168.031C1421.71 168.031 1422.05 167.953 1422.33 167.797C1422.62 167.641 1422.86 167.402 1423.05 167.082L1424.26 167.576C1423.94 168.113 1423.54 168.516 1423.05 168.785C1422.55 169.053 1421.96 169.188 1421.27 169.188ZM1429.51 165.418C1429.51 164.976 1429.42 164.642 1429.24 164.417C1429.05 164.191 1428.77 164.079 1428.39 164.079C1428.13 164.079 1427.9 164.135 1427.7 164.248C1427.5 164.352 1427.35 164.508 1427.23 164.716C1427.12 164.915 1427.07 165.149 1427.07 165.418V169.058H1425.66V163.078H1427.07V164.001C1427.26 163.645 1427.5 163.381 1427.79 163.208C1428.1 163.034 1428.46 162.948 1428.87 162.948C1429.55 162.948 1430.06 163.156 1430.42 163.572C1430.77 163.979 1430.95 164.542 1430.95 165.262V169.058H1429.51V165.418ZM1431.91 163.078H1435.31V164.313H1431.91V163.078ZM1432.91 160.998H1434.31V169.058H1432.91V160.998ZM1440.45 167.095C1440.64 167.303 1440.83 167.485 1441.02 167.641C1441.22 167.788 1441.42 167.901 1441.62 167.979C1441.81 168.048 1442.01 168.083 1442.21 168.083C1442.46 168.083 1442.66 168.026 1442.8 167.914C1442.95 167.801 1443.02 167.645 1443.02 167.446C1443.02 167.272 1442.96 167.125 1442.85 167.004C1442.74 166.874 1442.58 166.765 1442.38 166.679C1442.18 166.583 1441.95 166.488 1441.68 166.393C1441.41 166.289 1441.14 166.167 1440.87 166.029C1440.61 165.881 1440.4 165.691 1440.22 165.457C1440.06 165.223 1439.98 164.928 1439.98 164.573C1439.98 164.209 1440.07 163.905 1440.25 163.663C1440.44 163.42 1440.69 163.242 1441 163.13C1441.33 163.008 1441.67 162.948 1442.03 162.948C1442.36 162.948 1442.67 162.995 1442.95 163.091C1443.25 163.186 1443.51 163.312 1443.75 163.468C1443.98 163.624 1444.18 163.801 1444.35 164.001L1443.57 164.833C1443.37 164.599 1443.13 164.408 1442.85 164.261C1442.57 164.113 1442.29 164.04 1441.99 164.04C1441.79 164.04 1441.63 164.083 1441.5 164.17C1441.37 164.256 1441.3 164.382 1441.3 164.547C1441.3 164.685 1441.36 164.811 1441.47 164.924C1441.59 165.028 1441.75 165.123 1441.94 165.21C1442.14 165.296 1442.36 165.387 1442.6 165.483C1442.93 165.613 1443.24 165.756 1443.51 165.912C1443.79 166.068 1444.01 166.258 1444.18 166.484C1444.35 166.709 1444.44 167.004 1444.44 167.368C1444.44 167.931 1444.24 168.386 1443.85 168.733C1443.47 169.071 1442.95 169.24 1442.29 169.24C1441.88 169.24 1441.51 169.179 1441.16 169.058C1440.82 168.928 1440.52 168.763 1440.26 168.564C1440.01 168.356 1439.8 168.139 1439.63 167.914L1440.45 167.095ZM1444.85 163.078H1448.24V164.313H1444.85V163.078ZM1445.85 160.998H1447.24V169.058H1445.85V160.998ZM1450.65 166.718C1450.65 167.142 1450.75 167.472 1450.93 167.706C1451.11 167.94 1451.39 168.057 1451.76 168.057C1452.03 168.057 1452.26 168.005 1452.46 167.901C1452.66 167.788 1452.82 167.632 1452.93 167.433C1453.04 167.225 1453.1 166.986 1453.1 166.718V163.078H1454.5V169.058H1453.1V168.135C1452.91 168.481 1452.66 168.746 1452.36 168.928C1452.06 169.101 1451.71 169.188 1451.29 169.188C1450.62 169.188 1450.11 168.98 1449.74 168.564C1449.39 168.148 1449.21 167.584 1449.21 166.874V163.078H1450.65V166.718ZM1460.79 158.918H1462.21V169.058H1460.79V158.918ZM1455.84 166.068C1455.84 165.409 1455.97 164.85 1456.24 164.391C1456.51 163.923 1456.87 163.567 1457.31 163.325C1457.76 163.073 1458.24 162.948 1458.75 162.948C1459.26 162.948 1459.69 163.073 1460.07 163.325C1460.45 163.576 1460.75 163.936 1460.96 164.404C1461.19 164.863 1461.3 165.418 1461.3 166.068C1461.3 166.709 1461.19 167.264 1460.96 167.732C1460.75 168.2 1460.45 168.559 1460.07 168.811C1459.69 169.062 1459.26 169.188 1458.75 169.188C1458.24 169.188 1457.76 169.066 1457.31 168.824C1456.87 168.572 1456.51 168.213 1456.24 167.745C1455.97 167.277 1455.84 166.718 1455.84 166.068ZM1457.3 166.068C1457.3 166.466 1457.38 166.809 1457.54 167.095C1457.71 167.381 1457.92 167.597 1458.19 167.745C1458.47 167.892 1458.77 167.966 1459.09 167.966C1459.36 167.966 1459.62 167.892 1459.88 167.745C1460.15 167.597 1460.37 167.385 1460.53 167.108C1460.71 166.822 1460.79 166.475 1460.79 166.068C1460.79 165.66 1460.71 165.318 1460.53 165.041C1460.37 164.755 1460.15 164.538 1459.88 164.391C1459.62 164.243 1459.36 164.17 1459.09 164.17C1458.77 164.17 1458.47 164.243 1458.19 164.391C1457.92 164.538 1457.71 164.755 1457.54 165.041C1457.38 165.327 1457.3 165.669 1457.3 166.068ZM1463.9 160.699C1463.9 160.456 1463.99 160.252 1464.16 160.088C1464.34 159.923 1464.55 159.841 1464.78 159.841C1465.03 159.841 1465.24 159.923 1465.41 160.088C1465.58 160.252 1465.67 160.456 1465.67 160.699C1465.67 160.933 1465.58 161.136 1465.41 161.31C1465.24 161.474 1465.03 161.557 1464.78 161.557C1464.55 161.557 1464.34 161.474 1464.16 161.31C1463.99 161.136 1463.9 160.933 1463.9 160.699ZM1464.09 163.078H1465.47V169.058H1464.09V163.078ZM1466.95 166.068C1466.95 165.452 1467.09 164.911 1467.36 164.443C1467.65 163.975 1468.04 163.611 1468.52 163.351C1469.01 163.082 1469.56 162.948 1470.17 162.948C1470.79 162.948 1471.33 163.082 1471.81 163.351C1472.3 163.611 1472.68 163.975 1472.97 164.443C1473.25 164.911 1473.4 165.452 1473.4 166.068C1473.4 166.674 1473.25 167.216 1472.97 167.693C1472.68 168.161 1472.3 168.529 1471.81 168.798C1471.33 169.058 1470.79 169.188 1470.17 169.188C1469.56 169.188 1469.01 169.058 1468.52 168.798C1468.04 168.529 1467.65 168.161 1467.36 167.693C1467.09 167.216 1466.95 166.674 1466.95 166.068ZM1468.39 166.068C1468.39 166.44 1468.47 166.77 1468.63 167.056C1468.78 167.333 1468.99 167.554 1469.26 167.719C1469.53 167.875 1469.83 167.953 1470.17 167.953C1470.5 167.953 1470.8 167.875 1471.07 167.719C1471.35 167.554 1471.56 167.333 1471.72 167.056C1471.88 166.77 1471.95 166.44 1471.95 166.068C1471.95 165.695 1471.88 165.366 1471.72 165.08C1471.56 164.794 1471.35 164.573 1471.07 164.417C1470.8 164.261 1470.5 164.183 1470.17 164.183C1469.83 164.183 1469.53 164.261 1469.26 164.417C1468.99 164.573 1468.78 164.794 1468.63 165.08C1468.47 165.366 1468.39 165.695 1468.39 166.068Z" fill="white"/>
<path d="M134.84 70.5568C108.283 85.3568 29.8852 101.723 -5.99406 108.057V197.558L1512 201.058V57.5576L1412.41 60.0576H1369.15C1362.72 60.0576 1331.26 57.3909 1316.34 56.0576L1272.58 41.0576C1244.01 29.8576 1218.76 27.7243 1209.71 28.0576C1182.38 19.0575 1122.89 0.857129 1103.58 0.057129C1084.27 -0.742871 1041.55 7.05713 1022.6 11.0571L978.841 15.5571L935.082 20.5571C899.37 22.8905 826.136 27.5571 818.893 27.5571C811.65 27.5571 781.673 36.8905 767.589 41.5571L723.83 44.5571C708.238 51.0571 567.906 70.0571 533.704 75.0571C506.342 79.0571 421.707 67.7236 382.81 61.5568C254.047 27.1568 163.846 53.2235 134.84 70.5568Z" fill="#891A11"/>
<path d="M914.138 52.4391C941.896 24.1118 826.663 40.6361 765.577 52.4391C770.953 41.4677 863.804 29.9962 870.645 29.9962C877.487 29.9962 956.654 22.5154 972.292 22.5154C984.802 22.5154 1053.41 11.5436 1086.16 6.05762C1100 6.3901 1130.24 10.1471 1140.4 22.5154C1153.11 37.9758 1161.41 41.9655 1165.81 42.4643C1170.21 42.963 1248.4 67.8991 1259.64 67.8991C1268.63 67.8991 1304.11 72.5538 1320.73 74.8811H1358.84C1367.64 74.8811 1387.19 81.3645 1390.12 82.362C1393.05 83.3594 1408.2 100.815 1417 100.815C1424.03 100.815 1460 110.457 1477.11 115.278C1474.5 127.081 1470.85 151.884 1477.11 156.671C1483.36 161.459 1486.88 188.257 1487.86 201.058H1455.11L1290.92 167.145C1243.84 159.165 1137.96 139.715 1091.04 125.751C1044.13 111.787 985.161 108.96 961.541 109.293C942.156 110.124 894.102 109.692 856.962 101.313C810.537 90.8402 879.442 87.8483 914.138 52.4391Z" fill="#761A13" fill-opacity="0.7"/>
<path d="M485.21 79.0576L371.241 59.0576C449.247 75.7243 492.302 139.058 516.615 139.058C540.928 139.058 648.819 160.169 669.08 160.169C685.289 160.169 769.373 179.428 809.389 189.058H901.07H1068.23H1132.05L1160.92 174.058L1136.1 169.613L1019.09 160.169C971.816 156.095 875.643 147.947 869.159 147.947C862.676 147.947 789.465 137.206 753.671 131.835L648.819 113.502L555.618 101.28L485.21 79.0576Z" fill="#5C1712" fill-opacity="0.18"/>
<path d="M82.0275 154.557C65.5297 158.557 19.4903 156.224 -1.46723 154.557H-5.49108V111.558H5.57449C12.8174 111.558 81.0215 95.2243 114.218 87.0576C127.899 84.6576 153.115 70.7242 164.013 64.0574C221.152 41.2574 306.86 52.2241 342.571 60.5574C265.112 48.0574 251.029 71.5574 207.772 81.5574C173.167 89.5574 159.822 102.557 157.474 108.057C174.743 104.724 212.501 98.0574 225.377 98.0574C241.472 98.0574 276.681 111.057 251.029 119.557C230.507 126.357 225.377 140.724 225.377 147.057C230.574 149.557 242.981 154.557 251.029 154.557H302.836L327.482 160.057C318.093 160.057 296.297 161.357 284.225 166.557C269.136 173.057 219.341 166.557 189.162 166.557C158.983 166.557 102.65 149.557 82.0275 154.557Z" fill="#5C1712" fill-opacity="0.24"/>
<path d="M495.98 153.058C429.989 119.058 337.709 88.2247 299.818 77.0581C366.614 37.0581 463.789 104.058 504.028 142.558L538.733 153.058C560.529 159.558 617.098 173.158 669.005 175.558C720.913 177.958 751.662 192.558 760.548 199.558H669.005C638.826 198.225 561.971 187.058 495.98 153.058Z" fill="#AB2419" fill-opacity="0.23"/>
<path d="M1155.89 36.0578C1151.46 35.2578 1129.57 20.0578 1119.17 12.5578C1101.22 0.0577998 1146.84 12.5578 1162.93 19.5578C1179.03 26.5578 1243.91 43.0578 1267.05 47.0578C1290.19 51.0578 1335.96 66.5578 1357.59 66.5578C1379.21 66.5578 1438.56 76.0578 1449.63 76.0578C1458.48 76.0578 1494.56 92.0578 1511.5 100.058V200.058H1485.84C1479.81 182.224 1467.54 144.158 1466.73 134.558C1465.73 122.558 1438.06 117.558 1407.38 95.0578C1382.83 77.0578 1331.43 74.8911 1308.8 76.0578C1294.54 72.8911 1261.62 66.5578 1243.91 66.5578C1221.78 66.5578 1161.42 37.0578 1155.89 36.0578Z" fill="#A22117"/>
<path d="M148.327 94.7317C166.98 72.3832 74.4637 108.866 27.6834 117.818C7.4872 124.87 -24.4941 138.456 9.15033 136.388C51.2058 133.804 129.675 117.08 148.327 94.7317Z" fill="white" fill-opacity="0.03"/>
</svg>
